<svg width="9" height="31" viewBox="0 0 9 31" fill="none" xmlns="http://www.w3.org/2000/svg">
<circle cx="4.25" cy="26.75" r="4.25" fill="#9A41FE"/>
<circle cx="4.25" cy="4.25" r="4.25" fill="#9A41FE"/>
<path d="M1.21429 4.25007C1.21429 2.57349 2.57343 1.21436 4.25001 1.21436C5.92659 1.21436 7.28572 2.57349 7.28572 4.25007V26.7501C7.28572 28.4266 5.92659 29.7858 4.25001 29.7858C2.57343 29.7858 1.21429 28.4266 1.21429 26.7501V4.25007Z" fill="#9A41FE"/>
<path d="M1.21429 4.25007C1.21429 2.57349 2.57343 1.21436 4.25001 1.21436C5.92659 1.21436 7.28572 2.57349 7.28572 4.25007V26.7501C7.28572 28.4266 5.92659 29.7858 4.25001 29.7858C2.57343 29.7858 1.21429 28.4266 1.21429 26.7501V4.25007Z" fill="url(#paint0_linear_1_39124)"/>
<defs>
<linearGradient id="paint0_linear_1_39124" x1="4.25001" y1="11.2144" x2="4.25001" y2="42.7858" gradientUnits="userSpaceOnUse">
<stop stop-color="white"/>
<stop offset="1" stop-color="white" stop-opacity="0.5"/>
</linearGradient>
</defs>
</svg>
