<svg width="35" height="82" viewBox="0 0 35 82" fill="none" xmlns="http://www.w3.org/2000/svg">
<path d="M34.3819 80.0977H32.9649V81.0977H30.1319V80.0977H27.2989V81.0977H24.4649V80.0977H21.6319V81.0977H18.7989V80.0977H15.9649V81.0977H13.1319V80.0977H10.2989V81.0977H7.46491V80.0977H4.63191V81.0977H1.7989V80.0977H0.381907V17.0977C0.381907 13.7839 3.0682 11.0977 6.38191 11.0977H34.3819V80.0977Z" fill="url(#paint0_linear_1_35201)"/>
<path opacity="0.2" d="M31.3819 80.0977H28.3819V77.0977H31.3819V80.0977ZM34.3819 77.0977H31.3819V74.0977H34.3819V77.0977ZM31.3819 74.0977H28.3819V71.0977H31.3819V74.0977ZM34.3819 71.0977H31.3819V68.0977H34.3819V71.0977ZM31.3819 68.0977H28.3819V65.0977H31.3819V68.0977ZM34.3819 65.0977H31.3819V62.0977H34.3819V65.0977ZM31.3819 62.0977H28.3819V59.0977H31.3819V62.0977ZM34.3819 59.0977H31.3819V56.0977H34.3819V59.0977ZM31.3819 56.0977H28.3819V53.0977H31.3819V56.0977ZM34.3819 53.0977H31.3819V50.0977H34.3819V53.0977ZM31.3819 50.0977H28.3819V47.0977H31.3819V50.0977ZM34.3819 47.0977H31.3819V44.0977H34.3819V47.0977ZM31.3819 44.0977H28.3819V41.0977H31.3819V44.0977ZM34.3819 41.0977H31.3819V38.0977H34.3819V41.0977ZM31.3819 38.0977H28.3819V35.0977H31.3819V38.0977ZM34.3819 35.0977H31.3819V32.0977H34.3819V35.0977ZM31.3819 32.0977H28.3819V29.0977H31.3819V32.0977ZM34.3819 29.0977H31.3819V26.0977H34.3819V29.0977ZM31.3819 26.0977H28.3819V23.0977H31.3819V26.0977ZM34.3819 23.0977H31.3819V20.0977H34.3819V23.0977ZM31.3819 20.0977H28.3819V17.0977H31.3819V20.0977ZM34.3819 17.0977H31.3819V14.0977H34.3819V17.0977ZM31.3819 14.0977H28.3819V11.0977H31.3819V14.0977Z" fill="white"/>
<g filter="url(#filter0_i_1_35201)">
<path d="M11.2134 12.8342L7.77429 2.93631C7.08531 0.953386 4.9193 -0.095557 2.93638 0.593429C0.953455 1.28241 -0.0954862 3.44843 0.5935 5.43135L6.07431 21.2053C6.61103 22.75 8.29839 23.5671 9.84311 23.0304C11.3878 22.4937 12.205 20.8063 11.6682 19.2616L7.40523 6.99253C7.01207 5.86098 5.77604 5.2624 4.64449 5.65557C3.51294 6.04874 2.91437 7.28476 3.30754 8.41631L5.52886 14.8094" stroke="white" stroke-width="0.763605" stroke-linecap="round"/>
</g>
<g filter="url(#filter1_d_1_35201)">
<path d="M18.4859 36.6737H20.4219V41.0417C20.4219 41.5857 20.5019 41.6497 21.0299 41.6497C21.2699 41.6497 22.1979 41.6497 22.4859 41.6497C23.0139 41.6497 23.1099 41.3297 23.1739 39.0737C23.5739 39.4097 24.4219 39.7297 24.9339 39.8577C24.7419 42.7217 24.2459 43.4737 22.6619 43.4737C22.2939 43.4737 21.0939 43.4737 20.7419 43.4737C18.9339 43.4737 18.4859 42.8657 18.4859 41.0577V36.6737ZM14.2299 36.7377H16.2619C16.0219 40.0817 15.3179 42.3537 10.9499 43.5697C10.7419 43.0577 10.2459 42.2737 9.82991 41.8897C13.6379 40.9777 14.0219 39.3137 14.2299 36.7377ZM18.7739 32.8977L20.3739 31.9537C21.7659 33.1537 23.5259 34.8657 24.3419 36.0817L22.5979 37.1697C21.8779 35.9697 20.1979 34.1617 18.7739 32.8977ZM14.6779 31.3137L16.7899 31.9057C16.0859 33.2977 15.2539 34.8177 14.5979 35.7937L12.9819 35.2337C13.5899 34.1617 14.3099 32.5297 14.6779 31.3137ZM10.8699 34.4657C13.7659 34.4017 18.2619 34.2577 22.3899 34.1297L22.3099 35.9057C18.2619 36.1457 13.8619 36.3377 10.9339 36.4337L10.8699 34.4657ZM10.3579 30.2257H24.4059V32.0337H10.3579V30.2257ZM16.3579 28.5137H18.3259V31.2337H16.3579V28.5137ZM14.7259 49.9697H24.5019V51.6177H14.7259V49.9697ZM14.0219 61.6337H24.8539V63.2337H14.0219V61.6337ZM15.4139 52.7217H23.6379V61.9217H21.8779V54.1137H17.1099V61.9217H15.4139V52.7217ZM16.6779 54.9937H22.1819V56.3217H16.6779V54.9937ZM16.6459 57.2177H22.5979V58.4977H16.6459V57.2177ZM16.5979 59.4097H22.2139V60.7217H16.5979V59.4097ZM18.7419 48.5457L20.7739 48.6097C20.5019 50.3057 20.1019 52.1777 19.7499 53.3457L18.0859 53.2177C18.3739 51.9537 18.6459 49.9857 18.7419 48.5457ZM13.1579 48.5617L14.9179 49.1217C13.9259 51.8417 12.3579 54.7377 10.6939 56.5777C10.5179 56.0977 10.0059 55.0417 9.70191 54.5777C11.0779 53.1057 12.3739 50.8497 13.1579 48.5617ZM11.5739 53.0097L13.3499 51.1857V51.2017V63.5217H11.5739V53.0097Z" fill="white"/>
</g>
<defs>
<filter id="filter0_i_1_35201" x="0" y="0" width="12.215" height="24.0331" filterUnits="userSpaceOnUse" color-interpolation-filters="sRGB">
<feFlood flood-opacity="0" result="BackgroundImageFix"/>
<feBlend mode="normal" in="SourceGraphic" in2="BackgroundImageFix" result="shape"/>
<feColorMatrix in="SourceAlpha" type="matrix" values="0 0 0 0 0 0 0 0 0 0 0 0 0 0 0 0 0 0 127 0" result="hardAlpha"/>
<feOffset dy="0.455902"/>
<feGaussianBlur stdDeviation="0.455902"/>
<feComposite in2="hardAlpha" operator="arithmetic" k2="-1" k3="1"/>
<feColorMatrix type="matrix" values="0 0 0 0 1 0 0 0 0 1 0 0 0 0 1 0 0 0 1 0"/>
<feBlend mode="normal" in2="shape" result="effect1_innerShadow_1_35201"/>
</filter>
<filter id="filter1_d_1_35201" x="9.70191" y="28.5137" width="15.232" height="35.7081" filterUnits="userSpaceOnUse" color-interpolation-filters="sRGB">
<feFlood flood-opacity="0" result="BackgroundImageFix"/>
<feColorMatrix in="SourceAlpha" type="matrix" values="0 0 0 0 0 0 0 0 0 0 0 0 0 0 0 0 0 0 127 0" result="hardAlpha"/>
<feOffset dy="0.7"/>
<feComposite in2="hardAlpha" operator="out"/>
<feColorMatrix type="matrix" values="0 0 0 0 0.401899 0 0 0 0 0.2 0 0 0 0 0.75 0 0 0 1 0"/>
<feBlend mode="normal" in2="BackgroundImageFix" result="effect1_dropShadow_1_35201"/>
<feBlend mode="normal" in="SourceGraphic" in2="effect1_dropShadow_1_35201" result="shape"/>
</filter>
<linearGradient id="paint0_linear_1_35201" x1="17.3819" y1="11.0977" x2="17.3819" y2="81.0977" gradientUnits="userSpaceOnUse">
<stop stop-color="#985DFF"/>
<stop offset="1" stop-color="#C2A8EE"/>
</linearGradient>
</defs>
</svg>
