<svg width="248" height="164" viewBox="0 0 248 164" fill="none" xmlns="http://www.w3.org/2000/svg">
<g filter="url(#filter0_d_39894_4726)">
<path d="M242.427 32.509C243.037 28.7502 239.971 25.4107 236.174 25.6986L20.4133 42.0559C16.8895 42.323 14.3942 45.6139 15.0881 49.0791L23.7531 92.3514C23.861 92.8902 23.7986 93.4492 23.5745 93.951L10.4592 123.323C8.65774 127.357 11.7791 131.864 16.1893 131.596L37.2713 130.315C38.5388 130.238 39.6826 131.072 39.9973 132.302L43.906 147.58C44.0903 148.3 45.0281 148.484 45.4706 147.886L58.3263 130.521C58.7891 129.896 59.5033 129.506 60.2793 129.454L235.85 117.808C239.323 117.578 241.838 114.4 241.265 110.967L238.263 92.9937L235.644 78.0834C235.595 77.806 235.591 77.5226 235.632 77.2439L239.663 49.542L242.427 32.509Z" fill="white"/>
<path d="M243.008 32.603C243.679 28.4686 240.306 24.7951 236.129 25.1116L20.369 41.469C16.4929 41.7628 13.7482 45.3829 14.5114 49.1945L23.1765 92.4671C23.2604 92.8861 23.2112 93.3213 23.037 93.7115L9.92226 123.083C7.94065 127.521 11.3739 132.478 16.2251 132.183L37.3074 130.903C38.293 130.843 39.1829 131.491 39.4277 132.448L43.3356 147.726C43.6429 148.926 45.206 149.232 45.9433 148.236L58.7994 130.871C59.1593 130.385 59.7149 130.082 60.3185 130.042L235.888 118.396C239.708 118.142 242.476 114.646 241.845 110.87L238.843 92.8964L238.842 92.8914L236.224 77.982C236.186 77.7662 236.182 77.545 236.214 77.3282L240.245 49.6272L240.245 49.6263L243.008 32.603Z" stroke="black" stroke-width="1.17692"/>
</g>
<path d="M220.977 4.33726C221.165 4.0631 221.521 3.94345 221.843 4.06425L233.712 8.52409C233.931 8.60639 234.097 8.78771 234.161 9.01282C234.224 9.23778 234.177 9.47934 234.034 9.66381L224.442 21.977L226.839 22.3158C227.107 22.3537 227.332 22.5363 227.426 22.7904C227.52 23.0443 227.466 23.3288 227.287 23.5315L208.308 44.9843C208.065 45.2592 207.656 45.3123 207.35 45.1089C207.044 44.9054 206.935 44.5079 207.095 44.1771L216.566 24.553L213.726 22.9534C213.4 22.7693 213.263 22.3687 213.411 22.0237L220.908 4.4645L220.977 4.33726Z" fill="#FFE666" stroke="black" stroke-width="1.47115" stroke-linejoin="round"/>
<path d="M223.773 37.543C223.93 37.3932 224.146 37.3204 224.362 37.3446C224.578 37.3689 224.772 37.4872 224.892 37.6681L232.015 48.377C232.157 48.5916 232.178 48.8649 232.068 49.0979C231.958 49.3311 231.733 49.4902 231.477 49.5162L210.917 51.5981C210.604 51.6298 210.306 51.4591 210.174 51.1734C210.043 50.8878 210.107 50.5506 210.335 50.3339L223.773 37.543Z" fill="#58A6FF" stroke="black" stroke-width="1.47115" stroke-linejoin="round"/>
<path d="M20.521 22.2997C20.3721 22.045 20.0637 21.9123 19.7465 21.9805L7.49166 24.6168C7.2407 24.6708 7.02655 24.843 6.92402 25.0735C6.82165 25.3039 6.84448 25.5616 6.98411 25.7575L14.9527 36.9277L12.7318 36.9795C12.4434 36.9863 12.1739 37.1531 12.0396 37.4077C11.9054 37.6626 11.9304 37.9602 12.1037 38.1722L28.4789 58.1999C28.7029 58.4734 29.1123 58.5326 29.4387 58.3386C29.7653 58.1442 29.9089 57.755 29.7751 57.4274L22.6675 40.0135L25.5321 38.9774C25.7233 38.908 25.8829 38.769 25.9746 38.5916C26.0663 38.4143 26.0824 38.2133 26.02 38.0337L20.5746 22.4157L20.521 22.2997Z" fill="#FF75AA" stroke="black" stroke-width="1.47115" stroke-linejoin="round"/>
<path d="M13.9489 50.1252C13.8177 50.0174 13.6476 49.9596 13.468 49.9651C13.2629 49.9714 13.0639 50.0593 12.918 50.2074L4.65776 58.6028C4.46648 58.7973 4.39166 59.0697 4.46193 59.316C4.53224 59.5623 4.73699 59.7449 4.99774 59.7935L25.1218 63.5442C25.4404 63.6036 25.7758 63.4517 25.9473 63.1703C26.1188 62.8889 26.0861 62.5435 25.8676 62.3198L14.0026 50.1745L13.9489 50.1252Z" fill="#58FFFF" stroke="black" stroke-width="1.47115" stroke-linejoin="round"/>
<g filter="url(#filter1_d_39894_4726)">
<path d="M79.8288 124.228C79.9855 122.976 81.0037 122.008 82.262 121.916L204.468 112.923C206.156 112.799 207.526 114.269 207.283 115.944L205.315 129.541L203.437 142.511C203.262 143.717 202.287 144.648 201.075 144.767L185.345 146.309C184.602 146.382 183.924 146.765 183.478 147.364L176.47 156.792C176.1 157.288 175.348 157.261 175.016 156.738L170.041 148.912C169.52 148.092 168.593 147.624 167.625 147.69L79.3066 153.757C77.6436 153.871 76.2899 152.438 76.4978 150.785L78.2168 137.104L79.8288 124.228Z" fill="url(#paint0_linear_39894_4726)"/>
<path d="M204.425 112.337C206.488 112.185 208.163 113.981 207.866 116.028L205.897 129.625L204.019 142.596C203.805 144.07 202.614 145.208 201.132 145.353L185.402 146.894C184.824 146.951 184.296 147.25 183.95 147.716L176.941 157.142C176.326 157.97 175.073 157.924 174.519 157.054L169.544 149.228C169.139 148.591 168.418 148.226 167.665 148.278L79.3468 154.344C77.3143 154.483 75.6597 152.732 75.9137 150.711L77.6327 137.03L79.2452 124.154C79.4368 122.625 80.6808 121.442 82.2186 121.329L204.425 112.337Z" stroke="black" stroke-width="1.17692"/>
</g>
<mask id="path-9-outside-1_39894_4726" maskUnits="userSpaceOnUse" x="106.239" y="122.439" width="71.9432" height="20.9137" fill="black">
<rect fill="white" x="106.239" y="122.439" width="71.9432" height="20.9137"/>
<path d="M115.766 139.739L118.15 139.572L120.192 131.965L123.906 131.705L121.864 139.313L124.503 139.128L124.379 141.003L108.78 142.094L108.904 140.219L112.052 139.999L110.534 132.621L114.248 132.361L115.766 139.739ZM115.586 129.301L115.632 128.552L114.934 127.854L119.391 127.542L119.28 129.043L124.871 128.652L124.727 130.528L109.871 131.567L110.015 129.691L115.586 129.301ZM132.928 135.75L133.33 140.377L130.555 140.571L130.471 139.654L125.159 140.948L126.101 127.447L134.272 126.875L133.723 134.751L128.328 135.128L128.136 138.01L130.262 137.507L130.133 135.945L132.928 135.75ZM139.543 128.373L137.862 128.49L137.028 140.452L134.253 140.646L135.21 126.81L142.443 126.304L141.695 136.963C141.67 137.345 141.522 137.676 141.254 137.957C140.985 138.224 140.661 138.371 140.283 138.398L137.703 138.578L138.935 137.097L139.543 128.373ZM131.091 133.069L131.169 131.944L128.55 132.127L128.471 133.252L131.091 133.069ZM128.753 129.127L128.674 130.252L131.293 130.069L131.372 128.944L128.753 129.127ZM159.076 125.141L158.955 127.055L155.788 127.276L155.514 128.14L158.564 127.927L158.06 135.053L156.203 135.183L155.838 134.737L156.183 129.841L152.743 130.082L152.398 134.977L151.981 135.478L150.104 135.609L150.608 128.483L153.032 128.313L153.305 127.45L150.451 127.649L150.573 125.735L159.076 125.141ZM145.087 135.489L145.548 136.183L146.552 133.972L142.252 134.273L142.379 132.437L149.748 131.922L149.6 134.014L147.245 138.265L147.206 138.267L148.186 139.633L145.136 139.846L142.233 135.688L145.087 135.489ZM147.714 131.475L145.348 131.64L144.993 130.211L144.571 131.478L142.245 131.641L143.906 126.751L143.4 126.256L149.226 125.849L150.297 131.058L148.166 131.207L147.352 127.709L145.808 127.817L145.203 129.568L147.217 129.427L147.714 131.475ZM155.547 130.573L155.266 134.698L158.175 138.934L155.106 139.149L154.016 136.77L152.447 139.335L149.554 139.537L152.993 134.779L153.28 130.732L155.547 130.573ZM168.327 135.828L167.417 136.009L167.265 138.338L164.333 138.543L164.469 136.549L159.408 137.493L159.541 135.46L160.143 135.359L160.71 126.893L160.123 126.934L160.247 125.059L168.79 124.461L168.665 126.336L168.099 126.376L167.568 133.956L168.478 133.774L168.327 135.828ZM171.5 127.258L171.413 128.541L172.281 130.562L173.309 128.133L173.411 126.495L169.012 126.803L169.169 124.828L176.167 124.338L175.856 128.603L173.448 133.211L175.435 137.747L172.913 137.923L172.027 135.923L170.918 138.043L167.966 138.25L170.857 133.235L168.913 128.755L168.998 127.433L171.5 127.258ZM163.468 128.134L165.071 128.022L165.166 126.581L163.564 126.693L163.468 128.134ZM163.248 131.449L164.831 131.338L164.947 129.896L163.344 130.008L163.248 131.449ZM163.011 134.805L164.621 134.516L164.707 133.213L163.124 133.324L163.011 134.805Z"/>
</mask>
<path d="M115.766 139.739L118.15 139.572L120.192 131.965L123.906 131.705L121.864 139.313L124.503 139.128L124.379 141.003L108.78 142.094L108.904 140.219L112.052 139.999L110.534 132.621L114.248 132.361L115.766 139.739ZM115.586 129.301L115.632 128.552L114.934 127.854L119.391 127.542L119.28 129.043L124.871 128.652L124.727 130.528L109.871 131.567L110.015 129.691L115.586 129.301ZM132.928 135.75L133.33 140.377L130.555 140.571L130.471 139.654L125.159 140.948L126.101 127.447L134.272 126.875L133.723 134.751L128.328 135.128L128.136 138.01L130.262 137.507L130.133 135.945L132.928 135.75ZM139.543 128.373L137.862 128.49L137.028 140.452L134.253 140.646L135.21 126.81L142.443 126.304L141.695 136.963C141.67 137.345 141.522 137.676 141.254 137.957C140.985 138.224 140.661 138.371 140.283 138.398L137.703 138.578L138.935 137.097L139.543 128.373ZM131.091 133.069L131.169 131.944L128.55 132.127L128.471 133.252L131.091 133.069ZM128.753 129.127L128.674 130.252L131.293 130.069L131.372 128.944L128.753 129.127ZM159.076 125.141L158.955 127.055L155.788 127.276L155.514 128.14L158.564 127.927L158.06 135.053L156.203 135.183L155.838 134.737L156.183 129.841L152.743 130.082L152.398 134.977L151.981 135.478L150.104 135.609L150.608 128.483L153.032 128.313L153.305 127.45L150.451 127.649L150.573 125.735L159.076 125.141ZM145.087 135.489L145.548 136.183L146.552 133.972L142.252 134.273L142.379 132.437L149.748 131.922L149.6 134.014L147.245 138.265L147.206 138.267L148.186 139.633L145.136 139.846L142.233 135.688L145.087 135.489ZM147.714 131.475L145.348 131.64L144.993 130.211L144.571 131.478L142.245 131.641L143.906 126.751L143.4 126.256L149.226 125.849L150.297 131.058L148.166 131.207L147.352 127.709L145.808 127.817L145.203 129.568L147.217 129.427L147.714 131.475ZM155.547 130.573L155.266 134.698L158.175 138.934L155.106 139.149L154.016 136.77L152.447 139.335L149.554 139.537L152.993 134.779L153.28 130.732L155.547 130.573ZM168.327 135.828L167.417 136.009L167.265 138.338L164.333 138.543L164.469 136.549L159.408 137.493L159.541 135.46L160.143 135.359L160.71 126.893L160.123 126.934L160.247 125.059L168.79 124.461L168.665 126.336L168.099 126.376L167.568 133.956L168.478 133.774L168.327 135.828ZM171.5 127.258L171.413 128.541L172.281 130.562L173.309 128.133L173.411 126.495L169.012 126.803L169.169 124.828L176.167 124.338L175.856 128.603L173.448 133.211L175.435 137.747L172.913 137.923L172.027 135.923L170.918 138.043L167.966 138.25L170.857 133.235L168.913 128.755L168.998 127.433L171.5 127.258ZM163.468 128.134L165.071 128.022L165.166 126.581L163.564 126.693L163.468 128.134ZM163.248 131.449L164.831 131.338L164.947 129.896L163.344 130.008L163.248 131.449ZM163.011 134.805L164.621 134.516L164.707 133.213L163.124 133.324L163.011 134.805Z" fill="black"/>
<path d="M115.766 139.739L115.189 139.858C115.249 140.146 115.513 140.347 115.807 140.326L115.766 139.739ZM118.15 139.572L118.191 140.159C118.442 140.142 118.654 139.967 118.719 139.725L118.15 139.572ZM120.192 131.965L120.151 131.378C119.9 131.396 119.688 131.57 119.623 131.813L120.192 131.965ZM123.906 131.705L124.474 131.858C124.523 131.674 124.481 131.478 124.36 131.331C124.239 131.184 124.054 131.105 123.865 131.118L123.906 131.705ZM121.864 139.313L121.296 139.16C121.247 139.344 121.289 139.54 121.41 139.687C121.531 139.834 121.716 139.913 121.905 139.9L121.864 139.313ZM124.503 139.128L125.09 139.167C125.102 138.997 125.039 138.831 124.919 138.711C124.798 138.591 124.632 138.529 124.462 138.541L124.503 139.128ZM124.379 141.003L124.42 141.59C124.714 141.569 124.947 141.335 124.966 141.042L124.379 141.003ZM108.78 142.094L108.193 142.055C108.182 142.224 108.244 142.39 108.365 142.51C108.485 142.63 108.652 142.692 108.821 142.681L108.78 142.094ZM108.904 140.219L108.863 139.632C108.57 139.652 108.337 139.886 108.317 140.18L108.904 140.219ZM112.052 139.999L112.093 140.586C112.262 140.574 112.418 140.49 112.52 140.354C112.623 140.219 112.662 140.046 112.628 139.88L112.052 139.999ZM110.534 132.621L110.493 132.034C110.324 132.046 110.168 132.13 110.065 132.265C109.962 132.4 109.923 132.573 109.957 132.739L110.534 132.621ZM114.248 132.361L114.824 132.243C114.765 131.954 114.501 131.754 114.207 131.774L114.248 132.361ZM115.586 129.301L115.627 129.888C115.921 129.868 116.155 129.632 116.173 129.337L115.586 129.301ZM115.632 128.552L116.219 128.588C116.229 128.42 116.167 128.255 116.048 128.136L115.632 128.552ZM114.934 127.854L114.893 127.267C114.664 127.283 114.464 127.432 114.383 127.648C114.303 127.864 114.355 128.107 114.518 128.27L114.934 127.854ZM119.391 127.542L119.978 127.586C119.991 127.416 119.929 127.248 119.808 127.127C119.688 127.006 119.521 126.944 119.35 126.955L119.391 127.542ZM119.28 129.043L118.693 129C118.681 129.17 118.743 129.337 118.863 129.458C118.984 129.579 119.151 129.642 119.321 129.63L119.28 129.043ZM124.871 128.652L125.458 128.697C125.471 128.527 125.409 128.359 125.288 128.237C125.168 128.116 125 128.053 124.83 128.065L124.871 128.652ZM124.727 130.528L124.768 131.115C125.059 131.095 125.291 130.864 125.314 130.573L124.727 130.528ZM109.871 131.567L109.284 131.522C109.271 131.693 109.333 131.861 109.453 131.982C109.574 132.103 109.741 132.166 109.912 132.154L109.871 131.567ZM110.015 129.691L109.974 129.104C109.682 129.124 109.45 129.355 109.428 129.646L110.015 129.691ZM115.766 139.739L115.807 140.326L118.191 140.159L118.15 139.572L118.109 138.985L115.725 139.152L115.766 139.739ZM118.15 139.572L118.719 139.725L120.76 132.118L120.192 131.965L119.623 131.813L117.582 139.42L118.15 139.572ZM120.192 131.965L120.233 132.552L123.947 132.292L123.906 131.705L123.865 131.118L120.151 131.378L120.192 131.965ZM123.906 131.705L123.337 131.553L121.296 139.16L121.864 139.313L122.433 139.465L124.474 131.858L123.906 131.705ZM121.864 139.313L121.905 139.9L124.544 139.715L124.503 139.128L124.462 138.541L121.823 138.726L121.864 139.313ZM124.503 139.128L123.916 139.089L123.792 140.964L124.379 141.003L124.966 141.042L125.09 139.167L124.503 139.128ZM124.379 141.003L124.338 140.416L108.739 141.507L108.78 142.094L108.821 142.681L124.42 141.59L124.379 141.003ZM108.78 142.094L109.367 142.133L109.492 140.258L108.904 140.219L108.317 140.18L108.193 142.055L108.78 142.094ZM108.904 140.219L108.945 140.806L112.093 140.586L112.052 139.999L112.01 139.412L108.863 139.632L108.904 140.219ZM112.052 139.999L112.628 139.88L111.11 132.502L110.534 132.621L109.957 132.739L111.475 140.117L112.052 139.999ZM110.534 132.621L110.575 133.208L114.289 132.948L114.248 132.361L114.207 131.774L110.493 132.034L110.534 132.621ZM114.248 132.361L113.671 132.48L115.189 139.858L115.766 139.739L116.342 139.62L114.824 132.243L114.248 132.361ZM115.586 129.301L116.173 129.337L116.219 128.588L115.632 128.552L115.044 128.516L114.998 129.266L115.586 129.301ZM115.632 128.552L116.048 128.136L115.351 127.438L114.934 127.854L114.518 128.27L115.215 128.968L115.632 128.552ZM114.934 127.854L114.976 128.441L119.432 128.13L119.391 127.542L119.35 126.955L114.893 127.267L114.934 127.854ZM119.391 127.542L118.804 127.499L118.693 129L119.28 129.043L119.867 129.087L119.978 127.586L119.391 127.542ZM119.28 129.043L119.321 129.63L124.912 129.239L124.871 128.652L124.83 128.065L119.239 128.456L119.28 129.043ZM124.871 128.652L124.284 128.607L124.14 130.483L124.727 130.528L125.314 130.573L125.458 128.697L124.871 128.652ZM124.727 130.528L124.686 129.941L109.83 130.98L109.871 131.567L109.912 132.154L124.768 131.115L124.727 130.528ZM109.871 131.567L110.458 131.612L110.601 129.736L110.015 129.691L109.428 129.646L109.284 131.522L109.871 131.567ZM110.015 129.691L110.056 130.278L115.627 129.888L115.586 129.301L115.545 128.714L109.974 129.104L110.015 129.691ZM132.928 135.75L133.514 135.699C133.487 135.379 133.207 135.14 132.887 135.163L132.928 135.75ZM133.33 140.377L133.371 140.964C133.529 140.953 133.675 140.879 133.778 140.759C133.88 140.639 133.93 140.483 133.917 140.326L133.33 140.377ZM130.555 140.571L129.969 140.624C129.998 140.943 130.276 141.18 130.596 141.158L130.555 140.571ZM130.471 139.654L131.057 139.6C131.041 139.43 130.952 139.274 130.813 139.175C130.673 139.075 130.498 139.041 130.331 139.082L130.471 139.654ZM125.159 140.948L124.572 140.907C124.559 141.095 124.636 141.277 124.78 141.398C124.924 141.519 125.116 141.564 125.299 141.52L125.159 140.948ZM126.101 127.447L126.06 126.859C125.767 126.88 125.534 127.113 125.514 127.406L126.101 127.447ZM134.272 126.875L134.859 126.916C134.871 126.746 134.808 126.579 134.688 126.459C134.567 126.339 134.401 126.276 134.231 126.288L134.272 126.875ZM133.723 134.751L133.764 135.338C134.056 135.318 134.289 135.085 134.31 134.792L133.723 134.751ZM128.328 135.128L128.286 134.541C127.993 134.562 127.76 134.796 127.74 135.089L128.328 135.128ZM128.136 138.01L127.549 137.971C127.537 138.157 127.613 138.338 127.756 138.459C127.898 138.579 128.09 138.625 128.271 138.582L128.136 138.01ZM130.262 137.507L130.397 138.08C130.68 138.013 130.872 137.749 130.848 137.459L130.262 137.507ZM130.133 135.945L130.092 135.358C129.935 135.369 129.789 135.442 129.686 135.562C129.584 135.681 129.533 135.837 129.546 135.993L130.133 135.945ZM139.543 128.373L140.13 128.414C140.142 128.244 140.079 128.077 139.959 127.957C139.838 127.836 139.672 127.774 139.502 127.786L139.543 128.373ZM137.862 128.49L137.821 127.903C137.528 127.924 137.295 128.157 137.275 128.449L137.862 128.49ZM137.028 140.452L137.07 141.039C137.362 141.019 137.595 140.786 137.615 140.493L137.028 140.452ZM134.253 140.646L133.666 140.606C133.654 140.776 133.716 140.942 133.837 141.063C133.957 141.183 134.124 141.245 134.294 141.233L134.253 140.646ZM135.21 126.81L135.169 126.223C134.876 126.243 134.643 126.476 134.623 126.769L135.21 126.81ZM142.443 126.304L143.03 126.345C143.042 126.175 142.979 126.008 142.859 125.888C142.738 125.767 142.572 125.705 142.402 125.717L142.443 126.304ZM141.695 136.963L141.108 136.922L141.108 136.924L141.695 136.963ZM141.254 137.957L141.669 138.374C141.672 138.371 141.676 138.367 141.679 138.363L141.254 137.957ZM137.703 138.578L137.25 138.202C137.1 138.383 137.072 138.637 137.179 138.846C137.286 139.056 137.509 139.182 137.744 139.165L137.703 138.578ZM138.935 137.097L139.387 137.474C139.466 137.379 139.513 137.262 139.522 137.138L138.935 137.097ZM131.091 133.069L131.132 133.656C131.424 133.636 131.657 133.403 131.678 133.11L131.091 133.069ZM131.169 131.944L131.756 131.985C131.768 131.815 131.706 131.648 131.585 131.528C131.465 131.407 131.298 131.345 131.128 131.357L131.169 131.944ZM128.55 132.127L128.509 131.54C128.216 131.561 127.983 131.793 127.963 132.086L128.55 132.127ZM128.471 133.252L127.884 133.211C127.872 133.381 127.935 133.548 128.055 133.668C128.176 133.789 128.342 133.851 128.512 133.839L128.471 133.252ZM128.753 129.127L128.711 128.54C128.419 128.561 128.186 128.794 128.165 129.086L128.753 129.127ZM128.674 130.252L128.087 130.211C128.075 130.381 128.138 130.548 128.258 130.668C128.378 130.789 128.545 130.851 128.715 130.839L128.674 130.252ZM131.293 130.069L131.334 130.656C131.627 130.636 131.86 130.403 131.88 130.11L131.293 130.069ZM131.372 128.944L131.959 128.985C131.971 128.815 131.908 128.648 131.788 128.528C131.667 128.407 131.501 128.345 131.331 128.357L131.372 128.944ZM132.928 135.75L132.342 135.801L132.744 140.428L133.33 140.377L133.917 140.326L133.514 135.699L132.928 135.75ZM133.33 140.377L133.289 139.79L130.513 139.984L130.555 140.571L130.596 141.158L133.371 140.964L133.33 140.377ZM130.555 140.571L131.141 140.517L131.057 139.6L130.471 139.654L129.885 139.707L129.969 140.624L130.555 140.571ZM130.471 139.654L130.331 139.082L125.02 140.377L125.159 140.948L125.299 141.52L130.61 140.225L130.471 139.654ZM125.159 140.948L125.746 140.989L126.688 127.487L126.101 127.447L125.514 127.406L124.572 140.907L125.159 140.948ZM126.101 127.447L126.142 128.034L134.313 127.462L134.272 126.875L134.231 126.288L126.06 126.859L126.101 127.447ZM134.272 126.875L133.685 126.834L133.136 134.71L133.723 134.751L134.31 134.792L134.859 126.916L134.272 126.875ZM133.723 134.751L133.682 134.164L128.286 134.541L128.328 135.128L128.369 135.715L133.764 135.338L133.723 134.751ZM128.328 135.128L127.74 135.089L127.549 137.971L128.136 138.01L128.723 138.049L128.915 135.167L128.328 135.128ZM128.136 138.01L128.271 138.582L130.397 138.08L130.262 137.507L130.126 136.935L128.001 137.437L128.136 138.01ZM130.262 137.507L130.848 137.459L130.719 135.897L130.133 135.945L129.546 135.993L129.675 137.556L130.262 137.507ZM130.133 135.945L130.174 136.532L132.969 136.337L132.928 135.75L132.887 135.163L130.092 135.358L130.133 135.945ZM139.543 128.373L139.502 127.786L137.821 127.903L137.862 128.49L137.903 129.077L139.584 128.96L139.543 128.373ZM137.862 128.49L137.275 128.449L136.441 140.411L137.028 140.452L137.615 140.493L138.449 128.531L137.862 128.49ZM137.028 140.452L136.987 139.865L134.212 140.059L134.253 140.646L134.294 141.233L137.07 141.039L137.028 140.452ZM134.253 140.646L134.84 140.687L135.797 126.85L135.21 126.81L134.623 126.769L133.666 140.606L134.253 140.646ZM135.21 126.81L135.251 127.397L142.484 126.891L142.443 126.304L142.402 125.717L135.169 126.223L135.21 126.81ZM142.443 126.304L141.856 126.263L141.108 136.922L141.695 136.963L142.282 137.004L143.03 126.345L142.443 126.304ZM141.695 136.963L141.108 136.924C141.092 137.165 141.004 137.367 140.829 137.55L141.254 137.957L141.679 138.363C142.041 137.985 142.247 137.524 142.282 137.003L141.695 136.963ZM141.254 137.957L140.839 137.539C140.67 137.708 140.479 137.794 140.242 137.811L140.283 138.398L140.324 138.985C140.843 138.949 141.299 138.741 141.669 138.374L141.254 137.957ZM140.283 138.398L140.242 137.811L137.662 137.991L137.703 138.578L137.744 139.165L140.324 138.985L140.283 138.398ZM137.703 138.578L138.155 138.955L139.387 137.474L138.935 137.097L138.483 136.721L137.25 138.202L137.703 138.578ZM138.935 137.097L139.522 137.138L140.13 128.414L139.543 128.373L138.956 128.332L138.348 137.057L138.935 137.097ZM131.091 133.069L131.678 133.11L131.756 131.985L131.169 131.944L130.582 131.903L130.504 133.028L131.091 133.069ZM131.169 131.944L131.128 131.357L128.509 131.54L128.55 132.127L128.591 132.714L131.21 132.531L131.169 131.944ZM128.55 132.127L127.963 132.086L127.884 133.211L128.471 133.252L129.058 133.293L129.137 132.168L128.55 132.127ZM128.471 133.252L128.512 133.839L131.132 133.656L131.091 133.069L131.05 132.482L128.43 132.665L128.471 133.252ZM128.753 129.127L128.165 129.086L128.087 130.211L128.674 130.252L129.261 130.293L129.34 129.168L128.753 129.127ZM128.674 130.252L128.715 130.839L131.334 130.656L131.293 130.069L131.252 129.482L128.633 129.665L128.674 130.252ZM131.293 130.069L131.88 130.11L131.959 128.985L131.372 128.944L130.785 128.903L130.706 130.028L131.293 130.069ZM131.372 128.944L131.331 128.357L128.711 128.54L128.753 129.127L128.794 129.714L131.413 129.531L131.372 128.944ZM159.076 125.141L159.663 125.178C159.674 125.009 159.611 124.843 159.491 124.723C159.371 124.604 159.204 124.542 159.035 124.554L159.076 125.141ZM158.955 127.055L158.996 127.642C159.29 127.621 159.523 127.386 159.542 127.092L158.955 127.055ZM155.788 127.276L155.747 126.689C155.506 126.706 155.3 126.868 155.227 127.098L155.788 127.276ZM155.514 128.14L154.953 127.962C154.895 128.148 154.932 128.351 155.052 128.504C155.173 128.657 155.361 128.74 155.555 128.727L155.514 128.14ZM158.564 127.927L159.151 127.968C159.163 127.798 159.101 127.631 158.98 127.511C158.86 127.39 158.693 127.328 158.523 127.339L158.564 127.927ZM158.06 135.053L158.101 135.64C158.394 135.619 158.627 135.387 158.647 135.094L158.06 135.053ZM156.203 135.183L155.748 135.556C155.869 135.703 156.054 135.783 156.244 135.77L156.203 135.183ZM155.838 134.737L155.251 134.695C155.241 134.845 155.288 134.993 155.383 135.11L155.838 134.737ZM156.183 129.841L156.77 129.883C156.782 129.713 156.72 129.546 156.6 129.425C156.479 129.305 156.312 129.242 156.142 129.254L156.183 129.841ZM152.743 130.082L152.702 129.495C152.409 129.515 152.177 129.748 152.156 130.04L152.743 130.082ZM152.398 134.977L152.85 135.354C152.929 135.259 152.976 135.142 152.985 135.019L152.398 134.977ZM151.981 135.478L152.022 136.065C152.182 136.054 152.331 135.978 152.433 135.855L151.981 135.478ZM150.104 135.609L149.518 135.568C149.505 135.738 149.568 135.905 149.688 136.025C149.809 136.146 149.976 136.208 150.146 136.196L150.104 135.609ZM150.608 128.483L150.567 127.896C150.274 127.916 150.042 128.149 150.021 128.441L150.608 128.483ZM153.032 128.313L153.073 128.9C153.314 128.884 153.52 128.721 153.593 128.491L153.032 128.313ZM153.305 127.45L153.866 127.627C153.925 127.441 153.888 127.239 153.768 127.086C153.647 126.932 153.459 126.849 153.264 126.863L153.305 127.45ZM150.451 127.649L149.864 127.612C149.853 127.781 149.916 127.947 150.037 128.067C150.157 128.186 150.323 128.248 150.493 128.236L150.451 127.649ZM150.573 125.735L150.532 125.148C150.238 125.169 150.004 125.404 149.986 125.698L150.573 125.735ZM145.087 135.489L145.577 135.163C145.46 134.987 145.257 134.887 145.046 134.902L145.087 135.489ZM145.548 136.183L145.058 136.509C145.176 136.687 145.382 136.787 145.595 136.77C145.808 136.753 145.995 136.621 146.084 136.427L145.548 136.183ZM146.552 133.972L147.088 134.215C147.174 134.026 147.154 133.806 147.036 133.636C146.917 133.466 146.718 133.37 146.511 133.385L146.552 133.972ZM142.252 134.273L141.665 134.232C141.653 134.402 141.716 134.568 141.836 134.689C141.957 134.809 142.123 134.871 142.293 134.86L142.252 134.273ZM142.379 132.437L142.338 131.85C142.045 131.87 141.812 132.103 141.792 132.396L142.379 132.437ZM149.748 131.922L150.335 131.963C150.347 131.793 150.285 131.626 150.165 131.506C150.044 131.385 149.877 131.323 149.707 131.335L149.748 131.922ZM149.6 134.014L150.115 134.299C150.156 134.224 150.181 134.141 150.187 134.056L149.6 134.014ZM147.245 138.265L147.287 138.852C147.485 138.838 147.664 138.724 147.76 138.55L147.245 138.265ZM147.206 138.267L147.165 137.68C146.953 137.695 146.765 137.824 146.674 138.017C146.583 138.21 146.604 138.437 146.728 138.61L147.206 138.267ZM148.186 139.633L148.227 140.22C148.44 140.205 148.628 140.076 148.718 139.883C148.809 139.69 148.788 139.463 148.664 139.29L148.186 139.633ZM145.136 139.846L144.654 140.183C144.772 140.352 144.971 140.447 145.177 140.433L145.136 139.846ZM142.233 135.688L142.192 135.101C141.981 135.116 141.794 135.243 141.702 135.435C141.611 135.626 141.629 135.851 141.751 136.025L142.233 135.688ZM147.714 131.475L147.755 132.062C147.927 132.05 148.086 131.962 148.189 131.822C148.291 131.682 148.326 131.504 148.285 131.336L147.714 131.475ZM145.348 131.64L144.777 131.782C144.846 132.059 145.104 132.247 145.389 132.227L145.348 131.64ZM144.993 130.211L145.564 130.069C145.501 129.815 145.278 129.633 145.016 129.623C144.754 129.613 144.517 129.777 144.435 130.025L144.993 130.211ZM144.571 131.478L144.612 132.065C144.85 132.049 145.054 131.89 145.129 131.664L144.571 131.478ZM142.245 131.641L141.688 131.452C141.624 131.638 141.658 131.844 141.779 132C141.899 132.156 142.089 132.242 142.286 132.228L142.245 131.641ZM143.906 126.751L144.464 126.941C144.537 126.726 144.48 126.489 144.318 126.331L143.906 126.751ZM143.4 126.256L143.359 125.669C143.128 125.686 142.928 125.836 142.848 126.053C142.768 126.271 142.823 126.515 142.989 126.677L143.4 126.256ZM149.226 125.849L149.802 125.731C149.743 125.442 149.479 125.242 149.185 125.262L149.226 125.849ZM150.297 131.058L150.338 131.645C150.507 131.633 150.663 131.549 150.766 131.414C150.868 131.279 150.908 131.106 150.873 130.94L150.297 131.058ZM148.166 131.207L147.593 131.341C147.659 131.622 147.919 131.814 148.207 131.794L148.166 131.207ZM147.352 127.709L147.925 127.575C147.86 127.294 147.599 127.102 147.311 127.122L147.352 127.709ZM145.808 127.817L145.767 127.23C145.531 127.246 145.328 127.402 145.251 127.625L145.808 127.817ZM145.203 129.568L144.647 129.376C144.583 129.563 144.616 129.769 144.736 129.926C144.857 130.083 145.047 130.169 145.244 130.155L145.203 129.568ZM147.217 129.427L147.789 129.288C147.721 129.009 147.462 128.82 147.176 128.84L147.217 129.427ZM155.547 130.573L156.134 130.613C156.146 130.443 156.083 130.277 155.963 130.157C155.842 130.037 155.676 129.974 155.506 129.986L155.547 130.573ZM155.266 134.698L154.679 134.658C154.67 134.791 154.706 134.922 154.781 135.031L155.266 134.698ZM158.175 138.934L158.216 139.521C158.426 139.507 158.613 139.38 158.705 139.19C158.796 139 158.779 138.775 158.66 138.601L158.175 138.934ZM155.106 139.149L154.571 139.394C154.673 139.617 154.902 139.753 155.147 139.736L155.106 139.149ZM154.016 136.77L154.551 136.525C154.461 136.327 154.268 136.195 154.051 136.182C153.834 136.169 153.628 136.277 153.514 136.463L154.016 136.77ZM152.447 139.335L152.488 139.922C152.678 139.908 152.85 139.804 152.949 139.642L152.447 139.335ZM149.554 139.537L149.077 139.192C148.943 139.377 148.929 139.623 149.04 139.823C149.151 140.023 149.367 140.14 149.595 140.124L149.554 139.537ZM152.993 134.779L153.47 135.123C153.534 135.035 153.572 134.93 153.58 134.82L152.993 134.779ZM153.28 130.732L153.239 130.145C152.946 130.165 152.713 130.398 152.693 130.69L153.28 130.732ZM159.076 125.141L158.489 125.103L158.367 127.017L158.955 127.055L159.542 127.092L159.663 125.178L159.076 125.141ZM158.955 127.055L158.914 126.468L155.747 126.689L155.788 127.276L155.829 127.863L158.996 127.642L158.955 127.055ZM155.788 127.276L155.227 127.098L154.953 127.962L155.514 128.14L156.075 128.317L156.349 127.454L155.788 127.276ZM155.514 128.14L155.555 128.727L158.605 128.514L158.564 127.927L158.523 127.339L155.473 127.553L155.514 128.14ZM158.564 127.927L157.977 127.885L157.473 135.011L158.06 135.053L158.647 135.094L159.151 127.968L158.564 127.927ZM158.06 135.053L158.019 134.466L156.162 134.596L156.203 135.183L156.244 135.77L158.101 135.64L158.06 135.053ZM156.203 135.183L156.659 134.81L156.294 134.364L155.838 134.737L155.383 135.11L155.748 135.556L156.203 135.183ZM155.838 134.737L156.425 134.778L156.77 129.883L156.183 129.841L155.596 129.8L155.251 134.695L155.838 134.737ZM156.183 129.841L156.142 129.254L152.702 129.495L152.743 130.082L152.784 130.669L156.224 130.428L156.183 129.841ZM152.743 130.082L152.156 130.04L151.811 134.936L152.398 134.977L152.985 135.019L153.33 130.123L152.743 130.082ZM152.398 134.977L151.946 134.601L151.529 135.101L151.981 135.478L152.433 135.855L152.85 135.354L152.398 134.977ZM151.981 135.478L151.94 134.891L150.063 135.022L150.104 135.609L150.146 136.196L152.022 136.065L151.981 135.478ZM150.104 135.609L150.691 135.651L151.195 128.524L150.608 128.483L150.021 128.441L149.518 135.568L150.104 135.609ZM150.608 128.483L150.649 129.07L153.073 128.9L153.032 128.313L152.991 127.726L150.567 127.896L150.608 128.483ZM153.032 128.313L153.593 128.491L153.866 127.627L153.305 127.45L152.744 127.272L152.471 128.136L153.032 128.313ZM153.305 127.45L153.264 126.863L150.41 127.062L150.451 127.649L150.493 128.236L153.346 128.037L153.305 127.45ZM150.451 127.649L151.039 127.686L151.16 125.773L150.573 125.735L149.986 125.698L149.864 127.612L150.451 127.649ZM150.573 125.735L150.614 126.322L159.117 125.728L159.076 125.141L159.035 124.554L150.532 125.148L150.573 125.735ZM145.087 135.489L144.597 135.814L145.058 136.509L145.548 136.183L146.038 135.858L145.577 135.163L145.087 135.489ZM145.548 136.183L146.084 136.427L147.088 134.215L146.552 133.972L146.017 133.729L145.012 135.94L145.548 136.183ZM146.552 133.972L146.511 133.385L142.211 133.686L142.252 134.273L142.293 134.86L146.594 134.559L146.552 133.972ZM142.252 134.273L142.839 134.313L142.966 132.478L142.379 132.437L141.792 132.396L141.665 134.232L142.252 134.273ZM142.379 132.437L142.42 133.024L149.789 132.509L149.748 131.922L149.707 131.335L142.338 131.85L142.379 132.437ZM149.748 131.922L149.161 131.88L149.013 133.973L149.6 134.014L150.187 134.056L150.335 131.963L149.748 131.922ZM149.6 134.014L149.085 133.729L146.731 137.979L147.245 138.265L147.76 138.55L150.115 134.299L149.6 134.014ZM147.245 138.265L147.204 137.677L147.165 137.68L147.206 138.267L147.247 138.854L147.287 138.852L147.245 138.265ZM147.206 138.267L146.728 138.61L147.708 139.976L148.186 139.633L148.664 139.29L147.685 137.924L147.206 138.267ZM148.186 139.633L148.145 139.046L145.095 139.259L145.136 139.846L145.177 140.433L148.227 140.22L148.186 139.633ZM145.136 139.846L145.619 139.509L142.716 135.351L142.233 135.688L141.751 136.025L144.654 140.183L145.136 139.846ZM142.233 135.688L142.274 136.275L145.128 136.076L145.087 135.489L145.046 134.902L142.192 135.101L142.233 135.688ZM147.714 131.475L147.673 130.888L145.307 131.053L145.348 131.64L145.389 132.227L147.755 132.062L147.714 131.475ZM145.348 131.64L145.919 131.498L145.564 130.069L144.993 130.211L144.422 130.353L144.777 131.782L145.348 131.64ZM144.993 130.211L144.435 130.025L144.013 131.292L144.571 131.478L145.129 131.664L145.551 130.397L144.993 130.211ZM144.571 131.478L144.53 130.891L142.204 131.054L142.245 131.641L142.286 132.228L144.612 132.065L144.571 131.478ZM142.245 131.641L142.802 131.83L144.464 126.941L143.906 126.751L143.349 126.562L141.688 131.452L142.245 131.641ZM143.906 126.751L144.318 126.331L143.812 125.836L143.4 126.256L142.989 126.677L143.495 127.172L143.906 126.751ZM143.4 126.256L143.441 126.843L149.267 126.436L149.226 125.849L149.185 125.262L143.359 125.669L143.4 126.256ZM149.226 125.849L148.649 125.968L149.721 131.177L150.297 131.058L150.873 130.94L149.802 125.731L149.226 125.849ZM150.297 131.058L150.256 130.471L148.125 130.62L148.166 131.207L148.207 131.794L150.338 131.645L150.297 131.058ZM148.166 131.207L148.739 131.074L147.925 127.575L147.352 127.709L146.779 127.842L147.593 131.341L148.166 131.207ZM147.352 127.709L147.311 127.122L145.767 127.23L145.808 127.817L145.849 128.404L147.393 128.296L147.352 127.709ZM145.808 127.817L145.251 127.625L144.647 129.376L145.203 129.568L145.76 129.76L146.364 128.009L145.808 127.817ZM145.203 129.568L145.244 130.155L147.258 130.014L147.217 129.427L147.176 128.84L145.162 128.981L145.203 129.568ZM147.217 129.427L146.645 129.566L147.142 131.613L147.714 131.475L148.285 131.336L147.789 129.288L147.217 129.427ZM155.547 130.573L154.96 130.533L154.679 134.658L155.266 134.698L155.853 134.738L156.134 130.613L155.547 130.573ZM155.266 134.698L154.781 135.031L157.689 139.267L158.175 138.934L158.66 138.601L155.751 134.365L155.266 134.698ZM158.175 138.934L158.134 138.347L155.065 138.562L155.106 139.149L155.147 139.736L158.216 139.521L158.175 138.934ZM155.106 139.149L155.641 138.904L154.551 136.525L154.016 136.77L153.481 137.015L154.571 139.394L155.106 139.149ZM154.016 136.77L153.514 136.463L151.945 139.028L152.447 139.335L152.949 139.642L154.518 137.077L154.016 136.77ZM152.447 139.335L152.406 138.748L149.513 138.95L149.554 139.537L149.595 140.124L152.488 139.922L152.447 139.335ZM149.554 139.537L150.031 139.882L153.47 135.123L152.993 134.779L152.516 134.434L149.077 139.192L149.554 139.537ZM152.993 134.779L153.58 134.82L153.867 130.773L153.28 130.732L152.693 130.69L152.406 134.737L152.993 134.779ZM153.28 130.732L153.321 131.319L155.588 131.16L155.547 130.573L155.506 129.986L153.239 130.145L153.28 130.732ZM168.327 135.828L168.442 136.405C168.702 136.353 168.895 136.135 168.914 135.871L168.327 135.828ZM167.417 136.009L167.302 135.432C167.041 135.484 166.847 135.705 166.83 135.971L167.417 136.009ZM167.265 138.338L167.306 138.925C167.6 138.904 167.834 138.67 167.853 138.376L167.265 138.338ZM164.333 138.543L163.746 138.503C163.735 138.673 163.797 138.839 163.918 138.959C164.038 139.08 164.205 139.142 164.374 139.13L164.333 138.543ZM164.469 136.549L165.056 136.589C165.068 136.408 164.996 136.231 164.86 136.11C164.724 135.989 164.54 135.938 164.361 135.971L164.469 136.549ZM159.408 137.493L158.821 137.454C158.809 137.636 158.881 137.812 159.017 137.933C159.153 138.053 159.337 138.104 159.516 138.071L159.408 137.493ZM159.541 135.46L159.443 134.88C159.174 134.925 158.971 135.149 158.954 135.422L159.541 135.46ZM160.143 135.359L160.24 135.939C160.509 135.894 160.712 135.67 160.73 135.398L160.143 135.359ZM160.71 126.893L161.297 126.932C161.308 126.762 161.246 126.596 161.125 126.476C161.005 126.356 160.838 126.294 160.669 126.306L160.71 126.893ZM160.123 126.934L159.536 126.895C159.525 127.064 159.587 127.23 159.708 127.35C159.828 127.47 159.995 127.532 160.164 127.521L160.123 126.934ZM160.247 125.059L160.206 124.472C159.913 124.492 159.68 124.726 159.66 125.02L160.247 125.059ZM168.79 124.461L169.377 124.5C169.388 124.331 169.326 124.165 169.205 124.045C169.085 123.925 168.918 123.863 168.749 123.874L168.79 124.461ZM168.665 126.336L168.707 126.923C169 126.903 169.233 126.669 169.253 126.375L168.665 126.336ZM168.099 126.376L168.058 125.789C167.765 125.809 167.532 126.042 167.512 126.335L168.099 126.376ZM167.568 133.956L166.981 133.915C166.968 134.098 167.041 134.276 167.179 134.398C167.317 134.519 167.503 134.569 167.683 134.533L167.568 133.956ZM168.478 133.774L169.065 133.818C169.079 133.634 169.006 133.455 168.868 133.333C168.73 133.212 168.544 133.161 168.363 133.197L168.478 133.774ZM171.5 127.258L172.087 127.298C172.098 127.128 172.036 126.961 171.915 126.841C171.795 126.721 171.628 126.659 171.459 126.671L171.5 127.258ZM171.413 128.541L170.825 128.501C170.819 128.594 170.835 128.687 170.872 128.773L171.413 128.541ZM172.281 130.562L171.74 130.794C171.833 131.011 172.046 131.151 172.282 131.15C172.518 131.15 172.731 131.009 172.823 130.791L172.281 130.562ZM173.309 128.133L173.851 128.362C173.877 128.301 173.892 128.236 173.896 128.169L173.309 128.133ZM173.411 126.495L173.998 126.532C174.008 126.363 173.945 126.197 173.825 126.078C173.705 125.958 173.539 125.897 173.37 125.908L173.411 126.495ZM169.012 126.803L168.426 126.757C168.412 126.927 168.474 127.096 168.594 127.217C168.715 127.339 168.883 127.402 169.053 127.39L169.012 126.803ZM169.169 124.828L169.128 124.241C168.837 124.261 168.605 124.491 168.582 124.781L169.169 124.828ZM176.167 124.338L176.754 124.381C176.766 124.211 176.704 124.044 176.584 123.923C176.463 123.802 176.296 123.739 176.126 123.751L176.167 124.338ZM175.856 128.603L176.378 128.876C176.415 128.804 176.437 128.726 176.443 128.646L175.856 128.603ZM173.448 133.211L172.927 132.938C172.844 133.096 172.837 133.283 172.909 133.447L173.448 133.211ZM175.435 137.747L175.476 138.334C175.667 138.321 175.839 138.215 175.938 138.052C176.037 137.888 176.051 137.686 175.974 137.511L175.435 137.747ZM172.913 137.923L172.375 138.162C172.476 138.388 172.707 138.528 172.954 138.51L172.913 137.923ZM172.027 135.923L172.565 135.684C172.473 135.478 172.272 135.342 172.046 135.335C171.82 135.327 171.61 135.45 171.505 135.65L172.027 135.923ZM170.918 138.043L170.959 138.63C171.163 138.616 171.345 138.497 171.44 138.316L170.918 138.043ZM167.966 138.25L167.457 137.956C167.348 138.144 167.352 138.377 167.467 138.562C167.583 138.746 167.79 138.852 168.007 138.837L167.966 138.25ZM170.857 133.235L171.367 133.529C171.46 133.367 171.471 133.171 171.397 133.001L170.857 133.235ZM168.913 128.755L168.326 128.717C168.32 128.81 168.336 128.903 168.373 128.989L168.913 128.755ZM168.998 127.433L168.956 126.846C168.662 126.866 168.429 127.101 168.41 127.395L168.998 127.433ZM163.468 128.134L162.881 128.095C162.869 128.264 162.932 128.43 163.053 128.55C163.173 128.67 163.339 128.732 163.509 128.721L163.468 128.134ZM165.071 128.022L165.112 128.609C165.405 128.588 165.638 128.354 165.658 128.061L165.071 128.022ZM165.166 126.581L165.754 126.62C165.765 126.45 165.702 126.284 165.582 126.164C165.461 126.044 165.295 125.982 165.125 125.994L165.166 126.581ZM163.564 126.693L163.523 126.106C163.229 126.126 162.996 126.36 162.976 126.654L163.564 126.693ZM163.248 131.449L162.661 131.41C162.65 131.58 162.712 131.746 162.833 131.866C162.953 131.986 163.119 132.048 163.289 132.036L163.248 131.449ZM164.831 131.338L164.872 131.925C165.163 131.905 165.395 131.675 165.418 131.385L164.831 131.338ZM164.947 129.896L165.533 129.943C165.547 129.772 165.485 129.604 165.365 129.482C165.244 129.36 165.076 129.297 164.905 129.309L164.947 129.896ZM163.344 130.008L163.303 129.421C163.009 129.442 162.776 129.676 162.756 129.969L163.344 130.008ZM163.011 134.805L162.424 134.76C162.411 134.942 162.482 135.12 162.617 135.242C162.752 135.364 162.936 135.416 163.115 135.384L163.011 134.805ZM164.621 134.516L164.725 135.095C164.991 135.047 165.191 134.824 165.209 134.554L164.621 134.516ZM164.707 133.213L165.294 133.252C165.305 133.082 165.243 132.916 165.122 132.796C165.002 132.676 164.835 132.614 164.666 132.626L164.707 133.213ZM163.124 133.324L163.083 132.737C162.791 132.757 162.559 132.988 162.537 133.279L163.124 133.324ZM168.327 135.828L168.212 135.251L167.302 135.432L167.417 136.009L167.532 136.586L168.442 136.405L168.327 135.828ZM167.417 136.009L166.83 135.971L166.678 138.3L167.265 138.338L167.853 138.376L168.004 136.048L167.417 136.009ZM167.265 138.338L167.224 137.751L164.292 137.956L164.333 138.543L164.374 139.13L167.306 138.925L167.265 138.338ZM164.333 138.543L164.92 138.583L165.056 136.589L164.469 136.549L163.882 136.509L163.746 138.503L164.333 138.543ZM164.469 136.549L164.361 135.971L159.3 136.914L159.408 137.493L159.516 138.071L164.577 137.128L164.469 136.549ZM159.408 137.493L159.995 137.531L160.128 135.498L159.541 135.46L158.954 135.422L158.821 137.454L159.408 137.493ZM159.541 135.46L159.638 136.04L160.24 135.939L160.143 135.359L160.045 134.779L159.443 134.88L159.541 135.46ZM160.143 135.359L160.73 135.398L161.297 126.932L160.71 126.893L160.122 126.853L159.556 135.32L160.143 135.359ZM160.71 126.893L160.669 126.306L160.082 126.347L160.123 126.934L160.164 127.521L160.751 127.48L160.71 126.893ZM160.123 126.934L160.71 126.972L160.835 125.098L160.247 125.059L159.66 125.02L159.536 126.895L160.123 126.934ZM160.247 125.059L160.289 125.646L168.831 125.048L168.79 124.461L168.749 123.874L160.206 124.472L160.247 125.059ZM168.79 124.461L168.203 124.423L168.078 126.297L168.665 126.336L169.253 126.375L169.377 124.5L168.79 124.461ZM168.665 126.336L168.624 125.749L168.058 125.789L168.099 126.376L168.14 126.963L168.707 126.923L168.665 126.336ZM168.099 126.376L167.512 126.335L166.981 133.915L167.568 133.956L168.155 133.997L168.686 126.417L168.099 126.376ZM167.568 133.956L167.683 134.533L168.594 134.351L168.478 133.774L168.363 133.197L167.453 133.379L167.568 133.956ZM168.478 133.774L167.892 133.731L167.741 135.785L168.327 135.828L168.914 135.871L169.065 133.818L168.478 133.774ZM171.5 127.258L170.912 127.218L170.825 128.501L171.413 128.541L172 128.58L172.087 127.298L171.5 127.258ZM171.413 128.541L170.872 128.773L171.74 130.794L172.281 130.562L172.821 130.33L171.953 128.308L171.413 128.541ZM172.281 130.562L172.823 130.791L173.851 128.362L173.309 128.133L172.767 127.904L171.739 130.333L172.281 130.562ZM173.309 128.133L173.896 128.169L173.998 126.532L173.411 126.495L172.823 126.459L172.722 128.097L173.309 128.133ZM173.411 126.495L173.37 125.908L168.971 126.216L169.012 126.803L169.053 127.39L173.452 127.083L173.411 126.495ZM169.012 126.803L169.599 126.85L169.756 124.874L169.169 124.828L168.582 124.781L168.426 126.757L169.012 126.803ZM169.169 124.828L169.21 125.415L176.208 124.925L176.167 124.338L176.126 123.751L169.128 124.241L169.169 124.828ZM176.167 124.338L175.58 124.296L175.269 128.56L175.856 128.603L176.443 128.646L176.754 124.381L176.167 124.338ZM175.856 128.603L175.335 128.33L172.927 132.938L173.448 133.211L173.97 133.483L176.378 128.876L175.856 128.603ZM173.448 133.211L172.909 133.447L174.896 137.983L175.435 137.747L175.974 137.511L173.987 132.975L173.448 133.211ZM175.435 137.747L175.394 137.16L172.872 137.336L172.913 137.923L172.954 138.51L175.476 138.334L175.435 137.747ZM172.913 137.923L173.451 137.685L172.565 135.684L172.027 135.923L171.489 136.161L172.375 138.162L172.913 137.923ZM172.027 135.923L171.505 135.65L170.397 137.77L170.918 138.043L171.44 138.316L172.548 136.195L172.027 135.923ZM170.918 138.043L170.877 137.456L167.925 137.662L167.966 138.25L168.007 138.837L170.959 138.63L170.918 138.043ZM167.966 138.25L168.476 138.543L171.367 133.529L170.857 133.235L170.347 132.941L167.457 137.956L167.966 138.25ZM170.857 133.235L171.397 133.001L169.453 128.52L168.913 128.755L168.373 128.989L170.317 133.469L170.857 133.235ZM168.913 128.755L169.5 128.792L169.585 127.47L168.998 127.433L168.41 127.395L168.326 128.717L168.913 128.755ZM168.998 127.433L169.039 128.02L171.541 127.845L171.5 127.258L171.459 126.671L168.956 126.846L168.998 127.433ZM163.468 128.134L163.509 128.721L165.112 128.609L165.071 128.022L165.03 127.434L163.427 127.547L163.468 128.134ZM165.071 128.022L165.658 128.061L165.754 126.62L165.166 126.581L164.579 126.542L164.484 127.983L165.071 128.022ZM165.166 126.581L165.125 125.994L163.523 126.106L163.564 126.693L163.605 127.28L165.208 127.168L165.166 126.581ZM163.564 126.693L162.976 126.654L162.881 128.095L163.468 128.134L164.055 128.173L164.151 126.732L163.564 126.693ZM163.248 131.449L163.289 132.036L164.872 131.925L164.831 131.338L164.79 130.751L163.207 130.862L163.248 131.449ZM164.831 131.338L165.418 131.385L165.533 129.943L164.947 129.896L164.36 129.849L164.245 131.291L164.831 131.338ZM164.947 129.896L164.905 129.309L163.303 129.421L163.344 130.008L163.385 130.595L164.988 130.483L164.947 129.896ZM163.344 130.008L162.756 129.969L162.661 131.41L163.248 131.449L163.835 131.488L163.931 130.047L163.344 130.008ZM163.011 134.805L163.115 135.384L164.725 135.095L164.621 134.516L164.517 133.936L162.907 134.226L163.011 134.805ZM164.621 134.516L165.209 134.554L165.294 133.252L164.707 133.213L164.12 133.174L164.034 134.477L164.621 134.516ZM164.707 133.213L164.666 132.626L163.083 132.737L163.124 133.324L163.165 133.911L164.748 133.8L164.707 133.213ZM163.124 133.324L162.537 133.279L162.424 134.76L163.011 134.805L163.598 134.849L163.71 133.368L163.124 133.324Z" fill="white" mask="url(#path-9-outside-1_39894_4726)"/>
<g filter="url(#filter2_d_39894_4726)">
<mask id="path-11-outside-2_39894_4726" maskUnits="userSpaceOnUse" x="147.364" y="60.2894" width="98.9095" height="47.7102" fill="black">
<rect fill="white" x="147.364" y="60.2894" width="98.9095" height="47.7102"/>
<path d="M196.98 78.0896L171.5 92.202L170.408 97.9694L182.982 97.0901L185.359 94.9215L183.829 103.038L160.212 104.69L161.527 97.6946L149.329 104.449L150.701 97.345L162.899 90.5902L166.233 73.1785L164.592 71.3435L175.634 70.5714L172.82 85.1012L198.3 70.9889L196.98 78.0896ZM195.819 84.178L193.338 102.373L185.308 102.935L187.788 84.7396L195.819 84.178ZM164.593 76.3495L159.893 90.695L151.863 91.2566L156.562 76.911L164.593 76.3495ZM185.407 65.8831L185.304 76.9037L177.273 77.4652L177.377 66.4447L185.407 65.8831ZM229.677 62.7875L224.606 71.1517L243.679 69.818L242.729 74.8905L221.437 76.3794L220.17 78.4704L239.823 77.0961L238.081 86.2288L230.127 92.3707L239.885 100.014L229.055 100.771L224.096 96.9553L218.118 101.536L207.288 102.294L219.188 93.1883L213.826 89.0315L205.756 102.401L195.718 103.103L211.399 77.0813L201.572 77.7685L202.522 72.696L205.352 67.9136L204.212 66.5706L215.254 65.7985L211.557 72.0642L214.568 71.8537L218.774 64.92L217.631 63.6298L229.677 62.7875ZM242.967 68.3397L233.932 68.9714L233.005 63.5559L242.04 62.9242L242.967 68.3397ZM217.634 82.6525L216.709 84.2454L221.728 83.8945L221.433 85.4959L225.224 88.4979L229.939 84.9011L230.525 81.7511L217.634 82.6525Z"/>
</mask>
<path d="M196.98 78.0896L171.5 92.202L170.408 97.9694L182.982 97.0901L185.359 94.9215L183.829 103.038L160.212 104.69L161.527 97.6946L149.329 104.449L150.701 97.345L162.899 90.5902L166.233 73.1785L164.592 71.3435L175.634 70.5714L172.82 85.1012L198.3 70.9889L196.98 78.0896ZM195.819 84.178L193.338 102.373L185.308 102.935L187.788 84.7396L195.819 84.178ZM164.593 76.3495L159.893 90.695L151.863 91.2566L156.562 76.911L164.593 76.3495ZM185.407 65.8831L185.304 76.9037L177.273 77.4652L177.377 66.4447L185.407 65.8831ZM229.677 62.7875L224.606 71.1517L243.679 69.818L242.729 74.8905L221.437 76.3794L220.17 78.4704L239.823 77.0961L238.081 86.2288L230.127 92.3707L239.885 100.014L229.055 100.771L224.096 96.9553L218.118 101.536L207.288 102.294L219.188 93.1883L213.826 89.0315L205.756 102.401L195.718 103.103L211.399 77.0813L201.572 77.7685L202.522 72.696L205.352 67.9136L204.212 66.5706L215.254 65.7985L211.557 72.0642L214.568 71.8537L218.774 64.92L217.631 63.6298L229.677 62.7875ZM242.967 68.3397L233.932 68.9714L233.005 63.5559L242.04 62.9242L242.967 68.3397ZM217.634 82.6525L216.709 84.2454L221.728 83.8945L221.433 85.4959L225.224 88.4979L229.939 84.9011L230.525 81.7511L217.634 82.6525Z" fill="#FFE666"/>
<path d="M196.98 78.0896L197.448 79.1051C197.805 78.9072 198.063 78.5554 198.135 78.1659L196.98 78.0896ZM171.5 92.202L171.032 91.1864C170.676 91.3836 170.419 91.7336 170.346 92.1216L171.5 92.202ZM170.408 97.9694L169.254 97.889C169.189 98.229 169.273 98.5623 169.482 98.8031C169.692 99.0439 170.007 99.1684 170.347 99.1447L170.408 97.9694ZM182.982 97.0901L182.921 98.2654C183.207 98.2454 183.489 98.1213 183.714 97.9164L182.982 97.0901ZM185.359 94.9215L186.514 95.001C186.607 94.5093 186.389 94.0489 185.968 93.8469C185.548 93.6448 185.013 93.7439 184.628 94.0951L185.359 94.9215ZM183.829 103.038L183.767 104.213C184.353 104.172 184.872 103.705 184.983 103.118L183.829 103.038ZM160.212 104.69L159.058 104.611C158.994 104.951 159.078 105.284 159.287 105.524C159.497 105.764 159.812 105.889 160.151 105.865L160.212 104.69ZM161.527 97.6946L162.681 97.7733C162.763 97.3376 162.602 96.9214 162.261 96.6921C161.921 96.4627 161.458 96.4577 161.059 96.679L161.527 97.6946ZM149.329 104.449L148.175 104.364C148.091 104.801 148.251 105.219 148.592 105.45C148.932 105.681 149.396 105.687 149.797 105.465L149.329 104.449ZM150.701 97.345L150.233 96.3294C149.879 96.5258 149.622 96.8737 149.548 97.2601L150.701 97.345ZM162.899 90.5902L163.367 91.6058C163.722 91.4091 163.979 91.0602 164.053 90.6731L162.899 90.5902ZM166.233 73.1785L167.387 73.2614C167.453 72.9157 167.366 72.5768 167.15 72.3349L166.233 73.1785ZM164.592 71.3435L164.654 70.1682C164.191 70.2005 163.757 70.5019 163.546 70.9378C163.334 71.3738 163.385 71.8629 163.675 72.1871L164.592 71.3435ZM175.634 70.5714L176.787 70.6569C176.853 70.3162 176.771 69.9814 176.562 69.7395C176.352 69.4976 176.036 69.3722 175.696 69.3961L175.634 70.5714ZM172.82 85.1012L171.666 85.0157C171.582 85.4525 171.742 85.8709 172.082 86.102C172.423 86.3331 172.887 86.3388 173.288 86.1168L172.82 85.1012ZM198.3 70.9889L199.455 71.0651C199.536 70.6297 199.373 70.2144 199.033 69.9856C198.693 69.7569 198.231 69.7521 197.831 69.9733L198.3 70.9889ZM195.819 84.178L196.983 84.1955C197.028 83.8658 196.934 83.5491 196.725 83.3224C196.515 83.0957 196.209 82.9797 195.88 83.0027L195.819 84.178ZM193.338 102.373L193.277 103.548C193.887 103.506 194.42 103.003 194.503 102.391L193.338 102.373ZM185.308 102.935L184.143 102.917C184.098 103.247 184.192 103.564 184.402 103.79C184.611 104.017 184.918 104.133 185.246 104.11L185.308 102.935ZM187.788 84.7396L187.85 83.5643C187.24 83.6069 186.707 84.1101 186.623 84.7221L187.788 84.7396ZM164.593 76.3495L165.706 76.5894C165.824 76.2282 165.773 75.8526 165.566 75.5746C165.36 75.2967 165.022 75.1485 164.654 75.1742L164.593 76.3495ZM159.893 90.695L159.832 91.8703C160.357 91.8336 160.837 91.4514 161.006 90.9349L159.893 90.695ZM151.863 91.2566L150.749 91.0166C150.631 91.3779 150.683 91.7535 150.889 92.0314C151.096 92.3094 151.433 92.4576 151.801 92.4319L151.863 91.2566ZM156.562 76.911L156.624 75.7357C156.098 75.7725 155.618 76.1546 155.449 76.6711L156.562 76.911ZM185.407 65.8831L186.583 65.7505C186.589 65.1236 186.098 64.6638 185.469 64.7078L185.407 65.8831ZM185.304 76.9037L185.242 78.079C185.562 78.0566 185.875 77.9043 186.109 77.6574C186.342 77.4104 186.476 77.0903 186.479 76.7711L185.304 76.9037ZM177.273 77.4652L176.097 77.5978C176.091 78.2248 176.583 78.6845 177.211 78.6405L177.273 77.4652ZM177.377 66.4447L177.438 65.2694C177.118 65.2917 176.805 65.444 176.572 65.691C176.338 65.9379 176.204 66.258 176.201 66.5773L177.377 66.4447ZM196.98 78.0896L196.512 77.074L171.032 91.1864L171.5 92.202L171.968 93.2175L197.448 79.1051L196.98 78.0896ZM171.5 92.202L170.346 92.1216L169.254 97.889L170.408 97.9694L171.563 98.0498L172.654 92.2823L171.5 92.202ZM170.408 97.9694L170.347 99.1447L182.921 98.2654L182.982 97.0901L183.044 95.9148L170.47 96.7941L170.408 97.9694ZM182.982 97.0901L183.714 97.9164L186.091 95.7478L185.359 94.9215L184.628 94.0951L182.251 96.2638L182.982 97.0901ZM185.359 94.9215L184.205 94.842L182.674 102.959L183.829 103.038L184.983 103.118L186.514 95.001L185.359 94.9215ZM183.829 103.038L183.89 101.863L160.274 103.514L160.212 104.69L160.151 105.865L183.767 104.213L183.829 103.038ZM160.212 104.69L161.367 104.768L162.681 97.7733L161.527 97.6946L160.372 97.616L159.058 104.611L160.212 104.69ZM161.527 97.6946L161.059 96.679L148.861 103.434L149.329 104.449L149.797 105.465L161.995 98.7102L161.527 97.6946ZM149.329 104.449L150.482 104.534L151.855 97.4299L150.701 97.345L149.548 97.2601L148.175 104.364L149.329 104.449ZM150.701 97.345L151.169 98.3606L163.367 91.6058L162.899 90.5902L162.431 89.5746L150.233 96.3294L150.701 97.345ZM162.899 90.5902L164.053 90.6731L167.387 73.2614L166.233 73.1785L165.079 73.0955L161.745 90.5073L162.899 90.5902ZM166.233 73.1785L167.15 72.3349L165.509 70.4999L164.592 71.3435L163.675 72.1871L165.316 74.022L166.233 73.1785ZM164.592 71.3435L164.53 72.5188L175.572 71.7467L175.634 70.5714L175.696 69.3961L164.654 70.1682L164.592 71.3435ZM175.634 70.5714L174.481 70.4858L171.666 85.0157L172.82 85.1012L173.973 85.1868L176.787 70.6569L175.634 70.5714ZM172.82 85.1012L173.288 86.1168L198.768 72.0044L198.3 70.9889L197.831 69.9733L172.351 84.0857L172.82 85.1012ZM198.3 70.9889L197.144 70.9126L195.825 78.0133L196.98 78.0896L198.135 78.1659L199.455 71.0651L198.3 70.9889ZM195.819 84.178L194.654 84.1605L192.174 102.356L193.338 102.373L194.503 102.391L196.983 84.1955L195.819 84.178ZM193.338 102.373L193.4 101.198L185.37 101.759L185.308 102.935L185.246 104.11L193.277 103.548L193.338 102.373ZM185.308 102.935L186.473 102.952L188.953 84.7571L187.788 84.7396L186.623 84.7221L184.143 102.917L185.308 102.935ZM187.788 84.7396L187.726 85.9149L195.757 85.3533L195.819 84.178L195.88 83.0027L187.85 83.5643L187.788 84.7396ZM164.593 76.3495L163.48 76.1095L158.78 90.4551L159.893 90.695L161.006 90.9349L165.706 76.5894L164.593 76.3495ZM159.893 90.695L159.955 89.5197L151.924 90.0813L151.863 91.2566L151.801 92.4319L159.832 91.8703L159.893 90.695ZM151.863 91.2566L152.976 91.4965L157.676 77.151L156.562 76.911L155.449 76.6711L150.749 91.0166L151.863 91.2566ZM156.562 76.911L156.501 78.0863L164.531 77.5248L164.593 76.3495L164.654 75.1742L156.624 75.7357L156.562 76.911ZM185.407 65.8831L184.232 66.0157L184.128 77.0362L185.304 76.9037L186.479 76.7711L186.583 65.7505L185.407 65.8831ZM185.304 76.9037L185.365 75.7283L177.335 76.2899L177.273 77.4652L177.211 78.6405L185.242 78.079L185.304 76.9037ZM177.273 77.4652L178.449 77.3326L178.552 66.3121L177.377 66.4447L176.201 66.5773L176.097 77.5978L177.273 77.4652ZM177.377 66.4447L177.315 67.62L185.346 67.0584L185.407 65.8831L185.469 64.7078L177.438 65.2694L177.377 66.4447ZM229.677 62.7875L230.662 63.3053C230.891 62.927 230.915 62.4787 230.725 62.1293C230.534 61.78 230.158 61.5828 229.738 61.6122L229.677 62.7875ZM224.606 71.1517L223.621 70.6339C223.392 71.0122 223.368 71.4606 223.558 71.8099C223.749 72.1592 224.125 72.3564 224.545 72.327L224.606 71.1517ZM243.679 69.818L244.834 69.896C244.897 69.5565 244.814 69.2237 244.604 68.9835C244.394 68.7433 244.08 68.619 243.74 68.6427L243.679 69.818ZM242.729 74.8905L242.667 76.0658C243.254 76.0248 243.773 75.5562 243.884 74.9685L242.729 74.8905ZM221.437 76.3794L221.499 75.2041C221.08 75.2333 220.681 75.4839 220.452 75.8615L221.437 76.3794ZM220.17 78.4704L219.184 77.9526C218.955 78.3309 218.931 78.7793 219.122 79.1286C219.312 79.4779 219.688 79.6751 220.108 79.6457L220.17 78.4704ZM239.823 77.0961L240.977 77.1781C241.042 76.8379 240.959 76.5041 240.75 76.263C240.54 76.0218 240.225 75.897 239.885 75.9208L239.823 77.0961ZM238.081 86.2288L238.724 87.1291C238.99 86.9237 239.175 86.6285 239.235 86.3108L238.081 86.2288ZM230.127 92.3707L229.484 91.4703C229.179 91.7055 228.984 92.0563 228.955 92.4206C228.926 92.7848 229.066 93.1214 229.335 93.3321L230.127 92.3707ZM239.885 100.014L239.824 101.189C240.32 101.155 240.779 100.812 240.97 100.332C241.162 99.8526 241.044 99.3405 240.677 99.0527L239.885 100.014ZM229.055 100.771L228.27 101.738C228.47 101.892 228.725 101.966 228.993 101.947L229.055 100.771ZM224.096 96.9553L224.881 95.9888C224.486 95.6847 223.902 95.7105 223.457 96.0518L224.096 96.9553ZM218.118 101.536L218.057 102.712C218.304 102.694 218.55 102.599 218.758 102.44L218.118 101.536ZM207.288 102.294L206.65 101.389C206.221 101.717 206.02 102.26 206.152 102.734C206.283 103.208 206.717 103.504 207.226 103.469L207.288 102.294ZM219.188 93.1883L219.826 94.0924C220.133 93.8574 220.33 93.5049 220.36 93.1387C220.389 92.7726 220.247 92.4344 219.975 92.2239L219.188 93.1883ZM213.826 89.0315L214.613 88.0671C214.358 87.8689 214.014 87.8044 213.672 87.8908C213.331 87.9772 213.027 88.2056 212.839 88.5159L213.826 89.0315ZM205.756 102.401L205.694 103.576C206.114 103.547 206.514 103.295 206.742 102.916L205.756 102.401ZM195.718 103.103L194.73 102.588C194.502 102.966 194.48 103.414 194.67 103.762C194.861 104.111 195.237 104.307 195.656 104.278L195.718 103.103ZM211.399 77.0813L212.386 77.596C212.614 77.2177 212.637 76.7702 212.446 76.4217C212.255 76.0732 211.88 75.8767 211.461 75.906L211.399 77.0813ZM201.572 77.7685L200.417 77.6905C200.354 78.03 200.437 78.3628 200.647 78.603C200.857 78.8432 201.171 78.9675 201.511 78.9438L201.572 77.7685ZM202.522 72.696L201.53 72.1907C201.45 72.3249 201.395 72.4698 201.367 72.618L202.522 72.696ZM205.352 67.9136L206.345 68.4189C206.609 67.9727 206.585 67.4417 206.286 67.089L205.352 67.9136ZM204.212 66.5706L204.274 65.3953C203.816 65.4273 203.386 65.7228 203.172 66.1524C202.958 66.5819 203 67.0671 203.278 67.3952L204.212 66.5706ZM215.254 65.7985L216.248 66.3022C216.471 65.924 216.49 65.4793 216.298 65.1338C216.107 64.7884 215.732 64.594 215.316 64.6231L215.254 65.7985ZM211.557 72.0642L210.563 71.5605C210.34 71.9387 210.321 72.3834 210.512 72.7289C210.704 73.0743 211.078 73.2687 211.495 73.2395L211.557 72.0642ZM214.568 71.8537L214.507 73.029C214.925 72.9997 215.324 72.7493 215.553 72.3718L214.568 71.8537ZM218.774 64.92L219.759 65.4381C220.035 64.9825 220.009 64.4353 219.694 64.0797L218.774 64.92ZM217.631 63.6298L217.693 62.4545C217.231 62.4868 216.798 62.7871 216.586 63.2219C216.374 63.6567 216.423 64.1452 216.711 64.47L217.631 63.6298ZM242.967 68.3397L242.905 69.515C243.261 69.4901 243.606 69.3049 243.844 69.0116C244.081 68.7182 244.185 68.3482 244.126 68.0057L242.967 68.3397ZM233.932 68.9714L232.773 69.3054C232.863 69.8354 233.32 70.1852 233.871 70.1467L233.932 68.9714ZM233.005 63.5559L233.067 62.3806C232.711 62.4055 232.366 62.5907 232.129 62.8841C231.891 63.1775 231.787 63.5474 231.846 63.8899L233.005 63.5559ZM242.04 62.9242L243.2 62.5902C243.109 62.0603 242.652 61.7104 242.101 61.7489L242.04 62.9242ZM217.634 82.6525L217.696 81.4772C217.268 81.5071 216.862 81.7674 216.636 82.1566L217.634 82.6525ZM216.709 84.2454L215.71 83.7495C215.491 84.1277 215.474 84.5703 215.666 84.9136C215.859 85.2569 216.232 85.4498 216.647 85.4207L216.709 84.2454ZM221.728 83.8944L222.883 83.9684C222.946 83.6295 222.861 83.2978 222.652 83.0585C222.442 82.8192 222.128 82.6955 221.789 82.7191L221.728 83.8944ZM221.433 85.4959L220.278 85.4219C220.203 85.8275 220.339 86.2176 220.638 86.4541L221.433 85.4959ZM225.224 88.4979L224.428 89.4561C224.822 89.768 225.411 89.7463 225.86 89.4033L225.224 88.4979ZM229.939 84.9011L230.576 85.8065C230.847 85.5997 231.034 85.3001 231.094 84.9777L229.939 84.9011ZM230.525 81.7511L231.681 81.8277C231.744 81.4883 231.66 81.1559 231.45 80.916C231.241 80.6761 230.926 80.5521 230.587 80.5758L230.525 81.7511ZM229.677 62.7875L228.692 62.2697L223.621 70.6339L224.606 71.1517L225.591 71.6695L230.662 63.3053L229.677 62.7875ZM224.606 71.1517L224.545 72.327L243.617 70.9933L243.679 69.818L243.74 68.6427L224.668 69.9764L224.606 71.1517ZM243.679 69.818L242.524 69.74L241.574 74.8125L242.729 74.8905L243.884 74.9685L244.834 69.896L243.679 69.818ZM242.729 74.8905L242.79 73.7152L221.499 75.2041L221.437 76.3794L221.376 77.5547L242.667 76.0658L242.729 74.8905ZM221.437 76.3794L220.452 75.8615L219.184 77.9526L220.17 78.4704L221.155 78.9882L222.422 76.8972L221.437 76.3794ZM220.17 78.4704L220.108 79.6457L239.762 78.2714L239.823 77.0961L239.885 75.9208L220.231 77.2951L220.17 78.4704ZM239.823 77.0961L238.669 77.014L236.927 86.1467L238.081 86.2288L239.235 86.3108L240.977 77.1781L239.823 77.0961ZM238.081 86.2288L237.438 85.3284L229.484 91.4703L230.127 92.3707L230.77 93.271L238.724 87.1291L238.081 86.2288ZM230.127 92.3707L229.335 93.3321L239.094 100.976L239.885 100.014L240.677 99.0527L230.918 91.4093L230.127 92.3707ZM239.885 100.014L239.947 98.8388L229.116 99.5962L229.055 100.771L228.993 101.947L239.824 101.189L239.885 100.014ZM229.055 100.771L229.84 99.8049L224.881 95.9888L224.096 96.9553L223.311 97.9218L228.27 101.738L229.055 100.771ZM224.096 96.9553L223.457 96.0518L217.479 100.633L218.118 101.536L218.758 102.44L224.735 97.8588L224.096 96.9553ZM218.118 101.536L218.18 100.361L207.349 101.118L207.288 102.294L207.226 103.469L218.057 102.712L218.118 101.536ZM207.288 102.294L207.926 103.198L219.826 94.0924L219.188 93.1883L218.549 92.2842L206.65 101.389L207.288 102.294ZM219.188 93.1883L219.975 92.2239L214.613 88.0671L213.826 89.0315L213.038 89.9959L218.4 94.1527L219.188 93.1883ZM213.826 89.0315L212.839 88.5159L204.769 101.885L205.756 102.401L206.742 102.916L214.812 89.5471L213.826 89.0315ZM205.756 102.401L205.817 101.225L195.779 101.927L195.718 103.103L195.656 104.278L205.694 103.576L205.756 102.401ZM195.718 103.103L196.705 103.617L212.386 77.596L211.399 77.0813L210.412 76.5666L194.73 102.588L195.718 103.103ZM211.399 77.0813L211.461 75.906L201.634 76.5931L201.572 77.7685L201.511 78.9438L211.337 78.2566L211.399 77.0813ZM201.572 77.7685L202.727 77.8465L203.677 72.774L202.522 72.696L201.367 72.618L200.417 77.6905L201.572 77.7685ZM202.522 72.696L203.515 73.2012L206.345 68.4189L205.352 67.9136L204.36 67.4084L201.53 72.1907L202.522 72.696ZM205.352 67.9136L206.286 67.089L205.146 65.7459L204.212 66.5706L203.278 67.3952L204.419 68.7383L205.352 67.9136ZM204.212 66.5706L204.15 67.7459L215.192 66.9738L215.254 65.7985L215.316 64.6231L204.274 65.3953L204.212 66.5706ZM215.254 65.7985L214.26 65.2947L210.563 71.5605L211.557 72.0642L212.55 72.568L216.248 66.3022L215.254 65.7985ZM211.557 72.0642L211.495 73.2395L214.507 73.029L214.568 71.8537L214.63 70.6783L211.618 70.8889L211.557 72.0642ZM214.568 71.8537L215.553 72.3718L219.759 65.4381L218.774 64.92L217.789 64.4018L213.583 71.3355L214.568 71.8537ZM218.774 64.92L219.694 64.0797L218.551 62.7896L217.631 63.6298L216.711 64.47L217.854 65.7602L218.774 64.92ZM217.631 63.6298L217.569 64.8051L229.615 63.9628L229.677 62.7875L229.738 61.6122L217.693 62.4545L217.631 63.6298ZM242.967 68.3397L243.028 67.1644L233.994 67.7961L233.932 68.9714L233.871 70.1467L242.905 69.515L242.967 68.3397ZM233.932 68.9714L235.092 68.6375L234.165 63.222L233.005 63.5559L231.846 63.8899L232.773 69.3054L233.932 68.9714ZM233.005 63.5559L232.944 64.7312L241.978 64.0995L242.04 62.9242L242.101 61.7489L233.067 62.3806L233.005 63.5559ZM242.04 62.9242L240.88 63.2581L241.807 68.6736L242.967 68.3397L244.126 68.0057L243.2 62.5902L242.04 62.9242ZM217.634 82.6525L216.636 82.1566L215.71 83.7495L216.709 84.2454L217.707 84.7413L218.632 83.1484L217.634 82.6525ZM216.709 84.2454L216.647 85.4207L221.666 85.0698L221.728 83.8944L221.789 82.7191L216.77 83.0701L216.709 84.2454ZM221.728 83.8944L220.572 83.8205L220.278 85.4219L221.433 85.4959L222.589 85.5699L222.883 83.9684L221.728 83.8944ZM221.433 85.4959L220.638 86.4541L224.428 89.4561L225.224 88.4979L226.019 87.5398L222.229 84.5377L221.433 85.4959ZM225.224 88.4979L225.86 89.4033L230.576 85.8065L229.939 84.9011L229.303 83.9957L224.587 87.5926L225.224 88.4979ZM229.939 84.9011L231.094 84.9777L231.681 81.8277L230.525 81.7511L229.37 81.6745L228.784 84.8245L229.939 84.9011ZM230.525 81.7511L230.587 80.5758L217.696 81.4772L217.634 82.6525L217.573 83.8278L230.464 82.9264L230.525 81.7511Z" fill="black" mask="url(#path-11-outside-2_39894_4726)"/>
</g>
<g filter="url(#filter3_d_39894_4726)">
<mask id="path-13-outside-3_39894_4726" maskUnits="userSpaceOnUse" x="24.8376" y="71.7506" width="51.9716" height="43.433" fill="black">
<rect fill="white" x="24.8376" y="71.7506" width="51.9716" height="43.433"/>
<path d="M52.5796 90.3275L52.863 88.9377L51.5172 89.506L42.2187 90.1562L42.9383 86.47L49.5952 86.0045L53.2515 84.5368L49.3833 83.0156L43.2019 83.4479L49.4712 76.3172L48.4811 75.1218L57.7268 74.4753L56.3839 75.9919L74.5055 74.7247L73.4192 80.3864L64.808 83.9922L67.0299 84.7853L73.8981 84.305L73.1786 87.9913L63.6687 88.6563L62.5842 88.2579L62.3008 89.6478L71.4408 89.0086L70.7157 92.8007L61.5756 93.4398L61.2839 94.9884L69.473 94.4158L68.6839 98.4231L60.4949 98.9957L60.2032 100.544L69.8715 99.8682L69.1381 103.819L59.4697 104.495L59.1058 106.417L70.4648 105.623L69.5174 110.643L41.4105 112.608L36.2605 111.44L35.3876 113.029L26.3533 113.661L29.375 108.233L32.7172 90.6626L30.7095 90.8029L31.6597 85.7305L42.7017 84.9583L38.6426 106.162L44.3127 107.452L49.3846 107.097L49.7486 105.175L40.0802 105.851L40.8136 101.9L50.482 101.224L50.7737 99.6755L42.5847 100.248L43.3737 96.2408L51.5628 95.6682L51.8545 94.1196L42.7144 94.7587L43.4396 90.9667L52.5796 90.3275ZM41.8799 76.5319L43.2018 82.4467L34.6429 83.0452L33.3211 77.1304L41.8799 76.5319ZM53.2147 80.2184L58.7875 82.358L66.4228 79.2948L53.2147 80.2184ZM58.4601 86.5965L54.0475 88.4333L61.7082 87.8976L58.4601 86.5965Z"/>
</mask>
<path d="M52.5796 90.3275L52.863 88.9377L51.5172 89.506L42.2187 90.1562L42.9383 86.47L49.5952 86.0045L53.2515 84.5368L49.3833 83.0156L43.2019 83.4479L49.4712 76.3172L48.4811 75.1218L57.7268 74.4753L56.3839 75.9919L74.5055 74.7247L73.4192 80.3864L64.808 83.9922L67.0299 84.7853L73.8981 84.305L73.1786 87.9913L63.6687 88.6563L62.5842 88.2579L62.3008 89.6478L71.4408 89.0086L70.7157 92.8007L61.5756 93.4398L61.2839 94.9884L69.473 94.4158L68.6839 98.4231L60.4949 98.9957L60.2032 100.544L69.8715 99.8682L69.1381 103.819L59.4697 104.495L59.1058 106.417L70.4648 105.623L69.5174 110.643L41.4105 112.608L36.2605 111.44L35.3876 113.029L26.3533 113.661L29.375 108.233L32.7172 90.6626L30.7095 90.8029L31.6597 85.7305L42.7017 84.9583L38.6426 106.162L44.3127 107.452L49.3846 107.097L49.7486 105.175L40.0802 105.851L40.8136 101.9L50.482 101.224L50.7737 99.6755L42.5847 100.248L43.3737 96.2408L51.5628 95.6682L51.8545 94.1196L42.7144 94.7587L43.4396 90.9667L52.5796 90.3275ZM41.8799 76.5319L43.2018 82.4467L34.6429 83.0452L33.3211 77.1304L41.8799 76.5319ZM53.2147 80.2184L58.7875 82.358L66.4228 79.2948L53.2147 80.2184ZM58.4601 86.5965L54.0475 88.4333L61.7082 87.8976L58.4601 86.5965Z" fill="#FFE666"/>
<path d="M52.5796 90.3275L52.518 91.5029C53.0975 91.4623 53.6125 91.0046 53.7306 90.4251L52.5796 90.3275ZM52.863 88.9377L54.014 89.0352C54.0985 88.6211 53.9628 88.2194 53.6569 87.9782C53.351 87.737 52.9203 87.692 52.5233 87.8596L52.863 88.9377ZM51.5172 89.506L51.4556 90.6813C51.5912 90.6718 51.727 90.6389 51.8569 90.584L51.5172 89.506ZM42.2187 90.1562L41.0656 90.0689C40.9991 90.4099 41.0812 90.7451 41.2907 90.9875C41.5002 91.2298 41.8163 91.3554 42.1571 91.3315L42.2187 90.1562ZM42.9383 86.47L42.9999 85.2946C42.4165 85.3354 41.8992 85.7988 41.7852 86.3826L42.9383 86.47ZM49.5952 86.0045L49.5336 87.1798C49.6615 87.1708 49.7897 87.141 49.913 87.0915L49.5952 86.0045ZM53.2515 84.5368L53.5694 85.6238C54.0341 85.4373 54.3719 84.9969 54.4211 84.5132C54.4703 84.0296 54.221 83.601 53.7924 83.4324L53.2515 84.5368ZM49.3833 83.0156L49.9242 81.9113C49.7755 81.8528 49.6121 81.8286 49.4449 81.8403L49.3833 83.0156ZM43.2019 83.4479L42.3621 82.7321C42.0387 83.0999 41.9387 83.5985 42.1065 84.0063C42.2743 84.4141 42.6788 84.6555 43.1403 84.6232L43.2019 83.4479ZM49.4712 76.3172L50.311 77.033C50.7169 76.5714 50.76 75.9212 50.4126 75.5017L49.4712 76.3172ZM48.4811 75.1218L48.5427 73.9465C48.0871 73.9783 47.6589 74.2711 47.444 74.6976C47.2291 75.1241 47.2664 75.6073 47.5397 75.9373L48.4811 75.1218ZM57.7268 74.4753L58.5633 75.1947C58.8886 74.8273 58.9903 74.3279 58.823 73.9189C58.6557 73.5099 58.2507 73.2676 57.7884 73.2999L57.7268 74.4753ZM56.3839 75.9919L55.5474 75.2725C55.2221 75.6399 55.1204 76.1393 55.2877 76.5483C55.455 76.9573 55.86 77.1996 56.3223 77.1672L56.3839 75.9919ZM74.5055 74.7247L75.6593 74.8081C75.7247 74.4677 75.6418 74.1336 75.4323 73.8921C75.2228 73.6507 74.9072 73.5257 74.5671 73.5494L74.5055 74.7247ZM73.4192 80.3864L73.7552 81.466C74.1741 81.2905 74.4892 80.9068 74.573 80.4698L73.4192 80.3864ZM64.808 83.9922L64.472 82.9126C64.0067 83.1074 63.6746 83.5563 63.636 84.0424C63.5975 84.5285 63.8604 84.9519 64.2978 85.108L64.808 83.9922ZM67.0299 84.7853L66.5197 85.9012C66.6602 85.9513 66.8127 85.9715 66.9683 85.9606L67.0299 84.7853ZM73.8981 84.305L75.0512 84.3924C75.1178 84.0513 75.0357 83.7161 74.8262 83.4738C74.6167 83.2314 74.3005 83.1059 73.9597 83.1297L73.8981 84.305ZM73.1786 87.9913L73.117 89.1666C73.7003 89.1258 74.2177 88.6624 74.3316 88.0786L73.1786 87.9913ZM63.6687 88.6563L63.1496 89.7689C63.2925 89.8214 63.4481 89.8427 63.6071 89.8316L63.6687 88.6563ZM62.5842 88.2579L63.1033 87.1453C62.7771 87.0254 62.395 87.0715 62.0683 87.27C61.7417 87.4686 61.5072 87.7973 61.4331 88.1603L62.5842 88.2579ZM62.3008 89.6478L61.1497 89.5502C61.0799 89.8928 61.1602 90.2307 61.3696 90.4754C61.579 90.72 61.8966 90.847 62.2392 90.8231L62.3008 89.6478ZM71.4408 89.0086L72.5948 89.0913C72.6599 88.751 72.5769 88.417 72.3674 88.1757C72.1579 87.9345 71.8423 87.8096 71.5024 87.8333L71.4408 89.0086ZM70.7157 92.8007L70.6541 93.976C71.2392 93.9351 71.7577 93.4691 71.8697 92.8833L70.7157 92.8007ZM61.5756 93.4398L61.6372 92.2645C61.0508 92.3055 60.5316 92.7734 60.421 93.3606L61.5756 93.4398ZM61.2839 94.9884L60.1293 94.9091C60.0653 95.2489 60.1488 95.582 60.3584 95.8225C60.5679 96.063 60.883 96.1874 61.2223 96.1637L61.2839 94.9884ZM69.473 94.4158L70.6257 94.5051C70.6929 94.1638 70.6111 93.828 70.4016 93.5852C70.1921 93.3424 69.8757 93.2166 69.5346 93.2404L69.473 94.4158ZM68.6839 98.4231L68.6223 99.5984C69.2049 99.5576 69.7218 99.0954 69.8366 98.5124L68.6839 98.4231ZM60.4949 98.9957L60.5565 97.8204C59.9701 97.8614 59.4509 98.3293 59.3403 98.9164L60.4949 98.9957ZM60.2032 100.544L59.0486 100.465C58.9845 100.805 59.0681 101.138 59.2776 101.378C59.4872 101.619 59.8022 101.743 60.1416 101.72L60.2032 100.544ZM69.8715 99.8682L71.0268 99.9442C71.0897 99.6049 71.0057 99.2727 70.7961 99.0329C70.5865 98.7932 70.2719 98.6692 69.9331 98.6929L69.8715 99.8682ZM69.1381 103.819L69.0765 104.994C69.6641 104.953 70.1841 104.483 70.2933 103.895L69.1381 103.819ZM59.4697 104.495L59.5313 103.32C58.9453 103.361 58.4264 103.828 58.3153 104.415L59.4697 104.495ZM59.1058 106.417L57.9514 106.337C57.887 106.677 57.9704 107.01 58.1799 107.251C58.3894 107.492 58.7046 107.617 59.0442 107.593L59.1058 106.417ZM70.4648 105.623L71.6193 105.703C71.6835 105.363 71.6 105.03 71.3905 104.789C71.1809 104.549 70.8658 104.424 70.5264 104.448L70.4648 105.623ZM69.5174 110.643L69.4558 111.818C70.0421 111.777 70.5612 111.309 70.672 110.722L69.5174 110.643ZM41.4105 112.608L41.0214 113.759C41.1269 113.783 41.2372 113.791 41.3489 113.783L41.4105 112.608ZM36.2605 111.44L36.6496 110.289C36.1187 110.169 35.5303 110.455 35.246 110.973L36.2605 111.44ZM35.3876 113.029L35.326 114.205C35.7649 114.174 36.18 113.901 36.4021 113.496L35.3876 113.029ZM26.3533 113.661L25.3425 113.187C25.1322 113.565 25.1224 114.002 25.3166 114.339C25.5107 114.677 25.8806 114.865 26.2917 114.836L26.3533 113.661ZM29.375 108.233L30.3857 108.707C30.4549 108.583 30.5034 108.45 30.5292 108.314L29.375 108.233ZM32.7172 90.6626L33.8714 90.744C33.9361 90.4039 33.8529 90.0702 33.6434 89.8292C33.4339 89.5882 33.1185 89.4635 32.7788 89.4873L32.7172 90.6626ZM30.7095 90.8029L29.5547 90.7249C29.4911 91.0645 29.5748 91.3973 29.7844 91.6375C29.9939 91.8777 30.3088 92.002 30.6479 91.9783L30.7095 90.8029ZM31.6597 85.7305L31.7213 84.5552C31.1344 84.5962 30.6149 85.0648 30.5048 85.6525L31.6597 85.7305ZM42.7017 84.9583L43.8556 85.0412C43.9208 84.7009 43.8379 84.3668 43.6283 84.1255C43.4188 83.8842 43.1033 83.7593 42.7633 83.783L42.7017 84.9583ZM38.6426 106.162L37.4887 106.079C37.377 106.663 37.7023 107.188 38.2528 107.313L38.6426 106.162ZM44.3127 107.452L43.9229 108.603C44.0286 108.627 44.1392 108.635 44.2511 108.627L44.3127 107.452ZM49.3846 107.097L49.323 108.273C49.909 108.232 50.428 107.764 50.539 107.178L49.3846 107.097ZM49.7486 105.175L50.903 105.255C50.9673 104.915 50.884 104.582 50.6745 104.341C50.4649 104.1 50.1497 103.976 49.8102 103.999L49.7486 105.175ZM40.0802 105.851L38.925 105.775C38.862 106.114 38.9461 106.446 39.1557 106.686C39.3652 106.926 39.6798 107.05 40.0186 107.026L40.0802 105.851ZM40.8137 101.9L40.8752 100.725C40.2876 100.766 39.7677 101.236 39.6584 101.824L40.8137 101.9ZM50.482 101.224L50.4204 102.399C51.0068 102.358 51.526 101.89 51.6366 101.303L50.482 101.224ZM50.7737 99.6755L51.9283 99.7547C51.9923 99.415 51.9088 99.0819 51.6993 98.8414C51.4897 98.6009 51.1747 98.4764 50.8353 98.5002L50.7737 99.6755ZM42.5847 100.248L41.432 100.159C41.3648 100.5 41.4465 100.836 41.656 101.079C41.8655 101.321 42.182 101.447 42.5231 101.423L42.5847 100.248ZM43.3737 96.2408L43.4353 95.0655C42.8527 95.1062 42.3358 95.5685 42.221 96.1515L43.3737 96.2408ZM51.5628 95.6682L51.5012 96.8435C52.0876 96.8025 52.6068 96.3346 52.7174 95.7474L51.5628 95.6682ZM51.8545 94.1196L53.0091 94.1989C53.0731 93.8591 52.9896 93.526 52.78 93.2855C52.5705 93.045 52.2554 92.9206 51.9161 92.9443L51.8545 94.1196ZM42.7144 94.7587L41.5604 94.6761C41.4954 95.0164 41.5783 95.3504 41.7878 95.5916C41.9974 95.8329 42.3129 95.9578 42.6528 95.934L42.7144 94.7587ZM43.4396 90.9667L43.5012 89.7914C42.916 89.8323 42.3976 90.2983 42.2856 90.8841L43.4396 90.9667ZM41.8799 76.5319L43.029 76.1443C42.9168 75.6422 42.4713 75.3195 41.9415 75.3566L41.8799 76.5319ZM43.2018 82.4467L43.1402 83.622C43.5059 83.5964 43.8598 83.4017 44.0971 83.0952C44.3345 82.7888 44.4283 82.4057 44.3508 82.0591L43.2018 82.4467ZM34.6429 83.0452L33.4938 83.4328C33.606 83.9348 34.0515 84.2575 34.5813 84.2205L34.6429 83.0452ZM33.3211 77.1304L33.3827 75.9551C33.0169 75.9806 32.6631 76.1754 32.4257 76.4819C32.1883 76.7883 32.0945 77.1714 32.172 77.518L33.3211 77.1304ZM53.2147 80.2184L53.2763 79.0431C52.7218 79.0818 52.2225 79.5037 52.079 80.0547C51.9354 80.6057 52.1867 81.1357 52.6815 81.3257L53.2147 80.2184ZM58.7875 82.358L58.2544 83.4654C58.5174 83.5664 58.8211 83.5591 59.1051 83.4452L58.7875 82.358ZM66.4228 79.2948L66.7404 80.3819C67.2947 80.1595 67.6548 79.5844 67.5913 79.023C67.5278 78.4617 67.0593 78.0793 66.4844 78.1195L66.4228 79.2948ZM58.4601 86.5965L59.007 85.4946C58.736 85.3861 58.4203 85.3937 58.1267 85.5159L58.4601 86.5965ZM54.0475 88.4333L53.7141 87.3526C53.165 87.5811 52.8128 88.1556 52.8799 88.713C52.9471 89.2704 53.4141 89.6486 53.9859 89.6086L54.0475 88.4333ZM61.7082 87.8976L61.6466 89.0729C62.1982 89.0343 62.6955 88.6166 62.8419 88.0689C62.9882 87.5213 62.744 86.9915 62.2551 86.7956L61.7082 87.8976ZM52.5796 90.3275L53.7306 90.4251L54.014 89.0352L52.863 88.9377L51.7119 88.8401L51.4285 90.23L52.5796 90.3275ZM52.863 88.9377L52.5233 87.8596L51.1775 88.428L51.5172 89.506L51.8569 90.584L53.2027 90.0157L52.863 88.9377ZM51.5172 89.506L51.5788 88.3307L42.2803 88.9809L42.2187 90.1562L42.1571 91.3315L51.4556 90.6813L51.5172 89.506ZM42.2187 90.1562L43.3718 90.2436L44.0914 86.5573L42.9383 86.47L41.7852 86.3826L41.0656 90.0689L42.2187 90.1562ZM42.9383 86.47L42.8767 87.6453L49.5336 87.1798L49.5952 86.0045L49.6568 84.8291L42.9999 85.2946L42.9383 86.47ZM49.5952 86.0045L49.913 87.0915L53.5694 85.6238L53.2515 84.5368L52.9337 83.4497L49.2774 84.9174L49.5952 86.0045ZM53.2515 84.5368L53.7924 83.4324L49.9242 81.9113L49.3833 83.0156L48.8425 84.12L52.7107 85.6411L53.2515 84.5368ZM49.3833 83.0156L49.4449 81.8403L43.2635 82.2726L43.2019 83.4479L43.1403 84.6232L49.3217 84.191L49.3833 83.0156ZM43.2019 83.4479L44.0418 84.1637L50.311 77.033L49.4712 76.3172L48.6314 75.6014L42.3621 82.7321L43.2019 83.4479ZM49.4712 76.3172L50.4126 75.5017L49.4224 74.3063L48.4811 75.1218L47.5397 75.9373L48.5298 77.1327L49.4712 76.3172ZM48.4811 75.1218L48.4195 76.2971L57.6652 75.6506L57.7268 74.4753L57.7884 73.2999L48.5427 73.9465L48.4811 75.1218ZM57.7268 74.4753L56.8902 73.7558L55.5474 75.2725L56.3839 75.9919L57.2205 76.7114L58.5633 75.1947L57.7268 74.4753ZM56.3839 75.9919L56.3223 77.1672L74.4439 75.9001L74.5055 74.7247L74.5671 73.5494L56.4455 74.8166L56.3839 75.9919ZM74.5055 74.7247L73.3517 74.6414L72.2653 80.303L73.4192 80.3864L74.573 80.4698L75.6593 74.8081L74.5055 74.7247ZM73.4192 80.3864L73.0832 79.3068L64.472 82.9126L64.808 83.9922L65.144 85.0718L73.7552 81.466L73.4192 80.3864ZM64.808 83.9922L64.2978 85.108L66.5197 85.9012L67.0299 84.7853L67.5401 83.6694L65.3182 82.8763L64.808 83.9922ZM67.0299 84.7853L66.9683 85.9606L73.8365 85.4803L73.8981 84.305L73.9597 83.1297L67.0915 83.61L67.0299 84.7853ZM73.8981 84.305L72.7451 84.2177L72.0255 87.904L73.1786 87.9913L74.3316 88.0786L75.0512 84.3924L73.8981 84.305ZM73.1786 87.9913L73.2402 86.816L63.7303 87.481L63.6687 88.6563L63.6071 89.8316L73.117 89.1666L73.1786 87.9913ZM63.6687 88.6563L64.1878 87.5437L63.1033 87.1453L62.5842 88.2579L62.0651 89.3705L63.1496 89.7689L63.6687 88.6563ZM62.5842 88.2579L61.4331 88.1603L61.1497 89.5502L62.3008 89.6478L63.4518 89.7453L63.7352 88.3555L62.5842 88.2579ZM62.3008 89.6478L62.2392 90.8231L71.3792 90.184L71.4408 89.0086L71.5024 87.8333L62.3624 88.4725L62.3008 89.6478ZM71.4408 89.0086L70.2868 88.926L69.5617 92.7181L70.7157 92.8007L71.8697 92.8833L72.5948 89.0913L71.4408 89.0086ZM70.7157 92.8007L70.7773 91.6254L61.6372 92.2645L61.5756 93.4398L61.514 94.6151L70.6541 93.976L70.7157 92.8007ZM61.5756 93.4398L60.421 93.3606L60.1293 94.9091L61.2839 94.9884L62.4386 95.0677L62.7303 93.5191L61.5756 93.4398ZM61.2839 94.9884L61.2223 96.1637L69.4114 95.5911L69.473 94.4158L69.5346 93.2404L61.3455 93.8131L61.2839 94.9884ZM69.473 94.4158L68.3203 94.3264L67.5312 98.3337L68.6839 98.4231L69.8366 98.5124L70.6257 94.5051L69.473 94.4158ZM68.6839 98.4231L68.7455 97.2478L60.5565 97.8204L60.4949 98.9957L60.4333 100.171L68.6223 99.5984L68.6839 98.4231ZM60.4949 98.9957L59.3403 98.9164L59.0486 100.465L60.2032 100.544L61.3578 100.624L61.6495 99.075L60.4949 98.9957ZM60.2032 100.544L60.1416 101.72L69.8099 101.043L69.8715 99.8682L69.9331 98.6929L60.2648 99.3689L60.2032 100.544ZM69.8715 99.8682L68.7163 99.7921L67.9829 103.743L69.1381 103.819L70.2933 103.895L71.0268 99.9442L69.8715 99.8682ZM69.1381 103.819L69.1997 102.644L59.5313 103.32L59.4697 104.495L59.4081 105.67L69.0765 104.994L69.1381 103.819ZM59.4697 104.495L58.3153 104.415L57.9514 106.337L59.1058 106.417L60.2602 106.498L60.6242 104.575L59.4697 104.495ZM59.1058 106.417L59.0442 107.593L70.4032 106.798L70.4648 105.623L70.5264 104.448L59.1674 105.242L59.1058 106.417ZM70.4648 105.623L69.3102 105.543L68.3629 110.563L69.5174 110.643L70.672 110.722L71.6193 105.703L70.4648 105.623ZM69.5174 110.643L69.579 109.467L41.4721 111.433L41.4105 112.608L41.3489 113.783L69.4558 111.818L69.5174 110.643ZM41.4105 112.608L41.7997 111.457L36.6496 110.289L36.2605 111.44L35.8713 112.591L41.0214 113.759L41.4105 112.608ZM36.2605 111.44L35.246 110.973L34.3731 112.562L35.3876 113.029L36.4021 113.496L37.275 111.907L36.2605 111.44ZM35.3876 113.029L35.4492 111.854L26.4148 112.486L26.3533 113.661L26.2917 114.836L35.326 114.205L35.3876 113.029ZM26.3533 113.661L27.364 114.135L30.3857 108.707L29.375 108.233L28.3642 107.759L25.3425 113.187L26.3533 113.661ZM29.375 108.233L30.5292 108.314L33.8714 90.744L32.7172 90.6626L31.563 90.5811L28.2207 108.152L29.375 108.233ZM32.7172 90.6626L32.7788 89.4873L30.7711 89.6276L30.7095 90.8029L30.6479 91.9783L32.6556 91.8379L32.7172 90.6626ZM30.7095 90.8029L31.8644 90.881L32.8145 85.8085L31.6597 85.7305L30.5048 85.6525L29.5547 90.7249L30.7095 90.8029ZM31.6597 85.7305L31.5981 86.9058L42.6401 86.1336L42.7017 84.9583L42.7633 83.783L31.7213 84.5552L31.6597 85.7305ZM42.7017 84.9583L41.5477 84.8755L37.4887 106.079L38.6426 106.162L39.7966 106.245L43.8556 85.0412L42.7017 84.9583ZM38.6426 106.162L38.2528 107.313L43.9229 108.603L44.3127 107.452L44.7025 106.301L39.0325 105.011L38.6426 106.162ZM44.3127 107.452L44.2511 108.627L49.323 108.273L49.3846 107.097L49.4462 105.922L44.3743 106.277L44.3127 107.452ZM49.3846 107.097L50.539 107.178L50.903 105.255L49.7486 105.175L48.5941 105.094L48.2302 107.017L49.3846 107.097ZM49.7486 105.175L49.8102 103.999L40.1418 104.676L40.0802 105.851L40.0186 107.026L49.687 106.35L49.7486 105.175ZM40.0802 105.851L41.2354 105.927L41.9689 101.976L40.8137 101.9L39.6584 101.824L38.925 105.775L40.0802 105.851ZM40.8137 101.9L40.7521 103.075L50.4204 102.399L50.482 101.224L50.5436 100.049L40.8752 100.725L40.8137 101.9ZM50.482 101.224L51.6366 101.303L51.9283 99.7547L50.7737 99.6755L49.6191 99.5962L49.3274 101.145L50.482 101.224ZM50.7737 99.6755L50.8353 98.5002L42.6463 99.0728L42.5847 100.248L42.5231 101.423L50.7121 100.851L50.7737 99.6755ZM42.5847 100.248L43.7374 100.337L44.5264 96.3301L43.3737 96.2408L42.221 96.1515L41.432 100.159L42.5847 100.248ZM43.3737 96.2408L43.3121 97.4161L51.5012 96.8435L51.5628 95.6682L51.6243 94.4929L43.4353 95.0655L43.3737 96.2408ZM51.5628 95.6682L52.7174 95.7474L53.0091 94.1989L51.8545 94.1196L50.6998 94.0403L50.4081 95.5889L51.5628 95.6682ZM51.8545 94.1196L51.9161 92.9443L42.776 93.5834L42.7144 94.7587L42.6528 95.934L51.7929 95.2949L51.8545 94.1196ZM42.7144 94.7587L43.8684 94.8414L44.5936 91.0493L43.4396 90.9667L42.2856 90.8841L41.5604 94.6761L42.7144 94.7587ZM43.4396 90.9667L43.378 92.142L52.518 91.5029L52.5796 90.3275L52.6412 89.1522L43.5012 89.7914L43.4396 90.9667ZM41.8799 76.5319L40.7309 76.9195L42.0527 82.8343L43.2018 82.4467L44.3508 82.0591L43.029 76.1443L41.8799 76.5319ZM43.2018 82.4467L43.2634 81.2714L34.7045 81.8699L34.6429 83.0452L34.5813 84.2205L43.1402 83.622L43.2018 82.4467ZM34.6429 83.0452L35.792 82.6576L34.4702 76.7428L33.3211 77.1304L32.172 77.518L33.4938 83.4328L34.6429 83.0452ZM33.3211 77.1304L33.2595 78.3057L41.8184 77.7072L41.8799 76.5319L41.9415 75.3566L33.3827 75.9551L33.3211 77.1304ZM53.2147 80.2184L52.6815 81.3257L58.2544 83.4654L58.7875 82.358L59.3206 81.2507L53.7478 79.111L53.2147 80.2184ZM58.7875 82.358L59.1051 83.4452L66.7404 80.3819L66.4228 79.2948L66.1052 78.2076L58.4699 81.2709L58.7875 82.358ZM66.4228 79.2948L66.4844 78.1195L53.2763 79.0431L53.2147 80.2184L53.1531 81.3937L66.3612 80.4701L66.4228 79.2948ZM58.4601 86.5965L58.1267 85.5159L53.7141 87.3526L54.0475 88.4333L54.3809 89.514L58.7935 87.6772L58.4601 86.5965ZM54.0475 88.4333L53.9859 89.6086L61.6466 89.0729L61.7082 87.8976L61.7698 86.7223L54.1091 87.258L54.0475 88.4333ZM61.7082 87.8976L62.2551 86.7956L59.007 85.4946L58.4601 86.5965L57.9132 87.6985L61.1613 88.9995L61.7082 87.8976Z" fill="black" mask="url(#path-13-outside-3_39894_4726)"/>
</g>
<g filter="url(#filter4_d_39894_4726)">
<mask id="path-15-outside-4_39894_4726" maskUnits="userSpaceOnUse" x="76.0972" y="34.7949" width="81.5259" height="76.3437" fill="black">
<rect fill="white" x="76.0972" y="34.7949" width="81.5259" height="76.3437"/>
<path d="M154.069 48.0125L109.573 51.124L107.165 63.5879L151.661 60.4764L143.395 104.382L84.4572 108.503C82.1873 108.662 80.4261 108.043 79.1735 106.647C77.9251 105.173 77.5169 103.289 77.9491 100.995L89.3708 41.5292L156.175 36.8578L154.069 48.0125ZM105.053 74.8601L100.892 96.2291L123.199 94.6692L127.243 73.3084L105.053 74.8601Z"/>
</mask>
<path d="M154.069 48.0125L109.573 51.124L107.165 63.5879L151.661 60.4764L143.395 104.382L84.4572 108.503C82.1873 108.662 80.4261 108.043 79.1735 106.647C77.9251 105.173 77.5169 103.289 77.9491 100.995L89.3708 41.5292L156.175 36.8578L154.069 48.0125ZM105.053 74.8601L100.892 96.2291L123.199 94.6692L127.243 73.3084L105.053 74.8601Z" fill="url(#paint1_linear_39894_4726)"/>
<path d="M154.069 48.0125L154.008 49.1878C154.594 49.1468 155.113 48.6791 155.224 48.0922L154.069 48.0125ZM109.573 51.124L109.634 49.9487C109.05 49.9895 108.532 50.4543 108.419 51.0391L109.573 51.124ZM107.165 63.5879L106.011 63.503C105.945 63.8436 106.028 64.1782 106.237 64.42C106.447 64.6618 106.763 64.787 107.103 64.7632L107.165 63.5879ZM151.661 60.4764L152.816 60.5555C152.88 60.2158 152.797 59.8827 152.587 59.6422C152.377 59.4018 152.062 59.2773 151.723 59.3011L151.661 60.4764ZM143.395 104.382L143.333 105.557C143.92 105.516 144.439 105.048 144.549 104.461L143.395 104.382ZM79.1735 106.647L78.2391 107.471C78.2451 107.478 78.2513 107.485 78.2575 107.492L79.1735 106.647ZM77.9491 100.995L76.7953 100.912L76.7945 100.916L77.9491 100.995ZM89.3708 41.5292L89.4324 40.3539C88.8476 40.3948 88.3294 40.8603 88.217 41.4456L89.3708 41.5292ZM156.175 36.8579L157.329 36.9375C157.393 36.5977 157.31 36.2645 157.1 36.0239C156.891 35.7833 156.576 35.6588 156.236 35.6825L156.175 36.8579ZM105.053 74.8601L105.115 73.6848C104.531 73.7256 104.014 74.1893 103.9 74.7733L105.053 74.8601ZM100.892 96.2291L99.7389 96.1423C99.6725 96.4833 99.7547 96.8183 99.9642 97.0605C100.174 97.3027 100.49 97.4282 100.83 97.4044L100.892 96.2291ZM123.199 94.6692L123.138 95.8446C123.724 95.8036 124.242 95.3363 124.354 94.7496L123.199 94.6692ZM127.243 73.3084L128.397 73.3888C128.462 73.0488 128.378 72.7155 128.169 72.4747C127.959 72.2339 127.644 72.1094 127.305 72.1331L127.243 73.3084ZM154.069 48.0125L154.131 46.8372L109.634 49.9487L109.573 51.124L109.511 52.2993L154.008 49.1878L154.069 48.0125ZM109.573 51.124L108.419 51.0391L106.011 63.503L107.165 63.5879L108.318 63.6728L110.726 51.2089L109.573 51.124ZM107.165 63.5879L107.103 64.7632L151.6 61.6517L151.661 60.4764L151.723 59.3011L107.226 62.4126L107.165 63.5879ZM151.661 60.4764L150.507 60.3972L142.24 104.302L143.395 104.382L144.549 104.461L152.816 60.5555L151.661 60.4764ZM143.395 104.382L143.456 103.206L84.5188 107.328L84.4572 108.503L84.3956 109.678L143.333 105.557L143.395 104.382ZM84.4572 108.503L84.5188 107.328C82.5321 107.466 81.1025 106.931 80.0896 105.803L79.1735 106.647L78.2575 107.492C79.7497 109.155 81.8426 109.857 84.3956 109.678L84.4572 108.503ZM79.1735 106.647L80.108 105.824C79.0874 104.619 78.7265 103.077 79.1037 101.074L77.9491 100.995L76.7945 100.916C76.3073 103.502 76.7628 105.728 78.2391 107.471L79.1735 106.647ZM77.9491 100.995L79.1029 101.079L90.5246 41.6129L89.3708 41.5292L88.217 41.4456L76.7953 100.912L77.9491 100.995ZM89.3708 41.5292L89.3092 42.7045L156.113 38.0332L156.175 36.8579L156.236 35.6825L89.4324 40.3539L89.3708 41.5292ZM156.175 36.8579L155.02 36.7782L152.915 47.9328L154.069 48.0125L155.224 48.0922L157.329 36.9375L156.175 36.8579ZM105.053 74.8601L103.9 74.7733L99.7389 96.1423L100.892 96.2291L102.045 96.3159L106.207 74.9468L105.053 74.8601ZM100.892 96.2291L100.83 97.4044L123.138 95.8446L123.199 94.6692L123.261 93.4939L100.954 95.0538L100.892 96.2291ZM123.199 94.6692L124.354 94.7496L128.397 73.3888L127.243 73.3084L126.089 73.2281L122.045 94.5889L123.199 94.6692ZM127.243 73.3084L127.305 72.1331L105.115 73.6848L105.053 74.8601L104.992 76.0354L127.181 74.4837L127.243 73.3084Z" fill="black" mask="url(#path-15-outside-4_39894_4726)"/>
</g>
<defs>
<filter id="filter0_d_39894_4726" x="8.76138" y="24.5042" width="238.157" height="129.036" filterUnits="userSpaceOnUse" color-interpolation-filters="sRGB">
<feFlood flood-opacity="0" result="BackgroundImageFix"/>
<feColorMatrix in="SourceAlpha" type="matrix" values="0 0 0 0 0 0 0 0 0 0 0 0 0 0 0 0 0 0 127 0" result="hardAlpha"/>
<feOffset dx="3.23654" dy="4.11923"/>
<feComposite in2="hardAlpha" operator="out"/>
<feColorMatrix type="matrix" values="0 0 0 0 0.372549 0 0 0 0 0.352941 0 0 0 0 0.878431 0 0 0 1 0"/>
<feBlend mode="normal" in2="BackgroundImageFix" result="effect1_dropShadow_39894_4726"/>
<feBlend mode="normal" in="SourceGraphic" in2="effect1_dropShadow_39894_4726" result="shape"/>
</filter>
<filter id="filter1_d_39894_4726" x="75.2995" y="111.739" width="134.072" height="49.5275" filterUnits="userSpaceOnUse" color-interpolation-filters="sRGB">
<feFlood flood-opacity="0" result="BackgroundImageFix"/>
<feColorMatrix in="SourceAlpha" type="matrix" values="0 0 0 0 0 0 0 0 0 0 0 0 0 0 0 0 0 0 127 0" result="hardAlpha"/>
<feOffset dx="0.882692" dy="2.94231"/>
<feComposite in2="hardAlpha" operator="out"/>
<feColorMatrix type="matrix" values="0 0 0 0 0.372549 0 0 0 0 0.352941 0 0 0 0 0.878431 0 0 0 1 0"/>
<feBlend mode="normal" in2="BackgroundImageFix" result="effect1_dropShadow_39894_4726"/>
<feBlend mode="normal" in="SourceGraphic" in2="effect1_dropShadow_39894_4726" result="shape"/>
</filter>
<filter id="filter2_d_39894_4726" x="145.799" y="61.6094" width="99.0552" height="47.2006" filterUnits="userSpaceOnUse" color-interpolation-filters="sRGB">
<feFlood flood-opacity="0" result="BackgroundImageFix"/>
<feColorMatrix in="SourceAlpha" type="matrix" values="0 0 0 0 0 0 0 0 0 0 0 0 0 0 0 0 0 0 127 0" result="hardAlpha"/>
<feOffset dx="-2.35385" dy="2.94231"/>
<feComposite in2="hardAlpha" operator="out"/>
<feColorMatrix type="matrix" values="0 0 0 0 0 0 0 0 0 0 0 0 0 0 0 0 0 0 1 0"/>
<feBlend mode="normal" in2="BackgroundImageFix" result="effect1_dropShadow_39894_4726"/>
<feBlend mode="normal" in="SourceGraphic" in2="effect1_dropShadow_39894_4726" result="shape"/>
</filter>
<filter id="filter3_d_39894_4726" x="22.8237" y="73.2971" width="52.8574" height="44.4845" filterUnits="userSpaceOnUse" color-interpolation-filters="sRGB">
<feFlood flood-opacity="0" result="BackgroundImageFix"/>
<feColorMatrix in="SourceAlpha" type="matrix" values="0 0 0 0 0 0 0 0 0 0 0 0 0 0 0 0 0 0 127 0" result="hardAlpha"/>
<feOffset dx="-2.35385" dy="2.94231"/>
<feComposite in2="hardAlpha" operator="out"/>
<feColorMatrix type="matrix" values="0 0 0 0 0 0 0 0 0 0 0 0 0 0 0 0 0 0 1 0"/>
<feBlend mode="normal" in2="BackgroundImageFix" result="effect1_dropShadow_39894_4726"/>
<feBlend mode="normal" in="SourceGraphic" in2="effect1_dropShadow_39894_4726" result="shape"/>
</filter>
<filter id="filter4_d_39894_4726" x="73.0762" y="35.6797" width="84.2741" height="77.8506" filterUnits="userSpaceOnUse" color-interpolation-filters="sRGB">
<feFlood flood-opacity="0" result="BackgroundImageFix"/>
<feColorMatrix in="SourceAlpha" type="matrix" values="0 0 0 0 0 0 0 0 0 0 0 0 0 0 0 0 0 0 127 0" result="hardAlpha"/>
<feOffset dx="-3.53077" dy="3.825"/>
<feComposite in2="hardAlpha" operator="out"/>
<feColorMatrix type="matrix" values="0 0 0 0 0 0 0 0 0 0 0 0 0 0 0 0 0 0 1 0"/>
<feBlend mode="normal" in2="BackgroundImageFix" result="effect1_dropShadow_39894_4726"/>
<feBlend mode="normal" in="SourceGraphic" in2="effect1_dropShadow_39894_4726" result="shape"/>
</filter>
<linearGradient id="paint0_linear_39894_4726" x1="141.027" y1="116.179" x2="143.299" y2="159.519" gradientUnits="userSpaceOnUse">
<stop stop-color="white"/>
<stop offset="0.1" stop-color="white"/>
<stop offset="0.1" stop-color="#C2B6FF"/>
<stop offset="1" stop-color="#D8D0FF"/>
</linearGradient>
<linearGradient id="paint1_linear_39894_4726" x1="146.868" y1="46.067" x2="91.783" y2="106.924" gradientUnits="userSpaceOnUse">
<stop stop-color="#FF75AA"/>
<stop offset="0.524359" stop-color="#FF75AA"/>
<stop offset="0.525" stop-color="#FFE666"/>
<stop offset="0.692032" stop-color="#FFE666"/>
<stop offset="0.692852" stop-color="#FF75AA"/>
<stop offset="1" stop-color="#FF75AA"/>
</linearGradient>
</defs>
</svg>
