<svg width="35" height="82" viewBox="0 0 35 82" fill="none" xmlns="http://www.w3.org/2000/svg">
<path d="M34.3818 80.0977H32.9648V81.0977H30.1318V80.0977H27.2988V81.0977H24.4648V80.0977H21.6318V81.0977H18.7988V80.0977H15.9648V81.0977H13.1318V80.0977H10.2988V81.0977H7.46484V80.0977H4.63184V81.0977H1.79883V80.0977H0.381836V17.0977C0.381836 13.7839 3.06813 11.0977 6.38184 11.0977H34.3818V80.0977Z" fill="url(#paint0_linear_1_39185)"/>
<path opacity="0.2" d="M31.3818 80.0977H28.3818V77.0977H31.3818V80.0977ZM34.3818 77.0977H31.3818V74.0977H34.3818V77.0977ZM31.3818 74.0977H28.3818V71.0977H31.3818V74.0977ZM34.3818 71.0977H31.3818V68.0977H34.3818V71.0977ZM31.3818 68.0977H28.3818V65.0977H31.3818V68.0977ZM34.3818 65.0977H31.3818V62.0977H34.3818V65.0977ZM31.3818 62.0977H28.3818V59.0977H31.3818V62.0977ZM34.3818 59.0977H31.3818V56.0977H34.3818V59.0977ZM31.3818 56.0977H28.3818V53.0977H31.3818V56.0977ZM34.3818 53.0977H31.3818V50.0977H34.3818V53.0977ZM31.3818 50.0977H28.3818V47.0977H31.3818V50.0977ZM34.3818 47.0977H31.3818V44.0977H34.3818V47.0977ZM31.3818 44.0977H28.3818V41.0977H31.3818V44.0977ZM34.3818 41.0977H31.3818V38.0977H34.3818V41.0977ZM31.3818 38.0977H28.3818V35.0977H31.3818V38.0977ZM34.3818 35.0977H31.3818V32.0977H34.3818V35.0977ZM31.3818 32.0977H28.3818V29.0977H31.3818V32.0977ZM34.3818 29.0977H31.3818V26.0977H34.3818V29.0977ZM31.3818 26.0977H28.3818V23.0977H31.3818V26.0977ZM34.3818 23.0977H31.3818V20.0977H34.3818V23.0977ZM31.3818 20.0977H28.3818V17.0977H31.3818V20.0977ZM34.3818 17.0977H31.3818V14.0977H34.3818V17.0977ZM31.3818 14.0977H28.3818V11.0977H31.3818V14.0977Z" fill="white"/>
<g filter="url(#filter0_i_1_39185)">
<path d="M11.2133 12.8342L7.77422 2.93631C7.08524 0.953386 4.91923 -0.095557 2.93631 0.593429C0.953384 1.28241 -0.0955567 3.44843 0.593429 5.43135L6.07423 21.2053C6.61096 22.75 8.29832 23.5671 9.84304 23.0304C11.3878 22.4937 12.2049 20.8063 11.6682 19.2616L7.40516 6.99253C7.012 5.86098 5.77597 5.2624 4.64442 5.65557C3.51287 6.04874 2.9143 7.28476 3.30746 8.41631L5.52879 14.8094" stroke="white" stroke-width="0.763605" stroke-linecap="round"/>
</g>
<g filter="url(#filter1_d_1_39185)">
<path d="M18.4858 36.6737H20.4218V41.0417C20.4218 41.5857 20.5018 41.6497 21.0298 41.6497C21.2698 41.6497 22.1978 41.6497 22.4858 41.6497C23.0138 41.6497 23.1098 41.3297 23.1738 39.0737C23.5738 39.4097 24.4218 39.7297 24.9338 39.8577C24.7418 42.7217 24.2458 43.4737 22.6618 43.4737C22.2938 43.4737 21.0938 43.4737 20.7418 43.4737C18.9338 43.4737 18.4858 42.8657 18.4858 41.0577V36.6737ZM14.2298 36.7377H16.2618C16.0218 40.0817 15.3178 42.3537 10.9498 43.5697C10.7418 43.0577 10.2458 42.2737 9.82984 41.8897C13.6378 40.9777 14.0218 39.3137 14.2298 36.7377ZM18.7738 32.8977L20.3738 31.9537C21.7658 33.1537 23.5258 34.8657 24.3418 36.0817L22.5978 37.1697C21.8778 35.9697 20.1978 34.1617 18.7738 32.8977ZM14.6778 31.3137L16.7898 31.9057C16.0858 33.2977 15.2538 34.8177 14.5978 35.7937L12.9818 35.2337C13.5898 34.1617 14.3098 32.5297 14.6778 31.3137ZM10.8698 34.4657C13.7658 34.4017 18.2618 34.2577 22.3898 34.1297L22.3098 35.9057C18.2618 36.1457 13.8618 36.3377 10.9338 36.4337L10.8698 34.4657ZM10.3578 30.2257H24.4058V32.0337H10.3578V30.2257ZM16.3578 28.5137H18.3258V31.2337H16.3578V28.5137ZM14.7258 49.9697H24.5018V51.6177H14.7258V49.9697ZM14.0218 61.6337H24.8538V63.2337H14.0218V61.6337ZM15.4138 52.7217H23.6378V61.9217H21.8778V54.1137H17.1098V61.9217H15.4138V52.7217ZM16.6778 54.9937H22.1818V56.3217H16.6778V54.9937ZM16.6458 57.2177H22.5978V58.4977H16.6458V57.2177ZM16.5978 59.4097H22.2138V60.7217H16.5978V59.4097ZM18.7418 48.5457L20.7738 48.6097C20.5018 50.3057 20.1018 52.1777 19.7498 53.3457L18.0858 53.2177C18.3738 51.9537 18.6458 49.9857 18.7418 48.5457ZM13.1578 48.5617L14.9178 49.1217C13.9258 51.8417 12.3578 54.7377 10.6938 56.5777C10.5178 56.0977 10.0058 55.0417 9.70184 54.5777C11.0778 53.1057 12.3738 50.8497 13.1578 48.5617ZM11.5738 53.0097L13.3498 51.1857V51.2017V63.5217H11.5738V53.0097Z" fill="white"/>
</g>
<defs>
<filter id="filter0_i_1_39185" x="0" y="0" width="12.2148" height="24.0331" filterUnits="userSpaceOnUse" color-interpolation-filters="sRGB">
<feFlood flood-opacity="0" result="BackgroundImageFix"/>
<feBlend mode="normal" in="SourceGraphic" in2="BackgroundImageFix" result="shape"/>
<feColorMatrix in="SourceAlpha" type="matrix" values="0 0 0 0 0 0 0 0 0 0 0 0 0 0 0 0 0 0 127 0" result="hardAlpha"/>
<feOffset dy="0.455902"/>
<feGaussianBlur stdDeviation="0.455902"/>
<feComposite in2="hardAlpha" operator="arithmetic" k2="-1" k3="1"/>
<feColorMatrix type="matrix" values="0 0 0 0 1 0 0 0 0 1 0 0 0 0 1 0 0 0 1 0"/>
<feBlend mode="normal" in2="shape" result="effect1_innerShadow_1_39185"/>
</filter>
<filter id="filter1_d_1_39185" x="9.7019" y="28.5137" width="15.2319" height="35.7081" filterUnits="userSpaceOnUse" color-interpolation-filters="sRGB">
<feFlood flood-opacity="0" result="BackgroundImageFix"/>
<feColorMatrix in="SourceAlpha" type="matrix" values="0 0 0 0 0 0 0 0 0 0 0 0 0 0 0 0 0 0 127 0" result="hardAlpha"/>
<feOffset dy="0.7"/>
<feComposite in2="hardAlpha" operator="out"/>
<feColorMatrix type="matrix" values="0 0 0 0 0.401899 0 0 0 0 0.2 0 0 0 0 0.75 0 0 0 1 0"/>
<feBlend mode="normal" in2="BackgroundImageFix" result="effect1_dropShadow_1_39185"/>
<feBlend mode="normal" in="SourceGraphic" in2="effect1_dropShadow_1_39185" result="shape"/>
</filter>
<linearGradient id="paint0_linear_1_39185" x1="17.3818" y1="11.0977" x2="17.3818" y2="81.0977" gradientUnits="userSpaceOnUse">
<stop stop-color="#985DFF"/>
<stop offset="1" stop-color="#C2A8EE"/>
</linearGradient>
</defs>
</svg>
