<svg width="372" height="442" viewBox="0 0 372 442" fill="none" xmlns="http://www.w3.org/2000/svg">
<g filter="url(#filter0_i_1_34661)">
<path d="M0 41.665C0 25.6778 12.5372 12.4993 28.5045 11.7023L262.734 0.0117126C269.99 -0.350433 274.504 7.7729 270.365 13.7432C265.484 20.7825 272.574 29.9186 280.604 26.9387L335.253 6.66081C352.937 0.0992136 371.744 13.1727 371.755 32.0342L371.982 411.107C371.992 427.683 358.558 441.125 341.982 441.125H30C13.4315 441.125 0 427.694 0 411.125L0 41.665Z" fill="#62B4FF"/>
<path d="M0 41.665C0 25.6778 12.5372 12.4993 28.5045 11.7023L262.734 0.0117126C269.99 -0.350433 274.504 7.7729 270.365 13.7432C265.484 20.7825 272.574 29.9186 280.604 26.9387L335.253 6.66081C352.937 0.0992136 371.744 13.1727 371.755 32.0342L371.982 411.107C371.992 427.683 358.558 441.125 341.982 441.125H30C13.4315 441.125 0 427.694 0 411.125L0 41.665Z" fill="white" fill-opacity="0.9"/>
<path d="M0 41.665C0 25.6778 12.5372 12.4993 28.5045 11.7023L262.734 0.0117126C269.99 -0.350433 274.504 7.7729 270.365 13.7432C265.484 20.7825 272.574 29.9186 280.604 26.9387L335.253 6.66081C352.937 0.0992136 371.744 13.1727 371.755 32.0342L371.982 411.107C371.992 427.683 358.558 441.125 341.982 441.125H30C13.4315 441.125 0 427.694 0 411.125L0 41.665Z" fill="url(#paint0_linear_1_34661)" fill-opacity="0.5"/>
<path d="M0 41.665C0 25.6778 12.5372 12.4993 28.5045 11.7023L262.734 0.0117126C269.99 -0.350433 274.504 7.7729 270.365 13.7432C265.484 20.7825 272.574 29.9186 280.604 26.9387L335.253 6.66081C352.937 0.0992136 371.744 13.1727 371.755 32.0342L371.982 411.107C371.992 427.683 358.558 441.125 341.982 441.125H30C13.4315 441.125 0 427.694 0 411.125L0 41.665Z" fill="url(#paint1_linear_1_34661)" fill-opacity="0.4"/>
<path d="M0 41.665C0 25.6778 12.5372 12.4993 28.5045 11.7023L262.734 0.0117126C269.99 -0.350433 274.504 7.7729 270.365 13.7432C265.484 20.7825 272.574 29.9186 280.604 26.9387L335.253 6.66081C352.937 0.0992136 371.744 13.1727 371.755 32.0342L371.982 411.107C371.992 427.683 358.558 441.125 341.982 441.125H30C13.4315 441.125 0 427.694 0 411.125L0 41.665Z" fill="url(#paint2_radial_1_34661)" fill-opacity="0.4"/>
</g>
<path d="M262.759 0.510742C269.6 0.169286 273.857 7.82876 269.954 13.458C264.795 20.8994 272.289 30.5573 280.778 27.4072L335.427 7.12988C352.784 0.689471 371.244 13.521 371.255 32.0342L371.482 411.107C371.492 427.407 358.282 440.625 341.982 440.625H30C13.7076 440.625 0.5 427.417 0.5 411.125V41.665C0.5 25.9443 12.8281 12.9859 28.5293 12.2021L262.759 0.510742Z" stroke="url(#paint3_linear_1_34661)" stroke-opacity="0.5"/>
<path d="M262.759 0.510742C269.6 0.169286 273.857 7.82876 269.954 13.458C264.795 20.8994 272.289 30.5573 280.778 27.4072L335.427 7.12988C352.784 0.689471 371.244 13.521 371.255 32.0342L371.482 411.107C371.492 427.407 358.282 440.625 341.982 440.625H30C13.7076 440.625 0.5 427.417 0.5 411.125V41.665C0.5 25.9443 12.8281 12.9859 28.5293 12.2021L262.759 0.510742Z" stroke="#62B4FF"/>
<path d="M262.759 0.510742C269.6 0.169286 273.857 7.82876 269.954 13.458C264.795 20.8994 272.289 30.5573 280.778 27.4072L335.427 7.12988C352.784 0.689471 371.244 13.521 371.255 32.0342L371.482 411.107C371.492 427.407 358.282 440.625 341.982 440.625H30C13.7076 440.625 0.5 427.417 0.5 411.125V41.665C0.5 25.9443 12.8281 12.9859 28.5293 12.2021L262.759 0.510742Z" stroke="url(#paint4_linear_1_34661)"/>
<path d="M262.759 0.510742C269.6 0.169286 273.857 7.82876 269.954 13.458C264.795 20.8994 272.289 30.5573 280.778 27.4072L335.427 7.12988C352.784 0.689471 371.244 13.521 371.255 32.0342L371.482 411.107C371.492 427.407 358.282 440.625 341.982 440.625H30C13.7076 440.625 0.5 427.417 0.5 411.125V41.665C0.5 25.9443 12.8281 12.9859 28.5293 12.2021L262.759 0.510742Z" stroke="url(#paint5_linear_1_34661)" stroke-opacity="0.7"/>
<defs>
<filter id="filter0_i_1_34661" x="0" y="0" width="371.982" height="445.125" filterUnits="userSpaceOnUse" color-interpolation-filters="sRGB">
<feFlood flood-opacity="0" result="BackgroundImageFix"/>
<feBlend mode="normal" in="SourceGraphic" in2="BackgroundImageFix" result="shape"/>
<feColorMatrix in="SourceAlpha" type="matrix" values="0 0 0 0 0 0 0 0 0 0 0 0 0 0 0 0 0 0 127 0" result="hardAlpha"/>
<feOffset dy="4"/>
<feGaussianBlur stdDeviation="2"/>
<feComposite in2="hardAlpha" operator="arithmetic" k2="-1" k3="1"/>
<feColorMatrix type="matrix" values="0 0 0 0 1 0 0 0 0 1 0 0 0 0 1 0 0 0 0.5 0"/>
<feBlend mode="normal" in2="shape" result="effect1_innerShadow_1_34661"/>
</filter>
<linearGradient id="paint0_linear_1_34661" x1="186" y1="193.125" x2="186" y2="-49.875" gradientUnits="userSpaceOnUse">
<stop stop-color="white"/>
<stop offset="1" stop-color="white" stop-opacity="0"/>
</linearGradient>
<linearGradient id="paint1_linear_1_34661" x1="225.857" y1="438.125" x2="225.857" y2="383.125" gradientUnits="userSpaceOnUse">
<stop stop-color="#FCEE93" stop-opacity="0.6"/>
<stop offset="1" stop-color="white" stop-opacity="0"/>
</linearGradient>
<radialGradient id="paint2_radial_1_34661" cx="0" cy="0" r="1" gradientUnits="userSpaceOnUse" gradientTransform="translate(349 14.125) rotate(136.364) scale(89.1207 100.195)">
<stop stop-color="#FCEE93" stop-opacity="0.6"/>
<stop offset="1" stop-color="white" stop-opacity="0"/>
</radialGradient>
<linearGradient id="paint3_linear_1_34661" x1="186" y1="6.12499" x2="186" y2="38.0381" gradientUnits="userSpaceOnUse">
<stop stop-color="white"/>
<stop offset="1" stop-color="white" stop-opacity="0"/>
</linearGradient>
<linearGradient id="paint4_linear_1_34661" x1="18.3032" y1="6.125" x2="371.856" y2="219.301" gradientUnits="userSpaceOnUse">
<stop stop-color="white" stop-opacity="0.9"/>
<stop offset="0.300626" stop-color="white" stop-opacity="0.8"/>
<stop offset="0.618497" stop-color="white" stop-opacity="0.8"/>
<stop offset="1" stop-color="white" stop-opacity="0.9"/>
</linearGradient>
<linearGradient id="paint5_linear_1_34661" x1="186" y1="6.125" x2="186" y2="193.125" gradientUnits="userSpaceOnUse">
<stop stop-color="white"/>
<stop offset="1" stop-color="white" stop-opacity="0"/>
</linearGradient>
</defs>
</svg>
