<svg width="8" height="8" viewBox="0 0 8 8" fill="none" xmlns="http://www.w3.org/2000/svg">
<path d="M3.7645 0.145134C3.69595 -0.048303 3.42239 -0.0483032 3.35385 0.145134L2.74557 1.86183C2.5993 2.27462 2.27456 2.59936 1.86177 2.74563L0.145072 3.35391C-0.0483651 3.42245 -0.0483656 3.69602 0.145072 3.76456L1.86177 4.37284C2.27456 4.51911 2.5993 4.84385 2.74557 5.25664L3.35385 6.97334C3.42239 7.16677 3.69595 7.16677 3.7645 6.97334L4.37278 5.25664C4.51904 4.84385 4.84379 4.51911 5.25658 4.37284L6.97327 3.76456C7.16671 3.69602 7.16671 3.42245 6.97327 3.35391L5.25658 2.74563C4.84379 2.59936 4.51904 2.27462 4.37278 1.86183L3.7645 0.145134Z" fill="#807AFF"/>
<path d="M3.7645 0.145134C3.69595 -0.048303 3.42239 -0.0483032 3.35385 0.145134L2.74557 1.86183C2.5993 2.27462 2.27456 2.59936 1.86177 2.74563L0.145072 3.35391C-0.0483651 3.42245 -0.0483656 3.69602 0.145072 3.76456L1.86177 4.37284C2.27456 4.51911 2.5993 4.84385 2.74557 5.25664L3.35385 6.97334C3.42239 7.16677 3.69595 7.16677 3.7645 6.97334L4.37278 5.25664C4.51904 4.84385 4.84379 4.51911 5.25658 4.37284L6.97327 3.76456C7.16671 3.69602 7.16671 3.42245 6.97327 3.35391L5.25658 2.74563C4.84379 2.59936 4.51904 2.27462 4.37278 1.86183L3.7645 0.145134Z" fill="url(#paint0_linear_1_37666)" fill-opacity="0.6"/>
<defs>
<linearGradient id="paint0_linear_1_37666" x1="3.55917" y1="-0.434326" x2="3.55917" y2="7.5528" gradientUnits="userSpaceOnUse">
<stop stop-color="white"/>
<stop offset="1" stop-color="white" stop-opacity="0.7"/>
</linearGradient>
</defs>
</svg>
