<svg width="17" height="17" viewBox="0 0 17 17" fill="none" xmlns="http://www.w3.org/2000/svg">
<path d="M7.93516 0.343164C8.09733 -0.114506 8.74457 -0.114507 8.90674 0.343164L10.3459 4.40485C10.692 5.38151 11.4603 6.14984 12.437 6.4959L16.4987 7.9351C16.9563 8.09726 16.9563 8.74451 16.4987 8.90668L12.437 10.3459C11.4603 10.6919 10.692 11.4603 10.3459 12.4369L8.90674 16.4986C8.74457 16.9563 8.09733 16.9563 7.93516 16.4986L6.49597 12.4369C6.1499 11.4603 5.38157 10.6919 4.40491 10.3459L0.343225 8.90668C-0.114445 8.74451 -0.114446 8.09726 0.343225 7.9351L4.40491 6.4959C5.38157 6.14984 6.1499 5.38151 6.49597 4.40485L7.93516 0.343164Z" fill="#62B4FF"/>
<path d="M7.93516 0.343164C8.09733 -0.114506 8.74457 -0.114507 8.90674 0.343164L10.3459 4.40485C10.692 5.38151 11.4603 6.14984 12.437 6.4959L16.4987 7.9351C16.9563 8.09726 16.9563 8.74451 16.4987 8.90668L12.437 10.3459C11.4603 10.6919 10.692 11.4603 10.3459 12.4369L8.90674 16.4986C8.74457 16.9563 8.09733 16.9563 7.93516 16.4986L6.49597 12.4369C6.1499 11.4603 5.38157 10.6919 4.40491 10.3459L0.343225 8.90668C-0.114445 8.74451 -0.114446 8.09726 0.343225 7.9351L4.40491 6.4959C5.38157 6.14984 6.1499 5.38151 6.49597 4.40485L7.93516 0.343164Z" fill="url(#paint0_linear_1_34683)" fill-opacity="0.8"/>
<defs>
<linearGradient id="paint0_linear_1_34683" x1="8.42095" y1="-1.02783" x2="8.42095" y2="17.8696" gradientUnits="userSpaceOnUse">
<stop stop-color="white"/>
<stop offset="1" stop-color="white" stop-opacity="0.7"/>
</linearGradient>
</defs>
</svg>
