<svg width="8" height="8" viewBox="0 0 8 8" fill="none" xmlns="http://www.w3.org/2000/svg">
<path d="M3.63198 0.157053C3.70621 -0.0524248 4.00246 -0.0524249 4.07668 0.157053L4.73541 2.01611C4.8938 2.46313 5.24547 2.8148 5.69249 2.9732L7.55155 3.63192C7.76103 3.70615 7.76103 4.00239 7.55155 4.07662L5.69249 4.73535C5.24547 4.89374 4.8938 5.24541 4.73541 5.69243L4.07668 7.55149C4.00246 7.76097 3.70621 7.76097 3.63198 7.55149L2.97326 5.69243C2.81486 5.24541 2.46319 4.89374 2.01617 4.73535L0.157114 4.07662C-0.0523638 4.00239 -0.0523639 3.70615 0.157114 3.63192L2.01617 2.9732C2.46319 2.8148 2.81486 2.46313 2.97326 2.01611L3.63198 0.157053Z" fill="#62B4FF"/>
<path d="M3.63198 0.157053C3.70621 -0.0524248 4.00246 -0.0524249 4.07668 0.157053L4.73541 2.01611C4.8938 2.46313 5.24547 2.8148 5.69249 2.9732L7.55155 3.63192C7.76103 3.70615 7.76103 4.00239 7.55155 4.07662L5.69249 4.73535C5.24547 4.89374 4.8938 5.24541 4.73541 5.69243L4.07668 7.55149C4.00246 7.76097 3.70621 7.76097 3.63198 7.55149L2.97326 5.69243C2.81486 5.24541 2.46319 4.89374 2.01617 4.73535L0.157114 4.07662C-0.0523638 4.00239 -0.0523639 3.70615 0.157114 3.63192L2.01617 2.9732C2.46319 2.8148 2.81486 2.46313 2.97326 2.01611L3.63198 0.157053Z" fill="url(#paint0_linear_1_34684)" fill-opacity="0.5"/>
<defs>
<linearGradient id="paint0_linear_1_34684" x1="3.85433" y1="-0.470459" x2="3.85433" y2="8.179" gradientUnits="userSpaceOnUse">
<stop stop-color="white"/>
<stop offset="1" stop-color="white" stop-opacity="0.7"/>
</linearGradient>
</defs>
</svg>
