<svg width="219" height="93" viewBox="0 0 219 93" fill="none" xmlns="http://www.w3.org/2000/svg">
<path d="M31.1699 18.2422H48.4209V37.0801H31.1699V55.9189H48.4209V74.7578H31.1699V93H13.9062V74.7578H1.12695L0.750977 55.9189H13.9062V37.0801H0.375977L0 18.2422H13.9062V0H31.1699V18.2422ZM82.9307 74.7568H65.6768V93H48.4258V74.7578H65.6768V55.9189H82.9307V74.7568ZM100.187 18.2412H117.442V0H134.706V18.2412H151.962V0H169.219V18.2422H186.472V37.0801H169.219V55.9189H186.472V74.7578H169.219V93H151.962V74.7568H134.706V93H117.442V74.7568H100.187V93H82.9326V74.7578H100.187V55.9189H82.9326V37.0801H100.187V18.2412H82.9326V0H100.187V18.2412ZM203.726 93H186.476V74.7578H203.726V93ZM13.9072 74.7578H31.1631V55.9189H13.9072V74.7578ZM117.445 74.7578H134.701V55.9189H117.445V74.7578ZM151.962 74.7578H169.218V55.9189H151.962V74.7578ZM218.49 74.7568H203.728V55.9189H218.49V74.7568ZM82.9307 37.0801H65.6768V55.9189H48.4258V37.0801H65.6768V18.2412H82.9307V37.0801ZM100.187 55.9189H117.442V37.0801H100.187V55.9189ZM134.706 55.9189H151.962V37.0801H134.706V55.9189ZM203.726 55.9189H186.476V37.0801H203.726V55.9189ZM13.9072 37.0801H31.1631V18.2412H13.9072V37.0801ZM117.445 37.0801H134.701V18.2412H117.445V37.0801ZM151.962 37.0801H169.218V18.2412H151.962V37.0801ZM218.49 37.0801H203.728V18.2412H218.49V37.0801ZM65.6768 18.2412H48.4258V0H65.6768V18.2412ZM203.726 18.2412H186.476V0H203.726V18.2412Z" fill="url(#paint0_linear_1_32697)" fill-opacity="0.3"/>
<defs>
<linearGradient id="paint0_linear_1_32697" x1="248.592" y1="38.2452" x2="0.00294601" y2="46.5878" gradientUnits="userSpaceOnUse">
<stop offset="0.165588" stop-color="white"/>
<stop offset="1" stop-color="white" stop-opacity="0"/>
</linearGradient>
</defs>
</svg>
