<svg width="195" height="123" viewBox="0 0 195 123" fill="none" xmlns="http://www.w3.org/2000/svg">
<path d="M71.5892 6.86518C57.6381 -6.00989 35.0302 0.0479149 29.3856 18.1736L16.1384 60.7159C14.088 67.3002 9.49049 72.7917 3.36986 75.9691L-35.6778 96.2407C-53.3214 105.4 -54.4505 130.218 -37.7112 140.94L-3.25046 163.015C2.85965 166.929 7.04286 173.231 8.2769 180.382L15.2927 221.035C18.5807 240.086 40.8557 248.914 56.302 237.289L93.2536 209.477C98.5971 205.456 105.291 203.662 111.93 204.473L157.836 210.082C177.026 212.427 191.903 193.644 185.225 175.502L170.974 136.787C168.467 129.978 168.939 122.428 172.274 115.983L191.08 79.636C200.215 61.9801 186.829 41.0519 166.969 41.9416L123.017 43.9096C116.128 44.2183 109.401 41.7613 104.333 37.0843L71.5892 6.86518ZM95.9328 67.1955C99.9004 66.1324 103.979 68.4879 105.042 72.4556L112.188 99.1261C113.251 103.094 110.897 107.172 106.929 108.235C102.962 109.298 98.8835 106.943 97.8203 102.976L90.6739 76.3055C89.6108 72.3379 91.9653 68.2587 95.9328 67.1955ZM52.8196 78.7466C56.7872 77.6835 60.8655 80.0382 61.9286 84.0057L69.075 110.676C70.1381 114.644 67.7835 118.722 63.8159 119.785C59.8483 120.848 55.7699 118.494 54.7068 114.526L47.5605 87.8557C46.4975 83.8881 48.8521 79.8099 52.8196 78.7466Z" fill="white" fill-opacity="0.4"/>
</svg>
