<svg width="194" height="123" viewBox="0 0 194 123" fill="none" xmlns="http://www.w3.org/2000/svg">
<path d="M71.5887 6.86505C57.6376 -6.00977 35.0307 0.0477798 29.3861 18.1732L16.1379 60.7158C14.0874 67.2999 9.4907 72.7914 3.37029 75.9687L-35.6783 96.2406C-53.3218 105.4 -54.4501 130.217 -37.7107 140.94L-3.25098 163.015C2.85914 166.929 7.04329 173.231 8.27732 180.381L15.2931 221.035C18.5811 240.085 40.8552 248.914 56.3015 237.288L93.2531 209.477C98.5964 205.456 105.291 203.662 111.929 204.473L157.837 210.082C177.026 212.427 191.902 193.644 185.224 175.502L170.974 136.787C168.467 129.978 168.939 122.428 172.273 115.983L191.079 79.6349C200.215 61.979 186.829 41.0506 166.97 41.9402L123.017 43.9095C116.128 44.2181 109.401 41.7607 104.333 37.0839L71.5887 6.86505ZM95.9332 67.1951C99.9007 66.1322 103.979 68.4869 105.042 72.4542L112.189 99.1257C113.252 103.093 110.897 107.172 106.93 108.235C102.962 109.298 98.884 106.943 97.8207 102.976L90.6741 76.3042C89.6113 72.3366 91.9657 68.2582 95.9332 67.1951ZM52.82 78.7463C56.7876 77.6833 60.8659 80.0378 61.9291 84.0054L69.0754 110.676C70.1385 114.643 67.7838 118.722 63.8163 119.785C59.8486 120.848 55.7704 118.493 54.7073 114.526L47.5609 87.8553C46.4978 83.8877 48.8524 79.8094 52.82 78.7463Z" fill="white" fill-opacity="0.4"/>
</svg>
