<svg width="80" height="11" viewBox="0 0 80 11" fill="none" xmlns="http://www.w3.org/2000/svg">
<mask id="path-1-outside-1_1_36126" maskUnits="userSpaceOnUse" x="-0.918423" y="-2.58182" width="80.5298" height="15.9616" fill="black">
<rect fill="white" x="-0.918423" y="-2.58182" width="80.5298" height="15.9616"/>
<path d="M24.1219 1.84036C25.1214 1.778 25.9337 2.00352 26.5343 2.59978C27.0671 3.12902 27.3063 3.84522 27.4762 4.36583C27.8464 5.50042 28.1095 6.45797 29.3364 7.14306C30.6547 7.87909 33.2491 8.37282 38.5888 7.69282C43.8892 7.01778 51.728 5.21078 63.3865 1.55527L63.4018 1.5504L63.4172 1.5465C65.9491 0.841705 72.3498 -0.224425 77.8051 1.21119C78.3392 1.35181 78.6579 1.89882 78.5174 2.43287C78.3768 2.96669 77.8306 3.28617 77.2967 3.14603C72.3369 1.84073 66.3454 2.80894 63.9677 3.4681C52.2734 7.13423 44.3099 8.98058 38.8408 9.67707C33.4091 10.3688 30.2658 9.95236 28.3612 8.88883C26.3651 7.77417 25.9189 6.04135 25.5746 4.98646C25.3873 4.41266 25.267 4.1597 25.1248 4.01846C25.0499 3.94415 24.8695 3.79765 24.2465 3.83648C21.9951 3.97705 20.5088 4.55545 17.4199 5.62649C14.3459 6.6924 9.84659 8.17938 1.72079 10.0211C1.18233 10.1429 0.647131 9.80538 0.525014 9.26695C0.403057 8.72844 0.740622 8.19234 1.27908 8.0702C9.31976 6.24777 13.7462 4.78229 16.7638 3.73596C19.7662 2.69491 21.539 2.00159 24.1219 1.84036Z"/>
</mask>
<path d="M24.1219 1.84036C25.1214 1.778 25.9337 2.00352 26.5343 2.59978C27.0671 3.12902 27.3063 3.84522 27.4762 4.36583C27.8464 5.50042 28.1095 6.45797 29.3364 7.14306C30.6547 7.87909 33.2491 8.37282 38.5888 7.69282C43.8892 7.01778 51.728 5.21078 63.3865 1.55527L63.4018 1.5504L63.4172 1.5465C65.9491 0.841705 72.3498 -0.224425 77.8051 1.21119C78.3392 1.35181 78.6579 1.89882 78.5174 2.43287C78.3768 2.96669 77.8306 3.28617 77.2967 3.14603C72.3369 1.84073 66.3454 2.80894 63.9677 3.4681C52.2734 7.13423 44.3099 8.98058 38.8408 9.67707C33.4091 10.3688 30.2658 9.95236 28.3612 8.88883C26.3651 7.77417 25.9189 6.04135 25.5746 4.98646C25.3873 4.41266 25.267 4.1597 25.1248 4.01846C25.0499 3.94415 24.8695 3.79765 24.2465 3.83648C21.9951 3.97705 20.5088 4.55545 17.4199 5.62649C14.3459 6.6924 9.84659 8.17938 1.72079 10.0211C1.18233 10.1429 0.647131 9.80538 0.525014 9.26695C0.403057 8.72844 0.740622 8.19234 1.27908 8.0702C9.31976 6.24777 13.7462 4.78229 16.7638 3.73596C19.7662 2.69491 21.539 2.00159 24.1219 1.84036Z" fill="#985DE9"/>
<path d="M24.1219 1.84036C25.1214 1.778 25.9337 2.00352 26.5343 2.59978C27.0671 3.12902 27.3063 3.84522 27.4762 4.36583C27.8464 5.50042 28.1095 6.45797 29.3364 7.14306C30.6547 7.87909 33.2491 8.37282 38.5888 7.69282C43.8892 7.01778 51.728 5.21078 63.3865 1.55527L63.4018 1.5504L63.4172 1.5465C65.9491 0.841705 72.3498 -0.224425 77.8051 1.21119C78.3392 1.35181 78.6579 1.89882 78.5174 2.43287C78.3768 2.96669 77.8306 3.28617 77.2967 3.14603C72.3369 1.84073 66.3454 2.80894 63.9677 3.4681C52.2734 7.13423 44.3099 8.98058 38.8408 9.67707C33.4091 10.3688 30.2658 9.95236 28.3612 8.88883C26.3651 7.77417 25.9189 6.04135 25.5746 4.98646C25.3873 4.41266 25.267 4.1597 25.1248 4.01846C25.0499 3.94415 24.8695 3.79765 24.2465 3.83648C21.9951 3.97705 20.5088 4.55545 17.4199 5.62649C14.3459 6.6924 9.84659 8.17938 1.72079 10.0211C1.18233 10.1429 0.647131 9.80538 0.525014 9.26695C0.403057 8.72844 0.740622 8.19234 1.27908 8.0702C9.31976 6.24777 13.7462 4.78229 16.7638 3.73596C19.7662 2.69491 21.539 2.00159 24.1219 1.84036Z" fill="url(#paint0_linear_1_36126)"/>
<path d="M24.1219 1.84036L24.0908 1.34134L24.0908 1.34134L24.1219 1.84036ZM26.5343 2.59978L26.8866 2.24504L26.8866 2.24497L26.5343 2.59978ZM27.4762 4.36583L27.9515 4.21071L27.9515 4.21071L27.4762 4.36583ZM29.3364 7.14306L29.0926 7.5796L29.0926 7.57963L29.3364 7.14306ZM38.5888 7.69282L38.6519 8.18881L38.6519 8.18881L38.5888 7.69282ZM63.3865 1.55527L63.5361 2.03237L63.5377 2.03185L63.3865 1.55527ZM63.4018 1.5504L63.2792 1.06566L63.2648 1.06931L63.2506 1.07382L63.4018 1.5504ZM63.4172 1.5465L63.5398 2.03138L63.5513 2.02819L63.4172 1.5465ZM77.8051 1.21119L77.9324 0.727675L77.9324 0.727657L77.8051 1.21119ZM78.5174 2.43287L79.0009 2.56019L79.0009 2.56012L78.5174 2.43287ZM77.2967 3.14603L77.1695 3.62957L77.1698 3.62965L77.2967 3.14603ZM63.9677 3.4681L63.8341 2.98627L63.8261 2.9885L63.8181 2.99099L63.9677 3.4681ZM38.8408 9.67707L38.9039 10.1731L38.9039 10.1731L38.8408 9.67707ZM28.3612 8.88883L28.1174 9.32538L28.1174 9.32538L28.3612 8.88883ZM25.5746 4.98646L26.0499 4.83134L26.0499 4.83133L25.5746 4.98646ZM25.1248 4.01846L25.4771 3.66371L25.4769 3.66349L25.1248 4.01846ZM24.2465 3.83648L24.2154 3.33745L24.2153 3.33745L24.2465 3.83648ZM17.4199 5.62649L17.5837 6.0989L17.5837 6.0989L17.4199 5.62649ZM1.72079 10.0211L1.83116 10.5087L1.83131 10.5087L1.72079 10.0211ZM0.525014 9.26695L0.0373633 9.37739L0.0373979 9.37754L0.525014 9.26695ZM1.27908 8.0702L1.16856 7.58256L1.16848 7.58258L1.27908 8.0702ZM16.7638 3.73596L16.9276 4.20836L16.9276 4.20836L16.7638 3.73596ZM24.1219 1.84036L24.1531 2.33939C25.0594 2.28284 25.7133 2.48924 26.182 2.9546L26.5343 2.59978L26.8866 2.24497C26.1542 1.51779 25.1834 1.27316 24.0908 1.34134L24.1219 1.84036ZM26.5343 2.59978L26.1819 2.95453C26.6178 3.38749 26.8275 3.98968 27.0008 4.52096L27.4762 4.36583L27.9515 4.21071C27.7851 3.70076 27.5163 2.87055 26.8866 2.24504L26.5343 2.59978ZM27.4762 4.36583L27.0008 4.52096C27.3639 5.63345 27.6727 6.78669 29.0926 7.5796L29.3364 7.14306L29.5801 6.70651C28.5464 6.12925 28.329 5.3674 27.9515 4.21071L27.4762 4.36583ZM29.3364 7.14306L29.0926 7.57963C30.5576 8.39751 33.2894 8.87173 38.6519 8.18881L38.5888 7.69282L38.5256 7.19682C33.2088 7.87392 30.7519 7.36066 29.5801 6.70648L29.3364 7.14306ZM38.5888 7.69282L38.6519 8.18881C43.9952 7.50831 51.8664 5.69139 63.5361 2.03237L63.3865 1.55527L63.2369 1.07817C51.5896 4.73018 43.7831 6.52724 38.5256 7.19683L38.5888 7.69282ZM63.3865 1.55527L63.5377 2.03185L63.5531 2.02698L63.4018 1.5504L63.2506 1.07382L63.2352 1.0787L63.3865 1.55527ZM63.4018 1.5504L63.5244 2.03514L63.5398 2.03124L63.4172 1.5465L63.2947 1.06176L63.2792 1.06566L63.4018 1.5504ZM63.4172 1.5465L63.5513 2.02819C66.0422 1.33478 72.344 0.291076 77.6779 1.69473L77.8051 1.21119L77.9324 0.727657C72.3555 -0.739927 65.8559 0.348633 63.2831 1.06482L63.4172 1.5465ZM77.8051 1.21119L77.6778 1.69471C77.9446 1.76496 78.1042 2.03838 78.0338 2.30563L78.5174 2.43287L79.0009 2.56012C79.2117 1.75926 78.7337 0.938652 77.9324 0.727675L77.8051 1.21119ZM78.5174 2.43287L78.0339 2.30556C77.9634 2.57301 77.6901 2.73234 77.4237 2.66242L77.2967 3.14603L77.1698 3.62965C77.9711 3.83999 78.7902 3.36037 79.0009 2.56019L78.5174 2.43287ZM77.2967 3.14603L77.424 2.6625C72.3429 1.32529 66.2526 2.3158 63.8341 2.98627L63.9677 3.4681L64.1012 3.94992C66.4381 3.30208 72.3308 2.35617 77.1695 3.62957L77.2967 3.14603ZM63.9677 3.4681L63.8181 2.99099C52.1349 6.65363 44.2039 8.49004 38.7776 9.18107L38.8408 9.67707L38.9039 10.1731C44.416 9.47111 52.4118 7.61483 64.1172 3.9452L63.9677 3.4681ZM38.8408 9.67707L38.7776 9.18107C33.3691 9.86983 30.3631 9.434 28.6049 8.45227L28.3612 8.88883L28.1174 9.32538C30.1686 10.4707 33.4491 10.8677 38.9039 10.1731L38.8408 9.67707ZM28.3612 8.88883L28.605 8.45228C26.8006 7.4447 26.4002 5.90457 26.0499 4.83134L25.5746 4.98646L25.0993 5.14158C25.4376 6.17814 25.9296 8.10365 28.1174 9.32538L28.3612 8.88883ZM25.5746 4.98646L26.0499 4.83133C25.8684 4.27504 25.7181 3.90308 25.4771 3.66371L25.1248 4.01846L24.7724 4.3732C24.7864 4.38706 24.8221 4.42835 24.8798 4.55183C24.938 4.67658 25.0075 4.86036 25.0993 5.14159L25.5746 4.98646ZM25.1248 4.01846L25.4769 3.66349C25.3946 3.58186 25.2635 3.47706 25.0394 3.4075C24.8311 3.34288 24.5653 3.31564 24.2154 3.33745L24.2465 3.83648L24.2776 4.33551C24.5507 4.31849 24.6866 4.34509 24.743 4.36258C24.7694 4.37076 24.7778 4.37678 24.7758 4.37545C24.7727 4.3735 24.7697 4.37051 24.7726 4.37342L25.1248 4.01846ZM24.2465 3.83648L24.2153 3.33745C21.881 3.4832 20.3226 4.0908 17.2561 5.15408L17.4199 5.62649L17.5837 6.0989C20.695 5.0201 22.1093 4.47089 24.2777 4.33551L24.2465 3.83648ZM17.4199 5.62649L17.2561 5.15408C14.1962 6.21509 9.71491 7.69654 1.61027 9.53345L1.72079 10.0211L1.83131 10.5087C9.97826 8.66221 14.4955 7.16971 17.5837 6.0989L17.4199 5.62649ZM1.72079 10.0211L1.61043 9.53341C1.34127 9.59433 1.0737 9.42564 1.01263 9.15636L0.525014 9.26695L0.0373979 9.37754C0.220559 10.1851 1.02338 10.6916 1.83116 10.5087L1.72079 10.0211ZM0.525014 9.26695L1.01266 9.15651C0.951614 8.88694 1.12079 8.61881 1.38969 8.55781L1.27908 8.0702L1.16848 7.58258C0.360458 7.76587 -0.1455 8.56995 0.0373633 9.37739L0.525014 9.26695ZM1.27908 8.0702L1.38961 8.55783C9.45149 6.7306 13.8959 5.25958 16.9276 4.20836L16.7638 3.73596L16.6 3.26355C13.5965 4.305 9.18804 5.76495 1.16856 7.58256L1.27908 8.0702ZM16.7638 3.73596L16.9276 4.20836C19.9511 3.16 21.6528 2.49546 24.1531 2.33939L24.1219 1.84036L24.0908 1.34134C21.4252 1.50772 19.5813 2.22982 16.6 3.26355L16.7638 3.73596Z" fill="white" mask="url(#path-1-outside-1_1_36126)"/>
<defs>
<linearGradient id="paint0_linear_1_36126" x1="-25.2654" y1="9.10239" x2="139.463" y2="-7.36134" gradientUnits="userSpaceOnUse">
<stop stop-color="white"/>
<stop offset="1" stop-color="white" stop-opacity="0"/>
</linearGradient>
</defs>
</svg>
