<svg width="80" height="11" viewBox="0 0 80 11" fill="none" xmlns="http://www.w3.org/2000/svg">
<mask id="path-1-outside-1_1_37667" maskUnits="userSpaceOnUse" x="-0.918439" y="-2.58158" width="80.5298" height="15.9616" fill="black">
<rect fill="white" x="-0.918439" y="-2.58158" width="80.5298" height="15.9616"/>
<path d="M24.1219 1.84061C25.1214 1.77826 25.9338 2.00378 26.5343 2.60003C27.067 3.12927 27.3063 3.84547 27.4762 4.36608C27.8464 5.50057 28.1088 6.45828 29.3354 7.14336C30.6537 7.87949 33.2486 8.37313 38.5888 7.69306C43.8892 7.01801 51.7281 5.21101 63.3865 1.55551L63.4018 1.55064L63.4163 1.54681C65.9479 0.842009 72.3495 -0.224241 77.8051 1.21144C78.3391 1.35208 78.6579 1.89909 78.5174 2.43312C78.3768 2.96692 77.8306 3.28636 77.2967 3.14627C72.3369 1.84099 66.3454 2.80918 63.9677 3.46834C52.2734 7.13447 44.3099 8.98082 38.8408 9.67731C33.4091 10.369 30.2659 9.95258 28.3612 8.88907C26.3651 7.77442 25.9189 6.0416 25.5746 4.9867C25.3874 4.41295 25.267 4.15995 25.1248 4.0187C25.0499 3.94439 24.8695 3.79789 24.2465 3.83672C21.9951 3.97728 20.5088 4.5557 17.4199 5.62673C14.3459 6.69264 9.84659 8.17962 1.72079 10.0213C1.1823 10.1432 0.647145 9.80564 0.525015 9.26719C0.403087 8.72881 0.73987 8.19281 1.27811 8.0705C9.3191 6.24802 13.7461 4.78255 16.7638 3.7362C19.7661 2.69516 21.539 2.00184 24.1219 1.84061Z"/>
</mask>
<path d="M24.1219 1.84061C25.1214 1.77826 25.9338 2.00378 26.5343 2.60003C27.067 3.12927 27.3063 3.84547 27.4762 4.36608C27.8464 5.50057 28.1088 6.45828 29.3354 7.14336C30.6537 7.87949 33.2486 8.37313 38.5888 7.69306C43.8892 7.01801 51.7281 5.21101 63.3865 1.55551L63.4018 1.55064L63.4163 1.54681C65.9479 0.842009 72.3495 -0.224241 77.8051 1.21144C78.3391 1.35208 78.6579 1.89909 78.5174 2.43312C78.3768 2.96692 77.8306 3.28636 77.2967 3.14627C72.3369 1.84099 66.3454 2.80918 63.9677 3.46834C52.2734 7.13447 44.3099 8.98082 38.8408 9.67731C33.4091 10.369 30.2659 9.95258 28.3612 8.88907C26.3651 7.77442 25.9189 6.0416 25.5746 4.9867C25.3874 4.41295 25.267 4.15995 25.1248 4.0187C25.0499 3.94439 24.8695 3.79789 24.2465 3.83672C21.9951 3.97728 20.5088 4.5557 17.4199 5.62673C14.3459 6.69264 9.84659 8.17962 1.72079 10.0213C1.1823 10.1432 0.647145 9.80564 0.525015 9.26719C0.403087 8.72881 0.73987 8.19281 1.27811 8.0705C9.3191 6.24802 13.7461 4.78255 16.7638 3.7362C19.7661 2.69516 21.539 2.00184 24.1219 1.84061Z" fill="#807AFF"/>
<path d="M24.1219 1.84061C25.1214 1.77826 25.9338 2.00378 26.5343 2.60003C27.067 3.12927 27.3063 3.84547 27.4762 4.36608C27.8464 5.50057 28.1088 6.45828 29.3354 7.14336C30.6537 7.87949 33.2486 8.37313 38.5888 7.69306C43.8892 7.01801 51.7281 5.21101 63.3865 1.55551L63.4018 1.55064L63.4163 1.54681C65.9479 0.842009 72.3495 -0.224241 77.8051 1.21144C78.3391 1.35208 78.6579 1.89909 78.5174 2.43312C78.3768 2.96692 77.8306 3.28636 77.2967 3.14627C72.3369 1.84099 66.3454 2.80918 63.9677 3.46834C52.2734 7.13447 44.3099 8.98082 38.8408 9.67731C33.4091 10.369 30.2659 9.95258 28.3612 8.88907C26.3651 7.77442 25.9189 6.0416 25.5746 4.9867C25.3874 4.41295 25.267 4.15995 25.1248 4.0187C25.0499 3.94439 24.8695 3.79789 24.2465 3.83672C21.9951 3.97728 20.5088 4.5557 17.4199 5.62673C14.3459 6.69264 9.84659 8.17962 1.72079 10.0213C1.1823 10.1432 0.647145 9.80564 0.525015 9.26719C0.403087 8.72881 0.73987 8.19281 1.27811 8.0705C9.3191 6.24802 13.7461 4.78255 16.7638 3.7362C19.7661 2.69516 21.539 2.00184 24.1219 1.84061Z" fill="url(#paint0_linear_1_37667)"/>
<path d="M24.1219 1.84061L24.0908 1.34158L24.0908 1.34158L24.1219 1.84061ZM26.5343 2.60003L26.8866 2.2453L26.8866 2.24522L26.5343 2.60003ZM27.4762 4.36608L27.9515 4.21096L27.9515 4.21095L27.4762 4.36608ZM29.3354 7.14336L29.0916 7.57989L29.0916 7.57991L29.3354 7.14336ZM38.5888 7.69306L38.6519 8.18906L38.6519 8.18906L38.5888 7.69306ZM63.3865 1.55551L63.5361 2.03261L63.5377 2.03209L63.3865 1.55551ZM63.4018 1.55064L63.2734 1.06741L63.2619 1.07047L63.2506 1.07407L63.4018 1.55064ZM63.4163 1.54681L63.5447 2.03007L63.5504 2.02849L63.4163 1.54681ZM77.8051 1.21144L77.9325 0.727928L77.9324 0.7279L77.8051 1.21144ZM78.5174 2.43312L79.0009 2.56042L79.0009 2.56036L78.5174 2.43312ZM77.2967 3.14627L77.1695 3.62981L77.1698 3.6299L77.2967 3.14627ZM63.9677 3.46834L63.8341 2.98651L63.8261 2.98874L63.8181 2.99123L63.9677 3.46834ZM38.8408 9.67731L38.9039 10.1733V10.1733L38.8408 9.67731ZM28.3612 8.88907L28.1174 9.32562L28.1174 9.32563L28.3612 8.88907ZM25.5746 4.9867L26.0499 4.83158L26.0499 4.83157L25.5746 4.9867ZM25.1248 4.0187L25.4772 3.66399L25.4769 3.66374L25.1248 4.0187ZM24.2465 3.83672L24.2154 3.33769L24.2153 3.3377L24.2465 3.83672ZM17.4199 5.62673L17.5837 6.09914L17.5837 6.09914L17.4199 5.62673ZM1.72079 10.0213L1.8312 10.509L1.83132 10.509L1.72079 10.0213ZM0.525015 9.26719L0.0373643 9.37763L0.0374005 9.37779L0.525015 9.26719ZM1.27811 8.0705L1.16759 7.58287L1.16731 7.58293L1.27811 8.0705ZM16.7638 3.7362L16.9276 4.20861L16.9276 4.20861L16.7638 3.7362ZM24.1219 1.84061L24.1531 2.33964C25.0594 2.2831 25.7133 2.4895 26.182 2.95484L26.5343 2.60003L26.8866 2.24522C26.1542 1.51805 25.1833 1.27342 24.0908 1.34158L24.1219 1.84061ZM26.5343 2.60003L26.1819 2.95476C26.6178 3.38774 26.8275 3.98994 27.0008 4.5212L27.4762 4.36608L27.9515 4.21095C27.7851 3.70101 27.5163 2.8708 26.8866 2.2453L26.5343 2.60003ZM27.4762 4.36608L27.0008 4.5212C27.3638 5.63328 27.6718 6.78692 29.0916 7.57989L29.3354 7.14336L29.5792 6.70683C28.5458 6.12965 28.3291 5.36786 27.9515 4.21096L27.4762 4.36608ZM29.3354 7.14336L29.0916 7.57991C30.5566 8.39794 33.289 8.87202 38.6519 8.18906L38.5888 7.69306L38.5256 7.19707C33.2083 7.87423 30.7508 7.36105 29.5792 6.70681L29.3354 7.14336ZM38.5888 7.69306L38.6519 8.18906C43.9952 7.50855 51.8665 5.69161 63.5361 2.03261L63.3865 1.55551L63.2369 1.07842C51.5897 4.7304 43.7831 6.52748 38.5256 7.19707L38.5888 7.69306ZM63.3865 1.55551L63.5377 2.03209L63.5531 2.02722L63.4018 1.55064L63.2506 1.07407L63.2352 1.07894L63.3865 1.55551ZM63.4018 1.55064L63.5302 2.03387L63.5447 2.03004L63.4163 1.54681L63.2878 1.06358L63.2734 1.06741L63.4018 1.55064ZM63.4163 1.54681L63.5504 2.02849C66.0411 1.33508 72.3438 0.29126 77.6779 1.69497L77.8051 1.21144L77.9324 0.7279C72.3553 -0.739742 65.8547 0.348937 63.2822 1.06512L63.4163 1.54681ZM77.8051 1.21144L77.6778 1.69495C77.9446 1.76522 78.1042 2.03869 78.0338 2.30588L78.5174 2.43312L79.0009 2.56036C79.2117 1.75949 78.7336 0.938943 77.9325 0.727928L77.8051 1.21144ZM78.5174 2.43312L78.0339 2.30581C77.9635 2.57319 77.6901 2.73256 77.4236 2.66265L77.2967 3.14627L77.1698 3.6299C77.9711 3.84015 78.7902 3.36064 79.0009 2.56042L78.5174 2.43312ZM77.2967 3.14627L77.424 2.66274C72.3429 1.32555 66.2527 2.31604 63.8341 2.98651L63.9677 3.46834L64.1012 3.95017C66.4382 3.30232 72.3309 2.35643 77.1695 3.62981L77.2967 3.14627ZM63.9677 3.46834L63.8181 2.99123C52.1349 6.65387 44.2039 8.49028 38.7776 9.18132L38.8408 9.67731L38.9039 10.1733C44.416 9.47135 52.4118 7.61507 64.1172 3.94544L63.9677 3.46834ZM38.8408 9.67731L38.7776 9.18132C33.3691 9.87008 30.3631 9.43423 28.6049 8.45252L28.3612 8.88907L28.1174 9.32563C30.1686 10.4709 33.4491 10.868 38.9039 10.1733L38.8408 9.67731ZM28.3612 8.88907L28.605 8.45252C26.8006 7.44494 26.4002 5.90481 26.0499 4.83158L25.5746 4.9867L25.0993 5.14182C25.4376 6.17838 25.9296 8.10389 28.1174 9.32562L28.3612 8.88907ZM25.5746 4.9867L26.0499 4.83157C25.8684 4.27529 25.7181 3.90334 25.4772 3.66399L25.1248 4.0187L24.7724 4.37341C24.7863 4.38728 24.8221 4.42861 24.8798 4.55209C24.938 4.67686 25.0075 4.86063 25.0993 5.14183L25.5746 4.9867ZM25.1248 4.0187L25.4769 3.66374C25.3946 3.58211 25.2635 3.47731 25.0394 3.40774C24.8311 3.34312 24.5653 3.31588 24.2154 3.33769L24.2465 3.83672L24.2776 4.33576C24.5507 4.31873 24.6866 4.34533 24.743 4.36282C24.7694 4.371 24.7779 4.37702 24.7758 4.3757C24.7727 4.37374 24.7697 4.37075 24.7726 4.37366L25.1248 4.0187ZM24.2465 3.83672L24.2153 3.3377C21.8809 3.48344 20.3226 4.09105 17.2561 5.15433L17.4199 5.62673L17.5837 6.09914C20.695 5.02034 22.1093 4.47113 24.2777 4.33575L24.2465 3.83672ZM17.4199 5.62673L17.2561 5.15433C14.1962 6.21533 9.71492 7.69678 1.61027 9.53369L1.72079 10.0213L1.83132 10.509C9.97827 8.66246 14.4955 7.16996 17.5837 6.09914L17.4199 5.62673ZM1.72079 10.0213L1.61039 9.53367C1.34128 9.59459 1.07372 9.42595 1.01263 9.15659L0.525015 9.26719L0.0374005 9.37779C0.220565 10.1853 1.02333 10.6919 1.8312 10.509L1.72079 10.0213ZM0.525015 9.26719L1.01267 9.15675C0.951525 8.88678 1.12058 8.61905 1.38891 8.55807L1.27811 8.0705L1.16731 7.58293C0.359163 7.76658 -0.145351 8.57084 0.0373644 9.37763L0.525015 9.26719ZM1.27811 8.0705L1.38863 8.55813C9.45081 6.73085 13.8958 5.25985 16.9276 4.20861L16.7638 3.7362L16.6 3.26379C13.5964 4.30526 9.18738 5.7652 1.16759 7.58287L1.27811 8.0705ZM16.7638 3.7362L16.9276 4.20861C19.951 3.16025 21.6528 2.4957 24.1531 2.33964L24.1219 1.84061L24.0908 1.34158C21.4252 1.50797 19.5812 2.23008 16.6 3.26379L16.7638 3.7362Z" fill="white" mask="url(#path-1-outside-1_1_37667)"/>
<defs>
<linearGradient id="paint0_linear_1_37667" x1="-25.2654" y1="9.10263" x2="139.463" y2="-7.36109" gradientUnits="userSpaceOnUse">
<stop stop-color="white"/>
<stop offset="1" stop-color="white" stop-opacity="0"/>
</linearGradient>
</defs>
</svg>
