<svg width="80" height="11" viewBox="0 0 80 11" fill="none" xmlns="http://www.w3.org/2000/svg">
<mask id="path-1-outside-1_1_33039" maskUnits="userSpaceOnUse" x="-0.918378" y="-2.58182" width="80.5298" height="15.9616" fill="black">
<rect fill="white" x="-0.918378" y="-2.58182" width="80.5298" height="15.9616"/>
<path d="M24.121 1.84042C25.1203 1.77806 25.9328 2.00292 26.5333 2.59887C27.0663 3.1281 27.3053 3.84519 27.4753 4.36589C27.8455 5.50048 28.1086 6.45803 29.3355 7.14312C30.6537 7.87924 33.2479 8.37288 38.5879 7.69288C43.8882 7.01786 51.7272 5.21082 63.3856 1.55533L63.4019 1.5504L63.4163 1.54656C65.9479 0.841779 72.3487 -0.224295 77.8042 1.21125C78.3383 1.35181 78.6579 1.8988 78.5174 2.43287C78.3769 2.96681 77.8298 3.28645 77.2958 3.14609C72.3358 1.84079 66.3443 2.809 63.9668 3.46816C52.2728 7.13417 44.31 8.98055 38.8408 9.67707C33.4089 10.3688 30.2649 9.95248 28.3603 8.88889C26.3644 7.77423 25.9189 6.04131 25.5747 4.98646C25.3875 4.41288 25.2669 4.15976 25.1248 4.01846C25.0499 3.94415 24.8696 3.79765 24.2466 3.83648C21.9949 3.977 20.5082 4.55541 17.419 5.62655C14.345 6.69245 9.84629 8.17946 1.72086 10.0211C1.18233 10.1431 0.647277 9.80542 0.525086 9.26695C0.403131 8.72845 0.739732 8.19241 1.27818 8.07026C9.31917 6.24778 13.7462 4.78231 16.7639 3.73595C19.7658 2.69504 21.5385 2.0017 24.121 1.84042Z"/>
</mask>
<path d="M24.121 1.84042C25.1203 1.77806 25.9328 2.00292 26.5333 2.59887C27.0663 3.1281 27.3053 3.84519 27.4753 4.36589C27.8455 5.50048 28.1086 6.45803 29.3355 7.14312C30.6537 7.87924 33.2479 8.37288 38.5879 7.69288C43.8882 7.01786 51.7272 5.21082 63.3856 1.55533L63.4019 1.5504L63.4163 1.54656C65.9479 0.841779 72.3487 -0.224295 77.8042 1.21125C78.3383 1.35181 78.6579 1.8988 78.5174 2.43287C78.3769 2.96681 77.8298 3.28645 77.2958 3.14609C72.3358 1.84079 66.3443 2.809 63.9668 3.46816C52.2728 7.13417 44.31 8.98055 38.8408 9.67707C33.4089 10.3688 30.2649 9.95248 28.3603 8.88889C26.3644 7.77423 25.9189 6.04131 25.5747 4.98646C25.3875 4.41288 25.2669 4.15976 25.1248 4.01846C25.0499 3.94415 24.8696 3.79765 24.2466 3.83648C21.9949 3.977 20.5082 4.55541 17.419 5.62655C14.345 6.69245 9.84629 8.17946 1.72086 10.0211C1.18233 10.1431 0.647277 9.80542 0.525086 9.26695C0.403131 8.72845 0.739732 8.19241 1.27818 8.07026C9.31917 6.24778 13.7462 4.78231 16.7639 3.73595C19.7658 2.69504 21.5385 2.0017 24.121 1.84042Z" fill="#9A41FE"/>
<path d="M24.121 1.84042C25.1203 1.77806 25.9328 2.00292 26.5333 2.59887C27.0663 3.1281 27.3053 3.84519 27.4753 4.36589C27.8455 5.50048 28.1086 6.45803 29.3355 7.14312C30.6537 7.87924 33.2479 8.37288 38.5879 7.69288C43.8882 7.01786 51.7272 5.21082 63.3856 1.55533L63.4019 1.5504L63.4163 1.54656C65.9479 0.841779 72.3487 -0.224295 77.8042 1.21125C78.3383 1.35181 78.6579 1.8988 78.5174 2.43287C78.3769 2.96681 77.8298 3.28645 77.2958 3.14609C72.3358 1.84079 66.3443 2.809 63.9668 3.46816C52.2728 7.13417 44.31 8.98055 38.8408 9.67707C33.4089 10.3688 30.2649 9.95248 28.3603 8.88889C26.3644 7.77423 25.9189 6.04131 25.5747 4.98646C25.3875 4.41288 25.2669 4.15976 25.1248 4.01846C25.0499 3.94415 24.8696 3.79765 24.2466 3.83648C21.9949 3.977 20.5082 4.55541 17.419 5.62655C14.345 6.69245 9.84629 8.17946 1.72086 10.0211C1.18233 10.1431 0.647277 9.80542 0.525086 9.26695C0.403131 8.72845 0.739732 8.19241 1.27818 8.07026C9.31917 6.24778 13.7462 4.78231 16.7639 3.73595C19.7658 2.69504 21.5385 2.0017 24.121 1.84042Z" fill="url(#paint0_linear_1_33039)"/>
<path d="M24.121 1.84042L24.0899 1.34139L24.0899 1.3414L24.121 1.84042ZM26.5333 2.59887L26.8856 2.24407L26.8855 2.24397L26.5333 2.59887ZM27.4753 4.36589L27.9506 4.21077L27.9506 4.21077L27.4753 4.36589ZM29.3355 7.14312L29.0917 7.57966L29.0917 7.57967L29.3355 7.14312ZM38.5879 7.69288L38.651 8.18887L38.651 8.18887L38.5879 7.69288ZM63.3856 1.55533L63.2409 1.07667L63.236 1.07823L63.3856 1.55533ZM63.4019 1.5504L63.2735 1.06717L63.2653 1.06933L63.2573 1.07177L63.4019 1.5504ZM63.4163 1.54656L63.5447 2.02983L63.5504 2.02824L63.4163 1.54656ZM77.8042 1.21125L77.9315 0.727718L77.9315 0.727713L77.8042 1.21125ZM78.5174 2.43287L79.001 2.56018L79.001 2.56008L78.5174 2.43287ZM77.2958 3.14609L77.1686 3.62963L77.1687 3.62966L77.2958 3.14609ZM63.9668 3.46816L63.8332 2.98633L63.8252 2.98856L63.8172 2.99105L63.9668 3.46816ZM38.8408 9.67707L38.904 10.1731L38.904 10.1731L38.8408 9.67707ZM28.3603 8.88889L28.1165 9.32542L28.1165 9.32544L28.3603 8.88889ZM25.5747 4.98646L26.05 4.83134L26.05 4.83133L25.5747 4.98646ZM25.1248 4.01846L25.4774 3.6639L25.477 3.66349L25.1248 4.01846ZM24.2466 3.83648L24.2155 3.33745L24.2154 3.33745L24.2466 3.83648ZM17.419 5.62655L17.5828 6.09896L17.5828 6.09896L17.419 5.62655ZM1.72086 10.0211L1.83139 10.5087L1.83139 10.5087L1.72086 10.0211ZM0.525086 9.26695L0.0374354 9.37739L0.0374826 9.3776L0.525086 9.26695ZM1.27818 8.07026L1.16766 7.58262L1.16756 7.58265L1.27818 8.07026ZM16.7639 3.73595L16.9277 4.20836L16.9277 4.20836L16.7639 3.73595ZM24.121 1.84042L24.1522 2.33945C25.0586 2.28288 25.7126 2.48882 26.1811 2.95377L26.5333 2.59887L26.8855 2.24397C26.153 1.51702 25.1819 1.27324 24.0899 1.34139L24.121 1.84042ZM26.5333 2.59887L26.181 2.95367C26.6169 3.38652 26.8264 3.9893 26.9999 4.52102L27.4753 4.36589L27.9506 4.21077C27.7843 3.70108 27.5156 2.86969 26.8856 2.24407L26.5333 2.59887ZM27.4753 4.36589L26.9999 4.52102C27.363 5.63351 27.6718 6.78675 29.0917 7.57966L29.3355 7.14312L29.5792 6.70657C28.5455 6.12931 28.3281 5.36745 27.9506 4.21077L27.4753 4.36589ZM29.3355 7.14312L29.0917 7.57967C30.5566 8.39768 33.2883 8.87179 38.651 8.18887L38.5879 7.69288L38.5247 7.19688C33.2076 7.87398 30.7508 7.36079 29.5792 6.70657L29.3355 7.14312ZM38.5879 7.69288L38.651 8.18887C43.9942 7.5084 51.8656 5.69142 63.5352 2.03243L63.3856 1.55533L63.236 1.07823C51.5887 4.73021 43.7822 6.52733 38.5247 7.19688L38.5879 7.69288ZM63.3856 1.55533L63.5302 2.03396L63.5465 2.02903L63.4019 1.5504L63.2573 1.07177L63.2409 1.0767L63.3856 1.55533ZM63.4019 1.5504L63.5303 2.03363L63.5447 2.02979L63.4163 1.54656L63.2879 1.06333L63.2735 1.06717L63.4019 1.5504ZM63.4163 1.54656L63.5504 2.02824C66.0411 1.33485 72.3429 0.291203 77.677 1.69479L77.8042 1.21125L77.9315 0.727713C72.3545 -0.739794 65.8547 0.348704 63.2822 1.06488L63.4163 1.54656ZM77.8042 1.21125L77.677 1.69479C77.9444 1.76518 78.104 2.03905 78.0339 2.30567L78.5174 2.43287L79.001 2.56008C79.2119 1.75855 78.7322 0.938435 77.9315 0.727718L77.8042 1.21125ZM78.5174 2.43287L78.0339 2.30557C77.9635 2.5729 77.6896 2.7326 77.4229 2.66252L77.2958 3.14609L77.1687 3.62966C77.97 3.84029 78.7902 3.36072 79.001 2.56018L78.5174 2.43287ZM77.2958 3.14609L77.4231 2.66255C72.3418 1.32536 66.2515 2.31586 63.8332 2.98633L63.9668 3.46816L64.1004 3.94998C66.437 3.30215 72.3298 2.35623 77.1686 3.62963L77.2958 3.14609ZM63.9668 3.46816L63.8172 2.99105C52.1344 6.65357 44.2039 8.49001 38.7777 9.18107L38.8408 9.67707L38.904 10.1731C44.416 9.47108 52.4112 7.61477 64.1163 3.94526L63.9668 3.46816ZM38.8408 9.67707L38.7777 9.18107C33.3689 9.86987 30.3622 9.43411 28.604 8.45234L28.3603 8.88889L28.1165 9.32544C30.1677 10.4708 33.449 10.8677 38.904 10.1731L38.8408 9.67707ZM28.3603 8.88889L28.6041 8.45235C26.8 7.44481 26.4003 5.90475 26.05 4.83134L25.5747 4.98646L25.0994 5.14158C25.4375 6.17787 25.9288 8.10364 28.1165 9.32542L28.3603 8.88889ZM25.5747 4.98646L26.05 4.83133C25.8685 4.27504 25.7181 3.90321 25.4774 3.6639L25.1248 4.01846L24.7723 4.37301C24.7863 4.38697 24.8221 4.42843 24.8798 4.55196C24.9381 4.67674 25.0076 4.86051 25.0994 5.14158L25.5747 4.98646ZM25.1248 4.01846L25.477 3.66349C25.3947 3.58186 25.2636 3.47706 25.0394 3.4075C24.8312 3.34288 24.5654 3.31564 24.2155 3.33745L24.2466 3.83648L24.2777 4.33551C24.5508 4.31849 24.6867 4.34508 24.7431 4.36258C24.7694 4.37076 24.7779 4.37678 24.7758 4.37546C24.7728 4.3735 24.7698 4.37051 24.7727 4.37342L25.1248 4.01846ZM24.2466 3.83648L24.2154 3.33745C21.8808 3.48315 20.322 4.09075 17.2552 5.15414L17.419 5.62655L17.5828 6.09896C20.6943 5.02007 22.1091 4.47085 24.2777 4.33551L24.2466 3.83648ZM17.419 5.62655L17.2552 5.15414C14.1953 6.21514 9.7146 7.69662 1.61034 9.53345L1.72086 10.0211L1.83139 10.5087C9.97797 8.66229 14.4947 7.16975 17.5828 6.09896L17.419 5.62655ZM1.72086 10.0211L1.61034 9.53345C1.34143 9.5944 1.07386 9.42589 1.01269 9.1563L0.525086 9.26695L0.0374826 9.3776C0.22069 10.185 1.02323 10.6919 1.83139 10.5087L1.72086 10.0211ZM0.525086 9.26695L1.01274 9.15651C0.951529 8.88624 1.1206 8.61871 1.3888 8.55787L1.27818 8.07026L1.16756 7.58265C0.358867 7.76611 -0.145268 8.57065 0.0374354 9.37739L0.525086 9.26695ZM1.27818 8.07026L1.3887 8.55789C9.45088 6.73061 13.8959 5.25961 16.9277 4.20836L16.7639 3.73595L16.6001 3.26355C13.5965 4.30501 9.18745 5.76495 1.16766 7.58262L1.27818 8.07026ZM16.7639 3.73595L16.9277 4.20836C19.9507 3.16012 21.6523 2.49556 24.1522 2.33945L24.121 1.84042L24.0899 1.3414C21.4246 1.50783 19.5809 2.22996 16.6001 3.26355L16.7639 3.73595Z" fill="white" mask="url(#path-1-outside-1_1_33039)"/>
<defs>
<linearGradient id="paint0_linear_1_33039" x1="-25.2653" y1="9.10239" x2="139.463" y2="-7.36134" gradientUnits="userSpaceOnUse">
<stop stop-color="white"/>
<stop offset="1" stop-color="white" stop-opacity="0"/>
</linearGradient>
</defs>
</svg>
