<svg width="80" height="11" viewBox="0 0 80 11" fill="none" xmlns="http://www.w3.org/2000/svg">
<mask id="path-1-outside-1_1_33138" maskUnits="userSpaceOnUse" x="-0.918378" y="-2.58182" width="80.5298" height="15.9616" fill="black">
<rect fill="white" x="-0.918378" y="-2.58182" width="80.5298" height="15.9616"/>
<path d="M24.122 1.84036C25.1215 1.77799 25.9338 2.0035 26.5343 2.59978C27.0671 3.12902 27.3063 3.84521 27.4762 4.36583C27.8465 5.50042 28.1096 6.45797 29.3364 7.14306C30.6548 7.87911 33.249 8.37283 38.5888 7.69282C43.8892 7.01778 51.728 5.2108 63.3865 1.55527L63.4019 1.5504L63.4173 1.5465C65.9491 0.841705 72.3498 -0.224442 77.8052 1.21119C78.3392 1.35175 78.6588 1.89881 78.5184 2.43281C78.3778 2.96667 77.8307 3.28622 77.2968 3.14603C72.3369 1.84072 66.3454 2.80894 63.9677 3.4681C52.2734 7.13423 44.31 8.98058 38.8408 9.67707C33.4091 10.3688 30.2659 9.95238 28.3612 8.88883C26.3651 7.77417 25.9189 6.04135 25.5747 4.98646C25.3874 4.41262 25.267 4.15969 25.1248 4.01846C25.0499 3.94416 24.8702 3.79768 24.2475 3.83642C21.9959 3.97694 20.5091 4.55536 17.42 5.62649C14.3459 6.6924 9.84663 8.17938 1.72084 10.0211C1.1824 10.1429 0.647164 9.80536 0.52506 9.26695C0.403103 8.72844 0.740667 8.19234 1.27913 8.0702C9.31979 6.24778 13.7462 4.78229 16.7638 3.73596C19.7662 2.69491 21.5391 2.0016 24.122 1.84036Z"/>
</mask>
<path d="M24.122 1.84036C25.1215 1.77799 25.9338 2.0035 26.5343 2.59978C27.0671 3.12902 27.3063 3.84521 27.4762 4.36583C27.8465 5.50042 28.1096 6.45797 29.3364 7.14306C30.6548 7.87911 33.249 8.37283 38.5888 7.69282C43.8892 7.01778 51.728 5.2108 63.3865 1.55527L63.4019 1.5504L63.4173 1.5465C65.9491 0.841705 72.3498 -0.224442 77.8052 1.21119C78.3392 1.35175 78.6588 1.89881 78.5184 2.43281C78.3778 2.96667 77.8307 3.28622 77.2968 3.14603C72.3369 1.84072 66.3454 2.80894 63.9677 3.4681C52.2734 7.13423 44.31 8.98058 38.8408 9.67707C33.4091 10.3688 30.2659 9.95238 28.3612 8.88883C26.3651 7.77417 25.9189 6.04135 25.5747 4.98646C25.3874 4.41262 25.267 4.15969 25.1248 4.01846C25.0499 3.94416 24.8702 3.79768 24.2475 3.83642C21.9959 3.97694 20.5091 4.55536 17.42 5.62649C14.3459 6.6924 9.84663 8.17938 1.72084 10.0211C1.1824 10.1429 0.647164 9.80536 0.52506 9.26695C0.403103 8.72844 0.740667 8.19234 1.27913 8.0702C9.31979 6.24778 13.7462 4.78229 16.7638 3.73596C19.7662 2.69491 21.5391 2.0016 24.122 1.84036Z" fill="#9A41FE"/>
<path d="M24.122 1.84036C25.1215 1.77799 25.9338 2.0035 26.5343 2.59978C27.0671 3.12902 27.3063 3.84521 27.4762 4.36583C27.8465 5.50042 28.1096 6.45797 29.3364 7.14306C30.6548 7.87911 33.249 8.37283 38.5888 7.69282C43.8892 7.01778 51.728 5.2108 63.3865 1.55527L63.4019 1.5504L63.4173 1.5465C65.9491 0.841705 72.3498 -0.224442 77.8052 1.21119C78.3392 1.35175 78.6588 1.89881 78.5184 2.43281C78.3778 2.96667 77.8307 3.28622 77.2968 3.14603C72.3369 1.84072 66.3454 2.80894 63.9677 3.4681C52.2734 7.13423 44.31 8.98058 38.8408 9.67707C33.4091 10.3688 30.2659 9.95238 28.3612 8.88883C26.3651 7.77417 25.9189 6.04135 25.5747 4.98646C25.3874 4.41262 25.267 4.15969 25.1248 4.01846C25.0499 3.94416 24.8702 3.79768 24.2475 3.83642C21.9959 3.97694 20.5091 4.55536 17.42 5.62649C14.3459 6.6924 9.84663 8.17938 1.72084 10.0211C1.1824 10.1429 0.647164 9.80536 0.52506 9.26695C0.403103 8.72844 0.740667 8.19234 1.27913 8.0702C9.31979 6.24778 13.7462 4.78229 16.7638 3.73596C19.7662 2.69491 21.5391 2.0016 24.122 1.84036Z" fill="url(#paint0_linear_1_33138)"/>
<path d="M24.122 1.84036L24.0908 1.34134L24.0908 1.34134L24.122 1.84036ZM26.5343 2.59978L26.8867 2.24504L26.8866 2.24497L26.5343 2.59978ZM27.4762 4.36583L27.9515 4.21071L27.9515 4.21071L27.4762 4.36583ZM29.3364 7.14306L29.0926 7.5796L29.0927 7.57962L29.3364 7.14306ZM38.5888 7.69282L38.652 8.18881L38.652 8.18881L38.5888 7.69282ZM63.3865 1.55527L63.5361 2.03237L63.5378 2.03185L63.3865 1.55527ZM63.4019 1.5504L63.2793 1.06566L63.2648 1.06931L63.2506 1.07382L63.4019 1.5504ZM63.4173 1.5465L63.5399 2.03138L63.5514 2.02819L63.4173 1.5465ZM77.8052 1.21119L77.9325 0.727665L77.9324 0.727657L77.8052 1.21119ZM78.5184 2.43281L79.0019 2.56012L79.002 2.55994L78.5184 2.43281ZM77.2968 3.14603L77.1695 3.62957L77.1698 3.62964L77.2968 3.14603ZM63.9677 3.4681L63.8341 2.98627L63.8261 2.9885L63.8181 2.99099L63.9677 3.4681ZM38.8408 9.67707L38.904 10.1731L38.904 10.1731L38.8408 9.67707ZM28.3612 8.88883L28.1174 9.32538L28.1175 9.32538L28.3612 8.88883ZM25.5747 4.98646L26.05 4.83134L26.05 4.83133L25.5747 4.98646ZM25.1248 4.01846L25.4771 3.66368L25.477 3.66349L25.1248 4.01846ZM24.2475 3.83642L24.2165 3.33738L24.2164 3.33739L24.2475 3.83642ZM17.42 5.62649L17.5838 6.0989L17.5838 6.0989L17.42 5.62649ZM1.72084 10.0211L1.83116 10.5088L1.83136 10.5087L1.72084 10.0211ZM0.52506 9.26695L0.0374091 9.37739L0.0374422 9.37754L0.52506 9.26695ZM1.27913 8.0702L1.16861 7.58256L1.16852 7.58258L1.27913 8.0702ZM16.7638 3.73596L16.9276 4.20836L16.9276 4.20836L16.7638 3.73596ZM24.122 1.84036L24.1531 2.33939C25.0595 2.28283 25.7133 2.48923 26.182 2.9546L26.5343 2.59978L26.8866 2.24497C26.1542 1.51778 25.1835 1.27315 24.0908 1.34134L24.122 1.84036ZM26.5343 2.59978L26.182 2.95453C26.6179 3.38749 26.8275 3.98965 27.0009 4.52096L27.4762 4.36583L27.9515 4.21071C27.7851 3.70077 27.5164 2.87054 26.8867 2.24504L26.5343 2.59978ZM27.4762 4.36583L27.0009 4.52096C27.3639 5.63345 27.6727 6.78669 29.0926 7.5796L29.3364 7.14306L29.5802 6.70651C28.5464 6.12925 28.329 5.3674 27.9515 4.21071L27.4762 4.36583ZM29.3364 7.14306L29.0927 7.57962C30.5577 8.39754 33.2893 8.87174 38.652 8.18881L38.5888 7.69282L38.5256 7.19682C33.2087 7.87393 30.7519 7.36067 29.5801 6.70649L29.3364 7.14306ZM38.5888 7.69282L38.652 8.18881C43.9952 7.50832 51.8664 5.69141 63.5361 2.03237L63.3865 1.55527L63.2369 1.07817C51.5896 4.7302 43.7832 6.52725 38.5256 7.19683L38.5888 7.69282ZM63.3865 1.55527L63.5378 2.03185L63.5531 2.02698L63.4019 1.5504L63.2506 1.07382L63.2353 1.0787L63.3865 1.55527ZM63.4019 1.5504L63.5244 2.03514L63.5398 2.03124L63.4173 1.5465L63.2947 1.06176L63.2793 1.06566L63.4019 1.5504ZM63.4173 1.5465L63.5514 2.02819C66.0422 1.33478 72.344 0.29106 77.6779 1.69473L77.8052 1.21119L77.9324 0.727657C72.3555 -0.739943 65.8559 0.348633 63.2832 1.06482L63.4173 1.5465ZM77.8052 1.21119L77.6779 1.69472C77.9452 1.76509 78.1049 2.03903 78.0348 2.30569L78.5184 2.43281L79.002 2.55994C79.2126 1.75859 78.7331 0.93841 77.9325 0.727665L77.8052 1.21119ZM78.5184 2.43281L78.0349 2.30551C77.9645 2.57263 77.6905 2.73247 77.4238 2.66243L77.2968 3.14603L77.1698 3.62964C77.9708 3.83998 78.7911 3.3607 79.0019 2.56012L78.5184 2.43281ZM77.2968 3.14603L77.424 2.6625C72.3429 1.32528 66.2526 2.3158 63.8341 2.98627L63.9677 3.4681L64.1013 3.94992C66.4381 3.30208 72.3308 2.35616 77.1695 3.62957L77.2968 3.14603ZM63.9677 3.4681L63.8181 2.99099C52.135 6.65363 44.204 8.49004 38.7777 9.18107L38.8408 9.67707L38.904 10.1731C44.416 9.47111 52.4118 7.61483 64.1173 3.9452L63.9677 3.4681ZM38.8408 9.67707L38.7777 9.18107C33.3691 9.86982 30.3631 9.43402 28.605 8.45228L28.3612 8.88883L28.1175 9.32538C30.1686 10.4707 33.4491 10.8677 38.904 10.1731L38.8408 9.67707ZM28.3612 8.88883L28.605 8.45228C26.8007 7.4447 26.4002 5.90457 26.05 4.83134L25.5747 4.98646L25.0993 5.14158C25.4376 6.17814 25.9296 8.10365 28.1174 9.32538L28.3612 8.88883ZM25.5747 4.98646L26.05 4.83133C25.8684 4.27504 25.7182 3.90306 25.4771 3.66368L25.1248 4.01846L24.7725 4.37323C24.7864 4.38707 24.8221 4.42834 24.8798 4.5518C24.9381 4.67655 25.0075 4.86033 25.0993 5.14159L25.5747 4.98646ZM25.1248 4.01846L25.477 3.66349C25.395 3.5822 25.2642 3.47726 25.04 3.40758C24.8318 3.34288 24.5662 3.31563 24.2165 3.33738L24.2475 3.83642L24.2786 4.33546C24.5515 4.31847 24.6871 4.34509 24.7432 4.36252C24.7694 4.37066 24.7778 4.37663 24.7756 4.37527C24.7725 4.37327 24.7695 4.37029 24.7727 4.37342L25.1248 4.01846ZM24.2475 3.83642L24.2164 3.33739C21.8817 3.48309 20.3229 4.0907 17.2562 5.15408L17.42 5.62649L17.5838 6.0989C20.6952 5.02002 22.1101 4.47079 24.2787 4.33545L24.2475 3.83642ZM17.42 5.62649L17.2562 5.15408C14.1963 6.21509 9.71496 7.69654 1.61032 9.53345L1.72084 10.0211L1.83136 10.5087C9.97831 8.66221 14.4956 7.16971 17.5838 6.0989L17.42 5.62649ZM1.72084 10.0211L1.61052 9.5334C1.3413 9.5943 1.07373 9.42557 1.01268 9.15636L0.52506 9.26695L0.0374422 9.37754C0.220599 10.1852 1.02349 10.6915 1.83116 10.5088L1.72084 10.0211ZM0.52506 9.26695L1.01271 9.15651C0.95166 8.88694 1.12083 8.61881 1.38974 8.55781L1.27913 8.0702L1.16852 7.58258C0.360503 7.76587 -0.145454 8.56995 0.0374091 9.37739L0.52506 9.26695ZM1.27913 8.0702L1.38965 8.55783C9.45152 6.73061 13.8959 5.25959 16.9276 4.20836L16.7638 3.73596L16.6 3.26355C13.5965 4.305 9.18807 5.76495 1.16861 7.58256L1.27913 8.0702ZM16.7638 3.73596L16.9276 4.20836C19.9511 3.16 21.6529 2.49547 24.1531 2.33939L24.122 1.84036L24.0908 1.34134C21.4253 1.50773 19.5813 2.22982 16.6 3.26355L16.7638 3.73596Z" fill="white" mask="url(#path-1-outside-1_1_33138)"/>
<defs>
<linearGradient id="paint0_linear_1_33138" x1="-25.2656" y1="9.1024" x2="139.465" y2="-7.3616" gradientUnits="userSpaceOnUse">
<stop stop-color="white"/>
<stop offset="1" stop-color="white" stop-opacity="0"/>
</linearGradient>
</defs>
</svg>
