<svg width="80" height="11" viewBox="0 0 80 11" fill="none" xmlns="http://www.w3.org/2000/svg">
<mask id="path-1-outside-1_1_32687" maskUnits="userSpaceOnUse" x="-0.918378" y="-2.58158" width="80.5298" height="15.9616" fill="black">
<rect fill="white" x="-0.918378" y="-2.58158" width="80.5298" height="15.9616"/>
<path d="M24.122 1.84061C25.1215 1.77823 25.9338 2.00375 26.5343 2.60003C27.0672 3.12925 27.3063 3.84541 27.4762 4.36608C27.8465 5.50067 28.1096 6.45821 29.3364 7.1433C30.6547 7.87941 33.2489 8.37308 38.5888 7.69306C43.8892 7.01805 51.728 5.21103 63.3865 1.55552L63.4028 1.55058L63.4173 1.54675C65.9489 0.841959 72.3496 -0.224154 77.8052 1.21144C78.3392 1.35198 78.6588 1.89901 78.5184 2.43306C78.3778 2.96699 77.8308 3.28663 77.2968 3.14628C72.3367 1.84094 66.3453 2.80918 63.9677 3.46834C52.2738 7.13435 44.3109 8.98072 38.8418 9.67725C33.4099 10.369 30.2659 9.95267 28.3612 8.88907C26.3653 7.77442 25.9199 6.04151 25.5756 4.98664C25.3885 4.41313 25.2679 4.15995 25.1258 4.01864C25.0509 3.94434 24.8704 3.79786 24.2475 3.83666C21.9959 3.97719 20.5091 4.55559 17.42 5.62674C14.346 6.69263 9.84726 8.17963 1.72181 10.0213C1.18322 10.1433 0.647176 9.80577 0.52506 9.26719C0.403103 8.72869 0.740667 8.19258 1.27913 8.07044C9.31973 6.24805 13.7462 4.78254 16.7638 3.7362C19.7661 2.69519 21.5392 2.00187 24.122 1.84061Z"/>
</mask>
<path d="M24.122 1.84061C25.1215 1.77823 25.9338 2.00375 26.5343 2.60003C27.0672 3.12925 27.3063 3.84541 27.4762 4.36608C27.8465 5.50067 28.1096 6.45821 29.3364 7.1433C30.6547 7.87941 33.2489 8.37308 38.5888 7.69306C43.8892 7.01805 51.728 5.21103 63.3865 1.55552L63.4028 1.55058L63.4173 1.54675C65.9489 0.841959 72.3496 -0.224154 77.8052 1.21144C78.3392 1.35198 78.6588 1.89901 78.5184 2.43306C78.3778 2.96699 77.8308 3.28663 77.2968 3.14628C72.3367 1.84094 66.3453 2.80918 63.9677 3.46834C52.2738 7.13435 44.3109 8.98072 38.8418 9.67725C33.4099 10.369 30.2659 9.95267 28.3612 8.88907C26.3653 7.77442 25.9199 6.04151 25.5756 4.98664C25.3885 4.41313 25.2679 4.15995 25.1258 4.01864C25.0509 3.94434 24.8704 3.79786 24.2475 3.83666C21.9959 3.97719 20.5091 4.55559 17.42 5.62674C14.346 6.69263 9.84726 8.17963 1.72181 10.0213C1.18322 10.1433 0.647176 9.80577 0.52506 9.26719C0.403103 8.72869 0.740667 8.19258 1.27913 8.07044C9.31973 6.24805 13.7462 4.78254 16.7638 3.7362C19.7661 2.69519 21.5392 2.00187 24.122 1.84061Z" fill="#9A41FE"/>
<path d="M24.122 1.84061C25.1215 1.77823 25.9338 2.00375 26.5343 2.60003C27.0672 3.12925 27.3063 3.84541 27.4762 4.36608C27.8465 5.50067 28.1096 6.45821 29.3364 7.1433C30.6547 7.87941 33.2489 8.37308 38.5888 7.69306C43.8892 7.01805 51.728 5.21103 63.3865 1.55552L63.4028 1.55058L63.4173 1.54675C65.9489 0.841959 72.3496 -0.224154 77.8052 1.21144C78.3392 1.35198 78.6588 1.89901 78.5184 2.43306C78.3778 2.96699 77.8308 3.28663 77.2968 3.14628C72.3367 1.84094 66.3453 2.80918 63.9677 3.46834C52.2738 7.13435 44.3109 8.98072 38.8418 9.67725C33.4099 10.369 30.2659 9.95267 28.3612 8.88907C26.3653 7.77442 25.9199 6.04151 25.5756 4.98664C25.3885 4.41313 25.2679 4.15995 25.1258 4.01864C25.0509 3.94434 24.8704 3.79786 24.2475 3.83666C21.9959 3.97719 20.5091 4.55559 17.42 5.62674C14.346 6.69263 9.84726 8.17963 1.72181 10.0213C1.18322 10.1433 0.647176 9.80577 0.52506 9.26719C0.403103 8.72869 0.740667 8.19258 1.27913 8.07044C9.31973 6.24805 13.7462 4.78254 16.7638 3.7362C19.7661 2.69519 21.5392 2.00187 24.122 1.84061Z" fill="url(#paint0_linear_1_32687)"/>
<path d="M24.122 1.84061L24.0908 1.34158L24.0908 1.34158L24.122 1.84061ZM26.5343 2.60003L26.8866 2.24525L26.8866 2.24522L26.5343 2.60003ZM27.4762 4.36608L27.9515 4.21096L27.9515 4.21095L27.4762 4.36608ZM29.3364 7.1433L29.0926 7.57985L29.0926 7.57985L29.3364 7.1433ZM38.5888 7.69306L38.652 8.18906L38.652 8.18906L38.5888 7.69306ZM63.3865 1.55552L63.2419 1.07686L63.2369 1.07842L63.3865 1.55552ZM63.4028 1.55058L63.2744 1.06735L63.2663 1.06952L63.2582 1.07195L63.4028 1.55058ZM63.4173 1.54675L63.5457 2.03001L63.5514 2.02843L63.4173 1.54675ZM77.8052 1.21144L77.9324 0.727903L77.9324 0.727899L77.8052 1.21144ZM78.5184 2.43306L79.0019 2.56036L79.002 2.56022L78.5184 2.43306ZM77.2968 3.14628L77.1695 3.62981L77.1697 3.62985L77.2968 3.14628ZM63.9677 3.46834L63.8341 2.98652L63.8261 2.98874L63.8181 2.99124L63.9677 3.46834ZM38.8418 9.67725L38.905 10.1732L38.905 10.1732L38.8418 9.67725ZM28.3612 8.88907L28.1174 9.32561L28.1174 9.32562L28.3612 8.88907ZM25.5756 4.98664L26.051 4.83152L26.051 4.83152L25.5756 4.98664ZM25.1258 4.01864L25.4784 3.66412L25.4779 3.66368L25.1258 4.01864ZM24.2475 3.83666L24.2164 3.33763L24.2164 3.33764L24.2475 3.83666ZM17.42 5.62674L17.5838 6.09914L17.5838 6.09914L17.42 5.62674ZM1.72181 10.0213L1.83233 10.5089L1.83234 10.5089L1.72181 10.0213ZM0.52506 9.26719L0.0374091 9.37763L0.0374372 9.37776L0.52506 9.26719ZM1.27913 8.07044L1.16861 7.58281L1.16852 7.58283L1.27913 8.07044ZM16.7638 3.7362L16.9276 4.20861L16.9276 4.20861L16.7638 3.7362ZM24.122 1.84061L24.1531 2.33964C25.0595 2.28307 25.7133 2.48947 26.182 2.95484L26.5343 2.60003L26.8866 2.24522C26.1542 1.51803 25.1835 1.27339 24.0908 1.34158L24.122 1.84061ZM26.5343 2.60003L26.182 2.9548C26.6179 3.38773 26.8275 3.98981 27.0009 4.5212L27.4762 4.36608L27.9515 4.21095C27.7851 3.70102 27.5165 2.87077 26.8866 2.24525L26.5343 2.60003ZM27.4762 4.36608L27.0009 4.5212C27.3639 5.6337 27.6727 6.78693 29.0926 7.57985L29.3364 7.1433L29.5802 6.70675C28.5464 6.12949 28.329 5.36764 27.9515 4.21096L27.4762 4.36608ZM29.3364 7.1433L29.0926 7.57985C30.5576 8.39785 33.2892 8.87199 38.652 8.18906L38.5888 7.69306L38.5256 7.19707C33.2085 7.87418 30.7518 7.36097 29.5802 6.70675L29.3364 7.1433ZM38.5888 7.69306L38.652 8.18906C43.9952 7.50858 51.8664 5.69163 63.5361 2.03261L63.3865 1.55552L63.2369 1.07842C51.5896 4.73043 43.7831 6.52751 38.5256 7.19707L38.5888 7.69306ZM63.3865 1.55552L63.5311 2.03415L63.5474 2.02921L63.4028 1.55058L63.2582 1.07195L63.2419 1.07689L63.3865 1.55552ZM63.4028 1.55058L63.5312 2.03381L63.5457 2.02998L63.4173 1.54675L63.2889 1.06352L63.2744 1.06735L63.4028 1.55058ZM63.4173 1.54675L63.5514 2.02843C66.042 1.33503 72.3439 0.291346 77.6779 1.69498L77.8052 1.21144L77.9324 0.727899C72.3554 -0.739653 65.8557 0.348885 63.2832 1.06506L63.4173 1.54675ZM77.8052 1.21144L77.6779 1.69497C77.9453 1.76534 78.105 2.03924 78.0348 2.30589L78.5184 2.43306L79.002 2.56022C79.2127 1.75879 78.7331 0.938623 77.9324 0.727903L77.8052 1.21144ZM78.5184 2.43306L78.0349 2.30575C77.9645 2.57308 77.6905 2.73278 77.4239 2.6627L77.2968 3.14628L77.1697 3.62985C77.971 3.84048 78.7911 3.36091 79.0019 2.56036L78.5184 2.43306ZM77.2968 3.14628L77.424 2.66274C72.3428 1.3255 66.2525 2.31604 63.8341 2.98652L63.9677 3.46834L64.1013 3.95017C66.438 3.30233 72.3307 2.35638 77.1695 3.62981L77.2968 3.14628ZM63.9677 3.46834L63.8181 2.99124C52.1353 6.65376 44.2049 8.49018 38.7786 9.18126L38.8418 9.67725L38.905 10.1732C44.417 9.47125 52.4122 7.61495 64.1173 3.94544L63.9677 3.46834ZM38.8418 9.67725L38.7786 9.18126C33.3698 9.87005 30.3631 9.4343 28.605 8.45252L28.3612 8.88907L28.1174 9.32562C30.1686 10.471 33.4499 10.8679 38.905 10.1732L38.8418 9.67725ZM28.3612 8.88907L28.605 8.45253C26.8009 7.445 26.4013 5.90496 26.051 4.83152L25.5756 4.98664L25.1003 5.14176C25.4385 6.17806 25.9297 8.10383 28.1174 9.32561L28.3612 8.88907ZM25.5756 4.98664L26.051 4.83152C25.8694 4.27525 25.719 3.90342 25.4784 3.66412L25.1258 4.01864L24.7732 4.37316C24.7873 4.38714 24.8231 4.42863 24.8808 4.55217C24.9391 4.67697 25.0086 4.86074 25.1003 5.14177L25.5756 4.98664ZM25.1258 4.01864L25.4779 3.66368C25.3956 3.58197 25.2644 3.47722 25.0403 3.40769C24.8321 3.34308 24.5663 3.31584 24.2164 3.33763L24.2475 3.83666L24.2786 4.3357C24.5517 4.31869 24.6876 4.34528 24.744 4.36279C24.7704 4.37097 24.7789 4.377 24.7768 4.37569C24.7738 4.37374 24.7708 4.37075 24.7737 4.3736L25.1258 4.01864ZM24.2475 3.83666L24.2164 3.33764C21.8817 3.48334 20.323 4.09094 17.2562 5.15433L17.42 5.62674L17.5838 6.09914C20.6953 5.02025 22.11 4.47103 24.2787 4.33569L24.2475 3.83666ZM17.42 5.62674L17.2562 5.15433C14.1963 6.21532 9.71558 7.69679 1.61129 9.53363L1.72181 10.0213L1.83234 10.5089C9.97895 8.66246 14.4956 7.16994 17.5838 6.09914L17.42 5.62674ZM1.72181 10.0213L1.61129 9.53363C1.34172 9.59473 1.07368 9.42564 1.01268 9.15663L0.52506 9.26719L0.0374372 9.37776C0.220673 10.1859 1.02471 10.6919 1.83233 10.5089L1.72181 10.0213ZM0.52506 9.26719L1.01271 9.15675C0.95166 8.88718 1.12083 8.61905 1.38974 8.55805L1.27913 8.07044L1.16852 7.58283C0.360503 7.76612 -0.145454 8.57019 0.0374091 9.37763L0.52506 9.26719ZM1.27913 8.07044L1.38965 8.55807C9.45146 6.73087 13.8959 5.25984 16.9276 4.20861L16.7638 3.7362L16.6 3.26379C13.5965 4.30525 9.18801 5.76522 1.16861 7.58281L1.27913 8.07044ZM16.7638 3.7362L16.9276 4.20861C19.951 3.16029 21.653 2.49574 24.1531 2.33964L24.122 1.84061L24.0908 1.34158C21.4254 1.50801 19.5812 2.2301 16.6 3.26379L16.7638 3.7362Z" fill="white" mask="url(#path-1-outside-1_1_32687)"/>
<defs>
<linearGradient id="paint0_linear_1_32687" x1="-25.2656" y1="9.10264" x2="139.465" y2="-7.36135" gradientUnits="userSpaceOnUse">
<stop stop-color="white"/>
<stop offset="1" stop-color="white" stop-opacity="0"/>
</linearGradient>
</defs>
</svg>
