<svg width="80" height="11" viewBox="0 0 80 11" fill="none" xmlns="http://www.w3.org/2000/svg">
<mask id="path-1-outside-1_1_35675" maskUnits="userSpaceOnUse" x="-0.918408" y="-2.58158" width="80.5298" height="15.9616" fill="black">
<rect fill="white" x="-0.918408" y="-2.58158" width="80.5298" height="15.9616"/>
<path d="M24.1219 1.84061C25.1214 1.77823 25.9337 2.00375 26.5343 2.60003C27.0672 3.12925 27.3063 3.84543 27.4762 4.36608C27.8465 5.50067 28.1095 6.45821 29.3364 7.1433C30.6547 7.87939 33.2489 8.37309 38.5888 7.69306C43.8892 7.01804 51.728 5.21105 63.3865 1.55552L63.4018 1.55064L63.4172 1.54675C65.9489 0.841955 72.3496 -0.224179 77.8052 1.21144C78.3392 1.35198 78.6588 1.89902 78.5184 2.43306C78.3778 2.96697 77.8307 3.28659 77.2968 3.14628C72.3367 1.84093 66.3452 2.80918 63.9677 3.46834C52.2734 7.13447 44.31 8.98082 38.8408 9.67731C33.4091 10.369 30.2658 9.95264 28.3612 8.88907C26.3652 7.77442 25.9199 6.04152 25.5756 4.98664C25.3883 4.41264 25.267 4.15994 25.1248 4.0187C25.0499 3.94438 24.8701 3.7979 24.2475 3.83666C21.9959 3.97719 20.5091 4.55559 17.4199 5.62674C14.3459 6.69263 9.84725 8.17962 1.72178 10.0213C1.18319 10.1433 0.647151 9.80576 0.525029 9.26719C0.403072 8.72869 0.740637 8.19258 1.2791 8.07044C9.31972 6.24804 13.7462 4.78254 16.7638 3.7362C19.7661 2.69518 21.5391 2.00186 24.1219 1.84061Z"/>
</mask>
<path d="M24.1219 1.84061C25.1214 1.77823 25.9337 2.00375 26.5343 2.60003C27.0672 3.12925 27.3063 3.84543 27.4762 4.36608C27.8465 5.50067 28.1095 6.45821 29.3364 7.1433C30.6547 7.87939 33.2489 8.37309 38.5888 7.69306C43.8892 7.01804 51.728 5.21105 63.3865 1.55552L63.4018 1.55064L63.4172 1.54675C65.9489 0.841955 72.3496 -0.224179 77.8052 1.21144C78.3392 1.35198 78.6588 1.89902 78.5184 2.43306C78.3778 2.96697 77.8307 3.28659 77.2968 3.14628C72.3367 1.84093 66.3452 2.80918 63.9677 3.46834C52.2734 7.13447 44.31 8.98082 38.8408 9.67731C33.4091 10.369 30.2658 9.95264 28.3612 8.88907C26.3652 7.77442 25.9199 6.04152 25.5756 4.98664C25.3883 4.41264 25.267 4.15994 25.1248 4.0187C25.0499 3.94438 24.8701 3.7979 24.2475 3.83666C21.9959 3.97719 20.5091 4.55559 17.4199 5.62674C14.3459 6.69263 9.84725 8.17962 1.72178 10.0213C1.18319 10.1433 0.647151 9.80576 0.525029 9.26719C0.403072 8.72869 0.740637 8.19258 1.2791 8.07044C9.31972 6.24804 13.7462 4.78254 16.7638 3.7362C19.7661 2.69518 21.5391 2.00186 24.1219 1.84061Z" fill="#985DE9"/>
<path d="M24.1219 1.84061C25.1214 1.77823 25.9337 2.00375 26.5343 2.60003C27.0672 3.12925 27.3063 3.84543 27.4762 4.36608C27.8465 5.50067 28.1095 6.45821 29.3364 7.1433C30.6547 7.87939 33.2489 8.37309 38.5888 7.69306C43.8892 7.01804 51.728 5.21105 63.3865 1.55552L63.4018 1.55064L63.4172 1.54675C65.9489 0.841955 72.3496 -0.224179 77.8052 1.21144C78.3392 1.35198 78.6588 1.89902 78.5184 2.43306C78.3778 2.96697 77.8307 3.28659 77.2968 3.14628C72.3367 1.84093 66.3452 2.80918 63.9677 3.46834C52.2734 7.13447 44.31 8.98082 38.8408 9.67731C33.4091 10.369 30.2658 9.95264 28.3612 8.88907C26.3652 7.77442 25.9199 6.04152 25.5756 4.98664C25.3883 4.41264 25.267 4.15994 25.1248 4.0187C25.0499 3.94438 24.8701 3.7979 24.2475 3.83666C21.9959 3.97719 20.5091 4.55559 17.4199 5.62674C14.3459 6.69263 9.84725 8.17962 1.72178 10.0213C1.18319 10.1433 0.647151 9.80576 0.525029 9.26719C0.403072 8.72869 0.740637 8.19258 1.2791 8.07044C9.31972 6.24804 13.7462 4.78254 16.7638 3.7362C19.7661 2.69518 21.5391 2.00186 24.1219 1.84061Z" fill="url(#paint0_linear_1_35675)"/>
<path d="M24.1219 1.84061L24.0908 1.34158L24.0908 1.34158L24.1219 1.84061ZM26.5343 2.60003L26.8866 2.24526L26.8866 2.24522L26.5343 2.60003ZM27.4762 4.36608L27.9515 4.21096L27.9515 4.21095L27.4762 4.36608ZM29.3364 7.1433L29.0926 7.57985L29.0926 7.57986L29.3364 7.1433ZM38.5888 7.69306L38.6519 8.18906L38.6519 8.18906L38.5888 7.69306ZM63.3865 1.55552L63.5361 2.03262L63.5377 2.03209L63.3865 1.55552ZM63.4018 1.55064L63.2793 1.0659L63.2648 1.06956L63.2506 1.07407L63.4018 1.55064ZM63.4172 1.54675L63.5399 2.03163L63.5513 2.02843L63.4172 1.54675ZM77.8052 1.21144L77.9324 0.727903L77.9324 0.7279L77.8052 1.21144ZM78.5184 2.43306L79.0019 2.56036L79.0019 2.56021L78.5184 2.43306ZM77.2968 3.14628L77.1695 3.62981L77.1697 3.62986L77.2968 3.14628ZM63.9677 3.46834L63.8341 2.98652L63.8261 2.98874L63.8181 2.99124L63.9677 3.46834ZM38.8408 9.67731L38.904 10.1733L38.904 10.1733L38.8408 9.67731ZM28.3612 8.88907L28.1174 9.32562L28.1174 9.32562L28.3612 8.88907ZM25.5756 4.98664L26.0509 4.83152L26.0509 4.83152L25.5756 4.98664ZM25.1248 4.0187L25.4771 3.6639L25.4769 3.66369L25.1248 4.0187ZM24.2475 3.83666L24.2164 3.33763L24.2163 3.33764L24.2475 3.83666ZM17.4199 5.62674L17.5838 6.09914L17.5838 6.09914L17.4199 5.62674ZM1.72178 10.0213L1.8323 10.5089L1.8323 10.5089L1.72178 10.0213ZM0.525029 9.26719L0.0373786 9.37763L0.0374082 9.37776L0.525029 9.26719ZM1.2791 8.07044L1.16858 7.58281L1.16849 7.58283L1.2791 8.07044ZM16.7638 3.7362L16.9276 4.20861L16.9276 4.20861L16.7638 3.7362ZM24.1219 1.84061L24.1531 2.33964C25.0594 2.28307 25.7133 2.48947 26.182 2.95484L26.5343 2.60003L26.8866 2.24522C26.1542 1.51803 25.1834 1.27339 24.0908 1.34158L24.1219 1.84061ZM26.5343 2.60003L26.1819 2.9548C26.6179 3.38773 26.8274 3.98984 27.0009 4.5212L27.4762 4.36608L27.9515 4.21095C27.7851 3.70101 27.5164 2.87078 26.8866 2.24526L26.5343 2.60003ZM27.4762 4.36608L27.0009 4.5212C27.3639 5.6337 27.6727 6.78693 29.0926 7.57985L29.3364 7.1433L29.5802 6.70675C28.5464 6.12949 28.329 5.36764 27.9515 4.21096L27.4762 4.36608ZM29.3364 7.1433L29.0926 7.57986C30.5576 8.39783 33.2892 8.87199 38.6519 8.18906L38.5888 7.69306L38.5256 7.19707C33.2085 7.87419 30.7518 7.36095 29.5801 6.70674L29.3364 7.1433ZM38.5888 7.69306L38.6519 8.18906C43.9952 7.50858 51.8664 5.69165 63.5361 2.03261L63.3865 1.55552L63.2369 1.07842C51.5895 4.73044 43.7831 6.52751 38.5256 7.19707L38.5888 7.69306ZM63.3865 1.55552L63.5377 2.03209L63.5531 2.02722L63.4018 1.55064L63.2506 1.07407L63.2352 1.07894L63.3865 1.55552ZM63.4018 1.55064L63.5244 2.03539L63.5398 2.03149L63.4172 1.54675L63.2947 1.062L63.2793 1.0659L63.4018 1.55064ZM63.4172 1.54675L63.5513 2.02843C66.0421 1.33503 72.3438 0.291322 77.6779 1.69498L77.8052 1.21144L77.9324 0.7279C72.3554 -0.739679 65.8557 0.348882 63.2831 1.06506L63.4172 1.54675ZM77.8052 1.21144L77.6779 1.69497C77.9453 1.76534 78.1049 2.03924 78.0348 2.3059L78.5184 2.43306L79.0019 2.56021C79.2127 1.7588 78.7331 0.938625 77.9324 0.727903L77.8052 1.21144ZM78.5184 2.43306L78.0348 2.30575C77.9645 2.57302 77.6905 2.73276 77.4238 2.66269L77.2968 3.14628L77.1697 3.62986C77.9709 3.84041 78.7911 3.36092 79.0019 2.56036L78.5184 2.43306ZM77.2968 3.14628L77.424 2.66274C72.3427 1.32549 66.2525 2.31604 63.8341 2.98652L63.9677 3.46834L64.1013 3.95017C66.438 3.30232 72.3307 2.35637 77.1695 3.62981L77.2968 3.14628ZM63.9677 3.46834L63.8181 2.99124C52.135 6.65387 44.2039 8.49028 38.7776 9.18132L38.8408 9.67731L38.904 10.1733C44.416 9.47135 52.4118 7.61507 64.1173 3.94544L63.9677 3.46834ZM38.8408 9.67731L38.7776 9.18132C33.3691 9.87004 30.3631 9.43427 28.605 8.45252L28.3612 8.88907L28.1174 9.32562C30.1685 10.471 33.4492 10.8679 38.904 10.1733L38.8408 9.67731ZM28.3612 8.88907L28.605 8.45253C26.8008 7.445 26.4012 5.90499 26.0509 4.83152L25.5756 4.98664L25.1003 5.14176C25.4385 6.17806 25.9296 8.10384 28.1174 9.32562L28.3612 8.88907ZM25.5756 4.98664L26.0509 4.83152C25.8689 4.27377 25.7178 3.90296 25.4771 3.6639L25.1248 4.0187L24.7725 4.3735C24.7868 4.38775 24.8228 4.4294 24.8805 4.55257C24.9389 4.67711 25.0086 4.86072 25.1003 5.14176L25.5756 4.98664ZM25.1248 4.0187L25.4769 3.66369C25.395 3.58245 25.2642 3.47749 25.0399 3.4078C24.8318 3.3431 24.5661 3.31586 24.2164 3.33763L24.2475 3.83666L24.2786 4.3357C24.5515 4.3187 24.6871 4.34532 24.7431 4.36274C24.7693 4.37088 24.7777 4.37685 24.7755 4.37549C24.7724 4.3735 24.7695 4.37053 24.7727 4.37371L25.1248 4.0187ZM24.2475 3.83666L24.2163 3.33764C21.8817 3.48334 20.3229 4.09094 17.2561 5.15433L17.4199 5.62674L17.5838 6.09914C20.6952 5.02025 22.11 4.47103 24.2786 4.33569L24.2475 3.83666ZM17.4199 5.62674L17.2561 5.15433C14.1963 6.21532 9.71556 7.69679 1.61126 9.53363L1.72178 10.0213L1.8323 10.5089C9.97894 8.66246 14.4956 7.16994 17.5838 6.09914L17.4199 5.62674ZM1.72178 10.0213L1.61126 9.53363C1.3417 9.59473 1.07365 9.42564 1.01265 9.15662L0.525029 9.26719L0.0374082 9.37776C0.220651 10.1859 1.02468 10.6919 1.8323 10.5089L1.72178 10.0213ZM0.525029 9.26719L1.01268 9.15675C0.951629 8.88718 1.1208 8.61905 1.38971 8.55805L1.2791 8.07044L1.16849 7.58283C0.360473 7.76612 -0.145485 8.57019 0.0373786 9.37763L0.525029 9.26719ZM1.2791 8.07044L1.38962 8.55807C9.45145 6.73087 13.8959 5.25983 16.9276 4.20861L16.7638 3.7362L16.6 3.26379C13.5964 4.30525 9.188 5.76521 1.16858 7.58281L1.2791 8.07044ZM16.7638 3.7362L16.9276 4.20861C19.951 3.16027 21.6529 2.49573 24.1531 2.33964L24.1219 1.84061L24.0908 1.34158C21.4253 1.508 19.5812 2.23009 16.6 3.26379L16.7638 3.7362Z" fill="white" mask="url(#path-1-outside-1_1_35675)"/>
<defs>
<linearGradient id="paint0_linear_1_35675" x1="-25.2656" y1="9.10264" x2="139.465" y2="-7.36137" gradientUnits="userSpaceOnUse">
<stop stop-color="white"/>
<stop offset="1" stop-color="white" stop-opacity="0"/>
</linearGradient>
</defs>
</svg>
