<svg width="80" height="11" viewBox="0 0 80 11" fill="none" xmlns="http://www.w3.org/2000/svg">
<mask id="path-1-outside-1_1_38663" maskUnits="userSpaceOnUse" x="-0.918439" y="-2.58158" width="80.5298" height="15.9616" fill="black">
<rect fill="white" x="-0.918439" y="-2.58158" width="80.5298" height="15.9616"/>
<path d="M24.1219 1.84061C25.1214 1.77823 25.9337 2.00375 26.5342 2.60003C27.0671 3.12926 27.3062 3.84543 27.4762 4.36608C27.8464 5.50067 28.1095 6.45821 29.3363 7.1433C30.6547 7.87938 33.2488 8.37309 38.5888 7.69306C43.8891 7.01804 51.7279 5.21106 63.3864 1.55552L63.4018 1.55064L63.4172 1.54675C65.9489 0.841952 72.3496 -0.224192 77.8051 1.21144C78.3391 1.35198 78.6588 1.89903 78.5183 2.43306C78.3778 2.96695 77.8306 3.28654 77.2967 3.14628C72.3367 1.84094 66.3452 2.80918 63.9677 3.46834C52.2733 7.13447 44.3099 8.98082 38.8408 9.67731C33.4091 10.369 30.2658 9.95264 28.3612 8.88907C26.3651 7.77442 25.9198 6.04153 25.5756 4.98664C25.3882 4.41262 25.267 4.15995 25.1248 4.0187C25.0498 3.94439 24.8701 3.79791 24.2475 3.83666C21.9958 3.97719 20.5091 4.55559 17.4199 5.62674C14.3459 6.69263 9.84723 8.17962 1.72175 10.0213C1.18317 10.1433 0.647126 9.80575 0.524999 9.26719C0.403042 8.72869 0.740606 8.19258 1.27907 8.07044C9.3197 6.24803 13.7461 4.78254 16.7638 3.7362C19.7661 2.69517 21.5391 2.00186 24.1219 1.84061Z"/>
</mask>
<path d="M24.1219 1.84061C25.1214 1.77823 25.9337 2.00375 26.5342 2.60003C27.0671 3.12926 27.3062 3.84543 27.4762 4.36608C27.8464 5.50067 28.1095 6.45821 29.3363 7.1433C30.6547 7.87938 33.2488 8.37309 38.5888 7.69306C43.8891 7.01804 51.7279 5.21106 63.3864 1.55552L63.4018 1.55064L63.4172 1.54675C65.9489 0.841952 72.3496 -0.224192 77.8051 1.21144C78.3391 1.35198 78.6588 1.89903 78.5183 2.43306C78.3778 2.96695 77.8306 3.28654 77.2967 3.14628C72.3367 1.84094 66.3452 2.80918 63.9677 3.46834C52.2733 7.13447 44.3099 8.98082 38.8408 9.67731C33.4091 10.369 30.2658 9.95264 28.3612 8.88907C26.3651 7.77442 25.9198 6.04153 25.5756 4.98664C25.3882 4.41262 25.267 4.15995 25.1248 4.0187C25.0498 3.94439 24.8701 3.79791 24.2475 3.83666C21.9958 3.97719 20.5091 4.55559 17.4199 5.62674C14.3459 6.69263 9.84723 8.17962 1.72175 10.0213C1.18317 10.1433 0.647126 9.80575 0.524999 9.26719C0.403042 8.72869 0.740606 8.19258 1.27907 8.07044C9.3197 6.24803 13.7461 4.78254 16.7638 3.7362C19.7661 2.69517 21.5391 2.00186 24.1219 1.84061Z" fill="#9A41FE"/>
<path d="M24.1219 1.84061C25.1214 1.77823 25.9337 2.00375 26.5342 2.60003C27.0671 3.12926 27.3062 3.84543 27.4762 4.36608C27.8464 5.50067 28.1095 6.45821 29.3363 7.1433C30.6547 7.87938 33.2488 8.37309 38.5888 7.69306C43.8891 7.01804 51.7279 5.21106 63.3864 1.55552L63.4018 1.55064L63.4172 1.54675C65.9489 0.841952 72.3496 -0.224192 77.8051 1.21144C78.3391 1.35198 78.6588 1.89903 78.5183 2.43306C78.3778 2.96695 77.8306 3.28654 77.2967 3.14628C72.3367 1.84094 66.3452 2.80918 63.9677 3.46834C52.2733 7.13447 44.3099 8.98082 38.8408 9.67731C33.4091 10.369 30.2658 9.95264 28.3612 8.88907C26.3651 7.77442 25.9198 6.04153 25.5756 4.98664C25.3882 4.41262 25.267 4.15995 25.1248 4.0187C25.0498 3.94439 24.8701 3.79791 24.2475 3.83666C21.9958 3.97719 20.5091 4.55559 17.4199 5.62674C14.3459 6.69263 9.84723 8.17962 1.72175 10.0213C1.18317 10.1433 0.647126 9.80575 0.524999 9.26719C0.403042 8.72869 0.740606 8.19258 1.27907 8.07044C9.3197 6.24803 13.7461 4.78254 16.7638 3.7362C19.7661 2.69517 21.5391 2.00186 24.1219 1.84061Z" fill="url(#paint0_linear_1_38663)"/>
<path d="M24.1219 1.84061L24.0908 1.34158L24.0908 1.34158L24.1219 1.84061ZM26.5342 2.60003L26.8866 2.24527L26.8865 2.24522L26.5342 2.60003ZM27.4762 4.36608L27.9515 4.21096L27.9515 4.21095L27.4762 4.36608ZM29.3363 7.1433L29.0926 7.57985L29.0926 7.57986L29.3363 7.1433ZM38.5888 7.69306L38.6519 8.18906V8.18906L38.5888 7.69306ZM63.3864 1.55552L63.536 2.03262L63.5377 2.03209L63.3864 1.55552ZM63.4018 1.55064L63.2792 1.0659L63.2648 1.06956L63.2506 1.07407L63.4018 1.55064ZM63.4172 1.54675L63.5398 2.03163L63.5513 2.02843L63.4172 1.54675ZM77.8051 1.21144L77.9324 0.727903L77.9324 0.727901L77.8051 1.21144ZM78.5183 2.43306L79.0019 2.56036L79.0019 2.5602L78.5183 2.43306ZM77.2967 3.14628L77.1695 3.62981L77.1697 3.62987L77.2967 3.14628ZM63.9677 3.46834L63.8341 2.98651L63.826 2.98874L63.8181 2.99124L63.9677 3.46834ZM38.8408 9.67731L38.9039 10.1733L38.9039 10.1733L38.8408 9.67731ZM28.3612 8.88907L28.1174 9.32562L28.1174 9.32562L28.3612 8.88907ZM25.5756 4.98664L26.0509 4.83152L26.0509 4.83152L25.5756 4.98664ZM25.1248 4.0187L25.4771 3.6639L25.4769 3.66372L25.1248 4.0187ZM24.2475 3.83666L24.2164 3.33763L24.2163 3.33764L24.2475 3.83666ZM17.4199 5.62674L17.5837 6.09914V6.09914L17.4199 5.62674ZM1.72175 10.0213L1.83227 10.5089L1.83227 10.5089L1.72175 10.0213ZM0.524999 9.26719L0.0373481 9.37763L0.0373789 9.37777L0.524999 9.26719ZM1.27907 8.07044L1.16855 7.58281L1.16846 7.58283L1.27907 8.07044ZM16.7638 3.7362L16.9276 4.20861L16.9276 4.20861L16.7638 3.7362ZM24.1219 1.84061L24.1531 2.33964C25.0594 2.28307 25.7133 2.48947 26.182 2.95484L26.5342 2.60003L26.8865 2.24522C26.1541 1.51803 25.1834 1.27339 24.0908 1.34158L24.1219 1.84061ZM26.5342 2.60003L26.1819 2.95479C26.6178 3.38773 26.8274 3.98986 27.0008 4.5212L27.4762 4.36608L27.9515 4.21095C27.7851 3.70101 27.5164 2.87078 26.8866 2.24527L26.5342 2.60003ZM27.4762 4.36608L27.0008 4.5212C27.3639 5.6337 27.6726 6.78693 29.0926 7.57985L29.3363 7.1433L29.5801 6.70675C28.5464 6.12949 28.329 5.36764 27.9515 4.21096L27.4762 4.36608ZM29.3363 7.1433L29.0926 7.57986C30.5576 8.39781 33.2892 8.872 38.6519 8.18906L38.5888 7.69306L38.5256 7.19707C33.2085 7.87419 30.7518 7.36094 29.5801 6.70674L29.3363 7.1433ZM38.5888 7.69306L38.6519 8.18906C43.9952 7.50858 51.8663 5.69166 63.536 2.03261L63.3864 1.55552L63.2369 1.07842C51.5895 4.73046 43.7831 6.52751 38.5256 7.19707L38.5888 7.69306ZM63.3864 1.55552L63.5377 2.03209L63.553 2.02722L63.4018 1.55064L63.2506 1.07407L63.2352 1.07894L63.3864 1.55552ZM63.4018 1.55064L63.5244 2.03539L63.5398 2.03149L63.4172 1.54675L63.2946 1.062L63.2792 1.0659L63.4018 1.55064ZM63.4172 1.54675L63.5513 2.02843C66.0421 1.33503 72.3438 0.291309 77.6779 1.69498L77.8051 1.21144L77.9324 0.727901C72.3554 -0.739692 65.8557 0.348879 63.2831 1.06506L63.4172 1.54675ZM77.8051 1.21144L77.6779 1.69497C77.9452 1.76533 78.1049 2.03924 78.0348 2.30592L78.5183 2.43306L79.0019 2.5602C79.2126 1.75882 78.7331 0.938625 77.9324 0.727903L77.8051 1.21144ZM78.5183 2.43306L78.0348 2.30575C77.9645 2.57297 77.6904 2.73275 77.4238 2.66269L77.2967 3.14628L77.1697 3.62987C77.9708 3.84034 78.7911 3.36093 79.0019 2.56036L78.5183 2.43306ZM77.2967 3.14628L77.424 2.66274C72.3427 1.3255 66.2525 2.31604 63.8341 2.98651L63.9677 3.46834L64.1012 3.95017C66.438 3.30232 72.3307 2.35638 77.1695 3.62981L77.2967 3.14628ZM63.9677 3.46834L63.8181 2.99124C52.1349 6.65387 44.2039 8.49028 38.7776 9.18132L38.8408 9.67731L38.9039 10.1733C44.416 9.47135 52.4118 7.61507 64.1172 3.94544L63.9677 3.46834ZM38.8408 9.67731L38.7776 9.18132C33.369 9.87005 30.363 9.43428 28.6049 8.45252L28.3612 8.88907L28.1174 9.32562C30.1685 10.471 33.4491 10.8679 38.9039 10.1733L38.8408 9.67731ZM28.3612 8.88907L28.6049 8.45253C26.8007 7.445 26.4012 5.905 26.0509 4.83152L25.5756 4.98664L25.1002 5.14176C25.4384 6.17806 25.9295 8.10384 28.1174 9.32562L28.3612 8.88907ZM25.5756 4.98664L26.0509 4.83152C25.8689 4.27376 25.7178 3.90296 25.4771 3.6639L25.1248 4.0187L24.7725 4.3735C24.7868 4.38775 24.8228 4.4294 24.8805 4.55257C24.9389 4.6771 25.0085 4.86071 25.1002 5.14176L25.5756 4.98664ZM25.1248 4.0187L25.4769 3.66372C25.395 3.58246 25.2641 3.4775 25.0399 3.40781C24.8317 3.34311 24.5661 3.31586 24.2164 3.33763L24.2475 3.83666L24.2785 4.3357C24.5515 4.31871 24.687 4.34532 24.7431 4.36275C24.7693 4.37089 24.7777 4.37686 24.7755 4.37549C24.7724 4.3735 24.7694 4.37052 24.7726 4.37369L25.1248 4.0187ZM24.2475 3.83666L24.2163 3.33764C21.8817 3.48334 20.3229 4.09094 17.2561 5.15433L17.4199 5.62674L17.5837 6.09914C20.6952 5.02025 22.11 4.47103 24.2786 4.33569L24.2475 3.83666ZM17.4199 5.62674L17.2561 5.15433C14.1962 6.21532 9.71555 7.69678 1.61123 9.53363L1.72175 10.0213L1.83227 10.5089C9.97892 8.66245 14.4956 7.16993 17.5837 6.09914L17.4199 5.62674ZM1.72175 10.0213L1.61123 9.53363C1.34168 9.59473 1.07362 9.42564 1.01262 9.15662L0.524999 9.26719L0.0373789 9.37777C0.220628 10.1859 1.02465 10.6919 1.83227 10.5089L1.72175 10.0213ZM0.524999 9.26719L1.01265 9.15675C0.951599 8.88718 1.12077 8.61905 1.38968 8.55805L1.27907 8.07044L1.16846 7.58283C0.360442 7.76612 -0.145516 8.57019 0.0373481 9.37763L0.524999 9.26719ZM1.27907 8.07044L1.38959 8.55807C9.45143 6.73086 13.8958 5.25983 16.9276 4.20861L16.7638 3.7362L16.6 3.26379C13.5964 4.30525 9.18798 5.76521 1.16855 7.58281L1.27907 8.07044ZM16.7638 3.7362L16.9276 4.20861C19.951 3.16026 21.6529 2.49572 24.1531 2.33964L24.1219 1.84061L24.0908 1.34158C21.4253 1.50799 19.5812 2.23008 16.6 3.26379L16.7638 3.7362Z" fill="white" mask="url(#path-1-outside-1_1_38663)"/>
<defs>
<linearGradient id="paint0_linear_1_38663" x1="-25.2657" y1="9.10264" x2="139.465" y2="-7.36136" gradientUnits="userSpaceOnUse">
<stop stop-color="white"/>
<stop offset="1" stop-color="white" stop-opacity="0"/>
</linearGradient>
</defs>
</svg>
