<svg width="80" height="11" viewBox="0 0 80 11" fill="none" xmlns="http://www.w3.org/2000/svg">
<mask id="path-1-outside-1_1_38019" maskUnits="userSpaceOnUse" x="-0.918439" y="-2.58182" width="80.5298" height="15.9616" fill="black">
<rect fill="white" x="-0.918439" y="-2.58182" width="80.5298" height="15.9616"/>
<path d="M24.1219 1.84036C25.1213 1.778 25.9337 2.00271 26.5342 2.59881C27.0672 3.12808 27.3062 3.84512 27.4762 4.36583C27.8464 5.50042 28.1095 6.45797 29.3363 7.14306C30.6547 7.87909 33.249 8.37283 38.5888 7.69282C43.8891 7.01778 51.728 5.2108 63.3864 1.55527L63.4018 1.5504L63.4172 1.5465C65.949 0.841705 72.3497 -0.224439 77.8051 1.21119C78.3391 1.35177 78.6587 1.89881 78.5183 2.43281C78.3778 2.96665 77.8306 3.2862 77.2967 3.14603C72.3368 1.84072 66.3453 2.80894 63.9677 3.4681C52.2733 7.13423 44.3099 8.98058 38.8408 9.67707C33.4091 10.3688 30.2658 9.95237 28.3612 8.88883C26.3651 7.77417 25.9189 6.04135 25.5746 4.98646C25.3873 4.41264 25.267 4.1597 25.1248 4.01846C25.0499 3.94416 24.8701 3.79769 24.2475 3.83642C21.9958 3.97694 20.509 4.55536 17.4199 5.62649C14.3459 6.6924 9.84657 8.17938 1.72078 10.0211C1.18234 10.1429 0.647124 9.80534 0.524999 9.26695C0.403042 8.72844 0.740606 8.19234 1.27907 8.0702C9.31973 6.24778 13.7461 4.78229 16.7638 3.73596C19.7661 2.69491 21.539 2.00159 24.1219 1.84036Z"/>
</mask>
<path d="M24.1219 1.84036C25.1213 1.778 25.9337 2.00271 26.5342 2.59881C27.0672 3.12808 27.3062 3.84512 27.4762 4.36583C27.8464 5.50042 28.1095 6.45797 29.3363 7.14306C30.6547 7.87909 33.249 8.37283 38.5888 7.69282C43.8891 7.01778 51.728 5.2108 63.3864 1.55527L63.4018 1.5504L63.4172 1.5465C65.949 0.841705 72.3497 -0.224439 77.8051 1.21119C78.3391 1.35177 78.6587 1.89881 78.5183 2.43281C78.3778 2.96665 77.8306 3.2862 77.2967 3.14603C72.3368 1.84072 66.3453 2.80894 63.9677 3.4681C52.2733 7.13423 44.3099 8.98058 38.8408 9.67707C33.4091 10.3688 30.2658 9.95237 28.3612 8.88883C26.3651 7.77417 25.9189 6.04135 25.5746 4.98646C25.3873 4.41264 25.267 4.1597 25.1248 4.01846C25.0499 3.94416 24.8701 3.79769 24.2475 3.83642C21.9958 3.97694 20.509 4.55536 17.4199 5.62649C14.3459 6.6924 9.84657 8.17938 1.72078 10.0211C1.18234 10.1429 0.647124 9.80534 0.524999 9.26695C0.403042 8.72844 0.740606 8.19234 1.27907 8.0702C9.31973 6.24778 13.7461 4.78229 16.7638 3.73596C19.7661 2.69491 21.539 2.00159 24.1219 1.84036Z" fill="#807AFF"/>
<path d="M24.1219 1.84036C25.1213 1.778 25.9337 2.00271 26.5342 2.59881C27.0672 3.12808 27.3062 3.84512 27.4762 4.36583C27.8464 5.50042 28.1095 6.45797 29.3363 7.14306C30.6547 7.87909 33.249 8.37283 38.5888 7.69282C43.8891 7.01778 51.728 5.2108 63.3864 1.55527L63.4018 1.5504L63.4172 1.5465C65.949 0.841705 72.3497 -0.224439 77.8051 1.21119C78.3391 1.35177 78.6587 1.89881 78.5183 2.43281C78.3778 2.96665 77.8306 3.2862 77.2967 3.14603C72.3368 1.84072 66.3453 2.80894 63.9677 3.4681C52.2733 7.13423 44.3099 8.98058 38.8408 9.67707C33.4091 10.3688 30.2658 9.95237 28.3612 8.88883C26.3651 7.77417 25.9189 6.04135 25.5746 4.98646C25.3873 4.41264 25.267 4.1597 25.1248 4.01846C25.0499 3.94416 24.8701 3.79769 24.2475 3.83642C21.9958 3.97694 20.509 4.55536 17.4199 5.62649C14.3459 6.6924 9.84657 8.17938 1.72078 10.0211C1.18234 10.1429 0.647124 9.80534 0.524999 9.26695C0.403042 8.72844 0.740606 8.19234 1.27907 8.0702C9.31973 6.24778 13.7461 4.78229 16.7638 3.73596C19.7661 2.69491 21.539 2.00159 24.1219 1.84036Z" fill="url(#paint0_linear_1_38019)"/>
<path d="M24.1219 1.84036L24.0908 1.34134L24.0908 1.34134L24.1219 1.84036ZM26.5342 2.59881L26.8865 2.24401L26.8864 2.24395L26.5342 2.59881ZM27.4762 4.36583L27.9515 4.21071L27.9515 4.21071L27.4762 4.36583ZM29.3363 7.14306L29.0926 7.5796L29.0926 7.57963L29.3363 7.14306ZM38.5888 7.69282L38.6519 8.18881L38.6519 8.18881L38.5888 7.69282ZM63.3864 1.55527L63.536 2.03237L63.5377 2.03185L63.3864 1.55527ZM63.4018 1.5504L63.2792 1.06566L63.2648 1.06931L63.2506 1.07382L63.4018 1.5504ZM63.4172 1.5465L63.5398 2.03138L63.5513 2.02819L63.4172 1.5465ZM77.8051 1.21119L77.9324 0.727669L77.9324 0.727657L77.8051 1.21119ZM78.5183 2.43281L79.0019 2.56012L79.0019 2.55995L78.5183 2.43281ZM77.2967 3.14603L77.1695 3.62957L77.1698 3.62964L77.2967 3.14603ZM63.9677 3.4681L63.8341 2.98627L63.826 2.9885L63.8181 2.99099L63.9677 3.4681ZM38.8408 9.67707L38.9039 10.1731L38.9039 10.1731L38.8408 9.67707ZM28.3612 8.88883L28.1174 9.32538L28.1174 9.32538L28.3612 8.88883ZM25.5746 4.98646L26.0499 4.83134L26.0499 4.83133L25.5746 4.98646ZM25.1248 4.01846L25.4771 3.66371L25.4769 3.66349L25.1248 4.01846ZM24.2475 3.83642L24.2164 3.33738L24.2163 3.33739L24.2475 3.83642ZM17.4199 5.62649L17.5837 6.0989L17.5837 6.0989L17.4199 5.62649ZM1.72078 10.0211L1.83111 10.5088L1.8313 10.5087L1.72078 10.0211ZM0.524999 9.26695L0.0373481 9.37739L0.0373861 9.37756L0.524999 9.26695ZM1.27907 8.0702L1.16855 7.58256L1.16846 7.58258L1.27907 8.0702ZM16.7638 3.73596L16.9276 4.20836L16.9276 4.20836L16.7638 3.73596ZM24.1219 1.84036L24.1531 2.33939C25.0597 2.28281 25.7135 2.48864 26.1819 2.95367L26.5342 2.59881L26.8864 2.24395C26.1539 1.51678 25.1829 1.27318 24.0908 1.34134L24.1219 1.84036ZM26.5342 2.59881L26.1819 2.95361C26.6178 3.3865 26.8273 3.98923 27.0008 4.52096L27.4762 4.36583L27.9515 4.21071C27.7851 3.70102 27.5166 2.86967 26.8865 2.24401L26.5342 2.59881ZM27.4762 4.36583L27.0008 4.52096C27.3639 5.63345 27.6726 6.78669 29.0926 7.5796L29.3363 7.14306L29.5801 6.70651C28.5464 6.12925 28.329 5.3674 27.9515 4.21071L27.4762 4.36583ZM29.3363 7.14306L29.0926 7.57963C30.5576 8.39752 33.2893 8.87173 38.6519 8.18881L38.5888 7.69282L38.5256 7.19682C33.2087 7.87392 30.7518 7.36066 29.5801 6.70649L29.3363 7.14306ZM38.5888 7.69282L38.6519 8.18881C43.9952 7.50832 51.8664 5.6914 63.536 2.03237L63.3864 1.55527L63.2369 1.07817C51.5895 4.7302 43.7831 6.52725 38.5256 7.19683L38.5888 7.69282ZM63.3864 1.55527L63.5377 2.03185L63.553 2.02698L63.4018 1.5504L63.2506 1.07382L63.2352 1.0787L63.3864 1.55527ZM63.4018 1.5504L63.5244 2.03514L63.5398 2.03124L63.4172 1.5465L63.2946 1.06176L63.2792 1.06566L63.4018 1.5504ZM63.4172 1.5465L63.5513 2.02819C66.0422 1.33478 72.3439 0.291063 77.6779 1.69473L77.8051 1.21119L77.9324 0.727657C72.3555 -0.73994 65.8558 0.348633 63.2831 1.06482L63.4172 1.5465ZM77.8051 1.21119L77.6778 1.69472C77.9452 1.76511 78.1049 2.03906 78.0348 2.30568L78.5183 2.43281L79.0019 2.55995C79.2126 1.75857 78.733 0.93843 77.9324 0.727669L77.8051 1.21119ZM78.5183 2.43281L78.0348 2.30551C77.9645 2.5726 77.6904 2.73246 77.4237 2.66242L77.2967 3.14603L77.1698 3.62964C77.9708 3.83994 78.7911 3.36071 79.0019 2.56012L78.5183 2.43281ZM77.2967 3.14603L77.424 2.6625C72.3428 1.32528 66.2526 2.3158 63.8341 2.98627L63.9677 3.4681L64.1012 3.94992C66.4381 3.30208 72.3308 2.35616 77.1695 3.62957L77.2967 3.14603ZM63.9677 3.4681L63.8181 2.99099C52.1349 6.65363 44.2039 8.49004 38.7776 9.18107L38.8408 9.67707L38.9039 10.1731C44.416 9.47111 52.4118 7.61483 64.1172 3.9452L63.9677 3.4681ZM38.8408 9.67707L38.7776 9.18107C33.369 9.86982 30.3631 9.43401 28.6049 8.45228L28.3612 8.88883L28.1174 9.32538C30.1686 10.4707 33.4491 10.8677 38.9039 10.1731L38.8408 9.67707ZM28.3612 8.88883L28.6049 8.45228C26.8006 7.4447 26.4002 5.90457 26.0499 4.83134L25.5746 4.98646L25.0993 5.14158C25.4375 6.17814 25.9296 8.10365 28.1174 9.32538L28.3612 8.88883ZM25.5746 4.98646L26.0499 4.83133C25.8684 4.27502 25.7181 3.90308 25.4771 3.66371L25.1248 4.01846L24.7724 4.37321C24.7864 4.38706 24.8221 4.42835 24.8797 4.55182C24.938 4.67657 25.0075 4.86034 25.0993 5.14159L25.5746 4.98646ZM25.1248 4.01846L25.4769 3.66349C25.3949 3.58219 25.2641 3.47726 25.0399 3.40758C24.8317 3.34289 24.5661 3.31563 24.2164 3.33738L24.2475 3.83642L24.2785 4.33546C24.5514 4.31848 24.687 4.34509 24.7431 4.36253C24.7693 4.37067 24.7777 4.37664 24.7756 4.37528C24.7724 4.37328 24.7695 4.3703 24.7726 4.37342L25.1248 4.01846ZM24.2475 3.83642L24.2163 3.33739C21.8817 3.48309 20.3229 4.09071 17.2561 5.15408L17.4199 5.62649L17.5837 6.0989C20.6952 5.02002 22.11 4.47079 24.2786 4.33545L24.2475 3.83642ZM17.4199 5.62649L17.2561 5.15408C14.1962 6.21509 9.7149 7.69654 1.61026 9.53345L1.72078 10.0211L1.8313 10.5087C9.97825 8.66221 14.4955 7.16971 17.5837 6.0989L17.4199 5.62649ZM1.72078 10.0211L1.61045 9.53341C1.34128 9.5943 1.07368 9.42558 1.01261 9.15634L0.524999 9.26695L0.0373861 9.37756C0.220565 10.1851 1.02341 10.6915 1.83111 10.5088L1.72078 10.0211ZM0.524999 9.26695L1.01265 9.15651C0.951599 8.88694 1.12077 8.61881 1.38968 8.55781L1.27907 8.0702L1.16846 7.58258C0.360442 7.76587 -0.145516 8.56995 0.0373481 9.37739L0.524999 9.26695ZM1.27907 8.0702L1.38959 8.55783C9.45146 6.7306 13.8959 5.25959 16.9276 4.20836L16.7638 3.73596L16.6 3.26355C13.5964 4.305 9.18801 5.76495 1.16855 7.58256L1.27907 8.0702ZM16.7638 3.73596L16.9276 4.20836C19.9511 3.16 21.6528 2.49546 24.1531 2.33939L24.1219 1.84036L24.0908 1.34134C21.4252 1.50772 19.5812 2.22982 16.6 3.26355L16.7638 3.73596Z" fill="white" mask="url(#path-1-outside-1_1_38019)"/>
<defs>
<linearGradient id="paint0_linear_1_38019" x1="-25.2657" y1="9.1024" x2="139.465" y2="-7.3616" gradientUnits="userSpaceOnUse">
<stop stop-color="white"/>
<stop offset="1" stop-color="white" stop-opacity="0"/>
</linearGradient>
</defs>
</svg>
