<svg width="80" height="11" viewBox="0 0 80 11" fill="none" xmlns="http://www.w3.org/2000/svg">
<mask id="path-1-outside-1_1_36671" maskUnits="userSpaceOnUse" x="-0.918408" y="-2.58182" width="80.5298" height="15.9616" fill="black">
<rect fill="white" x="-0.918408" y="-2.58182" width="80.5298" height="15.9616"/>
<path d="M24.122 1.84036C25.1212 1.77808 25.9329 2.00366 26.5333 2.59984C27.0663 3.12906 27.3053 3.8452 27.4752 4.36589C27.8455 5.50046 28.1087 6.45803 29.3354 7.14312C30.6537 7.87923 33.2479 8.37287 38.5878 7.69288C43.8882 7.01786 51.7271 5.21081 63.3855 1.55533L63.4019 1.5504L63.4163 1.54656C65.9479 0.841782 72.3487 -0.224266 77.8042 1.21125C78.3383 1.3518 78.6579 1.89881 78.5174 2.43287C78.3768 2.96681 77.8298 3.28645 77.2958 3.14609C72.3358 1.84082 66.3442 2.80901 63.9667 3.46816C52.2727 7.13417 44.3099 8.98056 38.8408 9.67707C33.4089 10.3688 30.2649 9.95248 28.3602 8.88889C26.3644 7.77423 25.9189 6.0413 25.5747 4.98646C25.3875 4.41285 25.2669 4.15974 25.1248 4.01846C25.0499 3.94415 24.8696 3.79765 24.2465 3.83648C21.9949 3.97701 20.5081 4.55542 17.419 5.62655C14.345 6.69245 9.84624 8.17946 1.72083 10.0211C1.18228 10.1431 0.647223 9.80545 0.525054 9.26695C0.403103 8.72847 0.739733 8.19243 1.27815 8.07026C9.31913 6.24778 13.7462 4.78231 16.7638 3.73595C19.766 2.69497 21.5391 2.00159 24.122 1.84036Z"/>
</mask>
<path d="M24.122 1.84036C25.1212 1.77808 25.9329 2.00366 26.5333 2.59984C27.0663 3.12906 27.3053 3.8452 27.4752 4.36589C27.8455 5.50046 28.1087 6.45803 29.3354 7.14312C30.6537 7.87923 33.2479 8.37287 38.5878 7.69288C43.8882 7.01786 51.7271 5.21081 63.3855 1.55533L63.4019 1.5504L63.4163 1.54656C65.9479 0.841782 72.3487 -0.224266 77.8042 1.21125C78.3383 1.3518 78.6579 1.89881 78.5174 2.43287C78.3768 2.96681 77.8298 3.28645 77.2958 3.14609C72.3358 1.84082 66.3442 2.80901 63.9667 3.46816C52.2727 7.13417 44.3099 8.98056 38.8408 9.67707C33.4089 10.3688 30.2649 9.95248 28.3602 8.88889C26.3644 7.77423 25.9189 6.0413 25.5747 4.98646C25.3875 4.41285 25.2669 4.15974 25.1248 4.01846C25.0499 3.94415 24.8696 3.79765 24.2465 3.83648C21.9949 3.97701 20.5081 4.55542 17.419 5.62655C14.345 6.69245 9.84624 8.17946 1.72083 10.0211C1.18228 10.1431 0.647223 9.80545 0.525054 9.26695C0.403103 8.72847 0.739733 8.19243 1.27815 8.07026C9.31913 6.24778 13.7462 4.78231 16.7638 3.73595C19.766 2.69497 21.5391 2.00159 24.122 1.84036Z" fill="#FC8AA3"/>
<path d="M24.122 1.84036C25.1212 1.77808 25.9329 2.00366 26.5333 2.59984C27.0663 3.12906 27.3053 3.8452 27.4752 4.36589C27.8455 5.50046 28.1087 6.45803 29.3354 7.14312C30.6537 7.87923 33.2479 8.37287 38.5878 7.69288C43.8882 7.01786 51.7271 5.21081 63.3855 1.55533L63.4019 1.5504L63.4163 1.54656C65.9479 0.841782 72.3487 -0.224266 77.8042 1.21125C78.3383 1.3518 78.6579 1.89881 78.5174 2.43287C78.3768 2.96681 77.8298 3.28645 77.2958 3.14609C72.3358 1.84082 66.3442 2.80901 63.9667 3.46816C52.2727 7.13417 44.3099 8.98056 38.8408 9.67707C33.4089 10.3688 30.2649 9.95248 28.3602 8.88889C26.3644 7.77423 25.9189 6.0413 25.5747 4.98646C25.3875 4.41285 25.2669 4.15974 25.1248 4.01846C25.0499 3.94415 24.8696 3.79765 24.2465 3.83648C21.9949 3.97701 20.5081 4.55542 17.419 5.62655C14.345 6.69245 9.84624 8.17946 1.72083 10.0211C1.18228 10.1431 0.647223 9.80545 0.525054 9.26695C0.403103 8.72847 0.739733 8.19243 1.27815 8.07026C9.31913 6.24778 13.7462 4.78231 16.7638 3.73595C19.766 2.69497 21.5391 2.00159 24.122 1.84036Z" fill="url(#paint0_linear_1_36671)"/>
<path d="M24.122 1.84036L24.0909 1.34133L24.0908 1.34133L24.122 1.84036ZM26.5333 2.59984L26.8856 2.24505L26.8856 2.24503L26.5333 2.59984ZM27.4752 4.36589L27.9506 4.21077L27.9506 4.21077L27.4752 4.36589ZM29.3354 7.14312L29.0916 7.57966L29.0917 7.57967L29.3354 7.14312ZM38.5878 7.69288L38.651 8.18887L38.651 8.18887L38.5878 7.69288ZM63.3855 1.55533L63.2409 1.07667L63.2359 1.07823L63.3855 1.55533ZM63.4019 1.5504L63.2734 1.06717L63.2653 1.06933L63.2572 1.07177L63.4019 1.5504ZM63.4163 1.54656L63.5447 2.02983L63.5504 2.02824L63.4163 1.54656ZM77.8042 1.21125L77.9315 0.727718L77.9314 0.727713L77.8042 1.21125ZM78.5174 2.43287L79.0009 2.56018L79.001 2.56007L78.5174 2.43287ZM77.2958 3.14609L77.1686 3.62963L77.1687 3.62966L77.2958 3.14609ZM63.9667 3.46816L63.8332 2.98633L63.8251 2.98856L63.8172 2.99105L63.9667 3.46816ZM38.8408 9.67707L38.904 10.1731L38.904 10.1731L38.8408 9.67707ZM28.3602 8.88889L28.1164 9.32542L28.1165 9.32544L28.3602 8.88889ZM25.5747 4.98646L26.05 4.83134L26.05 4.83133L25.5747 4.98646ZM25.1248 4.01846L25.4773 3.66386L25.477 3.66349L25.1248 4.01846ZM24.2465 3.83648L24.2154 3.33745L24.2154 3.33745L24.2465 3.83648ZM17.419 5.62655L17.5828 6.09896L17.5828 6.09896L17.419 5.62655ZM1.72083 10.0211L1.83135 10.5087V10.5087L1.72083 10.0211ZM0.525054 9.26695L0.0374033 9.37739L0.0374448 9.37757L0.525054 9.26695ZM1.27815 8.07026L1.16763 7.58262L1.1675 7.58265L1.27815 8.07026ZM16.7638 3.73595L16.9276 4.20836L16.9276 4.20836L16.7638 3.73595ZM24.122 1.84036L24.1531 2.33939C25.0591 2.28293 25.7124 2.48931 26.181 2.95465L26.5333 2.59984L26.8856 2.24503C26.1534 1.518 25.1834 1.27324 24.0909 1.34133L24.122 1.84036ZM26.5333 2.59984L26.181 2.95464C26.617 3.38755 26.8265 3.98957 26.9999 4.52102L27.4752 4.36589L27.9506 4.21077C27.7841 3.70083 27.5156 2.87057 26.8856 2.24505L26.5333 2.59984ZM27.4752 4.36589L26.9999 4.52102C27.363 5.63351 27.6718 6.78675 29.0916 7.57966L29.3354 7.14312L29.5792 6.70657C28.5455 6.12931 28.328 5.36741 27.9506 4.21077L27.4752 4.36589ZM29.3354 7.14312L29.0917 7.57967C30.5566 8.39768 33.2883 8.87177 38.651 8.18887L38.5878 7.69288L38.5247 7.19688C33.2076 7.87397 30.7508 7.36079 29.5792 6.70657L29.3354 7.14312ZM38.5878 7.69288L38.651 8.18887C43.9942 7.5084 51.8656 5.69141 63.5351 2.03243L63.3855 1.55533L63.2359 1.07823C51.5887 4.7302 43.7821 6.52733 38.5247 7.19688L38.5878 7.69288ZM63.3855 1.55533L63.5301 2.03396L63.5465 2.02903L63.4019 1.5504L63.2572 1.07177L63.2409 1.0767L63.3855 1.55533ZM63.4019 1.5504L63.5303 2.03363L63.5447 2.02979L63.4163 1.54656L63.2879 1.06333L63.2734 1.06717L63.4019 1.5504ZM63.4163 1.54656L63.5504 2.02824C66.041 1.33486 72.3429 0.291231 77.677 1.69479L77.8042 1.21125L77.9314 0.727713C72.3545 -0.739764 65.8547 0.348706 63.2822 1.06488L63.4163 1.54656ZM77.8042 1.21125L77.6769 1.69479C77.9444 1.76517 78.104 2.03905 78.0339 2.30568L78.5174 2.43287L79.001 2.56007C79.2118 1.75856 78.7321 0.938436 77.9315 0.727718L77.8042 1.21125ZM78.5174 2.43287L78.0339 2.30557C77.9635 2.5729 77.6895 2.7326 77.4229 2.66252L77.2958 3.14609L77.1687 3.62966C77.97 3.84029 78.7902 3.36072 79.0009 2.56018L78.5174 2.43287ZM77.2958 3.14609L77.423 2.66255C72.3418 1.32539 66.2515 2.31586 63.8332 2.98633L63.9667 3.46816L64.1003 3.94998C66.437 3.30215 72.3298 2.35626 77.1686 3.62963L77.2958 3.14609ZM63.9667 3.46816L63.8172 2.99105C52.1343 6.65358 44.2039 8.49002 38.7777 9.18107L38.8408 9.67707L38.904 10.1731C44.416 9.47109 52.4112 7.61477 64.1163 3.94526L63.9667 3.46816ZM38.8408 9.67707L38.7777 9.18107C33.3689 9.86987 30.3622 9.43411 28.604 8.45234L28.3602 8.88889L28.1165 9.32544C30.1677 10.4708 33.4489 10.8677 38.904 10.1731L38.8408 9.67707ZM28.3602 8.88889L28.604 8.45235C26.8 7.44481 26.4003 5.90473 26.05 4.83134L25.5747 4.98646L25.0993 5.14158C25.4375 6.17787 25.9288 8.10364 28.1164 9.32542L28.3602 8.88889ZM25.5747 4.98646L26.05 4.83133C25.8684 4.27506 25.7181 3.90318 25.4773 3.66386L25.1248 4.01846L24.7723 4.37305C24.7863 4.38699 24.8221 4.42841 24.8798 4.55193C24.9381 4.67672 25.0076 4.86049 25.0993 5.14158L25.5747 4.98646ZM25.1248 4.01846L25.477 3.66349C25.3947 3.58186 25.2636 3.47706 25.0394 3.4075C24.8311 3.34288 24.5653 3.31564 24.2154 3.33745L24.2465 3.83648L24.2776 4.33551C24.5508 4.31849 24.6867 4.34508 24.743 4.36258C24.7694 4.37076 24.7779 4.37678 24.7758 4.37545C24.7727 4.3735 24.7697 4.37051 24.7727 4.37342L25.1248 4.01846ZM24.2465 3.83648L24.2154 3.33745C21.8808 3.48316 20.322 4.09076 17.2552 5.15414L17.419 5.62655L17.5828 6.09896C20.6943 5.02008 22.1091 4.47085 24.2777 4.33551L24.2465 3.83648ZM17.419 5.62655L17.2552 5.15414C14.1953 6.21514 9.71456 7.69662 1.61031 9.53345L1.72083 10.0211L1.83135 10.5087C9.97793 8.66229 14.4946 7.16976 17.5828 6.09896L17.419 5.62655ZM1.72083 10.0211L1.61031 9.53345C1.34135 9.59441 1.07382 9.42589 1.01266 9.15633L0.525054 9.26695L0.0374448 9.37757C0.220626 10.185 1.0232 10.6919 1.83135 10.5087L1.72083 10.0211ZM0.525054 9.26695L1.0127 9.15651C0.951508 8.88629 1.12057 8.61872 1.3888 8.55786L1.27815 8.07026L1.1675 7.58265C0.358894 7.76614 -0.145302 8.57065 0.0374033 9.37739L0.525054 9.26695ZM1.27815 8.07026L1.38867 8.55789C9.45085 6.73061 13.8958 5.25961 16.9276 4.20836L16.7638 3.73595L16.6 3.26355C13.5965 4.30501 9.18742 5.76495 1.16763 7.58262L1.27815 8.07026ZM16.7638 3.73595L16.9276 4.20836C19.9509 3.16006 21.653 2.49545 24.1531 2.33939L24.122 1.84036L24.0908 1.34133C21.4253 1.50772 19.5811 2.22989 16.6 3.26355L16.7638 3.73595Z" fill="white" mask="url(#path-1-outside-1_1_36671)"/>
<defs>
<linearGradient id="paint0_linear_1_36671" x1="-25.2653" y1="9.10239" x2="139.463" y2="-7.36133" gradientUnits="userSpaceOnUse">
<stop stop-color="white"/>
<stop offset="1" stop-color="white" stop-opacity="0"/>
</linearGradient>
</defs>
</svg>
