<svg width="13" height="10" viewBox="0 0 13 10" fill="none" xmlns="http://www.w3.org/2000/svg">
<path d="M7.61986 0.496626C5.63387 2.25365 2.35117 4.8767 0.561906 6.34401C0.0887064 6.73206 -0.105035 7.35974 0.0553868 7.95031L0.175638 8.393C0.415059 9.27438 1.35121 9.77108 2.21429 9.47231C6.22849 8.08276 12.6447 5.75503 12.3858 3.92928C12.2394 2.89724 11.3641 1.68584 10.5329 0.662799C9.85858 -0.167192 8.42079 -0.211963 7.61986 0.496626Z" fill="#62B4FF"/>
<path d="M7.61986 0.496626C5.63387 2.25365 2.35117 4.8767 0.561906 6.34401C0.0887064 6.73206 -0.105035 7.35974 0.0553868 7.95031L0.175638 8.393C0.415059 9.27438 1.35121 9.77108 2.21429 9.47231C6.22849 8.08276 12.6447 5.75503 12.3858 3.92928C12.2394 2.89724 11.3641 1.68584 10.5329 0.662799C9.85858 -0.167192 8.42079 -0.211963 7.61986 0.496626Z" fill="url(#paint0_linear_1_34658)"/>
<defs>
<linearGradient id="paint0_linear_1_34658" x1="1.50726" y1="9.66821" x2="12.5073" y2="1.66821" gradientUnits="userSpaceOnUse">
<stop stop-color="white" stop-opacity="0.4"/>
<stop offset="1" stop-color="white" stop-opacity="0.9"/>
</linearGradient>
</defs>
</svg>
