<svg width="13" height="10" viewBox="0 0 13 10" fill="none" xmlns="http://www.w3.org/2000/svg">
<path d="M7.61987 0.496626C5.63388 2.25365 2.35118 4.8767 0.561921 6.34401C0.0887217 6.73206 -0.105019 7.35974 0.0554021 7.95031L0.175654 8.393C0.415074 9.27438 1.35122 9.77108 2.21431 9.47231C6.2285 8.08276 12.6447 5.75503 12.3858 3.92928C12.2394 2.89724 11.3641 1.68584 10.5329 0.662799C9.85859 -0.167192 8.4208 -0.211963 7.61987 0.496626Z" fill="#FC8AA3"/>
<path d="M7.61987 0.496626C5.63388 2.25365 2.35118 4.8767 0.561921 6.34401C0.0887217 6.73206 -0.105019 7.35974 0.0554021 7.95031L0.175654 8.393C0.415074 9.27438 1.35122 9.77108 2.21431 9.47231C6.2285 8.08276 12.6447 5.75503 12.3858 3.92928C12.2394 2.89724 11.3641 1.68584 10.5329 0.662799C9.85859 -0.167192 8.4208 -0.211963 7.61987 0.496626Z" fill="url(#paint0_linear_1_36650)"/>
<defs>
<linearGradient id="paint0_linear_1_36650" x1="1.50728" y1="9.66821" x2="12.5073" y2="1.66821" gradientUnits="userSpaceOnUse">
<stop stop-color="white" stop-opacity="0.4"/>
<stop offset="1" stop-color="white" stop-opacity="0.9"/>
</linearGradient>
</defs>
</svg>
