<svg width="372" height="998" viewBox="0 0 372 998" fill="none" xmlns="http://www.w3.org/2000/svg">
<path d="M30 0.5H341.74C358.03 0.500049 371.236 13.7029 371.24 29.9922L371.492 967.992C371.497 984.288 358.288 997.5 341.992 997.5H30C13.7076 997.5 0.5 984.292 0.5 968V30L0.509766 29.2383C0.913781 13.2979 13.9623 0.5 30 0.5Z" fill="#9A41FE"/>
<path d="M30 0.5H341.74C358.03 0.500049 371.236 13.7029 371.24 29.9922L371.492 967.992C371.497 984.288 358.288 997.5 341.992 997.5H30C13.7076 997.5 0.5 984.292 0.5 968V30L0.509766 29.2383C0.913781 13.2979 13.9623 0.5 30 0.5Z" fill="white" fill-opacity="0.9"/>
<path d="M30 0.5H341.74C358.03 0.500049 371.236 13.7029 371.24 29.9922L371.492 967.992C371.497 984.288 358.288 997.5 341.992 997.5H30C13.7076 997.5 0.5 984.292 0.5 968V30L0.509766 29.2383C0.913781 13.2979 13.9623 0.5 30 0.5Z" fill="url(#paint0_linear_1_39667)" fill-opacity="0.5"/>
<path d="M30 0.5H341.74C358.03 0.500049 371.236 13.7029 371.24 29.9922L371.492 967.992C371.497 984.288 358.288 997.5 341.992 997.5H30C13.7076 997.5 0.5 984.292 0.5 968V30L0.509766 29.2383C0.913781 13.2979 13.9623 0.5 30 0.5Z" fill="url(#paint1_linear_1_39667)" fill-opacity="0.4"/>
<path d="M30 0.5H341.74C358.03 0.500049 371.236 13.7029 371.24 29.9922L371.492 967.992C371.497 984.288 358.288 997.5 341.992 997.5H30C13.7076 997.5 0.5 984.292 0.5 968V30L0.509766 29.2383C0.913781 13.2979 13.9623 0.5 30 0.5Z" fill="url(#paint2_radial_1_39667)" fill-opacity="0.4"/>
<path d="M30 0.5H341.74C358.03 0.500049 371.236 13.7029 371.24 29.9922L371.492 967.992C371.497 984.288 358.288 997.5 341.992 997.5H30C13.7076 997.5 0.5 984.292 0.5 968V30L0.509766 29.2383C0.913781 13.2979 13.9623 0.5 30 0.5Z" stroke="url(#paint3_linear_1_39667)" stroke-opacity="0.5"/>
<path d="M30 0.5H341.74C358.03 0.500049 371.236 13.7029 371.24 29.9922L371.492 967.992C371.497 984.288 358.288 997.5 341.992 997.5H30C13.7076 997.5 0.5 984.292 0.5 968V30L0.509766 29.2383C0.913781 13.2979 13.9623 0.5 30 0.5Z" stroke="#9A41FE"/>
<path d="M30 0.5H341.74C358.03 0.500049 371.236 13.7029 371.24 29.9922L371.492 967.992C371.497 984.288 358.288 997.5 341.992 997.5H30C13.7076 997.5 0.5 984.292 0.5 968V30L0.509766 29.2383C0.913781 13.2979 13.9623 0.5 30 0.5Z" stroke="url(#paint4_linear_1_39667)"/>
<path d="M30 0.5H341.74C358.03 0.500049 371.236 13.7029 371.24 29.9922L371.492 967.992C371.497 984.288 358.288 997.5 341.992 997.5H30C13.7076 997.5 0.5 984.292 0.5 968V30L0.509766 29.2383C0.913781 13.2979 13.9623 0.5 30 0.5Z" stroke="url(#paint5_linear_1_39667)" stroke-opacity="0.7"/>
<defs>
<linearGradient id="paint0_linear_1_39667" x1="186" y1="187" x2="186" y2="-56" gradientUnits="userSpaceOnUse">
<stop stop-color="white"/>
<stop offset="1" stop-color="white" stop-opacity="0"/>
</linearGradient>
<linearGradient id="paint1_linear_1_39667" x1="225.857" y1="1065" x2="225.857" y2="946.001" gradientUnits="userSpaceOnUse">
<stop stop-color="#FCEE93" stop-opacity="0.6"/>
<stop offset="1" stop-color="white" stop-opacity="0"/>
</linearGradient>
<radialGradient id="paint2_radial_1_39667" cx="0" cy="0" r="1" gradientUnits="userSpaceOnUse" gradientTransform="translate(349 7.99998) rotate(136.364) scale(89.1207 100.195)">
<stop stop-color="#FCEE93" stop-opacity="0.6"/>
<stop offset="1" stop-color="white" stop-opacity="0"/>
</radialGradient>
<linearGradient id="paint3_linear_1_39667" x1="186" y1="-6.05915e-06" x2="186" y2="31.9131" gradientUnits="userSpaceOnUse">
<stop stop-color="white"/>
<stop offset="1" stop-color="white" stop-opacity="0"/>
</linearGradient>
<linearGradient id="paint4_linear_1_39667" x1="18.3032" y1="2.98562e-06" x2="371.856" y2="213.176" gradientUnits="userSpaceOnUse">
<stop stop-color="white" stop-opacity="0.9"/>
<stop offset="0.300626" stop-color="white" stop-opacity="0.8"/>
<stop offset="0.618497" stop-color="white" stop-opacity="0.8"/>
<stop offset="1" stop-color="white" stop-opacity="0.9"/>
</linearGradient>
<linearGradient id="paint5_linear_1_39667" x1="186" y1="-2.09772e-06" x2="186" y2="187" gradientUnits="userSpaceOnUse">
<stop stop-color="white"/>
<stop offset="1" stop-color="white" stop-opacity="0"/>
</linearGradient>
</defs>
</svg>
