<svg width="8" height="8" viewBox="0 0 8 8" fill="none" xmlns="http://www.w3.org/2000/svg">
<path d="M3.63198 0.157298C3.70621 -0.0521807 4.00246 -0.0521808 4.07668 0.157297L4.73541 2.01635C4.8938 2.46338 5.24547 2.81504 5.69249 2.97344L7.55155 3.63217C7.76103 3.70639 7.76103 4.00264 7.55155 4.07686L5.69249 4.73559C5.24547 4.89398 4.8938 5.24565 4.73541 5.69268L4.07668 7.55173C4.00246 7.76121 3.70621 7.76121 3.63198 7.55173L2.97326 5.69268C2.81486 5.24565 2.46319 4.89398 2.01617 4.73559L0.157114 4.07686C-0.0523638 4.00264 -0.0523639 3.70639 0.157114 3.63217L2.01617 2.97344C2.46319 2.81504 2.81486 2.46338 2.97326 2.01635L3.63198 0.157298Z" fill="#62B4FF"/>
<path d="M3.63198 0.157298C3.70621 -0.0521807 4.00246 -0.0521808 4.07668 0.157297L4.73541 2.01635C4.8938 2.46338 5.24547 2.81504 5.69249 2.97344L7.55155 3.63217C7.76103 3.70639 7.76103 4.00264 7.55155 4.07686L5.69249 4.73559C5.24547 4.89398 4.8938 5.24565 4.73541 5.69268L4.07668 7.55173C4.00246 7.76121 3.70621 7.76121 3.63198 7.55173L2.97326 5.69268C2.81486 5.24565 2.46319 4.89398 2.01617 4.73559L0.157114 4.07686C-0.0523638 4.00264 -0.0523639 3.70639 0.157114 3.63217L2.01617 2.97344C2.46319 2.81504 2.81486 2.46338 2.97326 2.01635L3.63198 0.157298Z" fill="url(#paint0_linear_1_35135)" fill-opacity="0.5"/>
<defs>
<linearGradient id="paint0_linear_1_35135" x1="3.85433" y1="-0.470215" x2="3.85433" y2="8.17924" gradientUnits="userSpaceOnUse">
<stop stop-color="white"/>
<stop offset="1" stop-color="white" stop-opacity="0.7"/>
</linearGradient>
</defs>
</svg>
