<svg width="8" height="8" viewBox="0 0 8 8" fill="none" xmlns="http://www.w3.org/2000/svg">
<path d="M3.63192 0.157053C3.70615 -0.0524248 4.00239 -0.0524249 4.07662 0.157053L4.73535 2.01611C4.89374 2.46313 5.24541 2.8148 5.69243 2.9732L7.55149 3.63192C7.76097 3.70615 7.76097 4.00239 7.55149 4.07662L5.69243 4.73535C5.24541 4.89374 4.89374 5.24541 4.73535 5.69243L4.07662 7.55149C4.00239 7.76097 3.70615 7.76097 3.63192 7.55149L2.9732 5.69243C2.8148 5.24541 2.46313 4.89374 2.01611 4.73535L0.157053 4.07662C-0.0524248 4.00239 -0.0524249 3.70615 0.157053 3.63192L2.01611 2.9732C2.46313 2.8148 2.8148 2.46313 2.9732 2.01611L3.63192 0.157053Z" fill="#9A41FE"/>
<path d="M3.63192 0.157053C3.70615 -0.0524248 4.00239 -0.0524249 4.07662 0.157053L4.73535 2.01611C4.89374 2.46313 5.24541 2.8148 5.69243 2.9732L7.55149 3.63192C7.76097 3.70615 7.76097 4.00239 7.55149 4.07662L5.69243 4.73535C5.24541 4.89374 4.89374 5.24541 4.73535 5.69243L4.07662 7.55149C4.00239 7.76097 3.70615 7.76097 3.63192 7.55149L2.9732 5.69243C2.8148 5.24541 2.46313 4.89374 2.01611 4.73535L0.157053 4.07662C-0.0524248 4.00239 -0.0524249 3.70615 0.157053 3.63192L2.01611 2.9732C2.46313 2.8148 2.8148 2.46313 2.9732 2.01611L3.63192 0.157053Z" fill="url(#paint0_linear_1_39664)" fill-opacity="0.5"/>
<defs>
<linearGradient id="paint0_linear_1_39664" x1="3.85427" y1="-0.470459" x2="3.85427" y2="8.179" gradientUnits="userSpaceOnUse">
<stop stop-color="white"/>
<stop offset="1" stop-color="white" stop-opacity="0.7"/>
</linearGradient>
</defs>
</svg>
