<svg width="17" height="17" viewBox="0 0 17 17" fill="none" xmlns="http://www.w3.org/2000/svg">
<path d="M7.93522 0.343164C8.09739 -0.114506 8.74463 -0.114507 8.9068 0.343164L10.346 4.40485C10.6921 5.38151 11.4604 6.14984 12.437 6.4959L16.4987 7.9351C16.9564 8.09726 16.9564 8.74451 16.4987 8.90668L12.437 10.3459C11.4604 10.6919 10.6921 11.4603 10.346 12.4369L8.9068 16.4986C8.74463 16.9563 8.09739 16.9563 7.93522 16.4986L6.49603 12.4369C6.14996 11.4603 5.38163 10.6919 4.40497 10.3459L0.343286 8.90668C-0.114384 8.74451 -0.114385 8.09726 0.343286 7.9351L4.40497 6.4959C5.38163 6.14984 6.14996 5.38151 6.49603 4.40485L7.93522 0.343164Z" fill="#81CCD1"/>
<path d="M7.93522 0.343164C8.09739 -0.114506 8.74463 -0.114507 8.9068 0.343164L10.346 4.40485C10.6921 5.38151 11.4604 6.14984 12.437 6.4959L16.4987 7.9351C16.9564 8.09726 16.9564 8.74451 16.4987 8.90668L12.437 10.3459C11.4604 10.6919 10.6921 11.4603 10.346 12.4369L8.9068 16.4986C8.74463 16.9563 8.09739 16.9563 7.93522 16.4986L6.49603 12.4369C6.14996 11.4603 5.38163 10.6919 4.40497 10.3459L0.343286 8.90668C-0.114384 8.74451 -0.114385 8.09726 0.343286 7.9351L4.40497 6.4959C5.38163 6.14984 6.14996 5.38151 6.49603 4.40485L7.93522 0.343164Z" fill="url(#paint0_linear_1_34039)" fill-opacity="0.8"/>
<defs>
<linearGradient id="paint0_linear_1_34039" x1="8.42101" y1="-1.02783" x2="8.42101" y2="17.8696" gradientUnits="userSpaceOnUse">
<stop stop-color="white"/>
<stop offset="1" stop-color="white" stop-opacity="0.7"/>
</linearGradient>
</defs>
</svg>
