<svg width="8" height="8" viewBox="0 0 8 8" fill="none" xmlns="http://www.w3.org/2000/svg">
<path d="M3.63192 0.157298C3.70615 -0.0521807 4.00239 -0.0521808 4.07662 0.157297L4.73535 2.01635C4.89374 2.46338 5.24541 2.81504 5.69243 2.97344L7.55149 3.63217C7.76097 3.70639 7.76097 4.00264 7.55149 4.07686L5.69243 4.73559C5.24541 4.89398 4.89374 5.24565 4.73535 5.69268L4.07662 7.55173C4.00239 7.76121 3.70615 7.76121 3.63192 7.55173L2.9732 5.69268C2.8148 5.24565 2.46313 4.89398 2.01611 4.73559L0.157053 4.07686C-0.0524248 4.00264 -0.0524249 3.70639 0.157053 3.63217L2.01611 2.97344C2.46313 2.81504 2.8148 2.46338 2.9732 2.01635L3.63192 0.157298Z" fill="#9A41FE"/>
<path d="M3.63192 0.157298C3.70615 -0.0521807 4.00239 -0.0521808 4.07662 0.157297L4.73535 2.01635C4.89374 2.46338 5.24541 2.81504 5.69243 2.97344L7.55149 3.63217C7.76097 3.70639 7.76097 4.00264 7.55149 4.07686L5.69243 4.73559C5.24541 4.89398 4.89374 5.24565 4.73535 5.69268L4.07662 7.55173C4.00239 7.76121 3.70615 7.76121 3.63192 7.55173L2.9732 5.69268C2.8148 5.24565 2.46313 4.89398 2.01611 4.73559L0.157053 4.07686C-0.0524248 4.00264 -0.0524249 3.70639 0.157053 3.63217L2.01611 2.97344C2.46313 2.81504 2.8148 2.46338 2.9732 2.01635L3.63192 0.157298Z" fill="url(#paint0_linear_1_40115)" fill-opacity="0.5"/>
<defs>
<linearGradient id="paint0_linear_1_40115" x1="3.85427" y1="-0.470215" x2="3.85427" y2="8.17924" gradientUnits="userSpaceOnUse">
<stop stop-color="white"/>
<stop offset="1" stop-color="white" stop-opacity="0.7"/>
</linearGradient>
</defs>
</svg>
