<svg width="8" height="8" viewBox="0 0 8 8" fill="none" xmlns="http://www.w3.org/2000/svg">
<path d="M3.7645 0.14489C3.69595 -0.0485472 3.42239 -0.0485474 3.35385 0.14489L2.74557 1.86159C2.5993 2.27438 2.27456 2.59912 1.86177 2.74539L0.145072 3.35367C-0.0483651 3.42221 -0.0483656 3.69577 0.145072 3.76431L1.86177 4.3726C2.27456 4.51886 2.5993 4.8436 2.74557 5.25639L3.35385 6.97309C3.42239 7.16653 3.69595 7.16653 3.7645 6.97309L4.37278 5.2564C4.51904 4.8436 4.84379 4.51886 5.25658 4.3726L6.97327 3.76431C7.16671 3.69577 7.16671 3.42221 6.97327 3.35367L5.25658 2.74539C4.84379 2.59912 4.51904 2.27438 4.37278 1.86159L3.7645 0.14489Z" fill="#81CCD1"/>
<path d="M3.7645 0.14489C3.69595 -0.0485472 3.42239 -0.0485474 3.35385 0.14489L2.74557 1.86159C2.5993 2.27438 2.27456 2.59912 1.86177 2.74539L0.145072 3.35367C-0.0483651 3.42221 -0.0483656 3.69577 0.145072 3.76431L1.86177 4.3726C2.27456 4.51886 2.5993 4.8436 2.74557 5.25639L3.35385 6.97309C3.42239 7.16653 3.69595 7.16653 3.7645 6.97309L4.37278 5.2564C4.51904 4.8436 4.84379 4.51886 5.25658 4.3726L6.97327 3.76431C7.16671 3.69577 7.16671 3.42221 6.97327 3.35367L5.25658 2.74539C4.84379 2.59912 4.51904 2.27438 4.37278 1.86159L3.7645 0.14489Z" fill="url(#paint0_linear_1_34133)" fill-opacity="0.6"/>
<defs>
<linearGradient id="paint0_linear_1_34133" x1="3.55917" y1="-0.43457" x2="3.55917" y2="7.55255" gradientUnits="userSpaceOnUse">
<stop stop-color="white"/>
<stop offset="1" stop-color="white" stop-opacity="0.7"/>
</linearGradient>
</defs>
</svg>
