<svg width="27" height="27" viewBox="0 0 27 27" fill="none" xmlns="http://www.w3.org/2000/svg">
<path d="M7.50782 1.76574C8.008 0.65606 9.32899 0.183909 10.4192 0.725134L13.2961 2.15267C13.9707 2.4876 14.7435 2.56963 15.4734 2.38349L18.586 1.58938C19.7654 1.28871 20.9585 2.0277 21.2151 3.21746L21.8924 6.35724C22.0512 7.09356 22.4691 7.74888 23.0698 8.20345L25.6301 10.1413C26.6007 10.8758 26.7679 12.2699 25.9977 13.2124L23.965 15.6988C23.4883 16.2821 23.2365 17.0173 23.2556 17.7703L23.3371 20.981C23.3679 22.1977 22.382 23.1967 21.1651 23.1823L17.9531 23.1439C17.1998 23.1349 16.4682 23.3964 15.8914 23.8808L13.4314 25.9465C12.4992 26.729 11.1035 26.5813 10.3562 25.6207L8.38402 23.0858C7.92145 22.4913 7.26065 22.0822 6.52226 21.9332L3.37401 21.2986C2.18088 21.0578 1.4266 19.8736 1.71165 18.6903L2.46363 15.5685C2.64003 14.8362 2.54789 14.0645 2.20401 13.3943L0.737674 10.5365C0.181984 9.45367 0.636375 8.12582 1.73913 7.61081L4.64988 6.25207C5.33239 5.93338 5.87811 5.38009 6.18764 4.69337L7.50782 1.76574Z" fill="#FF6A12"/>
<path d="M7.50782 1.76574C8.008 0.65606 9.32899 0.183909 10.4192 0.725134L13.2961 2.15267C13.9707 2.4876 14.7435 2.56963 15.4734 2.38349L18.586 1.58938C19.7654 1.28871 20.9585 2.0277 21.2151 3.21746L21.8924 6.35724C22.0512 7.09356 22.4691 7.74888 23.0698 8.20345L25.6301 10.1413C26.6007 10.8758 26.7679 12.2699 25.9977 13.2124L23.965 15.6988C23.4883 16.2821 23.2365 17.0173 23.2556 17.7703L23.3371 20.981C23.3679 22.1977 22.382 23.1967 21.1651 23.1823L17.9531 23.1439C17.1998 23.1349 16.4682 23.3964 15.8914 23.8808L13.4314 25.9465C12.4992 26.729 11.1035 26.5813 10.3562 25.6207L8.38402 23.0858C7.92145 22.4913 7.26065 22.0822 6.52226 21.9332L3.37401 21.2986C2.18088 21.0578 1.4266 19.8736 1.71165 18.6903L2.46363 15.5685C2.64003 14.8362 2.54789 14.0645 2.20401 13.3943L0.737674 10.5365C0.181984 9.45367 0.636375 8.12582 1.73913 7.61081L4.64988 6.25207C5.33239 5.93338 5.87811 5.38009 6.18764 4.69337L7.50782 1.76574Z" fill="url(#paint0_radial_1_36644)"/>
<path d="M7.50782 1.76574C8.008 0.65606 9.32899 0.183909 10.4192 0.725134L13.2961 2.15267C13.9707 2.4876 14.7435 2.56963 15.4734 2.38349L18.586 1.58938C19.7654 1.28871 20.9585 2.0277 21.2151 3.21746L21.8924 6.35724C22.0512 7.09356 22.4691 7.74888 23.0698 8.20345L25.6301 10.1413C26.6007 10.8758 26.7679 12.2699 25.9977 13.2124L23.965 15.6988C23.4883 16.2821 23.2365 17.0173 23.2556 17.7703L23.3371 20.981C23.3679 22.1977 22.382 23.1967 21.1651 23.1823L17.9531 23.1439C17.1998 23.1349 16.4682 23.3964 15.8914 23.8808L13.4314 25.9465C12.4992 26.729 11.1035 26.5813 10.3562 25.6207L8.38402 23.0858C7.92145 22.4913 7.26065 22.0822 6.52226 21.9332L3.37401 21.2986C2.18088 21.0578 1.4266 19.8736 1.71165 18.6903L2.46363 15.5685C2.64003 14.8362 2.54789 14.0645 2.20401 13.3943L0.737674 10.5365C0.181984 9.45367 0.636375 8.12582 1.73913 7.61081L4.64988 6.25207C5.33239 5.93338 5.87811 5.38009 6.18764 4.69337L7.50782 1.76574Z" stroke="white"/>
<defs>
<radialGradient id="paint0_radial_1_36644" cx="0" cy="0" r="1" gradientUnits="userSpaceOnUse" gradientTransform="translate(15.7276 4.66846) rotate(-78.0938) scale(36.7438)">
<stop stop-color="#FF9316"/>
<stop offset="0.296573" stop-color="#FF9316"/>
<stop offset="0.299277" stop-color="#FF9316" stop-opacity="0"/>
</radialGradient>
</defs>
</svg>
