<svg width="27" height="27" viewBox="0 0 27 27" fill="none" xmlns="http://www.w3.org/2000/svg">
<path d="M7.50788 1.76574C8.00805 0.65606 9.32905 0.183909 10.4193 0.725134L13.2961 2.15267C13.9708 2.4876 14.7436 2.56963 15.4735 2.38349L18.586 1.58938C19.7654 1.28871 20.9585 2.0277 21.2151 3.21746L21.8925 6.35724C22.0513 7.09356 22.4692 7.74888 23.0698 8.20345L25.6302 10.1413C26.6007 10.8758 26.768 12.2699 25.9978 13.2124L23.9651 15.6988C23.4884 16.2821 23.2366 17.0173 23.2557 17.7703L23.3371 20.981C23.3679 22.1977 22.3821 23.1967 21.1651 23.1823L17.9531 23.1439C17.1999 23.1349 16.4683 23.3964 15.8914 23.8808L13.4314 25.9465C12.4993 26.729 11.1036 26.5813 10.3562 25.6207L8.38408 23.0858C7.92151 22.4913 7.26071 22.0822 6.52231 21.9332L3.37406 21.2986C2.18094 21.0578 1.42666 19.8736 1.7117 18.6903L2.46368 15.5685C2.64008 14.8362 2.54795 14.0645 2.20406 13.3943L0.737728 10.5365C0.182038 9.45367 0.636429 8.12582 1.73918 7.61081L4.64993 6.25207C5.33244 5.93338 5.87816 5.38009 6.18769 4.69337L7.50788 1.76574Z" fill="#FF6A12"/>
<path d="M7.50788 1.76574C8.00805 0.65606 9.32905 0.183909 10.4193 0.725134L13.2961 2.15267C13.9708 2.4876 14.7436 2.56963 15.4735 2.38349L18.586 1.58938C19.7654 1.28871 20.9585 2.0277 21.2151 3.21746L21.8925 6.35724C22.0513 7.09356 22.4692 7.74888 23.0698 8.20345L25.6302 10.1413C26.6007 10.8758 26.768 12.2699 25.9978 13.2124L23.9651 15.6988C23.4884 16.2821 23.2366 17.0173 23.2557 17.7703L23.3371 20.981C23.3679 22.1977 22.3821 23.1967 21.1651 23.1823L17.9531 23.1439C17.1999 23.1349 16.4683 23.3964 15.8914 23.8808L13.4314 25.9465C12.4993 26.729 11.1036 26.5813 10.3562 25.6207L8.38408 23.0858C7.92151 22.4913 7.26071 22.0822 6.52231 21.9332L3.37406 21.2986C2.18094 21.0578 1.42666 19.8736 1.7117 18.6903L2.46368 15.5685C2.64008 14.8362 2.54795 14.0645 2.20406 13.3943L0.737728 10.5365C0.182038 9.45367 0.636429 8.12582 1.73918 7.61081L4.64993 6.25207C5.33244 5.93338 5.87816 5.38009 6.18769 4.69337L7.50788 1.76574Z" fill="url(#paint0_radial_1_33656)"/>
<path d="M7.50788 1.76574C8.00805 0.65606 9.32905 0.183909 10.4193 0.725134L13.2961 2.15267C13.9708 2.4876 14.7436 2.56963 15.4735 2.38349L18.586 1.58938C19.7654 1.28871 20.9585 2.0277 21.2151 3.21746L21.8925 6.35724C22.0513 7.09356 22.4692 7.74888 23.0698 8.20345L25.6302 10.1413C26.6007 10.8758 26.768 12.2699 25.9978 13.2124L23.9651 15.6988C23.4884 16.2821 23.2366 17.0173 23.2557 17.7703L23.3371 20.981C23.3679 22.1977 22.3821 23.1967 21.1651 23.1823L17.9531 23.1439C17.1999 23.1349 16.4683 23.3964 15.8914 23.8808L13.4314 25.9465C12.4993 26.729 11.1036 26.5813 10.3562 25.6207L8.38408 23.0858C7.92151 22.4913 7.26071 22.0822 6.52231 21.9332L3.37406 21.2986C2.18094 21.0578 1.42666 19.8736 1.7117 18.6903L2.46368 15.5685C2.64008 14.8362 2.54795 14.0645 2.20406 13.3943L0.737728 10.5365C0.182038 9.45367 0.636429 8.12582 1.73918 7.61081L4.64993 6.25207C5.33244 5.93338 5.87816 5.38009 6.18769 4.69337L7.50788 1.76574Z" stroke="white"/>
<defs>
<radialGradient id="paint0_radial_1_33656" cx="0" cy="0" r="1" gradientUnits="userSpaceOnUse" gradientTransform="translate(15.7277 4.66846) rotate(-78.0938) scale(36.7438)">
<stop stop-color="#FF9316"/>
<stop offset="0.296573" stop-color="#FF9316"/>
<stop offset="0.299277" stop-color="#FF9316" stop-opacity="0"/>
</radialGradient>
</defs>
</svg>
