<svg width="219" height="93" viewBox="0 0 219 93" fill="none" xmlns="http://www.w3.org/2000/svg">
<path d="M187.32 18.2422H170.069V37.0801H187.32V55.9189H170.069V74.7578H187.32V93H204.584V74.7578H217.363L217.739 55.9189H204.584V37.0801H218.114L218.49 18.2422H204.584V0H187.32V18.2422ZM135.56 74.7568H152.813V93H170.064V74.7578H152.813V55.9189H135.56V74.7568ZM118.304 18.2412H101.048V0H83.7842V18.2412H66.5283V0H49.2715V18.2422H32.0186V37.0801H49.2715V55.9189H32.0186V74.7578H49.2715V93H66.5283V74.7568H83.7842V93H101.048V74.7568H118.304V93H135.558V74.7578H118.304V55.9189H135.558V37.0801H118.304V18.2412H135.558V0H118.304V18.2412ZM14.7646 93H32.0146V74.7578H14.7646V93ZM204.583 74.7578H187.327V55.9189H204.583V74.7578ZM101.045 74.7578H83.7891V55.9189H101.045V74.7578ZM66.5283 74.7578H49.2725V55.9189H66.5283V74.7578ZM0 74.7568H14.7627V55.9189H0V74.7568ZM135.56 37.0801H152.813V55.9189H170.064V37.0801H152.813V18.2412H135.56V37.0801ZM118.304 55.9189H101.048V37.0801H118.304V55.9189ZM83.7842 55.9189H66.5283V37.0801H83.7842V55.9189ZM14.7646 55.9189H32.0146V37.0801H14.7646V55.9189ZM204.583 37.0801H187.327V18.2412H204.583V37.0801ZM101.045 37.0801H83.7891V18.2412H101.045V37.0801ZM66.5283 37.0801H49.2725V18.2412H66.5283V37.0801ZM0 37.0801H14.7627V18.2412H0V37.0801ZM152.813 18.2412H170.064V0H152.813V18.2412ZM14.7646 18.2412H32.0146V0H14.7646V18.2412Z" fill="url(#paint0_linear_1_33862)" fill-opacity="0.3"/>
<defs>
<linearGradient id="paint0_linear_1_33862" x1="-30.102" y1="38.2452" x2="218.487" y2="46.5878" gradientUnits="userSpaceOnUse">
<stop offset="0.165588" stop-color="white"/>
<stop offset="1" stop-color="white" stop-opacity="0"/>
</linearGradient>
</defs>
</svg>
