<svg width="160" height="68" viewBox="0 0 160 68" fill="none" xmlns="http://www.w3.org/2000/svg">
<path d="M9.02832 3.56445H16.9912V12.2598H9.02832V20.9561H16.9912V29.6514H9.02832V38.3477H16.9912V47.043H9.02832V55.7393H16.9941V47.0439H24.9561V55.7393H32.9209V64.4355H24.957V55.7402H16.9912V64.4355H24.9561V68H16.9941V64.4365H9.02832V68H1.28418L1.21289 64.4355H9.02539V55.7402H1.05957V56.7314L1.04004 55.7402H1.05957V47.0439H0.866211L0.693359 38.3477H1.05957V29.6514H0.519531L0.34668 20.9561H1.05957V12.2598H0.172852L0 3.56445H1.05957V0H9.02832V3.56445ZM56.8203 3.56445H64.7861V0H72.751V3.56445H64.7861V12.2607H72.751V20.9561H64.7861V29.6523H72.751V38.3477H64.7861V47.0439H72.751V55.7393H80.7158V64.4355H72.752V55.7402H64.7861V64.4355H56.8203V68H48.8516V64.4365H40.8857V68H32.9219V64.4355H40.8867V55.7393H48.8516V47.043H40.8867V38.3477H48.8516V29.6514H40.8867V20.9561H48.8516V12.2598H40.8867V3.56445H48.8516V0H56.8203V3.56445ZM72.751 68H64.7861V64.4355H72.751V68ZM88.6797 68H80.7168V64.4355H88.6797V68ZM104.612 3.56445H112.578V0H120.545V3.56445H112.581V12.2607H120.545V20.9561H112.581V29.6523H120.545V38.3477H112.581V47.0439H120.545V55.7393H112.581V64.4355H120.547V55.7393H128.51V64.4355H136.476V55.7393H128.511V47.0439H136.476V38.3477H128.511V29.6523H136.476V20.9561H128.511V12.2607H136.476V3.56445H128.511V0H136.476V3.56445H144.44V0H152.405V3.56445H144.441V12.2607H152.405V20.9561H144.441V29.6523H152.405V38.3477H144.441V47.0439H152.405V55.7402H144.441V64.4355H152.405V68H144.44V64.4365H136.476V68H128.511V64.4365H120.545V68H112.578V64.4355H104.612V68H96.6455V64.4355H104.61V55.7402H96.6445V64.4355H88.6816V55.7393H96.6455V47.0439H104.61V38.3477H96.6455V29.6523H104.61V20.9561H96.6455V12.2607H104.61V3.56445H96.6455V0H104.612V3.56445ZM48.8525 64.4355H56.8184V55.7402H48.8525V64.4355ZM159.951 64.4355H152.407V55.7402H159.951V64.4355ZM104.612 55.7402H112.578V47.0439H104.612V55.7402ZM40.8857 55.7393H32.9219V47.0439H40.8857V55.7393ZM56.8203 55.7393H64.7861V47.043H56.8203V55.7393ZM88.6797 55.7393H80.7168V47.0439H88.6797V55.7393ZM136.476 55.7393H144.44V47.043H136.476V55.7393ZM1.05957 47.0439H9.02539V38.3477H1.05957V47.0439ZM48.8525 47.0439H56.8184V38.3477H48.8525V47.0439ZM159.951 47.0439H152.407V38.3477H159.951V47.0439ZM32.9209 47.043H24.957V38.3477H32.9209V47.043ZM80.7158 47.043H72.752V38.3477H80.7158V47.043ZM96.6445 47.043H88.6816V38.3477H96.6445V47.043ZM128.51 47.043H120.547V38.3477H128.51V47.043ZM24.9561 38.3477H16.9941V29.6523H24.9561V38.3477ZM40.8857 38.3477H32.9219V29.6523H40.8857V38.3477ZM56.8203 38.3477H64.7861V29.6514H56.8203V38.3477ZM88.6797 38.3477H80.7168V29.6523H88.6797V38.3477ZM104.612 38.3477H112.578V29.6514H104.612V38.3477ZM136.476 38.3477H144.44V29.6514H136.476V38.3477ZM1.05957 29.6523H9.02539V20.9561H1.05957V29.6523ZM48.8525 29.6523H56.8184V20.9561H48.8525V29.6523ZM32.9209 29.6514H24.957V20.9561H32.9209V29.6514ZM80.7158 29.6514H72.752V20.9561H80.7158V29.6514ZM96.6445 29.6514H88.6816V20.9561H96.6445V29.6514ZM128.51 29.6514H120.547V20.9561H128.51V29.6514ZM159.951 29.6514H152.407V20.9561H159.951V29.6514ZM24.9561 20.9561H16.9941V12.2607H24.9561V20.9561ZM40.8857 20.9561H32.9219V12.2607H40.8857V20.9561ZM56.8203 20.9561H64.7861V12.2598H56.8203V20.9561ZM88.6797 20.9561H80.7168V12.2607H88.6797V20.9561ZM104.612 20.9561H112.578V12.2598H104.612V20.9561ZM136.476 20.9561H144.44V12.2598H136.476V20.9561ZM1.05957 12.2607H9.02539V3.56445H1.05957V12.2607ZM48.8525 12.2607H56.8184V3.56445H48.8525V12.2607ZM32.9209 12.2598H24.957V3.56445H32.9209V12.2598ZM80.7158 12.2598H72.752V3.56445H80.7158V12.2598ZM96.6445 12.2598H88.6816V3.56445H96.6445V12.2598ZM128.51 12.2598H120.547V3.56445H128.51V12.2598ZM159.951 12.2598H152.407V3.56445H159.951V12.2598ZM24.9561 3.56445H16.9941V0H24.9561V3.56445ZM40.8857 3.56445H32.9219V0H40.8857V3.56445ZM88.6797 3.56445H80.7168V0H88.6797V3.56445Z" fill="url(#paint0_linear_1_34309)" fill-opacity="0.1"/>
<defs>
<linearGradient id="paint0_linear_1_34309" x1="181.961" y1="27.9642" x2="0.196487" y2="34.0642" gradientUnits="userSpaceOnUse">
<stop offset="0.165588" stop-color="white"/>
<stop offset="1" stop-color="white" stop-opacity="0"/>
</linearGradient>
</defs>
</svg>
