<svg width="160" height="68" viewBox="0 0 160 68" fill="none" xmlns="http://www.w3.org/2000/svg">
<path d="M150.923 3.56445H142.96V12.2598H150.923V20.9561H142.96V29.6514H150.923V38.3477H142.96V47.043H150.923V55.7393H142.957V47.0439H134.995V55.7393H127.03V64.4355H134.994V55.7402H142.96V64.4355H134.995V68H142.957V64.4365H150.923V68H158.667L158.738 64.4355H150.926V55.7402H158.892V56.7314L158.911 55.7402H158.892V47.0439H159.085L159.258 38.3477H158.892V29.6514H159.432L159.604 20.9561H158.892V12.2598H159.778L159.951 3.56445H158.892V0H150.923V3.56445ZM103.131 3.56445H95.165V0H87.2002V3.56445H95.165V12.2607H87.2002V20.9561H95.165V29.6523H87.2002V38.3477H95.165V47.0439H87.2002V55.7393H79.2354V64.4355H87.1992V55.7402H95.165V64.4355H103.131V68H111.1V64.4365H119.065V68H127.029V64.4355H119.064V55.7393H111.1V47.043H119.064V38.3477H111.1V29.6514H119.064V20.9561H111.1V12.2598H119.064V3.56445H111.1V0H103.131V3.56445ZM87.2002 68H95.165V64.4355H87.2002V68ZM71.2715 68H79.2344V64.4355H71.2715V68ZM55.3389 3.56445H47.373V0H39.4062V3.56445H47.3701V12.2607H39.4062V20.9561H47.3701V29.6523H39.4062V38.3477H47.3701V47.0439H39.4062V55.7393H47.3701V64.4355H39.4043V55.7393H31.4414V64.4355H23.4756V55.7393H31.4404V47.0439H23.4756V38.3477H31.4404V29.6523H23.4756V20.9561H31.4404V12.2607H23.4756V3.56445H31.4404V0H23.4756V3.56445H15.5107V0H7.5459V3.56445H15.5098V12.2607H7.5459V20.9561H15.5098V29.6523H7.5459V38.3477H15.5098V47.0439H7.5459V55.7402H15.5098V64.4355H7.5459V68H15.5107V64.4365H23.4756V68H31.4404V64.4365H39.4062V68H47.373V64.4355H55.3389V68H63.3057V64.4355H55.3408V55.7402H63.3066V64.4355H71.2695V55.7393H63.3057V47.0439H55.3408V38.3477H63.3057V29.6523H55.3408V20.9561H63.3057V12.2607H55.3408V3.56445H63.3057V0H55.3389V3.56445ZM111.099 64.4355H103.133V55.7402H111.099V64.4355ZM0 64.4355H7.54395V55.7402H0V64.4355ZM55.3389 55.7402H47.373V47.0439H55.3389V55.7402ZM119.065 55.7393H127.029V47.0439H119.065V55.7393ZM103.131 55.7393H95.165V47.043H103.131V55.7393ZM71.2715 55.7393H79.2344V47.0439H71.2715V55.7393ZM23.4756 55.7393H15.5107V47.043H23.4756V55.7393ZM158.892 47.0439H150.926V38.3477H158.892V47.0439ZM111.099 47.0439H103.133V38.3477H111.099V47.0439ZM0 47.0439H7.54395V38.3477H0V47.0439ZM127.03 47.043H134.994V38.3477H127.03V47.043ZM79.2354 47.043H87.1992V38.3477H79.2354V47.043ZM63.3066 47.043H71.2695V38.3477H63.3066V47.043ZM31.4414 47.043H39.4043V38.3477H31.4414V47.043ZM134.995 38.3477H142.957V29.6523H134.995V38.3477ZM119.065 38.3477H127.029V29.6523H119.065V38.3477ZM103.131 38.3477H95.165V29.6514H103.131V38.3477ZM71.2715 38.3477H79.2344V29.6523H71.2715V38.3477ZM55.3389 38.3477H47.373V29.6514H55.3389V38.3477ZM23.4756 38.3477H15.5107V29.6514H23.4756V38.3477ZM158.892 29.6523H150.926V20.9561H158.892V29.6523ZM111.099 29.6523H103.133V20.9561H111.099V29.6523ZM127.03 29.6514H134.994V20.9561H127.03V29.6514ZM79.2354 29.6514H87.1992V20.9561H79.2354V29.6514ZM63.3066 29.6514H71.2695V20.9561H63.3066V29.6514ZM31.4414 29.6514H39.4043V20.9561H31.4414V29.6514ZM0 29.6514H7.54395V20.9561H0V29.6514ZM134.995 20.9561H142.957V12.2607H134.995V20.9561ZM119.065 20.9561H127.029V12.2607H119.065V20.9561ZM103.131 20.9561H95.165V12.2598H103.131V20.9561ZM71.2715 20.9561H79.2344V12.2607H71.2715V20.9561ZM55.3389 20.9561H47.373V12.2598H55.3389V20.9561ZM23.4756 20.9561H15.5107V12.2598H23.4756V20.9561ZM158.892 12.2607H150.926V3.56445H158.892V12.2607ZM111.099 12.2607H103.133V3.56445H111.099V12.2607ZM127.03 12.2598H134.994V3.56445H127.03V12.2598ZM79.2354 12.2598H87.1992V3.56445H79.2354V12.2598ZM63.3066 12.2598H71.2695V3.56445H63.3066V12.2598ZM31.4414 12.2598H39.4043V3.56445H31.4414V12.2598ZM0 12.2598H7.54395V3.56445H0V12.2598ZM134.995 3.56445H142.957V0H134.995V3.56445ZM119.065 3.56445H127.029V0H119.065V3.56445ZM71.2715 3.56445H79.2344V0H71.2715V3.56445Z" fill="url(#paint0_linear_1_38464)" fill-opacity="0.1"/>
<defs>
<linearGradient id="paint0_linear_1_38464" x1="-22.0101" y1="27.9642" x2="159.755" y2="34.0642" gradientUnits="userSpaceOnUse">
<stop offset="0.165588" stop-color="white"/>
<stop offset="1" stop-color="white" stop-opacity="0"/>
</linearGradient>
</defs>
</svg>
