<svg width="80" height="11" viewBox="0 0 80 11" fill="none" xmlns="http://www.w3.org/2000/svg">
<mask id="path-1-outside-1_1_34679" maskUnits="userSpaceOnUse" x="-0.918439" y="-2.58158" width="80.5298" height="15.9616" fill="black">
<rect fill="white" x="-0.918439" y="-2.58158" width="80.5298" height="15.9616"/>
<path d="M24.1219 1.84061C25.1214 1.77825 25.9337 2.00376 26.5342 2.60003C27.0671 3.12926 27.3063 3.84546 27.4762 4.36608C27.8464 5.50067 28.1095 6.45821 29.3363 7.1433C30.6547 7.87933 33.2491 8.37307 38.5888 7.69306C43.8891 7.01802 51.728 5.21103 63.3864 1.55552L63.4018 1.55064L63.4172 1.54675C65.9491 0.841949 72.3497 -0.224181 77.8051 1.21144C78.3391 1.35205 78.6579 1.89906 78.5174 2.43312C78.3768 2.96694 77.8306 3.28641 77.2967 3.14628C72.3369 1.84098 66.3454 2.80918 63.9677 3.46834C52.2733 7.13447 44.3099 8.98082 38.8408 9.67731C33.4091 10.369 30.2658 9.9526 28.3612 8.88907C26.3651 7.77442 25.9189 6.0416 25.5746 4.9867C25.3873 4.41291 25.267 4.15994 25.1248 4.0187C25.0498 3.94439 24.8695 3.79789 24.2465 3.83673C21.9951 3.97729 20.5088 4.55569 17.4199 5.62674C14.3459 6.69264 9.84657 8.17962 1.72078 10.0213C1.18231 10.1432 0.647116 9.80563 0.524999 9.26719C0.403042 8.72869 0.740606 8.19258 1.27907 8.07044C9.31975 6.24802 13.7462 4.78253 16.7638 3.7362C19.7661 2.69515 21.539 2.00184 24.1219 1.84061Z"/>
</mask>
<path d="M24.1219 1.84061C25.1214 1.77825 25.9337 2.00376 26.5342 2.60003C27.0671 3.12926 27.3063 3.84546 27.4762 4.36608C27.8464 5.50067 28.1095 6.45821 29.3363 7.1433C30.6547 7.87933 33.2491 8.37307 38.5888 7.69306C43.8891 7.01802 51.728 5.21103 63.3864 1.55552L63.4018 1.55064L63.4172 1.54675C65.9491 0.841949 72.3497 -0.224181 77.8051 1.21144C78.3391 1.35205 78.6579 1.89906 78.5174 2.43312C78.3768 2.96694 77.8306 3.28641 77.2967 3.14628C72.3369 1.84098 66.3454 2.80918 63.9677 3.46834C52.2733 7.13447 44.3099 8.98082 38.8408 9.67731C33.4091 10.369 30.2658 9.9526 28.3612 8.88907C26.3651 7.77442 25.9189 6.0416 25.5746 4.9867C25.3873 4.41291 25.267 4.15994 25.1248 4.0187C25.0498 3.94439 24.8695 3.79789 24.2465 3.83673C21.9951 3.97729 20.5088 4.55569 17.4199 5.62674C14.3459 6.69264 9.84657 8.17962 1.72078 10.0213C1.18231 10.1432 0.647116 9.80563 0.524999 9.26719C0.403042 8.72869 0.740606 8.19258 1.27907 8.07044C9.31975 6.24802 13.7462 4.78253 16.7638 3.7362C19.7661 2.69515 21.539 2.00184 24.1219 1.84061Z" fill="#62B4FF"/>
<path d="M24.1219 1.84061C25.1214 1.77825 25.9337 2.00376 26.5342 2.60003C27.0671 3.12926 27.3063 3.84546 27.4762 4.36608C27.8464 5.50067 28.1095 6.45821 29.3363 7.1433C30.6547 7.87933 33.2491 8.37307 38.5888 7.69306C43.8891 7.01802 51.728 5.21103 63.3864 1.55552L63.4018 1.55064L63.4172 1.54675C65.9491 0.841949 72.3497 -0.224181 77.8051 1.21144C78.3391 1.35205 78.6579 1.89906 78.5174 2.43312C78.3768 2.96694 77.8306 3.28641 77.2967 3.14628C72.3369 1.84098 66.3454 2.80918 63.9677 3.46834C52.2733 7.13447 44.3099 8.98082 38.8408 9.67731C33.4091 10.369 30.2658 9.9526 28.3612 8.88907C26.3651 7.77442 25.9189 6.0416 25.5746 4.9867C25.3873 4.41291 25.267 4.15994 25.1248 4.0187C25.0498 3.94439 24.8695 3.79789 24.2465 3.83673C21.9951 3.97729 20.5088 4.55569 17.4199 5.62674C14.3459 6.69264 9.84657 8.17962 1.72078 10.0213C1.18231 10.1432 0.647116 9.80563 0.524999 9.26719C0.403042 8.72869 0.740606 8.19258 1.27907 8.07044C9.31975 6.24802 13.7462 4.78253 16.7638 3.7362C19.7661 2.69515 21.539 2.00184 24.1219 1.84061Z" fill="url(#paint0_linear_1_34679)"/>
<path d="M24.1219 1.84061L24.0908 1.34158L24.0908 1.34158L24.1219 1.84061ZM26.5342 2.60003L26.8866 2.24529L26.8865 2.24522L26.5342 2.60003ZM27.4762 4.36608L27.9515 4.21096L27.9515 4.21096L27.4762 4.36608ZM29.3363 7.1433L29.0926 7.57985L29.0926 7.57987L29.3363 7.1433ZM38.5888 7.69306L38.6519 8.18906L38.6519 8.18906L38.5888 7.69306ZM63.3864 1.55552L63.536 2.03262L63.5377 2.03209L63.3864 1.55552ZM63.4018 1.55064L63.2792 1.0659L63.2648 1.06956L63.2506 1.07407L63.4018 1.55064ZM63.4172 1.54675L63.5398 2.03163L63.5513 2.02843L63.4172 1.54675ZM77.8051 1.21144L77.9324 0.727919L77.9324 0.727901L77.8051 1.21144ZM78.5174 2.43312L79.0009 2.56043L79.0009 2.56037L78.5174 2.43312ZM77.2967 3.14628L77.1695 3.62981L77.1698 3.62989L77.2967 3.14628ZM63.9677 3.46834L63.8341 2.98651L63.826 2.98874L63.8181 2.99124L63.9677 3.46834ZM38.8408 9.67731L38.9039 10.1733L38.9039 10.1733L38.8408 9.67731ZM28.3612 8.88907L28.1174 9.32562L28.1174 9.32563L28.3612 8.88907ZM25.5746 4.9867L26.0499 4.83158L26.0499 4.83157L25.5746 4.9867ZM25.1248 4.0187L25.4771 3.66396L25.4769 3.66374L25.1248 4.0187ZM24.2465 3.83673L24.2154 3.33769L24.2153 3.3377L24.2465 3.83673ZM17.4199 5.62674L17.5837 6.09914L17.5837 6.09914L17.4199 5.62674ZM1.72078 10.0213L1.83114 10.509L1.8313 10.509L1.72078 10.0213ZM0.524999 9.26719L0.0373481 9.37763L0.0373827 9.37779L0.524999 9.26719ZM1.27907 8.07044L1.16855 7.58281L1.16846 7.58283L1.27907 8.07044ZM16.7638 3.7362L16.9276 4.20861L16.9276 4.20861L16.7638 3.7362ZM24.1219 1.84061L24.153 2.33964C25.0594 2.28309 25.7133 2.48949 26.182 2.95484L26.5342 2.60003L26.8865 2.24522C26.1542 1.51804 25.1834 1.27341 24.0908 1.34158L24.1219 1.84061ZM26.5342 2.60003L26.1819 2.95477C26.6178 3.38774 26.8274 3.98992 27.0008 4.5212L27.4762 4.36608L27.9515 4.21096C27.7851 3.70101 27.5163 2.87079 26.8866 2.24529L26.5342 2.60003ZM27.4762 4.36608L27.0008 4.5212C27.3639 5.6337 27.6726 6.78693 29.0926 7.57985L29.3363 7.1433L29.5801 6.70675C28.5464 6.12949 28.329 5.36764 27.9515 4.21096L27.4762 4.36608ZM29.3363 7.1433L29.0926 7.57987C30.5576 8.39776 33.2894 8.87197 38.6519 8.18906L38.5888 7.69306L38.5256 7.19707C33.2088 7.87416 30.7518 7.3609 29.5801 6.70673L29.3363 7.1433ZM38.5888 7.69306L38.6519 8.18906C43.9952 7.50856 51.8664 5.69163 63.536 2.03261L63.3864 1.55552L63.2369 1.07842C51.5896 4.73042 43.7831 6.52748 38.5256 7.19707L38.5888 7.69306ZM63.3864 1.55552L63.5377 2.03209L63.553 2.02722L63.4018 1.55064L63.2506 1.07407L63.2352 1.07894L63.3864 1.55552ZM63.4018 1.55064L63.5244 2.03539L63.5398 2.03149L63.4172 1.54675L63.2946 1.062L63.2792 1.0659L63.4018 1.55064ZM63.4172 1.54675L63.5513 2.02843C66.0422 1.33502 72.344 0.29132 77.6779 1.69498L77.8051 1.21144L77.9324 0.727901C72.3555 -0.739683 65.8559 0.348877 63.2831 1.06506L63.4172 1.54675ZM77.8051 1.21144L77.6778 1.69496C77.9446 1.76521 78.1042 2.03862 78.0338 2.30587L78.5174 2.43312L79.0009 2.56037C79.2117 1.7595 78.7337 0.938896 77.9324 0.727919L77.8051 1.21144ZM78.5174 2.43312L78.0338 2.30581C77.9634 2.57326 77.69 2.73258 77.4237 2.66266L77.2967 3.14628L77.1698 3.62989C77.9711 3.84024 78.7902 3.36062 79.0009 2.56043L78.5174 2.43312ZM77.2967 3.14628L77.424 2.66274C72.3429 1.32554 66.2526 2.31604 63.8341 2.98651L63.9677 3.46834L64.1012 3.95017C66.4381 3.30233 72.3308 2.35642 77.1695 3.62981L77.2967 3.14628ZM63.9677 3.46834L63.8181 2.99124C52.1349 6.65387 44.2039 8.49028 38.7776 9.18132L38.8408 9.67731L38.9039 10.1733C44.416 9.47135 52.4118 7.61507 64.1172 3.94544L63.9677 3.46834ZM38.8408 9.67731L38.7776 9.18132C33.369 9.87007 30.3631 9.43425 28.6049 8.45252L28.3612 8.88907L28.1174 9.32563C30.1686 10.471 33.4491 10.868 38.9039 10.1733L38.8408 9.67731ZM28.3612 8.88907L28.6049 8.45253C26.8006 7.44495 26.4002 5.90482 26.0499 4.83158L25.5746 4.9867L25.0993 5.14182C25.4375 6.17838 25.9296 8.10389 28.1174 9.32562L28.3612 8.88907ZM25.5746 4.9867L26.0499 4.83157C25.8684 4.27529 25.7181 3.90332 25.4771 3.66396L25.1248 4.0187L24.7724 4.37344C24.7863 4.3873 24.8221 4.4286 24.8797 4.55207C24.938 4.67683 25.0075 4.8606 25.0993 5.14183L25.5746 4.9867ZM25.1248 4.0187L25.4769 3.66374C25.3946 3.58211 25.2635 3.47731 25.0393 3.40774C24.8311 3.34312 24.5653 3.31588 24.2154 3.33769L24.2465 3.83673L24.2776 4.33576C24.5507 4.31873 24.6866 4.34533 24.743 4.36283C24.7693 4.371 24.7778 4.37702 24.7757 4.3757C24.7727 4.37374 24.7697 4.37075 24.7726 4.37366L25.1248 4.0187ZM24.2465 3.83673L24.2153 3.3377C21.881 3.48345 20.3226 4.09105 17.2561 5.15433L17.4199 5.62674L17.5837 6.09914C20.6949 5.02034 22.1093 4.47114 24.2776 4.33575L24.2465 3.83673ZM17.4199 5.62674L17.2561 5.15433C14.1962 6.21533 9.7149 7.69678 1.61026 9.53369L1.72078 10.0213L1.8313 10.509C9.97825 8.66246 14.4955 7.16996 17.5837 6.09914L17.4199 5.62674ZM1.72078 10.0213L1.61041 9.53366C1.34125 9.59457 1.07369 9.42588 1.01261 9.1566L0.524999 9.26719L0.0373827 9.37779C0.220544 10.1854 1.02337 10.6918 1.83114 10.509L1.72078 10.0213ZM0.524999 9.26719L1.01265 9.15675C0.951599 8.88718 1.12077 8.61905 1.38968 8.55805L1.27907 8.07044L1.16846 7.58283C0.360442 7.76612 -0.145516 8.57019 0.0373481 9.37763L0.524999 9.26719ZM1.27907 8.07044L1.38959 8.55807C9.45147 6.73084 13.8959 5.25983 16.9276 4.20861L16.7638 3.7362L16.6 3.26379C13.5964 4.30524 9.18802 5.76519 1.16855 7.58281L1.27907 8.07044ZM16.7638 3.7362L16.9276 4.20861C19.9511 3.16024 21.6528 2.49571 24.1531 2.33964L24.1219 1.84061L24.0908 1.34158C21.4252 1.50797 19.5812 2.23006 16.6 3.26379L16.7638 3.7362Z" fill="white" mask="url(#path-1-outside-1_1_34679)"/>
<defs>
<linearGradient id="paint0_linear_1_34679" x1="-25.2654" y1="9.10263" x2="139.463" y2="-7.36109" gradientUnits="userSpaceOnUse">
<stop stop-color="white"/>
<stop offset="1" stop-color="white" stop-opacity="0"/>
</linearGradient>
</defs>
</svg>
