<svg width="80" height="11" viewBox="0 0 80 11" fill="none" xmlns="http://www.w3.org/2000/svg">
<mask id="path-1-outside-1_1_39659" maskUnits="userSpaceOnUse" x="-0.918378" y="-2.58182" width="80.5298" height="15.9616" fill="black">
<rect fill="white" x="-0.918378" y="-2.58182" width="80.5298" height="15.9616"/>
<path d="M24.122 1.84036C25.1213 1.77807 25.9339 2.00358 26.5343 2.59978C27.0671 3.12903 27.3064 3.84526 27.4762 4.36583C27.8465 5.50038 28.1087 6.45803 29.3355 7.14312C30.6537 7.87923 33.248 8.37286 38.5879 7.69288C43.8883 7.01786 51.7279 5.21083 63.3865 1.55527L63.4019 1.5504L63.4163 1.54656C65.9479 0.841786 72.3487 -0.224234 77.8042 1.21125C78.3383 1.35181 78.6579 1.8988 78.5174 2.43287C78.3769 2.96681 77.8298 3.28645 77.2958 3.14609C72.3358 1.84086 66.3443 2.80901 63.9668 3.46816C52.2728 7.13418 44.31 8.98057 38.8408 9.67707C33.4089 10.3688 30.2649 9.95248 28.3603 8.88889C26.3645 7.77423 25.9189 6.04129 25.5747 4.98646C25.3875 4.41281 25.267 4.15973 25.1248 4.01846C25.0499 3.94415 24.8696 3.79765 24.2466 3.83648C21.9951 3.97701 20.5088 4.55546 17.42 5.62649C14.3459 6.6924 9.84666 8.17938 1.72086 10.0211C1.18231 10.1431 0.647243 9.80545 0.525082 9.26695C0.403137 8.7285 0.739811 8.19247 1.27818 8.07026C9.31916 6.24778 13.7462 4.78231 16.7639 3.73595C19.7661 2.69496 21.5391 2.00159 24.122 1.84036Z"/>
</mask>
<path d="M24.122 1.84036C25.1213 1.77807 25.9339 2.00358 26.5343 2.59978C27.0671 3.12903 27.3064 3.84526 27.4762 4.36583C27.8465 5.50038 28.1087 6.45803 29.3355 7.14312C30.6537 7.87923 33.248 8.37286 38.5879 7.69288C43.8883 7.01786 51.7279 5.21083 63.3865 1.55527L63.4019 1.5504L63.4163 1.54656C65.9479 0.841786 72.3487 -0.224234 77.8042 1.21125C78.3383 1.35181 78.6579 1.8988 78.5174 2.43287C78.3769 2.96681 77.8298 3.28645 77.2958 3.14609C72.3358 1.84086 66.3443 2.80901 63.9668 3.46816C52.2728 7.13418 44.31 8.98057 38.8408 9.67707C33.4089 10.3688 30.2649 9.95248 28.3603 8.88889C26.3645 7.77423 25.9189 6.04129 25.5747 4.98646C25.3875 4.41281 25.267 4.15973 25.1248 4.01846C25.0499 3.94415 24.8696 3.79765 24.2466 3.83648C21.9951 3.97701 20.5088 4.55546 17.42 5.62649C14.3459 6.6924 9.84666 8.17938 1.72086 10.0211C1.18231 10.1431 0.647243 9.80545 0.525082 9.26695C0.403137 8.7285 0.739811 8.19247 1.27818 8.07026C9.31916 6.24778 13.7462 4.78231 16.7639 3.73595C19.7661 2.69496 21.5391 2.00159 24.122 1.84036Z" fill="#9A41FE"/>
<path d="M24.122 1.84036C25.1213 1.77807 25.9339 2.00358 26.5343 2.59978C27.0671 3.12903 27.3064 3.84526 27.4762 4.36583C27.8465 5.50038 28.1087 6.45803 29.3355 7.14312C30.6537 7.87923 33.248 8.37286 38.5879 7.69288C43.8883 7.01786 51.7279 5.21083 63.3865 1.55527L63.4019 1.5504L63.4163 1.54656C65.9479 0.841786 72.3487 -0.224234 77.8042 1.21125C78.3383 1.35181 78.6579 1.8988 78.5174 2.43287C78.3769 2.96681 77.8298 3.28645 77.2958 3.14609C72.3358 1.84086 66.3443 2.80901 63.9668 3.46816C52.2728 7.13418 44.31 8.98057 38.8408 9.67707C33.4089 10.3688 30.2649 9.95248 28.3603 8.88889C26.3645 7.77423 25.9189 6.04129 25.5747 4.98646C25.3875 4.41281 25.267 4.15973 25.1248 4.01846C25.0499 3.94415 24.8696 3.79765 24.2466 3.83648C21.9951 3.97701 20.5088 4.55546 17.42 5.62649C14.3459 6.6924 9.84666 8.17938 1.72086 10.0211C1.18231 10.1431 0.647243 9.80545 0.525082 9.26695C0.403137 8.7285 0.739811 8.19247 1.27818 8.07026C9.31916 6.24778 13.7462 4.78231 16.7639 3.73595C19.7661 2.69496 21.5391 2.00159 24.122 1.84036Z" fill="url(#paint0_linear_1_39659)"/>
<path d="M24.122 1.84036L24.0909 1.34133L24.0908 1.34133L24.122 1.84036ZM26.5343 2.59978L26.8867 2.24507L26.8866 2.24497L26.5343 2.59978ZM27.4762 4.36583L27.9516 4.21071L27.9516 4.21071L27.4762 4.36583ZM29.3355 7.14312L29.0917 7.57965L29.0917 7.57967L29.3355 7.14312ZM38.5879 7.69288L38.651 8.18887L38.651 8.18887L38.5879 7.69288ZM63.3865 1.55527L63.5361 2.03237L63.5378 2.03185L63.3865 1.55527ZM63.4019 1.5504L63.2735 1.06717L63.262 1.07022L63.2506 1.07382L63.4019 1.5504ZM63.4163 1.54656L63.5447 2.02983L63.5504 2.02824L63.4163 1.54656ZM77.8042 1.21125L77.9315 0.727718L77.9315 0.727712L77.8042 1.21125ZM78.5174 2.43287L79.001 2.56018L79.001 2.56008L78.5174 2.43287ZM77.2958 3.14609L77.1686 3.62963L77.1687 3.62966L77.2958 3.14609ZM63.9668 3.46816L63.8332 2.98633L63.8252 2.98856L63.8172 2.99105L63.9668 3.46816ZM38.8408 9.67707L38.904 10.1731V10.1731L38.8408 9.67707ZM28.3603 8.88889L28.1165 9.32542L28.1165 9.32544L28.3603 8.88889ZM25.5747 4.98646L26.05 4.83134L26.05 4.83133L25.5747 4.98646ZM25.1248 4.01846L25.4773 3.66383L25.477 3.66349L25.1248 4.01846ZM24.2466 3.83648L24.2155 3.33745L24.2154 3.33745L24.2466 3.83648ZM17.42 5.62649L17.5838 6.0989L17.5838 6.0989L17.42 5.62649ZM1.72086 10.0211L1.83137 10.5087L1.83138 10.5087L1.72086 10.0211ZM0.525082 9.26695L0.0374314 9.37739L0.0374714 9.37756L0.525082 9.26695ZM1.27818 8.07026L1.16766 7.58262L1.16749 7.58266L1.27818 8.07026ZM16.7639 3.73595L16.9277 4.20836L16.9277 4.20836L16.7639 3.73595ZM24.122 1.84036L24.1531 2.33939C25.0593 2.2829 25.7134 2.48931 26.182 2.95459L26.5343 2.59978L26.8866 2.24497C26.1543 1.51784 25.1833 1.27323 24.0909 1.34133L24.122 1.84036ZM26.5343 2.59978L26.1819 2.95449C26.6178 3.3875 26.8276 3.98976 27.0009 4.52096L27.4762 4.36583L27.9516 4.21071C27.7851 3.70076 27.5163 2.87056 26.8867 2.24507L26.5343 2.59978ZM27.4762 4.36583L27.0009 4.52096C27.3638 5.63304 27.6717 6.78667 29.0917 7.57965L29.3355 7.14312L29.5792 6.70658C28.5457 6.1294 28.3292 5.36771 27.9516 4.21071L27.4762 4.36583ZM29.3355 7.14312L29.0917 7.57967C30.5566 8.39767 33.2884 8.87176 38.651 8.18887L38.5879 7.69288L38.5247 7.19688C33.2077 7.87395 30.7508 7.36079 29.5792 6.70657L29.3355 7.14312ZM38.5879 7.69288L38.651 8.18887C43.9943 7.50839 51.8663 5.69144 63.5361 2.03237L63.3865 1.55527L63.2369 1.07817C51.5895 4.73022 43.7822 6.52732 38.5247 7.19688L38.5879 7.69288ZM63.3865 1.55527L63.5378 2.03185L63.5531 2.02697L63.4019 1.5504L63.2506 1.07382L63.2353 1.07869L63.3865 1.55527ZM63.4019 1.5504L63.5303 2.03363L63.5447 2.02979L63.4163 1.54656L63.2879 1.06333L63.2735 1.06717L63.4019 1.5504ZM63.4163 1.54656L63.5504 2.02824C66.041 1.33486 72.343 0.291263 77.677 1.69479L77.8042 1.21125L77.9315 0.727712C72.3545 -0.739731 65.8547 0.348709 63.2822 1.06488L63.4163 1.54656ZM77.8042 1.21125L77.677 1.69479C77.9444 1.76518 78.104 2.03905 78.0339 2.30566L78.5174 2.43287L79.001 2.56008C79.2119 1.75855 78.7322 0.938435 77.9315 0.727718L77.8042 1.21125ZM78.5174 2.43287L78.0339 2.30557C77.9635 2.5729 77.6896 2.7326 77.4229 2.66252L77.2958 3.14609L77.1687 3.62966C77.97 3.84029 78.7902 3.36072 79.001 2.56018L78.5174 2.43287ZM77.2958 3.14609L77.4231 2.66255C72.3419 1.32542 66.2515 2.31586 63.8332 2.98633L63.9668 3.46816L64.1003 3.94998C66.437 3.30215 72.3298 2.35629 77.1686 3.62963L77.2958 3.14609ZM63.9668 3.46816L63.8172 2.99105C52.1343 6.65358 44.2039 8.49003 38.7777 9.18107L38.8408 9.67707L38.904 10.1731C44.416 9.4711 52.4112 7.61477 64.1163 3.94526L63.9668 3.46816ZM38.8408 9.67707L38.7777 9.18107C33.3689 9.86987 30.3622 9.43411 28.604 8.45234L28.3603 8.88889L28.1165 9.32544C30.1677 10.4708 33.449 10.8677 38.904 10.1731L38.8408 9.67707ZM28.3603 8.88889L28.6041 8.45236C26.8001 7.44481 26.4003 5.90471 26.05 4.83134L25.5747 4.98646L25.0994 5.14158C25.4375 6.17787 25.9289 8.10364 28.1165 9.32542L28.3603 8.88889ZM25.5747 4.98646L26.05 4.83133C25.8685 4.27506 25.7181 3.90316 25.4773 3.66383L25.1248 4.01846L24.7724 4.37308C24.7864 4.387 24.8221 4.4284 24.8798 4.55191C24.9381 4.67669 25.0076 4.86046 25.0994 5.14158L25.5747 4.98646ZM25.1248 4.01846L25.477 3.66349C25.3947 3.58186 25.2636 3.47706 25.0394 3.4075C24.8312 3.34288 24.5654 3.31564 24.2155 3.33745L24.2466 3.83648L24.2777 4.33551C24.5508 4.31849 24.6867 4.34508 24.7431 4.36258C24.7694 4.37076 24.7779 4.37678 24.7758 4.37545C24.7727 4.3735 24.7698 4.37051 24.7727 4.37342L25.1248 4.01846ZM24.2466 3.83648L24.2154 3.33745C21.8809 3.48316 20.3226 4.09082 17.2562 5.15408L17.42 5.62649L17.5838 6.0989C20.695 5.02011 22.1093 4.47086 24.2777 4.33551L24.2466 3.83648ZM17.42 5.62649L17.2562 5.15408C14.1963 6.21509 9.71498 7.69654 1.61034 9.53345L1.72086 10.0211L1.83138 10.5087C9.97833 8.66221 14.4956 7.16971 17.5838 6.0989L17.42 5.62649ZM1.72086 10.0211L1.61035 9.53344C1.34137 9.5944 1.07384 9.42588 1.01269 9.15633L0.525082 9.26695L0.0374714 9.37756C0.220647 10.185 1.02325 10.6919 1.83137 10.5087L1.72086 10.0211ZM0.525082 9.26695L1.01273 9.15651C0.951552 8.88636 1.12061 8.61875 1.38887 8.55785L1.27818 8.07026L1.16749 7.58266C0.35901 7.7662 -0.145277 8.57063 0.0374314 9.37739L0.525082 9.26695ZM1.27818 8.07026L1.3887 8.55789C9.45088 6.73061 13.8959 5.25961 16.9277 4.20836L16.7639 3.73595L16.6001 3.26355C13.5965 4.30501 9.18745 5.76495 1.16766 7.58262L1.27818 8.07026ZM16.7639 3.73595L16.9277 4.20836C19.951 3.16005 21.653 2.49546 24.1531 2.33939L24.122 1.84036L24.0908 1.34133C21.4253 1.50772 19.5812 2.22987 16.6001 3.26355L16.7639 3.73595Z" fill="white" mask="url(#path-1-outside-1_1_39659)"/>
<defs>
<linearGradient id="paint0_linear_1_39659" x1="-25.2653" y1="9.10239" x2="139.463" y2="-7.36134" gradientUnits="userSpaceOnUse">
<stop stop-color="white"/>
<stop offset="1" stop-color="white" stop-opacity="0"/>
</linearGradient>
</defs>
</svg>
