<svg width="80" height="11" viewBox="0 0 80 11" fill="none" xmlns="http://www.w3.org/2000/svg">
<mask id="path-1-outside-1_1_36027" maskUnits="userSpaceOnUse" x="-0.918423" y="-2.58182" width="80.5298" height="15.9616" fill="black">
<rect fill="white" x="-0.918423" y="-2.58182" width="80.5298" height="15.9616"/>
<path d="M24.1219 1.84036C25.1212 1.778 25.9337 2.00284 26.5342 2.59881C27.0672 3.12805 27.3062 3.84513 27.4762 4.36583C27.8464 5.50042 28.1095 6.45797 29.3364 7.14306C30.6546 7.87917 33.2488 8.37283 38.5888 7.69282C43.8891 7.0178 51.728 5.21077 63.3865 1.55527L63.4028 1.55034L63.4172 1.5465C65.9488 0.841717 72.3496 -0.224379 77.8051 1.21119C78.3392 1.35174 78.6588 1.89875 78.5184 2.43281C78.3778 2.96675 77.8307 3.28639 77.2967 3.14603C72.3367 1.84071 66.3452 2.80894 63.9677 3.4681C52.2737 7.13411 44.3109 8.98048 38.8418 9.67701C33.4098 10.3687 30.2658 9.95242 28.3612 8.88883C26.3652 7.77417 25.9198 6.04126 25.5756 4.9864C25.3884 4.41285 25.2678 4.15971 25.1257 4.0184C25.0508 3.94409 24.8704 3.79761 24.2475 3.83642C21.9958 3.97694 20.5091 4.55535 17.4199 5.62649C14.3459 6.69239 9.8472 8.17939 1.72177 10.021C1.18318 10.1431 0.647143 9.80551 0.525014 9.26695C0.403057 8.72844 0.740622 8.19234 1.27908 8.0702C9.32004 6.24773 13.7471 4.78225 16.7648 3.73589C19.7667 2.69499 21.5393 2.00163 24.1219 1.84036Z"/>
</mask>
<path d="M24.1219 1.84036C25.1212 1.778 25.9337 2.00284 26.5342 2.59881C27.0672 3.12805 27.3062 3.84513 27.4762 4.36583C27.8464 5.50042 28.1095 6.45797 29.3364 7.14306C30.6546 7.87917 33.2488 8.37283 38.5888 7.69282C43.8891 7.0178 51.728 5.21077 63.3865 1.55527L63.4028 1.55034L63.4172 1.5465C65.9488 0.841717 72.3496 -0.224379 77.8051 1.21119C78.3392 1.35174 78.6588 1.89875 78.5184 2.43281C78.3778 2.96675 77.8307 3.28639 77.2967 3.14603C72.3367 1.84071 66.3452 2.80894 63.9677 3.4681C52.2737 7.13411 44.3109 8.98048 38.8418 9.67701C33.4098 10.3687 30.2658 9.95242 28.3612 8.88883C26.3652 7.77417 25.9198 6.04126 25.5756 4.9864C25.3884 4.41285 25.2678 4.15971 25.1257 4.0184C25.0508 3.94409 24.8704 3.79761 24.2475 3.83642C21.9958 3.97694 20.5091 4.55535 17.4199 5.62649C14.3459 6.69239 9.8472 8.17939 1.72177 10.021C1.18318 10.1431 0.647143 9.80551 0.525014 9.26695C0.403057 8.72844 0.740622 8.19234 1.27908 8.0702C9.32004 6.24773 13.7471 4.78225 16.7648 3.73589C19.7667 2.69499 21.5393 2.00163 24.1219 1.84036Z" fill="#985DE9"/>
<path d="M24.1219 1.84036C25.1212 1.778 25.9337 2.00284 26.5342 2.59881C27.0672 3.12805 27.3062 3.84513 27.4762 4.36583C27.8464 5.50042 28.1095 6.45797 29.3364 7.14306C30.6546 7.87917 33.2488 8.37283 38.5888 7.69282C43.8891 7.0178 51.728 5.21077 63.3865 1.55527L63.4028 1.55034L63.4172 1.5465C65.9488 0.841717 72.3496 -0.224379 77.8051 1.21119C78.3392 1.35174 78.6588 1.89875 78.5184 2.43281C78.3778 2.96675 77.8307 3.28639 77.2967 3.14603C72.3367 1.84071 66.3452 2.80894 63.9677 3.4681C52.2737 7.13411 44.3109 8.98048 38.8418 9.67701C33.4098 10.3687 30.2658 9.95242 28.3612 8.88883C26.3652 7.77417 25.9198 6.04126 25.5756 4.9864C25.3884 4.41285 25.2678 4.15971 25.1257 4.0184C25.0508 3.94409 24.8704 3.79761 24.2475 3.83642C21.9958 3.97694 20.5091 4.55535 17.4199 5.62649C14.3459 6.69239 9.8472 8.17939 1.72177 10.021C1.18318 10.1431 0.647143 9.80551 0.525014 9.26695C0.403057 8.72844 0.740622 8.19234 1.27908 8.0702C9.32004 6.24773 13.7471 4.78225 16.7648 3.73589C19.7667 2.69499 21.5393 2.00163 24.1219 1.84036Z" fill="url(#paint0_linear_1_36027)"/>
<path d="M24.1219 1.84036L24.0908 1.34134L24.0908 1.34134L24.1219 1.84036ZM26.5342 2.59881L26.8865 2.24401L26.8864 2.24392L26.5342 2.59881ZM27.4762 4.36583L27.9515 4.21071L27.9515 4.21071L27.4762 4.36583ZM29.3364 7.14306L29.0926 7.5796L29.0926 7.57961L29.3364 7.14306ZM38.5888 7.69282L38.6519 8.18881L38.6519 8.18881L38.5888 7.69282ZM63.3865 1.55527L63.2418 1.07662L63.2369 1.07817L63.3865 1.55527ZM63.4028 1.55034L63.2744 1.06711L63.2662 1.06927L63.2582 1.07171L63.4028 1.55034ZM63.4172 1.5465L63.5456 2.02977L63.5513 2.02818L63.4172 1.5465ZM77.8051 1.21119L77.9324 0.727659L77.9324 0.727654L77.8051 1.21119ZM78.5184 2.43281L79.0019 2.56012L79.0019 2.56001L78.5184 2.43281ZM77.2967 3.14603L77.1695 3.62957L77.1696 3.62961L77.2967 3.14603ZM63.9677 3.4681L63.8341 2.98627L63.8261 2.9885L63.8181 2.99099L63.9677 3.4681ZM38.8418 9.67701L38.9049 10.173L38.9049 10.173L38.8418 9.67701ZM28.3612 8.88883L28.1174 9.32537L28.1174 9.32538L28.3612 8.88883ZM25.5756 4.9864L26.0509 4.83128L26.0509 4.83127L25.5756 4.9864ZM25.1257 4.0184L25.4783 3.66387L25.4779 3.66343L25.1257 4.0184ZM24.2475 3.83642L24.2164 3.33739L24.2163 3.33739L24.2475 3.83642ZM17.4199 5.62649L17.5837 6.0989L17.5837 6.0989L17.4199 5.62649ZM1.72177 10.021L1.83229 10.5087L1.83229 10.5087L1.72177 10.021ZM0.525014 9.26695L0.0373633 9.37739L0.0373948 9.37753L0.525014 9.26695ZM1.27908 8.0702L1.16856 7.58256L1.16848 7.58258L1.27908 8.0702ZM16.7648 3.73589L16.9286 4.2083L16.9286 4.2083L16.7648 3.73589ZM24.1219 1.84036L24.1531 2.33939C25.0595 2.28282 25.7135 2.48874 26.182 2.9537L26.5342 2.59881L26.8864 2.24392C26.1539 1.51694 25.1828 1.27318 24.0908 1.34134L24.1219 1.84036ZM26.5342 2.59881L26.1819 2.95361C26.6178 3.38647 26.8273 3.98924 27.0008 4.52096L27.4762 4.36583L27.9515 4.21071C27.7852 3.70102 27.5166 2.86964 26.8865 2.24401L26.5342 2.59881ZM27.4762 4.36583L27.0008 4.52096C27.3639 5.63345 27.6727 6.78669 29.0926 7.5796L29.3364 7.14306L29.5801 6.70651C28.5464 6.12925 28.329 5.3674 27.9515 4.21071L27.4762 4.36583ZM29.3364 7.14306L29.0926 7.57961C30.5575 8.39761 33.2891 8.87173 38.6519 8.18881L38.5888 7.69282L38.5256 7.19682C33.2085 7.87393 30.7518 7.36073 29.5801 6.7065L29.3364 7.14306ZM38.5888 7.69282L38.6519 8.18881C43.9951 7.50834 51.8664 5.69137 63.5361 2.03237L63.3865 1.55527L63.2369 1.07817C51.5896 4.73017 43.7831 6.52727 38.5256 7.19682L38.5888 7.69282ZM63.3865 1.55527L63.5311 2.0339L63.5474 2.02897L63.4028 1.55034L63.2582 1.07171L63.2418 1.07664L63.3865 1.55527ZM63.4028 1.55034L63.5312 2.03357L63.5456 2.02973L63.4172 1.5465L63.2888 1.06327L63.2744 1.06711L63.4028 1.55034ZM63.4172 1.5465L63.5513 2.02818C66.042 1.33479 72.3438 0.29112 77.6779 1.69473L77.8051 1.21119L77.9324 0.727654C72.3554 -0.739878 65.8556 0.348642 63.2831 1.06482L63.4172 1.5465ZM77.8051 1.21119L77.6779 1.69473C77.9453 1.76511 78.1049 2.03899 78.0348 2.30562L78.5184 2.43281L79.0019 2.56001C79.2127 1.75851 78.7331 0.938377 77.9324 0.727659L77.8051 1.21119ZM78.5184 2.43281L78.0348 2.30551C77.9644 2.57284 77.6905 2.73254 77.4238 2.66246L77.2967 3.14603L77.1696 3.62961C77.9709 3.84023 78.7911 3.36066 79.0019 2.56012L78.5184 2.43281ZM77.2967 3.14603L77.424 2.6625C72.3427 1.32527 66.2524 2.3158 63.8341 2.98627L63.9677 3.4681L64.1013 3.94992C66.438 3.30208 72.3307 2.35615 77.1695 3.62957L77.2967 3.14603ZM63.9677 3.4681L63.8181 2.99099C52.1353 6.65351 44.2048 8.48995 38.7786 9.18101L38.8418 9.67701L38.9049 10.173C44.4169 9.47101 52.4121 7.61471 64.1172 3.9452L63.9677 3.4681ZM38.8418 9.67701L38.7786 9.18101C33.3698 9.86981 30.3631 9.43406 28.6049 8.45228L28.3612 8.88883L28.1174 9.32538C30.1686 10.4708 33.4499 10.8677 38.9049 10.173L38.8418 9.67701ZM28.3612 8.88883L28.605 8.45229C26.8008 7.44475 26.4012 5.90471 26.0509 4.83128L25.5756 4.9864L25.1003 5.14152C25.4384 6.17781 25.9296 8.10359 28.1174 9.32537L28.3612 8.88883ZM25.5756 4.9864L26.0509 4.83127C25.8694 4.27499 25.719 3.90317 25.4783 3.66387L25.1257 4.0184L24.7732 4.37293C24.7872 4.3869 24.823 4.42839 24.8807 4.55192C24.939 4.67671 25.0085 4.86048 25.1003 5.14152L25.5756 4.9864ZM25.1257 4.0184L25.4779 3.66343C25.3956 3.58176 25.2645 3.47699 25.0403 3.40744C24.832 3.34283 24.5663 3.31559 24.2164 3.33739L24.2475 3.83642L24.2786 4.33545C24.5516 4.31844 24.6876 4.34503 24.744 4.36253C24.7703 4.37071 24.7788 4.37674 24.7768 4.37542C24.7737 4.37347 24.7707 4.37048 24.7736 4.37336L25.1257 4.0184ZM24.2475 3.83642L24.2163 3.33739C21.8817 3.48309 20.3229 4.09069 17.2561 5.15408L17.4199 5.62649L17.5837 6.0989C20.6952 5.02001 22.11 4.47079 24.2786 4.33545L24.2475 3.83642ZM17.4199 5.62649L17.2561 5.15408C14.1962 6.21508 9.71551 7.69656 1.61125 9.53339L1.72177 10.021L1.83229 10.5087C9.97889 8.66223 14.4956 7.16969 17.5837 6.0989L17.4199 5.62649ZM1.72177 10.021L1.61125 9.53339C1.3417 9.59448 1.07364 9.4254 1.01263 9.15637L0.525014 9.26695L0.0373948 9.37753C0.220646 10.1856 1.02466 10.6917 1.83229 10.5087L1.72177 10.021ZM0.525014 9.26695L1.01266 9.15651C0.951614 8.88694 1.12079 8.61881 1.38969 8.55781L1.27908 8.0702L1.16848 7.58258C0.360458 7.76587 -0.1455 8.56995 0.0373633 9.37739L0.525014 9.26695ZM1.27908 8.0702L1.38961 8.55783C9.45176 6.73055 13.8968 5.25955 16.9286 4.2083L16.7648 3.73589L16.601 3.26349C13.5974 4.30495 9.18833 5.7649 1.16856 7.58256L1.27908 8.0702ZM16.7648 3.73589L16.9286 4.2083C19.9516 3.16007 21.6532 2.4955 24.1531 2.33939L24.1219 1.84036L24.0908 1.34134C21.4255 1.50776 19.5818 2.22991 16.601 3.26349L16.7648 3.73589Z" fill="white" mask="url(#path-1-outside-1_1_36027)"/>
<defs>
<linearGradient id="paint0_linear_1_36027" x1="-25.2657" y1="9.1024" x2="139.465" y2="-7.36161" gradientUnits="userSpaceOnUse">
<stop stop-color="white"/>
<stop offset="1" stop-color="white" stop-opacity="0"/>
</linearGradient>
</defs>
</svg>
