<svg width="80" height="11" viewBox="0 0 80 11" fill="none" xmlns="http://www.w3.org/2000/svg">
<mask id="path-1-outside-1_1_39114" maskUnits="userSpaceOnUse" x="-0.918378" y="-2.58182" width="80.5298" height="15.9616" fill="black">
<rect fill="white" x="-0.918378" y="-2.58182" width="80.5298" height="15.9616"/>
<path d="M24.122 1.84036C25.1214 1.77802 25.9338 2.00353 26.5343 2.59978C27.0671 3.12902 27.3063 3.84523 27.4762 4.36583C27.8465 5.50033 28.1089 6.45804 29.3354 7.14312C30.6537 7.87925 33.2487 8.37288 38.5888 7.69282C43.8892 7.01777 51.7281 5.21076 63.3865 1.55527L63.4019 1.5504L63.4163 1.54656C65.9479 0.841765 72.3496 -0.224485 77.8052 1.21119C78.3392 1.35184 78.658 1.89885 78.5174 2.43287C78.3769 2.96667 77.8306 3.28611 77.2968 3.14603C72.337 1.84075 66.3455 2.80894 63.9677 3.4681C52.2734 7.13423 44.31 8.98057 38.8408 9.67707C33.4091 10.3688 30.2659 9.95234 28.3612 8.88883C26.3651 7.77417 25.9189 6.04135 25.5747 4.98646C25.3874 4.4127 25.267 4.15971 25.1248 4.01846C25.0499 3.94415 24.8696 3.79765 24.2466 3.83648C21.9952 3.97704 20.5088 4.55545 17.42 5.62649C14.3459 6.6924 9.84665 8.17938 1.72085 10.0211C1.18236 10.143 0.647206 9.8054 0.525076 9.26695C0.403148 8.72857 0.739931 8.19257 1.27817 8.07026C9.31916 6.24778 13.7462 4.78231 16.7639 3.73595C19.7662 2.69492 21.5391 2.00159 24.122 1.84036Z"/>
</mask>
<path d="M24.122 1.84036C25.1214 1.77802 25.9338 2.00353 26.5343 2.59978C27.0671 3.12902 27.3063 3.84523 27.4762 4.36583C27.8465 5.50033 28.1089 6.45804 29.3354 7.14312C30.6537 7.87925 33.2487 8.37288 38.5888 7.69282C43.8892 7.01777 51.7281 5.21076 63.3865 1.55527L63.4019 1.5504L63.4163 1.54656C65.9479 0.841765 72.3496 -0.224485 77.8052 1.21119C78.3392 1.35184 78.658 1.89885 78.5174 2.43287C78.3769 2.96667 77.8306 3.28611 77.2968 3.14603C72.337 1.84075 66.3455 2.80894 63.9677 3.4681C52.2734 7.13423 44.31 8.98057 38.8408 9.67707C33.4091 10.3688 30.2659 9.95234 28.3612 8.88883C26.3651 7.77417 25.9189 6.04135 25.5747 4.98646C25.3874 4.4127 25.267 4.15971 25.1248 4.01846C25.0499 3.94415 24.8696 3.79765 24.2466 3.83648C21.9952 3.97704 20.5088 4.55545 17.42 5.62649C14.3459 6.6924 9.84665 8.17938 1.72085 10.0211C1.18236 10.143 0.647206 9.8054 0.525076 9.26695C0.403148 8.72857 0.739931 8.19257 1.27817 8.07026C9.31916 6.24778 13.7462 4.78231 16.7639 3.73595C19.7662 2.69492 21.5391 2.00159 24.122 1.84036Z" fill="#9A41FE"/>
<path d="M24.122 1.84036C25.1214 1.77802 25.9338 2.00353 26.5343 2.59978C27.0671 3.12902 27.3063 3.84523 27.4762 4.36583C27.8465 5.50033 28.1089 6.45804 29.3354 7.14312C30.6537 7.87925 33.2487 8.37288 38.5888 7.69282C43.8892 7.01777 51.7281 5.21076 63.3865 1.55527L63.4019 1.5504L63.4163 1.54656C65.9479 0.841765 72.3496 -0.224485 77.8052 1.21119C78.3392 1.35184 78.658 1.89885 78.5174 2.43287C78.3769 2.96667 77.8306 3.28611 77.2968 3.14603C72.337 1.84075 66.3455 2.80894 63.9677 3.4681C52.2734 7.13423 44.31 8.98057 38.8408 9.67707C33.4091 10.3688 30.2659 9.95234 28.3612 8.88883C26.3651 7.77417 25.9189 6.04135 25.5747 4.98646C25.3874 4.4127 25.267 4.15971 25.1248 4.01846C25.0499 3.94415 24.8696 3.79765 24.2466 3.83648C21.9952 3.97704 20.5088 4.55545 17.42 5.62649C14.3459 6.6924 9.84665 8.17938 1.72085 10.0211C1.18236 10.143 0.647206 9.8054 0.525076 9.26695C0.403148 8.72857 0.739931 8.19257 1.27817 8.07026C9.31916 6.24778 13.7462 4.78231 16.7639 3.73595C19.7662 2.69492 21.5391 2.00159 24.122 1.84036Z" fill="url(#paint0_linear_1_39114)"/>
<path d="M24.122 1.84036L24.0909 1.34133L24.0908 1.34133L24.122 1.84036ZM26.5343 2.59978L26.8867 2.24505L26.8866 2.24497L26.5343 2.59978ZM27.4762 4.36583L27.9516 4.21071L27.9516 4.21071L27.4762 4.36583ZM29.3354 7.14312L29.0916 7.57964L29.0917 7.57967L29.3354 7.14312ZM38.5888 7.69282L38.652 8.18881L38.652 8.18881L38.5888 7.69282ZM63.3865 1.55527L63.5361 2.03237L63.5378 2.03185L63.3865 1.55527ZM63.4019 1.5504L63.2735 1.06717L63.262 1.07022L63.2506 1.07382L63.4019 1.5504ZM63.4163 1.54656L63.5447 2.02983L63.5504 2.02824L63.4163 1.54656ZM77.8052 1.21119L77.9326 0.727684L77.9324 0.727655L77.8052 1.21119ZM78.5174 2.43287L79.001 2.56018L79.001 2.56012L78.5174 2.43287ZM77.2968 3.14603L77.1695 3.62957L77.1699 3.62966L77.2968 3.14603ZM63.9677 3.4681L63.8342 2.98627L63.8261 2.9885L63.8182 2.99099L63.9677 3.4681ZM38.8408 9.67707L38.904 10.1731V10.1731L38.8408 9.67707ZM28.3612 8.88883L28.1175 9.32537L28.1175 9.32538L28.3612 8.88883ZM25.5747 4.98646L26.05 4.83134L26.05 4.83133L25.5747 4.98646ZM25.1248 4.01846L25.4772 3.66375L25.477 3.66349L25.1248 4.01846ZM24.2466 3.83648L24.2155 3.33745L24.2154 3.33745L24.2466 3.83648ZM17.42 5.62649L17.5838 6.0989L17.5838 6.0989L17.42 5.62649ZM1.72085 10.0211L1.83126 10.5087L1.83138 10.5087L1.72085 10.0211ZM0.525076 9.26695L0.0374254 9.37739L0.0374615 9.37755L0.525076 9.26695ZM1.27817 8.07026L1.16765 7.58262L1.16738 7.58269L1.27817 8.07026ZM16.7639 3.73595L16.9277 4.20836L16.9277 4.20836L16.7639 3.73595ZM24.122 1.84036L24.1531 2.33939C25.0594 2.28286 25.7134 2.48926 26.182 2.95459L26.5343 2.59978L26.8866 2.24497C26.1542 1.51781 25.1834 1.27318 24.0909 1.34133L24.122 1.84036ZM26.5343 2.59978L26.182 2.95452C26.6178 3.38749 26.8275 3.9897 27.0009 4.52096L27.4762 4.36583L27.9516 4.21071C27.7851 3.70076 27.5164 2.87055 26.8867 2.24505L26.5343 2.59978ZM27.4762 4.36583L27.0009 4.52096C27.3638 5.63303 27.6719 6.78667 29.0916 7.57964L29.3354 7.14312L29.5793 6.70659C28.5459 6.12941 28.3291 5.36762 27.9516 4.21071L27.4762 4.36583ZM29.3354 7.14312L29.0917 7.57967C30.5566 8.3977 33.289 8.87178 38.652 8.18881L38.5888 7.69282L38.5257 7.19682C33.2083 7.87398 30.7508 7.3608 29.5792 6.70657L29.3354 7.14312ZM38.5888 7.69282L38.652 8.18881C43.9952 7.5083 51.8665 5.69137 63.5361 2.03237L63.3865 1.55527L63.2369 1.07817C51.5897 4.73016 43.7832 6.52723 38.5257 7.19682L38.5888 7.69282ZM63.3865 1.55527L63.5378 2.03185L63.5531 2.02697L63.4019 1.5504L63.2506 1.07382L63.2353 1.07869L63.3865 1.55527ZM63.4019 1.5504L63.5303 2.03363L63.5447 2.02979L63.4163 1.54656L63.2879 1.06333L63.2735 1.06717L63.4019 1.5504ZM63.4163 1.54656L63.5504 2.02824C66.0411 1.33484 72.3438 0.291016 77.6779 1.69473L77.8052 1.21119L77.9324 0.727655C72.3554 -0.739986 65.8548 0.348692 63.2822 1.06488L63.4163 1.54656ZM77.8052 1.21119L77.6778 1.6947C77.9447 1.76498 78.1042 2.03845 78.0339 2.30563L78.5174 2.43287L79.001 2.56012C79.2117 1.75925 78.7337 0.938698 77.9326 0.727684L77.8052 1.21119ZM78.5174 2.43287L78.0339 2.30557C77.9635 2.57295 77.6901 2.73232 77.4237 2.6624L77.2968 3.14603L77.1699 3.62966C77.9711 3.83991 78.7903 3.3604 79.001 2.56018L78.5174 2.43287ZM77.2968 3.14603L77.4241 2.6625C72.343 1.32531 66.2527 2.3158 63.8342 2.98627L63.9677 3.4681L64.1013 3.94992C66.4383 3.30208 72.331 2.35619 77.1695 3.62957L77.2968 3.14603ZM63.9677 3.4681L63.8182 2.99099C52.135 6.65363 44.204 8.49004 38.7777 9.18107L38.8408 9.67707L38.904 10.1731C44.416 9.47111 52.4118 7.61483 64.1173 3.9452L63.9677 3.4681ZM38.8408 9.67707L38.7777 9.18107C33.3691 9.86983 30.3632 9.43398 28.605 8.45227L28.3612 8.88883L28.1175 9.32538C30.1687 10.4707 33.4491 10.8677 38.904 10.1731L38.8408 9.67707ZM28.3612 8.88883L28.605 8.45228C26.8007 7.4447 26.4002 5.90457 26.05 4.83134L25.5747 4.98646L25.0993 5.14158C25.4376 6.17813 25.9296 8.10365 28.1175 9.32537L28.3612 8.88883ZM25.5747 4.98646L26.05 4.83133C25.8685 4.27505 25.7182 3.9031 25.4772 3.66375L25.1248 4.01846L24.7724 4.37317C24.7864 4.38704 24.8222 4.42837 24.8798 4.55185C24.9381 4.67661 25.0076 4.86039 25.0993 5.14158L25.5747 4.98646ZM25.1248 4.01846L25.477 3.66349C25.3947 3.58186 25.2636 3.47706 25.0394 3.4075C24.8311 3.34288 24.5654 3.31564 24.2155 3.33745L24.2466 3.83648L24.2777 4.33551C24.5508 4.31849 24.6867 4.34508 24.7431 4.36258C24.7694 4.37076 24.7779 4.37678 24.7758 4.37545C24.7727 4.3735 24.7698 4.37051 24.7727 4.37342L25.1248 4.01846ZM24.2466 3.83648L24.2154 3.33745C21.881 3.48319 20.3226 4.09081 17.2562 5.15408L17.42 5.62649L17.5838 6.0989C20.695 5.0201 22.1093 4.47088 24.2777 4.33551L24.2466 3.83648ZM17.42 5.62649L17.2562 5.15408C14.1963 6.21509 9.71498 7.69654 1.61033 9.53345L1.72085 10.0211L1.83138 10.5087C9.97833 8.66221 14.4956 7.16971 17.5838 6.0989L17.42 5.62649ZM1.72085 10.0211L1.61045 9.53342C1.34134 9.59435 1.07378 9.42571 1.01269 9.15635L0.525076 9.26695L0.0374615 9.37755C0.220626 10.1851 1.02339 10.6916 1.83126 10.5087L1.72085 10.0211ZM0.525076 9.26695L1.01273 9.15651C0.951586 8.88654 1.12064 8.6188 1.38897 8.55783L1.27817 8.07026L1.16738 7.58269C0.359224 7.76633 -0.14529 8.5706 0.0374254 9.37739L0.525076 9.26695ZM1.27817 8.07026L1.38869 8.55789C9.45087 6.73061 13.8959 5.25961 16.9277 4.20836L16.7639 3.73595L16.6001 3.26355C13.5965 4.30501 9.18744 5.76495 1.16765 7.58262L1.27817 8.07026ZM16.7639 3.73595L16.9277 4.20836C19.9511 3.16001 21.6529 2.49546 24.1531 2.33939L24.122 1.84036L24.0908 1.34133C21.4253 1.50772 19.5813 2.22983 16.6001 3.26355L16.7639 3.73595Z" fill="white" mask="url(#path-1-outside-1_1_39114)"/>
<defs>
<linearGradient id="paint0_linear_1_39114" x1="-25.2653" y1="9.10239" x2="139.463" y2="-7.36133" gradientUnits="userSpaceOnUse">
<stop stop-color="white"/>
<stop offset="1" stop-color="white" stop-opacity="0"/>
</linearGradient>
</defs>
</svg>
