<svg width="80" height="11" viewBox="0 0 80 11" fill="none" xmlns="http://www.w3.org/2000/svg">
<mask id="path-1-outside-1_1_39015" maskUnits="userSpaceOnUse" x="-0.918378" y="-2.58182" width="80.5298" height="15.9616" fill="black">
<rect fill="white" x="-0.918378" y="-2.58182" width="80.5298" height="15.9616"/>
<path d="M24.122 1.84036C25.1213 1.778 25.9337 2.00281 26.5342 2.59881C27.0672 3.12806 27.3063 3.84513 27.4762 4.36583C27.8465 5.50042 28.1096 6.45797 29.3364 7.14306C30.6547 7.87915 33.2489 8.37284 38.5888 7.69282C43.8892 7.0178 51.728 5.21079 63.3865 1.55527L63.4028 1.55034L63.4173 1.5465C65.9489 0.841713 72.3496 -0.224412 77.8052 1.21119C78.3392 1.35174 78.6589 1.89876 78.5184 2.43281C78.3778 2.96674 77.8307 3.28637 77.2968 3.14603C72.3367 1.84069 66.3453 2.80894 63.9677 3.4681C52.2738 7.13411 44.3109 8.98047 38.8418 9.67701C33.4099 10.3687 30.2659 9.95242 28.3612 8.88883C26.3652 7.77417 25.9199 6.04127 25.5756 4.9864C25.3885 4.4129 25.2679 4.15972 25.1258 4.0184C25.0509 3.94409 24.8704 3.79763 24.2475 3.83642C21.9959 3.97694 20.5091 4.55535 17.42 5.62649C14.346 6.69238 9.84726 8.17938 1.72181 10.021C1.18323 10.1431 0.647195 9.8055 0.52506 9.26695C0.403103 8.72844 0.740667 8.19234 1.27913 8.0702C9.31973 6.2478 13.7462 4.7823 16.7638 3.73596C19.7661 2.69495 21.5392 2.00163 24.122 1.84036Z"/>
</mask>
<path d="M24.122 1.84036C25.1213 1.778 25.9337 2.00281 26.5342 2.59881C27.0672 3.12806 27.3063 3.84513 27.4762 4.36583C27.8465 5.50042 28.1096 6.45797 29.3364 7.14306C30.6547 7.87915 33.2489 8.37284 38.5888 7.69282C43.8892 7.0178 51.728 5.21079 63.3865 1.55527L63.4028 1.55034L63.4173 1.5465C65.9489 0.841713 72.3496 -0.224412 77.8052 1.21119C78.3392 1.35174 78.6589 1.89876 78.5184 2.43281C78.3778 2.96674 77.8307 3.28637 77.2968 3.14603C72.3367 1.84069 66.3453 2.80894 63.9677 3.4681C52.2738 7.13411 44.3109 8.98047 38.8418 9.67701C33.4099 10.3687 30.2659 9.95242 28.3612 8.88883C26.3652 7.77417 25.9199 6.04127 25.5756 4.9864C25.3885 4.4129 25.2679 4.15972 25.1258 4.0184C25.0509 3.94409 24.8704 3.79763 24.2475 3.83642C21.9959 3.97694 20.5091 4.55535 17.42 5.62649C14.346 6.69238 9.84726 8.17938 1.72181 10.021C1.18323 10.1431 0.647195 9.8055 0.52506 9.26695C0.403103 8.72844 0.740667 8.19234 1.27913 8.0702C9.31973 6.2478 13.7462 4.7823 16.7638 3.73596C19.7661 2.69495 21.5392 2.00163 24.122 1.84036Z" fill="#9A41FE"/>
<path d="M24.122 1.84036C25.1213 1.778 25.9337 2.00281 26.5342 2.59881C27.0672 3.12806 27.3063 3.84513 27.4762 4.36583C27.8465 5.50042 28.1096 6.45797 29.3364 7.14306C30.6547 7.87915 33.2489 8.37284 38.5888 7.69282C43.8892 7.0178 51.728 5.21079 63.3865 1.55527L63.4028 1.55034L63.4173 1.5465C65.9489 0.841713 72.3496 -0.224412 77.8052 1.21119C78.3392 1.35174 78.6589 1.89876 78.5184 2.43281C78.3778 2.96674 77.8307 3.28637 77.2968 3.14603C72.3367 1.84069 66.3453 2.80894 63.9677 3.4681C52.2738 7.13411 44.3109 8.98047 38.8418 9.67701C33.4099 10.3687 30.2659 9.95242 28.3612 8.88883C26.3652 7.77417 25.9199 6.04127 25.5756 4.9864C25.3885 4.4129 25.2679 4.15972 25.1258 4.0184C25.0509 3.94409 24.8704 3.79763 24.2475 3.83642C21.9959 3.97694 20.5091 4.55535 17.42 5.62649C14.346 6.69238 9.84726 8.17938 1.72181 10.021C1.18323 10.1431 0.647195 9.8055 0.52506 9.26695C0.403103 8.72844 0.740667 8.19234 1.27913 8.0702C9.31973 6.2478 13.7462 4.7823 16.7638 3.73596C19.7661 2.69495 21.5392 2.00163 24.122 1.84036Z" fill="url(#paint0_linear_1_39015)"/>
<path d="M24.122 1.84036L24.0908 1.34134L24.0908 1.34134L24.122 1.84036ZM26.5342 2.59881L26.8866 2.24401L26.8865 2.24393L26.5342 2.59881ZM27.4762 4.36583L27.9515 4.21071L27.9515 4.21071L27.4762 4.36583ZM29.3364 7.14306L29.0926 7.5796L29.0926 7.57961L29.3364 7.14306ZM38.5888 7.69282L38.652 8.18881L38.652 8.18881L38.5888 7.69282ZM63.3865 1.55527L63.2419 1.07662L63.2369 1.07817L63.3865 1.55527ZM63.4028 1.55034L63.2744 1.06711L63.2663 1.06927L63.2582 1.07171L63.4028 1.55034ZM63.4173 1.5465L63.5457 2.02977L63.5514 2.02818L63.4173 1.5465ZM77.8052 1.21119L77.9324 0.727659L77.9324 0.727655L77.8052 1.21119ZM78.5184 2.43281L79.0019 2.56012L79.002 2.55999L78.5184 2.43281ZM77.2968 3.14603L77.1695 3.62957L77.1697 3.62961L77.2968 3.14603ZM63.9677 3.4681L63.8341 2.98627L63.8261 2.9885L63.8181 2.99099L63.9677 3.4681ZM38.8418 9.67701L38.905 10.173L38.905 10.173L38.8418 9.67701ZM28.3612 8.88883L28.1174 9.32537L28.1174 9.32538L28.3612 8.88883ZM25.5756 4.9864L26.051 4.83128L26.051 4.83128L25.5756 4.9864ZM25.1258 4.0184L25.4784 3.6639L25.4779 3.66343L25.1258 4.0184ZM24.2475 3.83642L24.2164 3.33739L24.2164 3.33739L24.2475 3.83642ZM17.42 5.62649L17.5838 6.0989L17.5838 6.0989L17.42 5.62649ZM1.72181 10.021L1.83233 10.5087L1.83234 10.5087L1.72181 10.021ZM0.52506 9.26695L0.0374091 9.37739L0.0374421 9.37753L0.52506 9.26695ZM1.27913 8.0702L1.16861 7.58256L1.16852 7.58258L1.27913 8.0702ZM16.7638 3.73596L16.9276 4.20836L16.9276 4.20836L16.7638 3.73596ZM24.122 1.84036L24.1531 2.33939C25.0596 2.28282 25.7135 2.48872 26.182 2.95369L26.5342 2.59881L26.8865 2.24393C26.1539 1.5169 25.1829 1.27318 24.0908 1.34134L24.122 1.84036ZM26.5342 2.59881L26.1819 2.95361C26.6179 3.38647 26.8274 3.98924 27.0009 4.52096L27.4762 4.36583L27.9515 4.21071C27.7852 3.70102 27.5166 2.86964 26.8866 2.24401L26.5342 2.59881ZM27.4762 4.36583L27.0009 4.52096C27.3639 5.63345 27.6727 6.78669 29.0926 7.5796L29.3364 7.14306L29.5802 6.70651C28.5464 6.12925 28.329 5.3674 27.9515 4.21071L27.4762 4.36583ZM29.3364 7.14306L29.0926 7.57961C30.5576 8.39759 33.2892 8.87174 38.652 8.18881L38.5888 7.69282L38.5256 7.19682C33.2086 7.87393 30.7518 7.36071 29.5802 6.7065L29.3364 7.14306ZM38.5888 7.69282L38.652 8.18881C43.9952 7.50834 51.8664 5.69139 63.5361 2.03237L63.3865 1.55527L63.2369 1.07817C51.5896 4.73018 43.7832 6.52726 38.5256 7.19682L38.5888 7.69282ZM63.3865 1.55527L63.5311 2.0339L63.5474 2.02897L63.4028 1.55034L63.2582 1.07171L63.2419 1.07664L63.3865 1.55527ZM63.4028 1.55034L63.5312 2.03357L63.5457 2.02973L63.4173 1.5465L63.2889 1.06327L63.2744 1.06711L63.4028 1.55034ZM63.4173 1.5465L63.5514 2.02818C66.042 1.33479 72.3438 0.291088 77.6779 1.69473L77.8052 1.21119L77.9324 0.727655C72.3554 -0.739911 65.8557 0.34864 63.2832 1.06482L63.4173 1.5465ZM77.8052 1.21119L77.6779 1.69473C77.9453 1.76511 78.105 2.03899 78.0348 2.30563L78.5184 2.43281L79.002 2.55999C79.2128 1.75852 78.7331 0.938378 77.9324 0.727659L77.8052 1.21119ZM78.5184 2.43281L78.0349 2.30551C77.9645 2.57282 77.6905 2.73253 77.4239 2.66246L77.2968 3.14603L77.1697 3.62961C77.971 3.84021 78.7911 3.36067 79.0019 2.56012L78.5184 2.43281ZM77.2968 3.14603L77.424 2.6625C72.3428 1.32525 66.2525 2.31579 63.8341 2.98627L63.9677 3.4681L64.1013 3.94992C66.438 3.30208 72.3307 2.35613 77.1695 3.62957L77.2968 3.14603ZM63.9677 3.4681L63.8181 2.99099C52.1353 6.65351 44.2049 8.48994 38.7786 9.18101L38.8418 9.67701L38.905 10.173C44.417 9.471 52.4122 7.6147 64.1173 3.9452L63.9677 3.4681ZM38.8418 9.67701L38.7786 9.18101C33.3698 9.86981 30.3631 9.43406 28.605 8.45228L28.3612 8.88883L28.1174 9.32538C30.1686 10.4708 33.4499 10.8677 38.905 10.173L38.8418 9.67701ZM28.3612 8.88883L28.605 8.45229C26.8008 7.44476 26.4013 5.90473 26.051 4.83128L25.5756 4.9864L25.1003 5.14152C25.4385 6.17782 25.9296 8.10359 28.1174 9.32537L28.3612 8.88883ZM25.5756 4.9864L26.051 4.83128C25.8694 4.27499 25.719 3.90319 25.4784 3.6639L25.1258 4.0184L24.7732 4.37289C24.7873 4.38688 24.8231 4.4284 24.8808 4.55194C24.9391 4.67674 25.0086 4.86051 25.1003 5.14152L25.5756 4.9864ZM25.1258 4.0184L25.4779 3.66343C25.3956 3.58172 25.2644 3.47697 25.0403 3.40745C24.832 3.34284 24.5663 3.3156 24.2164 3.33739L24.2475 3.83642L24.2786 4.33545C24.5516 4.31845 24.6876 4.34504 24.744 4.36255C24.7704 4.37073 24.7789 4.37676 24.7768 4.37545C24.7738 4.37351 24.7708 4.37052 24.7737 4.37336L25.1258 4.0184ZM24.2475 3.83642L24.2164 3.33739C21.8817 3.48309 20.323 4.09069 17.2562 5.15408L17.42 5.62649L17.5838 6.0989C20.6953 5.02001 22.11 4.47079 24.2787 4.33545L24.2475 3.83642ZM17.42 5.62649L17.2562 5.15408C14.1963 6.21507 9.71558 7.69655 1.61129 9.53339L1.72181 10.021L1.83234 10.5087C9.97895 8.66222 14.4956 7.16969 17.5838 6.0989L17.42 5.62649ZM1.72181 10.021L1.61129 9.53339C1.34176 9.59448 1.07369 9.42539 1.01268 9.15636L0.52506 9.26695L0.0374421 9.37753C0.220701 10.1856 1.02471 10.6917 1.83233 10.5087L1.72181 10.021ZM0.52506 9.26695L1.01271 9.15651C0.95166 8.88694 1.12083 8.61881 1.38974 8.55781L1.27913 8.0702L1.16852 7.58258C0.360503 7.76587 -0.145454 8.56995 0.0374091 9.37739L0.52506 9.26695ZM1.27913 8.0702L1.38965 8.55783C9.45146 6.73063 13.8959 5.25959 16.9276 4.20836L16.7638 3.73596L16.6 3.26355C13.5965 4.305 9.18801 5.76498 1.16861 7.58256L1.27913 8.0702ZM16.7638 3.73596L16.9276 4.20836C19.951 3.16004 21.653 2.49549 24.1531 2.33939L24.122 1.84036L24.0908 1.34134C21.4254 1.50776 19.5812 2.22985 16.6 3.26355L16.7638 3.73596Z" fill="white" mask="url(#path-1-outside-1_1_39015)"/>
<defs>
<linearGradient id="paint0_linear_1_39015" x1="-25.2656" y1="9.1024" x2="139.465" y2="-7.3616" gradientUnits="userSpaceOnUse">
<stop stop-color="white"/>
<stop offset="1" stop-color="white" stop-opacity="0"/>
</linearGradient>
</defs>
</svg>
