<svg width="80" height="11" viewBox="0 0 80 11" fill="none" xmlns="http://www.w3.org/2000/svg">
<mask id="path-1-outside-1_1_37122" maskUnits="userSpaceOnUse" x="-0.918423" y="-2.58182" width="80.5298" height="15.9616" fill="black">
<rect fill="white" x="-0.918423" y="-2.58182" width="80.5298" height="15.9616"/>
<path d="M24.1219 1.84036C25.1214 1.77799 25.9337 2.0035 26.5343 2.59978C27.0671 3.12901 27.3063 3.84518 27.4762 4.36583C27.8464 5.50042 28.1095 6.45797 29.3364 7.14306C30.6547 7.87915 33.2488 8.37284 38.5888 7.69282C43.8891 7.0178 51.7279 5.2108 63.3865 1.55527L63.4018 1.5504L63.4172 1.5465C65.9489 0.841711 72.3496 -0.224423 77.8051 1.21119C78.3392 1.35174 78.6588 1.89878 78.5184 2.43281C78.3778 2.96673 77.8307 3.28634 77.2967 3.14603C72.3367 1.84069 66.3452 2.80894 63.9677 3.4681C52.2734 7.13422 44.3099 8.98058 38.8408 9.67707C33.4091 10.3687 30.2658 9.95239 28.3612 8.88883C26.3652 7.77417 25.9198 6.04128 25.5756 4.9864C25.3883 4.41239 25.267 4.1597 25.1248 4.01846C25.0498 3.94414 24.8701 3.79765 24.2475 3.83642C21.9958 3.97694 20.5091 4.55535 17.4199 5.62649C14.3459 6.69238 9.84724 8.17938 1.72177 10.021C1.18318 10.1431 0.647136 9.80551 0.525014 9.26695C0.403057 8.72844 0.740622 8.19234 1.27908 8.0702C9.31971 6.2478 13.7461 4.7823 16.7638 3.73596C19.7661 2.69494 21.5391 2.00162 24.1219 1.84036Z"/>
</mask>
<path d="M24.1219 1.84036C25.1214 1.77799 25.9337 2.0035 26.5343 2.59978C27.0671 3.12901 27.3063 3.84518 27.4762 4.36583C27.8464 5.50042 28.1095 6.45797 29.3364 7.14306C30.6547 7.87915 33.2488 8.37284 38.5888 7.69282C43.8891 7.0178 51.7279 5.2108 63.3865 1.55527L63.4018 1.5504L63.4172 1.5465C65.9489 0.841711 72.3496 -0.224423 77.8051 1.21119C78.3392 1.35174 78.6588 1.89878 78.5184 2.43281C78.3778 2.96673 77.8307 3.28634 77.2967 3.14603C72.3367 1.84069 66.3452 2.80894 63.9677 3.4681C52.2734 7.13422 44.3099 8.98058 38.8408 9.67707C33.4091 10.3687 30.2658 9.95239 28.3612 8.88883C26.3652 7.77417 25.9198 6.04128 25.5756 4.9864C25.3883 4.41239 25.267 4.1597 25.1248 4.01846C25.0498 3.94414 24.8701 3.79765 24.2475 3.83642C21.9958 3.97694 20.5091 4.55535 17.4199 5.62649C14.3459 6.69238 9.84724 8.17938 1.72177 10.021C1.18318 10.1431 0.647136 9.80551 0.525014 9.26695C0.403057 8.72844 0.740622 8.19234 1.27908 8.0702C9.31971 6.2478 13.7461 4.7823 16.7638 3.73596C19.7661 2.69494 21.5391 2.00162 24.1219 1.84036Z" fill="#FC8AA3"/>
<path d="M24.1219 1.84036C25.1214 1.77799 25.9337 2.0035 26.5343 2.59978C27.0671 3.12901 27.3063 3.84518 27.4762 4.36583C27.8464 5.50042 28.1095 6.45797 29.3364 7.14306C30.6547 7.87915 33.2488 8.37284 38.5888 7.69282C43.8891 7.0178 51.7279 5.2108 63.3865 1.55527L63.4018 1.5504L63.4172 1.5465C65.9489 0.841711 72.3496 -0.224423 77.8051 1.21119C78.3392 1.35174 78.6588 1.89878 78.5184 2.43281C78.3778 2.96673 77.8307 3.28634 77.2967 3.14603C72.3367 1.84069 66.3452 2.80894 63.9677 3.4681C52.2734 7.13422 44.3099 8.98058 38.8408 9.67707C33.4091 10.3687 30.2658 9.95239 28.3612 8.88883C26.3652 7.77417 25.9198 6.04128 25.5756 4.9864C25.3883 4.41239 25.267 4.1597 25.1248 4.01846C25.0498 3.94414 24.8701 3.79765 24.2475 3.83642C21.9958 3.97694 20.5091 4.55535 17.4199 5.62649C14.3459 6.69238 9.84724 8.17938 1.72177 10.021C1.18318 10.1431 0.647136 9.80551 0.525014 9.26695C0.403057 8.72844 0.740622 8.19234 1.27908 8.0702C9.31971 6.2478 13.7461 4.7823 16.7638 3.73596C19.7661 2.69494 21.5391 2.00162 24.1219 1.84036Z" fill="url(#paint0_linear_1_37122)"/>
<path d="M24.1219 1.84036L24.0908 1.34134L24.0908 1.34134L24.1219 1.84036ZM26.5343 2.59978L26.8866 2.24502L26.8866 2.24497L26.5343 2.59978ZM27.4762 4.36583L27.9515 4.21071L27.9515 4.21071L27.4762 4.36583ZM29.3364 7.14306L29.0926 7.5796L29.0926 7.57961L29.3364 7.14306ZM38.5888 7.69282L38.6519 8.18881L38.6519 8.18881L38.5888 7.69282ZM63.3865 1.55527L63.5361 2.03237L63.5377 2.03185L63.3865 1.55527ZM63.4018 1.5504L63.2792 1.06566L63.2648 1.06931L63.2506 1.07382L63.4018 1.5504ZM63.4172 1.5465L63.5398 2.03138L63.5513 2.02818L63.4172 1.5465ZM77.8051 1.21119L77.9324 0.727659L77.9324 0.727656L77.8051 1.21119ZM78.5184 2.43281L79.0019 2.56012L79.0019 2.55997L78.5184 2.43281ZM77.2967 3.14603L77.1695 3.62957L77.1697 3.62961L77.2967 3.14603ZM63.9677 3.4681L63.8341 2.98627L63.8261 2.9885L63.8181 2.99099L63.9677 3.4681ZM38.8408 9.67707L38.9039 10.1731L38.9039 10.1731L38.8408 9.67707ZM28.3612 8.88883L28.1174 9.32537L28.1174 9.32538L28.3612 8.88883ZM25.5756 4.9864L26.0509 4.83128L26.0509 4.83127L25.5756 4.9864ZM25.1248 4.01846L25.4771 3.66366L25.4769 3.66345L25.1248 4.01846ZM24.2475 3.83642L24.2164 3.33739L24.2163 3.33739L24.2475 3.83642ZM17.4199 5.62649L17.5837 6.0989L17.5837 6.0989L17.4199 5.62649ZM1.72177 10.021L1.83229 10.5087L1.83229 10.5087L1.72177 10.021ZM0.525014 9.26695L0.0373633 9.37739L0.037393 9.37752L0.525014 9.26695ZM1.27908 8.0702L1.16856 7.58256L1.16848 7.58258L1.27908 8.0702ZM16.7638 3.73596L16.9276 4.20836L16.9276 4.20836L16.7638 3.73596ZM24.1219 1.84036L24.1531 2.33939C25.0594 2.28283 25.7133 2.48923 26.182 2.9546L26.5343 2.59978L26.8866 2.24497C26.1542 1.51778 25.1834 1.27315 24.0908 1.34134L24.1219 1.84036ZM26.5343 2.59978L26.1819 2.95455C26.6179 3.38749 26.8274 3.98959 27.0008 4.52096L27.4762 4.36583L27.9515 4.21071C27.7851 3.70077 27.5164 2.87053 26.8866 2.24502L26.5343 2.59978ZM27.4762 4.36583L27.0008 4.52096C27.3639 5.63345 27.6727 6.78669 29.0926 7.5796L29.3364 7.14306L29.5801 6.70651C28.5464 6.12925 28.329 5.3674 27.9515 4.21071L27.4762 4.36583ZM29.3364 7.14306L29.0926 7.57961C30.5576 8.39758 33.2892 8.87175 38.6519 8.18881L38.5888 7.69282L38.5256 7.19682C33.2085 7.87394 30.7518 7.36071 29.5801 6.7065L29.3364 7.14306ZM38.5888 7.69282L38.6519 8.18881C43.9952 7.50833 51.8663 5.69141 63.5361 2.03237L63.3865 1.55527L63.2369 1.07817C51.5895 4.7302 43.7831 6.52726 38.5256 7.19682L38.5888 7.69282ZM63.3865 1.55527L63.5377 2.03185L63.5531 2.02698L63.4018 1.5504L63.2506 1.07382L63.2352 1.0787L63.3865 1.55527ZM63.4018 1.5504L63.5244 2.03514L63.5398 2.03124L63.4172 1.5465L63.2947 1.06176L63.2792 1.06566L63.4018 1.5504ZM63.4172 1.5465L63.5513 2.02818C66.042 1.33478 72.3438 0.291077 77.6779 1.69473L77.8051 1.21119L77.9324 0.727656C72.3554 -0.739923 65.8557 0.348637 63.2831 1.06482L63.4172 1.5465ZM77.8051 1.21119L77.6779 1.69473C77.9452 1.76509 78.1049 2.03899 78.0348 2.30566L78.5184 2.43281L79.0019 2.55997C79.2126 1.75856 78.7331 0.93838 77.9324 0.727659L77.8051 1.21119ZM78.5184 2.43281L78.0348 2.30551C77.9645 2.57278 77.6905 2.73252 77.4238 2.66245L77.2967 3.14603L77.1697 3.62961C77.9709 3.84016 78.7911 3.36068 79.0019 2.56012L78.5184 2.43281ZM77.2967 3.14603L77.424 2.6625C72.3427 1.32525 66.2524 2.31579 63.8341 2.98627L63.9677 3.4681L64.1013 3.94992C66.438 3.30208 72.3307 2.35613 77.1695 3.62957L77.2967 3.14603ZM63.9677 3.4681L63.8181 2.99099C52.1349 6.65363 44.2039 8.49004 38.7776 9.18107L38.8408 9.67707L38.9039 10.1731C44.416 9.47111 52.4118 7.61482 64.1172 3.9452L63.9677 3.4681ZM38.8408 9.67707L38.7776 9.18107C33.3691 9.86979 30.3631 9.43403 28.6049 8.45228L28.3612 8.88883L28.1174 9.32538C30.1685 10.4708 33.4491 10.8677 38.9039 10.1731L38.8408 9.67707ZM28.3612 8.88883L28.605 8.45229C26.8008 7.44475 26.4012 5.90474 26.0509 4.83128L25.5756 4.9864L25.1003 5.14152C25.4384 6.17781 25.9295 8.10359 28.1174 9.32537L28.3612 8.88883ZM25.5756 4.9864L26.0509 4.83127C25.8689 4.27353 25.7178 3.90271 25.4771 3.66366L25.1248 4.01846L24.7725 4.37325C24.7868 4.38751 24.8228 4.42915 24.8805 4.55232C24.9389 4.67686 25.0085 4.86048 25.1003 5.14152L25.5756 4.9864ZM25.1248 4.01846L25.4769 3.66345C25.3949 3.58221 25.2641 3.47725 25.0399 3.40756C24.8317 3.34286 24.5661 3.31561 24.2164 3.33739L24.2475 3.83642L24.2785 4.33545C24.5515 4.31846 24.687 4.34507 24.7431 4.3625C24.7693 4.37064 24.7777 4.37661 24.7755 4.37524C24.7724 4.37326 24.7695 4.37029 24.7727 4.37347L25.1248 4.01846ZM24.2475 3.83642L24.2163 3.33739C21.8817 3.48309 20.3229 4.09069 17.2561 5.15408L17.4199 5.62649L17.5837 6.0989C20.6952 5.02001 22.11 4.47079 24.2786 4.33545L24.2475 3.83642ZM17.4199 5.62649L17.2561 5.15408C14.1962 6.21507 9.71555 7.69654 1.61125 9.53339L1.72177 10.021L1.83229 10.5087C9.97892 8.66221 14.4956 7.16969 17.5837 6.0989L17.4199 5.62649ZM1.72177 10.021L1.61125 9.53339C1.34169 9.59448 1.07364 9.4254 1.01263 9.15638L0.525014 9.26695L0.037393 9.37752C0.220636 10.1856 1.02467 10.6917 1.83229 10.5087L1.72177 10.021ZM0.525014 9.26695L1.01266 9.15651C0.951614 8.88694 1.12079 8.61881 1.38969 8.55781L1.27908 8.0702L1.16848 7.58258C0.360458 7.76587 -0.1455 8.56995 0.0373633 9.37739L0.525014 9.26695ZM1.27908 8.0702L1.38961 8.55783C9.45143 6.73062 13.8959 5.25959 16.9276 4.20836L16.7638 3.73596L16.6 3.26355C13.5964 4.305 9.18798 5.76497 1.16856 7.58256L1.27908 8.0702ZM16.7638 3.73596L16.9276 4.20836C19.951 3.16003 21.6529 2.49549 24.1531 2.33939L24.1219 1.84036L24.0908 1.34134C21.4253 1.50775 19.5812 2.22985 16.6 3.26355L16.7638 3.73596Z" fill="white" mask="url(#path-1-outside-1_1_37122)"/>
<defs>
<linearGradient id="paint0_linear_1_37122" x1="-25.2657" y1="9.10239" x2="139.465" y2="-7.36161" gradientUnits="userSpaceOnUse">
<stop stop-color="white"/>
<stop offset="1" stop-color="white" stop-opacity="0"/>
</linearGradient>
</defs>
</svg>
