<svg width="80" height="11" viewBox="0 0 80 11" fill="none" xmlns="http://www.w3.org/2000/svg">
<mask id="path-1-outside-1_1_35031" maskUnits="userSpaceOnUse" x="-0.918439" y="-2.58182" width="80.5298" height="15.9616" fill="black">
<rect fill="white" x="-0.918439" y="-2.58182" width="80.5298" height="15.9616"/>
<path d="M24.1219 1.84036C25.1212 1.778 25.9337 2.00274 26.5342 2.59881C27.0672 3.12807 27.3062 3.84513 27.4762 4.36583C27.8464 5.50042 28.1095 6.45797 29.3363 7.14306C30.6547 7.87911 33.2489 8.37284 38.5888 7.69282C43.8891 7.01779 51.7279 5.21081 63.3864 1.55527L63.4018 1.5504L63.4172 1.5465C65.9489 0.841705 72.3496 -0.224454 77.8051 1.21119C78.3392 1.35174 78.6588 1.89878 78.5183 2.43281C78.3778 2.96668 77.8306 3.28625 77.2967 3.14603C72.3367 1.8407 66.3453 2.80894 63.9677 3.4681C52.2733 7.13423 44.3099 8.98058 38.8408 9.67707C33.4091 10.3688 30.2658 9.95239 28.3612 8.88883C26.3651 7.77417 25.9189 6.04135 25.5746 4.98646C25.3873 4.41259 25.267 4.15969 25.1248 4.01846C25.0499 3.94416 24.8702 3.79767 24.2475 3.83642C21.9958 3.97694 20.5091 4.55535 17.4199 5.62649C14.3459 6.69238 9.84724 8.17937 1.72175 10.021C1.18318 10.1431 0.647148 9.80548 0.524999 9.26695C0.403042 8.72844 0.740606 8.19234 1.27907 8.0702C9.31971 6.24779 13.7461 4.78229 16.7638 3.73596C19.7661 2.69492 21.539 2.0016 24.1219 1.84036Z"/>
</mask>
<path d="M24.1219 1.84036C25.1212 1.778 25.9337 2.00274 26.5342 2.59881C27.0672 3.12807 27.3062 3.84513 27.4762 4.36583C27.8464 5.50042 28.1095 6.45797 29.3363 7.14306C30.6547 7.87911 33.2489 8.37284 38.5888 7.69282C43.8891 7.01779 51.7279 5.21081 63.3864 1.55527L63.4018 1.5504L63.4172 1.5465C65.9489 0.841705 72.3496 -0.224454 77.8051 1.21119C78.3392 1.35174 78.6588 1.89878 78.5183 2.43281C78.3778 2.96668 77.8306 3.28625 77.2967 3.14603C72.3367 1.8407 66.3453 2.80894 63.9677 3.4681C52.2733 7.13423 44.3099 8.98058 38.8408 9.67707C33.4091 10.3688 30.2658 9.95239 28.3612 8.88883C26.3651 7.77417 25.9189 6.04135 25.5746 4.98646C25.3873 4.41259 25.267 4.15969 25.1248 4.01846C25.0499 3.94416 24.8702 3.79767 24.2475 3.83642C21.9958 3.97694 20.5091 4.55535 17.4199 5.62649C14.3459 6.69238 9.84724 8.17937 1.72175 10.021C1.18318 10.1431 0.647148 9.80548 0.524999 9.26695C0.403042 8.72844 0.740606 8.19234 1.27907 8.0702C9.31971 6.24779 13.7461 4.78229 16.7638 3.73596C19.7661 2.69492 21.539 2.0016 24.1219 1.84036Z" fill="#62B4FF"/>
<path d="M24.1219 1.84036C25.1212 1.778 25.9337 2.00274 26.5342 2.59881C27.0672 3.12807 27.3062 3.84513 27.4762 4.36583C27.8464 5.50042 28.1095 6.45797 29.3363 7.14306C30.6547 7.87911 33.2489 8.37284 38.5888 7.69282C43.8891 7.01779 51.7279 5.21081 63.3864 1.55527L63.4018 1.5504L63.4172 1.5465C65.9489 0.841705 72.3496 -0.224454 77.8051 1.21119C78.3392 1.35174 78.6588 1.89878 78.5183 2.43281C78.3778 2.96668 77.8306 3.28625 77.2967 3.14603C72.3367 1.8407 66.3453 2.80894 63.9677 3.4681C52.2733 7.13423 44.3099 8.98058 38.8408 9.67707C33.4091 10.3688 30.2658 9.95239 28.3612 8.88883C26.3651 7.77417 25.9189 6.04135 25.5746 4.98646C25.3873 4.41259 25.267 4.15969 25.1248 4.01846C25.0499 3.94416 24.8702 3.79767 24.2475 3.83642C21.9958 3.97694 20.5091 4.55535 17.4199 5.62649C14.3459 6.69238 9.84724 8.17937 1.72175 10.021C1.18318 10.1431 0.647148 9.80548 0.524999 9.26695C0.403042 8.72844 0.740606 8.19234 1.27907 8.0702C9.31971 6.24779 13.7461 4.78229 16.7638 3.73596C19.7661 2.69492 21.539 2.0016 24.1219 1.84036Z" fill="url(#paint0_linear_1_35031)"/>
<path d="M24.1219 1.84036L24.0908 1.34134L24.0908 1.34134L24.1219 1.84036ZM26.5342 2.59881L26.8865 2.24401L26.8864 2.24395L26.5342 2.59881ZM27.4762 4.36583L27.9515 4.21071L27.9515 4.21071L27.4762 4.36583ZM29.3363 7.14306L29.0926 7.5796L29.0926 7.57962L29.3363 7.14306ZM38.5888 7.69282L38.6519 8.18881L38.6519 8.18881L38.5888 7.69282ZM63.3864 1.55527L63.536 2.03237L63.5377 2.03185L63.3864 1.55527ZM63.4018 1.5504L63.2792 1.06566L63.2648 1.06931L63.2506 1.07382L63.4018 1.5504ZM63.4172 1.5465L63.5398 2.03138L63.5513 2.02819L63.4172 1.5465ZM77.8051 1.21119L77.9324 0.727659L77.9324 0.727657L77.8051 1.21119ZM78.5183 2.43281L79.0019 2.56012L79.0019 2.55997L78.5183 2.43281ZM77.2967 3.14603L77.1695 3.62957L77.1697 3.62963L77.2967 3.14603ZM63.9677 3.4681L63.8341 2.98627L63.826 2.9885L63.8181 2.99099L63.9677 3.4681ZM38.8408 9.67707L38.9039 10.1731L38.9039 10.1731L38.8408 9.67707ZM28.3612 8.88883L28.1174 9.32538L28.1174 9.32538L28.3612 8.88883ZM25.5746 4.98646L26.0499 4.83134L26.0499 4.83133L25.5746 4.98646ZM25.1248 4.01846L25.4771 3.66368L25.4769 3.66349L25.1248 4.01846ZM24.2475 3.83642L24.2164 3.33739L24.2163 3.33739L24.2475 3.83642ZM17.4199 5.62649L17.5837 6.0989V6.0989L17.4199 5.62649ZM1.72175 10.021L1.83227 10.5087L1.83227 10.5087L1.72175 10.021ZM0.524999 9.26695L0.0373481 9.37739L0.0373845 9.37755L0.524999 9.26695ZM1.27907 8.0702L1.16855 7.58256L1.16846 7.58258L1.27907 8.0702ZM16.7638 3.73596L16.9276 4.20836L16.9276 4.20836L16.7638 3.73596ZM24.1219 1.84036L24.1531 2.33939C25.0596 2.28282 25.7135 2.48866 26.1819 2.95367L26.5342 2.59881L26.8864 2.24395C26.1539 1.51682 25.1829 1.27318 24.0908 1.34134L24.1219 1.84036ZM26.5342 2.59881L26.1819 2.95361C26.6178 3.38649 26.8273 3.98923 27.0008 4.52096L27.4762 4.36583L27.9515 4.21071C27.7851 3.70102 27.5166 2.86966 26.8865 2.24401L26.5342 2.59881ZM27.4762 4.36583L27.0008 4.52096C27.3639 5.63345 27.6726 6.78669 29.0926 7.5796L29.3363 7.14306L29.5801 6.70651C28.5464 6.12925 28.329 5.3674 27.9515 4.21071L27.4762 4.36583ZM29.3363 7.14306L29.0926 7.57962C30.5576 8.39755 33.2892 8.87174 38.6519 8.18881L38.5888 7.69282L38.5256 7.19682C33.2086 7.87394 30.7518 7.36068 29.5801 6.70649L29.3363 7.14306ZM38.5888 7.69282L38.6519 8.18881C43.9952 7.50833 51.8663 5.69142 63.536 2.03237L63.3864 1.55527L63.2369 1.07817C51.5895 4.73021 43.7831 6.52726 38.5256 7.19682L38.5888 7.69282ZM63.3864 1.55527L63.5377 2.03185L63.553 2.02698L63.4018 1.5504L63.2506 1.07382L63.2352 1.0787L63.3864 1.55527ZM63.4018 1.5504L63.5244 2.03514L63.5398 2.03124L63.4172 1.5465L63.2946 1.06176L63.2792 1.06566L63.4018 1.5504ZM63.4172 1.5465L63.5513 2.02819C66.0421 1.33478 72.3439 0.291047 77.6779 1.69473L77.8051 1.21119L77.9324 0.727657C72.3554 -0.739955 65.8558 0.348633 63.2831 1.06482L63.4172 1.5465ZM77.8051 1.21119L77.6779 1.69473C77.9452 1.76509 78.1049 2.03899 78.0348 2.30566L78.5183 2.43281L79.0019 2.55997C79.2126 1.75856 78.7331 0.93838 77.9324 0.727659L77.8051 1.21119ZM78.5183 2.43281L78.0348 2.30551C77.9645 2.57267 77.6904 2.73248 77.4237 2.66243L77.2967 3.14603L77.1697 3.62963C77.9708 3.84002 78.7911 3.3607 79.0019 2.56012L78.5183 2.43281ZM77.2967 3.14603L77.424 2.6625C72.3428 1.32526 66.2525 2.3158 63.8341 2.98627L63.9677 3.4681L64.1012 3.94992C66.438 3.30208 72.3307 2.35614 77.1695 3.62957L77.2967 3.14603ZM63.9677 3.4681L63.8181 2.99099C52.1349 6.65363 44.2039 8.49004 38.7776 9.18107L38.8408 9.67707L38.9039 10.1731C44.416 9.47111 52.4118 7.61483 64.1172 3.9452L63.9677 3.4681ZM38.8408 9.67707L38.7776 9.18107C33.369 9.86981 30.3631 9.43403 28.6049 8.45228L28.3612 8.88883L28.1174 9.32538C30.1685 10.4708 33.4491 10.8677 38.9039 10.1731L38.8408 9.67707ZM28.3612 8.88883L28.6049 8.45228C26.8006 7.4447 26.4002 5.90457 26.0499 4.83134L25.5746 4.98646L25.0993 5.14158C25.4375 6.17814 25.9296 8.10365 28.1174 9.32538L28.3612 8.88883ZM25.5746 4.98646L26.0499 4.83133C25.8684 4.27502 25.7181 3.90305 25.4771 3.66368L25.1248 4.01846L24.7724 4.37324C24.7864 4.38708 24.8221 4.42834 24.8797 4.55179C24.938 4.67654 25.0075 4.86031 25.0993 5.14159L25.5746 4.98646ZM25.1248 4.01846L25.4769 3.66349C25.395 3.58223 25.2642 3.47727 25.04 3.40758C24.8318 3.34287 24.5661 3.31562 24.2164 3.33739L24.2475 3.83642L24.2785 4.33545C24.5515 4.31847 24.6871 4.34509 24.7431 4.36251C24.7693 4.37065 24.7777 4.37662 24.7755 4.37524C24.7724 4.37325 24.7694 4.37026 24.7726 4.37342L25.1248 4.01846ZM24.2475 3.83642L24.2163 3.33739C21.8817 3.48309 20.3229 4.09069 17.2561 5.15408L17.4199 5.62649L17.5837 6.0989C20.6952 5.02001 22.11 4.47079 24.2786 4.33545L24.2475 3.83642ZM17.4199 5.62649L17.2561 5.15408C14.1962 6.21507 9.71555 7.69653 1.61123 9.53339L1.72175 10.021L1.83227 10.5087C9.97893 8.6622 14.4956 7.16969 17.5837 6.0989L17.4199 5.62649ZM1.72175 10.021L1.61123 9.53339C1.34172 9.59447 1.07364 9.42539 1.01261 9.15635L0.524999 9.26695L0.0373845 9.37755C0.220659 10.1856 1.02464 10.6917 1.83227 10.5087L1.72175 10.021ZM0.524999 9.26695L1.01265 9.15651C0.951599 8.88694 1.12077 8.61881 1.38968 8.55781L1.27907 8.0702L1.16846 7.58258C0.360442 7.76587 -0.145516 8.56995 0.0373481 9.37739L0.524999 9.26695ZM1.27907 8.0702L1.38959 8.55783C9.45144 6.73061 13.8959 5.25959 16.9276 4.20836L16.7638 3.73596L16.6 3.26355C13.5964 4.305 9.18799 5.76496 1.16855 7.58256L1.27907 8.0702ZM16.7638 3.73596L16.9276 4.20836C19.951 3.16001 21.6528 2.49547 24.1531 2.33939L24.1219 1.84036L24.0908 1.34134C21.4252 1.50774 19.5812 2.22983 16.6 3.26355L16.7638 3.73596Z" fill="white" mask="url(#path-1-outside-1_1_35031)"/>
<defs>
<linearGradient id="paint0_linear_1_35031" x1="-25.2657" y1="9.1024" x2="139.465" y2="-7.36161" gradientUnits="userSpaceOnUse">
<stop stop-color="white"/>
<stop offset="1" stop-color="white" stop-opacity="0"/>
</linearGradient>
</defs>
</svg>
