<svg width="13" height="10" viewBox="0 0 13 10" fill="none" xmlns="http://www.w3.org/2000/svg">
<path d="M7.61992 0.496626C5.63393 2.25365 2.35123 4.8767 0.561967 6.34401C0.0887675 6.73206 -0.104974 7.35974 0.0554479 7.95031L0.175699 8.393C0.41512 9.27438 1.35127 9.77108 2.21435 9.47231C6.22855 8.08276 12.6448 5.75503 12.3858 3.92928C12.2394 2.89724 11.3641 1.68584 10.533 0.662799C9.85864 -0.167192 8.42085 -0.211963 7.61992 0.496626Z" fill="#9A41FE"/>
<path d="M7.61992 0.496626C5.63393 2.25365 2.35123 4.8767 0.561967 6.34401C0.0887675 6.73206 -0.104974 7.35974 0.0554479 7.95031L0.175699 8.393C0.41512 9.27438 1.35127 9.77108 2.21435 9.47231C6.22855 8.08276 12.6448 5.75503 12.3858 3.92928C12.2394 2.89724 11.3641 1.68584 10.533 0.662799C9.85864 -0.167192 8.42085 -0.211963 7.61992 0.496626Z" fill="url(#paint0_linear_1_39638)"/>
<defs>
<linearGradient id="paint0_linear_1_39638" x1="1.50732" y1="9.66821" x2="12.5073" y2="1.66821" gradientUnits="userSpaceOnUse">
<stop stop-color="white" stop-opacity="0.4"/>
<stop offset="1" stop-color="white" stop-opacity="0.9"/>
</linearGradient>
</defs>
</svg>
