<svg width="16" height="12" viewBox="0 0 16 12" fill="none" xmlns="http://www.w3.org/2000/svg">
<path fill-rule="evenodd" clip-rule="evenodd" d="M7.77397 2.23686C10.0297 2.23696 12.1992 3.07326 13.8341 4.57293C13.9572 4.68871 14.1539 4.68725 14.2752 4.56966L15.452 3.42372C15.5134 3.36408 15.5476 3.28329 15.5471 3.19923C15.5466 3.11517 15.5114 3.03477 15.4493 2.97582C11.1583 -0.991941 4.38892 -0.991941 0.0980042 2.97582C0.0358473 3.03473 0.000580253 3.1151 7.09617e-06 3.19916C-0.000566061 3.28322 0.033602 3.36403 0.0949503 3.42372L1.27208 4.56966C1.39325 4.68743 1.59018 4.68889 1.71321 4.57293C3.34825 3.07316 5.518 2.23685 7.77397 2.23686ZM7.77093 6.06455C9.00199 6.06448 10.1891 6.52861 11.1016 7.36677C11.2251 7.48573 11.4195 7.48315 11.5398 7.36096L12.7073 6.16438C12.7688 6.10162 12.8029 6.01647 12.802 5.928C12.8012 5.83952 12.7653 5.7551 12.7026 5.69361C9.92379 3.07168 5.62043 3.07168 2.8416 5.69361C2.77883 5.75509 2.74302 5.83956 2.74219 5.92807C2.74137 6.01657 2.77561 6.10171 2.83722 6.16438L4.00442 7.36096C4.12473 7.48315 4.31916 7.48573 4.44258 7.36677C5.3545 6.52917 6.54069 6.06507 7.77093 6.06455ZM10.0605 8.59824C10.0623 8.69379 10.0287 8.78591 9.96762 8.85285L7.99343 11.0792C7.93556 11.1447 7.85666 11.1815 7.77433 11.1815C7.69201 11.1815 7.61311 11.1447 7.55524 11.0792L5.58072 8.85285C5.51973 8.78586 5.48617 8.69371 5.48798 8.59816C5.48979 8.50261 5.5268 8.41213 5.59028 8.34808C6.85106 7.15641 8.6976 7.15641 9.95839 8.34808C10.0218 8.41218 10.0588 8.50269 10.0605 8.59824Z" fill="black"/>
</svg>
