<svg width="299" height="70" viewBox="0 0 299 70" fill="none" xmlns="http://www.w3.org/2000/svg">
<mask id="mask0_1_6044" style="mask-type:alpha" maskUnits="userSpaceOnUse" x="0" y="0" width="299" height="65">
<path d="M270.5 1.16071V0L299 0V1.16071C299 36.4182 274.376 65 244 65L0 65L0 30.1786L244 30.1786C257.807 30.1786 270.5 17.1868 270.5 1.16071Z" fill="url(#paint0_linear_1_6044)"/>
</mask>
<g mask="url(#mask0_1_6044)">
<path d="M270.5 1.16071V0L299 0V1.16071C299 36.4182 274.376 65 244 65L0 65L0 30.1786L244 30.1786C257.807 30.1786 270.5 17.1868 270.5 1.16071Z" fill="#9A41FE"/>
<path d="M270.5 1.16071V0L299 0V1.16071C299 36.4182 274.376 65 244 65L0 65L0 30.1786L244 30.1786C257.807 30.1786 270.5 17.1868 270.5 1.16071Z" fill="white" fill-opacity="0.95"/>
<path d="M284 0.00012207V2.49995C284 24.5913 266.091 42.4999 244 42.4999L0.5 42.4999" stroke="#9A41FE" stroke-width="3" stroke-linejoin="round" stroke-dasharray="10 15"/>
<path d="M284 0.00012207V2.49995C284 24.5913 266.091 42.4999 244 42.4999L0.5 42.4999" stroke="white" stroke-opacity="0.25" stroke-width="3" stroke-linejoin="round" stroke-dasharray="10 15"/>
</g>
<defs>
<linearGradient id="paint0_linear_1_6044" x1="299" y1="2.53085" x2="69.9547" y2="297.63" gradientUnits="userSpaceOnUse">
<stop offset="0.0615576" stop-color="#807AFF"/>
<stop offset="0.143622" stop-color="#807AFF" stop-opacity="0"/>
</linearGradient>
</defs>
</svg>
