<svg width="299" height="70" viewBox="0 0 299 70" fill="none" xmlns="http://www.w3.org/2000/svg">
<path d="M48.5683 48.4286C37.5219 48.4286 28.5 58.0865 28.5 70H0C0 41.0711 21.7448 17.6194 48.5683 17.6194H254.245C263.186 17.6194 270.5 9.64206 270.5 0H299C299 26.6575 278.963 48.4286 254.245 48.4286H48.5683Z" fill="#9A41FE"/>
<path d="M48.5683 48.4286C37.5219 48.4286 28.5 58.0865 28.5 70H0C0 41.0711 21.7448 17.6194 48.5683 17.6194H254.245C263.186 17.6194 270.5 9.64206 270.5 0H299C299 26.6575 278.963 48.4286 254.245 48.4286H48.5683Z" fill="white" fill-opacity="0.95"/>
<path d="M14.9998 70C14.9998 48.6309 32.3228 31.3078 53.6919 31.3078H252.692C269.983 31.3078 284 17.2908 284 0" stroke="#9A41FE" stroke-width="3" stroke-linejoin="round" stroke-dasharray="10 15"/>
<path d="M14.9998 70C14.9998 48.6309 32.3228 31.3078 53.6919 31.3078H252.692C269.983 31.3078 284 17.2908 284 0" stroke="white" stroke-opacity="0.25" stroke-width="3" stroke-linejoin="round" stroke-dasharray="10 15"/>
</svg>
