<svg width="299" height="70" viewBox="0 0 299 70" fill="none" xmlns="http://www.w3.org/2000/svg">
<path d="M270.5 68.9643V70H299V68.9643C299 37.5038 274.376 12 244 12H18V43.0714H244C257.807 43.0714 270.5 54.6641 270.5 68.9643Z" fill="#9A41FE"/>
<path d="M270.5 68.9643V70H299V68.9643C299 37.5038 274.376 12 244 12H18V43.0714H244C257.807 43.0714 270.5 54.6641 270.5 68.9643Z" fill="white" fill-opacity="0.95"/>
<path d="M284 70V67C284 44.9086 266.091 27 244 27H0" stroke="#9A41FE" stroke-width="3" stroke-linejoin="round" stroke-dasharray="10 15"/>
<path d="M284 70V67C284 44.9086 266.091 27 244 27H0" stroke="white" stroke-opacity="0.25" stroke-width="3" stroke-linejoin="round" stroke-dasharray="10 15"/>
</svg>
