<svg width="245" height="60" viewBox="0 0 245 60" fill="none" xmlns="http://www.w3.org/2000/svg">
<path d="M3.53553 33.5355C1.58291 31.5829 1.58291 28.4171 3.53553 26.4645L10 20L10 40L3.53553 33.5355Z" fill="url(#paint0_linear_1_5077)"/>
<path d="M20 0.5H235C240.247 0.5 244.5 4.7533 244.5 10V50C244.5 55.2467 240.247 59.5 235 59.5H20C14.7533 59.5 10.5 55.2467 10.5 50V10C10.5 4.7533 14.7533 0.5 20 0.5Z" fill="url(#paint1_linear_1_5077)"/>
<path d="M20 0.5H235C240.247 0.5 244.5 4.7533 244.5 10V50C244.5 55.2467 240.247 59.5 235 59.5H20C14.7533 59.5 10.5 55.2467 10.5 50V10C10.5 4.7533 14.7533 0.5 20 0.5Z" stroke="url(#paint2_linear_1_5077)"/>
<rect x="14" y="4" width="227" height="52" rx="8" fill="#FDFDFD"/>
<path d="M161.419 0H235C240.523 0 245 4.47715 245 10V50C245 55.5228 240.523 60 235 60H156L161.419 0Z" fill="#FDECC9"/>
<path d="M164.419 0H235C240.523 0 245 4.47715 245 10V50C245 55.5228 240.523 60 235 60H156L164.419 0Z" fill="#FDA11C"/>
<path d="M168.419 0H235C240.523 0 245 4.47715 245 10V50C245 55.5228 240.523 60 235 60H156L168.419 0Z" fill="#FF7545"/>
<path d="M172.419 0H235C240.523 0 245 4.47715 245 10V50C245 55.5228 240.523 60 235 60H156L172.419 0Z" fill="url(#paint3_linear_1_5077)"/>
<defs>
<linearGradient id="paint0_linear_1_5077" x1="5" y1="40" x2="5" y2="20" gradientUnits="userSpaceOnUse">
<stop stop-color="#E57811"/>
<stop offset="1" stop-color="#FDBD39"/>
</linearGradient>
<linearGradient id="paint1_linear_1_5077" x1="10" y1="30" x2="245" y2="30" gradientUnits="userSpaceOnUse">
<stop offset="0.383423" stop-color="#FB6924"/>
<stop offset="1" stop-color="#FBA136"/>
</linearGradient>
<linearGradient id="paint2_linear_1_5077" x1="10" y1="30" x2="245" y2="30" gradientUnits="userSpaceOnUse">
<stop stop-color="#F56876"/>
<stop offset="0.288023" stop-color="#EEFFAE"/>
<stop offset="0.601624" stop-color="#F758BB"/>
</linearGradient>
<linearGradient id="paint3_linear_1_5077" x1="168.735" y1="-1.06809e-06" x2="232.265" y2="60" gradientUnits="userSpaceOnUse">
<stop stop-color="#FF9A68"/>
<stop offset="1" stop-color="#FE9000"/>
</linearGradient>
</defs>
</svg>
