<svg width="245" height="60" viewBox="0 0 245 60" fill="none" xmlns="http://www.w3.org/2000/svg">
<path d="M10 0.5H225C230.247 0.5 234.5 4.7533 234.5 10V50C234.5 55.2467 230.247 59.5 225 59.5H10C4.75329 59.5 0.5 55.2467 0.5 50V10C0.500001 4.7533 4.7533 0.5 10 0.5Z" fill="url(#paint0_linear_1_5088)"/>
<path d="M10 0.5H225C230.247 0.5 234.5 4.7533 234.5 10V50C234.5 55.2467 230.247 59.5 225 59.5H10C4.75329 59.5 0.5 55.2467 0.5 50V10C0.500001 4.7533 4.7533 0.5 10 0.5Z" stroke="url(#paint1_linear_1_5088)"/>
<rect x="4" y="4" width="227" height="52" rx="8" fill="#FDFDFD"/>
<path d="M151.419 0H225C230.523 0 235 4.47715 235 10V50C235 55.5228 230.523 60 225 60H146L151.419 0Z" fill="#FDECC9"/>
<path d="M154.419 0H225C230.523 0 235 4.47715 235 10V50C235 55.5228 230.523 60 225 60H146L154.419 0Z" fill="#FDA11C"/>
<path d="M158.419 0H225C230.523 0 235 4.47715 235 10V50C235 55.5228 230.523 60 225 60H146L158.419 0Z" fill="#FF7545"/>
<path d="M162.419 0H225C230.523 0 235 4.47715 235 10V50C235 55.5228 230.523 60 225 60H146L162.419 0Z" fill="url(#paint2_linear_1_5088)"/>
<path d="M241.464 26.4645C243.417 28.4171 243.417 31.5829 241.464 33.5355L235 40L235 20L241.464 26.4645Z" fill="url(#paint3_linear_1_5088)"/>
<defs>
<linearGradient id="paint0_linear_1_5088" x1="0" y1="30" x2="235" y2="30" gradientUnits="userSpaceOnUse">
<stop offset="0.383423" stop-color="#FB6924"/>
<stop offset="1" stop-color="#FBA136"/>
</linearGradient>
<linearGradient id="paint1_linear_1_5088" x1="0" y1="30" x2="235" y2="30" gradientUnits="userSpaceOnUse">
<stop stop-color="#F56876"/>
<stop offset="0.288023" stop-color="#EEFFAE"/>
<stop offset="0.601624" stop-color="#F758BB"/>
</linearGradient>
<linearGradient id="paint2_linear_1_5088" x1="158.735" y1="-1.06809e-06" x2="222.265" y2="60" gradientUnits="userSpaceOnUse">
<stop stop-color="#FF9A68"/>
<stop offset="1" stop-color="#FE9000"/>
</linearGradient>
<linearGradient id="paint3_linear_1_5088" x1="240" y1="20" x2="240" y2="40" gradientUnits="userSpaceOnUse">
<stop stop-color="#E57811"/>
<stop offset="1" stop-color="#FDBD39"/>
</linearGradient>
</defs>
</svg>
