<svg width="27" height="112" viewBox="0 0 27 112" fill="none" xmlns="http://www.w3.org/2000/svg">
<g filter="url(#filter0_ii_1_21645)">
<path d="M23.5911 93.9375C14.2372 67.9335 19.3216 35.3283 24.3993 17.4652C25.3356 14.1713 24.2808 10.5906 21.5731 8.49432L13.6677 2.37396C12.1157 1.17239 9.84493 1.76344 9.12933 3.59114C-6.98603 44.7511 1.62829 88.0209 9.1884 108C9.87264 109.809 12.0877 110.397 13.6404 109.245L20.8296 103.911C23.8943 101.637 24.8828 97.5283 23.5911 93.9375Z" fill="#985DE9"/>
<path d="M23.5911 93.9375C14.2372 67.9335 19.3216 35.3283 24.3993 17.4652C25.3356 14.1713 24.2808 10.5906 21.5731 8.49432L13.6677 2.37396C12.1157 1.17239 9.84493 1.76344 9.12933 3.59114C-6.98603 44.7511 1.62829 88.0209 9.1884 108C9.87264 109.809 12.0877 110.397 13.6404 109.245L20.8296 103.911C23.8943 101.637 24.8828 97.5283 23.5911 93.9375Z" fill="url(#paint0_linear_1_21645)"/>
</g>
<g filter="url(#filter1_i_1_21645)">
<circle cx="2.5" cy="2.5" r="2.5" transform="matrix(-1 0 0 1 15.1013 9.5)" fill="#985DE9"/>
<circle cx="2.5" cy="2.5" r="2.5" transform="matrix(-1 0 0 1 15.1013 9.5)" fill="white" fill-opacity="0.4"/>
<circle cx="2.5" cy="2.5" r="2.5" transform="matrix(-1 0 0 1 15.1013 9.5)" fill="url(#paint1_radial_1_21645)"/>
</g>
<g filter="url(#filter2_i_1_21645)">
<path d="M12.6011 10.5715C12.4039 10.5715 12.2437 10.7317 12.2437 10.929V11.6428H11.5298C11.3326 11.6428 11.1725 11.8031 11.1724 12.0002C11.1724 12.1975 11.3326 12.3577 11.5298 12.3577H12.2437V13.0715C12.2437 13.2688 12.4039 13.429 12.6011 13.429C12.7983 13.4289 12.9585 13.2687 12.9585 13.0715V12.3577H13.6724C13.8696 12.3576 14.0298 12.1975 14.0298 12.0002C14.0297 11.8031 13.8696 11.6429 13.6724 11.6428H12.9585V10.929C12.9585 10.7318 12.7983 10.5716 12.6011 10.5715Z" fill="#985DE9"/>
<path d="M12.6011 10.5715C12.4039 10.5715 12.2437 10.7317 12.2437 10.929V11.6428H11.5298C11.3326 11.6428 11.1725 11.8031 11.1724 12.0002C11.1724 12.1975 11.3326 12.3577 11.5298 12.3577H12.2437V13.0715C12.2437 13.2688 12.4039 13.429 12.6011 13.429C12.7983 13.4289 12.9585 13.2687 12.9585 13.0715V12.3577H13.6724C13.8696 12.3576 14.0298 12.1975 14.0298 12.0002C14.0297 11.8031 13.8696 11.6429 13.6724 11.6428H12.9585V10.929C12.9585 10.7318 12.7983 10.5716 12.6011 10.5715Z" fill="white" fill-opacity="0.4"/>
</g>
<g filter="url(#filter3_i_1_21645)">
<circle cx="2.5" cy="2.5" r="2.5" transform="matrix(-1 0 0 1 15.1013 96.5)" fill="#985DE9"/>
<circle cx="2.5" cy="2.5" r="2.5" transform="matrix(-1 0 0 1 15.1013 96.5)" fill="white" fill-opacity="0.4"/>
<circle cx="2.5" cy="2.5" r="2.5" transform="matrix(-1 0 0 1 15.1013 96.5)" fill="url(#paint2_radial_1_21645)"/>
</g>
<g filter="url(#filter4_i_1_21645)">
<path d="M12.6011 97.5715C12.4039 97.5715 12.2437 97.7317 12.2437 97.929V98.6428H11.5298C11.3326 98.6428 11.1725 98.8031 11.1724 99.0002C11.1724 99.1975 11.3326 99.3577 11.5298 99.3577H12.2437V100.072C12.2437 100.269 12.4039 100.429 12.6011 100.429C12.7983 100.429 12.9585 100.269 12.9585 100.072V99.3577H13.6724C13.8696 99.3576 14.0298 99.1975 14.0298 99.0002C14.0297 98.8031 13.8696 98.6429 13.6724 98.6428H12.9585V97.929C12.9585 97.7318 12.7983 97.5716 12.6011 97.5715Z" fill="#985DE9"/>
<path d="M12.6011 97.5715C12.4039 97.5715 12.2437 97.7317 12.2437 97.929V98.6428H11.5298C11.3326 98.6428 11.1725 98.8031 11.1724 99.0002C11.1724 99.1975 11.3326 99.3577 11.5298 99.3577H12.2437V100.072C12.2437 100.269 12.4039 100.429 12.6011 100.429C12.7983 100.429 12.9585 100.269 12.9585 100.072V99.3577H13.6724C13.8696 99.3576 14.0298 99.1975 14.0298 99.0002C14.0297 98.8031 13.8696 98.6429 13.6724 98.6428H12.9585V97.929C12.9585 97.7318 12.7983 97.5716 12.6011 97.5715Z" fill="white" fill-opacity="0.4"/>
</g>
<g filter="url(#filter5_i_1_21645)">
<rect width="5" height="6" rx="2.5" transform="matrix(2.62268e-08 -1 -1 -7.28523e-08 10.1013 65)" fill="#985DE9"/>
<rect width="5" height="6" rx="2.5" transform="matrix(2.62268e-08 -1 -1 -7.28523e-08 10.1013 65)" fill="white" fill-opacity="0.5"/>
</g>
<rect x="-0.3125" y="-0.3125" width="4.375" height="5.375" rx="2.1875" transform="matrix(2.62268e-08 -1 -1 -7.28523e-08 9.47632 64.375)" stroke="#985DE9" stroke-width="0.625"/>
<rect x="-0.3125" y="-0.3125" width="4.375" height="5.375" rx="2.1875" transform="matrix(2.62268e-08 -1 -1 -7.28523e-08 9.47632 64.375)" stroke="white" stroke-opacity="0.9" stroke-width="0.625"/>
<g filter="url(#filter6_i_1_21645)">
<rect width="5" height="10" rx="2.5" transform="matrix(4.37114e-08 -1 -1 -4.37114e-08 12.1013 56.25)" fill="#985DE9"/>
<rect width="5" height="10" rx="2.5" transform="matrix(4.37114e-08 -1 -1 -4.37114e-08 12.1013 56.25)" fill="white" fill-opacity="0.5"/>
</g>
<rect x="-0.3125" y="-0.3125" width="4.375" height="9.375" rx="2.1875" transform="matrix(4.37114e-08 -1 -1 -4.37114e-08 11.4763 55.625)" stroke="#985DE9" stroke-width="0.625"/>
<rect x="-0.3125" y="-0.3125" width="4.375" height="9.375" rx="2.1875" transform="matrix(4.37114e-08 -1 -1 -4.37114e-08 11.4763 55.625)" stroke="white" stroke-opacity="0.9" stroke-width="0.625"/>
<g filter="url(#filter7_i_1_21645)">
<rect width="5" height="6" rx="2.5" transform="matrix(2.62268e-08 -1 -1 -7.28523e-08 10.1013 47.5)" fill="#985DE9"/>
<rect width="5" height="6" rx="2.5" transform="matrix(2.62268e-08 -1 -1 -7.28523e-08 10.1013 47.5)" fill="white" fill-opacity="0.5"/>
</g>
<rect x="-0.3125" y="-0.3125" width="4.375" height="5.375" rx="2.1875" transform="matrix(2.62268e-08 -1 -1 -7.28523e-08 9.47632 46.875)" stroke="#985DE9" stroke-width="0.625"/>
<rect x="-0.3125" y="-0.3125" width="4.375" height="5.375" rx="2.1875" transform="matrix(2.62268e-08 -1 -1 -7.28523e-08 9.47632 46.875)" stroke="white" stroke-opacity="0.9" stroke-width="0.625"/>
<defs>
<filter id="filter0_ii_1_21645" x="-0.5" y="1.74719" width="29.0341" height="108.09" filterUnits="userSpaceOnUse" color-interpolation-filters="sRGB">
<feFlood flood-opacity="0" result="BackgroundImageFix"/>
<feBlend mode="normal" in="SourceGraphic" in2="BackgroundImageFix" result="shape"/>
<feColorMatrix in="SourceAlpha" type="matrix" values="0 0 0 0 0 0 0 0 0 0 0 0 0 0 0 0 0 0 127 0" result="hardAlpha"/>
<feOffset dx="4"/>
<feGaussianBlur stdDeviation="1.9"/>
<feComposite in2="hardAlpha" operator="arithmetic" k2="-1" k3="1"/>
<feColorMatrix type="matrix" values="0 0 0 0 1 0 0 0 0 1 0 0 0 0 1 0 0 0 0.8 0"/>
<feBlend mode="normal" in2="shape" result="effect1_innerShadow_1_21645"/>
<feColorMatrix in="SourceAlpha" type="matrix" values="0 0 0 0 0 0 0 0 0 0 0 0 0 0 0 0 0 0 127 0" result="hardAlpha"/>
<feOffset dx="-1"/>
<feGaussianBlur stdDeviation="0.25"/>
<feComposite in2="hardAlpha" operator="arithmetic" k2="-1" k3="1"/>
<feColorMatrix type="matrix" values="0 0 0 0 1 0 0 0 0 1 0 0 0 0 1 0 0 0 0.6 0"/>
<feBlend mode="normal" in2="effect1_innerShadow_1_21645" result="effect2_innerShadow_1_21645"/>
</filter>
<filter id="filter1_i_1_21645" x="10.1013" y="9.00002" width="5" height="5.49998" filterUnits="userSpaceOnUse" color-interpolation-filters="sRGB">
<feFlood flood-opacity="0" result="BackgroundImageFix"/>
<feBlend mode="normal" in="SourceGraphic" in2="BackgroundImageFix" result="shape"/>
<feColorMatrix in="SourceAlpha" type="matrix" values="0 0 0 0 0 0 0 0 0 0 0 0 0 0 0 0 0 0 127 0" result="hardAlpha"/>
<feOffset dy="-0.499985"/>
<feGaussianBlur stdDeviation="0.25"/>
<feComposite in2="hardAlpha" operator="arithmetic" k2="-1" k3="1"/>
<feColorMatrix type="matrix" values="0 0 0 0 0 0 0 0 0 0 0 0 0 0 0 0 0 0 0.15 0"/>
<feBlend mode="normal" in2="shape" result="effect1_innerShadow_1_21645"/>
</filter>
<filter id="filter2_i_1_21645" x="11.1724" y="10.5715" width="3.00027" height="2.85742" filterUnits="userSpaceOnUse" color-interpolation-filters="sRGB">
<feFlood flood-opacity="0" result="BackgroundImageFix"/>
<feBlend mode="normal" in="SourceGraphic" in2="BackgroundImageFix" result="shape"/>
<feColorMatrix in="SourceAlpha" type="matrix" values="0 0 0 0 0 0 0 0 0 0 0 0 0 0 0 0 0 0 127 0" result="hardAlpha"/>
<feOffset dx="0.142853"/>
<feGaussianBlur stdDeviation="0.10714"/>
<feComposite in2="hardAlpha" operator="arithmetic" k2="-1" k3="1"/>
<feColorMatrix type="matrix" values="0 0 0 0 0 0 0 0 0 0 0 0 0 0 0 0 0 0 0.3 0"/>
<feBlend mode="normal" in2="shape" result="effect1_innerShadow_1_21645"/>
</filter>
<filter id="filter3_i_1_21645" x="10.1013" y="96" width="5" height="5.49998" filterUnits="userSpaceOnUse" color-interpolation-filters="sRGB">
<feFlood flood-opacity="0" result="BackgroundImageFix"/>
<feBlend mode="normal" in="SourceGraphic" in2="BackgroundImageFix" result="shape"/>
<feColorMatrix in="SourceAlpha" type="matrix" values="0 0 0 0 0 0 0 0 0 0 0 0 0 0 0 0 0 0 127 0" result="hardAlpha"/>
<feOffset dy="-0.499985"/>
<feGaussianBlur stdDeviation="0.25"/>
<feComposite in2="hardAlpha" operator="arithmetic" k2="-1" k3="1"/>
<feColorMatrix type="matrix" values="0 0 0 0 0 0 0 0 0 0 0 0 0 0 0 0 0 0 0.15 0"/>
<feBlend mode="normal" in2="shape" result="effect1_innerShadow_1_21645"/>
</filter>
<filter id="filter4_i_1_21645" x="11.1724" y="97.5715" width="3.00027" height="2.85742" filterUnits="userSpaceOnUse" color-interpolation-filters="sRGB">
<feFlood flood-opacity="0" result="BackgroundImageFix"/>
<feBlend mode="normal" in="SourceGraphic" in2="BackgroundImageFix" result="shape"/>
<feColorMatrix in="SourceAlpha" type="matrix" values="0 0 0 0 0 0 0 0 0 0 0 0 0 0 0 0 0 0 127 0" result="hardAlpha"/>
<feOffset dx="0.142853"/>
<feGaussianBlur stdDeviation="0.10714"/>
<feComposite in2="hardAlpha" operator="arithmetic" k2="-1" k3="1"/>
<feColorMatrix type="matrix" values="0 0 0 0 0 0 0 0 0 0 0 0 0 0 0 0 0 0 0.3 0"/>
<feBlend mode="normal" in2="shape" result="effect1_innerShadow_1_21645"/>
</filter>
<filter id="filter5_i_1_21645" x="4.10132" y="60" width="6" height="6" filterUnits="userSpaceOnUse" color-interpolation-filters="sRGB">
<feFlood flood-opacity="0" result="BackgroundImageFix"/>
<feBlend mode="normal" in="SourceGraphic" in2="BackgroundImageFix" result="shape"/>
<feColorMatrix in="SourceAlpha" type="matrix" values="0 0 0 0 0 0 0 0 0 0 0 0 0 0 0 0 0 0 127 0" result="hardAlpha"/>
<feOffset dy="1"/>
<feGaussianBlur stdDeviation="0.75"/>
<feComposite in2="hardAlpha" operator="arithmetic" k2="-1" k3="1"/>
<feColorMatrix type="matrix" values="0 0 0 0 0 0 0 0 0 0 0 0 0 0 0 0 0 0 0.2 0"/>
<feBlend mode="normal" in2="shape" result="effect1_innerShadow_1_21645"/>
</filter>
<filter id="filter6_i_1_21645" x="2.10132" y="51.25" width="10" height="6" filterUnits="userSpaceOnUse" color-interpolation-filters="sRGB">
<feFlood flood-opacity="0" result="BackgroundImageFix"/>
<feBlend mode="normal" in="SourceGraphic" in2="BackgroundImageFix" result="shape"/>
<feColorMatrix in="SourceAlpha" type="matrix" values="0 0 0 0 0 0 0 0 0 0 0 0 0 0 0 0 0 0 127 0" result="hardAlpha"/>
<feOffset dy="1"/>
<feGaussianBlur stdDeviation="0.75"/>
<feComposite in2="hardAlpha" operator="arithmetic" k2="-1" k3="1"/>
<feColorMatrix type="matrix" values="0 0 0 0 0 0 0 0 0 0 0 0 0 0 0 0 0 0 0.2 0"/>
<feBlend mode="normal" in2="shape" result="effect1_innerShadow_1_21645"/>
</filter>
<filter id="filter7_i_1_21645" x="4.10132" y="42.5" width="6" height="6" filterUnits="userSpaceOnUse" color-interpolation-filters="sRGB">
<feFlood flood-opacity="0" result="BackgroundImageFix"/>
<feBlend mode="normal" in="SourceGraphic" in2="BackgroundImageFix" result="shape"/>
<feColorMatrix in="SourceAlpha" type="matrix" values="0 0 0 0 0 0 0 0 0 0 0 0 0 0 0 0 0 0 127 0" result="hardAlpha"/>
<feOffset dy="1"/>
<feGaussianBlur stdDeviation="0.75"/>
<feComposite in2="hardAlpha" operator="arithmetic" k2="-1" k3="1"/>
<feColorMatrix type="matrix" values="0 0 0 0 0 0 0 0 0 0 0 0 0 0 0 0 0 0 0.2 0"/>
<feBlend mode="normal" in2="shape" result="effect1_innerShadow_1_21645"/>
</filter>
<linearGradient id="paint0_linear_1_21645" x1="13.0507" y1="0" x2="13.0507" y2="111.5" gradientUnits="userSpaceOnUse">
<stop stop-color="white" stop-opacity="0.8"/>
<stop offset="1" stop-color="white" stop-opacity="0.6"/>
</linearGradient>
<radialGradient id="paint1_radial_1_21645" cx="0" cy="0" r="1" gradientUnits="userSpaceOnUse" gradientTransform="translate(1.66667 1.66667) rotate(66.8014) scale(2.11549)">
<stop stop-color="white" stop-opacity="0.8"/>
<stop offset="0.528846" stop-color="white" stop-opacity="0.5"/>
<stop offset="0.947115" stop-color="white" stop-opacity="0"/>
</radialGradient>
<radialGradient id="paint2_radial_1_21645" cx="0" cy="0" r="1" gradientUnits="userSpaceOnUse" gradientTransform="translate(1.66667 1.66667) rotate(66.8014) scale(2.11549)">
<stop stop-color="white" stop-opacity="0.8"/>
<stop offset="0.528846" stop-color="white" stop-opacity="0.5"/>
<stop offset="0.947115" stop-color="white" stop-opacity="0"/>
</radialGradient>
</defs>
</svg>
