<svg width="12" height="22" viewBox="0 0 12 22" fill="none" xmlns="http://www.w3.org/2000/svg">
<circle cx="3.01622" cy="19.2268" r="1.88498" fill="#FC8AA3" stroke="#FC8AA3" stroke-width="0.753992"/>
<circle cx="3.01613" cy="2.26198" r="1.88498" fill="#FC8AA3" stroke="#FC8AA3" stroke-width="0.753992"/>
<g filter="url(#filter0_ii_1_23740)">
<path d="M1.68848 2.45084C2.34365 2.08497 3.05267 1.88501 3.79281 1.88501C7.12416 1.88501 9.82475 5.93589 9.82475 10.9329C9.82475 15.9299 7.12416 19.9808 3.79281 19.9808C2.98425 19.9808 2.21285 19.7422 1.50819 19.3093" stroke="#FC8AA3" stroke-width="3.01597" stroke-linecap="round" stroke-linejoin="round"/>
<path d="M1.68848 2.45084C2.34365 2.08497 3.05267 1.88501 3.79281 1.88501C7.12416 1.88501 9.82475 5.93589 9.82475 10.9329C9.82475 15.9299 7.12416 19.9808 3.79281 19.9808C2.98425 19.9808 2.21285 19.7422 1.50819 19.3093" stroke="white" stroke-opacity="0.5" stroke-width="3.01597" stroke-linecap="round" stroke-linejoin="round"/>
</g>
<defs>
<filter id="filter0_ii_1_23740" x="0" y="0.377075" width="12.0867" height="24.1277" filterUnits="userSpaceOnUse" color-interpolation-filters="sRGB">
<feFlood flood-opacity="0" result="BackgroundImageFix"/>
<feBlend mode="normal" in="SourceGraphic" in2="BackgroundImageFix" result="shape"/>
<feColorMatrix in="SourceAlpha" type="matrix" values="0 0 0 0 0 0 0 0 0 0 0 0 0 0 0 0 0 0 127 0" result="hardAlpha"/>
<feOffset dy="3.01597"/>
<feGaussianBlur stdDeviation="1.50798"/>
<feComposite in2="hardAlpha" operator="arithmetic" k2="-1" k3="1"/>
<feColorMatrix type="matrix" values="0 0 0 0 1 0 0 0 0 1 0 0 0 0 1 0 0 0 0.5 0"/>
<feBlend mode="normal" in2="shape" result="effect1_innerShadow_1_23740"/>
<feColorMatrix in="SourceAlpha" type="matrix" values="0 0 0 0 0 0 0 0 0 0 0 0 0 0 0 0 0 0 127 0" result="hardAlpha"/>
<feOffset dx="0.753992"/>
<feGaussianBlur stdDeviation="0.716292"/>
<feComposite in2="hardAlpha" operator="arithmetic" k2="-1" k3="1"/>
<feColorMatrix type="matrix" values="0 0 0 0 1 0 0 0 0 1 0 0 0 0 1 0 0 0 0.7 0"/>
<feBlend mode="normal" in2="effect1_innerShadow_1_23740" result="effect2_innerShadow_1_23740"/>
</filter>
</defs>
</svg>
