<svg width="12" height="22" viewBox="0 0 12 22" fill="none" xmlns="http://www.w3.org/2000/svg">
<circle cx="2.26198" cy="2.26198" r="1.88498" transform="matrix(-1 0 0 1 10.5785 16.9648)" fill="#985DE9" stroke="#985DE9" stroke-width="0.753992"/>
<circle cx="2.26198" cy="2.26198" r="1.88498" transform="matrix(-1 0 0 1 10.5786 0)" fill="#985DE9" stroke="#985DE9" stroke-width="0.753992"/>
<g filter="url(#filter0_ii_1_22040)">
<path d="M9.64425 2.45084C8.98907 2.08497 8.28006 1.88501 7.53992 1.88501C4.20857 1.88501 1.50798 5.93589 1.50798 10.9329C1.50798 15.9299 4.20857 19.9808 7.53992 19.9808C8.34848 19.9808 9.11988 19.7422 9.82454 19.3093" stroke="#985DE9" stroke-width="3.01597" stroke-linecap="round" stroke-linejoin="round"/>
<path d="M9.64425 2.45084C8.98907 2.08497 8.28006 1.88501 7.53992 1.88501C4.20857 1.88501 1.50798 5.93589 1.50798 10.9329C1.50798 15.9299 4.20857 19.9808 7.53992 19.9808C8.34848 19.9808 9.11988 19.7422 9.82454 19.3093" stroke="white" stroke-opacity="0.5" stroke-width="3.01597" stroke-linecap="round" stroke-linejoin="round"/>
</g>
<defs>
<filter id="filter0_ii_1_22040" x="0" y="0.377075" width="12.0867" height="24.1277" filterUnits="userSpaceOnUse" color-interpolation-filters="sRGB">
<feFlood flood-opacity="0" result="BackgroundImageFix"/>
<feBlend mode="normal" in="SourceGraphic" in2="BackgroundImageFix" result="shape"/>
<feColorMatrix in="SourceAlpha" type="matrix" values="0 0 0 0 0 0 0 0 0 0 0 0 0 0 0 0 0 0 127 0" result="hardAlpha"/>
<feOffset dy="3.01597"/>
<feGaussianBlur stdDeviation="1.50798"/>
<feComposite in2="hardAlpha" operator="arithmetic" k2="-1" k3="1"/>
<feColorMatrix type="matrix" values="0 0 0 0 1 0 0 0 0 1 0 0 0 0 1 0 0 0 0.5 0"/>
<feBlend mode="normal" in2="shape" result="effect1_innerShadow_1_22040"/>
<feColorMatrix in="SourceAlpha" type="matrix" values="0 0 0 0 0 0 0 0 0 0 0 0 0 0 0 0 0 0 127 0" result="hardAlpha"/>
<feOffset dx="0.753992"/>
<feGaussianBlur stdDeviation="0.716292"/>
<feComposite in2="hardAlpha" operator="arithmetic" k2="-1" k3="1"/>
<feColorMatrix type="matrix" values="0 0 0 0 1 0 0 0 0 1 0 0 0 0 1 0 0 0 0.7 0"/>
<feBlend mode="normal" in2="effect1_innerShadow_1_22040" result="effect2_innerShadow_1_22040"/>
</filter>
</defs>
</svg>
