<svg width="269" height="37" viewBox="0 0 269 37" fill="none" xmlns="http://www.w3.org/2000/svg">
<path d="M15.9129 6.74378C18.4502 2.55715 22.9901 0 27.8856 0H241.114C246.01 0 250.55 2.55715 253.087 6.74378L269 33L268.5 36.5L242.875 33H186.75H134.5H52.25L0.5 37L0 33L15.9129 6.74378Z" fill="#FC8AA3"/>
<path d="M15.9129 6.74378C18.4502 2.55715 22.9901 0 27.8856 0H241.114C246.01 0 250.55 2.55715 253.087 6.74378L269 33L268.5 36.5L242.875 33H186.75H134.5H52.25L0.5 37L0 33L15.9129 6.74378Z" fill="url(#paint0_linear_1_23358)"/>
<g filter="url(#filter0_i_1_23358)">
<path d="M15.9129 10.7438C18.4502 6.55715 22.9901 4 27.8856 4H241.114C246.01 4 250.55 6.55715 253.087 10.7438L269 37H0L15.9129 10.7438Z" fill="#FC8AA3"/>
<path d="M15.9129 10.7438C18.4502 6.55715 22.9901 4 27.8856 4H241.114C246.01 4 250.55 6.55715 253.087 10.7438L269 37H0L15.9129 10.7438Z" fill="url(#paint1_linear_1_23358)"/>
</g>
<path d="M27.8857 4.34961H241.114C245.887 4.34961 250.314 6.84294 252.788 10.9248L268.378 36.6504H0.62207L16.2119 10.9248C18.6858 6.84294 23.1127 4.34961 27.8857 4.34961Z" stroke="url(#paint2_linear_1_23358)" stroke-opacity="0.5" stroke-width="0.7"/>
<path d="M18.0283 14.8921C20.5451 10.6214 25.1327 8 30.0898 8H238.91C243.867 8 248.455 10.6214 250.972 14.8921L264 37H5L18.0283 14.8921Z" fill="#FC8AA3"/>
<path d="M18.0283 14.8921C20.5451 10.6214 25.1327 8 30.0898 8H238.91C243.867 8 248.455 10.6214 250.972 14.8921L264 37H5L18.0283 14.8921Z" fill="url(#paint3_linear_1_23358)"/>
<path d="M30.0898 8.34961H238.91C243.743 8.34961 248.216 10.9056 250.67 15.0693L263.388 36.6504H5.6123L18.3301 15.0693C20.784 10.9057 25.2568 8.34961 30.0898 8.34961Z" stroke="url(#paint4_linear_1_23358)" stroke-opacity="0.2" stroke-width="0.7"/>
<path d="M29.0113 19.568H32.3353V17.948C31.4713 18.02 30.5593 18.068 29.5873 18.068L29.2273 17.048C31.8313 17.048 34.0153 16.76 35.7913 16.184L36.3553 17.144C35.5273 17.432 34.5793 17.66 33.4993 17.816V19.568H36.8473V20.66H33.4993V22.22H36.1393V27.224H35.0113V26.648H30.9193V27.236H29.7793V22.22H32.3353V20.66H29.0113V19.568ZM30.9193 25.58H35.0113V23.288H30.9193V25.58ZM26.9833 16.28C27.7753 16.796 28.4593 17.324 29.0233 17.852L28.2433 18.62C27.7633 18.128 27.0793 17.588 26.2033 17.012L26.9833 16.28ZM26.7073 19.136C27.5233 19.724 28.2193 20.312 28.7713 20.9L27.9793 21.692C27.4873 21.14 26.7913 20.552 25.9033 19.916L26.7073 19.136ZM27.8713 22.364L28.9153 22.772C28.4113 24.308 27.8473 25.748 27.2473 27.092L26.1073 26.588C26.7913 25.208 27.3793 23.804 27.8713 22.364ZM38.3833 16.904H42.8473V17.996H38.3833V16.904ZM37.9393 20.144H43.2793V21.248H40.5793C40.1473 22.892 39.7753 24.092 39.4633 24.86C40.2553 24.692 41.0593 24.452 41.8633 24.152C41.5873 23.564 41.3113 23.012 41.0353 22.496L41.9953 22.028C42.5473 23.036 43.0753 24.152 43.5793 25.364L42.5953 25.868L42.2833 25.1C41.0233 25.532 39.6673 25.88 38.2033 26.144L37.9273 25.064C38.0473 25.04 38.1193 25.004 38.1673 24.968C38.4913 24.5 38.9233 23.264 39.4753 21.248H37.9393V20.144ZM44.9113 16.196H46.0393V18.524H48.6313C48.6313 22.436 48.5713 24.848 48.4633 25.76C48.3313 26.672 47.7193 27.128 46.6273 27.128C46.4353 27.128 46.0993 27.104 45.6193 27.08L45.3553 26.072C45.7873 26.108 46.1593 26.132 46.4713 26.132C46.9993 26.132 47.2993 25.844 47.3953 25.268C47.4673 24.704 47.5033 22.82 47.5273 19.628H46.0393V19.736C46.0033 23.192 45.1753 25.712 43.5433 27.308L42.6913 26.552C44.1433 25.136 44.8873 22.868 44.9113 19.736V19.628H43.3873V18.524H44.9113V16.196ZM60.5233 18.2V27.164H59.4073V26.636H55.2913V27.176H54.1753V18.2H56.7553V16.184H57.9073V18.2H60.5233ZM55.2913 25.544H56.7553V22.856H55.2913V25.544ZM57.9073 22.856V25.544H59.4073V22.856H57.9073ZM55.2913 21.812H56.7553V19.304H55.2913V21.812ZM57.9073 19.304V21.812H59.4073V19.304H57.9073ZM53.6833 20.804V21.968C53.2993 22.172 52.9273 22.364 52.5553 22.544V25.976C52.5553 26.744 52.1593 27.14 51.3793 27.14H50.3593L50.1073 26.036C50.4073 26.072 50.6953 26.096 50.9833 26.096C51.2713 26.096 51.4153 25.952 51.4153 25.688V23.048C50.9713 23.216 50.5273 23.384 50.0833 23.54L49.7953 22.388C50.3473 22.256 50.8873 22.088 51.4153 21.896V19.364H49.9753V18.272H51.4153V16.196H52.5553V18.272H53.6353V19.364H52.5553V21.404C52.9393 21.212 53.3233 21.02 53.6833 20.804ZM62.1313 22.736H66.8113C66.8473 22.472 66.8713 22.196 66.8713 21.884H67.9753C67.9753 22.196 67.9513 22.472 67.9273 22.736H72.5953V23.852H68.2393C69.0553 24.98 70.5913 25.748 72.8353 26.156L72.3673 27.212C69.7753 26.636 68.1433 25.676 67.4593 24.332C66.6553 25.652 64.9393 26.612 62.3233 27.236L61.8553 26.18C64.2193 25.7 65.7433 24.92 66.4273 23.852H62.1313V22.736ZM65.2633 16.22H66.4153V21.812H65.2633V20.324C64.4473 20.732 63.4993 21.092 62.4433 21.428L61.9873 20.372C63.2233 20.036 64.3153 19.64 65.2633 19.184V16.22ZM62.8753 16.652C63.5953 16.988 64.2433 17.42 64.8313 17.924L64.2193 18.872C63.5833 18.308 62.9353 17.864 62.2633 17.552L62.8753 16.652ZM68.8393 16.196L70.0033 16.328C69.9073 16.568 69.7873 16.808 69.6553 17.036H72.4153V17.996C71.8873 19.808 70.2433 21.068 67.4833 21.788L66.9313 20.792C67.7833 20.588 68.5153 20.336 69.1393 20.024C68.8153 19.7 68.5033 19.412 68.2033 19.16L68.9833 18.572C69.3313 18.872 69.6553 19.196 69.9673 19.532C70.5673 19.112 70.9993 18.62 71.2873 18.068H68.8753C68.4313 18.536 67.8913 18.956 67.2673 19.34L66.5713 18.428C67.6873 17.816 68.4433 17.072 68.8393 16.196ZM77.8873 16.988V25.976H76.7833V25.232H75.3433V26.264H74.2273V16.988H77.8873ZM75.3433 24.176H76.7833V21.572H75.3433V24.176ZM75.3433 20.504H76.7833V18.02H75.3433V20.504ZM79.6873 20.612C80.4193 21.728 80.9833 22.7 81.3673 23.54L80.4193 24.2C79.9993 23.312 79.4353 22.304 78.7393 21.2L79.6873 20.612ZM82.3033 27.116H80.1793L79.9273 26.012C80.6233 26.048 81.2833 26.072 81.9193 26.072C82.2073 26.072 82.3513 25.916 82.3513 25.604V19.364H78.3553V18.272H82.3513V16.256H83.5153V18.272H84.8593V19.364H83.5153V25.892C83.5153 26.708 83.1073 27.116 82.3033 27.116ZM88.9273 19.34H93.7033V25.148H88.9273V19.34ZM92.6473 24.14V22.736H89.9953V24.14H92.6473ZM89.9953 21.752H92.6473V20.348H89.9953V21.752ZM94.9273 27.14H93.9433L93.6553 26.072L94.6873 26.096C95.0113 26.096 95.1793 25.868 95.1793 25.436V17.732H90.6553V16.688H96.2833V25.748C96.2833 26.672 95.8273 27.14 94.9273 27.14ZM86.4193 18.152H87.5233V27.248H86.4193V18.152ZM88.4233 16.04C88.9753 16.688 89.4673 17.408 89.8873 18.176L88.8553 18.716C88.4113 17.876 87.9193 17.144 87.3913 16.496L88.4233 16.04ZM100.363 18.536C100.603 18.536 100.819 18.62 100.999 18.8C101.167 18.968 101.263 19.184 101.263 19.436C101.263 19.676 101.167 19.892 100.999 20.06C100.819 20.228 100.603 20.324 100.363 20.324C100.111 20.324 99.8953 20.228 99.7273 20.06C99.5593 19.892 99.4753 19.676 99.4753 19.436C99.4753 19.184 99.5593 18.968 99.7273 18.8C99.8953 18.62 100.111 18.536 100.363 18.536ZM100.363 22.928C100.603 22.928 100.819 23.012 100.999 23.192C101.167 23.36 101.263 23.576 101.263 23.828C101.263 24.068 101.167 24.284 100.999 24.452C100.819 24.62 100.603 24.716 100.363 24.716C100.111 24.716 99.8953 24.62 99.7273 24.452C99.5593 24.284 99.4753 24.068 99.4753 23.828C99.4753 23.576 99.5593 23.36 99.7273 23.192C99.8953 23.012 100.111 22.928 100.363 22.928ZM113.095 17.264C113.911 17.264 114.595 17.492 115.123 17.972C115.639 18.452 115.903 19.064 115.903 19.82C115.903 20.564 115.615 21.236 115.063 21.848C114.727 22.196 114.139 22.652 113.287 23.228C112.363 23.84 111.811 24.38 111.631 24.848H115.915V26H110.011C110.011 25.148 110.287 24.404 110.863 23.756C111.175 23.384 111.823 22.868 112.795 22.196C113.371 21.788 113.779 21.464 114.019 21.212C114.403 20.78 114.607 20.312 114.607 19.808C114.607 19.328 114.475 18.968 114.211 18.728C113.947 18.488 113.551 18.368 113.047 18.368C112.507 18.368 112.099 18.548 111.823 18.92C111.535 19.28 111.391 19.796 111.367 20.492H110.059C110.071 19.532 110.347 18.764 110.887 18.188C111.439 17.564 112.183 17.264 113.095 17.264ZM120.159 17.264C121.167 17.264 121.947 17.684 122.499 18.536C123.003 19.328 123.255 20.384 123.255 21.716C123.255 23.036 123.003 24.104 122.499 24.896C121.947 25.736 121.167 26.168 120.159 26.168C119.151 26.168 118.371 25.736 117.819 24.896C117.315 24.104 117.063 23.048 117.063 21.716C117.063 20.372 117.315 19.316 117.819 18.536C118.371 17.684 119.151 17.264 120.159 17.264ZM120.159 18.368C119.451 18.368 118.959 18.752 118.671 19.532C118.455 20.06 118.359 20.792 118.359 21.716C118.359 22.628 118.455 23.36 118.671 23.9C118.959 24.668 119.451 25.064 120.159 25.064C120.855 25.064 121.359 24.668 121.647 23.9C121.851 23.36 121.959 22.628 121.959 21.716C121.959 20.792 121.851 20.06 121.647 19.532C121.359 18.752 120.855 18.368 120.159 18.368ZM127.486 17.264C128.302 17.264 128.986 17.492 129.514 17.972C130.03 18.452 130.294 19.064 130.294 19.82C130.294 20.564 130.006 21.236 129.454 21.848C129.118 22.196 128.53 22.652 127.678 23.228C126.754 23.84 126.202 24.38 126.022 24.848H130.306V26H124.402C124.402 25.148 124.678 24.404 125.254 23.756C125.566 23.384 126.214 22.868 127.186 22.196C127.762 21.788 128.17 21.464 128.41 21.212C128.794 20.78 128.998 20.312 128.998 19.808C128.998 19.328 128.866 18.968 128.602 18.728C128.338 18.488 127.942 18.368 127.438 18.368C126.898 18.368 126.49 18.548 126.214 18.92C125.926 19.28 125.782 19.796 125.758 20.492H124.45C124.462 19.532 124.738 18.764 125.278 18.188C125.83 17.564 126.574 17.264 127.486 17.264ZM132.089 17.432H137.249V18.584H133.145L132.893 21.056H132.929C133.193 20.78 133.493 20.588 133.841 20.468C134.153 20.336 134.513 20.276 134.897 20.276C135.701 20.276 136.361 20.54 136.865 21.068C137.369 21.596 137.633 22.316 137.633 23.24C137.633 24.128 137.297 24.848 136.649 25.412C136.037 25.916 135.305 26.168 134.453 26.168C133.685 26.168 133.025 25.952 132.473 25.532C131.861 25.076 131.525 24.44 131.465 23.648H132.749C132.797 24.128 132.989 24.5 133.313 24.74C133.601 24.956 133.985 25.064 134.465 25.064C134.993 25.064 135.437 24.896 135.797 24.572C136.157 24.236 136.337 23.804 136.337 23.252C136.337 22.652 136.181 22.184 135.869 21.848C135.557 21.512 135.125 21.344 134.549 21.344C134.165 21.344 133.841 21.404 133.553 21.548C133.241 21.692 133.013 21.92 132.845 22.232H131.621L132.089 17.432ZM139.777 24.284C140.017 24.284 140.233 24.368 140.413 24.536C140.581 24.704 140.677 24.92 140.677 25.184C140.677 25.424 140.581 25.64 140.413 25.82C140.233 25.976 140.017 26.06 139.777 26.06C139.513 26.06 139.309 25.976 139.153 25.82C138.973 25.64 138.889 25.424 138.889 25.184C138.889 24.92 138.973 24.704 139.153 24.536C139.309 24.368 139.513 24.284 139.777 24.284ZM145.014 17.264C146.022 17.264 146.802 17.684 147.354 18.536C147.858 19.328 148.11 20.384 148.11 21.716C148.11 23.036 147.858 24.104 147.354 24.896C146.802 25.736 146.022 26.168 145.014 26.168C144.006 26.168 143.226 25.736 142.674 24.896C142.17 24.104 141.918 23.048 141.918 21.716C141.918 20.372 142.17 19.316 142.674 18.536C143.226 17.684 144.006 17.264 145.014 17.264ZM145.014 18.368C144.306 18.368 143.814 18.752 143.526 19.532C143.31 20.06 143.214 20.792 143.214 21.716C143.214 22.628 143.31 23.36 143.526 23.9C143.814 24.668 144.306 25.064 145.014 25.064C145.71 25.064 146.214 24.668 146.502 23.9C146.706 23.36 146.814 22.628 146.814 21.716C146.814 20.792 146.706 20.06 146.502 19.532C146.214 18.752 145.71 18.368 145.014 18.368ZM151.393 17.432H152.377V26H151.069V19.004C150.553 19.496 149.893 19.856 149.101 20.084V18.788C149.485 18.692 149.881 18.524 150.313 18.284C150.745 18.02 151.105 17.744 151.393 17.432ZM155.14 24.284C155.38 24.284 155.596 24.368 155.776 24.536C155.944 24.704 156.04 24.92 156.04 25.184C156.04 25.424 155.944 25.64 155.776 25.82C155.596 25.976 155.38 26.06 155.14 26.06C154.876 26.06 154.672 25.976 154.516 25.82C154.336 25.64 154.252 25.424 154.252 25.184C154.252 24.92 154.336 24.704 154.516 24.536C154.672 24.368 154.876 24.284 155.14 24.284ZM160.377 17.264C161.385 17.264 162.165 17.684 162.717 18.536C163.221 19.328 163.473 20.384 163.473 21.716C163.473 23.036 163.221 24.104 162.717 24.896C162.165 25.736 161.385 26.168 160.377 26.168C159.369 26.168 158.589 25.736 158.037 24.896C157.533 24.104 157.281 23.048 157.281 21.716C157.281 20.372 157.533 19.316 158.037 18.536C158.589 17.684 159.369 17.264 160.377 17.264ZM160.377 18.368C159.669 18.368 159.177 18.752 158.889 19.532C158.673 20.06 158.577 20.792 158.577 21.716C158.577 22.628 158.673 23.36 158.889 23.9C159.177 24.668 159.669 25.064 160.377 25.064C161.073 25.064 161.577 24.668 161.865 23.9C162.069 23.36 162.177 22.628 162.177 21.716C162.177 20.792 162.069 20.06 161.865 19.532C161.577 18.752 161.073 18.368 160.377 18.368ZM166.757 17.432H167.741V26H166.433V19.004C165.917 19.496 165.257 19.856 164.465 20.084V18.788C164.849 18.692 165.245 18.524 165.677 18.284C166.109 18.02 166.469 17.744 166.757 17.432ZM173.467 22.364H179.527V23.42H173.467V22.364ZM187.861 17.264C188.677 17.264 189.361 17.492 189.889 17.972C190.405 18.452 190.669 19.064 190.669 19.82C190.669 20.564 190.381 21.236 189.829 21.848C189.493 22.196 188.905 22.652 188.053 23.228C187.129 23.84 186.577 24.38 186.397 24.848H190.681V26H184.777C184.777 25.148 185.053 24.404 185.629 23.756C185.941 23.384 186.589 22.868 187.561 22.196C188.137 21.788 188.545 21.464 188.785 21.212C189.169 20.78 189.373 20.312 189.373 19.808C189.373 19.328 189.241 18.968 188.977 18.728C188.713 18.488 188.317 18.368 187.813 18.368C187.273 18.368 186.865 18.548 186.589 18.92C186.301 19.28 186.157 19.796 186.133 20.492H184.825C184.837 19.532 185.113 18.764 185.653 18.188C186.205 17.564 186.949 17.264 187.861 17.264ZM194.924 17.264C195.932 17.264 196.712 17.684 197.264 18.536C197.768 19.328 198.02 20.384 198.02 21.716C198.02 23.036 197.768 24.104 197.264 24.896C196.712 25.736 195.932 26.168 194.924 26.168C193.916 26.168 193.136 25.736 192.584 24.896C192.08 24.104 191.828 23.048 191.828 21.716C191.828 20.372 192.08 19.316 192.584 18.536C193.136 17.684 193.916 17.264 194.924 17.264ZM194.924 18.368C194.216 18.368 193.724 18.752 193.436 19.532C193.22 20.06 193.124 20.792 193.124 21.716C193.124 22.628 193.22 23.36 193.436 23.9C193.724 24.668 194.216 25.064 194.924 25.064C195.62 25.064 196.124 24.668 196.412 23.9C196.616 23.36 196.724 22.628 196.724 21.716C196.724 20.792 196.616 20.06 196.412 19.532C196.124 18.752 195.62 18.368 194.924 18.368ZM202.252 17.264C203.068 17.264 203.752 17.492 204.28 17.972C204.796 18.452 205.06 19.064 205.06 19.82C205.06 20.564 204.772 21.236 204.22 21.848C203.884 22.196 203.296 22.652 202.444 23.228C201.52 23.84 200.968 24.38 200.788 24.848H205.072V26H199.168C199.168 25.148 199.444 24.404 200.02 23.756C200.332 23.384 200.98 22.868 201.952 22.196C202.528 21.788 202.936 21.464 203.176 21.212C203.56 20.78 203.764 20.312 203.764 19.808C203.764 19.328 203.632 18.968 203.368 18.728C203.104 18.488 202.708 18.368 202.204 18.368C201.664 18.368 201.256 18.548 200.98 18.92C200.692 19.28 200.548 19.796 200.524 20.492H199.216C199.228 19.532 199.504 18.764 200.044 18.188C200.596 17.564 201.34 17.264 202.252 17.264ZM206.855 17.432H212.015V18.584H207.911L207.659 21.056H207.695C207.959 20.78 208.259 20.588 208.607 20.468C208.919 20.336 209.279 20.276 209.663 20.276C210.467 20.276 211.127 20.54 211.631 21.068C212.135 21.596 212.399 22.316 212.399 23.24C212.399 24.128 212.063 24.848 211.415 25.412C210.803 25.916 210.071 26.168 209.219 26.168C208.451 26.168 207.791 25.952 207.239 25.532C206.627 25.076 206.291 24.44 206.231 23.648H207.515C207.563 24.128 207.755 24.5 208.079 24.74C208.367 24.956 208.751 25.064 209.231 25.064C209.759 25.064 210.203 24.896 210.563 24.572C210.923 24.236 211.103 23.804 211.103 23.252C211.103 22.652 210.947 22.184 210.635 21.848C210.323 21.512 209.891 21.344 209.315 21.344C208.931 21.344 208.607 21.404 208.319 21.548C208.007 21.692 207.779 21.92 207.611 22.232H206.387L206.855 17.432ZM214.542 24.284C214.782 24.284 214.998 24.368 215.178 24.536C215.346 24.704 215.442 24.92 215.442 25.184C215.442 25.424 215.346 25.64 215.178 25.82C214.998 25.976 214.782 26.06 214.542 26.06C214.278 26.06 214.074 25.976 213.918 25.82C213.738 25.64 213.654 25.424 213.654 25.184C213.654 24.92 213.738 24.704 213.918 24.536C214.074 24.368 214.278 24.284 214.542 24.284ZM219.78 17.264C220.788 17.264 221.568 17.684 222.12 18.536C222.624 19.328 222.876 20.384 222.876 21.716C222.876 23.036 222.624 24.104 222.12 24.896C221.568 25.736 220.788 26.168 219.78 26.168C218.772 26.168 217.992 25.736 217.44 24.896C216.936 24.104 216.684 23.048 216.684 21.716C216.684 20.372 216.936 19.316 217.44 18.536C217.992 17.684 218.772 17.264 219.78 17.264ZM219.78 18.368C219.072 18.368 218.58 18.752 218.292 19.532C218.076 20.06 217.98 20.792 217.98 21.716C217.98 22.628 218.076 23.36 218.292 23.9C218.58 24.668 219.072 25.064 219.78 25.064C220.476 25.064 220.98 24.668 221.268 23.9C221.472 23.36 221.58 22.628 221.58 21.716C221.58 20.792 221.472 20.06 221.268 19.532C220.98 18.752 220.476 18.368 219.78 18.368ZM226.159 17.432H227.143V26H225.835V19.004C225.319 19.496 224.659 19.856 223.867 20.084V18.788C224.251 18.692 224.647 18.524 225.079 18.284C225.511 18.02 225.871 17.744 226.159 17.432ZM229.905 24.284C230.145 24.284 230.361 24.368 230.541 24.536C230.709 24.704 230.805 24.92 230.805 25.184C230.805 25.424 230.709 25.64 230.541 25.82C230.361 25.976 230.145 26.06 229.905 26.06C229.641 26.06 229.437 25.976 229.281 25.82C229.101 25.64 229.017 25.424 229.017 25.184C229.017 24.92 229.101 24.704 229.281 24.536C229.437 24.368 229.641 24.284 229.905 24.284ZM234.327 17.432H235.311V26H234.003V19.004C233.487 19.496 232.827 19.856 232.035 20.084V18.788C232.419 18.692 232.815 18.524 233.247 18.284C233.679 18.02 234.039 17.744 234.327 17.432ZM240.041 17.264C241.049 17.264 241.829 17.684 242.381 18.536C242.885 19.328 243.137 20.384 243.137 21.716C243.137 23.036 242.885 24.104 242.381 24.896C241.829 25.736 241.049 26.168 240.041 26.168C239.033 26.168 238.253 25.736 237.701 24.896C237.197 24.104 236.945 23.048 236.945 21.716C236.945 20.372 237.197 19.316 237.701 18.536C238.253 17.684 239.033 17.264 240.041 17.264ZM240.041 18.368C239.333 18.368 238.841 18.752 238.553 19.532C238.337 20.06 238.241 20.792 238.241 21.716C238.241 22.628 238.337 23.36 238.553 23.9C238.841 24.668 239.333 25.064 240.041 25.064C240.737 25.064 241.241 24.668 241.529 23.9C241.733 23.36 241.841 22.628 241.841 21.716C241.841 20.792 241.733 20.06 241.529 19.532C241.241 18.752 240.737 18.368 240.041 18.368Z" fill="white"/>
<defs>
<filter id="filter0_i_1_23358" x="0" y="2" width="269" height="35" filterUnits="userSpaceOnUse" color-interpolation-filters="sRGB">
<feFlood flood-opacity="0" result="BackgroundImageFix"/>
<feBlend mode="normal" in="SourceGraphic" in2="BackgroundImageFix" result="shape"/>
<feColorMatrix in="SourceAlpha" type="matrix" values="0 0 0 0 0 0 0 0 0 0 0 0 0 0 0 0 0 0 127 0" result="hardAlpha"/>
<feOffset dy="-2"/>
<feGaussianBlur stdDeviation="2.75"/>
<feComposite in2="hardAlpha" operator="arithmetic" k2="-1" k3="1"/>
<feColorMatrix type="matrix" values="0 0 0 0 0 0 0 0 0 0 0 0 0 0 0 0 0 0 0.02 0"/>
<feBlend mode="normal" in2="shape" result="effect1_innerShadow_1_23358"/>
</filter>
<linearGradient id="paint0_linear_1_23358" x1="-8.5" y1="16.5" x2="271" y2="16.5" gradientUnits="userSpaceOnUse">
<stop stop-color="white" stop-opacity="0.5"/>
<stop offset="0.0756705" stop-color="white" stop-opacity="0.7"/>
<stop offset="0.11836" stop-color="white" stop-opacity="0.9"/>
<stop offset="0.171722" stop-color="white" stop-opacity="0.7"/>
<stop offset="0.526692" stop-color="white" stop-opacity="0.5"/>
<stop offset="0.842139" stop-color="white" stop-opacity="0.7"/>
<stop offset="0.908113" stop-color="white" stop-opacity="0.9"/>
<stop offset="0.955654" stop-color="white" stop-opacity="0.7"/>
<stop offset="1" stop-color="white" stop-opacity="0.5"/>
</linearGradient>
<linearGradient id="paint1_linear_1_23358" x1="38" y1="22" x2="229" y2="21.5" gradientUnits="userSpaceOnUse">
<stop stop-color="white" stop-opacity="0.5"/>
<stop offset="0.202551" stop-color="white" stop-opacity="0.6"/>
<stop offset="0.844044" stop-color="white" stop-opacity="0.6"/>
<stop offset="1" stop-color="white" stop-opacity="0.5"/>
</linearGradient>
<linearGradient id="paint2_linear_1_23358" x1="134.5" y1="4" x2="134.5" y2="37" gradientUnits="userSpaceOnUse">
<stop stop-color="white"/>
<stop offset="1" stop-color="white" stop-opacity="0"/>
</linearGradient>
<linearGradient id="paint3_linear_1_23358" x1="134.5" y1="31.5" x2="134.5" y2="37" gradientUnits="userSpaceOnUse">
<stop stop-color="white" stop-opacity="0"/>
<stop offset="1" stop-color="white" stop-opacity="0.6"/>
</linearGradient>
<linearGradient id="paint4_linear_1_23358" x1="134.5" y1="8" x2="134.5" y2="37" gradientUnits="userSpaceOnUse">
<stop stop-color="white"/>
<stop offset="1" stop-color="white" stop-opacity="0"/>
</linearGradient>
</defs>
</svg>
