<svg width="135" height="58" viewBox="0 0 135 58" fill="none" xmlns="http://www.w3.org/2000/svg">
<path d="M124.414 0.376953H130.173V6.66602H124.414V12.9551H130.173V19.2441H124.414V25.5332H130.173V31.8223H124.414V38.1113H130.173V44.4004H124.414V50.6895H130.173V56.9785H124.414V57.3555H130.175V56.9785H133.838L133.963 50.6895H130.175V44.4004H134.089L134.214 38.1113H130.175V31.8223H134.339L134.464 25.5332H130.175V19.2441H134.589L134.714 12.9551H130.175V6.66602H134.84L134.965 0.376953H130.175V0H124.414V0.376953ZM112.893 57.3555H118.653V56.9785H112.893V57.3555ZM101.372 0.376953H95.611V0H89.8492V0.376953H95.609V6.66602H89.8492V12.9551H95.609V19.2441H89.8492V25.5332H95.609V31.8223H89.8492V38.1113H95.609V44.4004H89.8492V50.6895H95.609V56.9785H89.8492V57.3555H95.611V56.9785H101.372V57.3555H107.132V56.9785H112.892V50.6895H107.132V44.4004H112.892V38.1113H107.132V31.8223H112.892V25.5332H107.132V19.2441H112.892V12.9551H107.132V6.66602H112.892V0.376953H107.132V0H101.372V0.376953ZM78.3278 0.376953H84.0865V6.66602H78.3278V12.9551H84.0865V19.2441H78.3278V25.5332H84.0865V31.8223H78.3278V38.1113H84.0865V44.4004H78.3278V50.6895H84.0865V56.9785H78.3278V57.3555H84.0885V56.9785H89.8483V50.6895H84.0885V44.4004H89.8483V38.1113H84.0885V31.8223H89.8483V25.5332H84.0885V19.2441H89.8483V12.9551H84.0885V6.66602H89.8483V0.376953H84.0885V0H78.3278V0.376953ZM66.8063 0.376953H61.0455V0H55.2819V0.376953H49.5221V6.66602H55.2819V12.9551H49.5221V19.2441H55.2819V25.5332H49.5221V31.8223H55.2819V38.1113H49.5221V44.4004H55.2819V50.6895H49.5221V56.9785H55.2819V57.3555H61.0455V56.9785H66.8063V57.3555H72.567V56.9785H66.8073V50.6895H72.567V44.4004H66.8073V38.1113H72.567V31.8223H66.8073V25.5332H72.567V19.2441H66.8073V12.9551H72.567V6.66602H66.8073V0.376953H72.567V0H66.8063V0.376953ZM43.7614 0.376953H38.0006V0H32.2399V0.376953H38.0006V6.66602H32.2399V0.376953H26.4811V6.66602H32.2399V12.9551H38.0006V19.2441H32.2399V12.9551H26.4811V19.2441H32.2399V25.5332H38.0006V31.8223H32.2399V25.5332H26.4811V31.8223H32.2399V38.1113H38.0006V44.4004H32.2399V38.1113H26.4811V44.4004H32.2399V50.6895H38.0006V56.9785H32.2399V50.6895H26.4811V56.9785H32.2399V57.3555H38.0006V56.9785H43.7614V57.3555H49.5211V56.9785H43.7614V50.6895H49.5211V44.4004H43.7614V38.1113H49.5211V31.8223H43.7614V25.5332H49.5211V19.2441H43.7614V12.9551H49.5211V6.66602H43.7614V0.376953H49.5211V0H43.7614V0.376953ZM20.7194 0.376953H14.9596V6.66602H20.7194V12.9551H14.9596V19.2441H20.7194V25.5332H14.9596V31.8223H20.7194V38.1113H14.9596V44.4004H20.7194V50.6895H14.9596V56.9785H20.7194V57.3555H26.4791V56.9785H20.7203V50.6895H26.4791V44.4004H20.7203V38.1113H26.4791V31.8223H20.7203V25.5332H26.4791V19.2441H20.7203V12.9551H26.4791V6.66602H20.7203V0.376953H26.4791V0H20.7194V0.376953ZM9.19788 0.376953H3.43713V0H-0.000366211V0.376953H3.43713V6.66602H9.19788V12.9551H3.43713V6.66602H-0.000366211V12.9551H3.43713V19.2441H9.19788V25.5332H3.43713V19.2441H-0.000366211V25.5332H3.43713V31.8223H9.19788V38.1113H3.43713V31.8223H-0.000366211V38.1113H3.43713V44.4004H9.19788V50.6895H3.43713V44.4004H-0.000366211V50.6895H3.43713V56.9785H9.19788V57.3555H14.9586V56.9785H9.19788V50.6895H14.9586V44.4004H9.19788V38.1113H14.9586V31.8223H9.19788V25.5332H14.9586V19.2441H9.19788V12.9551H14.9586V6.66602H9.19788V0.376953H14.9586V0H9.19788V0.376953ZM-0.000366211 57.3555H3.43713V56.9785H-0.000366211V57.3555ZM118.654 56.9785H124.413V50.6895H118.654V56.9785ZM107.132 56.9785H101.372V50.6895H107.132V56.9785ZM72.568 56.9785H78.3258V50.6895H72.568V56.9785ZM61.0446 56.9785H55.2838V50.6895H61.0446V56.9785ZM112.893 50.6895H118.653V44.4004H112.893V50.6895ZM101.372 50.6895H95.611V44.4004H101.372V50.6895ZM66.8063 50.6895H61.0455V44.4004H66.8063V50.6895ZM43.7614 50.6895H38.0006V44.4004H43.7614V50.6895ZM118.654 44.4004H124.413V38.1113H118.654V44.4004ZM107.132 44.4004H101.372V38.1113H107.132V44.4004ZM72.568 44.4004H78.3258V38.1113H72.568V44.4004ZM61.0446 44.4004H55.2838V38.1113H61.0446V44.4004ZM112.893 38.1113H118.653V31.8223H112.893V38.1113ZM101.372 38.1113H95.611V31.8223H101.372V38.1113ZM66.8063 38.1113H61.0455V31.8223H66.8063V38.1113ZM43.7614 38.1113H38.0006V31.8223H43.7614V38.1113ZM118.654 31.8223H124.413V25.5332H118.654V31.8223ZM107.132 31.8223H101.372V25.5332H107.132V31.8223ZM72.568 31.8223H78.3258V25.5332H72.568V31.8223ZM61.0446 31.8223H55.2838V25.5332H61.0446V31.8223ZM112.893 25.5332H118.653V19.2441H112.893V25.5332ZM101.372 25.5332H95.611V19.2441H101.372V25.5332ZM66.8063 25.5332H61.0455V19.2441H66.8063V25.5332ZM43.7614 25.5332H38.0006V19.2441H43.7614V25.5332ZM118.654 19.2441H124.413V12.9551H118.654V19.2441ZM107.132 19.2441H101.372V12.9551H107.132V19.2441ZM72.568 19.2441H78.3258V12.9551H72.568V19.2441ZM61.0446 19.2441H55.2838V12.9551H61.0446V19.2441ZM112.893 12.9551H118.653V6.66602H112.893V12.9551ZM101.372 12.9551H95.611V6.66602H101.372V12.9551ZM66.8063 12.9551H61.0455V6.66602H66.8063V12.9551ZM43.7614 12.9551H38.0006V6.66602H43.7614V12.9551ZM118.654 6.66602H124.413V0.376953H118.654V6.66602ZM107.132 6.66602H101.372V0.376953H107.132V6.66602ZM72.568 6.66602H78.3258V0.376953H72.568V6.66602ZM61.0446 6.66602H55.2838V0.376953H61.0446V6.66602ZM112.893 0.376953H118.653V0H112.893V0.376953Z" fill="url(#paint0_linear_1_19977)" fill-opacity="0.2"/>
<defs>
<linearGradient id="paint0_linear_1_19977" x1="-18.5652" y1="23.5868" x2="134.748" y2="28.732" gradientUnits="userSpaceOnUse">
<stop offset="0.165588" stop-color="white"/>
<stop offset="1" stop-color="white" stop-opacity="0"/>
</linearGradient>
</defs>
</svg>
