<svg width="254" height="298" viewBox="0 0 254 298" fill="none" xmlns="http://www.w3.org/2000/svg">
<g filter="url(#filter0_d_1_19889)">
<path d="M245.909 6.69357C246.83 6.52163 247.637 7.32805 247.465 8.24896L247.222 9.54991C247.166 9.85138 247.215 10.163 247.362 10.4324L247.995 11.5946C248.443 12.4173 247.925 13.4334 246.996 13.5545L245.684 13.7255C245.38 13.7651 245.098 13.9084 244.888 14.1311L243.978 15.0923C243.334 15.7727 242.208 15.5943 241.805 14.7482L241.237 13.553C241.105 13.276 240.882 13.0528 240.605 12.9212L239.41 12.353C238.564 11.9508 238.386 10.8244 239.066 10.1804L240.027 9.27071C240.25 9.05989 240.393 8.77874 240.433 8.47463L240.604 7.1623C240.725 6.23332 241.741 5.71557 242.564 6.16367L243.726 6.79669C243.995 6.94338 244.307 6.99274 244.608 6.93646L245.909 6.69357Z" fill="url(#paint0_radial_1_19889)"/>
</g>
<g filter="url(#filter1_d_1_19889)">
<path d="M240.994 234.699C241.524 233.926 242.664 233.926 243.194 234.699L243.942 235.79C244.115 236.043 244.371 236.229 244.665 236.315L245.934 236.69C246.833 236.955 247.185 238.039 246.614 238.782L245.807 239.831C245.62 240.074 245.522 240.374 245.531 240.68L245.567 242.003C245.593 242.94 244.67 243.61 243.788 243.296L242.541 242.853C242.252 242.75 241.936 242.75 241.647 242.853L240.4 243.296C239.518 243.61 238.595 242.94 238.621 242.003L238.657 240.68C238.665 240.374 238.568 240.074 238.381 239.831L237.574 238.782C237.003 238.039 237.355 236.955 238.254 236.69L239.523 236.315C239.817 236.229 240.073 236.043 240.246 235.79L240.994 234.699Z" fill="url(#paint1_radial_1_19889)"/>
</g>
<g filter="url(#filter2_d_1_19889)">
<path d="M5.69357 7.24891C5.52163 6.32799 6.32805 5.52158 7.24896 5.69352L8.54991 5.93641C8.85138 5.99269 9.16304 5.94333 9.43237 5.79664L10.5946 5.16362C11.4173 4.71552 12.4334 5.23327 12.5545 6.16225L12.7255 7.47458C12.7651 7.77869 12.9084 8.05984 13.1311 8.27066L14.0923 9.18038C14.7727 9.82435 14.5943 10.9508 13.7482 11.353L12.553 11.9211C12.276 12.0528 12.0528 12.2759 11.9212 12.5529L11.353 13.7482C10.9508 14.5943 9.82441 14.7727 9.18043 14.0923L8.27071 13.1311C8.05989 12.9083 7.77874 12.7651 7.47463 12.7255L6.1623 12.5544C5.23332 12.4334 4.71557 11.4172 5.16367 10.5945L5.79669 9.43232C5.94338 9.16299 5.99274 8.85133 5.93646 8.54986L5.69357 7.24891Z" fill="url(#paint2_radial_1_19889)"/>
</g>
<g filter="url(#filter3_d_1_19889)">
<path d="M8.99404 233.699C9.52365 232.926 10.6641 232.926 11.1937 233.699L11.9419 234.79C12.1152 235.043 12.3705 235.229 12.6647 235.315L13.9341 235.69C14.8327 235.955 15.1851 237.039 14.6138 237.782L13.8068 238.831C13.6198 239.074 13.5223 239.374 13.5307 239.68L13.5671 241.003C13.5929 241.94 12.6702 242.61 11.7875 242.296L10.5406 241.853C10.2516 241.75 9.9361 241.75 9.64714 241.853L8.40021 242.296C7.51753 242.61 6.59489 241.94 6.62065 241.003L6.65703 239.68C6.66546 239.374 6.56796 239.074 6.38094 238.831L5.57391 237.782C5.00262 237.039 5.35504 235.955 6.25364 235.69L7.52306 235.315C7.81723 235.229 8.07251 235.043 8.24588 234.79L8.99404 233.699Z" fill="url(#paint3_radial_1_19889)"/>
</g>
<g filter="url(#filter4_d_1_19889)">
<path d="M122.349 289.644C121.441 289.414 121.047 288.344 121.59 287.58L122.356 286.501C122.533 286.251 122.619 285.947 122.599 285.641L122.511 284.32C122.449 283.386 123.346 282.68 124.24 282.96L125.503 283.355C125.795 283.446 126.111 283.434 126.396 283.32L127.624 282.829C128.494 282.482 129.442 283.116 129.453 284.053L129.467 285.376C129.471 285.683 129.58 285.979 129.776 286.214L130.623 287.231C131.222 287.951 130.912 289.049 130.024 289.348L128.77 289.771C128.48 289.869 128.232 290.064 128.068 290.323L127.363 291.443C126.863 292.236 125.724 292.28 125.165 291.528L124.375 290.466C124.192 290.22 123.93 290.044 123.632 289.969L122.349 289.644Z" fill="url(#paint4_radial_1_19889)"/>
</g>
<defs>
<filter id="filter0_d_1_19889" x="233.649" y="1" width="19.5093" height="19.5094" filterUnits="userSpaceOnUse" color-interpolation-filters="sRGB">
<feFlood flood-opacity="0" result="BackgroundImageFix"/>
<feColorMatrix in="SourceAlpha" type="matrix" values="0 0 0 0 0 0 0 0 0 0 0 0 0 0 0 0 0 0 127 0" result="hardAlpha"/>
<feMorphology radius="2" operator="dilate" in="SourceAlpha" result="effect1_dropShadow_1_19889"/>
<feOffset/>
<feGaussianBlur stdDeviation="1.5"/>
<feComposite in2="hardAlpha" operator="out"/>
<feColorMatrix type="matrix" values="0 0 0 0 1 0 0 0 0 0.907051 0 0 0 0 0.690169 0 0 0 1 0"/>
<feBlend mode="normal" in2="BackgroundImageFix" result="effect1_dropShadow_1_19889"/>
<feBlend mode="normal" in="SourceGraphic" in2="effect1_dropShadow_1_19889" result="shape"/>
</filter>
<filter id="filter1_d_1_19889" x="232.297" y="229.119" width="19.5947" height="19.2552" filterUnits="userSpaceOnUse" color-interpolation-filters="sRGB">
<feFlood flood-opacity="0" result="BackgroundImageFix"/>
<feColorMatrix in="SourceAlpha" type="matrix" values="0 0 0 0 0 0 0 0 0 0 0 0 0 0 0 0 0 0 127 0" result="hardAlpha"/>
<feMorphology radius="2" operator="dilate" in="SourceAlpha" result="effect1_dropShadow_1_19889"/>
<feOffset/>
<feGaussianBlur stdDeviation="1.5"/>
<feComposite in2="hardAlpha" operator="out"/>
<feColorMatrix type="matrix" values="0 0 0 0 1 0 0 0 0 0.907051 0 0 0 0 0.690169 0 0 0 1 0"/>
<feBlend mode="normal" in2="BackgroundImageFix" result="effect1_dropShadow_1_19889"/>
<feBlend mode="normal" in="SourceGraphic" in2="effect1_dropShadow_1_19889" result="shape"/>
</filter>
<filter id="filter2_d_1_19889" x="0" y="0" width="19.5094" height="19.5093" filterUnits="userSpaceOnUse" color-interpolation-filters="sRGB">
<feFlood flood-opacity="0" result="BackgroundImageFix"/>
<feColorMatrix in="SourceAlpha" type="matrix" values="0 0 0 0 0 0 0 0 0 0 0 0 0 0 0 0 0 0 127 0" result="hardAlpha"/>
<feMorphology radius="2" operator="dilate" in="SourceAlpha" result="effect1_dropShadow_1_19889"/>
<feOffset/>
<feGaussianBlur stdDeviation="1.5"/>
<feComposite in2="hardAlpha" operator="out"/>
<feColorMatrix type="matrix" values="0 0 0 0 1 0 0 0 0 0.907051 0 0 0 0 0.690169 0 0 0 1 0"/>
<feBlend mode="normal" in2="BackgroundImageFix" result="effect1_dropShadow_1_19889"/>
<feBlend mode="normal" in="SourceGraphic" in2="effect1_dropShadow_1_19889" result="shape"/>
</filter>
<filter id="filter3_d_1_19889" x="0.296509" y="228.119" width="19.5947" height="19.2552" filterUnits="userSpaceOnUse" color-interpolation-filters="sRGB">
<feFlood flood-opacity="0" result="BackgroundImageFix"/>
<feColorMatrix in="SourceAlpha" type="matrix" values="0 0 0 0 0 0 0 0 0 0 0 0 0 0 0 0 0 0 127 0" result="hardAlpha"/>
<feMorphology radius="2" operator="dilate" in="SourceAlpha" result="effect1_dropShadow_1_19889"/>
<feOffset/>
<feGaussianBlur stdDeviation="1.5"/>
<feComposite in2="hardAlpha" operator="out"/>
<feColorMatrix type="matrix" values="0 0 0 0 1 0 0 0 0 0.907051 0 0 0 0 0.690169 0 0 0 1 0"/>
<feBlend mode="normal" in2="BackgroundImageFix" result="effect1_dropShadow_1_19889"/>
<feBlend mode="normal" in="SourceGraphic" in2="effect1_dropShadow_1_19889" result="shape"/>
</filter>
<filter id="filter4_d_1_19889" x="116.343" y="277.733" width="19.5895" height="19.3331" filterUnits="userSpaceOnUse" color-interpolation-filters="sRGB">
<feFlood flood-opacity="0" result="BackgroundImageFix"/>
<feColorMatrix in="SourceAlpha" type="matrix" values="0 0 0 0 0 0 0 0 0 0 0 0 0 0 0 0 0 0 127 0" result="hardAlpha"/>
<feMorphology radius="2" operator="dilate" in="SourceAlpha" result="effect1_dropShadow_1_19889"/>
<feOffset/>
<feGaussianBlur stdDeviation="1.5"/>
<feComposite in2="hardAlpha" operator="out"/>
<feColorMatrix type="matrix" values="0 0 0 0 1 0 0 0 0 0.907051 0 0 0 0 0.690169 0 0 0 1 0"/>
<feBlend mode="normal" in2="BackgroundImageFix" result="effect1_dropShadow_1_19889"/>
<feBlend mode="normal" in="SourceGraphic" in2="effect1_dropShadow_1_19889" result="shape"/>
</filter>
<radialGradient id="paint0_radial_1_19889" cx="0" cy="0" r="1" gradientUnits="userSpaceOnUse" gradientTransform="translate(243.579 10.5792) rotate(135) scale(6)">
<stop stop-color="white"/>
<stop offset="1" stop-color="#FFEAB0"/>
</radialGradient>
<radialGradient id="paint1_radial_1_19889" cx="0" cy="0" r="1" gradientUnits="userSpaceOnUse" gradientTransform="translate(242.094 239.094) rotate(90) scale(6)">
<stop stop-color="white"/>
<stop offset="1" stop-color="#FFEAB0"/>
</radialGradient>
<radialGradient id="paint2_radial_1_19889" cx="0" cy="0" r="1" gradientUnits="userSpaceOnUse" gradientTransform="translate(9.57915 9.5791) rotate(45) scale(6)">
<stop stop-color="white"/>
<stop offset="1" stop-color="#FFEAB0"/>
</radialGradient>
<radialGradient id="paint3_radial_1_19889" cx="0" cy="0" r="1" gradientUnits="userSpaceOnUse" gradientTransform="translate(10.0939 238.094) rotate(90) scale(6)">
<stop stop-color="white"/>
<stop offset="1" stop-color="#FFEAB0"/>
</radialGradient>
<radialGradient id="paint4_radial_1_19889" cx="0" cy="0" r="1" gradientUnits="userSpaceOnUse" gradientTransform="translate(126.094 287.094) rotate(-20.2098) scale(6)">
<stop stop-color="white"/>
<stop offset="1" stop-color="#FFEAB0"/>
</radialGradient>
</defs>
</svg>
