<svg width="12" height="22" viewBox="0 0 12 22" fill="none" xmlns="http://www.w3.org/2000/svg">
<circle cx="2.26198" cy="2.26198" r="1.88498" transform="matrix(-1 0 0 1 10.5785 16.9648)" fill="#9A41FE" stroke="#9A41FE" stroke-width="0.753992"/>
<circle cx="2.26198" cy="2.26198" r="1.88498" transform="matrix(-1 0 0 1 10.5786 0)" fill="#9A41FE" stroke="#9A41FE" stroke-width="0.753992"/>
<g filter="url(#filter0_ii_1_27124)">
<path d="M9.6443 2.45084C8.98912 2.08497 8.28011 1.88501 7.53997 1.88501C4.20862 1.88501 1.50803 5.93589 1.50803 10.9329C1.50803 15.9299 4.20862 19.9808 7.53997 19.9808C8.34853 19.9808 9.11993 19.7422 9.82458 19.3093" stroke="#9A41FE" stroke-width="3.01597" stroke-linecap="round" stroke-linejoin="round"/>
<path d="M9.6443 2.45084C8.98912 2.08497 8.28011 1.88501 7.53997 1.88501C4.20862 1.88501 1.50803 5.93589 1.50803 10.9329C1.50803 15.9299 4.20862 19.9808 7.53997 19.9808C8.34853 19.9808 9.11993 19.7422 9.82458 19.3093" stroke="white" stroke-opacity="0.5" stroke-width="3.01597" stroke-linecap="round" stroke-linejoin="round"/>
</g>
<defs>
<filter id="filter0_ii_1_27124" x="0" y="0.377075" width="12.0868" height="24.1277" filterUnits="userSpaceOnUse" color-interpolation-filters="sRGB">
<feFlood flood-opacity="0" result="BackgroundImageFix"/>
<feBlend mode="normal" in="SourceGraphic" in2="BackgroundImageFix" result="shape"/>
<feColorMatrix in="SourceAlpha" type="matrix" values="0 0 0 0 0 0 0 0 0 0 0 0 0 0 0 0 0 0 127 0" result="hardAlpha"/>
<feOffset dy="3.01597"/>
<feGaussianBlur stdDeviation="1.50798"/>
<feComposite in2="hardAlpha" operator="arithmetic" k2="-1" k3="1"/>
<feColorMatrix type="matrix" values="0 0 0 0 1 0 0 0 0 1 0 0 0 0 1 0 0 0 0.5 0"/>
<feBlend mode="normal" in2="shape" result="effect1_innerShadow_1_27124"/>
<feColorMatrix in="SourceAlpha" type="matrix" values="0 0 0 0 0 0 0 0 0 0 0 0 0 0 0 0 0 0 127 0" result="hardAlpha"/>
<feOffset dx="0.753992"/>
<feGaussianBlur stdDeviation="0.716292"/>
<feComposite in2="hardAlpha" operator="arithmetic" k2="-1" k3="1"/>
<feColorMatrix type="matrix" values="0 0 0 0 1 0 0 0 0 1 0 0 0 0 1 0 0 0 0.7 0"/>
<feBlend mode="normal" in2="effect1_innerShadow_1_27124" result="effect2_innerShadow_1_27124"/>
</filter>
</defs>
</svg>
