<svg width="115" height="31" viewBox="0 0 115 31" fill="none" xmlns="http://www.w3.org/2000/svg">
<path d="M114.996 7.26709C114.996 7.26709 112.24 7.28176 111.127 8.17219C110.014 9.06262 109.996 11.2671 109.996 11.2671C109.996 11.2671 109.977 9.06262 108.864 8.17219C107.751 7.28176 104.996 7.26709 104.996 7.26709C104.996 7.26709 107.751 7.25242 108.864 6.36199C109.977 5.47156 109.996 3.26709 109.996 3.26709C109.996 3.26709 110.014 5.47156 111.127 6.36199C112.24 7.25242 114.996 7.26709 114.996 7.26709Z" fill="white"/>
<path d="M107.996 14.2671C107.996 14.2671 106.342 14.2744 105.675 14.7196C105.007 15.1649 104.996 16.2671 104.996 16.2671C104.996 16.2671 104.985 15.1649 104.317 14.7196C103.649 14.2744 101.996 14.2671 101.996 14.2671C101.996 14.2671 103.649 14.2598 104.317 13.8145C104.985 13.3693 104.996 12.2671 104.996 12.2671C104.996 12.2671 105.007 13.3693 105.675 13.8145C106.342 14.2598 107.996 14.2671 107.996 14.2671Z" fill="white"/>
<mask id="path-3-outside-1_1_20550" maskUnits="userSpaceOnUse" x="-3.0305" y="-2.53352" width="32.3768" height="34.5396" fill="black">
<rect fill="white" x="-3.0305" y="-2.53352" width="32.3768" height="34.5396"/>
<path d="M10.7833 1.40896C15.1892 0.281717 19.6453 1.55172 22.7733 4.40152C21.367 4.01397 19.8443 3.97463 18.3299 4.36201C13.6917 5.54869 10.8935 10.271 12.0802 14.9092C13.2671 19.5471 17.9891 22.3445 22.6271 21.1579C23.7769 20.8637 24.8131 20.3518 25.704 19.6782C24.0917 22.9991 21.0859 25.6166 17.2293 26.6033C10.2721 28.3832 3.18917 24.1863 1.40916 17.2291C-0.370821 10.2719 3.82616 3.18903 10.7833 1.40896Z"/>
</mask>
<g filter="url(#filter0_ii_1_20550)">
<path d="M10.7833 1.40896C15.1892 0.281717 19.6453 1.55172 22.7733 4.40152C21.367 4.01397 19.8443 3.97463 18.3299 4.36201C13.6917 5.54869 10.8935 10.271 12.0802 14.9092C13.2671 19.5471 17.9891 22.3445 22.6271 21.1579C23.7769 20.8637 24.8131 20.3518 25.704 19.6782C24.0917 22.9991 21.0859 25.6166 17.2293 26.6033C10.2721 28.3832 3.18917 24.1863 1.40916 17.2291C-0.370821 10.2719 3.82616 3.18903 10.7833 1.40896Z" fill="#D9D9D9"/>
<path d="M10.7833 1.40896C15.1892 0.281717 19.6453 1.55172 22.7733 4.40152C21.367 4.01397 19.8443 3.97463 18.3299 4.36201C13.6917 5.54869 10.8935 10.271 12.0802 14.9092C13.2671 19.5471 17.9891 22.3445 22.6271 21.1579C23.7769 20.8637 24.8131 20.3518 25.704 19.6782C24.0917 22.9991 21.0859 25.6166 17.2293 26.6033C10.2721 28.3832 3.18917 24.1863 1.40916 17.2291C-0.370821 10.2719 3.82616 3.18903 10.7833 1.40896Z" fill="url(#paint0_linear_1_20550)"/>
<path d="M10.7833 1.40896C15.1892 0.281717 19.6453 1.55172 22.7733 4.40152C21.367 4.01397 19.8443 3.97463 18.3299 4.36201C13.6917 5.54869 10.8935 10.271 12.0802 14.9092C13.2671 19.5471 17.9891 22.3445 22.6271 21.1579C23.7769 20.8637 24.8131 20.3518 25.704 19.6782C24.0917 22.9991 21.0859 25.6166 17.2293 26.6033C10.2721 28.3832 3.18917 24.1863 1.40916 17.2291C-0.370821 10.2719 3.82616 3.18903 10.7833 1.40896Z" fill="url(#paint1_radial_1_20550)"/>
<path d="M10.7833 1.40896C15.1892 0.281717 19.6453 1.55172 22.7733 4.40152C21.367 4.01397 19.8443 3.97463 18.3299 4.36201C13.6917 5.54869 10.8935 10.271 12.0802 14.9092C13.2671 19.5471 17.9891 22.3445 22.6271 21.1579C23.7769 20.8637 24.8131 20.3518 25.704 19.6782C24.0917 22.9991 21.0859 25.6166 17.2293 26.6033C10.2721 28.3832 3.18917 24.1863 1.40916 17.2291C-0.370821 10.2719 3.82616 3.18903 10.7833 1.40896Z" fill="url(#paint2_radial_1_20550)" fill-opacity="0.6"/>
<path d="M10.7833 1.40896C15.1892 0.281717 19.6453 1.55172 22.7733 4.40152C21.367 4.01397 19.8443 3.97463 18.3299 4.36201C13.6917 5.54869 10.8935 10.271 12.0802 14.9092C13.2671 19.5471 17.9891 22.3445 22.6271 21.1579C23.7769 20.8637 24.8131 20.3518 25.704 19.6782C24.0917 22.9991 21.0859 25.6166 17.2293 26.6033C10.2721 28.3832 3.18917 24.1863 1.40916 17.2291C-0.370821 10.2719 3.82616 3.18903 10.7833 1.40896Z" fill="url(#paint3_radial_1_20550)" fill-opacity="0.5"/>
</g>
<path d="M10.7833 1.40896L10.5355 0.440164L10.5354 0.440166L10.7833 1.40896ZM22.7733 4.40152L22.5076 5.36558C22.9535 5.48849 23.4256 5.28947 23.649 4.88437C23.8723 4.47928 23.7887 3.97386 23.4467 3.66231L22.7733 4.40152ZM18.3299 4.36201L18.0821 3.3932L18.082 3.39322L18.3299 4.36201ZM12.0802 14.9092L11.1114 15.157L11.1114 15.1571L12.0802 14.9092ZM22.6271 21.1579L22.875 22.1267L22.875 22.1267L22.6271 21.1579ZM25.704 19.6782L26.6036 20.1149C26.8055 19.699 26.696 19.1989 26.3388 18.9055C25.9816 18.612 25.4697 18.6017 25.1009 18.8805L25.704 19.6782ZM17.2293 26.6033L17.4772 27.5721L17.4772 27.5721L17.2293 26.6033ZM1.40916 17.2291L0.440362 17.477L0.440363 17.477L1.40916 17.2291ZM10.7833 1.40896L11.0312 2.37775C15.0972 1.33746 19.2101 2.50802 22.0998 5.14074L22.7733 4.40152L23.4467 3.66231C20.0805 0.595433 15.2811 -0.774027 10.5355 0.440164L10.7833 1.40896ZM22.7733 4.40152L23.0389 3.43746C21.4702 3.00513 19.7704 2.96133 18.0821 3.3932L18.3299 4.36201L18.5777 5.33082C19.9182 4.98793 21.2638 5.02282 22.5076 5.36558L22.7733 4.40152ZM18.3299 4.36201L18.082 3.39322C12.9088 4.71679 9.78784 9.98383 11.1114 15.157L12.0802 14.9092L13.049 14.6613C11.9992 10.5582 14.4746 6.38059 18.5777 5.3308L18.3299 4.36201ZM12.0802 14.9092L11.1114 15.1571C12.4352 20.3301 17.702 23.4502 22.875 22.1267L22.6271 21.1579L22.3793 20.1891C18.2762 21.2389 14.0989 18.7641 13.049 14.6613L12.0802 14.9092ZM22.6271 21.1579L22.875 22.1267C24.156 21.7989 25.3125 21.2278 26.3071 20.4758L25.704 19.6782L25.1009 18.8805C24.3137 19.4757 23.3978 19.9285 22.3792 20.1891L22.6271 21.1579ZM25.704 19.6782L24.8044 19.2414C23.3148 22.3096 20.5407 24.7239 16.9814 25.6345L17.2293 26.6033L17.4772 27.5721C21.6311 26.5093 24.8686 23.6887 26.6036 20.1149L25.704 19.6782ZM17.2293 26.6033L16.9815 25.6345C10.5593 27.2775 4.02107 23.4034 2.37795 16.9813L1.40916 17.2291L0.440363 17.477C2.35727 24.9692 9.98493 29.4889 17.4772 27.5721L17.2293 26.6033ZM1.40916 17.2291L2.37795 16.9813C0.734866 10.5591 4.60908 4.02092 11.0312 2.37775L10.7833 1.40896L10.5354 0.440166C3.04325 2.35713 -1.47651 9.98474 0.440362 17.477L1.40916 17.2291Z" fill="white" mask="url(#path-3-outside-1_1_20550)"/>
<mask id="path-5-outside-2_1_20550" maskUnits="userSpaceOnUse" x="13.8112" y="5.01465" width="87" height="20" fill="black">
<rect fill="white" x="13.8112" y="5.01465" width="87" height="20"/>
<path d="M26.5952 15.3106L26.8832 13.2946H22.2032L22.5152 11.0146H27.1952L27.4832 8.87865L23.2352 8.97465L23.5712 6.69465L36.7232 6.35865L36.4112 8.63865L31.8992 8.75865L31.5872 11.0146H36.6032L36.2912 13.2946H31.2752L30.9872 15.3106H35.5472L34.4912 22.7746H21.1712L22.2272 15.3106H26.5952ZM14.9552 23.2306L17.2112 16.4386H21.1712L18.9152 23.2306H14.9552ZM17.3552 15.5266L17.0432 11.4226H21.0032L21.3152 15.5266H17.3552ZM18.0512 10.5106L17.7392 6.40665H21.6992L22.0112 10.5106H18.0512ZM30.7472 20.5666L31.1792 17.5906H26.0672L25.6352 20.5666H30.7472ZM48.9373 10.9666H47.6413L47.9773 8.68665H49.5133L49.9933 6.76665L49.2733 5.95065H53.8333L53.1613 8.68665H57.5533L55.7293 21.6466C55.6493 22.1106 55.4333 22.4946 55.0813 22.7986C54.7293 23.0866 54.3213 23.2306 53.8573 23.2306H50.0413L52.1533 21.0226L53.5693 10.9666H52.5853L49.5613 23.2306H45.9133L48.9373 10.9666ZM45.3853 17.3506L45.2413 23.2306H41.5933V22.5826L35.8813 23.2306L36.2173 20.9986L38.5213 13.7026H37.2253L37.5613 11.4226H46.6813L46.3453 13.7026H42.1693L39.9853 20.5426L41.6653 20.3506L41.7373 17.3506H45.3853ZM46.8493 6.86265L46.5373 9.14265H38.3293L38.6413 6.86265H46.8493ZM76.2474 22.7506H63.8874L66.0714 7.31865L65.7594 6.38265H78.5514L76.2474 22.7506ZM58.2234 11.4466L61.3434 6.57465L60.8154 5.97465H65.8314L62.3274 11.4466H65.0634L61.5594 16.9186H64.2954L63.9834 19.1986H57.1434L57.4554 16.9186L59.5194 13.7266H57.9114L58.2234 11.4466ZM63.5274 22.3906L56.6394 22.8466L56.9514 20.5666L63.8634 20.1106L63.5274 22.3906ZM68.9994 20.5186L69.7194 15.4546H68.5914L67.8714 20.5186H68.9994ZM73.2954 20.5186L74.0154 15.4546H72.9114L72.1914 20.5186H73.2954ZM68.9034 13.1746H70.0314L70.6794 8.68665H69.5514L68.9034 13.1746ZM73.8714 8.68665L73.2234 13.1746H74.3274L74.9754 8.68665H73.8714ZM90.6215 6.43065L88.8215 19.1746H86.8535L86.0615 17.5426L87.3095 8.71065H82.5815L81.3335 17.5426L80.0375 19.1746H78.0935L79.8935 6.43065H90.6215ZM99.0695 5.99865L96.8855 21.5986C96.8215 22.0466 96.6055 22.4226 96.2375 22.7266C95.8695 23.0306 95.4615 23.1826 95.0135 23.1826H91.3895L93.5015 20.8066L95.4695 6.71865L94.8935 5.99865H99.0695ZM86.2775 9.57465L85.1495 17.5186L88.4855 23.2066H84.9575L83.5655 20.3746L81.2375 23.2066H77.8775L82.2455 17.5426L83.3735 9.57465H86.2775ZM94.4855 7.53465L92.8535 19.1506H89.7095L91.3415 7.53465H94.4855Z"/>
</mask>
<path d="M26.5952 15.3106L26.8832 13.2946H22.2032L22.5152 11.0146H27.1952L27.4832 8.87865L23.2352 8.97465L23.5712 6.69465L36.7232 6.35865L36.4112 8.63865L31.8992 8.75865L31.5872 11.0146H36.6032L36.2912 13.2946H31.2752L30.9872 15.3106H35.5472L34.4912 22.7746H21.1712L22.2272 15.3106H26.5952ZM14.9552 23.2306L17.2112 16.4386H21.1712L18.9152 23.2306H14.9552ZM17.3552 15.5266L17.0432 11.4226H21.0032L21.3152 15.5266H17.3552ZM18.0512 10.5106L17.7392 6.40665H21.6992L22.0112 10.5106H18.0512ZM30.7472 20.5666L31.1792 17.5906H26.0672L25.6352 20.5666H30.7472ZM48.9373 10.9666H47.6413L47.9773 8.68665H49.5133L49.9933 6.76665L49.2733 5.95065H53.8333L53.1613 8.68665H57.5533L55.7293 21.6466C55.6493 22.1106 55.4333 22.4946 55.0813 22.7986C54.7293 23.0866 54.3213 23.2306 53.8573 23.2306H50.0413L52.1533 21.0226L53.5693 10.9666H52.5853L49.5613 23.2306H45.9133L48.9373 10.9666ZM45.3853 17.3506L45.2413 23.2306H41.5933V22.5826L35.8813 23.2306L36.2173 20.9986L38.5213 13.7026H37.2253L37.5613 11.4226H46.6813L46.3453 13.7026H42.1693L39.9853 20.5426L41.6653 20.3506L41.7373 17.3506H45.3853ZM46.8493 6.86265L46.5373 9.14265H38.3293L38.6413 6.86265H46.8493ZM76.2474 22.7506H63.8874L66.0714 7.31865L65.7594 6.38265H78.5514L76.2474 22.7506ZM58.2234 11.4466L61.3434 6.57465L60.8154 5.97465H65.8314L62.3274 11.4466H65.0634L61.5594 16.9186H64.2954L63.9834 19.1986H57.1434L57.4554 16.9186L59.5194 13.7266H57.9114L58.2234 11.4466ZM63.5274 22.3906L56.6394 22.8466L56.9514 20.5666L63.8634 20.1106L63.5274 22.3906ZM68.9994 20.5186L69.7194 15.4546H68.5914L67.8714 20.5186H68.9994ZM73.2954 20.5186L74.0154 15.4546H72.9114L72.1914 20.5186H73.2954ZM68.9034 13.1746H70.0314L70.6794 8.68665H69.5514L68.9034 13.1746ZM73.8714 8.68665L73.2234 13.1746H74.3274L74.9754 8.68665H73.8714ZM90.6215 6.43065L88.8215 19.1746H86.8535L86.0615 17.5426L87.3095 8.71065H82.5815L81.3335 17.5426L80.0375 19.1746H78.0935L79.8935 6.43065H90.6215ZM99.0695 5.99865L96.8855 21.5986C96.8215 22.0466 96.6055 22.4226 96.2375 22.7266C95.8695 23.0306 95.4615 23.1826 95.0135 23.1826H91.3895L93.5015 20.8066L95.4695 6.71865L94.8935 5.99865H99.0695ZM86.2775 9.57465L85.1495 17.5186L88.4855 23.2066H84.9575L83.5655 20.3746L81.2375 23.2066H77.8775L82.2455 17.5426L83.3735 9.57465H86.2775ZM94.4855 7.53465L92.8535 19.1506H89.7095L91.3415 7.53465H94.4855Z" fill="#46256C"/>
<path d="M26.5952 15.3106V16.1359C27.0058 16.1359 27.354 15.8339 27.4121 15.4274L26.5952 15.3106ZM26.8832 13.2946L27.7001 13.4114C27.7339 13.1745 27.6633 12.9347 27.5066 12.7539C27.3498 12.5732 27.1224 12.4694 26.8832 12.4694V13.2946ZM22.2032 13.2946L21.3855 13.1828C21.3532 13.4189 21.4246 13.6576 21.5813 13.8372C21.738 14.0168 21.9648 14.1199 22.2032 14.1199V13.2946ZM22.5152 11.0146V10.1894C22.1026 10.1894 21.7535 10.494 21.6975 10.9028L22.5152 11.0146ZM27.1952 11.0146V11.8399C27.6083 11.8399 27.9578 11.5344 28.013 11.1249L27.1952 11.0146ZM27.4832 8.87865L28.301 8.98892C28.3332 8.74973 28.2592 8.50841 28.0983 8.32851C27.9374 8.14861 27.7058 8.04816 27.4645 8.05362L27.4832 8.87865ZM23.2352 8.97465L22.4187 8.85433C22.3833 9.09486 22.4557 9.33878 22.6167 9.52099C22.7776 9.70321 23.0107 9.80517 23.2538 9.79968L23.2352 8.97465ZM23.5712 6.69465L23.5501 5.86967C23.1489 5.87992 22.8132 6.1773 22.7547 6.57433L23.5712 6.69465ZM36.7232 6.35865L37.5408 6.47053C37.5736 6.23071 37.4995 5.98857 37.338 5.80821C37.1766 5.62786 36.9441 5.52749 36.7021 5.53367L36.7232 6.35865ZM36.4112 8.63865L36.4331 9.4636C36.8372 9.45285 37.174 9.15101 37.2288 8.75053L36.4112 8.63865ZM31.8992 8.75865L31.8772 7.9337C31.4736 7.94443 31.137 8.24564 31.0817 8.64559L31.8992 8.75865ZM31.5872 11.0146L30.7697 10.9016C30.737 11.1379 30.8082 11.3769 30.9649 11.5567C31.1217 11.7366 31.3486 11.8399 31.5872 11.8399V11.0146ZM36.6032 11.0146L37.4208 11.1265C37.4531 10.8904 37.3817 10.6517 37.225 10.4721C37.0683 10.2925 36.8415 10.1894 36.6032 10.1894V11.0146ZM36.2912 13.2946V14.1199C36.7037 14.1199 37.0529 13.8153 37.1088 13.4065L36.2912 13.2946ZM31.2752 13.2946V12.4694C30.8645 12.4694 30.5163 12.7714 30.4582 13.1779L31.2752 13.2946ZM30.9872 15.3106L30.1702 15.1939C30.1364 15.4308 30.207 15.6706 30.3637 15.8513C30.5205 16.0321 30.7479 16.1359 30.9872 16.1359V15.3106ZM35.5472 15.3106L36.3643 15.4263C36.3977 15.1896 36.327 14.95 36.1702 14.7695C36.0135 14.5891 35.7862 14.4854 35.5472 14.4854V15.3106ZM34.4912 22.7746V23.5999C34.9023 23.5999 35.2507 23.2973 35.3083 22.8903L34.4912 22.7746ZM21.1712 22.7746L20.3541 22.659C20.3206 22.8957 20.3914 23.1353 20.5481 23.3158C20.7048 23.4962 20.9321 23.5999 21.1712 23.5999V22.7746ZM22.2272 15.3106V14.4854C21.8161 14.4854 21.4676 14.788 21.4101 15.195L22.2272 15.3106ZM14.9552 23.2306L14.172 22.9705C14.0884 23.2221 14.1308 23.4985 14.2859 23.7135C14.4411 23.9285 14.69 24.0559 14.9552 24.0559V23.2306ZM17.2112 16.4386V15.6134C16.8556 15.6134 16.5401 15.8411 16.428 16.1785L17.2112 16.4386ZM21.1712 16.4386L21.9543 16.6988C22.0379 16.4472 21.9955 16.1708 21.8404 15.9558C21.6852 15.7408 21.4363 15.6134 21.1712 15.6134V16.4386ZM18.9152 23.2306V24.0559C19.2707 24.0559 19.5863 23.8282 19.6983 23.4908L18.9152 23.2306ZM17.3552 15.5266L16.5323 15.5892C16.565 16.0195 16.9237 16.3519 17.3552 16.3519V15.5266ZM17.0432 11.4226V10.5974C16.8134 10.5974 16.5941 10.6932 16.4379 10.8617C16.2817 11.0302 16.2029 11.2561 16.2203 11.4852L17.0432 11.4226ZM21.0032 11.4226L21.826 11.3601C21.7933 10.9298 21.4347 10.5974 21.0032 10.5974V11.4226ZM21.3152 15.5266V16.3519C21.5449 16.3519 21.7642 16.2561 21.9204 16.0876C22.0766 15.9191 22.1554 15.6932 22.138 15.4641L21.3152 15.5266ZM18.0512 10.5106L17.2283 10.5732C17.261 11.0035 17.6197 11.3359 18.0512 11.3359V10.5106ZM17.7392 6.40665V5.58141C17.5094 5.58141 17.2901 5.67717 17.1339 5.84567C16.9777 6.01416 16.8989 6.24013 16.9163 6.4692L17.7392 6.40665ZM21.6992 6.40665L22.522 6.34409C22.4893 5.91383 22.1307 5.58141 21.6992 5.58141V6.40665ZM22.0112 10.5106V11.3359C22.2409 11.3359 22.4602 11.2401 22.6164 11.0716C22.7726 10.9031 22.8514 10.6772 22.834 10.4481L22.0112 10.5106ZM30.7472 20.5666V21.3919C31.1571 21.3919 31.5049 21.0909 31.5638 20.6852L30.7472 20.5666ZM31.1792 17.5906L31.9958 17.7092C32.0303 17.4721 31.96 17.2318 31.8032 17.0507C31.6464 16.8695 31.4187 16.7654 31.1792 16.7654V17.5906ZM26.0672 17.5906V16.7654C25.6572 16.7654 25.3094 17.0664 25.2505 17.4721L26.0672 17.5906ZM25.6352 20.5666L24.8185 20.4481C24.7841 20.6852 24.8544 20.9255 25.0111 21.1066C25.1679 21.2878 25.3956 21.3919 25.6352 21.3919V20.5666ZM26.5952 15.3106L27.4121 15.4274L27.7001 13.4114L26.8832 13.2946L26.0662 13.1779L25.7782 15.1939L26.5952 15.3106ZM26.8832 13.2946V12.4694H22.2032V13.2946V14.1199H26.8832V13.2946ZM22.2032 13.2946L23.0208 13.4065L23.3328 11.1265L22.5152 11.0146L21.6975 10.9028L21.3855 13.1828L22.2032 13.2946ZM22.5152 11.0146V11.8399H27.1952V11.0146V10.1894H22.5152V11.0146ZM27.1952 11.0146L28.013 11.1249L28.301 8.98892L27.4832 8.87865L26.6653 8.76838L26.3773 10.9044L27.1952 11.0146ZM27.4832 8.87865L27.4645 8.05362L23.2165 8.14962L23.2352 8.97465L23.2538 9.79968L27.5018 9.70368L27.4832 8.87865ZM23.2352 8.97465L24.0516 9.09496L24.3876 6.81496L23.5712 6.69465L22.7547 6.57433L22.4187 8.85433L23.2352 8.97465ZM23.5712 6.69465L23.5922 7.51962L36.7442 7.18362L36.7232 6.35865L36.7021 5.53367L23.5501 5.86967L23.5712 6.69465ZM36.7232 6.35865L35.9055 6.24676L35.5935 8.52676L36.4112 8.63865L37.2288 8.75053L37.5408 6.47053L36.7232 6.35865ZM36.4112 8.63865L36.3892 7.8137L31.8772 7.9337L31.8992 8.75865L31.9211 9.5836L36.4331 9.4636L36.4112 8.63865ZM31.8992 8.75865L31.0817 8.64559L30.7697 10.9016L31.5872 11.0146L32.4046 11.1277L32.7166 8.8717L31.8992 8.75865ZM31.5872 11.0146V11.8399H36.6032V11.0146V10.1894H31.5872V11.0146ZM36.6032 11.0146L35.7855 10.9028L35.4735 13.1828L36.2912 13.2946L37.1088 13.4065L37.4208 11.1265L36.6032 11.0146ZM36.2912 13.2946V12.4694H31.2752V13.2946V14.1199H36.2912V13.2946ZM31.2752 13.2946L30.4582 13.1779L30.1702 15.1939L30.9872 15.3106L31.8041 15.4274L32.0921 13.4114L31.2752 13.2946ZM30.9872 15.3106V16.1359H35.5472V15.3106V14.4854H30.9872V15.3106ZM35.5472 15.3106L34.7301 15.195L33.6741 22.659L34.4912 22.7746L35.3083 22.8903L36.3643 15.4263L35.5472 15.3106ZM34.4912 22.7746V21.9494H21.1712V22.7746V23.5999H34.4912V22.7746ZM21.1712 22.7746L21.9883 22.8903L23.0443 15.4263L22.2272 15.3106L21.4101 15.195L20.3541 22.659L21.1712 22.7746ZM22.2272 15.3106V16.1359H26.5952V15.3106V14.4854H22.2272V15.3106ZM14.9552 23.2306L15.7383 23.4908L17.9943 16.6988L17.2112 16.4386L16.428 16.1785L14.172 22.9705L14.9552 23.2306ZM17.2112 16.4386V17.2639H21.1712V16.4386V15.6134H17.2112V16.4386ZM21.1712 16.4386L20.388 16.1785L18.132 22.9705L18.9152 23.2306L19.6983 23.4908L21.9543 16.6988L21.1712 16.4386ZM18.9152 23.2306V22.4054H14.9552V23.2306V24.0559H18.9152V23.2306ZM17.3552 15.5266L18.178 15.4641L17.866 11.3601L17.0432 11.4226L16.2203 11.4852L16.5323 15.5892L17.3552 15.5266ZM17.0432 11.4226V12.2479H21.0032V11.4226V10.5974H17.0432V11.4226ZM21.0032 11.4226L20.1803 11.4852L20.4923 15.5892L21.3152 15.5266L22.138 15.4641L21.826 11.3601L21.0032 11.4226ZM21.3152 15.5266V14.7014H17.3552V15.5266V16.3519H21.3152V15.5266ZM18.0512 10.5106L18.874 10.4481L18.562 6.34409L17.7392 6.40665L16.9163 6.4692L17.2283 10.5732L18.0512 10.5106ZM17.7392 6.40665V7.23189H21.6992V6.40665V5.58141H17.7392V6.40665ZM21.6992 6.40665L20.8763 6.46921L21.1883 10.5732L22.0112 10.5106L22.834 10.4481L22.522 6.34409L21.6992 6.40665ZM22.0112 10.5106V9.6854H18.0512V10.5106V11.3359H22.0112V10.5106ZM30.7472 20.5666L31.5638 20.6852L31.9958 17.7092L31.1792 17.5906L30.3625 17.4721L29.9305 20.4481L30.7472 20.5666ZM31.1792 17.5906V16.7654H26.0672V17.5906V18.4159H31.1792V17.5906ZM26.0672 17.5906L25.2505 17.4721L24.8185 20.4481L25.6352 20.5666L26.4518 20.6852L26.8838 17.7092L26.0672 17.5906ZM25.6352 20.5666V21.3919H30.7472V20.5666V19.7414H25.6352V20.5666ZM48.9373 10.9666L49.7385 11.1642C49.7993 10.9179 49.7433 10.6574 49.5869 10.4577C49.4305 10.2581 49.1909 10.1414 48.9373 10.1414V10.9666ZM47.6413 10.9666L46.8249 10.8463C46.7899 11.0836 46.8599 11.3244 47.0167 11.506C47.1734 11.6875 47.4014 11.7919 47.6413 11.7919V10.9666ZM47.9773 8.68665V7.86141C47.568 7.86141 47.2205 8.16141 47.1609 8.56633L47.9773 8.68665ZM49.5133 8.68665V9.51189C49.892 9.51189 50.222 9.25417 50.3139 8.8868L49.5133 8.68665ZM49.9933 6.76665L50.7939 6.9668C50.8598 6.70332 50.7918 6.4243 50.6121 6.22065L49.9933 6.76665ZM49.2733 5.95065V5.1254C48.9489 5.1254 48.6545 5.31549 48.5211 5.6112C48.3876 5.90691 48.4398 6.25338 48.6545 6.49665L49.2733 5.95065ZM53.8333 5.95065L54.6347 6.14749C54.6952 5.90128 54.6391 5.64095 54.4827 5.44144C54.3263 5.24194 54.0868 5.1254 53.8333 5.1254V5.95065ZM53.1613 8.68665L52.3599 8.48981C52.2994 8.73601 52.3554 8.99635 52.5119 9.19586C52.6683 9.39536 52.9078 9.51189 53.1613 9.51189V8.68665ZM57.5533 8.68665L58.3705 8.80166C58.4038 8.56506 58.3329 8.32564 58.1762 8.1453C58.0194 7.96496 57.7922 7.86141 57.5533 7.86141V8.68665ZM55.7293 21.6466L56.5425 21.7869C56.544 21.7785 56.5453 21.7701 56.5465 21.7617L55.7293 21.6466ZM55.0813 22.7986L55.6039 23.4374C55.6095 23.4327 55.6151 23.428 55.6207 23.4232L55.0813 22.7986ZM50.0413 23.2306L49.4449 22.6602C49.2165 22.899 49.1526 23.251 49.2824 23.5549C49.4123 23.8588 49.7108 24.0559 50.0413 24.0559V23.2306ZM52.1533 21.0226L52.7496 21.5931C52.8691 21.4682 52.9464 21.3089 52.9705 21.1377L52.1533 21.0226ZM53.5693 10.9666L54.3865 11.0817C54.4198 10.8451 54.3489 10.6057 54.1922 10.4253C54.0354 10.245 53.8082 10.1414 53.5693 10.1414V10.9666ZM52.5853 10.9666V10.1414C52.2056 10.1414 51.8749 10.4005 51.784 10.7691L52.5853 10.9666ZM49.5613 23.2306V24.0559C49.941 24.0559 50.2716 23.7968 50.3625 23.4282L49.5613 23.2306ZM45.9133 23.2306L45.112 23.0331C45.0513 23.2794 45.1072 23.5399 45.2636 23.7396C45.4201 23.9392 45.6596 24.0559 45.9133 24.0559V23.2306ZM45.3853 17.3506L46.2103 17.3709C46.2157 17.1485 46.1312 16.9335 45.9759 16.7743C45.8206 16.6151 45.6077 16.5254 45.3853 16.5254V17.3506ZM45.2413 23.2306V24.0559C45.6892 24.0559 46.0553 23.6986 46.0663 23.2509L45.2413 23.2306ZM41.5933 23.2306H40.768C40.768 23.6864 41.1375 24.0559 41.5933 24.0559V23.2306ZM41.5933 22.5826H42.4185C42.4185 22.3476 42.3183 22.1237 42.1429 21.9671C41.9676 21.8105 41.7338 21.7362 41.5003 21.7627L41.5933 22.5826ZM35.8813 23.2306L35.0652 23.1078C35.027 23.3616 35.1091 23.6187 35.2872 23.8035C35.4653 23.9882 35.7193 24.0796 35.9743 24.0506L35.8813 23.2306ZM36.2173 20.9986L35.4303 20.7501C35.4174 20.7912 35.4076 20.8332 35.4012 20.8758L36.2173 20.9986ZM38.5213 13.7026L39.3082 13.9512C39.3874 13.7004 39.3423 13.4269 39.1869 13.2148C39.0315 13.0027 38.7842 12.8774 38.5213 12.8774V13.7026ZM37.2253 13.7026L36.4089 13.5823C36.3739 13.8196 36.4439 14.0604 36.6007 14.242C36.7574 14.4235 36.9854 14.5279 37.2253 14.5279V13.7026ZM37.5613 11.4226V10.5974C37.152 10.5974 36.8045 10.8974 36.7449 11.3023L37.5613 11.4226ZM46.6813 11.4226L47.4977 11.543C47.5327 11.3057 47.4627 11.0649 47.3059 10.8833C47.1491 10.7018 46.9212 10.5974 46.6813 10.5974V11.4226ZM46.3453 13.7026V14.5279C46.7546 14.5279 47.102 14.2279 47.1617 13.823L46.3453 13.7026ZM42.1693 13.7026V12.8774C41.8102 12.8774 41.4924 13.1096 41.3831 13.4516L42.1693 13.7026ZM39.9853 20.5426L39.1991 20.2916C39.114 20.5584 39.1699 20.8501 39.3476 21.0665C39.5254 21.2829 39.8008 21.3944 40.079 21.3626L39.9853 20.5426ZM41.6653 20.3506L41.759 21.1706C42.1683 21.1238 42.4804 20.7823 42.4903 20.3704L41.6653 20.3506ZM41.7373 17.3506V16.5254C41.2892 16.5254 40.923 16.8829 40.9123 17.3308L41.7373 17.3506ZM46.8493 6.86265L47.6669 6.97453C47.6992 6.73835 47.6278 6.49973 47.4711 6.32011C47.3144 6.14049 47.0877 6.03741 46.8493 6.03741V6.86265ZM46.5373 9.14265V9.96789C46.9498 9.96789 47.299 9.66326 47.3549 9.25453L46.5373 9.14265ZM38.3293 9.14265L37.5117 9.03076C37.4793 9.26694 37.5507 9.50556 37.7074 9.68519C37.8642 9.86481 38.0909 9.96789 38.3293 9.96789V9.14265ZM38.6413 6.86265V6.03741C38.2287 6.03741 37.8796 6.34204 37.8237 6.75076L38.6413 6.86265ZM48.9373 10.9666V10.1414H47.6413V10.9666V11.7919H48.9373V10.9666ZM47.6413 10.9666L48.4577 11.087L48.7937 8.80696L47.9773 8.68665L47.1609 8.56633L46.8249 10.8463L47.6413 10.9666ZM47.9773 8.68665V9.51189H49.5133V8.68665V7.86141H47.9773V8.68665ZM49.5133 8.68665L50.3139 8.8868L50.7939 6.9668L49.9933 6.76665L49.1927 6.5665L48.7127 8.4865L49.5133 8.68665ZM49.9933 6.76665L50.6121 6.22065L49.8921 5.40465L49.2733 5.95065L48.6545 6.49665L49.3745 7.31265L49.9933 6.76665ZM49.2733 5.95065V6.77589H53.8333V5.95065V5.1254H49.2733V5.95065ZM53.8333 5.95065L53.0319 5.75381L52.3599 8.48981L53.1613 8.68665L53.9627 8.88349L54.6347 6.14749L53.8333 5.95065ZM53.1613 8.68665V9.51189H57.5533V8.68665V7.86141H53.1613V8.68665ZM57.5533 8.68665L56.7361 8.57164L54.9121 21.5316L55.7293 21.6466L56.5465 21.7617L58.3705 8.80166L57.5533 8.68665ZM55.7293 21.6466L54.916 21.5064C54.8681 21.7847 54.7474 21.9966 54.5419 22.1741L55.0813 22.7986L55.6207 23.4232C56.1192 22.9927 56.4305 22.4366 56.5425 21.7869L55.7293 21.6466ZM55.0813 22.7986L54.5587 22.1599C54.3574 22.3247 54.135 22.4054 53.8573 22.4054V23.2306V24.0559C54.5076 24.0559 55.1012 23.8486 55.6039 23.4374L55.0813 22.7986ZM53.8573 23.2306V22.4054H50.0413V23.2306V24.0559H53.8573V23.2306ZM50.0413 23.2306L50.6376 23.8011L52.7496 21.5931L52.1533 21.0226L51.5569 20.4522L49.4449 22.6602L50.0413 23.2306ZM52.1533 21.0226L52.9705 21.1377L54.3865 11.0817L53.5693 10.9666L52.7521 10.8516L51.3361 20.9076L52.1533 21.0226ZM53.5693 10.9666V10.1414H52.5853V10.9666V11.7919H53.5693V10.9666ZM52.5853 10.9666L51.784 10.7691L48.76 23.0331L49.5613 23.2306L50.3625 23.4282L53.3865 11.1642L52.5853 10.9666ZM49.5613 23.2306V22.4054H45.9133V23.2306V24.0559H49.5613V23.2306ZM45.9133 23.2306L46.7145 23.4282L49.7385 11.1642L48.9373 10.9666L48.136 10.7691L45.112 23.0331L45.9133 23.2306ZM45.3853 17.3506L44.5603 17.3304L44.4163 23.2104L45.2413 23.2306L46.0663 23.2509L46.2103 17.3709L45.3853 17.3506ZM45.2413 23.2306V22.4054H41.5933V23.2306V24.0559H45.2413V23.2306ZM41.5933 23.2306H42.4185V22.5826H41.5933H40.768V23.2306H41.5933ZM41.5933 22.5826L41.5003 21.7627L35.7883 22.4107L35.8813 23.2306L35.9743 24.0506L41.6863 23.4026L41.5933 22.5826ZM35.8813 23.2306L36.6973 23.3535L37.0333 21.1215L36.2173 20.9986L35.4012 20.8758L35.0652 23.1078L35.8813 23.2306ZM36.2173 20.9986L37.0042 21.2472L39.3082 13.9512L38.5213 13.7026L37.7343 13.4541L35.4303 20.7501L36.2173 20.9986ZM38.5213 13.7026V12.8774H37.2253V13.7026V14.5279H38.5213V13.7026ZM37.2253 13.7026L38.0417 13.823L38.3777 11.543L37.5613 11.4226L36.7449 11.3023L36.4089 13.5823L37.2253 13.7026ZM37.5613 11.4226V12.2479H46.6813V11.4226V10.5974H37.5613V11.4226ZM46.6813 11.4226L45.8649 11.3023L45.5289 13.5823L46.3453 13.7026L47.1617 13.823L47.4977 11.543L46.6813 11.4226ZM46.3453 13.7026V12.8774H42.1693V13.7026V14.5279H46.3453V13.7026ZM42.1693 13.7026L41.3831 13.4516L39.1991 20.2916L39.9853 20.5426L40.7714 20.7937L42.9554 13.9537L42.1693 13.7026ZM39.9853 20.5426L40.079 21.3626L41.759 21.1706L41.6653 20.3506L41.5716 19.5307L39.8916 19.7227L39.9853 20.5426ZM41.6653 20.3506L42.4903 20.3704L42.5623 17.3704L41.7373 17.3506L40.9123 17.3308L40.8403 20.3308L41.6653 20.3506ZM41.7373 17.3506V18.1759H45.3853V17.3506V16.5254H41.7373V17.3506ZM46.8493 6.86265L46.0317 6.75076L45.7197 9.03076L46.5373 9.14265L47.3549 9.25453L47.6669 6.97453L46.8493 6.86265ZM46.5373 9.14265V8.31741H38.3293V9.14265V9.96789H46.5373V9.14265ZM38.3293 9.14265L39.1469 9.25453L39.4589 6.97453L38.6413 6.86265L37.8237 6.75076L37.5117 9.03076L38.3293 9.14265ZM38.6413 6.86265V7.68789H46.8493V6.86265V6.03741H38.6413V6.86265ZM76.2474 22.7506V23.5759C76.6587 23.5759 77.0073 23.273 77.0646 22.8657L76.2474 22.7506ZM63.8874 22.7506L63.0703 22.635C63.0368 22.8717 63.1076 23.1113 63.2643 23.2918C63.4211 23.4722 63.6484 23.5759 63.8874 23.5759V22.7506ZM66.0714 7.31865L66.8885 7.43429C66.9064 7.3078 66.8947 7.17888 66.8543 7.05768L66.0714 7.31865ZM65.7594 6.38265V5.55741C65.4941 5.55741 65.245 5.68492 65.0899 5.90012C64.9348 6.11532 64.8926 6.39196 64.9765 6.64361L65.7594 6.38265ZM78.5514 6.38265L79.3686 6.49768C79.4019 6.26107 79.331 6.02165 79.1743 5.84131C79.0175 5.66096 78.7903 5.55741 78.5514 5.55741V6.38265ZM58.2234 11.4466L57.5285 11.0016C57.4639 11.1024 57.422 11.2161 57.4058 11.3348L58.2234 11.4466ZM61.3434 6.57465L62.0384 7.01969C62.2369 6.70973 62.2061 6.30578 61.9629 6.02947L61.3434 6.57465ZM60.8154 5.97465V5.1494C60.4912 5.1494 60.197 5.33926 60.0634 5.63471C59.9299 5.93015 59.9817 6.27642 60.1959 6.51983L60.8154 5.97465ZM65.8314 5.97465L66.5264 6.41967C66.689 6.16567 66.7001 5.84316 66.5554 5.57856C66.4106 5.31395 66.133 5.1494 65.8314 5.1494V5.97465ZM62.3274 11.4466L61.6324 11.0016C61.4698 11.2556 61.4587 11.5781 61.6034 11.8427C61.7482 12.1073 62.0258 12.2719 62.3274 12.2719V11.4466ZM65.0634 11.4466L65.7584 11.8917C65.921 11.6377 65.9321 11.3152 65.7874 11.0506C65.6426 10.786 65.365 10.6214 65.0634 10.6214V11.4466ZM61.5594 16.9186L60.8644 16.4736C60.7018 16.7276 60.6907 17.0501 60.8354 17.3147C60.9802 17.5793 61.2578 17.7439 61.5594 17.7439V16.9186ZM64.2954 16.9186L65.113 17.0305C65.1453 16.7944 65.074 16.5557 64.9172 16.3761C64.7605 16.1965 64.5338 16.0934 64.2954 16.0934V16.9186ZM63.9834 19.1986V20.0239C64.3959 20.0239 64.7451 19.7193 64.801 19.3105L63.9834 19.1986ZM57.1434 19.1986L56.3258 19.0868C56.2935 19.3229 56.3649 19.5616 56.5216 19.7412C56.6783 19.9208 56.905 20.0239 57.1434 20.0239V19.1986ZM57.4554 16.9186L56.7624 16.4706C56.6967 16.5721 56.6542 16.6869 56.6378 16.8068L57.4554 16.9186ZM59.5194 13.7266L60.2124 14.1747C60.3765 13.9209 60.3887 13.5977 60.2443 13.3322C60.0998 13.0667 59.8217 12.9014 59.5194 12.9014V13.7266ZM57.9114 13.7266L57.0938 13.6148C57.0615 13.8509 57.1329 14.0896 57.2896 14.2692C57.4463 14.4488 57.673 14.5519 57.9114 14.5519V13.7266ZM63.5274 22.3906L63.5819 23.2141C63.9698 23.1884 64.2872 22.8955 64.3438 22.511L63.5274 22.3906ZM56.6394 22.8466L55.8218 22.7348C55.7882 22.9804 55.8668 23.2281 56.0358 23.4094C56.2049 23.5908 56.4465 23.6865 56.6939 23.6701L56.6394 22.8466ZM56.9514 20.5666L56.8971 19.7432C56.5059 19.769 56.1869 20.0664 56.1338 20.4548L56.9514 20.5666ZM63.8634 20.1106L64.6798 20.231C64.7162 19.9843 64.639 19.7343 64.4699 19.551C64.3008 19.3678 64.0579 19.2708 63.8091 19.2872L63.8634 20.1106ZM68.9994 20.5186V21.3439C69.4103 21.3439 69.7586 21.0416 69.8164 20.6348L68.9994 20.5186ZM69.7194 15.4546L70.5364 15.5708C70.5701 15.3341 70.4994 15.0943 70.3427 14.9137C70.1859 14.7331 69.9585 14.6294 69.7194 14.6294V15.4546ZM68.5914 15.4546V14.6294C68.1805 14.6294 67.8322 14.9317 67.7744 15.3385L68.5914 15.4546ZM67.8714 20.5186L67.0544 20.4025C67.0207 20.6392 67.0914 20.879 67.2482 21.0596C67.4049 21.2402 67.6323 21.3439 67.8714 21.3439V20.5186ZM73.2954 20.5186V21.3439C73.7063 21.3439 74.0546 21.0416 74.1124 20.6348L73.2954 20.5186ZM74.0154 15.4546L74.8324 15.5708C74.8661 15.3341 74.7954 15.0943 74.6387 14.9137C74.4819 14.7331 74.2545 14.6294 74.0154 14.6294V15.4546ZM72.9114 15.4546V14.6294C72.5005 14.6294 72.1522 14.9317 72.0944 15.3385L72.9114 15.4546ZM72.1914 20.5186L71.3744 20.4025C71.3407 20.6392 71.4114 20.879 71.5682 21.0596C71.7249 21.2402 71.9523 21.3439 72.1914 21.3439V20.5186ZM68.9034 13.1746L68.0866 13.0567C68.0524 13.2937 68.1228 13.5339 68.2796 13.7149C68.4363 13.8959 68.664 13.9999 68.9034 13.9999V13.1746ZM70.0314 13.1746V13.9999C70.4416 13.9999 70.7896 13.6986 70.8482 13.2926L70.0314 13.1746ZM70.6794 8.68665L71.4962 8.80458C71.5304 8.56759 71.46 8.32742 71.3032 8.14641C71.1465 7.96541 70.9189 7.86141 70.6794 7.86141V8.68665ZM69.5514 8.68665V7.86141C69.1412 7.86141 68.7933 8.16271 68.7346 8.56872L69.5514 8.68665ZM73.8714 8.68665V7.86141C73.4612 7.86141 73.1133 8.16271 73.0546 8.56872L73.8714 8.68665ZM73.2234 13.1746L72.4066 13.0567C72.3724 13.2937 72.4428 13.5339 72.5996 13.7149C72.7563 13.8959 72.984 13.9999 73.2234 13.9999V13.1746ZM74.3274 13.1746V13.9999C74.7376 13.9999 75.0856 13.6986 75.1442 13.2926L74.3274 13.1746ZM74.9754 8.68665L75.7922 8.80458C75.8264 8.56759 75.756 8.32742 75.5992 8.14641C75.4425 7.96541 75.2149 7.86141 74.9754 7.86141V8.68665ZM76.2474 22.7506V21.9254H63.8874V22.7506V23.5759H76.2474V22.7506ZM63.8874 22.7506L64.7045 22.8663L66.8885 7.43429L66.0714 7.31865L65.2543 7.20301L63.0703 22.635L63.8874 22.7506ZM66.0714 7.31865L66.8543 7.05768L66.5423 6.12168L65.7594 6.38265L64.9765 6.64361L65.2885 7.57961L66.0714 7.31865ZM65.7594 6.38265V7.20789H78.5514V6.38265V5.55741H65.7594V6.38265ZM78.5514 6.38265L77.7342 6.26762L75.4302 22.6356L76.2474 22.7506L77.0646 22.8657L79.3686 6.49768L78.5514 6.38265ZM58.2234 11.4466L58.9184 11.8917L62.0384 7.01969L61.3434 6.57465L60.6485 6.1296L57.5285 11.0016L58.2234 11.4466ZM61.3434 6.57465L61.9629 6.02947L61.4349 5.42947L60.8154 5.97465L60.1959 6.51983L60.7239 7.11983L61.3434 6.57465ZM60.8154 5.97465V6.79989H65.8314V5.97465V5.1494H60.8154V5.97465ZM65.8314 5.97465L65.1364 5.52962L61.6324 11.0016L62.3274 11.4466L63.0224 11.8917L66.5264 6.41967L65.8314 5.97465ZM62.3274 11.4466V12.2719H65.0634V11.4466V10.6214H62.3274V11.4466ZM65.0634 11.4466L64.3684 11.0016L60.8644 16.4736L61.5594 16.9186L62.2544 17.3637L65.7584 11.8917L65.0634 11.4466ZM61.5594 16.9186V17.7439H64.2954V16.9186V16.0934H61.5594V16.9186ZM64.2954 16.9186L63.4778 16.8068L63.1658 19.0868L63.9834 19.1986L64.801 19.3105L65.113 17.0305L64.2954 16.9186ZM63.9834 19.1986V18.3734H57.1434V19.1986V20.0239H63.9834V19.1986ZM57.1434 19.1986L57.961 19.3105L58.273 17.0305L57.4554 16.9186L56.6378 16.8068L56.3258 19.0868L57.1434 19.1986ZM57.4554 16.9186L58.1484 17.3667L60.2124 14.1747L59.5194 13.7266L58.8264 13.2786L56.7624 16.4706L57.4554 16.9186ZM59.5194 13.7266V12.9014H57.9114V13.7266V14.5519H59.5194V13.7266ZM57.9114 13.7266L58.729 13.8385L59.041 11.5585L58.2234 11.4466L57.4058 11.3348L57.0938 13.6148L57.9114 13.7266ZM63.5274 22.3906L63.4729 21.5672L56.5849 22.0232L56.6394 22.8466L56.6939 23.6701L63.5819 23.2141L63.5274 22.3906ZM56.6394 22.8466L57.457 22.9585L57.769 20.6785L56.9514 20.5666L56.1338 20.4548L55.8218 22.7348L56.6394 22.8466ZM56.9514 20.5666L57.0057 21.3901L63.9177 20.9341L63.8634 20.1106L63.8091 19.2872L56.8971 19.7432L56.9514 20.5666ZM63.8634 20.1106L63.047 19.9903L62.711 22.2703L63.5274 22.3906L64.3438 22.511L64.6798 20.231L63.8634 20.1106ZM68.9994 20.5186L69.8164 20.6348L70.5364 15.5708L69.7194 15.4546L68.9024 15.3385L68.1824 20.4025L68.9994 20.5186ZM69.7194 15.4546V14.6294H68.5914V15.4546V16.2799H69.7194V15.4546ZM68.5914 15.4546L67.7744 15.3385L67.0544 20.4025L67.8714 20.5186L68.6884 20.6348L69.4084 15.5708L68.5914 15.4546ZM67.8714 20.5186V21.3439H68.9994V20.5186V19.6934H67.8714V20.5186ZM73.2954 20.5186L74.1124 20.6348L74.8324 15.5708L74.0154 15.4546L73.1984 15.3385L72.4784 20.4025L73.2954 20.5186ZM74.0154 15.4546V14.6294H72.9114V15.4546V16.2799H74.0154V15.4546ZM72.9114 15.4546L72.0944 15.3385L71.3744 20.4025L72.1914 20.5186L73.0084 20.6348L73.7284 15.5708L72.9114 15.4546ZM72.1914 20.5186V21.3439H73.2954V20.5186V19.6934H72.1914V20.5186ZM68.9034 13.1746V13.9999H70.0314V13.1746V12.3494H68.9034V13.1746ZM70.0314 13.1746L70.8482 13.2926L71.4962 8.80458L70.6794 8.68665L69.8626 8.56872L69.2146 13.0567L70.0314 13.1746ZM70.6794 8.68665V7.86141H69.5514V8.68665V9.51189H70.6794V8.68665ZM69.5514 8.68665L68.7346 8.56872L68.0866 13.0567L68.9034 13.1746L69.7202 13.2926L70.3682 8.80458L69.5514 8.68665ZM73.8714 8.68665L73.0546 8.56872L72.4066 13.0567L73.2234 13.1746L74.0402 13.2926L74.6882 8.80458L73.8714 8.68665ZM73.2234 13.1746V13.9999H74.3274V13.1746V12.3494H73.2234V13.1746ZM74.3274 13.1746L75.1442 13.2926L75.7922 8.80458L74.9754 8.68665L74.1586 8.56872L73.5106 13.0567L74.3274 13.1746ZM74.9754 8.68665V7.86141H73.8714V8.68665V9.51189H74.9754V8.68665ZM90.6215 6.43065L91.4387 6.54606C91.4721 6.30941 91.4013 6.06989 91.2445 5.88945C91.0878 5.70902 90.8605 5.6054 90.6215 5.6054V6.43065ZM88.8215 19.1746V19.9999C89.2327 19.9999 89.5812 19.6972 89.6387 19.2901L88.8215 19.1746ZM86.8535 19.1746L86.1111 19.5349C86.2491 19.8193 86.5374 19.9999 86.8535 19.9999V19.1746ZM86.0615 17.5426L85.2444 17.4272C85.2215 17.5897 85.2475 17.7553 85.3191 17.9029L86.0615 17.5426ZM87.3095 8.71065L88.1267 8.82611C88.1601 8.58945 88.0893 8.34992 87.9326 8.16947C87.7758 7.98903 87.5485 7.88541 87.3095 7.88541V8.71065ZM82.5815 8.71065V7.88541C82.1704 7.88541 81.8219 8.18807 81.7644 8.59518L82.5815 8.71065ZM81.3335 17.5426L81.9798 18.0559C82.0711 17.9408 82.1301 17.8035 82.1507 17.6581L81.3335 17.5426ZM80.0375 19.1746V19.9999C80.2893 19.9999 80.5272 19.885 80.6838 19.6879L80.0375 19.1746ZM78.0935 19.1746L77.2764 19.0592C77.243 19.2959 77.3138 19.5354 77.4705 19.7158C77.6273 19.8963 77.8545 19.9999 78.0935 19.9999V19.1746ZM79.8935 6.43065V5.6054C79.4824 5.6054 79.1339 5.9081 79.0764 6.31523L79.8935 6.43065ZM99.0695 5.99865L99.8868 6.11307C99.9199 5.87654 99.8489 5.63728 99.6922 5.45707C99.5355 5.27687 99.3084 5.1734 99.0695 5.1734V5.99865ZM96.8855 21.5986L97.7025 21.7154L97.7028 21.7131L96.8855 21.5986ZM96.2375 22.7266L96.7631 23.3629V23.3629L96.2375 22.7266ZM91.3895 23.1826L90.7727 22.6344C90.5568 22.8773 90.5036 23.2243 90.6367 23.5207C90.7698 23.8172 91.0646 24.0079 91.3895 24.0079V23.1826ZM93.5015 20.8066L94.1183 21.3549C94.2265 21.2332 94.2963 21.0821 94.3188 20.9208L93.5015 20.8066ZM95.4695 6.71865L96.2868 6.83282C96.3182 6.60808 96.2557 6.38032 96.1139 6.20312L95.4695 6.71865ZM94.8935 5.99865V5.1734C94.5763 5.1734 94.2872 5.35524 94.1497 5.64116C94.0123 5.92708 94.051 6.26646 94.2491 6.51417L94.8935 5.99865ZM86.2775 9.57465L87.0946 9.69066C87.1282 9.45393 87.0575 9.21425 86.9007 9.03368C86.744 8.85312 86.5166 8.74941 86.2775 8.74941V9.57465ZM85.1495 17.5186L84.3325 17.4026C84.3063 17.5872 84.3434 17.7753 84.4377 17.9361L85.1495 17.5186ZM88.4855 23.2066V24.0319C88.7814 24.0319 89.0546 23.8735 89.2016 23.6168C89.3487 23.3601 89.347 23.0443 89.1974 22.7892L88.4855 23.2066ZM84.9575 23.2066L84.2169 23.5707C84.3557 23.853 84.6429 24.0319 84.9575 24.0319V23.2066ZM83.5655 20.3746L84.3061 20.0106C84.1824 19.7589 83.9393 19.5873 83.6607 19.5549C83.3821 19.5226 83.1061 19.6339 82.928 19.8506L83.5655 20.3746ZM81.2375 23.2066V24.0319C81.4844 24.0319 81.7183 23.9214 81.875 23.7307L81.2375 23.2066ZM77.8775 23.2066L77.224 22.7027C77.0319 22.9518 76.9982 23.2884 77.137 23.5707C77.2757 23.853 77.563 24.0319 77.8775 24.0319V23.2066ZM82.2455 17.5426L82.899 18.0466C82.9862 17.9335 83.0426 17.7997 83.0626 17.6583L82.2455 17.5426ZM83.3735 9.57465V8.74941C82.9625 8.74941 82.6141 9.05195 82.5564 9.45897L83.3735 9.57465ZM94.4855 7.53465L95.3027 7.64946C95.336 7.41289 95.2651 7.17352 95.1083 6.99323C94.9516 6.81293 94.7244 6.7094 94.4855 6.7094V7.53465ZM92.8535 19.1506V19.9759C93.2649 19.9759 93.6135 19.6729 93.6708 19.2655L92.8535 19.1506ZM89.7095 19.1506L88.8923 19.0358C88.8591 19.2724 88.93 19.5118 89.0867 19.6921C89.2435 19.8724 89.4706 19.9759 89.7095 19.9759V19.1506ZM91.3415 7.53465V6.7094C90.9301 6.7094 90.5816 7.01242 90.5243 7.41983L91.3415 7.53465ZM90.6215 6.43065L89.8044 6.31523L88.0044 19.0592L88.8215 19.1746L89.6387 19.2901L91.4387 6.54606L90.6215 6.43065ZM88.8215 19.1746V18.3494H86.8535V19.1746V19.9999H88.8215V19.1746ZM86.8535 19.1746L87.596 18.8143L86.804 17.1823L86.0615 17.5426L85.3191 17.9029L86.1111 19.5349L86.8535 19.1746ZM86.0615 17.5426L86.8787 17.6581L88.1267 8.82611L87.3095 8.71065L86.4924 8.59518L85.2444 17.4272L86.0615 17.5426ZM87.3095 8.71065V7.88541H82.5815V8.71065V9.53589H87.3095V8.71065ZM82.5815 8.71065L81.7644 8.59518L80.5164 17.4272L81.3335 17.5426L82.1507 17.6581L83.3987 8.82611L82.5815 8.71065ZM81.3335 17.5426L80.6873 17.0294L79.3913 18.6614L80.0375 19.1746L80.6838 19.6879L81.9798 18.0559L81.3335 17.5426ZM80.0375 19.1746V18.3494H78.0935V19.1746V19.9999H80.0375V19.1746ZM78.0935 19.1746L78.9107 19.2901L80.7107 6.54606L79.8935 6.43065L79.0764 6.31523L77.2764 19.0592L78.0935 19.1746ZM79.8935 6.43065V7.25589H90.6215V6.43065V5.6054H79.8935V6.43065ZM99.0695 5.99865L98.2523 5.88423L96.0683 21.4842L96.8855 21.5986L97.7028 21.7131L99.8868 6.11307L99.0695 5.99865ZM96.8855 21.5986L96.0686 21.4819C96.0353 21.7147 95.931 21.9094 95.712 22.0904L96.2375 22.7266L96.7631 23.3629C97.28 22.9359 97.6077 22.3786 97.7025 21.7154L96.8855 21.5986ZM96.2375 22.7266L95.712 22.0904C95.4814 22.2809 95.2566 22.3574 95.0135 22.3574V23.1826V24.0079C95.6665 24.0079 96.2577 23.7804 96.7631 23.3629L96.2375 22.7266ZM95.0135 23.1826V22.3574H91.3895V23.1826V24.0079H95.0135V23.1826ZM91.3895 23.1826L92.0063 23.7309L94.1183 21.3549L93.5015 20.8066L92.8847 20.2584L90.7727 22.6344L91.3895 23.1826ZM93.5015 20.8066L94.3188 20.9208L96.2868 6.83282L95.4695 6.71865L94.6522 6.60448L92.6842 20.6925L93.5015 20.8066ZM95.4695 6.71865L96.1139 6.20312L95.5379 5.48312L94.8935 5.99865L94.2491 6.51417L94.8251 7.23417L95.4695 6.71865ZM94.8935 5.99865V6.82389H99.0695V5.99865V5.1734H94.8935V5.99865ZM86.2775 9.57465L85.4605 9.45863L84.3325 17.4026L85.1495 17.5186L85.9666 17.6347L87.0946 9.69066L86.2775 9.57465ZM85.1495 17.5186L84.4377 17.9361L87.7737 23.6241L88.4855 23.2066L89.1974 22.7892L85.8614 17.1012L85.1495 17.5186ZM88.4855 23.2066V22.3814H84.9575V23.2066V24.0319H88.4855V23.2066ZM84.9575 23.2066L85.6982 22.8426L84.3061 20.0106L83.5655 20.3746L82.8249 20.7387L84.2169 23.5707L84.9575 23.2066ZM83.5655 20.3746L82.928 19.8506L80.6 22.6826L81.2375 23.2066L81.875 23.7307L84.203 20.8987L83.5655 20.3746ZM81.2375 23.2066V22.3814H77.8775V23.2066V24.0319H81.2375V23.2066ZM77.8775 23.2066L78.531 23.7106L82.899 18.0466L82.2455 17.5426L81.592 17.0387L77.224 22.7027L77.8775 23.2066ZM82.2455 17.5426L83.0626 17.6583L84.1906 9.69032L83.3735 9.57465L82.5564 9.45897L81.4284 17.427L82.2455 17.5426ZM83.3735 9.57465V10.3999H86.2775V9.57465V8.74941H83.3735V9.57465ZM94.4855 7.53465L93.6683 7.41983L92.0363 19.0358L92.8535 19.1506L93.6708 19.2655L95.3027 7.64946L94.4855 7.53465ZM92.8535 19.1506V18.3254H89.7095V19.1506V19.9759H92.8535V19.1506ZM89.7095 19.1506L90.5267 19.2655L92.1588 7.64946L91.3415 7.53465L90.5243 7.41983L88.8923 19.0358L89.7095 19.1506ZM91.3415 7.53465V8.35989H94.4855V7.53465V6.7094H91.3415V7.53465Z" fill="white" mask="url(#path-5-outside-2_1_20550)"/>
<path d="M81.6453 19.4348C82.2151 19.3611 82.8137 19.3665 83.322 19.593C83.5945 19.7145 83.8607 19.9085 84.0535 20.1995C84.2475 20.4923 84.3217 20.8135 84.321 21.1106C84.3196 21.6617 84.0657 22.1559 83.8113 22.5227L83.8093 22.5237C84.7292 22.4997 85.9397 22.1083 87.3484 20.9026C87.8152 20.5031 88.5182 20.5579 88.9177 21.0247C89.3171 21.4914 89.2622 22.1934 88.7957 22.593C86.1381 24.8677 83.5608 25.1292 81.7478 24.3733C80.0059 25.4699 77.4635 26.3325 74.7078 25.97C74.0987 25.8897 73.6697 25.331 73.7498 24.7219C73.8299 24.1128 74.3887 23.684 74.9978 23.7639C76.8271 24.0046 78.5693 23.5446 79.8982 22.8684C79.6588 22.4834 79.5044 22.0471 79.4988 21.5813C79.4923 21.0392 79.6941 20.5035 80.1257 20.0959C80.5381 19.7066 81.0796 19.508 81.6453 19.4348Z" fill="#F9C854" stroke="white" stroke-width="0.825243" stroke-linecap="round"/>
<defs>
<filter id="filter0_ii_1_20550" x="0" y="-2.76997" width="31.2745" height="32.1674" filterUnits="userSpaceOnUse" color-interpolation-filters="sRGB">
<feFlood flood-opacity="0" result="BackgroundImageFix"/>
<feBlend mode="normal" in="SourceGraphic" in2="BackgroundImageFix" result="shape"/>
<feColorMatrix in="SourceAlpha" type="matrix" values="0 0 0 0 0 0 0 0 0 0 0 0 0 0 0 0 0 0 127 0" result="hardAlpha"/>
<feOffset dx="6.2279" dy="-2.76997"/>
<feGaussianBlur stdDeviation="2.28522"/>
<feComposite in2="hardAlpha" operator="arithmetic" k2="-1" k3="1"/>
<feColorMatrix type="matrix" values="0 0 0 0 0.992157 0 0 0 0 0.741176 0 0 0 0 0.247059 0 0 0 1 0"/>
<feBlend mode="normal" in2="shape" result="effect1_innerShadow_1_20550"/>
<feColorMatrix in="SourceAlpha" type="matrix" values="0 0 0 0 0 0 0 0 0 0 0 0 0 0 0 0 0 0 127 0" result="hardAlpha"/>
<feOffset dx="1.38498" dy="1.38498"/>
<feGaussianBlur stdDeviation="1.40128"/>
<feComposite in2="hardAlpha" operator="arithmetic" k2="-1" k3="1"/>
<feColorMatrix type="matrix" values="0 0 0 0 1 0 0 0 0 1 0 0 0 0 1 0 0 0 0.5 0"/>
<feBlend mode="normal" in2="effect1_innerShadow_1_20550" result="effect2_innerShadow_1_20550"/>
</filter>
<linearGradient id="paint0_linear_1_20550" x1="10.2286" y1="24.0651" x2="18.5231" y2="9.32219" gradientUnits="userSpaceOnUse">
<stop stop-color="#FFD786"/>
<stop offset="1" stop-color="#FFE4AA"/>
</linearGradient>
<radialGradient id="paint1_radial_1_20550" cx="0" cy="0" r="1" gradientUnits="userSpaceOnUse" gradientTransform="translate(9.99753 9.60964) rotate(86.9586) scale(1.27475 1.1704)">
<stop stop-color="#FDBF44"/>
<stop offset="0.519911" stop-color="#FDBF44"/>
<stop offset="0.795664" stop-color="#FDD877"/>
</radialGradient>
<radialGradient id="paint2_radial_1_20550" cx="0" cy="0" r="1" gradientUnits="userSpaceOnUse" gradientTransform="translate(12.5325 18.509) rotate(-104.351) scale(1.5 1.3772)">
<stop stop-color="#FDBF44"/>
<stop offset="0.519911" stop-color="#FDBF44"/>
<stop offset="0.795664" stop-color="#FDD877"/>
</radialGradient>
<radialGradient id="paint3_radial_1_20550" cx="0" cy="0" r="1" gradientUnits="userSpaceOnUse" gradientTransform="translate(8.26285 13.9243) rotate(-40.9164) scale(2.23607 2.05302)">
<stop stop-color="#FDBF44"/>
<stop offset="0.519911" stop-color="#FDBF44"/>
<stop offset="0.795664" stop-color="#FDD877"/>
</radialGradient>
</defs>
</svg>
