<svg width="35" height="82" viewBox="0 0 35 82" fill="none" xmlns="http://www.w3.org/2000/svg">
<path d="M34.3819 80.0979H32.9649V81.0979H30.1319V80.0979H27.2989V81.0979H24.4649V80.0979H21.6319V81.0979H18.7989V80.0979H15.9649V81.0979H13.1319V80.0979H10.2989V81.0979H7.4649V80.0979H4.6319V81.0979H1.79889V80.0979H0.381897V17.0979C0.381897 13.7842 3.06819 11.0979 6.3819 11.0979H34.3819V80.0979Z" fill="url(#paint0_linear_1_18937)"/>
<path opacity="0.2" d="M31.3819 80.0979H28.3819V77.0979H31.3819V80.0979ZM34.3819 77.0979H31.3819V74.0979H34.3819V77.0979ZM31.3819 74.0979H28.3819V71.0979H31.3819V74.0979ZM34.3819 71.0979H31.3819V68.0979H34.3819V71.0979ZM31.3819 68.0979H28.3819V65.0979H31.3819V68.0979ZM34.3819 65.0979H31.3819V62.0979H34.3819V65.0979ZM31.3819 62.0979H28.3819V59.0979H31.3819V62.0979ZM34.3819 59.0979H31.3819V56.0979H34.3819V59.0979ZM31.3819 56.0979H28.3819V53.0979H31.3819V56.0979ZM34.3819 53.0979H31.3819V50.0979H34.3819V53.0979ZM31.3819 50.0979H28.3819V47.0979H31.3819V50.0979ZM34.3819 47.0979H31.3819V44.0979H34.3819V47.0979ZM31.3819 44.0979H28.3819V41.0979H31.3819V44.0979ZM34.3819 41.0979H31.3819V38.0979H34.3819V41.0979ZM31.3819 38.0979H28.3819V35.0979H31.3819V38.0979ZM34.3819 35.0979H31.3819V32.0979H34.3819V35.0979ZM31.3819 32.0979H28.3819V29.0979H31.3819V32.0979ZM34.3819 29.0979H31.3819V26.0979H34.3819V29.0979ZM31.3819 26.0979H28.3819V23.0979H31.3819V26.0979ZM34.3819 23.0979H31.3819V20.0979H34.3819V23.0979ZM31.3819 20.0979H28.3819V17.0979H31.3819V20.0979ZM34.3819 17.0979H31.3819V14.0979H34.3819V17.0979ZM31.3819 14.0979H28.3819V11.0979H31.3819V14.0979Z" fill="white"/>
<g filter="url(#filter0_i_1_18937)">
<path d="M11.2134 12.8343L7.77428 2.93643C7.0853 0.953508 4.91929 -0.0954349 2.93637 0.593551C0.953445 1.28254 -0.0954957 3.44855 0.59349 5.43147L6.0743 21.2054C6.61102 22.7501 8.29838 23.5673 9.8431 23.0305C11.3878 22.4938 12.205 20.8064 11.6682 19.2617L7.40522 6.99265C7.01206 5.8611 5.77603 5.26253 4.64448 5.65569C3.51293 6.04886 2.91436 7.28489 3.30753 8.41644L5.52885 14.8095" stroke="white" stroke-width="0.763605" stroke-linecap="round"/>
</g>
<g filter="url(#filter1_d_1_18937)">
<path d="M18.4859 36.6739H20.4219V41.0419C20.4219 41.5859 20.5019 41.6499 21.0299 41.6499C21.2699 41.6499 22.1979 41.6499 22.4859 41.6499C23.0139 41.6499 23.1099 41.3299 23.1739 39.0739C23.5739 39.4099 24.4219 39.7299 24.9339 39.8579C24.7419 42.7219 24.2459 43.4739 22.6619 43.4739C22.2939 43.4739 21.0939 43.4739 20.7419 43.4739C18.9339 43.4739 18.4859 42.8659 18.4859 41.0579V36.6739ZM14.2299 36.7379H16.2619C16.0219 40.0819 15.3179 42.3539 10.9499 43.5699C10.7419 43.0579 10.2459 42.2739 9.8299 41.8899C13.6379 40.9779 14.0219 39.3139 14.2299 36.7379ZM18.7739 32.8979L20.3739 31.9539C21.7659 33.1539 23.5259 34.8659 24.3419 36.0819L22.5979 37.1699C21.8779 35.9699 20.1979 34.1619 18.7739 32.8979ZM14.6779 31.3139L16.7899 31.9059C16.0859 33.2979 15.2539 34.8179 14.5979 35.7939L12.9819 35.2339C13.5899 34.1619 14.3099 32.5299 14.6779 31.3139ZM10.8699 34.4659C13.7659 34.4019 18.2619 34.2579 22.3899 34.1299L22.3099 35.9059C18.2619 36.1459 13.8619 36.3379 10.9339 36.4339L10.8699 34.4659ZM10.3579 30.2259H24.4059V32.0339H10.3579V30.2259ZM16.3579 28.5139H18.3259V31.2339H16.3579V28.5139ZM14.7259 49.9699H24.5019V51.6179H14.7259V49.9699ZM14.0219 61.6339H24.8539V63.2339H14.0219V61.6339ZM15.4139 52.7219H23.6379V61.9219H21.8779V54.1139H17.1099V61.9219H15.4139V52.7219ZM16.6779 54.9939H22.1819V56.3219H16.6779V54.9939ZM16.6459 57.2179H22.5979V58.4979H16.6459V57.2179ZM16.5979 59.4099H22.2139V60.7219H16.5979V59.4099ZM18.7419 48.5459L20.7739 48.6099C20.5019 50.3059 20.1019 52.1779 19.7499 53.3459L18.0859 53.2179C18.3739 51.9539 18.6459 49.9859 18.7419 48.5459ZM13.1579 48.5619L14.9179 49.1219C13.9259 51.8419 12.3579 54.7379 10.6939 56.5779C10.5179 56.0979 10.0059 55.0419 9.7019 54.5779C11.0779 53.1059 12.3739 50.8499 13.1579 48.5619ZM11.5739 53.0099L13.3499 51.1859V51.2019V63.5219H11.5739V53.0099Z" fill="white"/>
</g>
<defs>
<filter id="filter0_i_1_18937" x="0" y="0" width="12.215" height="24.0332" filterUnits="userSpaceOnUse" color-interpolation-filters="sRGB">
<feFlood flood-opacity="0" result="BackgroundImageFix"/>
<feBlend mode="normal" in="SourceGraphic" in2="BackgroundImageFix" result="shape"/>
<feColorMatrix in="SourceAlpha" type="matrix" values="0 0 0 0 0 0 0 0 0 0 0 0 0 0 0 0 0 0 127 0" result="hardAlpha"/>
<feOffset dy="0.455902"/>
<feGaussianBlur stdDeviation="0.455902"/>
<feComposite in2="hardAlpha" operator="arithmetic" k2="-1" k3="1"/>
<feColorMatrix type="matrix" values="0 0 0 0 1 0 0 0 0 1 0 0 0 0 1 0 0 0 1 0"/>
<feBlend mode="normal" in2="shape" result="effect1_innerShadow_1_18937"/>
</filter>
<filter id="filter1_d_1_18937" x="9.7019" y="28.5139" width="15.232" height="35.7079" filterUnits="userSpaceOnUse" color-interpolation-filters="sRGB">
<feFlood flood-opacity="0" result="BackgroundImageFix"/>
<feColorMatrix in="SourceAlpha" type="matrix" values="0 0 0 0 0 0 0 0 0 0 0 0 0 0 0 0 0 0 127 0" result="hardAlpha"/>
<feOffset dy="0.7"/>
<feComposite in2="hardAlpha" operator="out"/>
<feColorMatrix type="matrix" values="0 0 0 0 0.401899 0 0 0 0 0.2 0 0 0 0 0.75 0 0 0 1 0"/>
<feBlend mode="normal" in2="BackgroundImageFix" result="effect1_dropShadow_1_18937"/>
<feBlend mode="normal" in="SourceGraphic" in2="effect1_dropShadow_1_18937" result="shape"/>
</filter>
<linearGradient id="paint0_linear_1_18937" x1="17.3819" y1="11.0979" x2="17.3819" y2="81.0979" gradientUnits="userSpaceOnUse">
<stop stop-color="#985DFF"/>
<stop offset="1" stop-color="#C2A8EE"/>
</linearGradient>
</defs>
</svg>
