<svg width="27" height="112" viewBox="0 0 27 112" fill="none" xmlns="http://www.w3.org/2000/svg">
<g filter="url(#filter0_ii_1_23287)">
<path d="M2.51022 93.9375C11.8641 67.9335 6.77972 35.3283 1.70199 17.4652C0.7657 14.1713 1.8205 10.5906 4.52817 8.49432L12.4336 2.37396C13.9857 1.17239 16.2564 1.76344 16.972 3.59114C33.0873 44.7511 24.473 88.0209 16.9129 108C16.2287 109.809 14.0136 110.397 12.4609 109.245L5.27173 103.911C2.20706 101.637 1.21857 97.5283 2.51022 93.9375Z" fill="#FC8AA3"/>
<path d="M2.51022 93.9375C11.8641 67.9335 6.77972 35.3283 1.70199 17.4652C0.7657 14.1713 1.8205 10.5906 4.52817 8.49432L12.4336 2.37396C13.9857 1.17239 16.2564 1.76344 16.972 3.59114C33.0873 44.7511 24.473 88.0209 16.9129 108C16.2287 109.809 14.0136 110.397 12.4609 109.245L5.27173 103.911C2.20706 101.637 1.21857 97.5283 2.51022 93.9375Z" fill="url(#paint0_linear_1_23287)"/>
</g>
<g filter="url(#filter1_i_1_23287)">
<circle cx="13.5" cy="12" r="2.5" fill="#FC8AA3"/>
<circle cx="13.5" cy="12" r="2.5" fill="white" fill-opacity="0.4"/>
<circle cx="13.5" cy="12" r="2.5" fill="url(#paint1_radial_1_23287)"/>
</g>
<g filter="url(#filter2_i_1_23287)">
<path d="M13.5002 10.5715C13.6975 10.5715 13.8576 10.7317 13.8576 10.929V11.6428H14.5715C14.7687 11.6428 14.9288 11.8031 14.9289 12.0002C14.9289 12.1975 14.7687 12.3577 14.5715 12.3577H13.8576V13.0715C13.8576 13.2688 13.6975 13.429 13.5002 13.429C13.303 13.4289 13.1428 13.2687 13.1428 13.0715V12.3577H12.4289C12.2317 12.3576 12.0715 12.1975 12.0715 12.0002C12.0716 11.8031 12.2318 11.6429 12.4289 11.6428H13.1428V10.929C13.1428 10.7318 13.303 10.5716 13.5002 10.5715Z" fill="#FC8AA3"/>
<path d="M13.5002 10.5715C13.6975 10.5715 13.8576 10.7317 13.8576 10.929V11.6428H14.5715C14.7687 11.6428 14.9288 11.8031 14.9289 12.0002C14.9289 12.1975 14.7687 12.3577 14.5715 12.3577H13.8576V13.0715C13.8576 13.2688 13.6975 13.429 13.5002 13.429C13.303 13.4289 13.1428 13.2687 13.1428 13.0715V12.3577H12.4289C12.2317 12.3576 12.0715 12.1975 12.0715 12.0002C12.0716 11.8031 12.2318 11.6429 12.4289 11.6428H13.1428V10.929C13.1428 10.7318 13.303 10.5716 13.5002 10.5715Z" fill="white" fill-opacity="0.4"/>
</g>
<g filter="url(#filter3_i_1_23287)">
<circle cx="13.5" cy="99" r="2.5" fill="#FC8AA3"/>
<circle cx="13.5" cy="99" r="2.5" fill="white" fill-opacity="0.4"/>
<circle cx="13.5" cy="99" r="2.5" fill="url(#paint2_radial_1_23287)"/>
</g>
<g filter="url(#filter4_i_1_23287)">
<path d="M13.5002 97.5715C13.6975 97.5715 13.8576 97.7317 13.8576 97.929V98.6428H14.5715C14.7687 98.6428 14.9288 98.8031 14.9289 99.0002C14.9289 99.1975 14.7687 99.3577 14.5715 99.3577H13.8576V100.072C13.8576 100.269 13.6975 100.429 13.5002 100.429C13.303 100.429 13.1428 100.269 13.1428 100.072V99.3577H12.4289C12.2317 99.3576 12.0715 99.1975 12.0715 99.0002C12.0716 98.8031 12.2318 98.6429 12.4289 98.6428H13.1428V97.929C13.1428 97.7318 13.303 97.5716 13.5002 97.5715Z" fill="#FC8AA3"/>
<path d="M13.5002 97.5715C13.6975 97.5715 13.8576 97.7317 13.8576 97.929V98.6428H14.5715C14.7687 98.6428 14.9288 98.8031 14.9289 99.0002C14.9289 99.1975 14.7687 99.3577 14.5715 99.3577H13.8576V100.072C13.8576 100.269 13.6975 100.429 13.5002 100.429C13.303 100.429 13.1428 100.269 13.1428 100.072V99.3577H12.4289C12.2317 99.3576 12.0715 99.1975 12.0715 99.0002C12.0716 98.8031 12.2318 98.6429 12.4289 98.6428H13.1428V97.929C13.1428 97.7318 13.303 97.5716 13.5002 97.5715Z" fill="white" fill-opacity="0.4"/>
</g>
<g filter="url(#filter5_i_1_23287)">
<rect x="16" y="65" width="5" height="6" rx="2.5" transform="rotate(-90 16 65)" fill="#FC8AA3"/>
<rect x="16" y="65" width="5" height="6" rx="2.5" transform="rotate(-90 16 65)" fill="white" fill-opacity="0.5"/>
</g>
<rect x="16.3125" y="64.6875" width="4.375" height="5.375" rx="2.1875" transform="rotate(-90 16.3125 64.6875)" stroke="#FC8AA3" stroke-width="0.625"/>
<rect x="16.3125" y="64.6875" width="4.375" height="5.375" rx="2.1875" transform="rotate(-90 16.3125 64.6875)" stroke="white" stroke-opacity="0.9" stroke-width="0.625"/>
<g filter="url(#filter6_i_1_23287)">
<rect x="14" y="56.25" width="5" height="10" rx="2.5" transform="rotate(-90 14 56.25)" fill="#FC8AA3"/>
<rect x="14" y="56.25" width="5" height="10" rx="2.5" transform="rotate(-90 14 56.25)" fill="white" fill-opacity="0.5"/>
</g>
<rect x="14.3125" y="55.9375" width="4.375" height="9.375" rx="2.1875" transform="rotate(-90 14.3125 55.9375)" stroke="#FC8AA3" stroke-width="0.625"/>
<rect x="14.3125" y="55.9375" width="4.375" height="9.375" rx="2.1875" transform="rotate(-90 14.3125 55.9375)" stroke="white" stroke-opacity="0.9" stroke-width="0.625"/>
<g filter="url(#filter7_i_1_23287)">
<rect x="16" y="47.5" width="5" height="6" rx="2.5" transform="rotate(-90 16 47.5)" fill="#FC8AA3"/>
<rect x="16" y="47.5" width="5" height="6" rx="2.5" transform="rotate(-90 16 47.5)" fill="white" fill-opacity="0.5"/>
</g>
<rect x="16.3125" y="47.1875" width="4.375" height="5.375" rx="2.1875" transform="rotate(-90 16.3125 47.1875)" stroke="#FC8AA3" stroke-width="0.625"/>
<rect x="16.3125" y="47.1875" width="4.375" height="5.375" rx="2.1875" transform="rotate(-90 16.3125 47.1875)" stroke="white" stroke-opacity="0.9" stroke-width="0.625"/>
<defs>
<filter id="filter0_ii_1_23287" x="-2.43275" y="1.74719" width="29.0341" height="108.09" filterUnits="userSpaceOnUse" color-interpolation-filters="sRGB">
<feFlood flood-opacity="0" result="BackgroundImageFix"/>
<feBlend mode="normal" in="SourceGraphic" in2="BackgroundImageFix" result="shape"/>
<feColorMatrix in="SourceAlpha" type="matrix" values="0 0 0 0 0 0 0 0 0 0 0 0 0 0 0 0 0 0 127 0" result="hardAlpha"/>
<feOffset dx="-4"/>
<feGaussianBlur stdDeviation="1.9"/>
<feComposite in2="hardAlpha" operator="arithmetic" k2="-1" k3="1"/>
<feColorMatrix type="matrix" values="0 0 0 0 1 0 0 0 0 1 0 0 0 0 1 0 0 0 0.8 0"/>
<feBlend mode="normal" in2="shape" result="effect1_innerShadow_1_23287"/>
<feColorMatrix in="SourceAlpha" type="matrix" values="0 0 0 0 0 0 0 0 0 0 0 0 0 0 0 0 0 0 127 0" result="hardAlpha"/>
<feOffset dx="1"/>
<feGaussianBlur stdDeviation="0.25"/>
<feComposite in2="hardAlpha" operator="arithmetic" k2="-1" k3="1"/>
<feColorMatrix type="matrix" values="0 0 0 0 1 0 0 0 0 1 0 0 0 0 1 0 0 0 0.6 0"/>
<feBlend mode="normal" in2="effect1_innerShadow_1_23287" result="effect2_innerShadow_1_23287"/>
</filter>
<filter id="filter1_i_1_23287" x="11" y="9.00002" width="5" height="5.49998" filterUnits="userSpaceOnUse" color-interpolation-filters="sRGB">
<feFlood flood-opacity="0" result="BackgroundImageFix"/>
<feBlend mode="normal" in="SourceGraphic" in2="BackgroundImageFix" result="shape"/>
<feColorMatrix in="SourceAlpha" type="matrix" values="0 0 0 0 0 0 0 0 0 0 0 0 0 0 0 0 0 0 127 0" result="hardAlpha"/>
<feOffset dy="-0.499985"/>
<feGaussianBlur stdDeviation="0.25"/>
<feComposite in2="hardAlpha" operator="arithmetic" k2="-1" k3="1"/>
<feColorMatrix type="matrix" values="0 0 0 0 0 0 0 0 0 0 0 0 0 0 0 0 0 0 0.15 0"/>
<feBlend mode="normal" in2="shape" result="effect1_innerShadow_1_23287"/>
</filter>
<filter id="filter2_i_1_23287" x="12.0715" y="10.5715" width="3.00027" height="2.85742" filterUnits="userSpaceOnUse" color-interpolation-filters="sRGB">
<feFlood flood-opacity="0" result="BackgroundImageFix"/>
<feBlend mode="normal" in="SourceGraphic" in2="BackgroundImageFix" result="shape"/>
<feColorMatrix in="SourceAlpha" type="matrix" values="0 0 0 0 0 0 0 0 0 0 0 0 0 0 0 0 0 0 127 0" result="hardAlpha"/>
<feOffset dx="0.142853"/>
<feGaussianBlur stdDeviation="0.10714"/>
<feComposite in2="hardAlpha" operator="arithmetic" k2="-1" k3="1"/>
<feColorMatrix type="matrix" values="0 0 0 0 0 0 0 0 0 0 0 0 0 0 0 0 0 0 0.3 0"/>
<feBlend mode="normal" in2="shape" result="effect1_innerShadow_1_23287"/>
</filter>
<filter id="filter3_i_1_23287" x="11" y="96" width="5" height="5.49998" filterUnits="userSpaceOnUse" color-interpolation-filters="sRGB">
<feFlood flood-opacity="0" result="BackgroundImageFix"/>
<feBlend mode="normal" in="SourceGraphic" in2="BackgroundImageFix" result="shape"/>
<feColorMatrix in="SourceAlpha" type="matrix" values="0 0 0 0 0 0 0 0 0 0 0 0 0 0 0 0 0 0 127 0" result="hardAlpha"/>
<feOffset dy="-0.499985"/>
<feGaussianBlur stdDeviation="0.25"/>
<feComposite in2="hardAlpha" operator="arithmetic" k2="-1" k3="1"/>
<feColorMatrix type="matrix" values="0 0 0 0 0 0 0 0 0 0 0 0 0 0 0 0 0 0 0.15 0"/>
<feBlend mode="normal" in2="shape" result="effect1_innerShadow_1_23287"/>
</filter>
<filter id="filter4_i_1_23287" x="12.0715" y="97.5715" width="3.00027" height="2.85742" filterUnits="userSpaceOnUse" color-interpolation-filters="sRGB">
<feFlood flood-opacity="0" result="BackgroundImageFix"/>
<feBlend mode="normal" in="SourceGraphic" in2="BackgroundImageFix" result="shape"/>
<feColorMatrix in="SourceAlpha" type="matrix" values="0 0 0 0 0 0 0 0 0 0 0 0 0 0 0 0 0 0 127 0" result="hardAlpha"/>
<feOffset dx="0.142853"/>
<feGaussianBlur stdDeviation="0.10714"/>
<feComposite in2="hardAlpha" operator="arithmetic" k2="-1" k3="1"/>
<feColorMatrix type="matrix" values="0 0 0 0 0 0 0 0 0 0 0 0 0 0 0 0 0 0 0.3 0"/>
<feBlend mode="normal" in2="shape" result="effect1_innerShadow_1_23287"/>
</filter>
<filter id="filter5_i_1_23287" x="16" y="60" width="6" height="6" filterUnits="userSpaceOnUse" color-interpolation-filters="sRGB">
<feFlood flood-opacity="0" result="BackgroundImageFix"/>
<feBlend mode="normal" in="SourceGraphic" in2="BackgroundImageFix" result="shape"/>
<feColorMatrix in="SourceAlpha" type="matrix" values="0 0 0 0 0 0 0 0 0 0 0 0 0 0 0 0 0 0 127 0" result="hardAlpha"/>
<feOffset dy="1"/>
<feGaussianBlur stdDeviation="0.75"/>
<feComposite in2="hardAlpha" operator="arithmetic" k2="-1" k3="1"/>
<feColorMatrix type="matrix" values="0 0 0 0 0 0 0 0 0 0 0 0 0 0 0 0 0 0 0.2 0"/>
<feBlend mode="normal" in2="shape" result="effect1_innerShadow_1_23287"/>
</filter>
<filter id="filter6_i_1_23287" x="14" y="51.25" width="10" height="6" filterUnits="userSpaceOnUse" color-interpolation-filters="sRGB">
<feFlood flood-opacity="0" result="BackgroundImageFix"/>
<feBlend mode="normal" in="SourceGraphic" in2="BackgroundImageFix" result="shape"/>
<feColorMatrix in="SourceAlpha" type="matrix" values="0 0 0 0 0 0 0 0 0 0 0 0 0 0 0 0 0 0 127 0" result="hardAlpha"/>
<feOffset dy="1"/>
<feGaussianBlur stdDeviation="0.75"/>
<feComposite in2="hardAlpha" operator="arithmetic" k2="-1" k3="1"/>
<feColorMatrix type="matrix" values="0 0 0 0 0 0 0 0 0 0 0 0 0 0 0 0 0 0 0.2 0"/>
<feBlend mode="normal" in2="shape" result="effect1_innerShadow_1_23287"/>
</filter>
<filter id="filter7_i_1_23287" x="16" y="42.5" width="6" height="6" filterUnits="userSpaceOnUse" color-interpolation-filters="sRGB">
<feFlood flood-opacity="0" result="BackgroundImageFix"/>
<feBlend mode="normal" in="SourceGraphic" in2="BackgroundImageFix" result="shape"/>
<feColorMatrix in="SourceAlpha" type="matrix" values="0 0 0 0 0 0 0 0 0 0 0 0 0 0 0 0 0 0 127 0" result="hardAlpha"/>
<feOffset dy="1"/>
<feGaussianBlur stdDeviation="0.75"/>
<feComposite in2="hardAlpha" operator="arithmetic" k2="-1" k3="1"/>
<feColorMatrix type="matrix" values="0 0 0 0 0 0 0 0 0 0 0 0 0 0 0 0 0 0 0.2 0"/>
<feBlend mode="normal" in2="shape" result="effect1_innerShadow_1_23287"/>
</filter>
<linearGradient id="paint0_linear_1_23287" x1="13.0507" y1="0" x2="13.0507" y2="111.5" gradientUnits="userSpaceOnUse">
<stop stop-color="white" stop-opacity="0.8"/>
<stop offset="1" stop-color="white" stop-opacity="0.6"/>
</linearGradient>
<radialGradient id="paint1_radial_1_23287" cx="0" cy="0" r="1" gradientUnits="userSpaceOnUse" gradientTransform="translate(12.6667 11.1667) rotate(66.8014) scale(2.11549)">
<stop stop-color="white" stop-opacity="0.8"/>
<stop offset="0.528846" stop-color="white" stop-opacity="0.5"/>
<stop offset="0.947115" stop-color="white" stop-opacity="0"/>
</radialGradient>
<radialGradient id="paint2_radial_1_23287" cx="0" cy="0" r="1" gradientUnits="userSpaceOnUse" gradientTransform="translate(12.6667 98.1667) rotate(66.8014) scale(2.11549)">
<stop stop-color="white" stop-opacity="0.8"/>
<stop offset="0.528846" stop-color="white" stop-opacity="0.5"/>
<stop offset="0.947115" stop-color="white" stop-opacity="0"/>
</radialGradient>
</defs>
</svg>
