<svg width="6" height="6" viewBox="0 0 6 6" fill="none" xmlns="http://www.w3.org/2000/svg">
<g filter="url(#filter0_i_1_21616)">
<circle cx="2.75" cy="2.75" r="2.75" fill="#985DE9"/>
<circle cx="2.75" cy="2.75" r="2.75" fill="white" fill-opacity="0.4"/>
<circle cx="2.75" cy="2.75" r="2.75" fill="url(#paint0_radial_1_21616)"/>
</g>
<g filter="url(#filter1_i_1_21616)">
<path d="M2.75069 1.17847C2.96754 1.17861 3.14326 1.35416 3.14326 1.57105V2.3562H3.9294C4.14615 2.35646 4.32198 2.53294 4.32198 2.74976C4.32181 2.96643 4.14605 3.14208 3.9294 3.14233H3.14326V3.92847C3.14311 4.14522 2.96744 4.32091 2.75069 4.32105C2.53382 4.32105 2.35729 4.1453 2.35713 3.92847V3.14233H1.57198C1.35511 3.14233 1.17956 2.96658 1.1794 2.74976C1.1794 2.53279 1.35501 2.3562 1.57198 2.3562H2.35713V1.57105C2.35713 1.35408 2.53372 1.17847 2.75069 1.17847Z" fill="#985DE9"/>
<path d="M2.75069 1.17847C2.96754 1.17861 3.14326 1.35416 3.14326 1.57105V2.3562H3.9294C4.14615 2.35646 4.32198 2.53294 4.32198 2.74976C4.32181 2.96643 4.14605 3.14208 3.9294 3.14233H3.14326V3.92847C3.14311 4.14522 2.96744 4.32091 2.75069 4.32105C2.53382 4.32105 2.35729 4.1453 2.35713 3.92847V3.14233H1.57198C1.35511 3.14233 1.17956 2.96658 1.1794 2.74976C1.1794 2.53279 1.35501 2.3562 1.57198 2.3562H2.35713V1.57105C2.35713 1.35408 2.53372 1.17847 2.75069 1.17847Z" fill="white" fill-opacity="0.4"/>
</g>
<defs>
<filter id="filter0_i_1_21616" x="0" y="-0.549983" width="5.5" height="6.04998" filterUnits="userSpaceOnUse" color-interpolation-filters="sRGB">
<feFlood flood-opacity="0" result="BackgroundImageFix"/>
<feBlend mode="normal" in="SourceGraphic" in2="BackgroundImageFix" result="shape"/>
<feColorMatrix in="SourceAlpha" type="matrix" values="0 0 0 0 0 0 0 0 0 0 0 0 0 0 0 0 0 0 127 0" result="hardAlpha"/>
<feOffset dy="-0.549983"/>
<feGaussianBlur stdDeviation="0.275"/>
<feComposite in2="hardAlpha" operator="arithmetic" k2="-1" k3="1"/>
<feColorMatrix type="matrix" values="0 0 0 0 0 0 0 0 0 0 0 0 0 0 0 0 0 0 0.15 0"/>
<feBlend mode="normal" in2="shape" result="effect1_innerShadow_1_21616"/>
</filter>
<filter id="filter1_i_1_21616" x="1.1794" y="1.17847" width="3.29972" height="3.14258" filterUnits="userSpaceOnUse" color-interpolation-filters="sRGB">
<feFlood flood-opacity="0" result="BackgroundImageFix"/>
<feBlend mode="normal" in="SourceGraphic" in2="BackgroundImageFix" result="shape"/>
<feColorMatrix in="SourceAlpha" type="matrix" values="0 0 0 0 0 0 0 0 0 0 0 0 0 0 0 0 0 0 127 0" result="hardAlpha"/>
<feOffset dx="0.157138"/>
<feGaussianBlur stdDeviation="0.117854"/>
<feComposite in2="hardAlpha" operator="arithmetic" k2="-1" k3="1"/>
<feColorMatrix type="matrix" values="0 0 0 0 0 0 0 0 0 0 0 0 0 0 0 0 0 0 0.3 0"/>
<feBlend mode="normal" in2="shape" result="effect1_innerShadow_1_21616"/>
</filter>
<radialGradient id="paint0_radial_1_21616" cx="0" cy="0" r="1" gradientUnits="userSpaceOnUse" gradientTransform="translate(1.83333 1.83333) rotate(66.8014) scale(2.32704)">
<stop stop-color="white" stop-opacity="0.8"/>
<stop offset="0.528846" stop-color="white" stop-opacity="0.5"/>
<stop offset="0.947115" stop-color="white" stop-opacity="0"/>
</radialGradient>
</defs>
</svg>
