<svg width="390" height="647" viewBox="0 0 390 647" fill="none" xmlns="http://www.w3.org/2000/svg">
<g filter="url(#filter0_ii_1_18971)">
<path d="M-13.9999 171.516C-13.9999 160.496 -8.69438 150.15 0.25459 143.719L39.2787 115.675C48.1673 109.287 53.437 99.0106 53.437 88.0648V7C53.437 3.13401 56.5711 0 60.437 0H99.2186L195 0H290.782H339.563C343.429 0 346.563 3.13401 346.563 7V93.545C346.563 104.188 351.547 114.216 360.029 120.644L390.443 143.69C398.983 150.161 404 160.258 404 170.973L404 864H-14L-13.9999 171.516Z" fill="#81CCD1"/>
<path d="M-13.9999 171.516C-13.9999 160.496 -8.69438 150.15 0.25459 143.719L39.2787 115.675C48.1673 109.287 53.437 99.0106 53.437 88.0648V7C53.437 3.13401 56.5711 0 60.437 0H99.2186L195 0H290.782H339.563C343.429 0 346.563 3.13401 346.563 7V93.545C346.563 104.188 351.547 114.216 360.029 120.644L390.443 143.69C398.983 150.161 404 160.258 404 170.973L404 864H-14L-13.9999 171.516Z" fill="url(#paint0_linear_1_18971)"/>
</g>
<defs>
<filter id="filter0_ii_1_18971" x="-14" y="0" width="418" height="868" filterUnits="userSpaceOnUse" color-interpolation-filters="sRGB">
<feFlood flood-opacity="0" result="BackgroundImageFix"/>
<feBlend mode="normal" in="SourceGraphic" in2="BackgroundImageFix" result="shape"/>
<feColorMatrix in="SourceAlpha" type="matrix" values="0 0 0 0 0 0 0 0 0 0 0 0 0 0 0 0 0 0 127 0" result="hardAlpha"/>
<feOffset dy="4"/>
<feGaussianBlur stdDeviation="11.4"/>
<feComposite in2="hardAlpha" operator="arithmetic" k2="-1" k3="1"/>
<feColorMatrix type="matrix" values="0 0 0 0 1 0 0 0 0 1 0 0 0 0 1 0 0 0 1 0"/>
<feBlend mode="normal" in2="shape" result="effect1_innerShadow_1_18971"/>
<feColorMatrix in="SourceAlpha" type="matrix" values="0 0 0 0 0 0 0 0 0 0 0 0 0 0 0 0 0 0 127 0" result="hardAlpha"/>
<feOffset dy="3.91209"/>
<feGaussianBlur stdDeviation="2.9"/>
<feComposite in2="hardAlpha" operator="arithmetic" k2="-1" k3="1"/>
<feColorMatrix type="matrix" values="0 0 0 0 1 0 0 0 0 1 0 0 0 0 1 0 0 0 1 0"/>
<feBlend mode="normal" in2="effect1_innerShadow_1_18971" result="effect2_innerShadow_1_18971"/>
</filter>
<linearGradient id="paint0_linear_1_18971" x1="195" y1="0" x2="195" y2="864" gradientUnits="userSpaceOnUse">
<stop stop-color="white" stop-opacity="0.4"/>
<stop offset="0.15225" stop-color="white" stop-opacity="0.2"/>
<stop offset="0.169821" stop-color="white" stop-opacity="0.219388"/>
<stop offset="0.230745" stop-color="white" stop-opacity="0.7"/>
<stop offset="0.260451" stop-color="white" stop-opacity="0.3"/>
<stop offset="0.67134" stop-color="white" stop-opacity="0.4"/>
<stop offset="0.859178" stop-color="white" stop-opacity="0.5"/>
</linearGradient>
</defs>
</svg>
