<svg width="324" height="123" viewBox="0 0 324 123" fill="none" xmlns="http://www.w3.org/2000/svg">
<mask id="path-1-inside-1_1_23725" fill="white">
<path d="M0 95.0107C0 109.922 12.0883 122.011 27 122.011H297C311.912 122.011 324 109.922 324 95.0107V27C324 12.0883 311.912 0 297 0H27C12.0883 0 0 12.0883 0 27V95.0107Z"/>
</mask>
<path d="M0 95.0107C0 109.922 12.0883 122.011 27 122.011H297C311.912 122.011 324 109.922 324 95.0107V27C324 12.0883 311.912 0 297 0H27C12.0883 0 0 12.0883 0 27V95.0107Z" fill="#FC8AA3"/>
<path d="M0 95.0107C0 109.922 12.0883 122.011 27 122.011H297C311.912 122.011 324 109.922 324 95.0107V27C324 12.0883 311.912 0 297 0H27C12.0883 0 0 12.0883 0 27V95.0107Z" fill="url(#paint0_linear_1_23725)"/>
<path d="M27 122.011V121.011H297V122.011V123.011H27V122.011ZM324 95.0107H323V27H324H325V95.0107H324ZM297 0V1H27V0V-1H297V0ZM0 27H1V95.0107H0H-1V27H0ZM27 0V1C12.6406 1 1 12.6406 1 27H0H-1C-1 11.536 11.536 -1 27 -1V0ZM324 27H323C323 12.6406 311.359 1 297 1V0V-1C312.464 -1 325 11.536 325 27H324ZM297 122.011V121.011C311.359 121.011 323 109.37 323 95.0107H324H325C325 110.475 312.464 123.011 297 123.011V122.011ZM27 122.011V123.011C11.536 123.011 -1 110.475 -1 95.0107H0H1C1 109.37 12.6406 121.011 27 121.011V122.011Z" fill="white" fill-opacity="0.2" mask="url(#path-1-inside-1_1_23725)"/>
<defs>
<linearGradient id="paint0_linear_1_23725" x1="324" y1="61.0054" x2="0" y2="61.0054" gradientUnits="userSpaceOnUse">
<stop stop-color="white" stop-opacity="0.4"/>
<stop offset="1" stop-color="white" stop-opacity="0.6"/>
</linearGradient>
</defs>
</svg>
