<svg width="159" height="252" viewBox="0 0 159 252" fill="none" xmlns="http://www.w3.org/2000/svg">
<mask id="path-1-inside-1_1_23263" fill="white">
<path d="M71.2762 7.331C74.2781 -2.44367 84.5467 -2.44367 87.5486 7.331L141.43 182.661L158.149 237.085C159.259 240.705 158.946 244.63 157.571 247.738C156.149 250.955 152.419 252 148.901 252H9.90945C6.39407 252 2.66505 250.957 1.24501 247.741C-0.127388 244.633 -0.435884 240.709 0.675595 237.095L17.4022 182.661L71.2762 7.331Z"/>
</mask>
<g filter="url(#filter0_i_1_23263)">
<path d="M71.2762 7.331C74.2781 -2.44367 84.5467 -2.44367 87.5486 7.331L141.43 182.661L158.149 237.085C159.259 240.705 158.946 244.63 157.571 247.738C156.149 250.955 152.419 252 148.901 252H9.90945C6.39407 252 2.66505 250.957 1.24501 247.741C-0.127388 244.633 -0.435884 240.709 0.675595 237.095L17.4022 182.661L71.2762 7.331Z" fill="#FC8AA3"/>
<path d="M71.2762 7.331C74.2781 -2.44367 84.5467 -2.44367 87.5486 7.331L141.43 182.661L158.149 237.085C159.259 240.705 158.946 244.63 157.571 247.738C156.149 250.955 152.419 252 148.901 252H9.90945C6.39407 252 2.66505 250.957 1.24501 247.741C-0.127388 244.633 -0.435884 240.709 0.675595 237.095L17.4022 182.661L71.2762 7.331Z" fill="white" fill-opacity="0.1"/>
</g>
<path d="M71.2762 7.331L72.0532 7.56977L72.0533 7.56966L71.2762 7.331ZM87.5486 7.331L86.7716 7.56966L86.7716 7.5698L87.5486 7.331ZM141.43 182.661L142.207 182.422L142.207 182.422L141.43 182.661ZM158.149 237.085L158.926 236.847L158.926 236.846L158.149 237.085ZM0.675595 237.095L1.45258 237.334L1.45264 237.333L0.675595 237.095ZM17.4022 182.661L18.1792 182.9L18.1792 182.9L17.4022 182.661ZM1.24501 247.741L0.501385 248.069L1.24501 247.741ZM157.571 247.738L156.828 247.41L157.571 247.738ZM71.2762 7.331L72.0533 7.56966C73.4784 2.92917 76.5417 0.812901 79.4124 0.812901C82.2832 0.812901 85.3464 2.92917 86.7716 7.56966L87.5486 7.331L88.3257 7.09235C86.7489 1.95817 83.1769 -0.812901 79.4124 -0.812901C75.6479 -0.812901 72.0759 1.95817 70.4991 7.09235L71.2762 7.331ZM87.5486 7.331L86.7716 7.5698L140.652 182.9L141.43 182.661L142.207 182.422L88.3257 7.09221L87.5486 7.331ZM141.43 182.661L140.652 182.9L157.372 237.324L158.149 237.085L158.926 236.846L142.207 182.422L141.43 182.661ZM158.149 237.085L157.372 237.323C158.424 240.754 158.124 244.478 156.828 247.41L157.571 247.738L158.315 248.067C159.768 244.782 160.094 240.655 158.926 236.847L158.149 237.085ZM148.901 252V251.187H9.90945V252V252.813H148.901V252ZM1.24501 247.741L1.98864 247.412C0.694576 244.482 0.399095 240.759 1.45258 237.334L0.675595 237.095L-0.10139 236.856C-1.27086 240.658 -0.949351 244.784 0.501385 248.069L1.24501 247.741ZM0.675595 237.095L1.45264 237.333L18.1792 182.9L17.4022 182.661L16.6251 182.422L-0.101449 236.856L0.675595 237.095ZM17.4022 182.661L18.1792 182.9L72.0532 7.56977L71.2762 7.331L70.4991 7.09224L16.6251 182.422L17.4022 182.661ZM9.90945 252V251.187C6.46338 251.187 3.20057 250.157 1.98864 247.412L1.24501 247.741L0.501385 248.069C2.12953 251.756 6.32475 252.813 9.90945 252.813V252ZM157.571 247.738L156.828 247.41C155.614 250.156 152.349 251.187 148.901 251.187V252V252.813C152.488 252.813 156.684 251.755 158.315 248.067L157.571 247.738Z" fill="url(#paint0_linear_1_23263)" fill-opacity="0.5" mask="url(#path-1-inside-1_1_23263)"/>
<defs>
<filter id="filter0_i_1_23263" x="0" y="0" width="163.009" height="264" filterUnits="userSpaceOnUse" color-interpolation-filters="sRGB">
<feFlood flood-opacity="0" result="BackgroundImageFix"/>
<feBlend mode="normal" in="SourceGraphic" in2="BackgroundImageFix" result="shape"/>
<feColorMatrix in="SourceAlpha" type="matrix" values="0 0 0 0 0 0 0 0 0 0 0 0 0 0 0 0 0 0 127 0" result="hardAlpha"/>
<feOffset dx="4.18702" dy="12"/>
<feGaussianBlur stdDeviation="6.5"/>
<feComposite in2="hardAlpha" operator="arithmetic" k2="-1" k3="1"/>
<feColorMatrix type="matrix" values="0 0 0 0 1 0 0 0 0 1 0 0 0 0 1 0 0 0 1 0"/>
<feBlend mode="normal" in2="shape" result="effect1_innerShadow_1_23263"/>
</filter>
<linearGradient id="paint0_linear_1_23263" x1="164.086" y1="241.026" x2="-2.67374" y2="241.026" gradientUnits="userSpaceOnUse">
<stop stop-color="white"/>
<stop offset="0.153846" stop-color="white" stop-opacity="0"/>
<stop offset="0.865385" stop-color="white" stop-opacity="0"/>
<stop offset="1" stop-color="white"/>
</linearGradient>
</defs>
</svg>
