<svg width="370" height="132" viewBox="0 0 370 132" fill="none" xmlns="http://www.w3.org/2000/svg">
<mask id="path-1-inside-1_1_27318" fill="white">
<path d="M0 106C0 120.359 11.6406 132 26 132H344C358.359 132 370 120.359 370 106V26C370 11.6406 358.359 0 344 0H26C11.6406 0 0 11.6406 0 26V106Z"/>
</mask>
<path d="M0 106C0 120.359 11.6406 132 26 132H344C358.359 132 370 120.359 370 106V26C370 11.6406 358.359 0 344 0H26C11.6406 0 0 11.6406 0 26V106Z" fill="#9A41FE"/>
<path d="M0 106C0 120.359 11.6406 132 26 132H344C358.359 132 370 120.359 370 106V26C370 11.6406 358.359 0 344 0H26C11.6406 0 0 11.6406 0 26V106Z" fill="white" fill-opacity="0.9"/>
<path d="M0 106C0 120.359 11.6406 132 26 132H344C358.359 132 370 120.359 370 106V26C370 11.6406 358.359 0 344 0H26C11.6406 0 0 11.6406 0 26V106Z" fill="url(#paint0_linear_1_27318)" fill-opacity="0.07"/>
<path d="M26 132V131H344V132V133H26V132ZM370 106H369V26H370H371V106H370ZM344 0V1H26V0V-1H344V0ZM0 26H1V106H0H-1V26H0ZM26 0V1C12.1929 1 1 12.1929 1 26H0H-1C-1 11.0883 11.0883 -1 26 -1V0ZM370 26H369C369 12.1929 357.807 1 344 1V0V-1C358.912 -1 371 11.0883 371 26H370ZM344 132V131C357.807 131 369 119.807 369 106H370H371C371 120.912 358.912 133 344 133V132ZM26 132V133C11.0883 133 -1 120.912 -1 106H0H1C1 119.807 12.1929 131 26 131V132Z" fill="white" mask="url(#path-1-inside-1_1_27318)"/>
<defs>
<linearGradient id="paint0_linear_1_27318" x1="185" y1="0" x2="185" y2="33.5" gradientUnits="userSpaceOnUse">
<stop stop-color="#81CCD1"/>
<stop offset="1" stop-color="white" stop-opacity="0"/>
</linearGradient>
</defs>
</svg>
