<svg width="131" height="56" viewBox="0 0 131 56" fill="none" xmlns="http://www.w3.org/2000/svg">
<path d="M26.4716 0C22.0803 1.18397 18.8486 5.19259 18.8486 9.95801V10.9033H29.163V0H47.0976C42.7065 1.18408 39.4745 5.1927 39.4745 9.95801V10.9033H49.789V0H67.7265C63.335 1.18384 60.1025 5.19245 60.1025 9.95801V10.9033H70.4179V0H88.3593C83.9682 1.1841 80.7363 5.19273 80.7363 9.95801V10.9033H91.0507V0H108.99C104.599 1.18382 101.366 5.19243 101.366 9.95801V10.9033H111.682V0H129.616C125.225 1.18393 121.992 5.19254 121.992 9.95801V10.9033H130.818V22.2725C125.827 22.9942 121.992 27.2885 121.992 32.4795V33.4248H130.818V44.7939C125.827 45.5157 121.992 49.8092 121.992 55V55.5898H111.682V44.6855C105.985 44.6855 101.366 49.3034 101.366 55V55.5898H91.0507V44.6855C85.3543 44.6858 80.7364 49.3035 80.7363 55V55.5898H70.4179V44.6855C64.7213 44.6855 60.1026 49.3034 60.1025 55V55.5898H49.789V44.6855C44.0925 44.6857 39.4747 49.3035 39.4745 55V55.5898H29.163V44.6855C23.4664 44.6855 18.8487 49.3034 18.8486 55V55.5898H8.52922V44.6855C5.53573 44.6856 2.84119 45.9622 0.956955 47.999L0.666916 33.4248H8.52922V22.1641C5.29478 22.1641 2.40866 23.6538 0.517502 25.9834L0.217697 10.9033H8.52922V0H26.4716ZM18.8456 33.4248C13.1489 33.4248 8.5302 38.0435 8.5302 43.7402V44.6855H18.8456V33.4248ZM39.4755 33.4248C33.7788 33.4248 29.1601 38.0435 29.1601 43.7402V44.6855H39.4755V33.4248ZM60.1034 33.4248C54.4067 33.4248 49.789 38.0435 49.789 43.7402V44.6855H60.1034V33.4248ZM80.7333 33.4248C75.0366 33.4248 70.4189 38.0435 70.4189 43.7402V44.6855H80.7333V33.4248ZM101.365 33.4248C95.6684 33.4248 91.0507 38.0435 91.0507 43.7402V44.6855H101.365V33.4248ZM121.993 33.4248C116.296 33.4249 111.679 38.0436 111.679 43.7402V44.6855H121.993V33.4248ZM29.163 22.1641C23.4663 22.1641 18.8486 26.7828 18.8486 32.4795V33.4248H29.163V22.1641ZM49.789 22.1641C44.0924 22.1642 39.4745 26.7829 39.4745 32.4795V33.4248H49.789V22.1641ZM70.4179 22.1641C64.7212 22.1641 60.1025 26.7828 60.1025 32.4795V33.4248H70.4179V22.1641ZM91.0507 22.1641C85.3542 22.1643 80.7363 26.7829 80.7363 32.4795V33.4248H91.0507V22.1641ZM111.682 22.1641C105.985 22.1641 101.366 26.7828 101.366 32.4795V33.4248H111.682V22.1641ZM18.8456 10.9033C13.1489 10.9033 8.5302 15.522 8.5302 21.2188V22.1641H18.8456V10.9033ZM39.4755 10.9033C33.7788 10.9033 29.1601 15.522 29.1601 21.2188V22.1641H39.4755V10.9033ZM60.1034 10.9033C54.4067 10.9033 49.789 15.522 49.789 21.2188V22.1641H60.1034V10.9033ZM80.7333 10.9033C75.0366 10.9033 70.4189 15.522 70.4189 21.2188V22.1641H80.7333V10.9033ZM101.365 10.9033C95.6684 10.9033 91.0507 15.522 91.0507 21.2188V22.1641H101.365V10.9033ZM121.993 10.9033C116.296 10.9035 111.679 15.5221 111.679 21.2188V22.1641H121.993V10.9033ZM5.83781 0C3.47483 0.637142 1.44852 2.09167 0.0800018 4.04297L-7.62939e-05 0H5.83781Z" fill="url(#paint0_linear_1_20353)" fill-opacity="0.3"/>
<defs>
<linearGradient id="paint0_linear_1_20353" x1="148.841" y1="22.8607" x2="0.00224693" y2="27.864" gradientUnits="userSpaceOnUse">
<stop offset="0.165588" stop-color="white"/>
<stop offset="1" stop-color="white" stop-opacity="0"/>
</linearGradient>
</defs>
</svg>
