<svg width="27" height="29" viewBox="0 0 27 29" fill="none" xmlns="http://www.w3.org/2000/svg">
<mask id="path-1-outside-1_1_20570" maskUnits="userSpaceOnUse" x="-3.0305" y="-2.53352" width="32.3768" height="34.5396" fill="black">
<rect fill="white" x="-3.0305" y="-2.53352" width="32.3768" height="34.5396"/>
<path d="M10.7833 1.40896C15.1892 0.281717 19.6453 1.55172 22.7733 4.40152C21.367 4.01397 19.8443 3.97463 18.3299 4.36201C13.6917 5.54869 10.8935 10.271 12.0802 14.9092C13.2671 19.5471 17.9891 22.3445 22.6271 21.1579C23.7769 20.8637 24.8131 20.3518 25.704 19.6782C24.0917 22.9991 21.0859 25.6166 17.2293 26.6033C10.2721 28.3832 3.18917 24.1863 1.40916 17.2291C-0.370821 10.2719 3.82616 3.18903 10.7833 1.40896Z"/>
</mask>
<g filter="url(#filter0_ii_1_20570)">
<path d="M10.7833 1.40896C15.1892 0.281717 19.6453 1.55172 22.7733 4.40152C21.367 4.01397 19.8443 3.97463 18.3299 4.36201C13.6917 5.54869 10.8935 10.271 12.0802 14.9092C13.2671 19.5471 17.9891 22.3445 22.6271 21.1579C23.7769 20.8637 24.8131 20.3518 25.704 19.6782C24.0917 22.9991 21.0859 25.6166 17.2293 26.6033C10.2721 28.3832 3.18917 24.1863 1.40916 17.2291C-0.370821 10.2719 3.82616 3.18903 10.7833 1.40896Z" fill="#D9D9D9"/>
<path d="M10.7833 1.40896C15.1892 0.281717 19.6453 1.55172 22.7733 4.40152C21.367 4.01397 19.8443 3.97463 18.3299 4.36201C13.6917 5.54869 10.8935 10.271 12.0802 14.9092C13.2671 19.5471 17.9891 22.3445 22.6271 21.1579C23.7769 20.8637 24.8131 20.3518 25.704 19.6782C24.0917 22.9991 21.0859 25.6166 17.2293 26.6033C10.2721 28.3832 3.18917 24.1863 1.40916 17.2291C-0.370821 10.2719 3.82616 3.18903 10.7833 1.40896Z" fill="url(#paint0_linear_1_20570)"/>
<path d="M10.7833 1.40896C15.1892 0.281717 19.6453 1.55172 22.7733 4.40152C21.367 4.01397 19.8443 3.97463 18.3299 4.36201C13.6917 5.54869 10.8935 10.271 12.0802 14.9092C13.2671 19.5471 17.9891 22.3445 22.6271 21.1579C23.7769 20.8637 24.8131 20.3518 25.704 19.6782C24.0917 22.9991 21.0859 25.6166 17.2293 26.6033C10.2721 28.3832 3.18917 24.1863 1.40916 17.2291C-0.370821 10.2719 3.82616 3.18903 10.7833 1.40896Z" fill="url(#paint1_radial_1_20570)"/>
<path d="M10.7833 1.40896C15.1892 0.281717 19.6453 1.55172 22.7733 4.40152C21.367 4.01397 19.8443 3.97463 18.3299 4.36201C13.6917 5.54869 10.8935 10.271 12.0802 14.9092C13.2671 19.5471 17.9891 22.3445 22.6271 21.1579C23.7769 20.8637 24.8131 20.3518 25.704 19.6782C24.0917 22.9991 21.0859 25.6166 17.2293 26.6033C10.2721 28.3832 3.18917 24.1863 1.40916 17.2291C-0.370821 10.2719 3.82616 3.18903 10.7833 1.40896Z" fill="url(#paint2_radial_1_20570)" fill-opacity="0.6"/>
<path d="M10.7833 1.40896C15.1892 0.281717 19.6453 1.55172 22.7733 4.40152C21.367 4.01397 19.8443 3.97463 18.3299 4.36201C13.6917 5.54869 10.8935 10.271 12.0802 14.9092C13.2671 19.5471 17.9891 22.3445 22.6271 21.1579C23.7769 20.8637 24.8131 20.3518 25.704 19.6782C24.0917 22.9991 21.0859 25.6166 17.2293 26.6033C10.2721 28.3832 3.18917 24.1863 1.40916 17.2291C-0.370821 10.2719 3.82616 3.18903 10.7833 1.40896Z" fill="url(#paint3_radial_1_20570)" fill-opacity="0.5"/>
</g>
<path d="M10.7833 1.40896L10.5355 0.440164L10.5354 0.440166L10.7833 1.40896ZM22.7733 4.40152L22.5076 5.36558C22.9535 5.48849 23.4256 5.28947 23.649 4.88437C23.8723 4.47928 23.7887 3.97386 23.4467 3.66231L22.7733 4.40152ZM18.3299 4.36201L18.0821 3.3932L18.082 3.39322L18.3299 4.36201ZM12.0802 14.9092L11.1114 15.157L11.1114 15.1571L12.0802 14.9092ZM22.6271 21.1579L22.875 22.1267L22.875 22.1267L22.6271 21.1579ZM25.704 19.6782L26.6036 20.1149C26.8055 19.699 26.696 19.1989 26.3388 18.9055C25.9816 18.612 25.4697 18.6017 25.1009 18.8805L25.704 19.6782ZM17.2293 26.6033L17.4772 27.5721L17.4772 27.5721L17.2293 26.6033ZM1.40916 17.2291L0.440362 17.477L0.440363 17.477L1.40916 17.2291ZM10.7833 1.40896L11.0312 2.37775C15.0972 1.33746 19.2101 2.50802 22.0998 5.14074L22.7733 4.40152L23.4467 3.66231C20.0805 0.595433 15.2811 -0.774027 10.5355 0.440164L10.7833 1.40896ZM22.7733 4.40152L23.0389 3.43746C21.4702 3.00513 19.7704 2.96133 18.0821 3.3932L18.3299 4.36201L18.5777 5.33082C19.9182 4.98793 21.2638 5.02282 22.5076 5.36558L22.7733 4.40152ZM18.3299 4.36201L18.082 3.39322C12.9088 4.71679 9.78784 9.98383 11.1114 15.157L12.0802 14.9092L13.049 14.6613C11.9992 10.5582 14.4746 6.38059 18.5777 5.3308L18.3299 4.36201ZM12.0802 14.9092L11.1114 15.1571C12.4352 20.3301 17.702 23.4502 22.875 22.1267L22.6271 21.1579L22.3793 20.1891C18.2762 21.2389 14.0989 18.7641 13.049 14.6613L12.0802 14.9092ZM22.6271 21.1579L22.875 22.1267C24.156 21.7989 25.3125 21.2278 26.3071 20.4758L25.704 19.6782L25.1009 18.8805C24.3137 19.4757 23.3978 19.9285 22.3792 20.1891L22.6271 21.1579ZM25.704 19.6782L24.8044 19.2414C23.3148 22.3096 20.5407 24.7239 16.9814 25.6345L17.2293 26.6033L17.4772 27.5721C21.6311 26.5093 24.8686 23.6887 26.6036 20.1149L25.704 19.6782ZM17.2293 26.6033L16.9815 25.6345C10.5593 27.2775 4.02107 23.4034 2.37795 16.9813L1.40916 17.2291L0.440363 17.477C2.35727 24.9692 9.98493 29.4889 17.4772 27.5721L17.2293 26.6033ZM1.40916 17.2291L2.37795 16.9813C0.734866 10.5591 4.60908 4.02092 11.0312 2.37775L10.7833 1.40896L10.5354 0.440166C3.04325 2.35713 -1.47651 9.98474 0.440362 17.477L1.40916 17.2291Z" fill="white" mask="url(#path-1-outside-1_1_20570)"/>
<defs>
<filter id="filter0_ii_1_20570" x="0" y="-2.76997" width="31.2745" height="32.1673" filterUnits="userSpaceOnUse" color-interpolation-filters="sRGB">
<feFlood flood-opacity="0" result="BackgroundImageFix"/>
<feBlend mode="normal" in="SourceGraphic" in2="BackgroundImageFix" result="shape"/>
<feColorMatrix in="SourceAlpha" type="matrix" values="0 0 0 0 0 0 0 0 0 0 0 0 0 0 0 0 0 0 127 0" result="hardAlpha"/>
<feOffset dx="6.2279" dy="-2.76997"/>
<feGaussianBlur stdDeviation="2.28522"/>
<feComposite in2="hardAlpha" operator="arithmetic" k2="-1" k3="1"/>
<feColorMatrix type="matrix" values="0 0 0 0 0.992157 0 0 0 0 0.741176 0 0 0 0 0.247059 0 0 0 1 0"/>
<feBlend mode="normal" in2="shape" result="effect1_innerShadow_1_20570"/>
<feColorMatrix in="SourceAlpha" type="matrix" values="0 0 0 0 0 0 0 0 0 0 0 0 0 0 0 0 0 0 127 0" result="hardAlpha"/>
<feOffset dx="1.38498" dy="1.38498"/>
<feGaussianBlur stdDeviation="1.40128"/>
<feComposite in2="hardAlpha" operator="arithmetic" k2="-1" k3="1"/>
<feColorMatrix type="matrix" values="0 0 0 0 1 0 0 0 0 1 0 0 0 0 1 0 0 0 0.5 0"/>
<feBlend mode="normal" in2="effect1_innerShadow_1_20570" result="effect2_innerShadow_1_20570"/>
</filter>
<linearGradient id="paint0_linear_1_20570" x1="10.2286" y1="24.0651" x2="18.5231" y2="9.32219" gradientUnits="userSpaceOnUse">
<stop stop-color="#FFD786"/>
<stop offset="1" stop-color="#FFE4AA"/>
</linearGradient>
<radialGradient id="paint1_radial_1_20570" cx="0" cy="0" r="1" gradientUnits="userSpaceOnUse" gradientTransform="translate(9.99753 9.60964) rotate(86.9586) scale(1.27475 1.1704)">
<stop stop-color="#FDBF44"/>
<stop offset="0.519911" stop-color="#FDBF44"/>
<stop offset="0.795664" stop-color="#FDD877"/>
</radialGradient>
<radialGradient id="paint2_radial_1_20570" cx="0" cy="0" r="1" gradientUnits="userSpaceOnUse" gradientTransform="translate(12.5325 18.509) rotate(-104.351) scale(1.5 1.3772)">
<stop stop-color="#FDBF44"/>
<stop offset="0.519911" stop-color="#FDBF44"/>
<stop offset="0.795664" stop-color="#FDD877"/>
</radialGradient>
<radialGradient id="paint3_radial_1_20570" cx="0" cy="0" r="1" gradientUnits="userSpaceOnUse" gradientTransform="translate(8.26285 13.9243) rotate(-40.9164) scale(2.23607 2.05302)">
<stop stop-color="#FDBF44"/>
<stop offset="0.519911" stop-color="#FDBF44"/>
<stop offset="0.795664" stop-color="#FDD877"/>
</radialGradient>
</defs>
</svg>
