<svg width="370" height="192" viewBox="0 0 370 192" fill="none" xmlns="http://www.w3.org/2000/svg">
<mask id="path-1-inside-1_1_20527" fill="white">
<path d="M0 166C0 180.359 11.6406 192 26 192H344C358.359 192 370 180.359 370 166V26C370 11.6406 358.359 0 344 0H26C11.6406 0 0 11.6406 0 26V166Z"/>
</mask>
<path d="M0 166C0 180.359 11.6406 192 26 192H344C358.359 192 370 180.359 370 166V26C370 11.6406 358.359 0 344 0H26C11.6406 0 0 11.6406 0 26V166Z" fill="#81CCD1"/>
<path d="M0 166C0 180.359 11.6406 192 26 192H344C358.359 192 370 180.359 370 166V26C370 11.6406 358.359 0 344 0H26C11.6406 0 0 11.6406 0 26V166Z" fill="white" fill-opacity="0.9"/>
<path d="M0 166C0 180.359 11.6406 192 26 192H344C358.359 192 370 180.359 370 166V26C370 11.6406 358.359 0 344 0H26C11.6406 0 0 11.6406 0 26V166Z" fill="url(#paint0_linear_1_20527)" fill-opacity="0.07"/>
<path d="M26 192V191H344V192V193H26V192ZM370 166H369V26H370H371V166H370ZM344 0V1H26V0V-1H344V0ZM0 26H1V166H0H-1V26H0ZM26 0V1C12.1929 1 1 12.1929 1 26H0H-1C-1 11.0883 11.0883 -1 26 -1V0ZM370 26H369C369 12.1929 357.807 1 344 1V0V-1C358.912 -1 371 11.0883 371 26H370ZM344 192V191C357.807 191 369 179.807 369 166H370H371C371 180.912 358.912 193 344 193V192ZM26 192V193C11.0883 193 -1 180.912 -1 166H0H1C1 179.807 12.1929 191 26 191V192Z" fill="white" mask="url(#path-1-inside-1_1_20527)"/>
<defs>
<linearGradient id="paint0_linear_1_20527" x1="185" y1="0" x2="185" y2="48.7273" gradientUnits="userSpaceOnUse">
<stop stop-color="#81CCD1"/>
<stop offset="1" stop-color="white" stop-opacity="0"/>
</linearGradient>
</defs>
</svg>
