<svg width="247" height="127" viewBox="0 0 247 127" fill="none" xmlns="http://www.w3.org/2000/svg">
<path d="M-11.2008 0.188917C9.57233 -1.65948 28.3373 10.2381 34.1536 27.7163C37.9745 26.5539 41.9984 25.7616 46.1793 25.3896C66.082 23.6186 84.5287 31.8233 95.5038 45.5147C98.4484 44.6376 101.543 44.0353 104.756 43.7495C119.314 42.4541 132.886 47.9122 141.706 57.3092C151.411 52.8168 163.047 49.6905 175.736 48.5614C212.516 45.2887 244.211 60.0356 246.527 81.4998C248.843 102.964 220.905 123.017 184.124 126.29C163.114 128.159 143.766 124.146 130.603 116.362C125.417 119.11 119.511 120.912 113.144 121.479C102.296 122.444 91.9964 119.659 83.8013 114.29C76.1595 119.424 66.9387 122.808 56.79 123.711C26.8894 126.372 0.27506 106.518 -2.65499 79.3678C-2.70738 78.8822 -2.75165 78.3977 -2.78829 77.9142C-2.79627 77.9149 -2.80452 77.9166 -2.8125 77.9173C-26.4507 80.0204 -47.4909 64.3256 -49.8073 42.8615C-52.1235 21.3975 -34.8389 2.29241 -11.2008 0.188917Z" fill="url(#paint0_linear_1_18887)"/>
<defs>
<linearGradient id="paint0_linear_1_18887" x1="91.267" y1="42.0987" x2="88.5637" y2="112.245" gradientUnits="userSpaceOnUse">
<stop stop-color="#83DFCF"/>
<stop offset="1" stop-color="#ADFFF1" stop-opacity="0"/>
</linearGradient>
</defs>
</svg>
