<svg width="42" height="72" viewBox="0 0 42 72" fill="none" xmlns="http://www.w3.org/2000/svg">
<g filter="url(#filter0_diii_1_19946)">
<path d="M36.3667 18.0141C37.6766 19.5474 38.018 21.6854 37.2505 23.5502L20.9771 63.0854C20.9771 63.0854 20.9771 63.0854 20.9771 63.0854C20.9771 63.0856 20.9768 63.0857 20.9767 63.0855L4.70363 23.5512C3.93611 21.6863 4.27752 19.5484 5.58742 18.0151L20.977 0.000522614C20.977 0.000464916 20.9771 0.000392914 20.9771 0.000317574C20.9771 2.28882e-05 20.9774 -0.000112534 20.9776 0.00011158L36.3667 18.0141Z" fill="#81CCD1"/>
<path d="M36.3667 18.0141C37.6766 19.5474 38.018 21.6854 37.2505 23.5502L20.9771 63.0854C20.9771 63.0854 20.9771 63.0854 20.9771 63.0854C20.9771 63.0856 20.9768 63.0857 20.9767 63.0855L4.70363 23.5512C3.93611 21.6863 4.27752 19.5484 5.58742 18.0151L20.977 0.000522614C20.977 0.000464916 20.9771 0.000392914 20.9771 0.000317574C20.9771 2.28882e-05 20.9774 -0.000112534 20.9776 0.00011158L36.3667 18.0141Z" fill="url(#paint0_linear_1_19946)"/>
</g>
<defs>
<filter id="filter0_diii_1_19946" x="-4.29153e-06" y="0" width="41.9541" height="71.684" filterUnits="userSpaceOnUse" color-interpolation-filters="sRGB">
<feFlood flood-opacity="0" result="BackgroundImageFix"/>
<feColorMatrix in="SourceAlpha" type="matrix" values="0 0 0 0 0 0 0 0 0 0 0 0 0 0 0 0 0 0 127 0" result="hardAlpha"/>
<feOffset dy="4.2992"/>
<feGaussianBlur stdDeviation="2.1496"/>
<feComposite in2="hardAlpha" operator="out"/>
<feColorMatrix type="matrix" values="0 0 0 0 0 0 0 0 0 0 0 0 0 0 0 0 0 0 0.2 0"/>
<feBlend mode="normal" in2="BackgroundImageFix" result="effect1_dropShadow_1_19946"/>
<feBlend mode="normal" in="SourceGraphic" in2="effect1_dropShadow_1_19946" result="shape"/>
<feColorMatrix in="SourceAlpha" type="matrix" values="0 0 0 0 0 0 0 0 0 0 0 0 0 0 0 0 0 0 127 0" result="hardAlpha"/>
<feOffset dy="4.2992"/>
<feGaussianBlur stdDeviation="2.1496"/>
<feComposite in2="hardAlpha" operator="arithmetic" k2="-1" k3="1"/>
<feColorMatrix type="matrix" values="0 0 0 0 1 0 0 0 0 1 0 0 0 0 1 0 0 0 0.25 0"/>
<feBlend mode="normal" in2="shape" result="effect2_innerShadow_1_19946"/>
<feColorMatrix in="SourceAlpha" type="matrix" values="0 0 0 0 0 0 0 0 0 0 0 0 0 0 0 0 0 0 127 0" result="hardAlpha"/>
<feOffset dy="-2.1496"/>
<feComposite in2="hardAlpha" operator="arithmetic" k2="-1" k3="1"/>
<feColorMatrix type="matrix" values="0 0 0 0 0.603922 0 0 0 0 0.254902 0 0 0 0 0.996078 0 0 0 1 0"/>
<feBlend mode="normal" in2="effect2_innerShadow_1_19946" result="effect3_innerShadow_1_19946"/>
<feColorMatrix in="SourceAlpha" type="matrix" values="0 0 0 0 0 0 0 0 0 0 0 0 0 0 0 0 0 0 127 0" result="hardAlpha"/>
<feOffset dy="-2.1496"/>
<feComposite in2="hardAlpha" operator="arithmetic" k2="-1" k3="1"/>
<feColorMatrix type="matrix" values="0 0 0 0 1 0 0 0 0 1 0 0 0 0 1 0 0 0 0.8 0"/>
<feBlend mode="normal" in2="effect3_innerShadow_1_19946" result="effect4_innerShadow_1_19946"/>
</filter>
<linearGradient id="paint0_linear_1_19946" x1="4.29919" y1="23.8839" x2="38.5875" y2="24.135" gradientUnits="userSpaceOnUse">
<stop stop-color="white" stop-opacity="0.7"/>
<stop offset="0.476135" stop-color="white"/>
<stop offset="0.502976" stop-color="white" stop-opacity="0.7"/>
<stop offset="1" stop-color="white" stop-opacity="0.5"/>
</linearGradient>
</defs>
</svg>
