<svg width="42" height="63" viewBox="0 0 42 63" fill="none" xmlns="http://www.w3.org/2000/svg">
<g filter="url(#filter0_diii_1_30628)">
<path d="M36.3668 15.6958C37.6767 17.2292 38.0182 19.367 37.2506 21.2319L24.9527 51.1079C23.4913 54.6583 18.463 54.6583 17.0016 51.108L4.70369 21.2319C3.93604 19.367 4.27756 17.2292 5.58748 15.6958L17.7083 1.50679C19.4245 -0.502265 22.5298 -0.502264 24.246 1.50679L36.3668 15.6958Z" fill="#62B4FF"/>
<path d="M36.3668 15.6958C37.6767 17.2292 38.0182 19.367 37.2506 21.2319L24.9527 51.1079C23.4913 54.6583 18.463 54.6583 17.0016 51.108L4.70369 21.2319C3.93604 19.367 4.27756 17.2292 5.58748 15.6958L17.7083 1.50679C19.4245 -0.502265 22.5298 -0.502264 24.246 1.50679L36.3668 15.6958Z" fill="url(#paint0_linear_1_30628)"/>
</g>
<defs>
<filter id="filter0_diii_1_30628" x="-4.29153e-06" y="0" width="41.9542" height="62.3691" filterUnits="userSpaceOnUse" color-interpolation-filters="sRGB">
<feFlood flood-opacity="0" result="BackgroundImageFix"/>
<feColorMatrix in="SourceAlpha" type="matrix" values="0 0 0 0 0 0 0 0 0 0 0 0 0 0 0 0 0 0 127 0" result="hardAlpha"/>
<feOffset dy="4.2992"/>
<feGaussianBlur stdDeviation="2.1496"/>
<feComposite in2="hardAlpha" operator="out"/>
<feColorMatrix type="matrix" values="0 0 0 0 0 0 0 0 0 0 0 0 0 0 0 0 0 0 0.2 0"/>
<feBlend mode="normal" in2="BackgroundImageFix" result="effect1_dropShadow_1_30628"/>
<feBlend mode="normal" in="SourceGraphic" in2="effect1_dropShadow_1_30628" result="shape"/>
<feColorMatrix in="SourceAlpha" type="matrix" values="0 0 0 0 0 0 0 0 0 0 0 0 0 0 0 0 0 0 127 0" result="hardAlpha"/>
<feOffset dy="4.2992"/>
<feGaussianBlur stdDeviation="2.1496"/>
<feComposite in2="hardAlpha" operator="arithmetic" k2="-1" k3="1"/>
<feColorMatrix type="matrix" values="0 0 0 0 1 0 0 0 0 1 0 0 0 0 1 0 0 0 0.25 0"/>
<feBlend mode="normal" in2="shape" result="effect2_innerShadow_1_30628"/>
<feColorMatrix in="SourceAlpha" type="matrix" values="0 0 0 0 0 0 0 0 0 0 0 0 0 0 0 0 0 0 127 0" result="hardAlpha"/>
<feOffset dy="-2.1496"/>
<feComposite in2="hardAlpha" operator="arithmetic" k2="-1" k3="1"/>
<feColorMatrix type="matrix" values="0 0 0 0 0.603922 0 0 0 0 0.254902 0 0 0 0 0.996078 0 0 0 1 0"/>
<feBlend mode="normal" in2="effect2_innerShadow_1_30628" result="effect3_innerShadow_1_30628"/>
<feColorMatrix in="SourceAlpha" type="matrix" values="0 0 0 0 0 0 0 0 0 0 0 0 0 0 0 0 0 0 127 0" result="hardAlpha"/>
<feOffset dy="-2.1496"/>
<feComposite in2="hardAlpha" operator="arithmetic" k2="-1" k3="1"/>
<feColorMatrix type="matrix" values="0 0 0 0 1 0 0 0 0 1 0 0 0 0 1 0 0 0 0.8 0"/>
<feBlend mode="normal" in2="effect3_innerShadow_1_30628" result="effect4_innerShadow_1_30628"/>
</filter>
<linearGradient id="paint0_linear_1_30628" x1="4.29919" y1="20.3573" x2="38.587" y2="20.6519" gradientUnits="userSpaceOnUse">
<stop stop-color="white" stop-opacity="0.7"/>
<stop offset="0.476135" stop-color="white"/>
<stop offset="0.502976" stop-color="white" stop-opacity="0.7"/>
<stop offset="1" stop-color="white" stop-opacity="0.5"/>
</linearGradient>
</defs>
</svg>
