<svg width="177" height="38" viewBox="0 0 177 38" fill="none" xmlns="http://www.w3.org/2000/svg">
<g filter="url(#filter0_ii_1_21607)">
<path d="M88.2891 0.00384973C103.771 -0.142203 141.614 3.81816 174.467 20.3427C176.978 21.6062 177.305 25.0095 175.146 26.8095L165.529 34.8232C162.352 37.4706 157.886 37.87 154.13 36.1386C140.508 29.8586 115.217 21.2255 88.2891 21.2255C61.3607 21.2255 36.0704 29.8586 22.4482 36.1386C18.6926 37.87 14.2259 37.4706 11.0488 34.8232L1.43262 26.8095C-0.727041 25.0095 -0.400298 21.6062 2.11133 20.3427C34.9642 3.81816 72.8074 -0.142204 88.2891 0.00384973Z" fill="#985DE9"/>
<path d="M88.2891 0.00384973C103.771 -0.142203 141.614 3.81816 174.467 20.3427C176.978 21.6062 177.305 25.0095 175.146 26.8095L165.529 34.8232C162.352 37.4706 157.886 37.87 154.13 36.1386C140.508 29.8586 115.217 21.2255 88.2891 21.2255C61.3607 21.2255 36.0704 29.8586 22.4482 36.1386C18.6926 37.87 14.2259 37.4706 11.0488 34.8232L1.43262 26.8095C-0.727041 25.0095 -0.400298 21.6062 2.11133 20.3427C34.9642 3.81816 72.8074 -0.142204 88.2891 0.00384973Z" fill="url(#paint0_linear_1_21607)"/>
</g>
<defs>
<filter id="filter0_ii_1_21607" x="0" y="0" width="176.578" height="39.986" filterUnits="userSpaceOnUse" color-interpolation-filters="sRGB">
<feFlood flood-opacity="0" result="BackgroundImageFix"/>
<feBlend mode="normal" in="SourceGraphic" in2="BackgroundImageFix" result="shape"/>
<feColorMatrix in="SourceAlpha" type="matrix" values="0 0 0 0 0 0 0 0 0 0 0 0 0 0 0 0 0 0 127 0" result="hardAlpha"/>
<feOffset dy="3.80583"/>
<feGaussianBlur stdDeviation="1.4"/>
<feComposite in2="hardAlpha" operator="arithmetic" k2="-1" k3="1"/>
<feColorMatrix type="matrix" values="0 0 0 0 1 0 0 0 0 1 0 0 0 0 1 0 0 0 0.7 0"/>
<feBlend mode="normal" in2="shape" result="effect1_innerShadow_1_21607"/>
<feColorMatrix in="SourceAlpha" type="matrix" values="0 0 0 0 0 0 0 0 0 0 0 0 0 0 0 0 0 0 127 0" result="hardAlpha"/>
<feOffset dy="-1.90291"/>
<feComposite in2="hardAlpha" operator="arithmetic" k2="-1" k3="1"/>
<feColorMatrix type="matrix" values="0 0 0 0 1 0 0 0 0 1 0 0 0 0 1 0 0 0 0.5 0"/>
<feBlend mode="normal" in2="effect1_innerShadow_1_21607" result="effect2_innerShadow_1_21607"/>
</filter>
<linearGradient id="paint0_linear_1_21607" x1="88.2891" y1="0" x2="88.2891" y2="37.186" gradientUnits="userSpaceOnUse">
<stop stop-color="white" stop-opacity="0.8"/>
<stop offset="1" stop-color="white" stop-opacity="0.6"/>
</linearGradient>
</defs>
</svg>
