<svg width="179" height="86" viewBox="0 0 179 86" fill="none" xmlns="http://www.w3.org/2000/svg">
<path d="M136.185 0.281705C119.392 -1.48599 103.667 5.19923 94.1648 16.6218C91.6894 15.8398 89.0825 15.2887 86.3705 15.0032C75.3526 13.8435 64.9163 17.2866 57.3904 23.6528C53.1674 21.7391 48.4706 20.4382 43.4509 19.9099C21.8914 17.6404 2.53931 30.4822 0.227122 48.5931C-2.08507 66.704 13.5183 83.2252 35.0778 85.4947C46.8221 86.731 57.9108 83.4826 65.9473 77.3415C69.625 79.0081 73.6786 80.1335 77.9974 80.5881C87.15 81.5515 95.9006 79.3376 102.916 74.9117C109.291 79.3555 117.03 82.3407 125.593 83.2421C138.396 84.5897 150.577 81.023 159.855 74.1914C164.633 77.2262 170.285 79.2603 176.484 79.9128C196.429 82.0121 214.472 69.0325 216.784 50.9219C219.097 32.8111 204.802 16.4267 184.857 14.327C178.725 13.6815 172.774 14.4635 167.403 16.3793C160.093 7.71068 149.072 1.63836 136.185 0.281705Z" fill="url(#paint0_linear_1_18892)"/>
<defs>
<linearGradient id="paint0_linear_1_18892" x1="103.229" y1="29.4778" x2="113.1" y2="79.362" gradientUnits="userSpaceOnUse">
<stop stop-color="#83DFCF"/>
<stop offset="1" stop-color="#ADFFF1" stop-opacity="0"/>
</linearGradient>
</defs>
</svg>
