<svg width="35" height="46" viewBox="0 0 35 46" fill="none" xmlns="http://www.w3.org/2000/svg">
<g filter="url(#filter0_d_1_18916)">
<path d="M5.75654 38.591L21.7802 42.1562L11.8309 34.3967L13.5065 33.2432L4.60451 25.9031L1.0437 33.2432L9.21262 36.4938L5.75654 38.591Z" fill="#FFFEB8"/>
<path d="M5.75654 38.591L21.7802 42.1562L11.8309 34.3967L13.5065 33.2432L4.60451 25.9031L1.0437 33.2432L9.21262 36.4938L5.75654 38.591Z" fill="#E3FFF1"/>
<path d="M10.993 21.2892L32.0437 35.3404L21.7802 18.3532L25.341 16.7803L15.3917 1.15625L5.75654 9.545L16.9626 20.2407L10.993 21.2892Z" fill="#FFFEB8"/>
<path d="M10.993 21.2892L32.0437 35.3404L21.7802 18.3532L25.341 16.7803L15.3917 1.15625L5.75654 9.545L16.9626 20.2407L10.993 21.2892Z" fill="#E3FFF1"/>
<path d="M5.75654 38.591L21.7802 42.1562L11.8309 34.3967L13.5065 33.2432L4.60451 25.9031L1.0437 33.2432L9.21262 36.4938L5.75654 38.591Z" stroke="white" stroke-width="1.52441"/>
<path d="M10.993 21.2892L32.0437 35.3404L21.7802 18.3532L25.341 16.7803L15.3917 1.15625L5.75654 9.545L16.9626 20.2407L10.993 21.2892Z" stroke="white" stroke-width="1.52441"/>
</g>
<defs>
<filter id="filter0_d_1_18916" x="0" y="0" width="34.9827" height="45.1869" filterUnits="userSpaceOnUse" color-interpolation-filters="sRGB">
<feFlood flood-opacity="0" result="BackgroundImageFix"/>
<feColorMatrix in="SourceAlpha" type="matrix" values="0 0 0 0 0 0 0 0 0 0 0 0 0 0 0 0 0 0 127 0" result="hardAlpha"/>
<feOffset dx="2.28661" dy="2.28661"/>
<feComposite in2="hardAlpha" operator="out"/>
<feColorMatrix type="matrix" values="0 0 0 0 0.196078 0 0 0 0 0.623529 0 0 0 0 0.615686 0 0 0 1 0"/>
<feBlend mode="normal" in2="BackgroundImageFix" result="effect1_dropShadow_1_18916"/>
<feBlend mode="normal" in="SourceGraphic" in2="effect1_dropShadow_1_18916" result="shape"/>
</filter>
</defs>
</svg>
