<svg width="37" height="49" viewBox="0 0 37 49" fill="none" xmlns="http://www.w3.org/2000/svg">
<g filter="url(#filter0_d_1_18915)">
<path d="M29.173 37.7433L13.2748 45.6507L21.7055 34.9372L19.6465 34.1669L27.0866 24.1653L32.7321 30.9186L24.9994 36.4495L29.173 37.7433Z" fill="#FFFEB8"/>
<path d="M29.173 37.7433L13.2748 45.6507L21.7055 34.9372L19.6465 34.1669L27.0866 24.1653L32.7321 30.9186L24.9994 36.4495L29.173 37.7433Z" fill="#E3FFF1"/>
<path d="M19.1803 21.0022L0.727781 41.1931L7.09133 20.7413L2.94398 20.0234L9.33175 1.0799L21.6276 7.34723L12.64 21.4608L19.1803 21.0022Z" fill="#FFFEB8"/>
<path d="M19.1803 21.0022L0.727781 41.1931L7.09133 20.7413L2.94398 20.0234L9.33175 1.0799L21.6276 7.34723L12.64 21.4608L19.1803 21.0022Z" fill="#E3FFF1"/>
<path d="M29.173 37.7433L13.2748 45.6507L21.7055 34.9372L19.6465 34.1669L27.0866 24.1653L32.7321 30.9186L24.9994 36.4495L29.173 37.7433Z" stroke="white" stroke-width="1.52441"/>
<path d="M19.1803 21.0022L0.727781 41.1931L7.09133 20.7413L2.94398 20.0234L9.33175 1.0799L21.6276 7.34723L12.64 21.4608L19.1803 21.0022Z" stroke="white" stroke-width="1.52441"/>
</g>
<defs>
<filter id="filter0_d_1_18915" x="0" y="0" width="36.1307" height="48.6197" filterUnits="userSpaceOnUse" color-interpolation-filters="sRGB">
<feFlood flood-opacity="0" result="BackgroundImageFix"/>
<feColorMatrix in="SourceAlpha" type="matrix" values="0 0 0 0 0 0 0 0 0 0 0 0 0 0 0 0 0 0 127 0" result="hardAlpha"/>
<feOffset dx="2.28661" dy="2.28661"/>
<feComposite in2="hardAlpha" operator="out"/>
<feColorMatrix type="matrix" values="0 0 0 0 0.196078 0 0 0 0 0.623529 0 0 0 0 0.615686 0 0 0 1 0"/>
<feBlend mode="normal" in2="BackgroundImageFix" result="effect1_dropShadow_1_18915"/>
<feBlend mode="normal" in="SourceGraphic" in2="effect1_dropShadow_1_18915" result="shape"/>
</filter>
</defs>
</svg>
