<svg width="342" height="344" viewBox="0 0 342 344" fill="none" xmlns="http://www.w3.org/2000/svg">
<g filter="url(#filter0_ii_1_26658)">
<path d="M171 344C265.441 344 342 266.993 342 172C342 77.007 265.441 0 171 0C76.5593 0 0 77.007 0 172C0 266.993 76.5593 344 171 344Z" fill="#9A41FE"/>
<path d="M171 344C265.441 344 342 266.993 342 172C342 77.007 265.441 0 171 0C76.5593 0 0 77.007 0 172C0 266.993 76.5593 344 171 344Z" fill="url(#paint0_linear_1_26658)" fill-opacity="0.5"/>
</g>
<defs>
<filter id="filter0_ii_1_26658" x="0" y="-3.05781" width="344.062" height="350.151" filterUnits="userSpaceOnUse" color-interpolation-filters="sRGB">
<feFlood flood-opacity="0" result="BackgroundImageFix"/>
<feBlend mode="normal" in="SourceGraphic" in2="BackgroundImageFix" result="shape"/>
<feColorMatrix in="SourceAlpha" type="matrix" values="0 0 0 0 0 0 0 0 0 0 0 0 0 0 0 0 0 0 127 0" result="hardAlpha"/>
<feOffset dx="2.06211" dy="3.09317"/>
<feGaussianBlur stdDeviation="2.01056"/>
<feComposite in2="hardAlpha" operator="arithmetic" k2="-1" k3="1"/>
<feColorMatrix type="matrix" values="0 0 0 0 1 0 0 0 0 1 0 0 0 0 1 0 0 0 0.7 0"/>
<feBlend mode="normal" in2="shape" result="effect1_innerShadow_1_26658"/>
<feColorMatrix in="SourceAlpha" type="matrix" values="0 0 0 0 0 0 0 0 0 0 0 0 0 0 0 0 0 0 127 0" result="hardAlpha"/>
<feOffset dy="-3.05781"/>
<feGaussianBlur stdDeviation="1.70124"/>
<feComposite in2="hardAlpha" operator="arithmetic" k2="-1" k3="1"/>
<feColorMatrix type="matrix" values="0 0 0 0 1 0 0 0 0 1 0 0 0 0 1 0 0 0 0.7 0"/>
<feBlend mode="normal" in2="effect1_innerShadow_1_26658" result="effect2_innerShadow_1_26658"/>
</filter>
<linearGradient id="paint0_linear_1_26658" x1="280.313" y1="41.3119" x2="41.8351" y2="285.916" gradientUnits="userSpaceOnUse">
<stop offset="0.0435935" stop-color="white" stop-opacity="0.6"/>
<stop offset="0.235577" stop-color="white" stop-opacity="0.45"/>
<stop offset="0.495192" stop-color="white" stop-opacity="0.5"/>
<stop offset="0.75" stop-color="white" stop-opacity="0.4"/>
<stop offset="0.950484" stop-color="white" stop-opacity="0.6"/>
</linearGradient>
</defs>
</svg>
