<svg width="362" height="53" viewBox="0 0 362 53" fill="none" xmlns="http://www.w3.org/2000/svg">
<g clip-path="url(#clip0_1_5127)">
<path d="M169.929 36.8534C168.808 42.4625 163.883 46.5 158.162 46.5H7.40503C3.59064 46.5 0.744522 42.9874 1.53543 39.2559L6.63017 15.2191C7.7076 10.136 12.195 6.5 17.3911 6.5H161.362C168.935 6.5 174.614 13.4279 173.129 20.8534L169.929 36.8534Z" fill="url(#paint0_linear_1_5127)"/>
<path d="M57.06 20.62L56.68 20.04H63.6L61.8 32.86H55.34L57.06 20.62ZM64.62 19.78L64.2 19.28H67.44L66.88 21.06H73.06L72.8 22.96H69.54L69.24 24.96H72.34L72.08 26.84H68.94L68.66 28.7H72.1L71.84 30.6H68.36L67.88 33.68H64.44L66.38 22.96H66.26L65.76 24.58H63.1L64.62 19.78ZM59.54 31.06L60.08 27.24H58.76L58.22 31.06H59.54ZM59.02 25.36H60.34L60.84 21.84H59.52L59.02 25.36ZM89.7784 19.66L87.8584 33.34H73.4184L75.2384 20.42L74.5784 19.66H89.7784ZM84.3184 31.44L84.8984 27.26H78.0584L77.4784 31.44H84.3184ZM78.3384 25.36H85.1784L85.7184 21.56H78.8784L78.3384 25.36ZM102.997 32.1L104.457 21.76H96.1369L96.3969 19.86H107.817L106.057 32.32C106.004 32.7067 105.824 33.0267 105.517 33.28C105.224 33.52 104.89 33.64 104.517 33.64H101.277L102.997 32.1ZM94.8369 28.14L95.7769 24.78H98.0969L97.6369 26.4H99.1769L100.017 24.18H95.5169L95.7369 22.54H102.997L102.777 24.18L102.037 26.4H103.217L102.497 31.58C102.444 31.9267 102.277 32.2267 101.997 32.48C101.717 32.7333 101.404 32.86 101.057 32.86H95.7569L97.3569 31.38H100.217L100.677 28.14H94.8369ZM94.7969 22.5L93.2369 33.68H90.1569L91.7169 22.5H94.7969ZM100.157 29L99.9369 30.54H94.1969L94.4169 29H100.157ZM95.0169 19.66L95.0769 22.02H91.9969L91.9369 19.66H95.0169ZM115.195 26.5L115.575 23.66H110.275L110.535 21.76H113.235L112.335 19.92L111.615 19.28H115.435L116.655 21.76H118.815L120.695 19.28H124.175L122.215 21.76H124.975L124.715 23.66H119.375L118.995 26.5H125.075L124.815 28.4H119.155L124.435 33.68H119.875L116.615 30.44L112.655 33.68H107.715L114.515 28.4H108.855L109.115 26.5H115.195Z" fill="url(#paint1_linear_1_5127)"/>
<g filter="url(#filter0_i_1_5127)">
<path d="M188.054 9.30905C189.307 3.86074 194.157 0 199.748 0H349.925C357.639 0 363.349 7.17349 361.62 14.691L354.946 43.6909C353.693 49.1393 348.843 53 343.252 53H193.075C185.361 53 179.651 45.8265 181.38 38.309L188.054 9.30905Z" fill="url(#paint2_linear_1_5127)"/>
<path d="M188.054 9.30905C189.307 3.86074 194.157 0 199.748 0H349.925C357.639 0 363.349 7.17349 361.62 14.691L354.946 43.6909C353.693 49.1393 348.843 53 343.252 53H193.075C185.361 53 179.651 45.8265 181.38 38.309L188.054 9.30905Z" fill="url(#paint3_radial_1_5127)" fill-opacity="0.4"/>
</g>
<path d="M199.748 1.15039H349.925C356.899 1.15039 362.063 7.63575 360.499 14.4326L353.826 43.4326C352.693 48.3588 348.307 51.8496 343.252 51.8496H193.075C186.101 51.8496 180.937 45.3642 182.501 38.5674L189.174 9.56738C190.307 4.6412 194.693 1.15039 199.748 1.15039Z" stroke="#F46D00" stroke-width="2.3"/>
<g filter="url(#filter1_i_1_5127)">
<path d="M199.748 1H349.925C356.996 1 362.23 7.57579 360.645 14.4668L353.972 43.4668C352.822 48.461 348.377 52 343.252 52H193.075C186.004 52 180.77 45.4242 182.355 38.5332L189.028 9.5332C190.178 4.53899 194.623 1 199.748 1Z" stroke="#FFF6D3" stroke-width="2"/>
</g>
<g filter="url(#filter2_f_1_5127)">
<path d="M199 13C200.226 10.5485 202.731 9 205.472 9H226.5" stroke="url(#paint4_linear_1_5127)" stroke-width="3" stroke-linecap="round"/>
</g>
<g filter="url(#filter3_f_1_5127)">
<path d="M262 9H345" stroke="url(#paint5_linear_1_5127)" stroke-width="3" stroke-linecap="round"/>
</g>
<g filter="url(#filter4_f_1_5127)">
<path d="M230 44L198 44" stroke="url(#paint6_linear_1_5127)" stroke-width="3" stroke-linecap="round"/>
</g>
<path d="M206.5 20L208.796 26.2042L215 28.5L208.796 30.7958L206.5 37L204.204 30.7958L198 28.5L204.204 26.2042L206.5 20Z" fill="url(#paint7_linear_1_5127)"/>
<path d="M336.5 21L337.445 23.5547L340 24.5L337.445 25.4453L336.5 28L335.555 25.4453L333 24.5L335.555 23.5547L336.5 21Z" fill="url(#paint8_linear_1_5127)"/>
<g filter="url(#filter5_d_1_5127)">
<path d="M247.84 19.78L251.56 25.68H247.76L245.24 21.68H242.28L238.64 25.68H234.84L239.74 20.32L239.3 19.78H247.84ZM250.12 26.62L249.82 28.72L244.28 34.18H239.92L245.44 28.72H236.32L236.62 26.62H250.12ZM245.64 26.06H242.22L241.44 23.4H244.86L245.64 26.06ZM268.778 20.16L266.858 33.84H252.418L254.238 20.92L253.578 20.16H268.778ZM263.318 31.94L263.898 27.76H257.058L256.478 31.94H263.318ZM257.338 25.86H264.178L264.718 22.06H257.878L257.338 25.86ZM281.997 32.6L283.457 22.26H275.137L275.397 20.36H286.817L285.057 32.82C285.004 33.2067 284.824 33.5267 284.517 33.78C284.224 34.02 283.89 34.14 283.517 34.14H280.277L281.997 32.6ZM273.837 28.64L274.777 25.28H277.097L276.637 26.9H278.177L279.017 24.68H274.517L274.737 23.04H281.997L281.777 24.68L281.037 26.9H282.217L281.497 32.08C281.444 32.4267 281.277 32.7267 280.997 32.98C280.717 33.2333 280.404 33.36 280.057 33.36H274.757L276.357 31.88H279.217L279.677 28.64H273.837ZM273.797 23L272.237 34.18H269.157L270.717 23H273.797ZM279.157 29.5L278.937 31.04H273.197L273.417 29.5H279.157ZM274.017 20.16L274.077 22.52H270.997L270.937 20.16H274.017ZM294.195 27L294.575 24.16H289.275L289.535 22.26H292.235L291.335 20.42L290.615 19.78H294.435L295.655 22.26H297.815L299.695 19.78H303.175L301.215 22.26H303.975L303.715 24.16H298.375L297.995 27H304.075L303.815 28.9H298.155L303.435 34.18H298.875L295.615 30.94L291.655 34.18H286.715L293.515 28.9H287.855L288.115 27H294.195Z" fill="url(#paint9_linear_1_5127)"/>
</g>
</g>
<defs>
<filter id="filter0_i_1_5127" x="181.07" y="0" width="180.861" height="57" filterUnits="userSpaceOnUse" color-interpolation-filters="sRGB">
<feFlood flood-opacity="0" result="BackgroundImageFix"/>
<feBlend mode="normal" in="SourceGraphic" in2="BackgroundImageFix" result="shape"/>
<feColorMatrix in="SourceAlpha" type="matrix" values="0 0 0 0 0 0 0 0 0 0 0 0 0 0 0 0 0 0 127 0" result="hardAlpha"/>
<feOffset dy="4"/>
<feGaussianBlur stdDeviation="5.95"/>
<feComposite in2="hardAlpha" operator="arithmetic" k2="-1" k3="1"/>
<feColorMatrix type="matrix" values="0 0 0 0 1 0 0 0 0 0.891585 0 0 0 0 0.549335 0 0 0 1 0"/>
<feBlend mode="normal" in2="shape" result="effect1_innerShadow_1_5127"/>
</filter>
<filter id="filter1_i_1_5127" x="181.07" y="0" width="180.861" height="57" filterUnits="userSpaceOnUse" color-interpolation-filters="sRGB">
<feFlood flood-opacity="0" result="BackgroundImageFix"/>
<feBlend mode="normal" in="SourceGraphic" in2="BackgroundImageFix" result="shape"/>
<feColorMatrix in="SourceAlpha" type="matrix" values="0 0 0 0 0 0 0 0 0 0 0 0 0 0 0 0 0 0 127 0" result="hardAlpha"/>
<feOffset dy="4"/>
<feGaussianBlur stdDeviation="5.95"/>
<feComposite in2="hardAlpha" operator="arithmetic" k2="-1" k3="1"/>
<feColorMatrix type="matrix" values="0 0 0 0 1 0 0 0 0 0.891585 0 0 0 0 0.549335 0 0 0 1 0"/>
<feBlend mode="normal" in2="shape" result="effect1_innerShadow_1_5127"/>
</filter>
<filter id="filter2_f_1_5127" x="190.5" y="0.5" width="44.5003" height="21.0004" filterUnits="userSpaceOnUse" color-interpolation-filters="sRGB">
<feFlood flood-opacity="0" result="BackgroundImageFix"/>
<feBlend mode="normal" in="SourceGraphic" in2="BackgroundImageFix" result="shape"/>
<feGaussianBlur stdDeviation="3.5" result="effect1_foregroundBlur_1_5127"/>
</filter>
<filter id="filter3_f_1_5127" x="255.5" y="2.5" width="96" height="13" filterUnits="userSpaceOnUse" color-interpolation-filters="sRGB">
<feFlood flood-opacity="0" result="BackgroundImageFix"/>
<feBlend mode="normal" in="SourceGraphic" in2="BackgroundImageFix" result="shape"/>
<feGaussianBlur stdDeviation="2.5" result="effect1_foregroundBlur_1_5127"/>
</filter>
<filter id="filter4_f_1_5127" x="190.2" y="36.2" width="47.6" height="15.6" filterUnits="userSpaceOnUse" color-interpolation-filters="sRGB">
<feFlood flood-opacity="0" result="BackgroundImageFix"/>
<feBlend mode="normal" in="SourceGraphic" in2="BackgroundImageFix" result="shape"/>
<feGaussianBlur stdDeviation="3.15" result="effect1_foregroundBlur_1_5127"/>
</filter>
<filter id="filter5_d_1_5127" x="232.14" y="17.08" width="76.6353" height="21.8" filterUnits="userSpaceOnUse" color-interpolation-filters="sRGB">
<feFlood flood-opacity="0" result="BackgroundImageFix"/>
<feColorMatrix in="SourceAlpha" type="matrix" values="0 0 0 0 0 0 0 0 0 0 0 0 0 0 0 0 0 0 127 0" result="hardAlpha"/>
<feOffset dx="1" dy="1"/>
<feGaussianBlur stdDeviation="1.85"/>
<feComposite in2="hardAlpha" operator="out"/>
<feColorMatrix type="matrix" values="0 0 0 0 0.582613 0 0 0 0 0.144658 0 0 0 0 0.144658 0 0 0 0.62 0"/>
<feBlend mode="normal" in2="BackgroundImageFix" result="effect1_dropShadow_1_5127"/>
<feBlend mode="normal" in="SourceGraphic" in2="effect1_dropShadow_1_5127" result="shape"/>
</filter>
<linearGradient id="paint0_linear_1_5127" x1="88" y1="6.5" x2="88" y2="46.5" gradientUnits="userSpaceOnUse">
<stop stop-color="#FDFBEE"/>
<stop offset="1" stop-color="#FFF6C5"/>
</linearGradient>
<linearGradient id="paint1_linear_1_5127" x1="88.5755" y1="20" x2="88.2398" y2="33.4916" gradientUnits="userSpaceOnUse">
<stop stop-color="#FF8400"/>
<stop offset="1" stop-color="#FF3B00"/>
</linearGradient>
<linearGradient id="paint2_linear_1_5127" x1="194.261" y1="6" x2="348.084" y2="58.3855" gradientUnits="userSpaceOnUse">
<stop stop-color="#FFB200"/>
<stop offset="1" stop-color="#FF6100"/>
</linearGradient>
<radialGradient id="paint3_radial_1_5127" cx="0" cy="0" r="1" gradientTransform="matrix(92.9564 0 -1.1878 24.267 209.529 5.54651)" gradientUnits="userSpaceOnUse">
<stop stop-color="white"/>
<stop offset="1" stop-color="white" stop-opacity="0"/>
</radialGradient>
<linearGradient id="paint4_linear_1_5127" x1="198" y1="17" x2="226.5" y2="11" gradientUnits="userSpaceOnUse">
<stop stop-color="white" stop-opacity="0"/>
<stop offset="0.190747" stop-color="white"/>
</linearGradient>
<linearGradient id="paint5_linear_1_5127" x1="262" y1="9.5" x2="345" y2="9.5" gradientUnits="userSpaceOnUse">
<stop stop-color="white" stop-opacity="0"/>
<stop offset="1" stop-color="white"/>
</linearGradient>
<linearGradient id="paint6_linear_1_5127" x1="230" y1="43.5" x2="198" y2="43.5" gradientUnits="userSpaceOnUse">
<stop stop-color="white" stop-opacity="0"/>
<stop offset="1" stop-color="white"/>
</linearGradient>
<linearGradient id="paint7_linear_1_5127" x1="206.5" y1="20" x2="206.5" y2="37" gradientUnits="userSpaceOnUse">
<stop stop-color="white" stop-opacity="0.4"/>
<stop offset="1" stop-color="white" stop-opacity="0"/>
</linearGradient>
<linearGradient id="paint8_linear_1_5127" x1="336.5" y1="21" x2="336.5" y2="28" gradientUnits="userSpaceOnUse">
<stop stop-color="white" stop-opacity="0.4"/>
<stop offset="1" stop-color="white" stop-opacity="0"/>
</linearGradient>
<linearGradient id="paint9_linear_1_5127" x1="269.5" y1="17" x2="269.5" y2="36" gradientUnits="userSpaceOnUse">
<stop stop-color="#FFFDF3"/>
<stop offset="1" stop-color="#FFF4C5"/>
</linearGradient>
<clipPath id="clip0_1_5127">
<rect width="362" height="53" fill="white"/>
</clipPath>
</defs>
</svg>
