<svg width="18" height="12" viewBox="0 0 18 12" fill="none" xmlns="http://www.w3.org/2000/svg">
<path fill-rule="evenodd" clip-rule="evenodd" d="M17.414 1.0396C17.414 0.465445 16.9808 0 16.4465 0H15.4791C14.9448 0 14.5116 0.465445 14.5116 1.0396V10.0495C14.5116 10.6236 14.9448 11.0891 15.4791 11.0891H16.4465C16.9808 11.0891 17.414 10.6236 17.414 10.0495V1.0396ZM10.6714 2.21781H11.6388C12.1731 2.21781 12.6063 2.69443 12.6063 3.28237V10.0245C12.6063 10.6125 12.1731 11.0891 11.6388 11.0891H10.6714C10.1371 11.0891 9.70394 10.6125 9.70394 10.0245V3.28237C9.70394 2.69443 10.1371 2.21781 10.6714 2.21781ZM6.74257 4.62044H5.77513C5.24082 4.62044 4.80768 5.10312 4.80768 5.69854V10.011C4.80768 10.6064 5.24082 11.0891 5.77513 11.0891H6.74257C7.27687 11.0891 7.71001 10.6064 7.71001 10.011V5.69854C7.71001 5.10312 7.27687 4.62044 6.74257 4.62044ZM1.93488 6.83826H0.967442C0.433138 6.83826 0 7.31405 0 7.90097V10.0264C0 10.6133 0.433138 11.0891 0.967442 11.0891H1.93488C2.46919 11.0891 2.90233 10.6133 2.90233 10.0264V7.90097C2.90233 7.31405 2.46919 6.83826 1.93488 6.83826Z" fill="black"/>
</svg>
