<svg width="24" height="18" viewBox="0 0 24 18" fill="none" xmlns="http://www.w3.org/2000/svg">
<g filter="url(#filter0_ii_1_50713)">
<rect x="6.58447" y="2.25" width="10.8311" height="15.3929" rx="5.41553" stroke="#BFCCD8" stroke-width="3"/>
</g>
<g filter="url(#filter1_ii_1_50713)">
<path d="M16.9077 6.69971H7.09229C5.00199 6.69971 3.15957 8.07184 2.56077 10.0745C1.75817 12.7589 1.90696 15.638 2.98198 18.2252L3.1572 18.6469C4.31518 21.4339 7.03659 23.2501 10.0545 23.2501H13.9455C16.9634 23.2501 19.6848 21.4339 20.8428 18.6469L21.018 18.2252C22.0931 15.6379 22.2418 12.7589 21.4392 10.0745C20.8404 8.07184 18.998 6.69971 16.9077 6.69971Z" fill="url(#paint0_linear_1_50713)"/>
<path d="M16.9077 6.69971H7.09229C5.00199 6.69971 3.15957 8.07184 2.56077 10.0745C1.75817 12.7589 1.90696 15.638 2.98198 18.2252L3.1572 18.6469C4.31518 21.4339 7.03659 23.2501 10.0545 23.2501H13.9455C16.9634 23.2501 19.6848 21.4339 20.8428 18.6469L21.018 18.2252C22.0931 15.6379 22.2418 12.7589 21.4392 10.0745C20.8404 8.07184 18.998 6.69971 16.9077 6.69971Z" fill="url(#paint1_radial_1_50713)"/>
</g>
<circle cx="12" cy="14.2246" r="5.54885" fill="url(#paint2_linear_1_50713)"/>
<g filter="url(#filter2_i_1_50713)">
<circle cx="12" cy="14.2246" r="4.72416" fill="url(#paint3_linear_1_50713)"/>
</g>
<mask id="path-5-outside-1_1_50713" maskUnits="userSpaceOnUse" x="9.24951" y="10.9072" width="5" height="7" fill="black">
<rect fill="white" x="9.24951" y="10.9072" width="5" height="7"/>
<path d="M11.9995 11.9072C12.9659 11.9073 13.7495 12.6908 13.7495 13.6572C13.7495 14.349 13.3467 14.9445 12.7642 15.2285L13.5229 16.542H10.4761L11.2339 15.2285C10.6517 14.9443 10.2495 14.3487 10.2495 13.6572C10.2495 12.6908 11.0331 11.9072 11.9995 11.9072Z"/>
</mask>
<path d="M11.9995 11.9072C12.9659 11.9073 13.7495 12.6908 13.7495 13.6572C13.7495 14.349 13.3467 14.9445 12.7642 15.2285L13.5229 16.542H10.4761L11.2339 15.2285C10.6517 14.9443 10.2495 14.3487 10.2495 13.6572C10.2495 12.6908 11.0331 11.9072 11.9995 11.9072Z" fill="url(#paint4_linear_1_50713)"/>
<path d="M11.9995 11.9072L11.9995 11.5322H11.9995V11.9072ZM13.7495 13.6572L14.1245 13.6572V13.6572H13.7495ZM12.7642 15.2285L12.5998 14.8914C12.5063 14.937 12.4359 15.0194 12.4055 15.1189C12.3751 15.2184 12.3874 15.326 12.4394 15.4161L12.7642 15.2285ZM13.5229 16.542V16.917C13.6569 16.917 13.7808 16.8455 13.8477 16.7295C13.9147 16.6134 13.9147 16.4704 13.8477 16.3544L13.5229 16.542ZM10.4761 16.542L10.1513 16.3546C10.0843 16.4706 10.0843 16.6135 10.1513 16.7295C10.2183 16.8455 10.3421 16.917 10.4761 16.917V16.542ZM11.2339 15.2285L11.5587 15.4159C11.6107 15.3259 11.6229 15.2183 11.5925 15.1189C11.5621 15.0195 11.4918 14.9371 11.3984 14.8915L11.2339 15.2285ZM10.2495 13.6572H9.87451V13.6572L10.2495 13.6572ZM11.9995 11.9072L11.9995 12.2822C12.7588 12.2823 13.3745 12.8979 13.3745 13.6572H13.7495H14.1245C14.1245 12.4837 13.173 11.5323 11.9995 11.5322L11.9995 11.9072ZM13.7495 13.6572L13.3745 13.6572C13.3745 14.199 13.0595 14.6673 12.5998 14.8914L12.7642 15.2285L12.9285 15.5656C13.634 15.2216 14.1245 14.4989 14.1245 13.6572L13.7495 13.6572ZM12.7642 15.2285L12.4394 15.4161L13.1982 16.7296L13.5229 16.542L13.8477 16.3544L13.0889 15.0409L12.7642 15.2285ZM13.5229 16.542V16.167H10.4761V16.542V16.917H13.5229V16.542ZM10.4761 16.542L10.8009 16.7294L11.5587 15.4159L11.2339 15.2285L10.9091 15.0411L10.1513 16.3546L10.4761 16.542ZM11.2339 15.2285L11.3984 14.8915C10.9392 14.6674 10.6245 14.199 10.6245 13.6572L10.2495 13.6572L9.87451 13.6572C9.87455 14.4984 10.3642 15.2213 11.0694 15.5655L11.2339 15.2285ZM10.2495 13.6572H10.6245C10.6245 12.8979 11.2402 12.2822 11.9995 12.2822V11.9072V11.5322C10.8259 11.5322 9.87451 12.4837 9.87451 13.6572H10.2495Z" fill="url(#paint5_linear_1_50713)" mask="url(#path-5-outside-1_1_50713)"/>
<defs>
<filter id="filter0_ii_1_50713" x="5.08447" y="0.375" width="13.8311" height="19.1431" filterUnits="userSpaceOnUse" color-interpolation-filters="sRGB">
<feFlood flood-opacity="0" result="BackgroundImageFix"/>
<feBlend mode="normal" in="SourceGraphic" in2="BackgroundImageFix" result="shape"/>
<feColorMatrix in="SourceAlpha" type="matrix" values="0 0 0 0 0 0 0 0 0 0 0 0 0 0 0 0 0 0 127 0" result="hardAlpha"/>
<feOffset dy="0.75"/>
<feGaussianBlur stdDeviation="0.1875"/>
<feComposite in2="hardAlpha" operator="arithmetic" k2="-1" k3="1"/>
<feColorMatrix type="matrix" values="0 0 0 0 0.772549 0 0 0 0 0.819608 0 0 0 0 0.866667 0 0 0 1 0"/>
<feBlend mode="normal" in2="shape" result="effect1_innerShadow_1_50713"/>
<feColorMatrix in="SourceAlpha" type="matrix" values="0 0 0 0 0 0 0 0 0 0 0 0 0 0 0 0 0 0 127 0" result="hardAlpha"/>
<feOffset dy="-0.75"/>
<feGaussianBlur stdDeviation="0.1875"/>
<feComposite in2="hardAlpha" operator="arithmetic" k2="-1" k3="1"/>
<feColorMatrix type="matrix" values="0 0 0 0 0.337255 0 0 0 0 0.396078 0 0 0 0 0.466667 0 0 0 1 0"/>
<feBlend mode="normal" in2="effect1_innerShadow_1_50713" result="effect2_innerShadow_1_50713"/>
</filter>
<filter id="filter1_ii_1_50713" x="2.05106" y="5.94971" width="19.8979" height="18.0503" filterUnits="userSpaceOnUse" color-interpolation-filters="sRGB">
<feFlood flood-opacity="0" result="BackgroundImageFix"/>
<feBlend mode="normal" in="SourceGraphic" in2="BackgroundImageFix" result="shape"/>
<feColorMatrix in="SourceAlpha" type="matrix" values="0 0 0 0 0 0 0 0 0 0 0 0 0 0 0 0 0 0 127 0" result="hardAlpha"/>
<feOffset dy="-1.5"/>
<feGaussianBlur stdDeviation="0.375"/>
<feComposite in2="hardAlpha" operator="arithmetic" k2="-1" k3="1"/>
<feColorMatrix type="matrix" values="0 0 0 0 0.909804 0 0 0 0 0.454902 0 0 0 0 0.0862745 0 0 0 1 0"/>
<feBlend mode="normal" in2="shape" result="effect1_innerShadow_1_50713"/>
<feColorMatrix in="SourceAlpha" type="matrix" values="0 0 0 0 0 0 0 0 0 0 0 0 0 0 0 0 0 0 127 0" result="hardAlpha"/>
<feOffset dy="1.5"/>
<feGaussianBlur stdDeviation="0.375"/>
<feComposite in2="hardAlpha" operator="arithmetic" k2="-1" k3="1"/>
<feColorMatrix type="matrix" values="0 0 0 0 0.996078 0 0 0 0 0.917647 0 0 0 0 0.509804 0 0 0 1 0"/>
<feBlend mode="normal" in2="effect1_innerShadow_1_50713" result="effect2_innerShadow_1_50713"/>
</filter>
<filter id="filter2_i_1_50713" x="7.27588" y="9.50049" width="9.44833" height="9.44824" filterUnits="userSpaceOnUse" color-interpolation-filters="sRGB">
<feFlood flood-opacity="0" result="BackgroundImageFix"/>
<feBlend mode="normal" in="SourceGraphic" in2="BackgroundImageFix" result="shape"/>
<feColorMatrix in="SourceAlpha" type="matrix" values="0 0 0 0 0 0 0 0 0 0 0 0 0 0 0 0 0 0 127 0" result="hardAlpha"/>
<feOffset dx="0.75" dy="0.75"/>
<feComposite in2="hardAlpha" operator="arithmetic" k2="-1" k3="1"/>
<feColorMatrix type="matrix" values="0 0 0 0 0 0 0 0 0 0 0 0 0 0 0 0 0 0 0.1 0"/>
<feBlend mode="normal" in2="shape" result="effect1_innerShadow_1_50713"/>
</filter>
<linearGradient id="paint0_linear_1_50713" x1="12.0003" y1="5.19971" x2="12.0003" y2="23.2501" gradientUnits="userSpaceOnUse">
<stop stop-color="#FCDD52"/>
<stop offset="1" stop-color="#FCAA33"/>
</linearGradient>
<radialGradient id="paint1_radial_1_50713" cx="0" cy="0" r="1" gradientUnits="userSpaceOnUse" gradientTransform="translate(5.65283 8.19934) rotate(68.3016) scale(17.1675 29.8556)">
<stop stop-color="#FFFEFA"/>
<stop offset="0.26163" stop-color="#FCCE48" stop-opacity="0"/>
</radialGradient>
<linearGradient id="paint2_linear_1_50713" x1="12" y1="8.67578" x2="12" y2="19.7735" gradientUnits="userSpaceOnUse">
<stop stop-color="#FEB639"/>
<stop offset="1" stop-color="#FCD94A"/>
</linearGradient>
<linearGradient id="paint3_linear_1_50713" x1="12" y1="9.50049" x2="12" y2="18.9488" gradientUnits="userSpaceOnUse">
<stop stop-color="#FAAD2E"/>
<stop offset="1" stop-color="#FAAD2E"/>
</linearGradient>
<linearGradient id="paint4_linear_1_50713" x1="11.9995" y1="11.9072" x2="11.9995" y2="17.1308" gradientUnits="userSpaceOnUse">
<stop stop-color="#A65B16"/>
<stop offset="1" stop-color="#A65B16"/>
</linearGradient>
<linearGradient id="paint5_linear_1_50713" x1="11.9995" y1="11.9072" x2="11.9995" y2="17.1308" gradientUnits="userSpaceOnUse">
<stop stop-color="#E19C29"/>
<stop offset="1" stop-color="#FFBB4B"/>
</linearGradient>
</defs>
</svg>
