<svg width="24" height="24" viewBox="0 0 24 24" fill="none" xmlns="http://www.w3.org/2000/svg">
<g filter="url(#filter0_ii_1_49102)">
<path d="M23.25 12C23.25 18.2132 18.2132 23.25 12 23.25C5.7868 23.25 0.75 18.2132 0.75 12C0.75 5.7868 5.7868 0.75 12 0.75C18.2132 0.75 23.25 5.7868 23.25 12Z" fill="#62B4FF"/>
<path d="M23.25 12C23.25 18.2132 18.2132 23.25 12 23.25C5.7868 23.25 0.75 18.2132 0.75 12C0.75 5.7868 5.7868 0.75 12 0.75C18.2132 0.75 23.25 5.7868 23.25 12Z" fill="white" fill-opacity="0.6"/>
</g>
<path d="M18.0981 10.2323C18.5767 10.0936 19.0831 10.369 19.1614 10.8611C19.3703 12.1744 19.2147 13.5263 18.703 14.7663C18.0761 16.2857 16.9515 17.5469 15.5138 18.3434C14.0761 19.1398 12.4104 19.4243 10.7899 19.15C9.1693 18.8758 7.68997 18.0592 6.59435 16.834C5.49872 15.6088 4.85181 14.0478 4.75964 12.4068C4.66747 10.7657 5.13551 9.1421 6.08704 7.80194C7.03858 6.46179 8.41716 5.48463 9.99682 5.03065C11.2861 4.66012 12.6469 4.65603 13.9288 5.0098C14.4091 5.14235 14.6264 5.67627 14.4353 6.13642C14.2442 6.59658 13.7166 6.80659 13.2313 6.69395C12.3329 6.48545 11.3911 6.50739 10.4952 6.76485C9.30862 7.10587 8.27307 7.83988 7.55831 8.84656C6.84354 9.85325 6.49196 11.0729 6.5612 12.3056C6.63044 13.5383 7.11638 14.7109 7.93938 15.6312C8.76238 16.5515 9.87361 17.1649 11.0909 17.3709C12.3082 17.5769 13.5594 17.3633 14.6394 16.765C15.7194 16.1667 16.5641 15.2193 17.0351 14.078C17.3906 13.2164 17.5173 12.2829 17.4101 11.3669C17.3521 10.872 17.6196 10.3711 18.0981 10.2323Z" fill="#62B4FF"/>
<path d="M18.0981 10.2323C18.5767 10.0936 19.0831 10.369 19.1614 10.8611C19.3703 12.1744 19.2147 13.5263 18.703 14.7663C18.0761 16.2857 16.9515 17.5469 15.5138 18.3434C14.0761 19.1398 12.4104 19.4243 10.7899 19.15C9.1693 18.8758 7.68997 18.0592 6.59435 16.834C5.49872 15.6088 4.85181 14.0478 4.75964 12.4068C4.66747 10.7657 5.13551 9.1421 6.08704 7.80194C7.03858 6.46179 8.41716 5.48463 9.99682 5.03065C11.2861 4.66012 12.6469 4.65603 13.9288 5.0098C14.4091 5.14235 14.6264 5.67627 14.4353 6.13642C14.2442 6.59658 13.7166 6.80659 13.2313 6.69395C12.3329 6.48545 11.3911 6.50739 10.4952 6.76485C9.30862 7.10587 8.27307 7.83988 7.55831 8.84656C6.84354 9.85325 6.49196 11.0729 6.5612 12.3056C6.63044 13.5383 7.11638 14.7109 7.93938 15.6312C8.76238 16.5515 9.87361 17.1649 11.0909 17.3709C12.3082 17.5769 13.5594 17.3633 14.6394 16.765C15.7194 16.1667 16.5641 15.2193 17.0351 14.078C17.3906 13.2164 17.5173 12.2829 17.4101 11.3669C17.3521 10.872 17.6196 10.3711 18.0981 10.2323Z" fill="black" fill-opacity="0.2"/>
<path d="M17.2833 5.19927C18.0316 5.1725 18.7858 5.66884 18.8825 6.61417C19.014 7.90138 18.4377 8.0785 16.7979 9.32245C15.1581 10.5664 13.3075 13.425 12.8763 14.1521C12.7158 14.4219 12.5379 14.5248 12.3658 14.531C12.0738 14.5413 11.7973 14.2736 11.6542 14.0635C11.426 13.7298 10.1265 12.1667 9.04172 11.7053C7.9569 11.244 8.25083 10.1648 8.38619 9.87029C8.50995 9.60255 8.89669 9.04442 9.68566 9.01558C9.76687 9.01352 9.85002 9.01558 9.93897 9.02382C10.902 9.12062 12.2865 11.8268 12.3581 11.9689C14.3363 7.30411 15.6125 5.99425 16.5098 5.43406C16.7457 5.28783 17.0145 5.20957 17.2833 5.19927Z" fill="#62B4FF"/>
<path d="M17.2833 5.19927C18.0316 5.1725 18.7858 5.66884 18.8825 6.61417C19.014 7.90138 18.4377 8.0785 16.7979 9.32245C15.1581 10.5664 13.3075 13.425 12.8763 14.1521C12.7158 14.4219 12.5379 14.5248 12.3658 14.531C12.0738 14.5413 11.7973 14.2736 11.6542 14.0635C11.426 13.7298 10.1265 12.1667 9.04172 11.7053C7.9569 11.244 8.25083 10.1648 8.38619 9.87029C8.50995 9.60255 8.89669 9.04442 9.68566 9.01558C9.76687 9.01352 9.85002 9.01558 9.93897 9.02382C10.902 9.12062 12.2865 11.8268 12.3581 11.9689C14.3363 7.30411 15.6125 5.99425 16.5098 5.43406C16.7457 5.28783 17.0145 5.20957 17.2833 5.19927Z" fill="black" fill-opacity="0.2"/>
<defs>
<filter id="filter0_ii_1_49102" x="0.75" y="-0.75" width="22.5" height="24" filterUnits="userSpaceOnUse" color-interpolation-filters="sRGB">
<feFlood flood-opacity="0" result="BackgroundImageFix"/>
<feBlend mode="normal" in="SourceGraphic" in2="BackgroundImageFix" result="shape"/>
<feColorMatrix in="SourceAlpha" type="matrix" values="0 0 0 0 0 0 0 0 0 0 0 0 0 0 0 0 0 0 127 0" result="hardAlpha"/>
<feOffset dy="-1.5"/>
<feGaussianBlur stdDeviation="1.875"/>
<feComposite in2="hardAlpha" operator="arithmetic" k2="-1" k3="1"/>
<feColorMatrix type="matrix" values="0 0 0 0 0.872814 0 0 0 0 0.820833 0 0 0 0 1 0 0 0 0.5 0"/>
<feBlend mode="normal" in2="shape" result="effect1_innerShadow_1_49102"/>
<feColorMatrix in="SourceAlpha" type="matrix" values="0 0 0 0 0 0 0 0 0 0 0 0 0 0 0 0 0 0 127 0" result="hardAlpha"/>
<feOffset dy="-1.5"/>
<feGaussianBlur stdDeviation="1.875"/>
<feComposite in2="hardAlpha" operator="arithmetic" k2="-1" k3="1"/>
<feColorMatrix type="matrix" values="0 0 0 0 1 0 0 0 0 1 0 0 0 0 1 0 0 0 1 0"/>
<feBlend mode="normal" in2="effect1_innerShadow_1_49102" result="effect2_innerShadow_1_49102"/>
</filter>
</defs>
</svg>
