<svg width="101" height="35" viewBox="0 0 101 35" fill="none" xmlns="http://www.w3.org/2000/svg">
<path d="M10.3516 4.41797C11.3967 2.28906 14.0916 1.58931 16.04 2.94141L20.0732 5.74121C20.6961 6.17343 21.4116 6.45403 22.1621 6.56152L27.0234 7.25781C29.3708 7.59397 30.8689 9.94028 30.1855 12.2109L28.7695 16.9131C28.5509 17.6392 28.504 18.4062 28.6338 19.1533L29.4746 23.9912C29.8803 26.3277 28.1112 28.4778 25.7402 28.5293L20.8311 28.6357C20.0731 28.6522 19.3295 28.845 18.6592 29.1992L14.3174 31.4932C12.2205 32.6012 9.62923 31.5829 8.84766 29.3438L7.22949 24.708C6.97963 23.9922 6.56643 23.3445 6.02246 22.8164L2.49902 19.3965C0.797193 17.7447 0.964535 14.9656 2.85254 13.5303L6.76172 10.5586C7.36529 10.0997 7.8534 9.50582 8.1875 8.8252L10.3516 4.41797Z" fill="url(#paint0_linear_1_55529)" stroke="white"/>
<mask id="path-2-outside-1_1_55529" maskUnits="userSpaceOnUse" x="10" y="8" width="80" height="19" fill="black">
<rect fill="white" x="10" y="8" width="80" height="19"/>
<path d="M18.7 16.464L18.81 15.628H12.98L13.2 13.956H19.052L19.118 13.538H23.298L23.232 13.956H29.084L28.864 15.628H22.99L22.88 16.464H29.986L29.766 18.136H26.84L26.708 18.972H29.216L28.952 20.842H26.444L26.048 23.746C25.9747 24.1713 25.7767 24.5233 25.454 24.802C25.1313 25.066 24.7573 25.198 24.332 25.198H19.976L21.956 23.152L22.264 20.842H11.396L11.66 18.972H22.528L22.66 18.136H11.374L11.594 16.464H18.7ZM26.334 10.194H30.866L30.646 11.866H28.512L29.216 13.12H25.872L25.256 12.02L24.618 13.12H20.856L22.704 9.93L22.22 9.358H26.818L26.334 10.194ZM17.556 10.194H21.67L21.45 11.866H19.734L20.438 13.12H17.094L16.478 12.02L15.84 13.12H12.078L13.926 9.93L13.442 9.358H18.04L17.556 10.194ZM19.316 23.988H14.718L12.98 21.48H17.578L19.316 23.988ZM44.9223 25.198L44.3723 24.252L43.7343 25.198H40.1703L42.6123 21.216L41.6003 19.456L40.0383 25.198H36.9363L40.6103 11.866H39.3343L39.6203 9.776H50.0263L49.7403 11.866L48.3763 14.352H49.8063L49.4983 16.442L46.4183 21.106L48.7283 25.198H44.9223ZM31.9203 14.44L34.7803 9.93L34.3183 9.38H38.9163L35.6823 14.44H38.1903L34.9783 19.456H37.4863L37.2003 21.546H30.9303L31.2163 19.456L33.0863 16.53H31.6343L31.9203 14.44ZM36.7823 24.472L30.4683 24.89L30.7543 22.8L37.0903 22.382L36.7823 24.472ZM43.6903 11.866L42.3043 16.882H44.0643L44.6363 17.938L45.5603 16.442H43.7783L45.7803 11.866H43.6903ZM68.3946 9.776L68.1086 11.866H67.2726L65.6446 23.328C65.5859 23.7387 65.3952 24.0907 65.0726 24.384C64.7499 24.6773 64.3759 24.824 63.9506 24.824H59.5946L61.5526 22.734L63.0926 11.866H50.5526L50.8386 9.776H68.3946ZM61.6626 13.12L60.4306 21.898H50.3986L51.4986 13.956L50.7946 13.12H61.6626ZM57.5926 15.21H55.0846L54.4466 19.808H56.9546L57.5926 15.21ZM88.3688 9.776L88.0828 11.91H84.5188L84.1448 12.856H87.5768L86.4548 20.798H84.3648L83.9908 20.27L84.7608 14.814H80.8888L80.1188 20.27L79.6128 20.798H77.5008L78.6228 12.856H81.3508L81.7248 11.91H78.5128L78.7988 9.776H88.3688ZM71.8908 20.27L72.3528 21.084L73.6508 18.686H68.8108L69.0968 16.64H77.3908L77.0608 18.972L74.0908 23.548H74.0468L75.0368 25.154H71.6048L68.6788 20.27H71.8908ZM75.1468 15.98H72.4848L72.1988 14.352L71.6268 15.738H69.0088L71.2528 10.392L70.7248 9.798H77.2808L78.0728 15.716H75.6748L75.0368 11.734H73.2988L72.4848 13.648H74.7508L75.1468 15.98ZM83.9908 15.584L83.3528 20.182L86.2788 25.154H82.8248L81.7908 22.404L79.8328 25.154H76.5768L80.8008 20.094L81.4388 15.584H83.9908Z"/>
</mask>
<path d="M18.7 16.464L18.81 15.628H12.98L13.2 13.956H19.052L19.118 13.538H23.298L23.232 13.956H29.084L28.864 15.628H22.99L22.88 16.464H29.986L29.766 18.136H26.84L26.708 18.972H29.216L28.952 20.842H26.444L26.048 23.746C25.9747 24.1713 25.7767 24.5233 25.454 24.802C25.1313 25.066 24.7573 25.198 24.332 25.198H19.976L21.956 23.152L22.264 20.842H11.396L11.66 18.972H22.528L22.66 18.136H11.374L11.594 16.464H18.7ZM26.334 10.194H30.866L30.646 11.866H28.512L29.216 13.12H25.872L25.256 12.02L24.618 13.12H20.856L22.704 9.93L22.22 9.358H26.818L26.334 10.194ZM17.556 10.194H21.67L21.45 11.866H19.734L20.438 13.12H17.094L16.478 12.02L15.84 13.12H12.078L13.926 9.93L13.442 9.358H18.04L17.556 10.194ZM19.316 23.988H14.718L12.98 21.48H17.578L19.316 23.988ZM44.9223 25.198L44.3723 24.252L43.7343 25.198H40.1703L42.6123 21.216L41.6003 19.456L40.0383 25.198H36.9363L40.6103 11.866H39.3343L39.6203 9.776H50.0263L49.7403 11.866L48.3763 14.352H49.8063L49.4983 16.442L46.4183 21.106L48.7283 25.198H44.9223ZM31.9203 14.44L34.7803 9.93L34.3183 9.38H38.9163L35.6823 14.44H38.1903L34.9783 19.456H37.4863L37.2003 21.546H30.9303L31.2163 19.456L33.0863 16.53H31.6343L31.9203 14.44ZM36.7823 24.472L30.4683 24.89L30.7543 22.8L37.0903 22.382L36.7823 24.472ZM43.6903 11.866L42.3043 16.882H44.0643L44.6363 17.938L45.5603 16.442H43.7783L45.7803 11.866H43.6903ZM68.3946 9.776L68.1086 11.866H67.2726L65.6446 23.328C65.5859 23.7387 65.3952 24.0907 65.0726 24.384C64.7499 24.6773 64.3759 24.824 63.9506 24.824H59.5946L61.5526 22.734L63.0926 11.866H50.5526L50.8386 9.776H68.3946ZM61.6626 13.12L60.4306 21.898H50.3986L51.4986 13.956L50.7946 13.12H61.6626ZM57.5926 15.21H55.0846L54.4466 19.808H56.9546L57.5926 15.21ZM88.3688 9.776L88.0828 11.91H84.5188L84.1448 12.856H87.5768L86.4548 20.798H84.3648L83.9908 20.27L84.7608 14.814H80.8888L80.1188 20.27L79.6128 20.798H77.5008L78.6228 12.856H81.3508L81.7248 11.91H78.5128L78.7988 9.776H88.3688ZM71.8908 20.27L72.3528 21.084L73.6508 18.686H68.8108L69.0968 16.64H77.3908L77.0608 18.972L74.0908 23.548H74.0468L75.0368 25.154H71.6048L68.6788 20.27H71.8908ZM75.1468 15.98H72.4848L72.1988 14.352L71.6268 15.738H69.0088L71.2528 10.392L70.7248 9.798H77.2808L78.0728 15.716H75.6748L75.0368 11.734H73.2988L72.4848 13.648H74.7508L75.1468 15.98ZM83.9908 15.584L83.3528 20.182L86.2788 25.154H82.8248L81.7908 22.404L79.8328 25.154H76.5768L80.8008 20.094L81.4388 15.584H83.9908Z" fill="#222222"/>
<path d="M18.7 16.464V17.464C19.2019 17.464 19.626 17.092 19.6915 16.5945L18.7 16.464ZM18.81 15.628L19.8015 15.7585C19.839 15.473 19.7517 15.1851 19.5618 14.9686C19.3719 14.7521 19.098 14.628 18.81 14.628V15.628ZM12.98 15.628L11.9885 15.4975C11.951 15.783 12.0383 16.0709 12.2282 16.2874C12.4181 16.5039 12.692 16.628 12.98 16.628V15.628ZM13.2 13.956V12.956C12.6981 12.956 12.274 13.328 12.2085 13.8255L13.2 13.956ZM19.052 13.956V14.956C19.5441 14.956 19.963 14.598 20.0398 14.112L19.052 13.956ZM19.118 13.538V12.538C18.6259 12.538 18.207 12.896 18.1302 13.382L19.118 13.538ZM23.298 13.538L24.2858 13.694C24.3314 13.4051 24.2482 13.1107 24.0583 12.8884C23.8683 12.666 23.5905 12.538 23.298 12.538V13.538ZM23.232 13.956L22.2442 13.8C22.1986 14.0889 22.2818 14.3833 22.4718 14.6056C22.6617 14.828 22.9395 14.956 23.232 14.956V13.956ZM29.084 13.956L30.0755 14.0865C30.113 13.801 30.0257 13.5131 29.8358 13.2966C29.6459 13.0801 29.372 12.956 29.084 12.956V13.956ZM28.864 15.628V16.628C29.3659 16.628 29.79 16.256 29.8555 15.7585L28.864 15.628ZM22.99 15.628V14.628C22.4881 14.628 22.064 15 21.9985 15.4975L22.99 15.628ZM22.88 16.464L21.8885 16.3335C21.851 16.619 21.9383 16.9069 22.1282 17.1234C22.3181 17.3399 22.592 17.464 22.88 17.464V16.464ZM29.986 16.464L30.9775 16.5945C31.015 16.309 30.9277 16.0211 30.7378 15.8046C30.5479 15.5881 30.274 15.464 29.986 15.464V16.464ZM29.766 18.136V19.136C30.2679 19.136 30.692 18.764 30.7575 18.2665L29.766 18.136ZM26.84 18.136V17.136C26.3479 17.136 25.929 17.494 25.8522 17.98L26.84 18.136ZM26.708 18.972L25.7202 18.816C25.6746 19.1049 25.7578 19.3993 25.9478 19.6216C26.1377 19.844 26.4155 19.972 26.708 19.972V18.972ZM29.216 18.972L30.2062 19.1118C30.2467 18.825 30.1608 18.5348 29.9709 18.3162C29.781 18.0975 29.5056 17.972 29.216 17.972V18.972ZM28.952 20.842V21.842C29.4503 21.842 29.8725 21.4752 29.9422 20.9818L28.952 20.842ZM26.444 20.842V19.842C25.9439 19.842 25.5207 20.2114 25.4532 20.7069L26.444 20.842ZM26.048 23.746L27.0335 23.9159C27.0355 23.9043 27.0372 23.8927 27.0388 23.8811L26.048 23.746ZM25.454 24.802L26.0872 25.576C26.0941 25.5703 26.1009 25.5646 26.1076 25.5588L25.454 24.802ZM19.976 25.198L19.2574 24.5026C18.9782 24.7911 18.8986 25.2186 19.0553 25.5882C19.212 25.9579 19.5745 26.198 19.976 26.198V25.198ZM21.956 23.152L22.6746 23.8474C22.8234 23.6937 22.919 23.4962 22.9472 23.2842L21.956 23.152ZM22.264 20.842L23.2552 20.9742C23.2933 20.6884 23.2063 20.4002 23.0164 20.1833C22.8265 19.9664 22.5523 19.842 22.264 19.842V20.842ZM11.396 20.842L10.4058 20.7022C10.3653 20.989 10.4512 21.2792 10.6411 21.4978C10.831 21.7164 11.1064 21.842 11.396 21.842V20.842ZM11.66 18.972V17.972C11.1617 17.972 10.7395 18.3388 10.6698 18.8322L11.66 18.972ZM22.528 18.972V19.972C23.0201 19.972 23.439 19.614 23.5158 19.128L22.528 18.972ZM22.66 18.136L23.6478 18.292C23.6934 18.0031 23.6102 17.7087 23.4203 17.4864C23.2303 17.264 22.9525 17.136 22.66 17.136V18.136ZM11.374 18.136L10.3825 18.0055C10.345 18.291 10.4323 18.5789 10.6222 18.7954C10.8121 19.0119 11.086 19.136 11.374 19.136V18.136ZM11.594 16.464V15.464C11.0921 15.464 10.668 15.836 10.6025 16.3335L11.594 16.464ZM26.334 10.194L25.4686 9.69296C25.2895 10.0023 25.2891 10.3838 25.4677 10.6935C25.6462 11.0032 25.9765 11.194 26.334 11.194V10.194ZM30.866 10.194L31.8575 10.3245C31.895 10.039 31.8077 9.75112 31.6178 9.53463C31.4279 9.31813 31.154 9.194 30.866 9.194V10.194ZM30.646 11.866V12.866C31.1479 12.866 31.572 12.494 31.6375 11.9965L30.646 11.866ZM28.512 11.866V10.866C28.1569 10.866 27.8284 11.0543 27.649 11.3608C27.4696 11.6673 27.4662 12.0459 27.64 12.3555L28.512 11.866ZM29.216 13.12V14.12C29.5711 14.12 29.8996 13.9317 30.079 13.6252C30.2584 13.3187 30.2618 12.9401 30.088 12.6305L29.216 13.12ZM25.872 13.12L24.9995 13.6086C25.1763 13.9244 25.51 14.12 25.872 14.12V13.12ZM25.256 12.02L26.1285 11.5314C25.953 11.2179 25.6228 11.0227 25.2635 11.02C24.9043 11.0173 24.5712 11.2075 24.391 11.5183L25.256 12.02ZM24.618 13.12V14.12C24.9746 14.12 25.3041 13.9302 25.483 13.6217L24.618 13.12ZM20.856 13.12L19.9907 12.6187C19.8115 12.9281 19.8111 13.3096 19.9896 13.6194C20.1681 13.9291 20.4985 14.12 20.856 14.12V13.12ZM22.704 9.93L23.5693 10.4313C23.7811 10.0657 23.7403 9.60655 23.4674 9.28406L22.704 9.93ZM22.22 9.358V8.358C21.8306 8.358 21.4767 8.58402 21.3128 8.93725C21.149 9.29049 21.2051 9.7067 21.4566 10.0039L22.22 9.358ZM26.818 9.358L27.6834 9.85904C27.8625 9.54966 27.8629 9.16821 27.6843 8.85852C27.5058 8.54882 27.1755 8.358 26.818 8.358V9.358ZM17.556 10.194L16.6906 9.69296C16.5115 10.0023 16.5111 10.3838 16.6897 10.6935C16.8682 11.0032 17.1985 11.194 17.556 11.194V10.194ZM21.67 10.194L22.6615 10.3245C22.699 10.039 22.6117 9.75112 22.4218 9.53463C22.2319 9.31813 21.958 9.194 21.67 9.194V10.194ZM21.45 11.866V12.866C21.9519 12.866 22.376 12.494 22.4415 11.9965L21.45 11.866ZM19.734 11.866V10.866C19.3789 10.866 19.0504 11.0543 18.871 11.3608C18.6916 11.6673 18.6882 12.0459 18.862 12.3555L19.734 11.866ZM20.438 13.12V14.12C20.7931 14.12 21.1216 13.9317 21.301 13.6252C21.4804 13.3187 21.4838 12.9401 21.31 12.6305L20.438 13.12ZM17.094 13.12L16.2215 13.6086C16.3983 13.9244 16.732 14.12 17.094 14.12V13.12ZM16.478 12.02L17.3505 11.5314C17.175 11.2179 16.8448 11.0227 16.4855 11.02C16.1263 11.0173 15.7932 11.2075 15.613 11.5183L16.478 12.02ZM15.84 13.12V14.12C16.1966 14.12 16.5261 13.9302 16.705 13.6217L15.84 13.12ZM12.078 13.12L11.2127 12.6187C11.0335 12.9281 11.0331 13.3096 11.2116 13.6194C11.3901 13.9291 11.7205 14.12 12.078 14.12V13.12ZM13.926 9.93L14.7913 10.4313C15.0031 10.0657 14.9623 9.60655 14.6894 9.28406L13.926 9.93ZM13.442 9.358V8.358C13.0526 8.358 12.6987 8.58402 12.5348 8.93725C12.371 9.29049 12.4271 9.7067 12.6786 10.0039L13.442 9.358ZM18.04 9.358L18.9054 9.85904C19.0845 9.54966 19.0849 9.16821 18.9063 8.85852C18.7278 8.54882 18.3975 8.358 18.04 8.358V9.358ZM19.316 23.988V24.988C19.688 24.988 20.0293 24.7815 20.2019 24.4519C20.3745 24.1223 20.3498 23.7242 20.1379 23.4184L19.316 23.988ZM14.718 23.988L13.8961 24.5576C14.0829 24.8272 14.39 24.988 14.718 24.988V23.988ZM12.98 21.48V20.48C12.608 20.48 12.2667 20.6865 12.0941 21.0161C11.9215 21.3457 11.9462 21.7438 12.1581 22.0496L12.98 21.48ZM17.578 21.48L18.3999 20.9104C18.2131 20.6408 17.906 20.48 17.578 20.48V21.48ZM18.7 16.464L19.6915 16.5945L19.8015 15.7585L18.81 15.628L17.8185 15.4975L17.7085 16.3335L18.7 16.464ZM18.81 15.628V14.628H12.98V15.628V16.628H18.81V15.628ZM12.98 15.628L13.9715 15.7585L14.1915 14.0865L13.2 13.956L12.2085 13.8255L11.9885 15.4975L12.98 15.628ZM13.2 13.956V14.956H19.052V13.956V12.956H13.2V13.956ZM19.052 13.956L20.0398 14.112L20.1058 13.694L19.118 13.538L18.1302 13.382L18.0642 13.8L19.052 13.956ZM19.118 13.538V14.538H23.298V13.538V12.538H19.118V13.538ZM23.298 13.538L22.3102 13.382L22.2442 13.8L23.232 13.956L24.2198 14.112L24.2858 13.694L23.298 13.538ZM23.232 13.956V14.956H29.084V13.956V12.956H23.232V13.956ZM29.084 13.956L28.0925 13.8255L27.8725 15.4975L28.864 15.628L29.8555 15.7585L30.0755 14.0865L29.084 13.956ZM28.864 15.628V14.628H22.99V15.628V16.628H28.864V15.628ZM22.99 15.628L21.9985 15.4975L21.8885 16.3335L22.88 16.464L23.8715 16.5945L23.9815 15.7585L22.99 15.628ZM22.88 16.464V17.464H29.986V16.464V15.464H22.88V16.464ZM29.986 16.464L28.9945 16.3335L28.7745 18.0055L29.766 18.136L30.7575 18.2665L30.9775 16.5945L29.986 16.464ZM29.766 18.136V17.136H26.84V18.136V19.136H29.766V18.136ZM26.84 18.136L25.8522 17.98L25.7202 18.816L26.708 18.972L27.6958 19.128L27.8278 18.292L26.84 18.136ZM26.708 18.972V19.972H29.216V18.972V17.972H26.708V18.972ZM29.216 18.972L28.2258 18.8322L27.9618 20.7022L28.952 20.842L29.9422 20.9818L30.2062 19.1118L29.216 18.972ZM28.952 20.842V19.842H26.444V20.842V21.842H28.952V20.842ZM26.444 20.842L25.4532 20.7069L25.0572 23.6109L26.048 23.746L27.0388 23.8811L27.4348 20.9771L26.444 20.842ZM26.048 23.746L25.0625 23.5761C25.028 23.7763 24.9455 23.9199 24.8004 24.0452L25.454 24.802L26.1076 25.5588C26.6079 25.1268 26.9213 24.5663 27.0335 23.9159L26.048 23.746ZM25.454 24.802L24.8208 24.028C24.6807 24.1427 24.5316 24.198 24.332 24.198V25.198V26.198C24.9831 26.198 25.582 25.9893 26.0872 25.576L25.454 24.802ZM24.332 25.198V24.198H19.976V25.198V26.198H24.332V25.198ZM19.976 25.198L20.6946 25.8934L22.6746 23.8474L21.956 23.152L21.2374 22.4566L19.2574 24.5026L19.976 25.198ZM21.956 23.152L22.9472 23.2842L23.2552 20.9742L22.264 20.842L21.2728 20.7098L20.9648 23.0198L21.956 23.152ZM22.264 20.842V19.842H11.396V20.842V21.842H22.264V20.842ZM11.396 20.842L12.3862 20.9818L12.6502 19.1118L11.66 18.972L10.6698 18.8322L10.4058 20.7022L11.396 20.842ZM11.66 18.972V19.972H22.528V18.972V17.972H11.66V18.972ZM22.528 18.972L23.5158 19.128L23.6478 18.292L22.66 18.136L21.6722 17.98L21.5402 18.816L22.528 18.972ZM22.66 18.136V17.136H11.374V18.136V19.136H22.66V18.136ZM11.374 18.136L12.3655 18.2665L12.5855 16.5945L11.594 16.464L10.6025 16.3335L10.3825 18.0055L11.374 18.136ZM11.594 16.464V17.464H18.7V16.464V15.464H11.594V16.464ZM26.334 10.194V11.194H30.866V10.194V9.194H26.334V10.194ZM30.866 10.194L29.8745 10.0635L29.6545 11.7355L30.646 11.866L31.6375 11.9965L31.8575 10.3245L30.866 10.194ZM30.646 11.866V10.866H28.512V11.866V12.866H30.646V11.866ZM28.512 11.866L27.64 12.3555L28.344 13.6095L29.216 13.12L30.088 12.6305L29.384 11.3765L28.512 11.866ZM29.216 13.12V12.12H25.872V13.12V14.12H29.216V13.12ZM25.872 13.12L26.7445 12.6314L26.1285 11.5314L25.256 12.02L24.3835 12.5086L24.9995 13.6086L25.872 13.12ZM25.256 12.02L24.391 11.5183L23.753 12.6183L24.618 13.12L25.483 13.6217L26.121 12.5217L25.256 12.02ZM24.618 13.12V12.12H20.856V13.12V14.12H24.618V13.12ZM20.856 13.12L21.7213 13.6213L23.5693 10.4313L22.704 9.93L21.8387 9.42873L19.9907 12.6187L20.856 13.12ZM22.704 9.93L23.4674 9.28406L22.9834 8.71206L22.22 9.358L21.4566 10.0039L21.9406 10.5759L22.704 9.93ZM22.22 9.358V10.358H26.818V9.358V8.358H22.22V9.358ZM26.818 9.358L25.9526 8.85696L25.4686 9.69296L26.334 10.194L27.1994 10.695L27.6834 9.85904L26.818 9.358ZM17.556 10.194V11.194H21.67V10.194V9.194H17.556V10.194ZM21.67 10.194L20.6785 10.0635L20.4585 11.7355L21.45 11.866L22.4415 11.9965L22.6615 10.3245L21.67 10.194ZM21.45 11.866V10.866H19.734V11.866V12.866H21.45V11.866ZM19.734 11.866L18.862 12.3555L19.566 13.6095L20.438 13.12L21.31 12.6305L20.606 11.3765L19.734 11.866ZM20.438 13.12V12.12H17.094V13.12V14.12H20.438V13.12ZM17.094 13.12L17.9665 12.6314L17.3505 11.5314L16.478 12.02L15.6055 12.5086L16.2215 13.6086L17.094 13.12ZM16.478 12.02L15.613 11.5183L14.975 12.6183L15.84 13.12L16.705 13.6217L17.343 12.5217L16.478 12.02ZM15.84 13.12V12.12H12.078V13.12V14.12H15.84V13.12ZM12.078 13.12L12.9433 13.6213L14.7913 10.4313L13.926 9.93L13.0607 9.42873L11.2127 12.6187L12.078 13.12ZM13.926 9.93L14.6894 9.28406L14.2054 8.71206L13.442 9.358L12.6786 10.0039L13.1626 10.5759L13.926 9.93ZM13.442 9.358V10.358H18.04V9.358V8.358H13.442V9.358ZM18.04 9.358L17.1746 8.85696L16.6906 9.69296L17.556 10.194L18.4214 10.695L18.9054 9.85904L18.04 9.358ZM19.316 23.988V22.988H14.718V23.988V24.988H19.316V23.988ZM14.718 23.988L15.5399 23.4184L13.8019 20.9104L12.98 21.48L12.1581 22.0496L13.8961 24.5576L14.718 23.988ZM12.98 21.48V22.48H17.578V21.48V20.48H12.98V21.48ZM17.578 21.48L16.7561 22.0496L18.4941 24.5576L19.316 23.988L20.1379 23.4184L18.3999 20.9104L17.578 21.48ZM44.9223 25.198L44.0578 25.7006C44.2368 26.0085 44.5661 26.198 44.9223 26.198V25.198ZM44.3723 24.252L45.2368 23.7494C45.0637 23.4517 44.7497 23.264 44.4056 23.2526C44.0615 23.2411 43.7357 23.4074 43.5432 23.6929L44.3723 24.252ZM43.7343 25.198V26.198C44.0667 26.198 44.3775 26.0328 44.5634 25.7571L43.7343 25.198ZM40.1703 25.198L39.3178 24.6752C39.1286 24.9838 39.1209 25.3706 39.2977 25.6865C39.4745 26.0024 39.8083 26.198 40.1703 26.198V25.198ZM42.6123 21.216L43.4647 21.7388C43.6562 21.4267 43.6617 21.0349 43.4792 20.7175L42.6123 21.216ZM41.6003 19.456L42.4672 18.9575C42.2658 18.6072 41.8733 18.4126 41.4725 18.4642C41.0717 18.5158 40.7414 18.8036 40.6353 19.1935L41.6003 19.456ZM40.0383 25.198V26.198C40.4895 26.198 40.8848 25.8959 41.0032 25.4605L40.0383 25.198ZM36.9363 25.198L35.9722 24.9323C35.8893 25.2332 35.9516 25.5556 36.1408 25.8039C36.3299 26.0522 36.6241 26.198 36.9363 26.198V25.198ZM40.6103 11.866L41.5743 12.1317C41.6573 11.8308 41.5949 11.5084 41.4058 11.2601C41.2167 11.0118 40.9224 10.866 40.6103 10.866V11.866ZM39.3343 11.866L38.3435 11.7304C38.3044 12.0166 38.3909 12.3058 38.5808 12.5234C38.7707 12.7411 39.0454 12.866 39.3343 12.866V11.866ZM39.6203 9.776V8.776C39.1204 8.776 38.6973 9.14514 38.6295 9.64042L39.6203 9.776ZM50.0263 9.776L51.017 9.91158C51.0562 9.62538 50.9697 9.33623 50.7798 9.11857C50.5899 8.90091 50.3151 8.776 50.0263 8.776V9.776ZM49.7403 11.866L50.617 12.347C50.6758 12.2398 50.7145 12.1227 50.731 12.0016L49.7403 11.866ZM48.3763 14.352L47.4996 13.871C47.3296 14.1808 47.3357 14.5573 47.5158 14.8614C47.6958 15.1655 48.0229 15.352 48.3763 15.352V14.352ZM49.8063 14.352L50.7956 14.4978C50.838 14.2102 50.7531 13.9185 50.5632 13.6985C50.3732 13.4785 50.0969 13.352 49.8063 13.352V14.352ZM49.4983 16.442L50.3327 16.9931C50.4134 16.8709 50.4663 16.7326 50.4876 16.5878L49.4983 16.442ZM46.4183 21.106L45.5838 20.5549C45.377 20.8681 45.363 21.2708 45.5475 21.5976L46.4183 21.106ZM48.7283 25.198V26.198C49.0838 26.198 49.4126 26.0092 49.5919 25.7022C49.7711 25.3951 49.7739 25.016 49.5991 24.7064L48.7283 25.198ZM31.9203 14.44L31.0758 13.9045C30.9989 14.0257 30.949 14.1621 30.9295 14.3044L31.9203 14.44ZM34.7803 9.93L35.6248 10.4655C35.8582 10.0974 35.8263 9.62055 35.546 9.28681L34.7803 9.93ZM34.3183 9.38V8.38C33.9296 8.38 33.5761 8.60527 33.4119 8.95762C33.2477 9.30997 33.3026 9.72554 33.5526 10.0232L34.3183 9.38ZM38.9163 9.38L39.7589 9.91853C39.9556 9.6107 39.9688 9.22008 39.7934 8.89965C39.6179 8.57923 39.2816 8.38 38.9163 8.38V9.38ZM35.6823 14.44L34.8397 13.9015C34.6429 14.2093 34.6297 14.5999 34.8052 14.9203C34.9807 15.2408 35.3169 15.44 35.6823 15.44V14.44ZM38.1903 14.44L39.0324 14.9793C39.2295 14.6715 39.243 14.2807 39.0676 13.96C38.8921 13.6394 38.5558 13.44 38.1903 13.44V14.44ZM34.9783 19.456L34.1361 18.9167C33.939 19.2245 33.9256 19.6153 34.101 19.936C34.2764 20.2566 34.6128 20.456 34.9783 20.456V19.456ZM37.4863 19.456L38.477 19.5916C38.5162 19.3054 38.4297 19.0162 38.2398 18.7986C38.0499 18.5809 37.7751 18.456 37.4863 18.456V19.456ZM37.2003 21.546V22.546C37.7002 22.546 38.1233 22.1769 38.191 21.6816L37.2003 21.546ZM30.9303 21.546L29.9395 21.4104C29.9004 21.6966 29.9869 21.9858 30.1768 22.2034C30.3667 22.4211 30.6414 22.546 30.9303 22.546V21.546ZM31.2163 19.456L30.3737 18.9175C30.2957 19.0395 30.2451 19.177 30.2255 19.3204L31.2163 19.456ZM33.0863 16.53L33.9289 17.0685C34.1256 16.7607 34.1388 16.3701 33.9634 16.0496C33.7879 15.7292 33.4516 15.53 33.0863 15.53V16.53ZM31.6343 16.53L30.6435 16.3944C30.6044 16.6806 30.6909 16.9698 30.8808 17.1874C31.0707 17.4051 31.3454 17.53 31.6343 17.53V16.53ZM36.7823 24.472L36.8483 25.4698C37.3183 25.4387 37.7029 25.0838 37.7716 24.6178L36.7823 24.472ZM30.4683 24.89L29.4775 24.7544C29.4368 25.0521 29.532 25.3523 29.7369 25.572C29.9418 25.7917 30.2346 25.9077 30.5343 25.8878L30.4683 24.89ZM30.7543 22.8L30.6885 21.8022C30.2145 21.8334 29.8279 22.1938 29.7635 22.6644L30.7543 22.8ZM37.0903 22.382L38.0796 22.5278C38.1237 22.2288 38.0302 21.926 37.8252 21.7039C37.6203 21.4818 37.326 21.3643 37.0245 21.3842L37.0903 22.382ZM43.6903 11.866V10.866C43.2406 10.866 42.8462 11.1662 42.7264 11.5997L43.6903 11.866ZM42.3043 16.882L41.3404 16.6157C41.2572 16.9166 41.3194 17.2392 41.5086 17.4877C41.6977 17.7361 41.992 17.882 42.3043 17.882V16.882ZM44.0643 16.882L44.9436 16.4057C44.7688 16.083 44.4313 15.882 44.0643 15.882V16.882ZM44.6363 17.938L43.757 18.4143C43.9269 18.728 44.2512 18.9275 44.6078 18.9376C44.9645 18.9477 45.2996 18.7671 45.4871 18.4635L44.6363 17.938ZM45.5603 16.442L46.4111 16.9675C46.6016 16.659 46.6102 16.2716 46.4336 15.9549C46.257 15.6383 45.9229 15.442 45.5603 15.442V16.442ZM43.7783 16.442L42.8621 16.0412C42.7269 16.3504 42.7567 16.7069 42.9414 16.9893C43.1261 17.2718 43.4408 17.442 43.7783 17.442V16.442ZM45.7803 11.866L46.6964 12.2668C46.8317 11.9576 46.8019 11.6011 46.6172 11.3187C46.4325 11.0362 46.1178 10.866 45.7803 10.866V11.866ZM44.9223 25.198L45.7868 24.6954L45.2368 23.7494L44.3723 24.252L43.5078 24.7546L44.0578 25.7006L44.9223 25.198ZM44.3723 24.252L43.5432 23.6929L42.9052 24.6389L43.7343 25.198L44.5634 25.7571L45.2014 24.8111L44.3723 24.252ZM43.7343 25.198V24.198H40.1703V25.198V26.198H43.7343V25.198ZM40.1703 25.198L41.0227 25.7208L43.4647 21.7388L42.6123 21.216L41.7598 20.6932L39.3178 24.6752L40.1703 25.198ZM42.6123 21.216L43.4792 20.7175L42.4672 18.9575L41.6003 19.456L40.7334 19.9545L41.7454 21.7145L42.6123 21.216ZM41.6003 19.456L40.6353 19.1935L39.0733 24.9355L40.0383 25.198L41.0032 25.4605L42.5652 19.7185L41.6003 19.456ZM40.0383 25.198V24.198H36.9363V25.198V26.198H40.0383V25.198ZM36.9363 25.198L37.9003 25.4637L41.5743 12.1317L40.6103 11.866L39.6462 11.6003L35.9722 24.9323L36.9363 25.198ZM40.6103 11.866V10.866H39.3343V11.866V12.866H40.6103V11.866ZM39.3343 11.866L40.325 12.0016L40.611 9.91158L39.6203 9.776L38.6295 9.64042L38.3435 11.7304L39.3343 11.866ZM39.6203 9.776V10.776H50.0263V9.776V8.776H39.6203V9.776ZM50.0263 9.776L49.0355 9.64042L48.7495 11.7304L49.7403 11.866L50.731 12.0016L51.017 9.91158L50.0263 9.776ZM49.7403 11.866L48.8636 11.385L47.4996 13.871L48.3763 14.352L49.253 14.833L50.617 12.347L49.7403 11.866ZM48.3763 14.352V15.352H49.8063V14.352V13.352H48.3763V14.352ZM49.8063 14.352L48.817 14.2062L48.509 16.2962L49.4983 16.442L50.4876 16.5878L50.7956 14.4978L49.8063 14.352ZM49.4983 16.442L48.6638 15.8909L45.5838 20.5549L46.4183 21.106L47.2527 21.6571L50.3327 16.9931L49.4983 16.442ZM46.4183 21.106L45.5475 21.5976L47.8575 25.6896L48.7283 25.198L49.5991 24.7064L47.2891 20.6144L46.4183 21.106ZM48.7283 25.198V24.198H44.9223V25.198V26.198H48.7283V25.198ZM31.9203 14.44L32.7648 14.9755L35.6248 10.4655L34.7803 9.93L33.9358 9.39446L31.0758 13.9045L31.9203 14.44ZM34.7803 9.93L35.546 9.28681L35.084 8.73681L34.3183 9.38L33.5526 10.0232L34.0146 10.5732L34.7803 9.93ZM34.3183 9.38V10.38H38.9163V9.38V8.38H34.3183V9.38ZM38.9163 9.38L38.0737 8.84147L34.8397 13.9015L35.6823 14.44L36.5249 14.9785L39.7589 9.91853L38.9163 9.38ZM35.6823 14.44V15.44H38.1903V14.44V13.44H35.6823V14.44ZM38.1903 14.44L37.3481 13.9007L34.1361 18.9167L34.9783 19.456L35.8204 19.9953L39.0324 14.9793L38.1903 14.44ZM34.9783 19.456V20.456H37.4863V19.456V18.456H34.9783V19.456ZM37.4863 19.456L36.4955 19.3204L36.2095 21.4104L37.2003 21.546L38.191 21.6816L38.477 19.5916L37.4863 19.456ZM37.2003 21.546V20.546H30.9303V21.546V22.546H37.2003V21.546ZM30.9303 21.546L31.921 21.6816L32.207 19.5916L31.2163 19.456L30.2255 19.3204L29.9395 21.4104L30.9303 21.546ZM31.2163 19.456L32.0589 19.9945L33.9289 17.0685L33.0863 16.53L32.2437 15.9915L30.3737 18.9175L31.2163 19.456ZM33.0863 16.53V15.53H31.6343V16.53V17.53H33.0863V16.53ZM31.6343 16.53L32.625 16.6656L32.911 14.5756L31.9203 14.44L30.9295 14.3044L30.6435 16.3944L31.6343 16.53ZM36.7823 24.472L36.7162 23.4742L30.4022 23.8922L30.4683 24.89L30.5343 25.8878L36.8483 25.4698L36.7823 24.472ZM30.4683 24.89L31.459 25.0256L31.745 22.9356L30.7543 22.8L29.7635 22.6644L29.4775 24.7544L30.4683 24.89ZM30.7543 22.8L30.8201 23.7978L37.1561 23.3798L37.0903 22.382L37.0245 21.3842L30.6885 21.8022L30.7543 22.8ZM37.0903 22.382L36.101 22.2362L35.793 24.3262L36.7823 24.472L37.7716 24.6178L38.0796 22.5278L37.0903 22.382ZM43.6903 11.866L42.7264 11.5997L41.3404 16.6157L42.3043 16.882L43.2682 17.1483L44.6542 12.1323L43.6903 11.866ZM42.3043 16.882V17.882H44.0643V16.882V15.882H42.3043V16.882ZM44.0643 16.882L43.185 17.3583L43.757 18.4143L44.6363 17.938L45.5156 17.4617L44.9436 16.4057L44.0643 16.882ZM44.6363 17.938L45.4871 18.4635L46.4111 16.9675L45.5603 16.442L44.7095 15.9165L43.7855 17.4125L44.6363 17.938ZM45.5603 16.442V15.442H43.7783V16.442V17.442H45.5603V16.442ZM43.7783 16.442L44.6944 16.8428L46.6964 12.2668L45.7803 11.866L44.8641 11.4652L42.8621 16.0412L43.7783 16.442ZM45.7803 11.866V10.866H43.6903V11.866V12.866H45.7803V11.866ZM68.3946 9.776L69.3853 9.91158C69.4245 9.62538 69.338 9.33623 69.1481 9.11857C68.9582 8.90091 68.6834 8.776 68.3946 8.776V9.776ZM68.1086 11.866V12.866C68.6085 12.866 69.0316 12.4969 69.0993 12.0016L68.1086 11.866ZM67.2726 11.866V10.866C66.7746 10.866 66.3525 11.2324 66.2825 11.7254L67.2726 11.866ZM65.6446 23.328L66.6345 23.4694L66.6346 23.4686L65.6446 23.328ZM65.0726 24.384L65.7452 25.1239V25.1239L65.0726 24.384ZM59.5946 24.824L58.8648 24.1403C58.5923 24.4312 58.5185 24.856 58.677 25.2217C58.8355 25.5874 59.196 25.824 59.5946 25.824V24.824ZM61.5526 22.734L62.2823 23.4177C62.4229 23.2676 62.5138 23.0779 62.5427 22.8743L61.5526 22.734ZM63.0926 11.866L64.0827 12.0063C64.1233 11.7195 64.0376 11.4291 63.8476 11.2104C63.6577 10.9916 63.3823 10.866 63.0926 10.866V11.866ZM50.5526 11.866L49.5618 11.7304C49.5226 12.0166 49.6091 12.3058 49.799 12.5234C49.9889 12.7411 50.2637 12.866 50.5526 12.866V11.866ZM50.8386 9.776V8.776C50.3387 8.776 49.9156 9.14514 49.8478 9.64042L50.8386 9.776ZM61.6626 13.12L62.6529 13.259C62.6931 12.9723 62.6071 12.6823 62.4172 12.4639C62.2273 12.2454 61.952 12.12 61.6626 12.12V13.12ZM60.4306 21.898V22.898C60.9291 22.898 61.3516 22.5307 61.4209 22.037L60.4306 21.898ZM50.3986 21.898L49.408 21.7608C49.3683 22.0472 49.4546 22.3368 49.6445 22.5548C49.8344 22.7728 50.1094 22.898 50.3986 22.898V21.898ZM51.4986 13.956L52.4891 14.0932C52.528 13.8125 52.446 13.5286 52.2635 13.3119L51.4986 13.956ZM50.7946 13.12V12.12C50.4056 12.12 50.0519 12.3455 49.8879 12.6982C49.7238 13.0508 49.7791 13.4666 50.0297 13.7641L50.7946 13.12ZM57.5926 15.21L58.5831 15.3474C58.6228 15.061 58.5366 14.7714 58.3467 14.5533C58.1568 14.3352 57.8818 14.21 57.5926 14.21V15.21ZM55.0846 15.21V14.21C54.5854 14.21 54.1627 14.5781 54.0941 15.0726L55.0846 15.21ZM54.4466 19.808L53.4561 19.6706C53.4163 19.957 53.5025 20.2466 53.6924 20.4647C53.8823 20.6828 54.1574 20.808 54.4466 20.808V19.808ZM56.9546 19.808V20.808C57.4537 20.808 57.8765 20.4399 57.9451 19.9454L56.9546 19.808ZM68.3946 9.776L67.4038 9.64042L67.1178 11.7304L68.1086 11.866L69.0993 12.0016L69.3853 9.91158L68.3946 9.776ZM68.1086 11.866V10.866H67.2726V11.866V12.866H68.1086V11.866ZM67.2726 11.866L66.2825 11.7254L64.6545 23.1874L65.6446 23.328L66.6346 23.4686L68.2626 12.0066L67.2726 11.866ZM65.6446 23.328L64.6546 23.1866C64.6306 23.3545 64.5599 23.4986 64.3999 23.6441L65.0726 24.384L65.7452 25.1239C66.2305 24.6828 66.5412 24.1229 66.6345 23.4694L65.6446 23.328ZM65.0726 24.384L64.3999 23.6441C64.2562 23.7747 64.1203 23.824 63.9506 23.824V24.824V25.824C64.6315 25.824 65.2436 25.5799 65.7452 25.1239L65.0726 24.384ZM63.9506 24.824V23.824H59.5946V24.824V25.824H63.9506V24.824ZM59.5946 24.824L60.3243 25.5077L62.2823 23.4177L61.5526 22.734L60.8228 22.0503L58.8648 24.1403L59.5946 24.824ZM61.5526 22.734L62.5427 22.8743L64.0827 12.0063L63.0926 11.866L62.1025 11.7257L60.5625 22.5937L61.5526 22.734ZM63.0926 11.866V10.866H50.5526V11.866V12.866H63.0926V11.866ZM50.5526 11.866L51.5433 12.0016L51.8293 9.91158L50.8386 9.776L49.8478 9.64042L49.5618 11.7304L50.5526 11.866ZM50.8386 9.776V10.776H68.3946V9.776V8.776H50.8386V9.776ZM61.6626 13.12L60.6723 12.981L59.4403 21.759L60.4306 21.898L61.4209 22.037L62.6529 13.259L61.6626 13.12ZM60.4306 21.898V20.898H50.3986V21.898V22.898H60.4306V21.898ZM50.3986 21.898L51.3891 22.0352L52.4891 14.0932L51.4986 13.956L50.508 13.8188L49.408 21.7608L50.3986 21.898ZM51.4986 13.956L52.2635 13.3119L51.5595 12.4759L50.7946 13.12L50.0297 13.7641L50.7337 14.6001L51.4986 13.956ZM50.7946 13.12V14.12H61.6626V13.12V12.12H50.7946V13.12ZM57.5926 15.21V14.21H55.0846V15.21V16.21H57.5926V15.21ZM55.0846 15.21L54.0941 15.0726L53.4561 19.6706L54.4466 19.808L55.4371 19.9454L56.0751 15.3474L55.0846 15.21ZM54.4466 19.808V20.808H56.9546V19.808V18.808H54.4466V19.808ZM56.9546 19.808L57.9451 19.9454L58.5831 15.3474L57.5926 15.21L56.6021 15.0726L55.9641 19.6706L56.9546 19.808ZM88.3688 9.776L89.36 9.90883C89.3983 9.62301 89.3113 9.33456 89.1215 9.11753C88.9316 8.90049 88.6572 8.776 88.3688 8.776V9.776ZM88.0828 11.91V12.91C88.5838 12.91 89.0074 12.5393 89.074 12.0428L88.0828 11.91ZM84.5188 11.91V10.91C84.1085 10.91 83.7398 11.1607 83.5889 11.5423L84.5188 11.91ZM84.1448 12.856L83.2149 12.4883C83.0931 12.7963 83.1317 13.1445 83.3179 13.4183C83.5041 13.6921 83.8137 13.856 84.1448 13.856V12.856ZM87.5768 12.856L88.567 12.9959C88.6075 12.7091 88.5217 12.4189 88.3318 12.2002C88.1419 11.9816 87.8665 11.856 87.5768 11.856V12.856ZM86.4548 20.798V21.798C86.9531 21.798 87.3753 21.4312 87.445 20.9379L86.4548 20.798ZM84.3648 20.798L83.5488 21.376C83.7363 21.6407 84.0405 21.798 84.3648 21.798V20.798ZM83.9908 20.27L83.0007 20.1303C82.965 20.383 83.0273 20.6398 83.1748 20.848L83.9908 20.27ZM84.7608 14.814L85.751 14.9537C85.7915 14.667 85.7057 14.3768 85.5157 14.1582C85.3258 13.9395 85.0504 13.814 84.7608 13.814V14.814ZM80.8888 14.814V13.814C80.3905 13.814 79.9683 14.1809 79.8987 14.6743L80.8888 14.814ZM80.1188 20.27L80.8408 20.9619C80.9859 20.8105 81.0797 20.6174 81.109 20.4097L80.1188 20.27ZM79.6128 20.798V21.798C79.8854 21.798 80.1462 21.6867 80.3348 21.4899L79.6128 20.798ZM77.5008 20.798L76.5107 20.6581C76.4702 20.9449 76.556 21.2351 76.7459 21.4538C76.9358 21.6724 77.2112 21.798 77.5008 21.798V20.798ZM78.6228 12.856V11.856C78.1246 11.856 77.7024 12.2228 77.6327 12.7161L78.6228 12.856ZM81.3508 12.856V13.856C81.7612 13.856 82.1299 13.6053 82.2808 13.2237L81.3508 12.856ZM81.7248 11.91L82.6548 12.2777C82.7765 11.9697 82.738 11.6215 82.5518 11.3477C82.3656 11.0739 82.056 10.91 81.7248 10.91V11.91ZM78.5128 11.91L77.5217 11.7772C77.4834 12.063 77.5704 12.3514 77.7602 12.5685C77.9501 12.7855 78.2245 12.91 78.5128 12.91V11.91ZM78.7988 9.776V8.776C78.2979 8.776 77.8743 9.14666 77.8077 9.64317L78.7988 9.776ZM71.8908 20.27L72.7605 19.7764C72.5829 19.4634 72.2507 19.27 71.8908 19.27V20.27ZM72.3528 21.084L71.4832 21.5776C71.6626 21.8937 71.9994 22.0876 72.3629 22.0839C72.7264 22.0803 73.0592 21.8797 73.2323 21.56L72.3528 21.084ZM73.6508 18.686L74.5303 19.162C74.698 18.8521 74.6903 18.4769 74.5099 18.1742C74.3296 17.8714 74.0032 17.686 73.6508 17.686V18.686ZM68.8108 18.686L67.8205 18.5476C67.7804 18.8341 67.8665 19.124 68.0564 19.3423C68.2463 19.5607 68.5215 19.686 68.8108 19.686V18.686ZM69.0968 16.64V15.64C68.598 15.64 68.1755 16.0076 68.1065 16.5016L69.0968 16.64ZM77.3908 16.64L78.381 16.7801C78.4216 16.4933 78.3358 16.203 78.1459 15.9843C77.9559 15.7656 77.6805 15.64 77.3908 15.64V16.64ZM77.0608 18.972L77.8997 19.5164C77.9789 19.3943 78.0306 19.2563 78.051 19.1121L77.0608 18.972ZM74.0908 23.548V24.548C74.4296 24.548 74.7453 24.3765 74.9297 24.0924L74.0908 23.548ZM74.0468 23.548V22.548C73.6844 22.548 73.3504 22.7441 73.1737 23.0605C72.997 23.377 73.0054 23.7642 73.1956 24.0727L74.0468 23.548ZM75.0368 25.154V26.154C75.3993 26.154 75.7333 25.9579 75.91 25.6415C76.0867 25.325 76.0783 24.9378 75.8881 24.6293L75.0368 25.154ZM71.6048 25.154L70.747 25.6679C70.9277 25.9695 71.2533 26.154 71.6048 26.154V25.154ZM68.6788 20.27V19.27C68.3187 19.27 67.9864 19.4637 67.8088 19.777C67.6313 20.0904 67.6359 20.475 67.821 20.7839L68.6788 20.27ZM75.1468 15.98V16.98C75.4413 16.98 75.7208 16.8502 75.9109 16.6252C76.1009 16.4002 76.182 16.1029 76.1327 15.8126L75.1468 15.98ZM72.4848 15.98L71.4999 16.153C71.5839 16.6312 71.9993 16.98 72.4848 16.98V15.98ZM72.1988 14.352L73.1838 14.179C73.1068 13.7408 72.7496 13.4062 72.3074 13.3579C71.8651 13.3096 71.4442 13.5593 71.2745 13.9705L72.1988 14.352ZM71.6268 15.738V16.738C72.0318 16.738 72.3967 16.4938 72.5512 16.1195L71.6268 15.738ZM69.0088 15.738L68.0868 15.351C67.9572 15.6597 67.9907 16.0128 68.1761 16.2916C68.3614 16.5704 68.674 16.738 69.0088 16.738V15.738ZM71.2528 10.392L72.1749 10.779C72.3239 10.4242 72.2559 10.0153 72.0003 9.72764L71.2528 10.392ZM70.7248 9.798V8.798C70.3311 8.798 69.9739 9.02911 69.8126 9.38834C69.6513 9.74758 69.7158 10.168 69.9774 10.4624L70.7248 9.798ZM77.2808 9.798L78.272 9.66535C78.2056 9.16876 77.7819 8.798 77.2808 8.798V9.798ZM78.0728 15.716V16.716C78.3612 16.716 78.6355 16.5915 78.8254 16.3745C79.0153 16.1575 79.1023 15.8692 79.064 15.5834L78.0728 15.716ZM75.6748 15.716L74.6874 15.8742C74.7651 16.3592 75.1836 16.716 75.6748 16.716V15.716ZM75.0368 11.734L76.0243 11.5758C75.9465 11.0908 75.5281 10.734 75.0368 10.734V11.734ZM73.2988 11.734V10.734C72.8978 10.734 72.5356 10.9736 72.3786 11.3426L73.2988 11.734ZM72.4848 13.648L71.5646 13.2566C71.4332 13.5655 71.4656 13.9197 71.6508 14.1996C71.8359 14.4796 72.1492 14.648 72.4848 14.648V13.648ZM74.7508 13.648L75.7367 13.4806C75.6551 12.9998 75.2385 12.648 74.7508 12.648V13.648ZM83.9908 15.584L84.9814 15.7214C85.0211 15.435 84.9349 15.1454 84.745 14.9273C84.5551 14.7092 84.28 14.584 83.9908 14.584V15.584ZM83.3528 20.182L82.3623 20.0446C82.3314 20.2678 82.3767 20.495 82.491 20.6892L83.3528 20.182ZM86.2788 25.154V26.154C86.6376 26.154 86.9689 25.9618 87.1469 25.6504C87.325 25.339 87.3226 24.956 87.1407 24.6468L86.2788 25.154ZM82.8248 25.154L81.8888 25.5059C82.0354 25.8958 82.4083 26.154 82.8248 26.154V25.154ZM81.7908 22.404L82.7269 22.0521C82.5968 21.7061 82.2865 21.4601 81.92 21.4124C81.5535 21.3646 81.1906 21.5229 80.9762 21.824L81.7908 22.404ZM79.8328 25.154V26.154C80.1563 26.154 80.4598 25.9975 80.6475 25.734L79.8328 25.154ZM76.5768 25.154L75.8092 24.5132C75.5604 24.8111 75.5066 25.2262 75.6711 25.5778C75.8356 25.9294 76.1887 26.154 76.5768 26.154V25.154ZM80.8008 20.094L81.5685 20.7348C81.6879 20.5919 81.7649 20.4185 81.791 20.2341L80.8008 20.094ZM81.4388 15.584V14.584C80.9407 14.584 80.5185 14.9507 80.4487 15.4439L81.4388 15.584ZM88.3688 9.776L87.3777 9.64317L87.0917 11.7772L88.0828 11.91L89.074 12.0428L89.36 9.90883L88.3688 9.776ZM88.0828 11.91V10.91H84.5188V11.91V12.91H88.0828V11.91ZM84.5188 11.91L83.5889 11.5423L83.2149 12.4883L84.1448 12.856L85.0748 13.2237L85.4488 12.2777L84.5188 11.91ZM84.1448 12.856V13.856H87.5768V12.856V11.856H84.1448V12.856ZM87.5768 12.856L86.5867 12.7161L85.4647 20.6581L86.4548 20.798L87.445 20.9379L88.567 12.9959L87.5768 12.856ZM86.4548 20.798V19.798H84.3648V20.798V21.798H86.4548V20.798ZM84.3648 20.798L85.1809 20.22L84.8069 19.692L83.9908 20.27L83.1748 20.848L83.5488 21.376L84.3648 20.798ZM83.9908 20.27L84.981 20.4097L85.751 14.9537L84.7608 14.814L83.7707 14.6743L83.0007 20.1303L83.9908 20.27ZM84.7608 14.814V13.814H80.8888V14.814V15.814H84.7608V14.814ZM80.8888 14.814L79.8987 14.6743L79.1287 20.1303L80.1188 20.27L81.109 20.4097L81.879 14.9537L80.8888 14.814ZM80.1188 20.27L79.3969 19.5781L78.8909 20.1061L79.6128 20.798L80.3348 21.4899L80.8408 20.9619L80.1188 20.27ZM79.6128 20.798V19.798H77.5008V20.798V21.798H79.6128V20.798ZM77.5008 20.798L78.491 20.9379L79.613 12.9959L78.6228 12.856L77.6327 12.7161L76.5107 20.6581L77.5008 20.798ZM78.6228 12.856V13.856H81.3508V12.856V11.856H78.6228V12.856ZM81.3508 12.856L82.2808 13.2237L82.6548 12.2777L81.7248 11.91L80.7949 11.5423L80.4209 12.4883L81.3508 12.856ZM81.7248 11.91V10.91H78.5128V11.91V12.91H81.7248V11.91ZM78.5128 11.91L79.504 12.0428L79.79 9.90883L78.7988 9.776L77.8077 9.64317L77.5217 11.7772L78.5128 11.91ZM78.7988 9.776V10.776H88.3688V9.776V8.776H78.7988V9.776ZM71.8908 20.27L71.0212 20.7636L71.4832 21.5776L72.3528 21.084L73.2225 20.5904L72.7605 19.7764L71.8908 20.27ZM72.3528 21.084L73.2323 21.56L74.5303 19.162L73.6508 18.686L72.7714 18.21L71.4734 20.608L72.3528 21.084ZM73.6508 18.686V17.686H68.8108V18.686V19.686H73.6508V18.686ZM68.8108 18.686L69.8012 18.8244L70.0872 16.7784L69.0968 16.64L68.1065 16.5016L67.8205 18.5476L68.8108 18.686ZM69.0968 16.64V17.64H77.3908V16.64V15.64H69.0968V16.64ZM77.3908 16.64L76.4007 16.4999L76.0707 18.8319L77.0608 18.972L78.051 19.1121L78.381 16.7801L77.3908 16.64ZM77.0608 18.972L76.222 18.4276L73.252 23.0036L74.0908 23.548L74.9297 24.0924L77.8997 19.5164L77.0608 18.972ZM74.0908 23.548V22.548H74.0468V23.548V24.548H74.0908V23.548ZM74.0468 23.548L73.1956 24.0727L74.1856 25.6787L75.0368 25.154L75.8881 24.6293L74.8981 23.0233L74.0468 23.548ZM75.0368 25.154V24.154H71.6048V25.154V26.154H75.0368V25.154ZM71.6048 25.154L72.4627 24.6401L69.5367 19.7561L68.6788 20.27L67.821 20.7839L70.747 25.6679L71.6048 25.154ZM68.6788 20.27V21.27H71.8908V20.27V19.27H68.6788V20.27ZM75.1468 15.98V14.98H72.4848V15.98V16.98H75.1468V15.98ZM72.4848 15.98L73.4698 15.807L73.1838 14.179L72.1988 14.352L71.2139 14.525L71.4999 16.153L72.4848 15.98ZM72.1988 14.352L71.2745 13.9705L70.7025 15.3565L71.6268 15.738L72.5512 16.1195L73.1232 14.7335L72.1988 14.352ZM71.6268 15.738V14.738H69.0088V15.738V16.738H71.6268V15.738ZM69.0088 15.738L69.9309 16.125L72.1749 10.779L71.2528 10.392L70.3308 10.005L68.0868 15.351L69.0088 15.738ZM71.2528 10.392L72.0003 9.72764L71.4723 9.13364L70.7248 9.798L69.9774 10.4624L70.5054 11.0564L71.2528 10.392ZM70.7248 9.798V10.798H77.2808V9.798V8.798H70.7248V9.798ZM77.2808 9.798L76.2897 9.93065L77.0817 15.8486L78.0728 15.716L79.064 15.5834L78.272 9.66535L77.2808 9.798ZM78.0728 15.716V14.716H75.6748V15.716V16.716H78.0728V15.716ZM75.6748 15.716L76.6623 15.5578L76.0243 11.5758L75.0368 11.734L74.0494 11.8922L74.6874 15.8742L75.6748 15.716ZM75.0368 11.734V10.734H73.2988V11.734V12.734H75.0368V11.734ZM73.2988 11.734L72.3786 11.3426L71.5646 13.2566L72.4848 13.648L73.4051 14.0394L74.2191 12.1254L73.2988 11.734ZM72.4848 13.648V14.648H74.7508V13.648V12.648H72.4848V13.648ZM74.7508 13.648L73.765 13.8154L74.161 16.1474L75.1468 15.98L76.1327 15.8126L75.7367 13.4806L74.7508 13.648ZM83.9908 15.584L83.0003 15.4466L82.3623 20.0446L83.3528 20.182L84.3434 20.3194L84.9814 15.7214L83.9908 15.584ZM83.3528 20.182L82.491 20.6892L85.417 25.6612L86.2788 25.154L87.1407 24.6468L84.2147 19.6748L83.3528 20.182ZM86.2788 25.154V24.154H82.8248V25.154V26.154H86.2788V25.154ZM82.8248 25.154L83.7609 24.8021L82.7269 22.0521L81.7908 22.404L80.8548 22.7559L81.8888 25.5059L82.8248 25.154ZM81.7908 22.404L80.9762 21.824L79.0182 24.574L79.8328 25.154L80.6475 25.734L82.6055 22.984L81.7908 22.404ZM79.8328 25.154V24.154H76.5768V25.154V26.154H79.8328V25.154ZM76.5768 25.154L77.3445 25.7948L81.5685 20.7348L80.8008 20.094L80.0332 19.4532L75.8092 24.5132L76.5768 25.154ZM80.8008 20.094L81.791 20.2341L82.429 15.7241L81.4388 15.584L80.4487 15.4439L79.8107 19.9539L80.8008 20.094ZM81.4388 15.584V16.584H83.9908V15.584V14.584H81.4388V15.584Z" fill="white" mask="url(#path-2-outside-1_1_55529)"/>
<path d="M90.458 22.0146C91.1486 21.9253 91.8743 21.9325 92.4902 22.207C92.8203 22.3542 93.1424 22.5899 93.376 22.9424C93.6111 23.2973 93.7001 23.6868 93.6992 24.0469C93.6974 24.7145 93.3902 25.3125 93.082 25.7568L93.0801 25.7588C94.1948 25.7297 95.6622 25.2559 97.3691 23.7949C97.9348 23.3107 98.7853 23.3767 99.2695 23.9424C99.7536 24.5081 99.6877 25.3586 99.1221 25.8428C95.9023 28.5987 92.7798 28.9155 90.583 28C88.4723 29.329 85.3912 30.3738 82.0518 29.9346C81.3135 29.8375 80.7935 29.1601 80.8906 28.4219C80.9878 27.6837 81.6651 27.1636 82.4033 27.2607C84.6195 27.5522 86.7297 26.9959 88.3398 26.1768C88.0497 25.7101 87.8633 25.1808 87.8564 24.6162C87.8486 23.9593 88.0932 23.3103 88.6162 22.8164C89.116 22.3445 89.7725 22.1034 90.458 22.0146Z" fill="#F9C854" stroke="white" stroke-linecap="round"/>
<defs>
<linearGradient id="paint0_linear_1_55529" x1="12.1452" y1="-0.370049" x2="21.3224" y2="34.9925" gradientUnits="userSpaceOnUse">
<stop stop-color="#FEED86"/>
<stop offset="1" stop-color="#FBB55D"/>
</linearGradient>
</defs>
</svg>
