<svg width="101" height="35" viewBox="0 0 101 35" fill="none" xmlns="http://www.w3.org/2000/svg">
<path d="M10.3516 4.41797C11.3967 2.28906 14.0916 1.58931 16.04 2.94141L20.0732 5.74121C20.6961 6.17343 21.4116 6.45403 22.1621 6.56152L27.0234 7.25781C29.3708 7.59397 30.8689 9.94028 30.1855 12.2109L28.7695 16.9131C28.5509 17.6392 28.504 18.4062 28.6338 19.1533L29.4746 23.9912C29.8803 26.3277 28.1112 28.4778 25.7402 28.5293L20.8311 28.6357C20.0731 28.6522 19.3295 28.845 18.6592 29.1992L14.3174 31.4932C12.2205 32.6012 9.62923 31.5829 8.84766 29.3438L7.22949 24.708C6.97963 23.9922 6.56643 23.3445 6.02246 22.8164L2.49902 19.3965C0.797193 17.7447 0.964535 14.9656 2.85254 13.5303L6.76172 10.5586C7.36529 10.0997 7.8534 9.50582 8.1875 8.8252L10.3516 4.41797Z" fill="url(#paint0_linear_1_52335)" stroke="white"/>
<mask id="path-2-outside-1_1_52335" maskUnits="userSpaceOnUse" x="10" y="8" width="80" height="19" fill="black">
<rect fill="white" x="10" y="8" width="80" height="19"/>
<path d="M21.802 17.938L22.066 16.09H17.776L18.062 14H22.352L22.616 12.042L18.722 12.13L19.03 10.04L31.086 9.732L30.8 11.822L26.664 11.932L26.378 14H30.976L30.69 16.09H26.092L25.828 17.938H30.008L29.04 24.78H16.83L17.798 17.938H21.802ZM11.132 25.198L13.2 18.972H16.83L14.762 25.198H11.132ZM13.332 18.136L13.046 14.374H16.676L16.962 18.136H13.332ZM13.97 13.538L13.684 9.776H17.314L17.6 13.538H13.97ZM25.608 22.756L26.004 20.028H21.318L20.922 22.756H25.608ZM42.2823 13.956H41.0943L41.4023 11.866H42.8103L43.2503 10.106L42.5903 9.358H46.7703L46.1543 11.866H50.1803L48.5083 23.746C48.4349 24.1713 48.2369 24.5233 47.9143 24.802C47.5916 25.066 47.2176 25.198 46.7923 25.198H43.2943L45.2303 23.174L46.5283 13.956H45.6263L42.8543 25.198H39.5103L42.2823 13.956ZM39.0263 19.808L38.8943 25.198H35.5503V24.604L30.3143 25.198L30.6223 23.152L32.7343 16.464H31.5463L31.8543 14.374H40.2143L39.9063 16.464H36.0783L34.0763 22.734L35.6163 22.558L35.6823 19.808H39.0263ZM40.3683 10.194L40.0823 12.284H32.5583L32.8443 10.194H40.3683ZM60.4526 15.782L60.7606 13.692H57.1526L57.4386 11.646H59.1986L58.9786 10.15L58.0326 9.358H62.4546L62.7846 11.646H63.9066L64.8526 9.358H68.2846L67.2946 11.646H68.7246L68.4386 13.692H64.8526L64.5446 15.782H67.9326L67.6466 17.806H64.2586L63.9726 19.896H67.9766L67.6906 21.942H63.6866L63.2246 25.198H59.1326L59.5946 21.942H55.7226L56.0086 19.896H59.8806L60.1666 17.806H56.8666L57.1526 15.782H60.4526ZM50.0466 25.132L51.3446 15.914H50.1566L50.4866 13.538H55.3706L54.2046 21.854L55.1946 21.546L54.8646 23.812L50.0466 25.132ZM54.7766 9.776L55.3266 12.724H52.0046L51.4546 9.776H54.7766ZM81.7468 25.132L82.8688 23.922L82.9568 23.174H79.5908L79.3268 25.132H75.8068L76.9508 16.904H87.3568L86.4108 23.68C86.3522 24.1053 86.2055 24.4573 85.9708 24.736C85.7508 25 85.4282 25.132 85.0028 25.132H81.7468ZM80.8448 12.548L80.9548 11.844H77.5888L77.8088 10.194H81.1968L81.2408 9.93L80.8228 9.38H84.8928L84.7608 10.194H88.2368L88.0168 11.844H84.5408L84.4308 12.548H87.4888L87.2688 14.088H84.2108L84.1228 14.792H88.0388L87.8188 16.42H76.6648L76.8848 14.792H80.5368L80.6248 14.088H77.6768L77.8968 12.548H80.8448ZM72.5068 10.304L72.0008 9.38H75.5868L73.3428 25.176H70.3948L72.5068 10.304ZM68.8108 20.82L70.3288 12.57H71.8688L70.4608 20.82H68.8108ZM74.7948 17.08L75.3228 12.57H76.8848L76.4228 17.08H74.7948ZM79.7888 21.7H83.1548L83.2868 20.842H79.9208L79.7888 21.7ZM80.1188 19.39H83.4848L83.5948 18.62H80.2288L80.1188 19.39Z"/>
</mask>
<path d="M21.802 17.938L22.066 16.09H17.776L18.062 14H22.352L22.616 12.042L18.722 12.13L19.03 10.04L31.086 9.732L30.8 11.822L26.664 11.932L26.378 14H30.976L30.69 16.09H26.092L25.828 17.938H30.008L29.04 24.78H16.83L17.798 17.938H21.802ZM11.132 25.198L13.2 18.972H16.83L14.762 25.198H11.132ZM13.332 18.136L13.046 14.374H16.676L16.962 18.136H13.332ZM13.97 13.538L13.684 9.776H17.314L17.6 13.538H13.97ZM25.608 22.756L26.004 20.028H21.318L20.922 22.756H25.608ZM42.2823 13.956H41.0943L41.4023 11.866H42.8103L43.2503 10.106L42.5903 9.358H46.7703L46.1543 11.866H50.1803L48.5083 23.746C48.4349 24.1713 48.2369 24.5233 47.9143 24.802C47.5916 25.066 47.2176 25.198 46.7923 25.198H43.2943L45.2303 23.174L46.5283 13.956H45.6263L42.8543 25.198H39.5103L42.2823 13.956ZM39.0263 19.808L38.8943 25.198H35.5503V24.604L30.3143 25.198L30.6223 23.152L32.7343 16.464H31.5463L31.8543 14.374H40.2143L39.9063 16.464H36.0783L34.0763 22.734L35.6163 22.558L35.6823 19.808H39.0263ZM40.3683 10.194L40.0823 12.284H32.5583L32.8443 10.194H40.3683ZM60.4526 15.782L60.7606 13.692H57.1526L57.4386 11.646H59.1986L58.9786 10.15L58.0326 9.358H62.4546L62.7846 11.646H63.9066L64.8526 9.358H68.2846L67.2946 11.646H68.7246L68.4386 13.692H64.8526L64.5446 15.782H67.9326L67.6466 17.806H64.2586L63.9726 19.896H67.9766L67.6906 21.942H63.6866L63.2246 25.198H59.1326L59.5946 21.942H55.7226L56.0086 19.896H59.8806L60.1666 17.806H56.8666L57.1526 15.782H60.4526ZM50.0466 25.132L51.3446 15.914H50.1566L50.4866 13.538H55.3706L54.2046 21.854L55.1946 21.546L54.8646 23.812L50.0466 25.132ZM54.7766 9.776L55.3266 12.724H52.0046L51.4546 9.776H54.7766ZM81.7468 25.132L82.8688 23.922L82.9568 23.174H79.5908L79.3268 25.132H75.8068L76.9508 16.904H87.3568L86.4108 23.68C86.3522 24.1053 86.2055 24.4573 85.9708 24.736C85.7508 25 85.4282 25.132 85.0028 25.132H81.7468ZM80.8448 12.548L80.9548 11.844H77.5888L77.8088 10.194H81.1968L81.2408 9.93L80.8228 9.38H84.8928L84.7608 10.194H88.2368L88.0168 11.844H84.5408L84.4308 12.548H87.4888L87.2688 14.088H84.2108L84.1228 14.792H88.0388L87.8188 16.42H76.6648L76.8848 14.792H80.5368L80.6248 14.088H77.6768L77.8968 12.548H80.8448ZM72.5068 10.304L72.0008 9.38H75.5868L73.3428 25.176H70.3948L72.5068 10.304ZM68.8108 20.82L70.3288 12.57H71.8688L70.4608 20.82H68.8108ZM74.7948 17.08L75.3228 12.57H76.8848L76.4228 17.08H74.7948ZM79.7888 21.7H83.1548L83.2868 20.842H79.9208L79.7888 21.7ZM80.1188 19.39H83.4848L83.5948 18.62H80.2288L80.1188 19.39Z" fill="#222222"/>
<path d="M21.802 17.938V18.938C22.2997 18.938 22.7216 18.5721 22.792 18.0794L21.802 17.938ZM22.066 16.09L23.056 16.2314C23.0969 15.9444 23.0114 15.6538 22.8215 15.4348C22.6315 15.2158 22.3559 15.09 22.066 15.09V16.09ZM17.776 16.09L16.7852 15.9544C16.7461 16.2406 16.8326 16.5298 17.0225 16.7474C17.2124 16.9651 17.4871 17.09 17.776 17.09V16.09ZM18.062 14V13C17.5621 13 17.139 13.3691 17.0712 13.8644L18.062 14ZM22.352 14V15C22.8526 15 23.2761 14.6298 23.343 14.1336L22.352 14ZM22.616 12.042L23.607 12.1756C23.6461 11.8858 23.5563 11.5934 23.3614 11.3754C23.1664 11.1574 22.8858 11.0356 22.5934 11.0423L22.616 12.042ZM18.722 12.13L17.7327 11.9842C17.6897 12.2757 17.7775 12.5712 17.9725 12.792C18.1676 13.0128 18.4501 13.1364 18.7446 13.1297L18.722 12.13ZM19.03 10.04L19.0045 9.04033C18.5183 9.05275 18.1116 9.4131 18.0407 9.89421L19.03 10.04ZM31.086 9.732L32.0768 9.86758C32.1165 9.57697 32.0267 9.28355 31.8311 9.065C31.6354 8.84646 31.3537 8.72483 31.0605 8.73233L31.086 9.732ZM30.8 11.822L30.8266 12.8216C31.3162 12.8086 31.7244 12.4429 31.7908 11.9576L30.8 11.822ZM26.664 11.932L26.6374 10.9324C26.1483 10.9454 25.7405 11.3104 25.6734 11.795L26.664 11.932ZM26.378 14L25.3874 13.863C25.3478 14.1494 25.4341 14.4389 25.624 14.6569C25.8139 14.8749 26.0889 15 26.378 15V14ZM30.976 14L31.9668 14.1356C32.0059 13.8494 31.9194 13.5602 31.7295 13.3426C31.5396 13.1249 31.2649 13 30.976 13V14ZM30.69 16.09V17.09C31.1899 17.09 31.613 16.7209 31.6808 16.2256L30.69 16.09ZM26.092 16.09V15.09C25.5944 15.09 25.1724 15.4559 25.1021 15.9486L26.092 16.09ZM25.828 17.938L24.8381 17.7966C24.7971 18.0836 24.8826 18.3742 25.0725 18.5932C25.2625 18.8122 25.5381 18.938 25.828 18.938V17.938ZM30.008 17.938L30.9981 18.0781C31.0387 17.7913 30.9529 17.501 30.763 17.2823C30.5731 17.0636 30.2977 16.938 30.008 16.938V17.938ZM29.04 24.78V25.78C29.5382 25.78 29.9604 25.4133 30.0301 24.9201L29.04 24.78ZM16.83 24.78L15.8399 24.6399C15.7993 24.9267 15.8851 25.217 16.075 25.4357C16.2649 25.6544 16.5403 25.78 16.83 25.78V24.78ZM17.798 17.938V16.938C17.2998 16.938 16.8776 17.3047 16.8079 17.7979L17.798 17.938ZM11.132 25.198L10.183 24.8828C10.0817 25.1877 10.1331 25.5226 10.3211 25.7831C10.509 26.0437 10.8107 26.198 11.132 26.198V25.198ZM13.2 18.972V17.972C12.7692 17.972 12.3868 18.2479 12.251 18.6568L13.2 18.972ZM16.83 18.972L17.779 19.2872C17.8803 18.9823 17.8289 18.6474 17.6409 18.3869C17.453 18.1263 17.1513 17.972 16.83 17.972V18.972ZM14.762 25.198V26.198C15.1928 26.198 15.5752 25.9221 15.711 25.5132L14.762 25.198ZM13.332 18.136L12.3349 18.2118C12.3745 18.7332 12.8091 19.136 13.332 19.136V18.136ZM13.046 14.374V13.374C12.7676 13.374 12.5018 13.49 12.3126 13.6942C12.1233 13.8984 12.0278 14.1722 12.0489 14.4498L13.046 14.374ZM16.676 14.374L17.6731 14.2982C17.6335 13.7768 17.1989 13.374 16.676 13.374V14.374ZM16.962 18.136V19.136C17.2404 19.136 17.5062 19.02 17.6954 18.8158C17.8847 18.6116 17.9802 18.3378 17.9591 18.0602L16.962 18.136ZM13.97 13.538L12.9729 13.6138C13.0125 14.1352 13.4471 14.538 13.97 14.538V13.538ZM13.684 9.776V8.776C13.4056 8.776 13.1398 8.89205 12.9506 9.09622C12.7613 9.3004 12.6658 9.57422 12.6869 9.8518L13.684 9.776ZM17.314 9.776L18.3111 9.70019C18.2715 9.17882 17.8369 8.776 17.314 8.776V9.776ZM17.6 13.538V14.538C17.8784 14.538 18.1442 14.422 18.3334 14.2178C18.5227 14.0136 18.6182 13.7398 18.5971 13.4622L17.6 13.538ZM25.608 22.756V23.756C26.1048 23.756 26.5263 23.3913 26.5976 22.8997L25.608 22.756ZM26.004 20.028L26.9936 20.1717C27.0353 19.8844 26.9501 19.5932 26.7602 19.3737C26.5702 19.1541 26.2943 19.028 26.004 19.028V20.028ZM21.318 20.028V19.028C20.8212 19.028 20.3997 19.3927 20.3284 19.8843L21.318 20.028ZM20.922 22.756L19.9324 22.6123C19.8907 22.8996 19.9759 23.1908 20.1658 23.4103C20.3558 23.6299 20.6317 23.756 20.922 23.756V22.756ZM21.802 17.938L22.792 18.0794L23.056 16.2314L22.066 16.09L21.0761 15.9486L20.8121 17.7966L21.802 17.938ZM22.066 16.09V15.09H17.776V16.09V17.09H22.066V16.09ZM17.776 16.09L18.7668 16.2256L19.0528 14.1356L18.062 14L17.0712 13.8644L16.7852 15.9544L17.776 16.09ZM18.062 14V15H22.352V14V13H18.062V14ZM22.352 14L23.343 14.1336L23.607 12.1756L22.616 12.042L21.625 11.9084L21.361 13.8664L22.352 14ZM22.616 12.042L22.5934 11.0423L18.6994 11.1303L18.722 12.13L18.7446 13.1297L22.6386 13.0417L22.616 12.042ZM18.722 12.13L19.7113 12.2758L20.0193 10.1858L19.03 10.04L18.0407 9.89421L17.7327 11.9842L18.722 12.13ZM19.03 10.04L19.0555 11.0397L31.1115 10.7317L31.086 9.732L31.0605 8.73233L19.0045 9.04033L19.03 10.04ZM31.086 9.732L30.0952 9.59642L29.8092 11.6864L30.8 11.822L31.7908 11.9576L32.0768 9.86758L31.086 9.732ZM30.8 11.822L30.7734 10.8224L26.6374 10.9324L26.664 11.932L26.6906 12.9316L30.8266 12.8216L30.8 11.822ZM26.664 11.932L25.6734 11.795L25.3874 13.863L26.378 14L27.3686 14.137L27.6546 12.069L26.664 11.932ZM26.378 14V15H30.976V14V13H26.378V14ZM30.976 14L29.9852 13.8644L29.6992 15.9544L30.69 16.09L31.6808 16.2256L31.9668 14.1356L30.976 14ZM30.69 16.09V15.09H26.092V16.09V17.09H30.69V16.09ZM26.092 16.09L25.1021 15.9486L24.8381 17.7966L25.828 17.938L26.818 18.0794L27.082 16.2314L26.092 16.09ZM25.828 17.938V18.938H30.008V17.938V16.938H25.828V17.938ZM30.008 17.938L29.0179 17.7979L28.0499 24.6399L29.04 24.78L30.0301 24.9201L30.9981 18.0781L30.008 17.938ZM29.04 24.78V23.78H16.83V24.78V25.78H29.04V24.78ZM16.83 24.78L17.8201 24.9201L18.7881 18.0781L17.798 17.938L16.8079 17.7979L15.8399 24.6399L16.83 24.78ZM17.798 17.938V18.938H21.802V17.938V16.938H17.798V17.938ZM11.132 25.198L12.081 25.5132L14.149 19.2872L13.2 18.972L12.251 18.6568L10.183 24.8828L11.132 25.198ZM13.2 18.972V19.972H16.83V18.972V17.972H13.2V18.972ZM16.83 18.972L15.881 18.6568L13.813 24.8828L14.762 25.198L15.711 25.5132L17.779 19.2872L16.83 18.972ZM14.762 25.198V24.198H11.132V25.198V26.198H14.762V25.198ZM13.332 18.136L14.3291 18.0602L14.0431 14.2982L13.046 14.374L12.0489 14.4498L12.3349 18.2118L13.332 18.136ZM13.046 14.374V15.374H16.676V14.374V13.374H13.046V14.374ZM16.676 14.374L15.6789 14.4498L15.9649 18.2118L16.962 18.136L17.9591 18.0602L17.6731 14.2982L16.676 14.374ZM16.962 18.136V17.136H13.332V18.136V19.136H16.962V18.136ZM13.97 13.538L14.9671 13.4622L14.6811 9.70019L13.684 9.776L12.6869 9.8518L12.9729 13.6138L13.97 13.538ZM13.684 9.776V10.776H17.314V9.776V8.776H13.684V9.776ZM17.314 9.776L16.3169 9.8518L16.6029 13.6138L17.6 13.538L18.5971 13.4622L18.3111 9.70019L17.314 9.776ZM17.6 13.538V12.538H13.97V13.538V14.538H17.6V13.538ZM25.608 22.756L26.5976 22.8997L26.9936 20.1717L26.004 20.028L25.0144 19.8843L24.6184 22.6123L25.608 22.756ZM26.004 20.028V19.028H21.318V20.028V21.028H26.004V20.028ZM21.318 20.028L20.3284 19.8843L19.9324 22.6123L20.922 22.756L21.9116 22.8997L22.3076 20.1717L21.318 20.028ZM20.922 22.756V23.756H25.608V22.756V21.756H20.922V22.756ZM42.2823 13.956L43.2532 14.1954C43.3268 13.897 43.259 13.5813 43.0695 13.3393C42.8799 13.0974 42.5897 12.956 42.2823 12.956V13.956ZM41.0943 13.956L40.105 13.8102C40.0626 14.0978 40.1474 14.3895 40.3374 14.6095C40.5273 14.8295 40.8036 14.956 41.0943 14.956V13.956ZM41.4023 11.866V10.866C40.9063 10.866 40.4853 11.2295 40.413 11.7202L41.4023 11.866ZM42.8103 11.866V12.866C43.2691 12.866 43.6691 12.5537 43.7804 12.1085L42.8103 11.866ZM43.2503 10.106L44.2204 10.3485C44.3002 10.0293 44.2179 9.69115 44.0001 9.44438L43.2503 10.106ZM42.5903 9.358V8.358C42.1972 8.358 41.8405 8.58834 41.6788 8.94667C41.5171 9.30501 41.5803 9.72484 41.8404 10.0196L42.5903 9.358ZM46.7703 9.358L47.7414 9.59652C47.8147 9.29818 47.7468 8.98271 47.5572 8.74096C47.3677 8.49921 47.0775 8.358 46.7703 8.358V9.358ZM46.1543 11.866L45.1831 11.6275C45.1099 11.9258 45.1778 12.2413 45.3673 12.483C45.5569 12.7248 45.8471 12.866 46.1543 12.866V11.866ZM50.1803 11.866L51.1705 12.0054C51.2109 11.7187 51.125 11.4285 50.9351 11.21C50.7451 10.9915 50.4698 10.866 50.1803 10.866V11.866ZM48.5083 23.746L49.4937 23.9159C49.4955 23.9058 49.4971 23.8956 49.4985 23.8854L48.5083 23.746ZM47.9143 24.802L48.5475 25.576C48.5544 25.5703 48.5612 25.5646 48.5679 25.5588L47.9143 24.802ZM43.2943 25.198L42.5716 24.5068C42.2949 24.7961 42.2174 25.2227 42.3747 25.5909C42.532 25.9591 42.8939 26.198 43.2943 26.198V25.198ZM45.2303 23.174L45.9529 23.8652C46.0977 23.7139 46.1913 23.5209 46.2205 23.3134L45.2303 23.174ZM46.5283 13.956L47.5185 14.0954C47.5589 13.8087 47.473 13.5186 47.2831 13.3C47.0932 13.0815 46.8178 12.956 46.5283 12.956V13.956ZM45.6263 13.956V12.956C45.1662 12.956 44.7655 13.2699 44.6554 13.7166L45.6263 13.956ZM42.8543 25.198V26.198C43.3144 26.198 43.7151 25.8841 43.8252 25.4374L42.8543 25.198ZM39.5103 25.198L38.5394 24.9586C38.4658 25.257 38.5335 25.5727 38.7231 25.8147C38.9126 26.0566 39.2029 26.198 39.5103 26.198V25.198ZM39.0263 19.808L40.026 19.8325C40.0326 19.5631 39.9302 19.3025 39.742 19.1096C39.5538 18.9167 39.2957 18.808 39.0263 18.808V19.808ZM38.8943 25.198V26.198C39.437 26.198 39.8807 25.7651 39.894 25.2225L38.8943 25.198ZM35.5503 25.198H34.5503C34.5503 25.7503 34.998 26.198 35.5503 26.198V25.198ZM35.5503 24.604H36.5503C36.5503 24.3192 36.4288 24.0478 36.2163 23.8581C36.0039 23.6684 35.7206 23.5783 35.4376 23.6104L35.5503 24.604ZM30.3143 25.198L29.3254 25.0491C29.2791 25.3567 29.3785 25.6682 29.5944 25.8921C29.8103 26.116 30.118 26.2267 30.427 26.1916L30.3143 25.198ZM30.6223 23.152L29.6687 22.8509C29.653 22.9006 29.6412 22.9515 29.6334 23.0031L30.6223 23.152ZM32.7343 16.464L33.6879 16.7651C33.7838 16.4613 33.7292 16.1299 33.5409 15.8729C33.3525 15.6159 33.0529 15.464 32.7343 15.464V16.464ZM31.5463 16.464L30.557 16.3182C30.5146 16.6058 30.5994 16.8975 30.7894 17.1175C30.9793 17.3375 31.2556 17.464 31.5463 17.464V16.464ZM31.8543 14.374V13.374C31.3583 13.374 30.9373 13.7375 30.865 14.2282L31.8543 14.374ZM40.2143 14.374L41.2036 14.5198C41.246 14.2322 41.1611 13.9405 40.9712 13.7205C40.7812 13.5005 40.5049 13.374 40.2143 13.374V14.374ZM39.9063 16.464V17.464C40.4023 17.464 40.8233 17.1005 40.8956 16.6098L39.9063 16.464ZM36.0783 16.464V15.464C35.6432 15.464 35.258 15.7453 35.1257 16.1598L36.0783 16.464ZM34.0763 22.734L33.1237 22.4298C33.0204 22.7531 33.0882 23.1066 33.3036 23.3688C33.519 23.631 33.8527 23.7661 34.1898 23.7275L34.0763 22.734ZM35.6163 22.558L35.7298 23.5515C36.2258 23.4948 36.604 23.0811 36.616 22.582L35.6163 22.558ZM35.6823 19.808V18.808C35.1393 18.808 34.6956 19.2412 34.6826 19.784L35.6823 19.808ZM40.3683 10.194L41.359 10.3296C41.3982 10.0434 41.3117 9.75423 41.1218 9.53657C40.9319 9.31891 40.6571 9.194 40.3683 9.194V10.194ZM40.0823 12.284V13.284C40.5822 13.284 41.0053 12.9149 41.073 12.4196L40.0823 12.284ZM32.5583 12.284L31.5675 12.1484C31.5284 12.4346 31.6149 12.7238 31.8048 12.9414C31.9947 13.1591 32.2694 13.284 32.5583 13.284V12.284ZM32.8443 10.194V9.194C32.3444 9.194 31.9213 9.56314 31.8535 10.0584L32.8443 10.194ZM42.2823 13.956V12.956H41.0943V13.956V14.956H42.2823V13.956ZM41.0943 13.956L42.0836 14.1018L42.3916 12.0118L41.4023 11.866L40.413 11.7202L40.105 13.8102L41.0943 13.956ZM41.4023 11.866V12.866H42.8103V11.866V10.866H41.4023V11.866ZM42.8103 11.866L43.7804 12.1085L44.2204 10.3485L43.2503 10.106L42.2801 9.86346L41.8401 11.6235L42.8103 11.866ZM43.2503 10.106L44.0001 9.44438L43.3401 8.69638L42.5903 9.358L41.8404 10.0196L42.5004 10.7676L43.2503 10.106ZM42.5903 9.358V10.358H46.7703V9.358V8.358H42.5903V9.358ZM46.7703 9.358L45.7991 9.11947L45.1831 11.6275L46.1543 11.866L47.1254 12.1045L47.7414 9.59652L46.7703 9.358ZM46.1543 11.866V12.866H50.1803V11.866V10.866H46.1543V11.866ZM50.1803 11.866L49.19 11.7266L47.518 23.6066L48.5083 23.746L49.4985 23.8854L51.1705 12.0054L50.1803 11.866ZM48.5083 23.746L47.5228 23.5761C47.4883 23.7763 47.4058 23.9199 47.2607 24.0452L47.9143 24.802L48.5679 25.5588C49.0681 25.1268 49.3816 24.5663 49.4937 23.9159L48.5083 23.746ZM47.9143 24.802L47.281 24.028C47.1409 24.1427 46.9919 24.198 46.7923 24.198V25.198V26.198C47.4434 26.198 48.0423 25.9893 48.5475 25.576L47.9143 24.802ZM46.7923 25.198V24.198H43.2943V25.198V26.198H46.7923V25.198ZM43.2943 25.198L44.0169 25.8892L45.9529 23.8652L45.2303 23.174L44.5076 22.4828L42.5716 24.5068L43.2943 25.198ZM45.2303 23.174L46.2205 23.3134L47.5185 14.0954L46.5283 13.956L45.5381 13.8166L44.2401 23.0346L45.2303 23.174ZM46.5283 13.956V12.956H45.6263V13.956V14.956H46.5283V13.956ZM45.6263 13.956L44.6554 13.7166L41.8834 24.9586L42.8543 25.198L43.8252 25.4374L46.5972 14.1954L45.6263 13.956ZM42.8543 25.198V24.198H39.5103V25.198V26.198H42.8543V25.198ZM39.5103 25.198L40.4812 25.4374L43.2532 14.1954L42.2823 13.956L41.3114 13.7166L38.5394 24.9586L39.5103 25.198ZM39.0263 19.808L38.0266 19.7835L37.8946 25.1735L38.8943 25.198L39.894 25.2225L40.026 19.8325L39.0263 19.808ZM38.8943 25.198V24.198H35.5503V25.198V26.198H38.8943V25.198ZM35.5503 25.198H36.5503V24.604H35.5503H34.5503V25.198H35.5503ZM35.5503 24.604L35.4376 23.6104L30.2016 24.2044L30.3143 25.198L30.427 26.1916L35.663 25.5976L35.5503 24.604ZM30.3143 25.198L31.3031 25.3469L31.6111 23.3009L30.6223 23.152L29.6334 23.0031L29.3254 25.0491L30.3143 25.198ZM30.6223 23.152L31.5759 23.4531L33.6879 16.7651L32.7343 16.464L31.7807 16.1629L29.6687 22.8509L30.6223 23.152ZM32.7343 16.464V15.464H31.5463V16.464V17.464H32.7343V16.464ZM31.5463 16.464L32.5356 16.6098L32.8436 14.5198L31.8543 14.374L30.865 14.2282L30.557 16.3182L31.5463 16.464ZM31.8543 14.374V15.374H40.2143V14.374V13.374H31.8543V14.374ZM40.2143 14.374L39.225 14.2282L38.917 16.3182L39.9063 16.464L40.8956 16.6098L41.2036 14.5198L40.2143 14.374ZM39.9063 16.464V15.464H36.0783V16.464V17.464H39.9063V16.464ZM36.0783 16.464L35.1257 16.1598L33.1237 22.4298L34.0763 22.734L35.0289 23.0382L37.0309 16.7682L36.0783 16.464ZM34.0763 22.734L34.1898 23.7275L35.7298 23.5515L35.6163 22.558L35.5027 21.5645L33.9627 21.7405L34.0763 22.734ZM35.6163 22.558L36.616 22.582L36.682 19.832L35.6823 19.808L34.6826 19.784L34.6166 22.534L35.6163 22.558ZM35.6823 19.808V20.808H39.0263V19.808V18.808H35.6823V19.808ZM40.3683 10.194L39.3775 10.0584L39.0915 12.1484L40.0823 12.284L41.073 12.4196L41.359 10.3296L40.3683 10.194ZM40.0823 12.284V11.284H32.5583V12.284V13.284H40.0823V12.284ZM32.5583 12.284L33.549 12.4196L33.835 10.3296L32.8443 10.194L31.8535 10.0584L31.5675 12.1484L32.5583 12.284ZM32.8443 10.194V11.194H40.3683V10.194V9.194H32.8443V10.194ZM60.4526 15.782V16.782C60.9485 16.782 61.3696 16.4185 61.4419 15.9278L60.4526 15.782ZM60.7606 13.692L61.7499 13.8378C61.7923 13.5502 61.7074 13.2585 61.5175 13.0385C61.3275 12.8185 61.0512 12.692 60.7606 12.692V13.692ZM57.1526 13.692L56.1622 13.5536C56.1221 13.8401 56.2082 14.13 56.3981 14.3483C56.588 14.5667 56.8632 14.692 57.1526 14.692V13.692ZM57.4386 11.646V10.646C56.9398 10.646 56.5172 11.0136 56.4482 11.5076L57.4386 11.646ZM59.1986 11.646V12.646C59.4892 12.646 59.7654 12.5196 59.9554 12.2996C60.1453 12.0797 60.2302 11.788 60.1879 11.5005L59.1986 11.646ZM58.9786 10.15L59.9679 10.0045C59.9322 9.76182 59.8086 9.54071 59.6205 9.38324L58.9786 10.15ZM58.0326 9.358V8.358C57.612 8.358 57.2363 8.62119 57.0927 9.0165C56.949 9.41182 57.0681 9.85476 57.3906 10.1248L58.0326 9.358ZM62.4546 9.358L63.4443 9.21525C63.3734 8.7232 62.9517 8.358 62.4546 8.358V9.358ZM62.7846 11.646L61.7948 11.7888C61.8658 12.2808 62.2874 12.646 62.7846 12.646V11.646ZM63.9066 11.646V12.646C64.3113 12.646 64.6761 12.4021 64.8307 12.0281L63.9066 11.646ZM64.8526 9.358V8.358C64.4479 8.358 64.0831 8.60192 63.9284 8.97591L64.8526 9.358ZM68.2846 9.358L69.2023 9.75511C69.3361 9.44604 69.3053 9.09042 69.1204 8.80896C68.9355 8.5275 68.6213 8.358 68.2846 8.358V9.358ZM67.2946 11.646L66.3768 11.2489C66.2431 11.558 66.2739 11.9136 66.4588 12.195C66.6437 12.4765 66.9578 12.646 67.2946 12.646V11.646ZM68.7246 11.646L69.7149 11.7844C69.755 11.4979 69.669 11.208 69.479 10.9897C69.2891 10.7713 69.0139 10.646 68.7246 10.646V11.646ZM68.4386 13.692V14.692C68.9374 14.692 69.3599 14.3244 69.4289 13.8304L68.4386 13.692ZM64.8526 13.692V12.692C64.3566 12.692 63.9356 13.0555 63.8632 13.5462L64.8526 13.692ZM64.5446 15.782L63.5552 15.6362C63.5129 15.9238 63.5977 16.2155 63.7877 16.4355C63.9776 16.6555 64.2539 16.782 64.5446 16.782V15.782ZM67.9326 15.782L68.9227 15.9219C68.9632 15.6351 68.8774 15.3449 68.6875 15.1262C68.4976 14.9076 68.2222 14.782 67.9326 14.782V15.782ZM67.6466 17.806V18.806C68.1448 18.806 68.567 18.4392 68.6367 17.9459L67.6466 17.806ZM64.2586 17.806V16.806C63.7587 16.806 63.3356 17.1751 63.2678 17.6704L64.2586 17.806ZM63.9726 19.896L62.9818 19.7604C62.9426 20.0466 63.0291 20.3358 63.219 20.5534C63.409 20.7711 63.6837 20.896 63.9726 20.896V19.896ZM67.9766 19.896L68.9669 20.0344C69.007 19.7479 68.921 19.458 68.731 19.2397C68.5411 19.0213 68.2659 18.896 67.9766 18.896V19.896ZM67.6906 21.942V22.942C68.1894 22.942 68.6119 22.5744 68.6809 22.0804L67.6906 21.942ZM63.6866 21.942V20.942C63.1886 20.942 62.7664 21.3084 62.6965 21.8015L63.6866 21.942ZM63.2246 25.198V26.198C63.7226 26.198 64.1447 25.8316 64.2146 25.3385L63.2246 25.198ZM59.1326 25.198L58.1425 25.0575C58.1018 25.3444 58.1875 25.6348 58.3774 25.8536C58.5674 26.0723 58.8428 26.198 59.1326 26.198V25.198ZM59.5946 21.942L60.5846 22.0825C60.6253 21.7956 60.5396 21.5052 60.3497 21.2864C60.1598 21.0677 59.8843 20.942 59.5946 20.942V21.942ZM55.7226 21.942L54.7322 21.8036C54.6921 22.0901 54.7782 22.38 54.9681 22.5983C55.158 22.8167 55.4332 22.942 55.7226 22.942V21.942ZM56.0086 19.896V18.896C55.5098 18.896 55.0872 19.2636 55.0182 19.7576L56.0086 19.896ZM59.8806 19.896V20.896C60.3805 20.896 60.8036 20.5269 60.8713 20.0316L59.8806 19.896ZM60.1666 17.806L61.1573 17.9416C61.1965 17.6554 61.11 17.3662 60.9201 17.1486C60.7302 16.9309 60.4554 16.806 60.1666 16.806V17.806ZM56.8666 17.806L55.8764 17.6661C55.8359 17.9529 55.9217 18.2431 56.1116 18.4618C56.3015 18.6804 56.5769 18.806 56.8666 18.806V17.806ZM57.1526 15.782V14.782C56.6543 14.782 56.2321 15.1488 56.1624 15.6421L57.1526 15.782ZM50.0466 25.132L49.0563 24.9926C49.0094 25.3258 49.1333 25.6604 49.3859 25.8827C49.6386 26.1051 49.9862 26.1854 50.3108 26.0965L50.0466 25.132ZM51.3446 15.914L52.3348 16.0534C52.3752 15.7667 52.2893 15.4766 52.0994 15.258C51.9094 15.0395 51.6341 14.914 51.3446 14.914V15.914ZM50.1566 15.914L49.1661 15.7764C49.1263 16.0629 49.2125 16.3526 49.4024 16.5707C49.5923 16.7888 49.8673 16.914 50.1566 16.914V15.914ZM50.4866 13.538V12.538C49.9874 12.538 49.5647 12.906 49.4961 13.4004L50.4866 13.538ZM55.3706 13.538L56.3609 13.6769C56.4011 13.3902 56.3151 13.1002 56.1252 12.8818C55.9352 12.6634 55.66 12.538 55.3706 12.538V13.538ZM54.2046 21.854L53.2142 21.7151C53.1667 22.0544 53.2961 22.3943 53.5571 22.6161C53.8182 22.8379 54.1746 22.9106 54.5016 22.8089L54.2046 21.854ZM55.1946 21.546L56.1841 21.6901C56.2336 21.3502 56.1052 21.0087 55.844 20.7856C55.5829 20.5625 55.2255 20.4891 54.8975 20.5911L55.1946 21.546ZM54.8646 23.812L55.1288 24.7765C55.5121 24.6714 55.7968 24.3494 55.8541 23.9561L54.8646 23.812ZM54.7766 9.776L55.7596 9.5926C55.6713 9.11921 55.2581 8.776 54.7766 8.776V9.776ZM55.3266 12.724V13.724C55.6239 13.724 55.9058 13.5917 56.0958 13.363C56.2858 13.1343 56.3641 12.8329 56.3096 12.5406L55.3266 12.724ZM52.0046 12.724L51.0215 12.9074C51.1098 13.3808 51.523 13.724 52.0046 13.724V12.724ZM51.4546 9.776V8.776C51.1572 8.776 50.8753 8.90831 50.6853 9.13702C50.4954 9.36573 50.417 9.66712 50.4715 9.9594L51.4546 9.776ZM60.4526 15.782L61.4419 15.9278L61.7499 13.8378L60.7606 13.692L59.7712 13.5462L59.4632 15.6362L60.4526 15.782ZM60.7606 13.692V12.692H57.1526V13.692V14.692H60.7606V13.692ZM57.1526 13.692L58.1429 13.8304L58.4289 11.7844L57.4386 11.646L56.4482 11.5076L56.1622 13.5536L57.1526 13.692ZM57.4386 11.646V12.646H59.1986V11.646V10.646H57.4386V11.646ZM59.1986 11.646L60.1879 11.5005L59.9679 10.0045L58.9786 10.15L57.9892 10.2955L58.2092 11.7915L59.1986 11.646ZM58.9786 10.15L59.6205 9.38324L58.6745 8.59124L58.0326 9.358L57.3906 10.1248L58.3366 10.9168L58.9786 10.15ZM58.0326 9.358V10.358H62.4546V9.358V8.358H58.0326V9.358ZM62.4546 9.358L61.4648 9.50075L61.7948 11.7888L62.7846 11.646L63.7743 11.5032L63.4443 9.21525L62.4546 9.358ZM62.7846 11.646V12.646H63.9066V11.646V10.646H62.7846V11.646ZM63.9066 11.646L64.8307 12.0281L65.7767 9.74009L64.8526 9.358L63.9284 8.97591L62.9824 11.2639L63.9066 11.646ZM64.8526 9.358V10.358H68.2846V9.358V8.358H64.8526V9.358ZM68.2846 9.358L67.3668 8.96089L66.3768 11.2489L67.2946 11.646L68.2123 12.0431L69.2023 9.75511L68.2846 9.358ZM67.2946 11.646V12.646H68.7246V11.646V10.646H67.2946V11.646ZM68.7246 11.646L67.7342 11.5076L67.4482 13.5536L68.4386 13.692L69.4289 13.8304L69.7149 11.7844L68.7246 11.646ZM68.4386 13.692V12.692H64.8526V13.692V14.692H68.4386V13.692ZM64.8526 13.692L63.8632 13.5462L63.5552 15.6362L64.5446 15.782L65.5339 15.9278L65.8419 13.8378L64.8526 13.692ZM64.5446 15.782V16.782H67.9326V15.782V14.782H64.5446V15.782ZM67.9326 15.782L66.9424 15.6421L66.6564 17.6661L67.6466 17.806L68.6367 17.9459L68.9227 15.9219L67.9326 15.782ZM67.6466 17.806V16.806H64.2586V17.806V18.806H67.6466V17.806ZM64.2586 17.806L63.2678 17.6704L62.9818 19.7604L63.9726 19.896L64.9633 20.0316L65.2493 17.9416L64.2586 17.806ZM63.9726 19.896V20.896H67.9766V19.896V18.896H63.9726V19.896ZM67.9766 19.896L66.9862 19.7576L66.7002 21.8036L67.6906 21.942L68.6809 22.0804L68.9669 20.0344L67.9766 19.896ZM67.6906 21.942V20.942H63.6866V21.942V22.942H67.6906V21.942ZM63.6866 21.942L62.6965 21.8015L62.2345 25.0575L63.2246 25.198L64.2146 25.3385L64.6766 22.0825L63.6866 21.942ZM63.2246 25.198V24.198H59.1326V25.198V26.198H63.2246V25.198ZM59.1326 25.198L60.1226 25.3385L60.5846 22.0825L59.5946 21.942L58.6045 21.8015L58.1425 25.0575L59.1326 25.198ZM59.5946 21.942V20.942H55.7226V21.942V22.942H59.5946V21.942ZM55.7226 21.942L56.7129 22.0804L56.9989 20.0344L56.0086 19.896L55.0182 19.7576L54.7322 21.8036L55.7226 21.942ZM56.0086 19.896V20.896H59.8806V19.896V18.896H56.0086V19.896ZM59.8806 19.896L60.8713 20.0316L61.1573 17.9416L60.1666 17.806L59.1758 17.6704L58.8898 19.7604L59.8806 19.896ZM60.1666 17.806V16.806H56.8666V17.806V18.806H60.1666V17.806ZM56.8666 17.806L57.8567 17.9459L58.1427 15.9219L57.1526 15.782L56.1624 15.6421L55.8764 17.6661L56.8666 17.806ZM57.1526 15.782V16.782H60.4526V15.782V14.782H57.1526V15.782ZM50.0466 25.132L51.0368 25.2714L52.3348 16.0534L51.3446 15.914L50.3543 15.7746L49.0563 24.9926L50.0466 25.132ZM51.3446 15.914V14.914H50.1566V15.914V16.914H51.3446V15.914ZM50.1566 15.914L51.1471 16.0516L51.4771 13.6756L50.4866 13.538L49.4961 13.4004L49.1661 15.7764L50.1566 15.914ZM50.4866 13.538V14.538H55.3706V13.538V12.538H50.4866V13.538ZM55.3706 13.538L54.3802 13.3991L53.2142 21.7151L54.2046 21.854L55.1949 21.9929L56.3609 13.6769L55.3706 13.538ZM54.2046 21.854L54.5016 22.8089L55.4916 22.5009L55.1946 21.546L54.8975 20.5911L53.9075 20.8991L54.2046 21.854ZM55.1946 21.546L54.205 21.4019L53.875 23.6679L54.8646 23.812L55.8541 23.9561L56.1841 21.6901L55.1946 21.546ZM54.8646 23.812L54.6003 22.8475L49.7823 24.1675L50.0466 25.132L50.3108 26.0965L55.1288 24.7765L54.8646 23.812ZM54.7766 9.776L53.7935 9.9594L54.3435 12.9074L55.3266 12.724L56.3096 12.5406L55.7596 9.5926L54.7766 9.776ZM55.3266 12.724V11.724H52.0046V12.724V13.724H55.3266V12.724ZM52.0046 12.724L52.9876 12.5406L52.4376 9.5926L51.4546 9.776L50.4715 9.9594L51.0215 12.9074L52.0046 12.724ZM51.4546 9.776V10.776H54.7766V9.776V8.776H51.4546V9.776ZM81.7468 25.132L81.0136 24.4521C80.7432 24.7436 80.6713 25.1676 80.8303 25.532C80.9894 25.8964 81.3492 26.132 81.7468 26.132V25.132ZM82.8688 23.922L83.6021 24.6019C83.7462 24.4465 83.8372 24.2493 83.862 24.0388L82.8688 23.922ZM82.9568 23.174L83.95 23.2908C83.9834 23.0072 83.8939 22.7229 83.7041 22.5095C83.5144 22.2961 83.2424 22.174 82.9568 22.174V23.174ZM79.5908 23.174V22.174C79.0902 22.174 78.6667 22.5442 78.5998 23.0404L79.5908 23.174ZM79.3268 25.132V26.132C79.8275 26.132 80.251 25.7618 80.3179 25.2656L79.3268 25.132ZM75.8068 25.132L74.8164 24.9943C74.7765 25.2808 74.8627 25.5705 75.0526 25.7886C75.2425 26.0068 75.5176 26.132 75.8068 26.132V25.132ZM76.9508 16.904V15.904C76.4518 15.904 76.0291 16.272 75.9604 16.7663L76.9508 16.904ZM87.3568 16.904L88.3472 17.0423C88.3872 16.7557 88.3012 16.4659 88.1113 16.2476C87.9213 16.0293 87.6462 15.904 87.3568 15.904V16.904ZM86.4108 23.68L85.4204 23.5417L85.4202 23.5434L86.4108 23.68ZM85.9708 24.736L85.2059 24.0919L85.2026 24.0958L85.9708 24.736ZM80.8448 12.548V13.548C81.3375 13.548 81.7568 13.1892 81.8329 12.7024L80.8448 12.548ZM80.9548 11.844L81.9429 11.9984C81.988 11.7097 81.9046 11.4157 81.7146 11.1938C81.5246 10.9718 81.247 10.844 80.9548 10.844V11.844ZM77.5888 11.844L76.5976 11.7118C76.5595 11.9976 76.6466 12.2858 76.8365 12.5027C77.0263 12.7196 77.3006 12.844 77.5888 12.844V11.844ZM77.8088 10.194V9.194C77.3076 9.194 76.8839 9.56503 76.8176 10.0618L77.8088 10.194ZM81.1968 10.194V11.194C81.6857 11.194 82.1029 10.8406 82.1832 10.3584L81.1968 10.194ZM81.2408 9.93L82.2272 10.0944C82.2725 9.82265 82.2037 9.54425 82.037 9.32491L81.2408 9.93ZM80.8228 9.38V8.38C80.4429 8.38 80.0958 8.59529 79.927 8.93564C79.7582 9.27599 79.7968 9.6826 80.0267 9.98508L80.8228 9.38ZM84.8928 9.38L85.88 9.54007C85.9269 9.25066 85.8444 8.95524 85.6544 8.73195C85.4644 8.50866 85.186 8.38 84.8928 8.38V9.38ZM84.7608 10.194L83.7737 10.0339C83.7268 10.3233 83.8092 10.6188 83.9992 10.842C84.1892 11.0653 84.4677 11.194 84.7608 11.194V10.194ZM88.2368 10.194L89.2281 10.3262C89.2662 10.0404 89.1791 9.75216 88.9892 9.53527C88.7993 9.31839 88.5251 9.194 88.2368 9.194V10.194ZM88.0168 11.844V12.844C88.5181 12.844 88.9418 12.473 89.0081 11.9762L88.0168 11.844ZM84.5408 11.844V10.844C84.0482 10.844 83.6289 11.2028 83.5528 11.6896L84.5408 11.844ZM84.4308 12.548L83.4428 12.3936C83.3977 12.6823 83.4811 12.9763 83.6711 13.1982C83.8611 13.4202 84.1387 13.548 84.4308 13.548V12.548ZM87.4888 12.548L88.4788 12.6894C88.5198 12.4024 88.4342 12.1118 88.2443 11.8928C88.0544 11.6738 87.7787 11.548 87.4888 11.548V12.548ZM87.2688 14.088V15.088C87.7665 15.088 88.1884 14.7221 88.2588 14.2294L87.2688 14.088ZM84.2108 14.088V13.088C83.7065 13.088 83.2811 13.4635 83.2186 13.964L84.2108 14.088ZM84.1228 14.792L83.1306 14.668C83.095 14.9526 83.1833 15.2388 83.3732 15.4538C83.563 15.6688 83.836 15.792 84.1228 15.792V14.792ZM88.0388 14.792L89.0298 14.9259C89.0685 14.6399 88.9817 14.3512 88.7918 14.1339C88.6019 13.9167 88.3274 13.792 88.0388 13.792V14.792ZM87.8188 16.42V17.42C88.3194 17.42 88.7428 17.0499 88.8098 16.5539L87.8188 16.42ZM76.6648 16.42L75.6739 16.2861C75.6352 16.5721 75.722 16.8608 75.9119 17.0781C76.1018 17.2953 76.3763 17.42 76.6648 17.42V16.42ZM76.8848 14.792V13.792C76.3843 13.792 75.9609 14.1621 75.8939 14.6581L76.8848 14.792ZM80.5368 14.792V15.792C81.0412 15.792 81.4666 15.4165 81.5291 14.916L80.5368 14.792ZM80.6248 14.088L81.6171 14.212C81.6527 13.9274 81.5643 13.6412 81.3745 13.4262C81.1847 13.2112 80.9117 13.088 80.6248 13.088V14.088ZM77.6768 14.088L76.6869 13.9466C76.6459 14.2336 76.7315 14.5242 76.9214 14.7432C77.1113 14.9622 77.387 15.088 77.6768 15.088V14.088ZM77.8968 12.548V11.548C77.3992 11.548 76.9773 11.9139 76.9069 12.4066L77.8968 12.548ZM72.5068 10.304L73.4969 10.4446C73.5273 10.2309 73.4876 10.013 73.3839 9.82368L72.5068 10.304ZM72.0008 9.38V8.38C71.6476 8.38 71.3206 8.56636 71.1405 8.87025C70.9605 9.17415 70.9541 9.55049 71.1237 9.86031L72.0008 9.38ZM75.5868 9.38L76.5769 9.52065C76.6177 9.23377 76.532 8.94333 76.342 8.7245C76.1521 8.50568 75.8766 8.38 75.5868 8.38V9.38ZM73.3428 25.176V26.176C73.8408 26.176 74.2629 25.8096 74.3329 25.3166L73.3428 25.176ZM70.3948 25.176L69.4048 25.0354C69.364 25.3223 69.4497 25.6127 69.6397 25.8315C69.8296 26.0503 70.1051 26.176 70.3948 26.176V25.176ZM68.8108 20.82L67.8274 20.639C67.7736 20.931 67.8524 21.2318 68.0424 21.4599C68.2324 21.6881 68.514 21.82 68.8108 21.82V20.82ZM70.3288 12.57V11.57C69.8464 11.57 69.4327 11.9145 69.3454 12.389L70.3288 12.57ZM71.8688 12.57L72.8546 12.7382C72.9042 12.4478 72.8231 12.1503 72.6331 11.9251C72.4431 11.6999 72.1635 11.57 71.8688 11.57V12.57ZM70.4608 20.82V21.82C70.9482 21.82 71.3646 21.4687 71.4466 20.9882L70.4608 20.82ZM74.7948 17.08L73.8016 16.9637C73.7684 17.2473 73.858 17.5315 74.0478 17.7447C74.2375 17.958 74.5094 18.08 74.7948 18.08V17.08ZM75.3228 12.57V11.57C74.8155 11.57 74.3886 11.9499 74.3296 12.4537L75.3228 12.57ZM76.8848 12.57L77.8796 12.6719C77.9085 12.3904 77.8167 12.1099 77.6271 11.8999C77.4375 11.6899 77.1678 11.57 76.8848 11.57V12.57ZM76.4228 17.08V18.08C76.9357 18.08 77.3654 17.6921 77.4176 17.1819L76.4228 17.08ZM79.7888 21.7L78.8005 21.5479C78.7561 21.8363 78.8399 22.1297 79.0299 22.3511C79.2199 22.5726 79.4971 22.7 79.7888 22.7V21.7ZM83.1548 21.7V22.7C83.6484 22.7 84.0682 22.3399 84.1432 21.8521L83.1548 21.7ZM83.2868 20.842L84.2752 20.9941C84.3196 20.7057 84.2358 20.4123 84.0458 20.1909C83.8558 19.9694 83.5786 19.842 83.2868 19.842V20.842ZM79.9208 20.842V19.842C79.4273 19.842 79.0075 20.2021 78.9325 20.6899L79.9208 20.842ZM80.1188 19.39L79.1289 19.2486C79.0879 19.5356 79.1735 19.8262 79.3634 20.0452C79.5533 20.2642 79.829 20.39 80.1188 20.39V19.39ZM83.4848 19.39V20.39C83.9825 20.39 84.4044 20.0241 84.4748 19.5314L83.4848 19.39ZM83.5948 18.62L84.5848 18.7614C84.6258 18.4744 84.5402 18.1838 84.3503 17.9648C84.1604 17.7458 83.8847 17.62 83.5948 17.62V18.62ZM80.2288 18.62V17.62C79.7312 17.62 79.3093 17.9859 79.2389 18.4786L80.2288 18.62ZM81.7468 25.132L82.4801 25.8119L83.6021 24.6019L82.8688 23.922L82.1356 23.2421L81.0136 24.4521L81.7468 25.132ZM82.8688 23.922L83.862 24.0388L83.95 23.2908L82.9568 23.174L81.9637 23.0572L81.8757 23.8052L82.8688 23.922ZM82.9568 23.174V22.174H79.5908V23.174V24.174H82.9568V23.174ZM79.5908 23.174L78.5998 23.0404L78.3358 24.9984L79.3268 25.132L80.3179 25.2656L80.5819 23.3076L79.5908 23.174ZM79.3268 25.132V24.132H75.8068V25.132V26.132H79.3268V25.132ZM75.8068 25.132L76.7973 25.2697L77.9413 17.0417L76.9508 16.904L75.9604 16.7663L74.8164 24.9943L75.8068 25.132ZM76.9508 16.904V17.904H87.3568V16.904V15.904H76.9508V16.904ZM87.3568 16.904L86.3665 16.7657L85.4204 23.5417L86.4108 23.68L87.4012 23.8183L88.3472 17.0423L87.3568 16.904ZM86.4108 23.68L85.4202 23.5434C85.3827 23.8155 85.2986 23.9818 85.2059 24.0919L85.9708 24.736L86.7358 25.3801C87.1124 24.9329 87.3217 24.3952 87.4015 23.8166L86.4108 23.68ZM85.9708 24.736L85.2026 24.0958C85.1988 24.1004 85.1976 24.1024 85.1852 24.1075C85.1674 24.1148 85.1135 24.132 85.0028 24.132V25.132V26.132C85.6479 26.132 86.2847 25.9214 86.7391 25.3762L85.9708 24.736ZM85.0028 25.132V24.132H81.7468V25.132V26.132H85.0028V25.132ZM80.8448 12.548L81.8329 12.7024L81.9429 11.9984L80.9548 11.844L79.9668 11.6896L79.8568 12.3936L80.8448 12.548ZM80.9548 11.844V10.844H77.5888V11.844V12.844H80.9548V11.844ZM77.5888 11.844L78.5801 11.9762L78.8001 10.3262L77.8088 10.194L76.8176 10.0618L76.5976 11.7118L77.5888 11.844ZM77.8088 10.194V11.194H81.1968V10.194V9.194H77.8088V10.194ZM81.1968 10.194L82.1832 10.3584L82.2272 10.0944L81.2408 9.93L80.2544 9.7656L80.2104 10.0296L81.1968 10.194ZM81.2408 9.93L82.037 9.32491L81.619 8.77492L80.8228 9.38L80.0267 9.98508L80.4447 10.5351L81.2408 9.93ZM80.8228 9.38V10.38H84.8928V9.38V8.38H80.8228V9.38ZM84.8928 9.38L83.9057 9.21993L83.7737 10.0339L84.7608 10.194L85.748 10.3541L85.88 9.54007L84.8928 9.38ZM84.7608 10.194V11.194H88.2368V10.194V9.194H84.7608V10.194ZM88.2368 10.194L87.2456 10.0618L87.0256 11.7118L88.0168 11.844L89.0081 11.9762L89.2281 10.3262L88.2368 10.194ZM88.0168 11.844V10.844H84.5408V11.844V12.844H88.0168V11.844ZM84.5408 11.844L83.5528 11.6896L83.4428 12.3936L84.4308 12.548L85.4189 12.7024L85.5289 11.9984L84.5408 11.844ZM84.4308 12.548V13.548H87.4888V12.548V11.548H84.4308V12.548ZM87.4888 12.548L86.4989 12.4066L86.2789 13.9466L87.2688 14.088L88.2588 14.2294L88.4788 12.6894L87.4888 12.548ZM87.2688 14.088V13.088H84.2108V14.088V15.088H87.2688V14.088ZM84.2108 14.088L83.2186 13.964L83.1306 14.668L84.1228 14.792L85.1151 14.916L85.2031 14.212L84.2108 14.088ZM84.1228 14.792V15.792H88.0388V14.792V13.792H84.1228V14.792ZM88.0388 14.792L87.0479 14.6581L86.8279 16.2861L87.8188 16.42L88.8098 16.5539L89.0298 14.9259L88.0388 14.792ZM87.8188 16.42V15.42H76.6648V16.42V17.42H87.8188V16.42ZM76.6648 16.42L77.6558 16.5539L77.8758 14.9259L76.8848 14.792L75.8939 14.6581L75.6739 16.2861L76.6648 16.42ZM76.8848 14.792V15.792H80.5368V14.792V13.792H76.8848V14.792ZM80.5368 14.792L81.5291 14.916L81.6171 14.212L80.6248 14.088L79.6326 13.964L79.5446 14.668L80.5368 14.792ZM80.6248 14.088V13.088H77.6768V14.088V15.088H80.6248V14.088ZM77.6768 14.088L78.6668 14.2294L78.8868 12.6894L77.8968 12.548L76.9069 12.4066L76.6869 13.9466L77.6768 14.088ZM77.8968 12.548V13.548H80.8448V12.548V11.548H77.8968V12.548ZM72.5068 10.304L73.3839 9.82368L72.8779 8.89968L72.0008 9.38L71.1237 9.86031L71.6297 10.7843L72.5068 10.304ZM72.0008 9.38V10.38H75.5868V9.38V8.38H72.0008V9.38ZM75.5868 9.38L74.5968 9.23935L72.3528 25.0354L73.3428 25.176L74.3329 25.3166L76.5769 9.52065L75.5868 9.38ZM73.3428 25.176V24.176H70.3948V25.176V26.176H73.3428V25.176ZM70.3948 25.176L71.3849 25.3166L73.4969 10.4446L72.5068 10.304L71.5168 10.1634L69.4048 25.0354L70.3948 25.176ZM68.8108 20.82L69.7943 21.001L71.3123 12.751L70.3288 12.57L69.3454 12.389L67.8274 20.639L68.8108 20.82ZM70.3288 12.57V13.57H71.8688V12.57V11.57H70.3288V12.57ZM71.8688 12.57L70.8831 12.4018L69.4751 20.6518L70.4608 20.82L71.4466 20.9882L72.8546 12.7382L71.8688 12.57ZM70.4608 20.82V19.82H68.8108V20.82V21.82H70.4608V20.82ZM74.7948 17.08L75.7881 17.1963L76.3161 12.6863L75.3228 12.57L74.3296 12.4537L73.8016 16.9637L74.7948 17.08ZM75.3228 12.57V13.57H76.8848V12.57V11.57H75.3228V12.57ZM76.8848 12.57L75.8901 12.4681L75.4281 16.9781L76.4228 17.08L77.4176 17.1819L77.8796 12.6719L76.8848 12.57ZM76.4228 17.08V16.08H74.7948V17.08V18.08H76.4228V17.08ZM79.7888 21.7V22.7H83.1548V21.7V20.7H79.7888V21.7ZM83.1548 21.7L84.1432 21.8521L84.2752 20.9941L83.2868 20.842L82.2985 20.6899L82.1665 21.5479L83.1548 21.7ZM83.2868 20.842V19.842H79.9208V20.842V21.842H83.2868V20.842ZM79.9208 20.842L78.9325 20.6899L78.8005 21.5479L79.7888 21.7L80.7772 21.8521L80.9092 20.9941L79.9208 20.842ZM80.1188 19.39V20.39H83.4848V19.39V18.39H80.1188V19.39ZM83.4848 19.39L84.4748 19.5314L84.5848 18.7614L83.5948 18.62L82.6049 18.4786L82.4949 19.2486L83.4848 19.39ZM83.5948 18.62V17.62H80.2288V18.62V19.62H83.5948V18.62ZM80.2288 18.62L79.2389 18.4786L79.1289 19.2486L80.1188 19.39L81.1088 19.5314L81.2188 18.7614L80.2288 18.62Z" fill="white" mask="url(#path-2-outside-1_1_52335)"/>
<path d="M90.458 22.0146C91.1486 21.9253 91.8743 21.9325 92.4902 22.207C92.8203 22.3542 93.1424 22.5899 93.376 22.9424C93.6111 23.2973 93.7001 23.6868 93.6992 24.0469C93.6974 24.7145 93.3902 25.3125 93.082 25.7568L93.0801 25.7588C94.1948 25.7297 95.6622 25.2559 97.3691 23.7949C97.9348 23.3107 98.7853 23.3767 99.2695 23.9424C99.7536 24.5081 99.6877 25.3586 99.1221 25.8428C95.9023 28.5987 92.7798 28.9155 90.583 28C88.4723 29.329 85.3912 30.3738 82.0518 29.9346C81.3135 29.8375 80.7935 29.1601 80.8906 28.4219C80.9878 27.6837 81.6651 27.1636 82.4033 27.2607C84.6195 27.5522 86.7297 26.9959 88.3398 26.1768C88.0497 25.7101 87.8633 25.1808 87.8564 24.6162C87.8486 23.9593 88.0932 23.3103 88.6162 22.8164C89.116 22.3445 89.7725 22.1034 90.458 22.0146Z" fill="#F9C854" stroke="white" stroke-linecap="round"/>
<defs>
<linearGradient id="paint0_linear_1_52335" x1="12.1452" y1="-0.370049" x2="21.3224" y2="34.9925" gradientUnits="userSpaceOnUse">
<stop stop-color="#FEED86"/>
<stop offset="1" stop-color="#FBB55D"/>
</linearGradient>
</defs>
</svg>
