<svg width="101" height="35" viewBox="0 0 101 35" fill="none" xmlns="http://www.w3.org/2000/svg">
<path d="M10.3516 4.41797C11.3967 2.28906 14.0916 1.58931 16.04 2.94141L20.0732 5.74121C20.6961 6.17343 21.4116 6.45403 22.1621 6.56152L27.0234 7.25781C29.3708 7.59397 30.8689 9.94028 30.1855 12.2109L28.7695 16.9131C28.5509 17.6392 28.504 18.4062 28.6338 19.1533L29.4746 23.9912C29.8803 26.3277 28.1112 28.4778 25.7402 28.5293L20.8311 28.6357C20.0731 28.6522 19.3295 28.845 18.6592 29.1992L14.3174 31.4932C12.2205 32.6012 9.62923 31.5829 8.84766 29.3438L7.22949 24.708C6.97963 23.9922 6.56643 23.3445 6.02246 22.8164L2.49902 19.3965C0.797193 17.7447 0.964535 14.9656 2.85254 13.5303L6.76172 10.5586C7.36529 10.0997 7.8534 9.50582 8.1875 8.8252L10.3516 4.41797Z" fill="url(#paint0_linear_1_53876)" stroke="white"/>
<mask id="path-2-outside-1_1_53876" maskUnits="userSpaceOnUse" x="10" y="8" width="80" height="19" fill="black">
<rect fill="white" x="10" y="8" width="80" height="19"/>
<path d="M29.942 17.564L28.886 25.176H18.018L19.074 17.564H29.942ZM17.71 22.382L16.588 21.04L16.016 25.176H12.672L13.398 20.028H11.308L15.752 14.154H12.342L12.628 12.196H19.14L18.788 14.704L17.182 16.838L17.138 17.168L18.238 18.51L17.71 22.382ZM29.854 12.196L29.194 16.838H19.712L20.372 12.196H29.854ZM30.932 9.688L30.668 11.47H19.8L20.064 9.688H30.932ZM18.524 11.624H15.026L14.564 9.93L14.102 9.402H17.974L18.524 11.624ZM26.224 15.232L26.444 13.736H23.518L23.298 15.232H26.224ZM22.66 23.24L22.836 21.964H21.516L21.34 23.24H22.66ZM26.246 23.24L26.422 21.964H25.146L24.97 23.24H26.246ZM21.714 20.49H23.034L23.21 19.258H21.89L21.714 20.49ZM25.52 19.258L25.344 20.49H26.62L26.796 19.258H25.52ZM41.8643 11.646L38.8943 11.844L38.6083 13.956H41.9523L41.6663 16.046H38.3003L37.0243 25.198H33.6803L34.9563 16.046H31.6343L31.9203 13.956H35.2643L35.5283 12.086L32.3603 12.284L32.6463 10.194L42.1503 9.556L41.8643 11.646ZM50.0703 9.776L48.0903 23.746C48.0316 24.1713 47.8409 24.5233 47.5183 24.802C47.1956 25.066 46.8216 25.198 46.3963 25.198H42.6783L44.6143 23.152L46.4183 10.414L45.8903 9.776H50.0703ZM45.4283 11.448L43.8443 22.734H41.3583L42.9423 11.448H45.4283ZM30.4463 24.406L31.9643 16.662H34.4723L32.9543 24.406H30.4463ZM37.9703 24.406L38.6523 16.662H41.1603L40.4783 24.406H37.9703ZM69.2306 9.776L68.9446 11.91H65.3806L65.0066 12.856H68.4386L67.3166 20.798H65.2266L64.8526 20.27L65.6226 14.814H61.7506L60.9806 20.27L60.4746 20.798H58.3626L59.4846 12.856H62.2126L62.5866 11.91H59.3746L59.6606 9.776H69.2306ZM52.7526 20.27L53.2146 21.084L54.5126 18.686H49.6726L49.9586 16.64H58.2526L57.9226 18.972L54.9526 23.548H54.9086L55.8986 25.154H52.4666L49.5406 20.27H52.7526ZM56.0086 15.98H53.3466L53.0606 14.352L52.4886 15.738H49.8706L52.1146 10.392L51.5866 9.798H58.1426L58.9346 15.716H56.5366L55.8986 11.734H54.1606L53.3466 13.648H55.6126L56.0086 15.98ZM64.8526 15.584L64.2146 20.182L67.1406 25.154H63.6866L62.6526 22.404L60.6946 25.154H57.4386L61.6626 20.094L62.3006 15.584H64.8526ZM78.7548 22.47L77.7208 22.602L77.3688 25.198H74.0688L74.3768 22.976L68.6348 23.636L68.9428 21.37L69.6248 21.304L70.9228 11.866H70.2628L70.5488 9.776H80.1628L79.8768 11.866H79.2388L78.0508 20.314L79.0848 20.182L78.7548 22.47ZM82.9788 13.12L82.7808 14.55L83.5948 16.882L84.9368 14.242L85.1788 12.416H80.2288L80.5588 10.216H88.4348L87.7528 14.968L84.6948 19.94L86.5648 25.176H83.7268L82.8908 22.866L81.4828 25.154H78.1608L81.7908 19.764L79.9648 14.594L80.1628 13.12H82.9788ZM73.9148 13.472H75.7188L75.9388 11.866H74.1348L73.9148 13.472ZM73.4088 17.168H75.1908L75.4328 15.562H73.6288L73.4088 17.168ZM72.8808 20.908L74.7068 20.71L74.9048 19.258H73.1228L72.8808 20.908Z"/>
</mask>
<path d="M29.942 17.564L28.886 25.176H18.018L19.074 17.564H29.942ZM17.71 22.382L16.588 21.04L16.016 25.176H12.672L13.398 20.028H11.308L15.752 14.154H12.342L12.628 12.196H19.14L18.788 14.704L17.182 16.838L17.138 17.168L18.238 18.51L17.71 22.382ZM29.854 12.196L29.194 16.838H19.712L20.372 12.196H29.854ZM30.932 9.688L30.668 11.47H19.8L20.064 9.688H30.932ZM18.524 11.624H15.026L14.564 9.93L14.102 9.402H17.974L18.524 11.624ZM26.224 15.232L26.444 13.736H23.518L23.298 15.232H26.224ZM22.66 23.24L22.836 21.964H21.516L21.34 23.24H22.66ZM26.246 23.24L26.422 21.964H25.146L24.97 23.24H26.246ZM21.714 20.49H23.034L23.21 19.258H21.89L21.714 20.49ZM25.52 19.258L25.344 20.49H26.62L26.796 19.258H25.52ZM41.8643 11.646L38.8943 11.844L38.6083 13.956H41.9523L41.6663 16.046H38.3003L37.0243 25.198H33.6803L34.9563 16.046H31.6343L31.9203 13.956H35.2643L35.5283 12.086L32.3603 12.284L32.6463 10.194L42.1503 9.556L41.8643 11.646ZM50.0703 9.776L48.0903 23.746C48.0316 24.1713 47.8409 24.5233 47.5183 24.802C47.1956 25.066 46.8216 25.198 46.3963 25.198H42.6783L44.6143 23.152L46.4183 10.414L45.8903 9.776H50.0703ZM45.4283 11.448L43.8443 22.734H41.3583L42.9423 11.448H45.4283ZM30.4463 24.406L31.9643 16.662H34.4723L32.9543 24.406H30.4463ZM37.9703 24.406L38.6523 16.662H41.1603L40.4783 24.406H37.9703ZM69.2306 9.776L68.9446 11.91H65.3806L65.0066 12.856H68.4386L67.3166 20.798H65.2266L64.8526 20.27L65.6226 14.814H61.7506L60.9806 20.27L60.4746 20.798H58.3626L59.4846 12.856H62.2126L62.5866 11.91H59.3746L59.6606 9.776H69.2306ZM52.7526 20.27L53.2146 21.084L54.5126 18.686H49.6726L49.9586 16.64H58.2526L57.9226 18.972L54.9526 23.548H54.9086L55.8986 25.154H52.4666L49.5406 20.27H52.7526ZM56.0086 15.98H53.3466L53.0606 14.352L52.4886 15.738H49.8706L52.1146 10.392L51.5866 9.798H58.1426L58.9346 15.716H56.5366L55.8986 11.734H54.1606L53.3466 13.648H55.6126L56.0086 15.98ZM64.8526 15.584L64.2146 20.182L67.1406 25.154H63.6866L62.6526 22.404L60.6946 25.154H57.4386L61.6626 20.094L62.3006 15.584H64.8526ZM78.7548 22.47L77.7208 22.602L77.3688 25.198H74.0688L74.3768 22.976L68.6348 23.636L68.9428 21.37L69.6248 21.304L70.9228 11.866H70.2628L70.5488 9.776H80.1628L79.8768 11.866H79.2388L78.0508 20.314L79.0848 20.182L78.7548 22.47ZM82.9788 13.12L82.7808 14.55L83.5948 16.882L84.9368 14.242L85.1788 12.416H80.2288L80.5588 10.216H88.4348L87.7528 14.968L84.6948 19.94L86.5648 25.176H83.7268L82.8908 22.866L81.4828 25.154H78.1608L81.7908 19.764L79.9648 14.594L80.1628 13.12H82.9788ZM73.9148 13.472H75.7188L75.9388 11.866H74.1348L73.9148 13.472ZM73.4088 17.168H75.1908L75.4328 15.562H73.6288L73.4088 17.168ZM72.8808 20.908L74.7068 20.71L74.9048 19.258H73.1228L72.8808 20.908Z" fill="#222222"/>
<path d="M29.942 17.564L30.9325 17.7014C30.9723 17.415 30.886 17.1254 30.6961 16.9073C30.5062 16.6892 30.2312 16.564 29.942 16.564V17.564ZM28.886 25.176V26.176C29.3852 26.176 29.8079 25.8079 29.8765 25.3134L28.886 25.176ZM18.018 25.176L17.0275 25.0386C16.9877 25.325 17.074 25.6146 17.2639 25.8327C17.4538 26.0508 17.7288 26.176 18.018 26.176V25.176ZM19.074 17.564V16.564C18.5748 16.564 18.1521 16.9321 18.0835 17.4266L19.074 17.564ZM17.71 22.382L16.9428 23.0234C17.1968 23.3272 17.6062 23.4525 17.9868 23.3429C18.3673 23.2333 18.6473 22.9095 18.7008 22.5171L17.71 22.382ZM16.588 21.04L17.3552 20.3986C17.1014 20.095 16.6925 19.9697 16.3122 20.0788C15.9318 20.1879 15.6516 20.5111 15.5974 20.903L16.588 21.04ZM16.016 25.176V26.176C16.5153 26.176 16.9382 25.8076 17.0066 25.313L16.016 25.176ZM12.672 25.176L11.6818 25.0364C11.6414 25.3231 11.7272 25.6133 11.9171 25.8319C12.1071 26.0505 12.3824 26.176 12.672 26.176V25.176ZM13.398 20.028L14.3882 20.1676C14.4286 19.8809 14.3428 19.5907 14.1529 19.3721C13.9629 19.1535 13.6876 19.028 13.398 19.028V20.028ZM11.308 20.028L10.5105 19.4247C10.2815 19.7273 10.2436 20.1335 10.4126 20.4733C10.5817 20.8132 10.9285 21.028 11.308 21.028V20.028ZM15.752 14.154L16.5495 14.7573C16.7785 14.4547 16.8164 14.0485 16.6474 13.7087C16.4783 13.3688 16.1315 13.154 15.752 13.154V14.154ZM12.342 14.154L11.3525 14.0095C11.3105 14.2969 11.3956 14.5883 11.5855 14.808C11.7755 15.0277 12.0516 15.154 12.342 15.154V14.154ZM12.628 12.196V11.196C12.1315 11.196 11.7103 11.5602 11.6385 12.0515L12.628 12.196ZM19.14 12.196L20.1303 12.335C20.1705 12.0483 20.0846 11.7583 19.8946 11.5399C19.7047 11.3214 19.4295 11.196 19.14 11.196V12.196ZM18.788 14.704L19.587 15.3053C19.6889 15.1699 19.7547 15.0108 19.7783 14.843L18.788 14.704ZM17.182 16.838L16.383 16.2367C16.2797 16.374 16.2135 16.5355 16.1908 16.7058L17.182 16.838ZM17.138 17.168L16.1468 17.0358C16.1102 17.3103 16.189 17.5877 16.3646 17.8019L17.138 17.168ZM18.238 18.51L19.2288 18.6451C19.2664 18.3697 19.1876 18.0911 19.0114 17.8761L18.238 18.51ZM29.854 12.196L30.844 12.3368C30.8848 12.0499 30.7992 11.7594 30.6092 11.5405C30.4193 11.3217 30.1438 11.196 29.854 11.196V12.196ZM29.194 16.838V17.838C29.6919 17.838 30.114 17.4717 30.184 16.9788L29.194 16.838ZM19.712 16.838L18.722 16.6972C18.6812 16.9841 18.7668 17.2746 18.9568 17.4935C19.1467 17.7123 19.4222 17.838 19.712 17.838V16.838ZM20.372 12.196V11.196C19.8741 11.196 19.452 11.5623 19.382 12.0552L20.372 12.196ZM30.932 9.688L31.9212 9.83455C31.9638 9.54689 31.8791 9.25493 31.6891 9.03476C31.4992 8.81458 31.2228 8.688 30.932 8.688V9.688ZM30.668 11.47V12.47C31.1637 12.47 31.5846 12.1069 31.6572 11.6165L30.668 11.47ZM19.8 11.47L18.8108 11.3235C18.7682 11.6111 18.8529 11.9031 19.0429 12.1232C19.2328 12.3434 19.5092 12.47 19.8 12.47V11.47ZM20.064 9.688V8.688C19.5683 8.688 19.1474 9.05112 19.0748 9.54145L20.064 9.688ZM18.524 11.624V12.624C18.8315 12.624 19.122 12.4825 19.3115 12.2403C19.501 11.9982 19.5686 11.6822 19.4947 11.3837L18.524 11.624ZM15.026 11.624L14.0612 11.8871C14.1799 12.3222 14.575 12.624 15.026 12.624V11.624ZM14.564 9.93L15.5288 9.66688C15.4889 9.52071 15.4163 9.38551 15.3166 9.27149L14.564 9.93ZM14.102 9.402V8.402C13.7096 8.402 13.3535 8.63147 13.1914 8.98878C13.0292 9.34609 13.091 9.76521 13.3494 10.0605L14.102 9.402ZM17.974 9.402L18.9447 9.16173C18.8342 8.71546 18.4337 8.402 17.974 8.402V9.402ZM26.224 15.232V16.232C26.7201 16.232 27.1412 15.8683 27.2134 15.3775L26.224 15.232ZM26.444 13.736L27.4334 13.8815C27.4756 13.594 27.3908 13.3023 27.2008 13.0824C27.0108 12.8624 26.7346 12.736 26.444 12.736V13.736ZM23.518 13.736V12.736C23.0219 12.736 22.6008 13.0997 22.5286 13.5905L23.518 13.736ZM23.298 15.232L22.3086 15.0865C22.2664 15.374 22.3512 15.6657 22.5412 15.8856C22.7312 16.1056 23.0074 16.232 23.298 16.232V15.232ZM22.66 23.24V24.24C23.1595 24.24 23.5824 23.8714 23.6506 23.3766L22.66 23.24ZM22.836 21.964L23.8266 22.1006C23.8661 21.8143 23.7798 21.5249 23.5899 21.307C23.4 21.0891 23.125 20.964 22.836 20.964V21.964ZM21.516 21.964V20.964C21.0165 20.964 20.5936 21.3326 20.5254 21.8274L21.516 21.964ZM21.34 23.24L20.3494 23.1034C20.3099 23.3897 20.3962 23.6791 20.5861 23.897C20.776 24.1149 21.051 24.24 21.34 24.24V23.24ZM26.246 23.24V24.24C26.7455 24.24 27.1684 23.8714 27.2366 23.3766L26.246 23.24ZM26.422 21.964L27.4126 22.1006C27.4521 21.8143 27.3658 21.5249 27.1759 21.307C26.986 21.0891 26.711 20.964 26.422 20.964V21.964ZM25.146 21.964V20.964C24.6465 20.964 24.2236 21.3326 24.1554 21.8274L25.146 21.964ZM24.97 23.24L23.9794 23.1034C23.9399 23.3897 24.0262 23.6791 24.2161 23.897C24.406 24.1149 24.681 24.24 24.97 24.24V23.24ZM21.714 20.49L20.7241 20.3486C20.6831 20.6356 20.7686 20.9262 20.9585 21.1452C21.1485 21.3642 21.4241 21.49 21.714 21.49V20.49ZM23.034 20.49V21.49C23.5317 21.49 23.9536 21.1241 24.024 20.6314L23.034 20.49ZM23.21 19.258L24.2 19.3994C24.2409 19.1124 24.1554 18.8218 23.9655 18.6028C23.7755 18.3838 23.4999 18.258 23.21 18.258V19.258ZM21.89 19.258V18.258C21.3924 18.258 20.9704 18.6239 20.9001 19.1166L21.89 19.258ZM25.52 19.258V18.258C25.0224 18.258 24.6004 18.6239 24.5301 19.1166L25.52 19.258ZM25.344 20.49L24.3541 20.3486C24.3131 20.6356 24.3986 20.9262 24.5885 21.1452C24.7785 21.3642 25.0541 21.49 25.344 21.49V20.49ZM26.62 20.49V21.49C27.1177 21.49 27.5396 21.1241 27.61 20.6314L26.62 20.49ZM26.796 19.258L27.7859 19.3994C27.8269 19.1124 27.7414 18.8218 27.5515 18.6028C27.3615 18.3838 27.0859 18.258 26.796 18.258V19.258ZM29.942 17.564L28.9515 17.4266L27.8955 25.0386L28.886 25.176L29.8765 25.3134L30.9325 17.7014L29.942 17.564ZM28.886 25.176V24.176H18.018V25.176V26.176H28.886V25.176ZM18.018 25.176L19.0085 25.3134L20.0645 17.7014L19.074 17.564L18.0835 17.4266L17.0275 25.0386L18.018 25.176ZM19.074 17.564V18.564H29.942V17.564V16.564H19.074V17.564ZM17.71 22.382L18.4772 21.7406L17.3552 20.3986L16.588 21.04L15.8208 21.6814L16.9428 23.0234L17.71 22.382ZM16.588 21.04L15.5974 20.903L15.0254 25.039L16.016 25.176L17.0066 25.313L17.5786 21.177L16.588 21.04ZM16.016 25.176V24.176H12.672V25.176V26.176H16.016V25.176ZM12.672 25.176L13.6622 25.3156L14.3882 20.1676L13.398 20.028L12.4078 19.8884L11.6818 25.0364L12.672 25.176ZM13.398 20.028V19.028H11.308V20.028V21.028H13.398V20.028ZM11.308 20.028L12.1055 20.6313L16.5495 14.7573L15.752 14.154L14.9545 13.5507L10.5105 19.4247L11.308 20.028ZM15.752 14.154V13.154H12.342V14.154V15.154H15.752V14.154ZM12.342 14.154L13.3315 14.2985L13.6175 12.3405L12.628 12.196L11.6385 12.0515L11.3525 14.0095L12.342 14.154ZM12.628 12.196V13.196H19.14V12.196V11.196H12.628V12.196ZM19.14 12.196L18.1497 12.057L17.7977 14.565L18.788 14.704L19.7783 14.843L20.1303 12.335L19.14 12.196ZM18.788 14.704L17.989 14.1027L16.383 16.2367L17.182 16.838L17.981 17.4393L19.587 15.3053L18.788 14.704ZM17.182 16.838L16.1908 16.7058L16.1468 17.0358L17.138 17.168L18.1292 17.3002L18.1732 16.9702L17.182 16.838ZM17.138 17.168L16.3646 17.8019L17.4646 19.1439L18.238 18.51L19.0114 17.8761L17.9114 16.5341L17.138 17.168ZM18.238 18.51L17.2472 18.3749L16.7192 22.2469L17.71 22.382L18.7008 22.5171L19.2288 18.6451L18.238 18.51ZM29.854 12.196L28.864 12.0552L28.204 16.6972L29.194 16.838L30.184 16.9788L30.844 12.3368L29.854 12.196ZM29.194 16.838V15.838H19.712V16.838V17.838H29.194V16.838ZM19.712 16.838L20.702 16.9788L21.362 12.3368L20.372 12.196L19.382 12.0552L18.722 16.6972L19.712 16.838ZM20.372 12.196V13.196H29.854V12.196V11.196H20.372V12.196ZM30.932 9.688L29.9428 9.54145L29.6788 11.3235L30.668 11.47L31.6572 11.6165L31.9212 9.83455L30.932 9.688ZM30.668 11.47V10.47H19.8V11.47V12.47H30.668V11.47ZM19.8 11.47L20.7892 11.6165L21.0532 9.83455L20.064 9.688L19.0748 9.54145L18.8108 11.3235L19.8 11.47ZM20.064 9.688V10.688H30.932V9.688V8.688H20.064V9.688ZM18.524 11.624V10.624H15.026V11.624V12.624H18.524V11.624ZM15.026 11.624L15.9908 11.3609L15.5288 9.66688L14.564 9.93L13.5992 10.1931L14.0612 11.8871L15.026 11.624ZM14.564 9.93L15.3166 9.27149L14.8546 8.74349L14.102 9.402L13.3494 10.0605L13.8114 10.5885L14.564 9.93ZM14.102 9.402V10.402H17.974V9.402V8.402H14.102V9.402ZM17.974 9.402L17.0033 9.64227L17.5533 11.8643L18.524 11.624L19.4947 11.3837L18.9447 9.16173L17.974 9.402ZM26.224 15.232L27.2134 15.3775L27.4334 13.8815L26.444 13.736L25.4546 13.5905L25.2346 15.0865L26.224 15.232ZM26.444 13.736V12.736H23.518V13.736V14.736H26.444V13.736ZM23.518 13.736L22.5286 13.5905L22.3086 15.0865L23.298 15.232L24.2874 15.3775L24.5074 13.8815L23.518 13.736ZM23.298 15.232V16.232H26.224V15.232V14.232H23.298V15.232ZM22.66 23.24L23.6506 23.3766L23.8266 22.1006L22.836 21.964L21.8454 21.8274L21.6694 23.1034L22.66 23.24ZM22.836 21.964V20.964H21.516V21.964V22.964H22.836V21.964ZM21.516 21.964L20.5254 21.8274L20.3494 23.1034L21.34 23.24L22.3306 23.3766L22.5066 22.1006L21.516 21.964ZM21.34 23.24V24.24H22.66V23.24V22.24H21.34V23.24ZM26.246 23.24L27.2366 23.3766L27.4126 22.1006L26.422 21.964L25.4314 21.8274L25.2554 23.1034L26.246 23.24ZM26.422 21.964V20.964H25.146V21.964V22.964H26.422V21.964ZM25.146 21.964L24.1554 21.8274L23.9794 23.1034L24.97 23.24L25.9606 23.3766L26.1366 22.1006L25.146 21.964ZM24.97 23.24V24.24H26.246V23.24V22.24H24.97V23.24ZM21.714 20.49V21.49H23.034V20.49V19.49H21.714V20.49ZM23.034 20.49L24.024 20.6314L24.2 19.3994L23.21 19.258L22.2201 19.1166L22.0441 20.3486L23.034 20.49ZM23.21 19.258V18.258H21.89V19.258V20.258H23.21V19.258ZM21.89 19.258L20.9001 19.1166L20.7241 20.3486L21.714 20.49L22.7039 20.6314L22.88 19.3994L21.89 19.258ZM25.52 19.258L24.5301 19.1166L24.3541 20.3486L25.344 20.49L26.334 20.6314L26.5099 19.3994L25.52 19.258ZM25.344 20.49V21.49H26.62V20.49V19.49H25.344V20.49ZM26.62 20.49L27.61 20.6314L27.7859 19.3994L26.796 19.258L25.8061 19.1166L25.6301 20.3486L26.62 20.49ZM26.796 19.258V18.258H25.52V19.258V20.258H26.796V19.258ZM41.8643 11.646L41.9308 12.6438C42.4045 12.6122 42.7907 12.2519 42.855 11.7816L41.8643 11.646ZM38.8943 11.844L38.8278 10.8462C38.3535 10.8778 37.9671 11.2388 37.9033 11.7098L38.8943 11.844ZM38.6083 13.956L37.6173 13.8218C37.5786 14.1078 37.6653 14.3966 37.8552 14.614C38.0451 14.8313 38.3197 14.956 38.6083 14.956V13.956ZM41.9523 13.956L42.943 14.0916C42.9822 13.8054 42.8957 13.5162 42.7058 13.2986C42.5159 13.0809 42.2411 12.956 41.9523 12.956V13.956ZM41.6663 16.046V17.046C42.1662 17.046 42.5893 16.6769 42.657 16.1816L41.6663 16.046ZM38.3003 16.046V15.046C37.8014 15.046 37.3788 15.4138 37.3099 15.9079L38.3003 16.046ZM37.0243 25.198V26.198C37.5232 26.198 37.9458 25.8302 38.0147 25.3361L37.0243 25.198ZM33.6803 25.198L32.6899 25.0599C32.6499 25.3464 32.736 25.6362 32.9259 25.8545C33.1159 26.0727 33.391 26.198 33.6803 26.198V25.198ZM34.9563 16.046L35.9467 16.1841C35.9867 15.8976 35.9006 15.6078 35.7106 15.3895C35.5207 15.1713 35.2456 15.046 34.9563 15.046V16.046ZM31.6343 16.046L30.6435 15.9104C30.6044 16.1966 30.6909 16.4858 30.8808 16.7034C31.0707 16.9211 31.3454 17.046 31.6343 17.046V16.046ZM31.9203 13.956V12.956C31.4204 12.956 30.9973 13.3251 30.9295 13.8204L31.9203 13.956ZM35.2643 13.956V14.956C35.7626 14.956 36.1848 14.5892 36.2545 14.0958L35.2643 13.956ZM35.5283 12.086L36.5185 12.2258C36.5605 11.9282 36.4664 11.6275 36.2624 11.4069C36.0583 11.1863 35.7658 11.0692 35.4659 11.0879L35.5283 12.086ZM32.3603 12.284L31.3695 12.1484C31.3289 12.4454 31.4236 12.745 31.6276 12.9646C31.8317 13.1842 32.1235 13.3008 32.4227 13.2821L32.3603 12.284ZM32.6463 10.194L32.5793 9.19625C32.1058 9.22803 31.7199 9.58824 31.6555 10.0584L32.6463 10.194ZM42.1503 9.556L43.141 9.69158C43.1818 9.39377 43.0864 9.09344 42.8813 8.87369C42.6763 8.65395 42.3832 8.53811 42.0833 8.55824L42.1503 9.556ZM50.0703 9.776L51.0604 9.91633C51.101 9.6295 51.0153 9.33913 50.8254 9.12038C50.6354 8.90163 50.36 8.776 50.0703 8.776V9.776ZM48.0903 23.746L47.1002 23.6057L47.0997 23.6094L48.0903 23.746ZM47.5183 24.802L48.1515 25.576C48.1584 25.5703 48.1652 25.5646 48.1719 25.5588L47.5183 24.802ZM42.6783 25.198L41.9519 24.5107C41.6774 24.8008 41.6018 25.2265 41.7598 25.5934C41.9177 25.9603 42.2788 26.198 42.6783 26.198V25.198ZM44.6143 23.152L45.3406 23.8393C45.4832 23.6887 45.5753 23.4975 45.6044 23.2922L44.6143 23.152ZM46.4183 10.414L47.4084 10.5542C47.4479 10.2756 47.3681 9.99323 47.1887 9.77643L46.4183 10.414ZM45.8903 9.776V8.776C45.5029 8.776 45.1503 8.99976 44.9854 9.3503C44.8205 9.70085 44.8729 10.1151 45.1199 10.4136L45.8903 9.776ZM45.4283 11.448L46.4186 11.587C46.4588 11.3003 46.3729 11.0103 46.1829 10.7919C45.993 10.5734 45.7177 10.448 45.4283 10.448V11.448ZM43.8443 22.734V23.734C44.3429 23.734 44.7653 23.3667 44.8346 22.873L43.8443 22.734ZM41.3583 22.734L40.368 22.595C40.3278 22.8817 40.4137 23.1717 40.6036 23.3901C40.7936 23.6086 41.0688 23.734 41.3583 23.734V22.734ZM42.9423 11.448V10.448C42.4437 10.448 42.0213 10.8153 41.952 11.309L42.9423 11.448ZM30.4463 24.406L29.465 24.2136C29.4075 24.507 29.4842 24.8107 29.6742 25.0415C29.8641 25.2723 30.1474 25.406 30.4463 25.406V24.406ZM31.9643 16.662V15.662C31.4862 15.662 31.0749 16.0004 30.983 16.4696L31.9643 16.662ZM34.4723 16.662L35.4536 16.8544C35.5111 16.561 35.4344 16.2573 35.2444 16.0265C35.0545 15.7957 34.7712 15.662 34.4723 15.662V16.662ZM32.9543 24.406V25.406C33.4324 25.406 33.8436 25.0676 33.9356 24.5984L32.9543 24.406ZM37.9703 24.406L36.9741 24.3183C36.9495 24.5977 37.0434 24.8745 37.2328 25.0814C37.4222 25.2882 37.6898 25.406 37.9703 25.406V24.406ZM38.6523 16.662V15.662C38.134 15.662 37.7016 16.058 37.6561 16.5743L38.6523 16.662ZM41.1603 16.662L42.1564 16.7497C42.181 16.4703 42.0872 16.1935 41.8978 15.9866C41.7083 15.7798 41.4408 15.662 41.1603 15.662V16.662ZM40.4783 24.406V25.406C40.9966 25.406 41.429 25.01 41.4744 24.4937L40.4783 24.406ZM41.8643 11.646L41.7978 10.6482L38.8278 10.8462L38.8943 11.844L38.9608 12.8418L41.9308 12.6438L41.8643 11.646ZM38.8943 11.844L37.9033 11.7098L37.6173 13.8218L38.6083 13.956L39.5992 14.0902L39.8852 11.9782L38.8943 11.844ZM38.6083 13.956V14.956H41.9523V13.956V12.956H38.6083V13.956ZM41.9523 13.956L40.9615 13.8204L40.6755 15.9104L41.6663 16.046L42.657 16.1816L42.943 14.0916L41.9523 13.956ZM41.6663 16.046V15.046H38.3003V16.046V17.046H41.6663V16.046ZM38.3003 16.046L37.3099 15.9079L36.0339 25.0599L37.0243 25.198L38.0147 25.3361L39.2907 16.1841L38.3003 16.046ZM37.0243 25.198V24.198H33.6803V25.198V26.198H37.0243V25.198ZM33.6803 25.198L34.6707 25.3361L35.9467 16.1841L34.9563 16.046L33.9659 15.9079L32.6899 25.0599L33.6803 25.198ZM34.9563 16.046V15.046H31.6343V16.046V17.046H34.9563V16.046ZM31.6343 16.046L32.625 16.1816L32.911 14.0916L31.9203 13.956L30.9295 13.8204L30.6435 15.9104L31.6343 16.046ZM31.9203 13.956V14.956H35.2643V13.956V12.956H31.9203V13.956ZM35.2643 13.956L36.2545 14.0958L36.5185 12.2258L35.5283 12.086L34.5381 11.9462L34.2741 13.8162L35.2643 13.956ZM35.5283 12.086L35.4659 11.0879L32.2979 11.2859L32.3603 12.284L32.4227 13.2821L35.5907 13.0841L35.5283 12.086ZM32.3603 12.284L33.351 12.4196L33.637 10.3296L32.6463 10.194L31.6555 10.0584L31.3695 12.1484L32.3603 12.284ZM32.6463 10.194L32.7133 11.1918L42.2173 10.5538L42.1503 9.556L42.0833 8.55824L32.5793 9.19625L32.6463 10.194ZM42.1503 9.556L41.1595 9.42042L40.8735 11.5104L41.8643 11.646L42.855 11.7816L43.141 9.69158L42.1503 9.556ZM50.0703 9.776L49.0802 9.63567L47.1002 23.6057L48.0903 23.746L49.0804 23.8863L51.0604 9.91633L50.0703 9.776ZM48.0903 23.746L47.0997 23.6094C47.074 23.7958 47.0019 23.9266 46.8647 24.0452L47.5183 24.802L48.1719 25.5588C48.68 25.12 48.9893 24.5469 49.0809 23.8826L48.0903 23.746ZM47.5183 24.802L46.885 24.028C46.7449 24.1427 46.5959 24.198 46.3963 24.198V25.198V26.198C47.0474 26.198 47.6463 25.9893 48.1515 25.576L47.5183 24.802ZM46.3963 25.198V24.198H42.6783V25.198V26.198H46.3963V25.198ZM42.6783 25.198L43.4046 25.8853L45.3406 23.8393L44.6143 23.152L43.8879 22.4647L41.9519 24.5107L42.6783 25.198ZM44.6143 23.152L45.6044 23.2922L47.4084 10.5542L46.4183 10.414L45.4282 10.2738L43.6242 23.0118L44.6143 23.152ZM46.4183 10.414L47.1887 9.77643L46.6607 9.13843L45.8903 9.776L45.1199 10.4136L45.6479 11.0516L46.4183 10.414ZM45.8903 9.776V10.776H50.0703V9.776V8.776H45.8903V9.776ZM45.4283 11.448L44.438 11.309L42.854 22.595L43.8443 22.734L44.8346 22.873L46.4186 11.587L45.4283 11.448ZM43.8443 22.734V21.734H41.3583V22.734V23.734H43.8443V22.734ZM41.3583 22.734L42.3486 22.873L43.9326 11.587L42.9423 11.448L41.952 11.309L40.368 22.595L41.3583 22.734ZM42.9423 11.448V12.448H45.4283V11.448V10.448H42.9423V11.448ZM30.4463 24.406L31.4276 24.5984L32.9456 16.8544L31.9643 16.662L30.983 16.4696L29.465 24.2136L30.4463 24.406ZM31.9643 16.662V17.662H34.4723V16.662V15.662H31.9643V16.662ZM34.4723 16.662L33.491 16.4696L31.973 24.2136L32.9543 24.406L33.9356 24.5984L35.4536 16.8544L34.4723 16.662ZM32.9543 24.406V23.406H30.4463V24.406V25.406H32.9543V24.406ZM37.9703 24.406L38.9664 24.4937L39.6484 16.7497L38.6523 16.662L37.6561 16.5743L36.9741 24.3183L37.9703 24.406ZM38.6523 16.662V17.662H41.1603V16.662V15.662H38.6523V16.662ZM41.1603 16.662L40.1641 16.5743L39.4821 24.3183L40.4783 24.406L41.4744 24.4937L42.1564 16.7497L41.1603 16.662ZM40.4783 24.406V23.406H37.9703V24.406V25.406H40.4783V24.406ZM69.2306 9.776L70.2217 9.90883C70.26 9.62301 70.1731 9.33456 69.9832 9.11753C69.7933 8.90049 69.5189 8.776 69.2306 8.776V9.776ZM68.9446 11.91V12.91C69.4455 12.91 69.8692 12.5393 69.9357 12.0428L68.9446 11.91ZM65.3806 11.91V10.91C64.9702 10.91 64.6015 11.1607 64.4506 11.5423L65.3806 11.91ZM65.0066 12.856L64.0766 12.4883C63.9549 12.7963 63.9934 13.1445 64.1796 13.4183C64.3658 13.6921 64.6754 13.856 65.0066 13.856V12.856ZM68.4386 12.856L69.4287 12.9959C69.4692 12.7091 69.3834 12.4189 69.1935 12.2002C69.0036 11.9816 68.7282 11.856 68.4386 11.856V12.856ZM67.3166 20.798V21.798C67.8148 21.798 68.237 21.4312 68.3067 20.9379L67.3166 20.798ZM65.2266 20.798L64.4105 21.376C64.598 21.6407 64.9022 21.798 65.2266 21.798V20.798ZM64.8526 20.27L63.8624 20.1303C63.8267 20.383 63.889 20.6398 64.0365 20.848L64.8526 20.27ZM65.6226 14.814L66.6127 14.9537C66.6532 14.667 66.5674 14.3768 66.3775 14.1582C66.1875 13.9395 65.9122 13.814 65.6226 13.814V14.814ZM61.7506 14.814V13.814C61.2523 13.814 60.83 14.1809 60.7604 14.6743L61.7506 14.814ZM60.9806 20.27L61.7025 20.9619C61.8476 20.8105 61.9414 20.6174 61.9707 20.4097L60.9806 20.27ZM60.4746 20.798V21.798C60.7472 21.798 61.0079 21.6867 61.1965 21.4899L60.4746 20.798ZM58.3626 20.798L57.3724 20.6581C57.3319 20.9449 57.4177 21.2351 57.6076 21.4538C57.7975 21.6724 58.0729 21.798 58.3626 21.798V20.798ZM59.4846 12.856V11.856C58.9863 11.856 58.5641 12.2228 58.4944 12.7161L59.4846 12.856ZM62.2126 12.856V13.856C62.6229 13.856 62.9916 13.6053 63.1425 13.2237L62.2126 12.856ZM62.5866 11.91L63.5165 12.2777C63.6383 11.9697 63.5997 11.6215 63.4135 11.3477C63.2273 11.0739 62.9177 10.91 62.5866 10.91V11.91ZM59.3746 11.91L58.3834 11.7772C58.3451 12.063 58.4321 12.3514 58.622 12.5685C58.8118 12.7855 59.0862 12.91 59.3746 12.91V11.91ZM59.6606 9.776V8.776C59.1596 8.776 58.736 9.14666 58.6694 9.64317L59.6606 9.776ZM52.7526 20.27L53.6222 19.7764C53.4446 19.4634 53.1125 19.27 52.7526 19.27V20.27ZM53.2146 21.084L52.3449 21.5776C52.5243 21.8937 52.8611 22.0876 53.2246 22.0839C53.5881 22.0803 53.921 21.8797 54.094 21.56L53.2146 21.084ZM54.5126 18.686L55.392 19.162C55.5597 18.8521 55.552 18.4769 55.3716 18.1742C55.1913 17.8714 54.8649 17.686 54.5126 17.686V18.686ZM49.6726 18.686L48.6822 18.5476C48.6421 18.8341 48.7282 19.124 48.9181 19.3423C49.108 19.5607 49.3832 19.686 49.6726 19.686V18.686ZM49.9586 16.64V15.64C49.4598 15.64 49.0372 16.0076 48.9682 16.5016L49.9586 16.64ZM58.2526 16.64L59.2427 16.7801C59.2833 16.4933 59.1975 16.203 59.0076 15.9843C58.8177 15.7656 58.5422 15.64 58.2526 15.64V16.64ZM57.9226 18.972L58.7614 19.5164C58.8407 19.3943 58.8923 19.2563 58.9127 19.1121L57.9226 18.972ZM54.9526 23.548V24.548C55.2913 24.548 55.607 24.3765 55.7914 24.0924L54.9526 23.548ZM54.9086 23.548V22.548C54.5461 22.548 54.2121 22.7441 54.0354 23.0605C53.8588 23.377 53.8671 23.7642 54.0573 24.0727L54.9086 23.548ZM55.8986 25.154V26.154C56.261 26.154 56.595 25.9579 56.7717 25.6415C56.9484 25.325 56.94 24.9378 56.7498 24.6293L55.8986 25.154ZM52.4666 25.154L51.6087 25.6679C51.7894 25.9695 52.1151 26.154 52.4666 26.154V25.154ZM49.5406 20.27V19.27C49.1804 19.27 48.8481 19.4637 48.6705 19.777C48.493 20.0904 48.4976 20.475 48.6827 20.7839L49.5406 20.27ZM56.0086 15.98V16.98C56.303 16.98 56.5826 16.8502 56.7726 16.6252C56.9626 16.4002 57.0438 16.1029 56.9944 15.8126L56.0086 15.98ZM53.3466 15.98L52.3616 16.153C52.4457 16.6312 52.861 16.98 53.3466 16.98V15.98ZM53.0606 14.352L54.0455 14.179C53.9685 13.7408 53.6113 13.4062 53.1691 13.3579C52.7269 13.3096 52.3059 13.5593 52.1362 13.9705L53.0606 14.352ZM52.4886 15.738V16.738C52.8935 16.738 53.2585 16.4938 53.4129 16.1195L52.4886 15.738ZM49.8706 15.738L48.9485 15.351C48.8189 15.6597 48.8524 16.0128 49.0378 16.2916C49.2231 16.5704 49.5357 16.738 49.8706 16.738V15.738ZM52.1146 10.392L53.0366 10.779C53.1856 10.4242 53.1177 10.0153 52.862 9.72764L52.1146 10.392ZM51.5866 9.798V8.798C51.1928 8.798 50.8356 9.02911 50.6743 9.38834C50.513 9.74758 50.5775 10.168 50.8392 10.4624L51.5866 9.798ZM58.1426 9.798L59.1337 9.66535C59.0673 9.16876 58.6436 8.798 58.1426 8.798V9.798ZM58.9346 15.716V16.716C59.2229 16.716 59.4972 16.5915 59.6871 16.3745C59.877 16.1575 59.964 15.8692 59.9257 15.5834L58.9346 15.716ZM56.5366 15.716L55.5492 15.8742C55.6269 16.3592 56.0453 16.716 56.5366 16.716V15.716ZM55.8986 11.734L56.886 11.5758C56.8083 11.0908 56.3898 10.734 55.8986 10.734V11.734ZM54.1606 11.734V10.734C53.7595 10.734 53.3973 10.9736 53.2403 11.3426L54.1606 11.734ZM53.3466 13.648L52.4263 13.2566C52.295 13.5655 52.3273 13.9197 52.5125 14.1996C52.6976 14.4796 53.0109 14.648 53.3466 14.648V13.648ZM55.6126 13.648L56.5984 13.4806C56.5168 12.9998 56.1002 12.648 55.6126 12.648V13.648ZM64.8526 15.584L65.8431 15.7214C65.8828 15.435 65.7966 15.1454 65.6067 14.9273C65.4168 14.7092 65.1418 14.584 64.8526 14.584V15.584ZM64.2146 20.182L63.2241 20.0446C63.1931 20.2678 63.2384 20.495 63.3527 20.6892L64.2146 20.182ZM67.1406 25.154V26.154C67.4993 26.154 67.8306 25.9618 68.0087 25.6504C68.1867 25.339 68.1844 24.956 68.0024 24.6468L67.1406 25.154ZM63.6866 25.154L62.7505 25.5059C62.8971 25.8958 63.27 26.154 63.6866 26.154V25.154ZM62.6526 22.404L63.5886 22.0521C63.4585 21.7061 63.1482 21.4601 62.7817 21.4124C62.4153 21.3646 62.0523 21.5229 61.838 21.824L62.6526 22.404ZM60.6946 25.154V26.154C61.0181 26.154 61.3216 25.9975 61.5092 25.734L60.6946 25.154ZM57.4386 25.154L56.6709 24.5132C56.4221 24.8111 56.3683 25.2262 56.5328 25.5778C56.6973 25.9294 57.0504 26.154 57.4386 26.154V25.154ZM61.6626 20.094L62.4302 20.7348C62.5496 20.5919 62.6266 20.4185 62.6527 20.2341L61.6626 20.094ZM62.3006 15.584V14.584C61.8024 14.584 61.3802 14.9507 61.3104 15.4439L62.3006 15.584ZM69.2306 9.776L68.2394 9.64317L67.9534 11.7772L68.9446 11.91L69.9357 12.0428L70.2217 9.90883L69.2306 9.776ZM68.9446 11.91V10.91H65.3806V11.91V12.91H68.9446V11.91ZM65.3806 11.91L64.4506 11.5423L64.0766 12.4883L65.0066 12.856L65.9365 13.2237L66.3105 12.2777L65.3806 11.91ZM65.0066 12.856V13.856H68.4386V12.856V11.856H65.0066V12.856ZM68.4386 12.856L67.4484 12.7161L66.3264 20.6581L67.3166 20.798L68.3067 20.9379L69.4287 12.9959L68.4386 12.856ZM67.3166 20.798V19.798H65.2266V20.798V21.798H67.3166V20.798ZM65.2266 20.798L66.0426 20.22L65.6686 19.692L64.8526 20.27L64.0365 20.848L64.4105 21.376L65.2266 20.798ZM64.8526 20.27L65.8428 20.4097L66.6127 14.9537L65.6226 14.814L64.6324 14.6743L63.8624 20.1303L64.8526 20.27ZM65.6226 14.814V13.814H61.7506V14.814V15.814H65.6226V14.814ZM61.7506 14.814L60.7604 14.6743L59.9904 20.1303L60.9806 20.27L61.9707 20.4097L62.7407 14.9537L61.7506 14.814ZM60.9806 20.27L60.2586 19.5781L59.7526 20.1061L60.4746 20.798L61.1965 21.4899L61.7025 20.9619L60.9806 20.27ZM60.4746 20.798V19.798H58.3626V20.798V21.798H60.4746V20.798ZM58.3626 20.798L59.3527 20.9379L60.4747 12.9959L59.4846 12.856L58.4944 12.7161L57.3724 20.6581L58.3626 20.798ZM59.4846 12.856V13.856H62.2126V12.856V11.856H59.4846V12.856ZM62.2126 12.856L63.1425 13.2237L63.5165 12.2777L62.5866 11.91L61.6566 11.5423L61.2826 12.4883L62.2126 12.856ZM62.5866 11.91V10.91H59.3746V11.91V12.91H62.5866V11.91ZM59.3746 11.91L60.3657 12.0428L60.6517 9.90883L59.6606 9.776L58.6694 9.64317L58.3834 11.7772L59.3746 11.91ZM59.6606 9.776V10.776H69.2306V9.776V8.776H59.6606V9.776ZM52.7526 20.27L51.8829 20.7636L52.3449 21.5776L53.2146 21.084L54.0842 20.5904L53.6222 19.7764L52.7526 20.27ZM53.2146 21.084L54.094 21.56L55.392 19.162L54.5126 18.686L53.6331 18.21L52.3351 20.608L53.2146 21.084ZM54.5126 18.686V17.686H49.6726V18.686V19.686H54.5126V18.686ZM49.6726 18.686L50.6629 18.8244L50.9489 16.7784L49.9586 16.64L48.9682 16.5016L48.6822 18.5476L49.6726 18.686ZM49.9586 16.64V17.64H58.2526V16.64V15.64H49.9586V16.64ZM58.2526 16.64L57.2624 16.4999L56.9324 18.8319L57.9226 18.972L58.9127 19.1121L59.2427 16.7801L58.2526 16.64ZM57.9226 18.972L57.0837 18.4276L54.1138 23.0036L54.9526 23.548L55.7914 24.0924L58.7614 19.5164L57.9226 18.972ZM54.9526 23.548V22.548H54.9086V23.548V24.548H54.9526V23.548ZM54.9086 23.548L54.0573 24.0727L55.0473 25.6787L55.8986 25.154L56.7498 24.6293L55.7598 23.0233L54.9086 23.548ZM55.8986 25.154V24.154H52.4666V25.154V26.154H55.8986V25.154ZM52.4666 25.154L53.3244 24.6401L50.3984 19.7561L49.5406 20.27L48.6827 20.7839L51.6087 25.6679L52.4666 25.154ZM49.5406 20.27V21.27H52.7526V20.27V19.27H49.5406V20.27ZM56.0086 15.98V14.98H53.3466V15.98V16.98H56.0086V15.98ZM53.3466 15.98L54.3315 15.807L54.0455 14.179L53.0606 14.352L52.0756 14.525L52.3616 16.153L53.3466 15.98ZM53.0606 14.352L52.1362 13.9705L51.5642 15.3565L52.4886 15.738L53.4129 16.1195L53.9849 14.7335L53.0606 14.352ZM52.4886 15.738V14.738H49.8706V15.738V16.738H52.4886V15.738ZM49.8706 15.738L50.7926 16.125L53.0366 10.779L52.1146 10.392L51.1925 10.005L48.9485 15.351L49.8706 15.738ZM52.1146 10.392L52.862 9.72764L52.334 9.13364L51.5866 9.798L50.8392 10.4624L51.3672 11.0564L52.1146 10.392ZM51.5866 9.798V10.798H58.1426V9.798V8.798H51.5866V9.798ZM58.1426 9.798L57.1514 9.93064L57.9434 15.8486L58.9346 15.716L59.9257 15.5834L59.1337 9.66535L58.1426 9.798ZM58.9346 15.716V14.716H56.5366V15.716V16.716H58.9346V15.716ZM56.5366 15.716L57.524 15.5578L56.886 11.5758L55.8986 11.734L54.9112 11.8922L55.5492 15.8742L56.5366 15.716ZM55.8986 11.734V10.734H54.1606V11.734V12.734H55.8986V11.734ZM54.1606 11.734L53.2403 11.3426L52.4263 13.2566L53.3466 13.648L54.2668 14.0394L55.0808 12.1254L54.1606 11.734ZM53.3466 13.648V14.648H55.6126V13.648V12.648H53.3466V13.648ZM55.6126 13.648L54.6267 13.8154L55.0227 16.1474L56.0086 15.98L56.9944 15.8126L56.5984 13.4806L55.6126 13.648ZM64.8526 15.584L63.8621 15.4466L63.2241 20.0446L64.2146 20.182L65.2051 20.3194L65.8431 15.7214L64.8526 15.584ZM64.2146 20.182L63.3527 20.6892L66.2787 25.6612L67.1406 25.154L68.0024 24.6468L65.0764 19.6748L64.2146 20.182ZM67.1406 25.154V24.154H63.6866V25.154V26.154H67.1406V25.154ZM63.6866 25.154L64.6226 24.8021L63.5886 22.0521L62.6526 22.404L61.7165 22.7559L62.7505 25.5059L63.6866 25.154ZM62.6526 22.404L61.838 21.824L59.88 24.574L60.6946 25.154L61.5092 25.734L63.4672 22.984L62.6526 22.404ZM60.6946 25.154V24.154H57.4386V25.154V26.154H60.6946V25.154ZM57.4386 25.154L58.2062 25.7948L62.4302 20.7348L61.6626 20.094L60.8949 19.4532L56.6709 24.5132L57.4386 25.154ZM61.6626 20.094L62.6527 20.2341L63.2907 15.7241L62.3006 15.584L61.3104 15.4439L60.6724 19.9539L61.6626 20.094ZM62.3006 15.584V16.584H64.8526V15.584V14.584H62.3006V15.584ZM78.7548 22.47L78.8815 23.4619C79.3273 23.405 79.6804 23.0576 79.7446 22.6128L78.7548 22.47ZM77.7208 22.602L77.5942 21.6101C77.1452 21.6674 76.7907 22.0191 76.7299 22.4676L77.7208 22.602ZM77.3688 25.198V26.198C77.8692 26.198 78.2925 25.8282 78.3598 25.3324L77.3688 25.198ZM74.0688 25.198L73.0783 25.0607C73.0386 25.3471 73.1248 25.6367 73.3148 25.8548C73.5047 26.0728 73.7797 26.198 74.0688 26.198V25.198ZM74.3768 22.976L75.3674 23.1133C75.4098 22.807 75.3082 22.4983 75.0921 22.2772C74.8761 22.056 74.5698 21.9472 74.2627 21.9825L74.3768 22.976ZM68.6348 23.636L67.644 23.5013C67.6024 23.8072 67.7044 24.1152 67.9205 24.3358C68.1365 24.5563 68.4423 24.6647 68.749 24.6295L68.6348 23.636ZM68.9428 21.37L68.8465 20.3747C68.3848 20.4193 68.0144 20.7757 67.952 21.2353L68.9428 21.37ZM69.6248 21.304L69.7212 22.2993C70.1823 22.2547 70.5524 21.8992 70.6155 21.4402L69.6248 21.304ZM70.9228 11.866L71.9135 12.0022C71.9529 11.716 71.8665 11.4266 71.6766 11.2088C71.4867 10.991 71.2118 10.866 70.9228 10.866V11.866ZM70.2628 11.866L69.2721 11.7304C69.2329 12.0166 69.3194 12.3058 69.5093 12.5234C69.6992 12.7411 69.974 12.866 70.2628 12.866V11.866ZM70.5488 9.776V8.776C70.049 8.776 69.6259 9.14514 69.5581 9.64042L70.5488 9.776ZM80.1628 9.776L81.1536 9.91158C81.1928 9.62538 81.1063 9.33623 80.9164 9.11857C80.7265 8.90091 80.4517 8.776 80.1628 8.776V9.776ZM79.8768 11.866V12.866C80.3767 12.866 80.7998 12.4969 80.8676 12.0016L79.8768 11.866ZM79.2388 11.866V10.866C78.7404 10.866 78.318 11.2331 78.2486 11.7267L79.2388 11.866ZM78.0508 20.314L77.0606 20.1747C77.0172 20.4835 77.1202 20.7948 77.3392 21.0166C77.5583 21.2384 77.8682 21.3454 78.1775 21.3059L78.0508 20.314ZM79.0848 20.182L80.0746 20.3248C80.1192 20.0156 80.0168 19.7033 79.7977 19.4807C79.5786 19.258 79.2681 19.1505 78.9582 19.1901L79.0848 20.182ZM82.9788 13.12L83.9694 13.2572C84.009 12.9707 83.9228 12.6812 83.7329 12.4632C83.543 12.2451 83.268 12.12 82.9788 12.12V13.12ZM82.7808 14.55L81.7903 14.4128C81.7686 14.5699 81.7845 14.7299 81.8367 14.8796L82.7808 14.55ZM83.5948 16.882L82.6507 17.2116C82.7828 17.5899 83.1279 17.8528 83.5277 17.8797C83.9275 17.9067 84.3047 17.6923 84.4863 17.3351L83.5948 16.882ZM84.9368 14.242L85.8283 14.6951C85.8795 14.5943 85.9133 14.4855 85.9282 14.3734L84.9368 14.242ZM85.1788 12.416L86.1702 12.5474C86.208 12.2618 86.1208 11.9737 85.931 11.757C85.7411 11.5403 85.467 11.416 85.1788 11.416V12.416ZM80.2288 12.416L79.2399 12.2677C79.1967 12.5555 79.2811 12.848 79.4711 13.0686C79.6611 13.2891 79.9377 13.416 80.2288 13.416V12.416ZM80.5588 10.216V9.216C80.0639 9.216 79.6433 9.57814 79.5699 10.0677L80.5588 10.216ZM88.4348 10.216L89.4247 10.3581C89.4659 10.071 89.3804 9.78019 89.1905 9.56104C89.0006 9.3419 88.7249 9.216 88.4348 9.216V10.216ZM87.7528 14.968L88.6046 15.4919C88.6763 15.3754 88.7233 15.2454 88.7427 15.1101L87.7528 14.968ZM84.6948 19.94L83.8431 19.4161C83.6842 19.6744 83.6511 19.9908 83.7531 20.2763L84.6948 19.94ZM86.5648 25.176V26.176C86.89 26.176 87.1949 26.0179 87.3823 25.752C87.5696 25.4862 87.616 25.1459 87.5066 24.8397L86.5648 25.176ZM83.7268 25.176L82.7865 25.5163C82.9298 25.9122 83.3058 26.176 83.7268 26.176V25.176ZM82.8908 22.866L83.8312 22.5257C83.7005 22.1647 83.3748 21.9104 82.9929 21.8712C82.611 21.8321 82.2404 22.015 82.0392 22.3419L82.8908 22.866ZM81.4828 25.154V26.154C81.8301 26.154 82.1525 25.9738 82.3345 25.6781L81.4828 25.154ZM78.1608 25.154L77.3314 24.5954C77.1249 24.902 77.1044 25.2975 77.2781 25.6238C77.4517 25.9501 77.7912 26.154 78.1608 26.154V25.154ZM81.7908 19.764L82.6203 20.3226C82.7971 20.0601 82.8392 19.7294 82.7338 19.431L81.7908 19.764ZM79.9648 14.594L78.9737 14.4609C78.9527 14.6179 78.9692 14.7777 79.0219 14.927L79.9648 14.594ZM80.1628 13.12V12.12C79.662 12.12 79.2384 12.4905 79.1717 12.9869L80.1628 13.12ZM73.9148 13.472L72.9241 13.3363C72.8849 13.6225 72.9714 13.9117 73.1613 14.1294C73.3512 14.3471 73.626 14.472 73.9148 14.472V13.472ZM75.7188 13.472V14.472C76.2187 14.472 76.6418 14.1029 76.7096 13.6077L75.7188 13.472ZM75.9388 11.866L76.9296 12.0017C76.9688 11.7155 76.8823 11.4263 76.6924 11.2086C76.5025 10.9909 76.2277 10.866 75.9388 10.866V11.866ZM74.1348 11.866V10.866C73.635 10.866 73.2119 11.2351 73.1441 11.7303L74.1348 11.866ZM73.4088 17.168L72.4181 17.0323C72.3789 17.3185 72.4654 17.6077 72.6553 17.8254C72.8452 18.0431 73.12 18.168 73.4088 18.168V17.168ZM75.1908 17.168V18.168C75.6856 18.168 76.106 17.8062 76.1797 17.317L75.1908 17.168ZM75.4328 15.562L76.4217 15.711C76.4651 15.423 76.3808 15.1304 76.1908 14.9097C76.0008 14.689 75.7241 14.562 75.4328 14.562V15.562ZM73.6288 15.562V14.562C73.129 14.562 72.7059 14.9311 72.6381 15.4263L73.6288 15.562ZM72.8808 20.908L71.8914 20.7629C71.8465 21.0691 71.9459 21.3788 72.1606 21.6017C72.3752 21.8246 72.681 21.9355 72.9886 21.9022L72.8808 20.908ZM74.7068 20.71L74.8146 21.7042C75.2714 21.6546 75.6356 21.3003 75.6977 20.8451L74.7068 20.71ZM74.9048 19.258L75.8957 19.3931C75.9347 19.107 75.8481 18.818 75.6582 18.6004C75.4683 18.3828 75.1936 18.258 74.9048 18.258V19.258ZM73.1228 19.258V18.258C72.6266 18.258 72.2054 18.6219 72.1334 19.1129L73.1228 19.258ZM78.7548 22.47L78.6282 21.4781L77.5942 21.6101L77.7208 22.602L77.8475 23.5939L78.8815 23.4619L78.7548 22.47ZM77.7208 22.602L76.7299 22.4676L76.3779 25.0636L77.3688 25.198L78.3598 25.3324L78.7118 22.7364L77.7208 22.602ZM77.3688 25.198V24.198H74.0688V25.198V26.198H77.3688V25.198ZM74.0688 25.198L75.0594 25.3353L75.3674 23.1133L74.3768 22.976L73.3863 22.8387L73.0783 25.0607L74.0688 25.198ZM74.3768 22.976L74.2627 21.9825L68.5207 22.6425L68.6348 23.636L68.749 24.6295L74.491 23.9695L74.3768 22.976ZM68.6348 23.636L69.6257 23.7707L69.9337 21.5047L68.9428 21.37L67.952 21.2353L67.644 23.5013L68.6348 23.636ZM68.9428 21.37L69.0392 22.3653L69.7212 22.2993L69.6248 21.304L69.5285 20.3086L68.8465 20.3747L68.9428 21.37ZM69.6248 21.304L70.6155 21.4402L71.9135 12.0022L70.9228 11.866L69.9322 11.7298L68.6342 21.1678L69.6248 21.304ZM70.9228 11.866V10.866H70.2628V11.866V12.866H70.9228V11.866ZM70.2628 11.866L71.2536 12.0016L71.5396 9.91158L70.5488 9.776L69.5581 9.64042L69.2721 11.7304L70.2628 11.866ZM70.5488 9.776V10.776H80.1628V9.776V8.776H70.5488V9.776ZM80.1628 9.776L79.1721 9.64042L78.8861 11.7304L79.8768 11.866L80.8676 12.0016L81.1536 9.91158L80.1628 9.776ZM79.8768 11.866V10.866H79.2388V11.866V12.866H79.8768V11.866ZM79.2388 11.866L78.2486 11.7267L77.0606 20.1747L78.0508 20.314L79.0411 20.4533L80.2291 12.0053L79.2388 11.866ZM78.0508 20.314L78.1775 21.3059L79.2115 21.1739L79.0848 20.182L78.9582 19.1901L77.9242 19.3221L78.0508 20.314ZM79.0848 20.182L78.0951 20.0392L77.7651 22.3272L78.7548 22.47L79.7446 22.6128L80.0746 20.3248L79.0848 20.182ZM82.9788 13.12L81.9883 12.9828L81.7903 14.4128L82.7808 14.55L83.7714 14.6872L83.9694 13.2572L82.9788 13.12ZM82.7808 14.55L81.8367 14.8796L82.6507 17.2116L83.5948 16.882L84.539 16.5524L83.725 14.2204L82.7808 14.55ZM83.5948 16.882L84.4863 17.3351L85.8283 14.6951L84.9368 14.242L84.0454 13.7889L82.7034 16.4289L83.5948 16.882ZM84.9368 14.242L85.9282 14.3734L86.1702 12.5474L85.1788 12.416L84.1875 12.2846L83.9455 14.1106L84.9368 14.242ZM85.1788 12.416V11.416H80.2288V12.416V13.416H85.1788V12.416ZM80.2288 12.416L81.2178 12.5643L81.5478 10.3643L80.5588 10.216L79.5699 10.0677L79.2399 12.2677L80.2288 12.416ZM80.5588 10.216V11.216H88.4348V10.216V9.216H80.5588V10.216ZM88.4348 10.216L87.445 10.0739L86.763 14.8259L87.7528 14.968L88.7427 15.1101L89.4247 10.3581L88.4348 10.216ZM87.7528 14.968L86.9011 14.4441L83.8431 19.4161L84.6948 19.94L85.5466 20.4639L88.6046 15.4919L87.7528 14.968ZM84.6948 19.94L83.7531 20.2763L85.6231 25.5123L86.5648 25.176L87.5066 24.8397L85.6366 19.6037L84.6948 19.94ZM86.5648 25.176V24.176H83.7268V25.176V26.176H86.5648V25.176ZM83.7268 25.176L84.6672 24.8357L83.8312 22.5257L82.8908 22.866L81.9505 23.2063L82.7865 25.5163L83.7268 25.176ZM82.8908 22.866L82.0392 22.3419L80.6312 24.6299L81.4828 25.154L82.3345 25.6781L83.7425 23.3901L82.8908 22.866ZM81.4828 25.154V24.154H78.1608V25.154V26.154H81.4828V25.154ZM78.1608 25.154L78.9903 25.7126L82.6203 20.3226L81.7908 19.764L80.9614 19.2054L77.3314 24.5954L78.1608 25.154ZM81.7908 19.764L82.7338 19.431L80.9078 14.261L79.9648 14.594L79.0219 14.927L80.8479 20.097L81.7908 19.764ZM79.9648 14.594L80.9559 14.7271L81.1539 13.2531L80.1628 13.12L79.1717 12.9869L78.9737 14.4609L79.9648 14.594ZM80.1628 13.12V14.12H82.9788V13.12V12.12H80.1628V13.12ZM73.9148 13.472V14.472H75.7188V13.472V12.472H73.9148V13.472ZM75.7188 13.472L76.7096 13.6077L76.9296 12.0017L75.9388 11.866L74.9481 11.7303L74.7281 13.3363L75.7188 13.472ZM75.9388 11.866V10.866H74.1348V11.866V12.866H75.9388V11.866ZM74.1348 11.866L73.1441 11.7303L72.9241 13.3363L73.9148 13.472L74.9056 13.6077L75.1256 12.0017L74.1348 11.866ZM73.4088 17.168V18.168H75.1908V17.168V16.168H73.4088V17.168ZM75.1908 17.168L76.1797 17.317L76.4217 15.711L75.4328 15.562L74.444 15.413L74.202 17.019L75.1908 17.168ZM75.4328 15.562V14.562H73.6288V15.562V16.562H75.4328V15.562ZM73.6288 15.562L72.6381 15.4263L72.4181 17.0323L73.4088 17.168L74.3996 17.3037L74.6196 15.6977L73.6288 15.562ZM72.8808 20.908L72.9886 21.9022L74.8146 21.7042L74.7068 20.71L74.599 19.7158L72.773 19.9138L72.8808 20.908ZM74.7068 20.71L75.6977 20.8451L75.8957 19.3931L74.9048 19.258L73.914 19.1229L73.716 20.5749L74.7068 20.71ZM74.9048 19.258V18.258H73.1228V19.258V20.258H74.9048V19.258ZM73.1228 19.258L72.1334 19.1129L71.8914 20.7629L72.8808 20.908L73.8703 21.0531L74.1123 19.4031L73.1228 19.258Z" fill="white" mask="url(#path-2-outside-1_1_53876)"/>
<path d="M90.458 22.0146C91.1486 21.9253 91.8743 21.9325 92.4902 22.207C92.8203 22.3542 93.1424 22.5899 93.376 22.9424C93.6111 23.2973 93.7001 23.6868 93.6992 24.0469C93.6974 24.7145 93.3902 25.3125 93.082 25.7568L93.0801 25.7588C94.1948 25.7297 95.6622 25.2559 97.3691 23.7949C97.9348 23.3107 98.7853 23.3767 99.2695 23.9424C99.7536 24.5081 99.6877 25.3586 99.1221 25.8428C95.9023 28.5987 92.7798 28.9155 90.583 28C88.4723 29.329 85.3912 30.3738 82.0518 29.9346C81.3135 29.8375 80.7935 29.1601 80.8906 28.4219C80.9878 27.6837 81.6651 27.1636 82.4033 27.2607C84.6195 27.5522 86.7297 26.9959 88.3398 26.1768C88.0497 25.7101 87.8633 25.1808 87.8564 24.6162C87.8486 23.9593 88.0932 23.3103 88.6162 22.8164C89.116 22.3445 89.7725 22.1034 90.458 22.0146Z" fill="#F9C854" stroke="white" stroke-linecap="round"/>
<defs>
<linearGradient id="paint0_linear_1_53876" x1="12.1452" y1="-0.370049" x2="21.3224" y2="34.9925" gradientUnits="userSpaceOnUse">
<stop stop-color="#FEED86"/>
<stop offset="1" stop-color="#FBB55D"/>
</linearGradient>
</defs>
</svg>
