<svg width="79" height="20" viewBox="0 0 79 20" fill="none" xmlns="http://www.w3.org/2000/svg">
<path d="M0 0H78.6329L75.6627 7.68795C72.9822 14.6261 66.3103 19.2011 58.8723 19.2011H0L0 0Z" fill="#DA7053"/>
<path d="M24.5726 7.16047H25.7403V11.5675C25.7403 12.1513 25.9004 12.2455 26.9456 12.2455C27.4353 12.2455 29.4975 12.2455 30.0531 12.2455C31.0231 12.2455 31.1737 12.0006 31.3056 10.6164C31.5975 10.8047 32.1248 11.0025 32.4544 11.059C32.2378 12.8481 31.8235 13.3661 30.1002 13.3661C29.6388 13.3661 27.3788 13.3661 26.955 13.3661C25.1282 13.3661 24.5726 13.0082 24.5726 11.5675V7.16047ZM25.2506 8.44114H30.4581V9.56172H25.2506V8.44114ZM24.196 5.3148H31.2114V9.99489H30.0343V6.43538H24.196V5.3148ZM35.7408 6.8403H41.6639V7.89497H35.7408V6.8403ZM35.4583 9.07205V12.0571H34.3566V10.1079H33.2077V9.07205H35.4583ZM35.4583 11.4451C35.8444 12.076 36.5412 12.3491 37.5206 12.3867C38.6129 12.4338 40.7316 12.4056 41.9841 12.302C41.8616 12.5656 41.6827 13.093 41.6356 13.4226C40.5056 13.4791 38.6129 13.4979 37.5111 13.4602C36.3529 13.4037 35.5713 13.1212 34.9686 12.3961C34.5261 12.7634 34.0741 13.1306 33.5373 13.5356L32.9911 12.3867C33.4526 12.1325 33.9799 11.7935 34.4507 11.4451H35.4583ZM33.6503 5.53138L34.4131 4.84397C34.9498 5.1453 35.6372 5.61613 35.9574 5.9928L35.1476 6.75555C34.8556 6.3883 34.1965 5.87038 33.6503 5.53138ZM33.2642 7.43355L34.0081 6.70847C34.5637 6.99097 35.2794 7.4618 35.6278 7.81964L34.8462 8.62005C34.5355 8.2528 33.8292 7.75372 33.2642 7.43355ZM38.0291 4.81572H39.1591C39.112 8.35639 39.0084 10.7482 36.3717 12.0195C36.2305 11.7464 35.9103 11.3321 35.6561 11.1437C38.0291 10.042 38.0008 8.05505 38.0291 4.81572ZM39.1685 7.5183C39.4981 9.26039 40.242 10.494 41.8711 11.0025C41.6262 11.2285 41.3061 11.6805 41.1648 11.9912C39.3474 11.2944 38.6035 9.84422 38.1797 7.65955L39.1685 7.5183ZM43.8862 8.32814H46.0615V9.36397H43.8862V8.32814ZM45.6283 8.32814H46.7301C46.7301 8.32814 46.7207 8.61064 46.7207 8.74247C46.683 10.7388 46.6359 11.5769 46.4193 11.8688C46.231 12.1042 46.0427 12.189 45.7696 12.2361C45.5153 12.2737 45.1104 12.2737 44.6678 12.2643C44.649 11.9347 44.5266 11.4921 44.3571 11.2096C44.6961 11.2473 45.0162 11.2473 45.1669 11.2473C45.2987 11.2473 45.3835 11.2285 45.4588 11.1343C45.5718 10.9836 45.6095 10.3245 45.6283 8.49764V8.32814ZM48.4627 5.38072L49.1407 4.6933C49.6587 4.96638 50.3555 5.39955 50.6945 5.7103L49.9694 6.47305C49.6587 6.14347 48.9901 5.68205 48.4627 5.38072ZM49.5739 7.8008L50.7133 8.07389C49.9223 10.5316 48.5381 12.4432 46.6736 13.5921C46.5041 13.3566 46.0897 12.8858 45.8543 12.6598C47.6623 11.6899 48.9242 9.98547 49.5739 7.8008ZM43.9522 6.19997H51.2124V7.31114H43.9522V6.19997ZM43.1988 6.19997H44.3853V8.96847C44.3853 10.381 44.2252 12.4715 43.3683 13.7427C43.18 13.5167 42.6715 13.1024 42.4078 12.9706C43.1329 11.8406 43.1988 10.1926 43.1988 8.95905V6.19997ZM47.022 4.79688H48.2085C48.1426 8.63889 49.0089 12.415 49.96 12.415C50.1766 12.415 50.2896 11.9347 50.3461 10.7482C50.6003 11.0119 51.0052 11.2756 51.3066 11.3886C51.1277 13.1401 50.751 13.5638 49.8658 13.5638C47.813 13.5638 47.0502 9.09089 47.022 4.79688Z" fill="white"/>
</svg>
