<svg width="35" height="82" viewBox="0 0 35 82" fill="none" xmlns="http://www.w3.org/2000/svg">
<path d="M34.382 80.0977H32.965V81.0977H30.132V80.0977H27.299V81.0977H24.465V80.0977H21.632V81.0977H18.799V80.0977H15.965V81.0977H13.132V80.0977H10.299V81.0977H7.46497V80.0977H4.63196V81.0977H1.79895V80.0977H0.381958V17.0977C0.381958 13.7839 3.06825 11.0977 6.38196 11.0977H34.382V80.0977Z" fill="url(#paint0_linear_1_55775)"/>
<path opacity="0.2" d="M31.382 80.0977H28.382V77.0977H31.382V80.0977ZM34.382 77.0977H31.382V74.0977H34.382V77.0977ZM31.382 74.0977H28.382V71.0977H31.382V74.0977ZM34.382 71.0977H31.382V68.0977H34.382V71.0977ZM31.382 68.0977H28.382V65.0977H31.382V68.0977ZM34.382 65.0977H31.382V62.0977H34.382V65.0977ZM31.382 62.0977H28.382V59.0977H31.382V62.0977ZM34.382 59.0977H31.382V56.0977H34.382V59.0977ZM31.382 56.0977H28.382V53.0977H31.382V56.0977ZM34.382 53.0977H31.382V50.0977H34.382V53.0977ZM31.382 50.0977H28.382V47.0977H31.382V50.0977ZM34.382 47.0977H31.382V44.0977H34.382V47.0977ZM31.382 44.0977H28.382V41.0977H31.382V44.0977ZM34.382 41.0977H31.382V38.0977H34.382V41.0977ZM31.382 38.0977H28.382V35.0977H31.382V38.0977ZM34.382 35.0977H31.382V32.0977H34.382V35.0977ZM31.382 32.0977H28.382V29.0977H31.382V32.0977ZM34.382 29.0977H31.382V26.0977H34.382V29.0977ZM31.382 26.0977H28.382V23.0977H31.382V26.0977ZM34.382 23.0977H31.382V20.0977H34.382V23.0977ZM31.382 20.0977H28.382V17.0977H31.382V20.0977ZM34.382 17.0977H31.382V14.0977H34.382V17.0977ZM31.382 14.0977H28.382V11.0977H31.382V14.0977Z" fill="white"/>
<g filter="url(#filter0_i_1_55775)">
<path d="M11.2135 12.8342L7.77434 2.93631C7.08536 0.953386 4.91935 -0.095557 2.93643 0.593429C0.953506 1.28241 -0.0954347 3.44843 0.593551 5.43135L6.07436 21.2053C6.61109 22.75 8.29844 23.5671 9.84316 23.0304C11.3879 22.4937 12.205 20.8063 11.6683 19.2616L7.40528 6.99253C7.01212 5.86098 5.77609 5.2624 4.64454 5.65557C3.51299 6.04874 2.91442 7.28476 3.30759 8.41631L5.52891 14.8094" stroke="white" stroke-width="0.763605" stroke-linecap="round"/>
</g>
<g filter="url(#filter1_d_1_55775)">
<path d="M18.486 36.6737H20.422V41.0417C20.422 41.5857 20.502 41.6497 21.03 41.6497C21.27 41.6497 22.198 41.6497 22.486 41.6497C23.014 41.6497 23.11 41.3297 23.174 39.0737C23.574 39.4097 24.422 39.7297 24.934 39.8577C24.742 42.7217 24.246 43.4737 22.662 43.4737C22.294 43.4737 21.094 43.4737 20.742 43.4737C18.934 43.4737 18.486 42.8657 18.486 41.0577V36.6737ZM14.23 36.7377H16.262C16.022 40.0817 15.318 42.3537 10.95 43.5697C10.742 43.0577 10.246 42.2737 9.82996 41.8897C13.638 40.9777 14.022 39.3137 14.23 36.7377ZM18.774 32.8977L20.374 31.9537C21.766 33.1537 23.526 34.8657 24.342 36.0817L22.598 37.1697C21.878 35.9697 20.198 34.1617 18.774 32.8977ZM14.678 31.3137L16.79 31.9057C16.086 33.2977 15.254 34.8177 14.598 35.7937L12.982 35.2337C13.59 34.1617 14.31 32.5297 14.678 31.3137ZM10.87 34.4657C13.766 34.4017 18.262 34.2577 22.39 34.1297L22.31 35.9057C18.262 36.1457 13.862 36.3377 10.934 36.4337L10.87 34.4657ZM10.358 30.2257H24.406V32.0337H10.358V30.2257ZM16.358 28.5137H18.326V31.2337H16.358V28.5137ZM14.726 49.9697H24.502V51.6177H14.726V49.9697ZM14.022 61.6337H24.854V63.2337H14.022V61.6337ZM15.414 52.7217H23.638V61.9217H21.878V54.1137H17.11V61.9217H15.414V52.7217ZM16.678 54.9937H22.182V56.3217H16.678V54.9937ZM16.646 57.2177H22.598V58.4977H16.646V57.2177ZM16.598 59.4097H22.214V60.7217H16.598V59.4097ZM18.742 48.5457L20.774 48.6097C20.502 50.3057 20.102 52.1777 19.75 53.3457L18.086 53.2177C18.374 51.9537 18.646 49.9857 18.742 48.5457ZM13.158 48.5617L14.918 49.1217C13.926 51.8417 12.358 54.7377 10.694 56.5777C10.518 56.0977 10.006 55.0417 9.70196 54.5777C11.078 53.1057 12.374 50.8497 13.158 48.5617ZM11.574 53.0097L13.35 51.1857V51.2017V63.5217H11.574V53.0097Z" fill="white"/>
</g>
<defs>
<filter id="filter0_i_1_55775" x="0" y="0" width="12.2151" height="24.0331" filterUnits="userSpaceOnUse" color-interpolation-filters="sRGB">
<feFlood flood-opacity="0" result="BackgroundImageFix"/>
<feBlend mode="normal" in="SourceGraphic" in2="BackgroundImageFix" result="shape"/>
<feColorMatrix in="SourceAlpha" type="matrix" values="0 0 0 0 0 0 0 0 0 0 0 0 0 0 0 0 0 0 127 0" result="hardAlpha"/>
<feOffset dy="0.455902"/>
<feGaussianBlur stdDeviation="0.455902"/>
<feComposite in2="hardAlpha" operator="arithmetic" k2="-1" k3="1"/>
<feColorMatrix type="matrix" values="0 0 0 0 1 0 0 0 0 1 0 0 0 0 1 0 0 0 1 0"/>
<feBlend mode="normal" in2="shape" result="effect1_innerShadow_1_55775"/>
</filter>
<filter id="filter1_d_1_55775" x="9.7019" y="28.5137" width="15.2321" height="35.7078" filterUnits="userSpaceOnUse" color-interpolation-filters="sRGB">
<feFlood flood-opacity="0" result="BackgroundImageFix"/>
<feColorMatrix in="SourceAlpha" type="matrix" values="0 0 0 0 0 0 0 0 0 0 0 0 0 0 0 0 0 0 127 0" result="hardAlpha"/>
<feOffset dy="0.7"/>
<feComposite in2="hardAlpha" operator="out"/>
<feColorMatrix type="matrix" values="0 0 0 0 0.401899 0 0 0 0 0.2 0 0 0 0 0.75 0 0 0 1 0"/>
<feBlend mode="normal" in2="BackgroundImageFix" result="effect1_dropShadow_1_55775"/>
<feBlend mode="normal" in="SourceGraphic" in2="effect1_dropShadow_1_55775" result="shape"/>
</filter>
<linearGradient id="paint0_linear_1_55775" x1="17.382" y1="11.0977" x2="17.382" y2="81.0977" gradientUnits="userSpaceOnUse">
<stop stop-color="#985DFF"/>
<stop offset="1" stop-color="#C2A8EE"/>
</linearGradient>
</defs>
</svg>
