<svg width="74" height="26" viewBox="0 0 74 26" fill="none" xmlns="http://www.w3.org/2000/svg">
<g filter="url(#filter0_dii_1_58294)">
<path d="M2.78937 4.37983C3.10214 1.87768 5.22915 0 7.75076 0H67.6729C70.6804 0 73.0074 2.63591 72.6343 5.62017L70.8843 19.6202C70.5716 22.1223 68.4446 24 65.9229 24H6.00076C2.99327 24 0.666342 21.3641 1.03937 18.3798L2.78937 4.37983Z" fill="url(#paint0_linear_1_58294)"/>
<path d="M7.75092 0.200195H67.6728C70.56 0.200195 72.7936 2.73081 72.4355 5.5957L70.6855 19.5957C70.3851 21.9976 68.3434 23.7998 65.9228 23.7998H6.00092C3.11373 23.7998 0.880108 21.2692 1.23822 18.4043L2.98822 4.4043C3.28865 2.00243 5.33029 0.200195 7.75092 0.200195Z" stroke="#FFEFE7" stroke-width="0.4"/>
</g>
<path d="M25.2347 10.816L25.0667 12.04H15.3227L15.4907 10.816H25.2347ZM32.7338 14.092H31.4018L31.5338 13.18H32.8538L32.9018 12.844H32.0258L32.1458 11.956H33.0338L33.0818 11.572H32.2058L32.3258 10.66H33.2138L33.2858 10.204H32.1458L32.2658 9.292H33.4058L33.4778 8.836H32.5658L32.6858 7.924H33.5978L33.6698 7.468H35.2658L35.1938 7.924H36.5138L36.3218 9.292H36.5738L36.4538 10.204H36.1898L36.0098 11.572H34.6778L34.6298 11.956H35.7698L35.6498 12.844H34.4978L34.4498 13.18H36.0098L35.8778 14.092H34.3298L34.2698 14.5H32.6738L32.7338 14.092ZM30.6938 15.904L30.3698 15.496L30.2138 15.88H28.7738L29.4218 14.296L29.1218 13.912L29.3378 12.364L29.9378 13.036L30.4538 11.776L30.5618 11.548H29.4098L30.7538 8.812H29.8658L29.9978 7.9H32.3258L32.1938 8.812L31.2098 10.636H32.0618L31.8938 11.776L30.9218 14.14L31.4738 14.752H35.8178L35.6618 15.904H30.6938ZM26.8898 12.004L27.0098 11.224H26.5298L26.6858 10.084H29.1938L29.0378 11.224H28.6898L28.5698 12.004H29.1458L28.9778 13.144H28.4138L28.2218 14.5L28.8218 14.308L28.6538 15.448L26.3138 16.108L26.7338 13.144H26.0498L26.2178 12.004H26.8898ZM29.1818 7.468L28.8218 8.332H29.6618L29.4938 9.472H28.3418L28.1978 9.832H26.5178L27.3458 7.828L27.0458 7.468H29.1818ZM34.9658 10.66L35.0258 10.204H34.6058L34.5458 10.66H34.9658ZM34.8098 8.836L34.7378 9.292H35.1578L35.2298 8.836H34.8098ZM47.7209 7.696L47.5649 8.86H45.6209L45.4169 9.376H47.2889L46.6769 13.708H45.5369L45.3329 13.42L45.7529 10.444H43.6409L43.2209 13.42L42.9449 13.708H41.7929L42.4049 9.376H43.8929L44.0969 8.86H42.3449L42.5009 7.696H47.7209ZM38.7329 13.42L38.9849 13.864L39.6929 12.556H37.0529L37.2089 11.44H41.7329L41.5529 12.712L39.9329 15.208H39.9089L40.4489 16.084H38.5769L36.9809 13.42H38.7329ZM40.5089 11.08H39.0569L38.9009 10.192L38.5889 10.948H37.1609L38.3849 8.032L38.0969 7.708H41.6729L42.1049 10.936H40.7969L40.4489 8.764H39.5009L39.0569 9.808H40.2929L40.5089 11.08ZM45.3329 10.864L44.9849 13.372L46.5809 16.084H44.6969L44.1329 14.584L43.0649 16.084H41.2889L43.5929 13.324L43.9409 10.864H45.3329ZM53.5159 14.62L52.9519 14.692L52.7599 16.108H50.9599L51.1279 14.896L47.9959 15.256L48.1639 14.02L48.5359 13.984L49.2439 8.836H48.8839L49.0399 7.696H54.2839L54.1279 8.836H53.7799L53.1319 13.444L53.6959 13.372L53.5159 14.62ZM55.8199 9.52L55.7119 10.3L56.1559 11.572L56.8879 10.132L57.0199 9.136H54.3199L54.4999 7.936H58.7959L58.4239 10.528L56.7559 13.24L57.7759 16.096H56.2279L55.7719 14.836L55.0039 16.084H53.1919L55.1719 13.144L54.1759 10.324L54.2839 9.52H55.8199ZM50.8759 9.712H51.8599L51.9799 8.836H50.9959L50.8759 9.712ZM50.5999 11.728H51.5719L51.7039 10.852H50.7199L50.5999 11.728ZM50.3119 13.768L51.3079 13.66L51.4159 12.868H50.4439L50.3119 13.768Z" fill="white"/>
<defs>
<filter id="filter0_dii_1_58294" x="0" y="-3" width="73.6737" height="30" filterUnits="userSpaceOnUse" color-interpolation-filters="sRGB">
<feFlood flood-opacity="0" result="BackgroundImageFix"/>
<feColorMatrix in="SourceAlpha" type="matrix" values="0 0 0 0 0 0 0 0 0 0 0 0 0 0 0 0 0 0 127 0" result="hardAlpha"/>
<feOffset dy="1"/>
<feGaussianBlur stdDeviation="0.5"/>
<feComposite in2="hardAlpha" operator="out"/>
<feColorMatrix type="matrix" values="0 0 0 0 0.745833 0 0 0 0 0.424711 0 0 0 0 0.424711 0 0 0 0.25 0"/>
<feBlend mode="normal" in2="BackgroundImageFix" result="effect1_dropShadow_1_58294"/>
<feBlend mode="normal" in="SourceGraphic" in2="effect1_dropShadow_1_58294" result="shape"/>
<feColorMatrix in="SourceAlpha" type="matrix" values="0 0 0 0 0 0 0 0 0 0 0 0 0 0 0 0 0 0 127 0" result="hardAlpha"/>
<feOffset dy="-3"/>
<feGaussianBlur stdDeviation="2"/>
<feComposite in2="hardAlpha" operator="arithmetic" k2="-1" k3="1"/>
<feColorMatrix type="matrix" values="0 0 0 0 0.887288 0 0 0 0 0.518855 0 0 0 0 0.255688 0 0 0 0.5 0"/>
<feBlend mode="normal" in2="shape" result="effect2_innerShadow_1_58294"/>
<feColorMatrix in="SourceAlpha" type="matrix" values="0 0 0 0 0 0 0 0 0 0 0 0 0 0 0 0 0 0 127 0" result="hardAlpha"/>
<feOffset dy="3"/>
<feGaussianBlur stdDeviation="2"/>
<feComposite in2="hardAlpha" operator="arithmetic" k2="-1" k3="1"/>
<feColorMatrix type="matrix" values="0 0 0 0 1 0 0 0 0 0.632292 0 0 0 0 0.632292 0 0 0 0.25 0"/>
<feBlend mode="normal" in2="effect2_innerShadow_1_58294" result="effect3_innerShadow_1_58294"/>
</filter>
<linearGradient id="paint0_linear_1_58294" x1="36.8368" y1="0" x2="36.8368" y2="24" gradientUnits="userSpaceOnUse">
<stop stop-color="white"/>
<stop offset="0.123822" stop-color="#FFB339"/>
<stop offset="1" stop-color="#FF6B1B"/>
</linearGradient>
</defs>
</svg>
