<svg width="74" height="26" viewBox="0 0 74 26" fill="none" xmlns="http://www.w3.org/2000/svg">
<g filter="url(#filter0_dii_1_55520)">
<path d="M2.78931 4.37983C3.10208 1.87768 5.22909 0 7.7507 0H67.6729C70.6804 0 73.0073 2.63591 72.6343 5.62017L70.8843 19.6202C70.5715 22.1223 68.4445 24 65.9229 24H6.0007C2.99321 24 0.66628 21.3641 1.03931 18.3798L2.78931 4.37983Z" fill="url(#paint0_linear_1_55520)"/>
<path d="M7.75085 0.200195H67.6727C70.5599 0.200195 72.7935 2.73081 72.4354 5.5957L70.6854 19.5957C70.385 21.9976 68.3434 23.7998 65.9227 23.7998H6.00085C3.11366 23.7998 0.880047 21.2692 1.23816 18.4043L2.98816 4.4043C3.28859 2.00243 5.33023 0.200195 7.75085 0.200195Z" stroke="#FFEFE7" stroke-width="0.4"/>
</g>
<path d="M25.2347 10.816L25.0667 12.04H15.3227L15.4907 10.816H25.2347ZM32.7337 14.092H31.4017L31.5337 13.18H32.8537L32.9017 12.844H32.0257L32.1457 11.956H33.0337L33.0817 11.572H32.2057L32.3257 10.66H33.2137L33.2857 10.204H32.1457L32.2657 9.292H33.4057L33.4777 8.836H32.5657L32.6857 7.924H33.5977L33.6697 7.468H35.2657L35.1937 7.924H36.5137L36.3217 9.292H36.5737L36.4537 10.204H36.1897L36.0097 11.572H34.6777L34.6297 11.956H35.7697L35.6497 12.844H34.4977L34.4497 13.18H36.0097L35.8777 14.092H34.3297L34.2697 14.5H32.6737L32.7337 14.092ZM30.6937 15.904L30.3697 15.496L30.2137 15.88H28.7737L29.4217 14.296L29.1217 13.912L29.3377 12.364L29.9377 13.036L30.4537 11.776L30.5617 11.548H29.4097L30.7537 8.812H29.8657L29.9977 7.9H32.3257L32.1937 8.812L31.2097 10.636H32.0617L31.8937 11.776L30.9217 14.14L31.4737 14.752H35.8177L35.6617 15.904H30.6937ZM26.8897 12.004L27.0097 11.224H26.5297L26.6857 10.084H29.1937L29.0377 11.224H28.6897L28.5697 12.004H29.1457L28.9777 13.144H28.4137L28.2217 14.5L28.8217 14.308L28.6537 15.448L26.3137 16.108L26.7337 13.144H26.0497L26.2177 12.004H26.8897ZM29.1817 7.468L28.8217 8.332H29.6617L29.4937 9.472H28.3417L28.1977 9.832H26.5177L27.3457 7.828L27.0457 7.468H29.1817ZM34.9657 10.66L35.0257 10.204H34.6057L34.5457 10.66H34.9657ZM34.8097 8.836L34.7377 9.292H35.1577L35.2297 8.836H34.8097ZM47.7208 7.696L47.5648 8.86H45.6208L45.4168 9.376H47.2888L46.6768 13.708H45.5368L45.3328 13.42L45.7528 10.444H43.6408L43.2208 13.42L42.9448 13.708H41.7928L42.4048 9.376H43.8928L44.0968 8.86H42.3448L42.5008 7.696H47.7208ZM38.7328 13.42L38.9848 13.864L39.6928 12.556H37.0528L37.2088 11.44H41.7328L41.5528 12.712L39.9328 15.208H39.9088L40.4488 16.084H38.5768L36.9808 13.42H38.7328ZM40.5088 11.08H39.0568L38.9008 10.192L38.5888 10.948H37.1608L38.3848 8.032L38.0968 7.708H41.6728L42.1048 10.936H40.7968L40.4488 8.764H39.5008L39.0568 9.808H40.2928L40.5088 11.08ZM45.3328 10.864L44.9848 13.372L46.5808 16.084H44.6968L44.1328 14.584L43.0648 16.084H41.2888L43.5928 13.324L43.9408 10.864H45.3328ZM53.5159 14.62L52.9519 14.692L52.7599 16.108H50.9599L51.1279 14.896L47.9959 15.256L48.1639 14.02L48.5359 13.984L49.2439 8.836H48.8839L49.0399 7.696H54.2839L54.1279 8.836H53.7799L53.1319 13.444L53.6959 13.372L53.5159 14.62ZM55.8199 9.52L55.7119 10.3L56.1559 11.572L56.8879 10.132L57.0199 9.136H54.3199L54.4999 7.936H58.7959L58.4239 10.528L56.7559 13.24L57.7759 16.096H56.2279L55.7719 14.836L55.0039 16.084H53.1919L55.1719 13.144L54.1759 10.324L54.2839 9.52H55.8199ZM50.8759 9.712H51.8599L51.9799 8.836H50.9959L50.8759 9.712ZM50.5999 11.728H51.5719L51.7039 10.852H50.7199L50.5999 11.728ZM50.3119 13.768L51.3079 13.66L51.4159 12.868H50.4439L50.3119 13.768Z" fill="white"/>
<defs>
<filter id="filter0_dii_1_55520" x="0" y="-3" width="73.6736" height="30" filterUnits="userSpaceOnUse" color-interpolation-filters="sRGB">
<feFlood flood-opacity="0" result="BackgroundImageFix"/>
<feColorMatrix in="SourceAlpha" type="matrix" values="0 0 0 0 0 0 0 0 0 0 0 0 0 0 0 0 0 0 127 0" result="hardAlpha"/>
<feOffset dy="1"/>
<feGaussianBlur stdDeviation="0.5"/>
<feComposite in2="hardAlpha" operator="out"/>
<feColorMatrix type="matrix" values="0 0 0 0 0.745833 0 0 0 0 0.424711 0 0 0 0 0.424711 0 0 0 0.25 0"/>
<feBlend mode="normal" in2="BackgroundImageFix" result="effect1_dropShadow_1_55520"/>
<feBlend mode="normal" in="SourceGraphic" in2="effect1_dropShadow_1_55520" result="shape"/>
<feColorMatrix in="SourceAlpha" type="matrix" values="0 0 0 0 0 0 0 0 0 0 0 0 0 0 0 0 0 0 127 0" result="hardAlpha"/>
<feOffset dy="-3"/>
<feGaussianBlur stdDeviation="2"/>
<feComposite in2="hardAlpha" operator="arithmetic" k2="-1" k3="1"/>
<feColorMatrix type="matrix" values="0 0 0 0 0.887288 0 0 0 0 0.518855 0 0 0 0 0.255688 0 0 0 0.5 0"/>
<feBlend mode="normal" in2="shape" result="effect2_innerShadow_1_55520"/>
<feColorMatrix in="SourceAlpha" type="matrix" values="0 0 0 0 0 0 0 0 0 0 0 0 0 0 0 0 0 0 127 0" result="hardAlpha"/>
<feOffset dy="3"/>
<feGaussianBlur stdDeviation="2"/>
<feComposite in2="hardAlpha" operator="arithmetic" k2="-1" k3="1"/>
<feColorMatrix type="matrix" values="0 0 0 0 1 0 0 0 0 0.632292 0 0 0 0 0.632292 0 0 0 0.25 0"/>
<feBlend mode="normal" in2="effect2_innerShadow_1_55520" result="effect3_innerShadow_1_55520"/>
</filter>
<linearGradient id="paint0_linear_1_55520" x1="36.8368" y1="0" x2="36.8368" y2="24" gradientUnits="userSpaceOnUse">
<stop stop-color="white"/>
<stop offset="0.123822" stop-color="#FFB339"/>
<stop offset="1" stop-color="#FF6B1B"/>
</linearGradient>
</defs>
</svg>
