<svg width="160" height="32" viewBox="0 0 160 32" fill="none" xmlns="http://www.w3.org/2000/svg">
<g filter="url(#filter0_i_1_54160)">
<rect width="160" height="31.1712" rx="6" fill="url(#paint0_linear_1_54160)" fill-opacity="0.4"/>
</g>
<rect x="0.5" y="0.5" width="159" height="30.1712" rx="5.5" stroke="url(#paint1_linear_1_54160)"/>
<path d="M28.3066 20.9663V19.0425L33.0625 8.84717H35.3379L30.5234 19.0425H34.2441V14.9507H36.2852V19.0425H37.418V20.9663H36.2852V23.0854H34.2441V20.9663H28.3066ZM38.3164 23.0854V21.1616L43.873 14.2085C44.0879 13.9285 44.2344 13.6681 44.3125 13.4272C44.3646 13.1994 44.3906 12.9845 44.3906 12.7827C44.3906 12.2489 44.2246 11.7834 43.8926 11.3862C43.5475 10.9891 43.0592 10.784 42.4277 10.771C41.8678 10.771 41.4023 10.95 41.0312 11.3081C40.6471 11.6662 40.4193 12.1707 40.3477 12.8218H38.3164C38.3685 11.6369 38.7656 10.6571 39.5078 9.88232C40.2565 9.12712 41.1777 8.743 42.2715 8.72998C43.4954 8.743 44.4883 9.13363 45.25 9.90186C46.0247 10.6636 46.4186 11.6304 46.4316 12.8022C46.4316 13.7397 46.1452 14.5731 45.5723 15.3022L40.9922 21.0444H46.4316V23.0854H38.3164ZM50.0449 12.8022C50.0579 13.4598 50.2695 13.9611 50.6797 14.3062C51.0833 14.6642 51.5488 14.8433 52.0762 14.8433C52.623 14.8433 53.0983 14.6642 53.502 14.3062C53.8991 13.9611 54.1042 13.4598 54.1172 12.8022C54.1042 12.1252 53.8991 11.6141 53.502 11.269C53.0983 10.937 52.623 10.771 52.0762 10.771C51.5488 10.771 51.0833 10.937 50.6797 11.269C50.2695 11.6141 50.0579 12.1252 50.0449 12.8022ZM47.7402 18.9253C47.7533 17.5516 48.3132 16.4839 49.4199 15.7222C48.9967 15.3511 48.6647 14.9246 48.4238 14.4429C48.1439 13.9937 48.0039 13.4598 48.0039 12.8413C48.0169 11.6564 48.4173 10.6766 49.2051 9.90186C49.9473 9.13363 50.9043 8.743 52.0762 8.72998C53.2676 8.743 54.2409 9.13363 54.9961 9.90186C55.7578 10.6766 56.1452 11.6564 56.1582 12.8413C56.1582 13.4598 56.0312 13.9937 55.7773 14.4429C55.5104 14.9246 55.1654 15.3511 54.7422 15.7222C55.849 16.4839 56.4089 17.5516 56.4219 18.9253C56.4089 20.2078 55.9889 21.2332 55.1621 22.0015C54.3223 22.7892 53.2936 23.1896 52.0762 23.2026C50.8652 23.1896 49.8529 22.7892 49.0391 22.0015C48.1862 21.2332 47.7533 20.2078 47.7402 18.9253ZM49.7812 18.9058C49.7943 19.5568 50.0286 20.0907 50.4844 20.5073C50.9206 20.9435 51.4512 21.1616 52.0762 21.1616C52.7207 21.1616 53.2611 20.9435 53.6973 20.5073C54.14 20.0907 54.3678 19.5568 54.3809 18.9058C54.3678 18.2417 54.14 17.7013 53.6973 17.2847C53.2611 16.8745 52.7207 16.6629 52.0762 16.6499C51.4512 16.6629 50.9206 16.8745 50.4844 17.2847C50.0286 17.7013 49.7943 18.2417 49.7812 18.9058ZM59 23.0854C58.9935 23.0854 59.0488 22.9683 59.166 22.7339C59.2832 22.493 59.4362 22.1838 59.625 21.8062C59.8138 21.4285 60.0254 21.0086 60.2598 20.5464C60.4941 20.0841 60.7253 19.6284 60.9531 19.1792C61.181 18.73 61.3926 18.3166 61.5879 17.939C61.7897 17.5614 61.9525 17.2651 62.0762 17.0503C61.8874 17.161 61.6725 17.2293 61.4316 17.2554C61.1973 17.2749 60.9238 17.2782 60.6113 17.2651C60.1816 17.2521 59.804 17.174 59.4785 17.0308C59.1595 16.8875 58.8828 16.7085 58.6484 16.4937C58.4141 16.2788 58.2188 16.0412 58.0625 15.7808C57.9062 15.5138 57.7793 15.2567 57.6816 15.0093C57.5905 14.7554 57.5221 14.521 57.4766 14.3062C57.4375 14.0848 57.418 13.9123 57.418 13.7886C57.418 13.7495 57.4147 13.6779 57.4082 13.5737C57.4082 13.4696 57.4082 13.3556 57.4082 13.2319C57.4082 13.1017 57.4082 12.9715 57.4082 12.8413C57.4147 12.7111 57.4245 12.6004 57.4375 12.5093C57.444 12.4637 57.4635 12.3498 57.4961 12.1675C57.5352 11.9787 57.6035 11.7541 57.7012 11.4937C57.7988 11.2332 57.9355 10.9565 58.1113 10.6636C58.2871 10.3641 58.515 10.0841 58.7949 9.82373C59.0814 9.56331 59.4297 9.3387 59.8398 9.1499C60.2565 8.9611 60.748 8.84066 61.3145 8.78857C61.9069 8.73649 62.4277 8.7723 62.877 8.896C63.3327 9.01969 63.7233 9.19873 64.0488 9.43311C64.3743 9.66748 64.6445 9.94092 64.8594 10.2534C65.0742 10.5659 65.2402 10.8849 65.3574 11.2104C65.4811 11.5295 65.5625 11.842 65.6016 12.1479C65.6406 12.4474 65.6471 12.7046 65.6211 12.9194C65.582 13.2384 65.5397 13.5249 65.4941 13.7788C65.4486 14.0262 65.3932 14.2638 65.3281 14.4917C65.2695 14.7196 65.2012 14.9442 65.123 15.1655C65.0449 15.3869 64.9538 15.6278 64.8496 15.8882C64.8236 15.9598 64.752 16.116 64.6348 16.3569C64.5241 16.5978 64.3809 16.894 64.2051 17.2456C64.0358 17.5907 63.847 17.978 63.6387 18.4077C63.4368 18.8309 63.2285 19.2573 63.0137 19.687C62.5124 20.7026 61.9525 21.8354 61.334 23.0854H59ZM59.4395 12.7729C59.4395 13.0269 59.4525 13.3068 59.4785 13.6128C59.5046 13.9188 59.5794 14.2085 59.7031 14.4819C59.8333 14.7489 60.0352 14.98 60.3086 15.1753C60.582 15.3641 60.9661 15.4715 61.4609 15.4976C61.7083 15.5106 61.9329 15.4813 62.1348 15.4097C62.3366 15.3315 62.5156 15.2306 62.6719 15.1069C62.8281 14.9832 62.9616 14.8433 63.0723 14.687C63.1895 14.5308 63.2839 14.3778 63.3555 14.228C63.4336 14.0718 63.4889 13.9285 63.5215 13.7983C63.554 13.6681 63.5703 13.564 63.5703 13.4858C63.5638 13.3231 63.5573 13.1408 63.5508 12.939C63.5508 12.7371 63.5312 12.5321 63.4922 12.3237C63.4596 12.1154 63.401 11.9168 63.3164 11.728C63.2318 11.5327 63.1113 11.3634 62.9551 11.2202C62.7988 11.077 62.597 10.9663 62.3496 10.8882C62.1087 10.8035 61.806 10.771 61.4414 10.7905C61.0378 10.8101 60.7057 10.911 60.4453 11.0933C60.1914 11.2756 59.9896 11.4774 59.8398 11.6987C59.6901 11.9201 59.5859 12.1349 59.5273 12.3433C59.4688 12.5516 59.4395 12.6948 59.4395 12.7729ZM73.2969 18.9839V12.9487C73.2578 11.5229 72.5905 10.797 71.2949 10.771C69.9928 10.797 69.3288 11.5229 69.3027 12.9487V18.9839C69.3288 20.4227 69.9928 21.1486 71.2949 21.1616C72.5905 21.1486 73.2578 20.4227 73.2969 18.9839ZM67.2617 19.1011V12.8218C67.2747 11.5067 67.6947 10.4943 68.5215 9.78467C69.2962 9.08154 70.2207 8.72998 71.2949 8.72998C72.4017 8.72998 73.3424 9.08154 74.1172 9.78467C74.9049 10.4943 75.3118 11.5067 75.3379 12.8218V19.1011C75.3118 20.4097 74.9049 21.4188 74.1172 22.1284C73.3424 22.8315 72.4017 23.1896 71.2949 23.2026C70.2207 23.1896 69.2962 22.8315 68.5215 22.1284C67.6947 21.4188 67.2747 20.4097 67.2617 19.1011ZM82.9062 18.9839V12.9487C82.8672 11.5229 82.1999 10.797 80.9043 10.771C79.6022 10.797 78.9382 11.5229 78.9121 12.9487V18.9839C78.9382 20.4227 79.6022 21.1486 80.9043 21.1616C82.1999 21.1486 82.8672 20.4227 82.9062 18.9839ZM76.8711 19.1011V12.8218C76.8841 11.5067 77.304 10.4943 78.1309 9.78467C78.9056 9.08154 79.8301 8.72998 80.9043 8.72998C82.0111 8.72998 82.9518 9.08154 83.7266 9.78467C84.5143 10.4943 84.9212 11.5067 84.9473 12.8218V19.1011C84.9212 20.4097 84.5143 21.4188 83.7266 22.1284C82.9518 22.8315 82.0111 23.1896 80.9043 23.2026C79.8301 23.1896 78.9056 22.8315 78.1309 22.1284C77.304 21.4188 76.8841 20.4097 76.8711 19.1011ZM92.5156 18.9839V12.9487C92.4766 11.5229 91.8092 10.797 90.5137 10.771C89.2116 10.797 88.5475 11.5229 88.5215 12.9487V18.9839C88.5475 20.4227 89.2116 21.1486 90.5137 21.1616C91.8092 21.1486 92.4766 20.4227 92.5156 18.9839ZM86.4805 19.1011V12.8218C86.4935 11.5067 86.9134 10.4943 87.7402 9.78467C88.515 9.08154 89.4395 8.72998 90.5137 8.72998C91.6204 8.72998 92.5612 9.08154 93.3359 9.78467C94.1237 10.4943 94.5306 11.5067 94.5566 12.8218V19.1011C94.5306 20.4097 94.1237 21.4188 93.3359 22.1284C92.5612 22.8315 91.6204 23.1896 90.5137 23.2026C89.4395 23.1896 88.515 22.8315 87.7402 22.1284C86.9134 21.4188 86.4935 20.4097 86.4805 19.1011ZM102.125 18.9839V12.9487C102.086 11.5229 101.419 10.797 100.123 10.771C98.821 10.797 98.1569 11.5229 98.1309 12.9487V18.9839C98.1569 20.4227 98.821 21.1486 100.123 21.1616C101.419 21.1486 102.086 20.4227 102.125 18.9839ZM96.0898 19.1011V12.8218C96.1029 11.5067 96.5228 10.4943 97.3496 9.78467C98.1243 9.08154 99.0488 8.72998 100.123 8.72998C101.23 8.72998 102.171 9.08154 102.945 9.78467C103.733 10.4943 104.14 11.5067 104.166 12.8218V19.1011C104.14 20.4097 103.733 21.4188 102.945 22.1284C102.171 22.8315 101.23 23.1896 100.123 23.2026C99.0488 23.1896 98.1243 22.8315 97.3496 22.1284C96.5228 21.4188 96.1029 20.4097 96.0898 19.1011Z" fill="#222222"/>
<path d="M106.752 13.7734H115.152V14.9734H106.752V13.7734ZM105.816 17.2894H116.196V18.5014H113.016V22.5574C113.016 22.8694 113.148 23.0254 113.424 23.0254H114.744C114.888 23.0254 115.008 22.9294 115.08 22.7494C115.164 22.5574 115.224 21.9694 115.248 20.9974L116.376 21.3574C116.292 22.7134 116.136 23.5174 115.92 23.7694C115.704 24.0094 115.392 24.1414 114.972 24.1414H113.064C112.212 24.1414 111.792 23.6974 111.792 22.8214V18.5014H110.016V18.7414C109.956 20.2654 109.62 21.4894 109.008 22.4014C108.408 23.2414 107.448 23.9014 106.104 24.3694L105.432 23.3134C106.728 22.8574 107.592 22.2814 108.048 21.6094C108.504 20.8654 108.744 19.9174 108.792 18.7414V18.5014H105.816V17.2894Z" fill="#222222"/>
<defs>
<filter id="filter0_i_1_54160" x="0" y="0" width="160" height="33.1714" filterUnits="userSpaceOnUse" color-interpolation-filters="sRGB">
<feFlood flood-opacity="0" result="BackgroundImageFix"/>
<feBlend mode="normal" in="SourceGraphic" in2="BackgroundImageFix" result="shape"/>
<feColorMatrix in="SourceAlpha" type="matrix" values="0 0 0 0 0 0 0 0 0 0 0 0 0 0 0 0 0 0 127 0" result="hardAlpha"/>
<feOffset dy="2"/>
<feGaussianBlur stdDeviation="2"/>
<feComposite in2="hardAlpha" operator="arithmetic" k2="-1" k3="1"/>
<feColorMatrix type="matrix" values="0 0 0 0 0.795203 0 0 0 0 0.782072 0 0 0 0 0.952778 0 0 0 1 0"/>
<feBlend mode="normal" in2="shape" result="effect1_innerShadow_1_54160"/>
</filter>
<linearGradient id="paint0_linear_1_54160" x1="80" y1="0" x2="80" y2="31.1712" gradientUnits="userSpaceOnUse">
<stop offset="0.0494003" stop-color="white"/>
<stop offset="0.892987" stop-color="#F5F6FF"/>
</linearGradient>
<linearGradient id="paint1_linear_1_54160" x1="80" y1="0" x2="80" y2="31.1712" gradientUnits="userSpaceOnUse">
<stop stop-color="#EFEFF9"/>
<stop offset="1" stop-color="#F8F8FF"/>
</linearGradient>
</defs>
</svg>
