<svg width="161" height="47" viewBox="0 0 161 47" fill="none" xmlns="http://www.w3.org/2000/svg">
<g filter="url(#filter0_d_1_58262)">
<path d="M0.5 22.5C0.5 10.3497 10.3497 0.5 22.5 0.5H158.977C159.696 0.5 160.18 1.23741 159.894 1.89774L141.687 43.8977C141.529 44.2634 141.168 44.5 140.77 44.5H22.5C10.3497 44.5 0.5 34.6503 0.5 22.5Z" fill="url(#paint0_linear_1_58262)"/>
<path d="M0.5 22.5C0.5 10.3497 10.3497 0.5 22.5 0.5H158.977C159.696 0.5 160.18 1.23741 159.894 1.89774L141.687 43.8977C141.529 44.2634 141.168 44.5 140.77 44.5H22.5C10.3497 44.5 0.5 34.6503 0.5 22.5Z" fill="black" fill-opacity="0.1"/>
<path d="M0.5 22.5C0.5 10.3497 10.3497 0.5 22.5 0.5H158.977C159.696 0.5 160.18 1.23741 159.894 1.89774L141.687 43.8977C141.529 44.2634 141.168 44.5 140.77 44.5H22.5C10.3497 44.5 0.5 34.6503 0.5 22.5Z" stroke="#81CCD1"/>
<path d="M0.5 22.5C0.5 10.3497 10.3497 0.5 22.5 0.5H158.977C159.696 0.5 160.18 1.23741 159.894 1.89774L141.687 43.8977C141.529 44.2634 141.168 44.5 140.77 44.5H22.5C10.3497 44.5 0.5 34.6503 0.5 22.5Z" stroke="white" stroke-opacity="0.6"/>
</g>
<defs>
<filter id="filter0_d_1_58262" x="0" y="0" width="160.478" height="47" filterUnits="userSpaceOnUse" color-interpolation-filters="sRGB">
<feFlood flood-opacity="0" result="BackgroundImageFix"/>
<feColorMatrix in="SourceAlpha" type="matrix" values="0 0 0 0 0 0 0 0 0 0 0 0 0 0 0 0 0 0 127 0" result="hardAlpha"/>
<feOffset dy="2"/>
<feComposite in2="hardAlpha" operator="out"/>
<feColorMatrix type="matrix" values="0 0 0 0 0.505882 0 0 0 0 0.8 0 0 0 0 0.819608 0 0 0 1 0"/>
<feBlend mode="normal" in2="BackgroundImageFix" result="effect1_dropShadow_1_58262"/>
<feBlend mode="normal" in="SourceGraphic" in2="effect1_dropShadow_1_58262" result="shape"/>
</filter>
<linearGradient id="paint0_linear_1_58262" x1="80.5" y1="0.5" x2="80.5" y2="44.5" gradientUnits="userSpaceOnUse">
<stop offset="0.743881" stop-color="#81CCD1"/>
<stop offset="1" stop-color="white"/>
</linearGradient>
</defs>
</svg>
