<svg width="160" height="47" viewBox="0 0 160 47" fill="none" xmlns="http://www.w3.org/2000/svg">
<g filter="url(#filter0_d_1_55488)">
<path d="M0.5 22.5C0.5 10.3497 10.3497 0.5 22.5 0.5H157.453C158.893 0.5 159.861 1.97482 159.288 3.29547L141.948 43.2955C141.631 44.0268 140.91 44.5 140.113 44.5H22.5C10.3497 44.5 0.5 34.6503 0.5 22.5Z" fill="url(#paint0_linear_1_55488)"/>
<path d="M0.5 22.5C0.5 10.3497 10.3497 0.5 22.5 0.5H157.453C158.893 0.5 159.861 1.97482 159.288 3.29547L141.948 43.2955C141.631 44.0268 140.91 44.5 140.113 44.5H22.5C10.3497 44.5 0.5 34.6503 0.5 22.5Z" fill="black" fill-opacity="0.1"/>
<path d="M0.5 22.5C0.5 10.3497 10.3497 0.5 22.5 0.5H157.453C158.893 0.5 159.861 1.97482 159.288 3.29547L141.948 43.2955C141.631 44.0268 140.91 44.5 140.113 44.5H22.5C10.3497 44.5 0.5 34.6503 0.5 22.5Z" stroke="#9A41FE"/>
<path d="M0.5 22.5C0.5 10.3497 10.3497 0.5 22.5 0.5H157.453C158.893 0.5 159.861 1.97482 159.288 3.29547L141.948 43.2955C141.631 44.0268 140.91 44.5 140.113 44.5H22.5C10.3497 44.5 0.5 34.6503 0.5 22.5Z" stroke="white" stroke-opacity="0.6"/>
</g>
<defs>
<filter id="filter0_d_1_55488" x="0" y="0" width="159.956" height="47" filterUnits="userSpaceOnUse" color-interpolation-filters="sRGB">
<feFlood flood-opacity="0" result="BackgroundImageFix"/>
<feColorMatrix in="SourceAlpha" type="matrix" values="0 0 0 0 0 0 0 0 0 0 0 0 0 0 0 0 0 0 127 0" result="hardAlpha"/>
<feOffset dy="2"/>
<feComposite in2="hardAlpha" operator="out"/>
<feColorMatrix type="matrix" values="0 0 0 0 0.603922 0 0 0 0 0.254902 0 0 0 0 0.996078 0 0 0 1 0"/>
<feBlend mode="normal" in2="BackgroundImageFix" result="effect1_dropShadow_1_55488"/>
<feBlend mode="normal" in="SourceGraphic" in2="effect1_dropShadow_1_55488" result="shape"/>
</filter>
<linearGradient id="paint0_linear_1_55488" x1="80.5" y1="0.5" x2="80.5" y2="44.5" gradientUnits="userSpaceOnUse">
<stop offset="0.743881" stop-color="#9A41FE"/>
<stop offset="1" stop-color="white"/>
</linearGradient>
</defs>
</svg>
