<svg width="350" height="155" viewBox="0 0 350 155" fill="none" xmlns="http://www.w3.org/2000/svg">
<path d="M437.659 197.947L240.162 395.444L42.665 197.947L240.162 0.450684L437.659 197.947ZM90.5088 197.947L240.162 347.599L389.815 197.947L240.162 48.2935L90.5088 197.947ZM356.371 191.149L240.162 307.359L123.953 191.149L240.162 74.9399L356.371 191.149ZM156.279 191.149L240.162 275.032L324.045 191.149L240.162 107.266L156.279 191.149ZM243.394 -116.584L45.8965 80.9126L-151.601 -116.584L45.8965 -314.082L243.394 -116.584ZM30.7227 -116.584L45.8965 -101.411L61.0703 -116.584L45.8965 -131.758L30.7227 -116.584Z" fill="white" fill-opacity="0.25"/>
</svg>
