<svg width="345" height="70" viewBox="0 0 345 70" fill="none" xmlns="http://www.w3.org/2000/svg">
<g clip-path="url(#clip0_1_1186)">
<g filter="url(#filter0_i_1_1186)">
<path d="M-0.283797 65.7257C4.61115 47.931 20.7921 35.6 39.2478 35.6H306.01C324.858 35.6 341.279 48.4509 345.808 66.7471L348 75.6H-3L-0.283797 65.7257Z" fill="#81CCD1"/>
<path d="M-0.283797 65.7257C4.61115 47.931 20.7921 35.6 39.2478 35.6H306.01C324.858 35.6 341.279 48.4509 345.808 66.7471L348 75.6H-3L-0.283797 65.7257Z" fill="white" fill-opacity="0.5"/>
</g>
<g filter="url(#filter1_dii_1_1186)">
<path d="M84.7637 29.6055C86.2821 22.1535 92.8364 16.8 100.442 16.8H245.558C253.164 16.8 259.718 22.1535 261.236 29.6055L264.089 43.6055C266.11 53.5221 258.531 62.8 248.411 62.8H97.5889C87.4686 62.8 79.8905 53.5221 81.9111 43.6055L84.7637 29.6055Z" fill="url(#paint0_linear_1_1186)"/>
</g>
<g filter="url(#filter2_di_1_1186)">
<path d="M91.6957 16.8H254.304L255.712 29.7469C256.933 40.9868 248.129 50.8 236.823 50.8H109.177C97.871 50.8 89.0667 40.9868 90.2884 29.7469L91.6957 16.8Z" fill="url(#paint1_linear_1_1186)"/>
</g>
<g filter="url(#filter3_ii_1_1186)">
<rect x="91" y="-0.199951" width="164" height="41" rx="16" fill="url(#paint2_linear_1_1186)"/>
</g>
<path d="M131.326 15.3567L131.118 16.8767H130.51L129.326 25.2127C129.283 25.5114 129.145 25.7674 128.91 25.9807C128.675 26.194 128.403 26.3007 128.094 26.3007H124.926L126.35 24.7807L127.47 16.8767H118.35L118.558 15.3567H131.326ZM126.43 17.7887L125.534 24.1727H118.238L119.038 18.3967L118.526 17.7887H126.43ZM123.47 19.3087H121.646L121.182 22.6527H123.006L123.47 19.3087ZM146.653 15.3567L146.445 16.9087H143.853L143.581 17.5967H146.077L145.261 23.3727H143.741L143.469 22.9887L144.029 19.0207H141.213L140.653 22.9887L140.285 23.3727H138.749L139.565 17.5967H141.549L141.821 16.9087H139.485L139.693 15.3567H146.653ZM134.669 22.9887L135.005 23.5807L135.949 21.8367H132.429L132.637 20.3487H138.669L138.429 22.0447L136.269 25.3727H136.237L136.957 26.5407H134.461L132.333 22.9887H134.669ZM137.037 19.8687H135.101L134.893 18.6847L134.477 19.6927H132.573L134.205 15.8047L133.821 15.3727H138.589L139.165 19.6767H137.421L136.957 16.7807H135.693L135.101 18.1727H136.749L137.037 19.8687ZM143.469 19.5807L143.005 22.9247L145.133 26.5407H142.621L141.869 24.5407L140.445 26.5407H138.077L141.149 22.8607L141.613 19.5807H143.469ZM154.379 24.5887L153.627 24.6847L153.371 26.5727H150.971L151.195 24.9567L147.019 25.4367L147.243 23.7887L147.739 23.7407L148.683 16.8767H148.203L148.411 15.3567H155.403L155.195 16.8767H154.731L153.867 23.0207L154.619 22.9247L154.379 24.5887ZM157.451 17.7887L157.307 18.8287L157.899 20.5247L158.875 18.6047L159.051 17.2767H155.451L155.691 15.6767H161.419L160.923 19.1327L158.699 22.7487L160.059 26.5567H157.995L157.387 24.8767L156.363 26.5407H153.947L156.587 22.6207L155.259 18.8607L155.403 17.7887H157.451ZM150.859 18.0447H152.171L152.331 16.8767H151.019L150.859 18.0447ZM150.491 20.7327H151.787L151.963 19.5647H150.651L150.491 20.7327ZM150.107 23.4527L151.435 23.3087L151.579 22.2527H150.283L150.107 23.4527Z" fill="white"/>
<path d="M173.656 18.7061V16.5381H174.5C175.336 16.5381 175.984 16.3076 176.445 15.8467C176.906 15.4014 177.137 14.8232 177.137 14.1123C177.121 13.3936 176.883 12.8037 176.422 12.3428C175.961 11.8975 175.367 11.667 174.641 11.6514C174.117 11.6514 173.641 11.8193 173.211 12.1553C172.758 12.4912 172.453 13.0107 172.297 13.7139H169.848C169.973 12.4482 170.484 11.3818 171.383 10.5146C172.266 9.65527 173.32 9.21777 174.547 9.20215C176.102 9.21777 177.336 9.71387 178.25 10.6904C179.125 11.6436 179.57 12.7686 179.586 14.0654C179.586 14.7217 179.469 15.3545 179.234 15.9639C178.961 16.5732 178.473 17.1162 177.77 17.5928C178.488 18.0615 179.008 18.624 179.328 19.2803C179.633 19.9365 179.785 20.624 179.785 21.3428C179.77 22.9443 179.273 24.2061 178.297 25.1279C177.336 26.0732 176.102 26.5537 174.594 26.5693C173.43 26.5693 172.398 26.1943 171.5 25.4443C170.602 24.6943 170.02 23.6084 169.754 22.1865H172.203C172.422 22.7568 172.73 23.2178 173.129 23.5693C173.535 23.9365 174.074 24.1201 174.746 24.1201C175.465 24.1201 176.07 23.874 176.562 23.3818C177.062 22.9209 177.32 22.2646 177.336 21.4131C177.32 20.5459 177.062 19.874 176.562 19.3975C176.07 18.9365 175.445 18.7061 174.688 18.7061H173.656ZM184.285 14.0889C184.301 14.8779 184.555 15.4795 185.047 15.8936C185.531 16.3232 186.09 16.5381 186.723 16.5381C187.379 16.5381 187.949 16.3232 188.434 15.8936C188.91 15.4795 189.156 14.8779 189.172 14.0889C189.156 13.2764 188.91 12.6631 188.434 12.249C187.949 11.8506 187.379 11.6514 186.723 11.6514C186.09 11.6514 185.531 11.8506 185.047 12.249C184.555 12.6631 184.301 13.2764 184.285 14.0889ZM181.52 21.4365C181.535 19.7881 182.207 18.5068 183.535 17.5928C183.027 17.1475 182.629 16.6357 182.34 16.0576C182.004 15.5186 181.836 14.8779 181.836 14.1357C181.852 12.7139 182.332 11.5381 183.277 10.6084C184.168 9.68652 185.316 9.21777 186.723 9.20215C188.152 9.21777 189.32 9.68652 190.227 10.6084C191.141 11.5381 191.605 12.7139 191.621 14.1357C191.621 14.8779 191.469 15.5186 191.164 16.0576C190.844 16.6357 190.43 17.1475 189.922 17.5928C191.25 18.5068 191.922 19.7881 191.938 21.4365C191.922 22.9756 191.418 24.2061 190.426 25.1279C189.418 26.0732 188.184 26.5537 186.723 26.5693C185.27 26.5537 184.055 26.0732 183.078 25.1279C182.055 24.2061 181.535 22.9756 181.52 21.4365ZM183.969 21.4131C183.984 22.1943 184.266 22.835 184.812 23.335C185.336 23.8584 185.973 24.1201 186.723 24.1201C187.496 24.1201 188.145 23.8584 188.668 23.335C189.199 22.835 189.473 22.1943 189.488 21.4131C189.473 20.6162 189.199 19.9678 188.668 19.4678C188.145 18.9756 187.496 18.7217 186.723 18.7061C185.973 18.7217 185.336 18.9756 184.812 19.4678C184.266 19.9678 183.984 20.6162 183.969 21.4131ZM195.816 14.0889C195.832 14.8779 196.086 15.4795 196.578 15.8936C197.062 16.3232 197.621 16.5381 198.254 16.5381C198.91 16.5381 199.48 16.3232 199.965 15.8936C200.441 15.4795 200.688 14.8779 200.703 14.0889C200.688 13.2764 200.441 12.6631 199.965 12.249C199.48 11.8506 198.91 11.6514 198.254 11.6514C197.621 11.6514 197.062 11.8506 196.578 12.249C196.086 12.6631 195.832 13.2764 195.816 14.0889ZM193.051 21.4365C193.066 19.7881 193.738 18.5068 195.066 17.5928C194.559 17.1475 194.16 16.6357 193.871 16.0576C193.535 15.5186 193.367 14.8779 193.367 14.1357C193.383 12.7139 193.863 11.5381 194.809 10.6084C195.699 9.68652 196.848 9.21777 198.254 9.20215C199.684 9.21777 200.852 9.68652 201.758 10.6084C202.672 11.5381 203.137 12.7139 203.152 14.1357C203.152 14.8779 203 15.5186 202.695 16.0576C202.375 16.6357 201.961 17.1475 201.453 17.5928C202.781 18.5068 203.453 19.7881 203.469 21.4365C203.453 22.9756 202.949 24.2061 201.957 25.1279C200.949 26.0732 199.715 26.5537 198.254 26.5693C196.801 26.5537 195.586 26.0732 194.609 25.1279C193.586 24.2061 193.066 22.9756 193.051 21.4365ZM195.5 21.4131C195.516 22.1943 195.797 22.835 196.344 23.335C196.867 23.8584 197.504 24.1201 198.254 24.1201C199.027 24.1201 199.676 23.8584 200.199 23.335C200.73 22.835 201.004 22.1943 201.02 21.4131C201.004 20.6162 200.73 19.9678 200.199 19.4678C199.676 18.9756 199.027 18.7217 198.254 18.7061C197.504 18.7217 196.867 18.9756 196.344 19.4678C195.797 19.9678 195.516 20.6162 195.5 21.4131ZM207.348 14.0889C207.363 14.8779 207.617 15.4795 208.109 15.8936C208.594 16.3232 209.152 16.5381 209.785 16.5381C210.441 16.5381 211.012 16.3232 211.496 15.8936C211.973 15.4795 212.219 14.8779 212.234 14.0889C212.219 13.2764 211.973 12.6631 211.496 12.249C211.012 11.8506 210.441 11.6514 209.785 11.6514C209.152 11.6514 208.594 11.8506 208.109 12.249C207.617 12.6631 207.363 13.2764 207.348 14.0889ZM204.582 21.4365C204.598 19.7881 205.27 18.5068 206.598 17.5928C206.09 17.1475 205.691 16.6357 205.402 16.0576C205.066 15.5186 204.898 14.8779 204.898 14.1357C204.914 12.7139 205.395 11.5381 206.34 10.6084C207.23 9.68652 208.379 9.21777 209.785 9.20215C211.215 9.21777 212.383 9.68652 213.289 10.6084C214.203 11.5381 214.668 12.7139 214.684 14.1357C214.684 14.8779 214.531 15.5186 214.227 16.0576C213.906 16.6357 213.492 17.1475 212.984 17.5928C214.312 18.5068 214.984 19.7881 215 21.4365C214.984 22.9756 214.48 24.2061 213.488 25.1279C212.48 26.0732 211.246 26.5537 209.785 26.5693C208.332 26.5537 207.117 26.0732 206.141 25.1279C205.117 24.2061 204.598 22.9756 204.582 21.4365ZM207.031 21.4131C207.047 22.1943 207.328 22.835 207.875 23.335C208.398 23.8584 209.035 24.1201 209.785 24.1201C210.559 24.1201 211.207 23.8584 211.73 23.335C212.262 22.835 212.535 22.1943 212.551 21.4131C212.535 20.6162 212.262 19.9678 211.73 19.4678C211.207 18.9756 210.559 18.7217 209.785 18.7061C209.035 18.7217 208.398 18.9756 207.875 19.4678C207.328 19.9678 207.047 20.6162 207.031 21.4131Z" fill="white"/>
<path d="M223.732 21.2567H225.22V25.4207C225.22 25.6527 225.244 25.8007 225.292 25.8647C225.348 25.9207 225.476 25.9487 225.676 25.9487C225.716 25.9487 225.784 25.9487 225.88 25.9487C225.976 25.9487 226.08 25.9487 226.192 25.9487C226.312 25.9487 226.42 25.9487 226.516 25.9487C226.62 25.9487 226.704 25.9487 226.768 25.9487C226.904 25.9487 227.004 25.9007 227.068 25.8047C227.14 25.7007 227.192 25.5047 227.224 25.2167C227.256 24.9207 227.28 24.4847 227.296 23.9087C227.4 23.9887 227.532 24.0687 227.692 24.1487C227.852 24.2287 228.016 24.3007 228.184 24.3647C228.352 24.4287 228.5 24.4767 228.628 24.5087C228.58 25.2287 228.496 25.7927 228.376 26.2007C228.264 26.6007 228.092 26.8807 227.86 27.0407C227.628 27.2087 227.308 27.2927 226.9 27.2927C226.828 27.2927 226.724 27.2927 226.588 27.2927C226.46 27.2927 226.32 27.2927 226.168 27.2927C226.016 27.2927 225.872 27.2927 225.736 27.2927C225.608 27.2927 225.508 27.2927 225.436 27.2927C224.988 27.2927 224.64 27.2327 224.392 27.1127C224.144 27.0007 223.972 26.8087 223.876 26.5367C223.78 26.2647 223.732 25.8967 223.732 25.4327V21.2567ZM217.636 20.3447H228.4V21.7367H217.636V20.3447ZM218.728 17.0807H227.296V18.4607H218.728V17.0807ZM220.384 21.4487H221.932C221.884 22.1047 221.804 22.7287 221.692 23.3207C221.58 23.9127 221.4 24.4687 221.152 24.9887C220.904 25.5007 220.548 25.9687 220.084 26.3927C219.62 26.8087 219.012 27.1687 218.26 27.4727C218.18 27.2887 218.052 27.0807 217.876 26.8487C217.7 26.6247 217.532 26.4407 217.372 26.2967C218.028 26.0567 218.548 25.7687 218.932 25.4327C219.316 25.0887 219.608 24.7127 219.808 24.3047C220.008 23.8887 220.144 23.4407 220.216 22.9607C220.288 22.4727 220.344 21.9687 220.384 21.4487Z" fill="white"/>
</g>
<defs>
<filter id="filter0_i_1_1186" x="-3" y="35.6" width="351" height="44" filterUnits="userSpaceOnUse" color-interpolation-filters="sRGB">
<feFlood flood-opacity="0" result="BackgroundImageFix"/>
<feBlend mode="normal" in="SourceGraphic" in2="BackgroundImageFix" result="shape"/>
<feColorMatrix in="SourceAlpha" type="matrix" values="0 0 0 0 0 0 0 0 0 0 0 0 0 0 0 0 0 0 127 0" result="hardAlpha"/>
<feOffset dy="4"/>
<feGaussianBlur stdDeviation="3.5"/>
<feComposite in2="hardAlpha" operator="arithmetic" k2="-1" k3="1"/>
<feColorMatrix type="matrix" values="0 0 0 0 1 0 0 0 0 1 0 0 0 0 1 0 0 0 1 0"/>
<feBlend mode="normal" in2="shape" result="effect1_innerShadow_1_1186"/>
</filter>
<filter id="filter1_dii_1_1186" x="77.5833" y="14.7" width="190.833" height="54.1" filterUnits="userSpaceOnUse" color-interpolation-filters="sRGB">
<feFlood flood-opacity="0" result="BackgroundImageFix"/>
<feColorMatrix in="SourceAlpha" type="matrix" values="0 0 0 0 0 0 0 0 0 0 0 0 0 0 0 0 0 0 127 0" result="hardAlpha"/>
<feOffset dy="2"/>
<feGaussianBlur stdDeviation="2"/>
<feComposite in2="hardAlpha" operator="out"/>
<feColorMatrix type="matrix" values="0 0 0 0 0.905882 0 0 0 0 0.276471 0 0 0 0 0.0666667 0 0 0 0.5 0"/>
<feBlend mode="normal" in2="BackgroundImageFix" result="effect1_dropShadow_1_1186"/>
<feBlend mode="normal" in="SourceGraphic" in2="effect1_dropShadow_1_1186" result="shape"/>
<feColorMatrix in="SourceAlpha" type="matrix" values="0 0 0 0 0 0 0 0 0 0 0 0 0 0 0 0 0 0 127 0" result="hardAlpha"/>
<feOffset dy="4"/>
<feGaussianBlur stdDeviation="2"/>
<feComposite in2="hardAlpha" operator="arithmetic" k2="-1" k3="1"/>
<feColorMatrix type="matrix" values="0 0 0 0 0.99258 0 0 0 0 0.919445 0 0 0 0 1 0 0 0 0.75 0"/>
<feBlend mode="normal" in2="shape" result="effect2_innerShadow_1_1186"/>
<feColorMatrix in="SourceAlpha" type="matrix" values="0 0 0 0 0 0 0 0 0 0 0 0 0 0 0 0 0 0 127 0" result="hardAlpha"/>
<feOffset dy="-3"/>
<feGaussianBlur stdDeviation="1.05"/>
<feComposite in2="hardAlpha" operator="arithmetic" k2="-1" k3="1"/>
<feColorMatrix type="matrix" values="0 0 0 0 0.881944 0 0 0 0 0.584901 0 0 0 0 0.169039 0 0 0 0.8 0"/>
<feBlend mode="normal" in2="effect2_innerShadow_1_1186" result="effect3_innerShadow_1_1186"/>
</filter>
<filter id="filter2_di_1_1186" x="87.8749" y="14.5" width="170.25" height="38.6" filterUnits="userSpaceOnUse" color-interpolation-filters="sRGB">
<feFlood flood-opacity="0" result="BackgroundImageFix"/>
<feColorMatrix in="SourceAlpha" type="matrix" values="0 0 0 0 0 0 0 0 0 0 0 0 0 0 0 0 0 0 127 0" result="hardAlpha"/>
<feOffset/>
<feGaussianBlur stdDeviation="1.15"/>
<feComposite in2="hardAlpha" operator="out"/>
<feColorMatrix type="matrix" values="0 0 0 0 0 0 0 0 0 0 0 0 0 0 0 0 0 0 0.25 0"/>
<feBlend mode="normal" in2="BackgroundImageFix" result="effect1_dropShadow_1_1186"/>
<feBlend mode="normal" in="SourceGraphic" in2="effect1_dropShadow_1_1186" result="shape"/>
<feColorMatrix in="SourceAlpha" type="matrix" values="0 0 0 0 0 0 0 0 0 0 0 0 0 0 0 0 0 0 127 0" result="hardAlpha"/>
<feOffset dy="-3"/>
<feGaussianBlur stdDeviation="0.8"/>
<feComposite in2="hardAlpha" operator="arithmetic" k2="-1" k3="1"/>
<feColorMatrix type="matrix" values="0 0 0 0 0.51232 0 0 0 0 0.143186 0 0 0 0 0.143186 0 0 0 0.16 0"/>
<feBlend mode="normal" in2="shape" result="effect2_innerShadow_1_1186"/>
</filter>
<filter id="filter3_ii_1_1186" x="91" y="-1.19995" width="164" height="42" filterUnits="userSpaceOnUse" color-interpolation-filters="sRGB">
<feFlood flood-opacity="0" result="BackgroundImageFix"/>
<feBlend mode="normal" in="SourceGraphic" in2="BackgroundImageFix" result="shape"/>
<feColorMatrix in="SourceAlpha" type="matrix" values="0 0 0 0 0 0 0 0 0 0 0 0 0 0 0 0 0 0 127 0" result="hardAlpha"/>
<feOffset dy="-6"/>
<feGaussianBlur stdDeviation="0.5"/>
<feComposite in2="hardAlpha" operator="arithmetic" k2="-1" k3="1"/>
<feColorMatrix type="matrix" values="0 0 0 0 1 0 0 0 0 0.699444 0 0 0 0 0.24861 0 0 0 0.49 0"/>
<feBlend mode="normal" in2="shape" result="effect1_innerShadow_1_1186"/>
<feColorMatrix in="SourceAlpha" type="matrix" values="0 0 0 0 0 0 0 0 0 0 0 0 0 0 0 0 0 0 127 0" result="hardAlpha"/>
<feOffset dy="-2"/>
<feComposite in2="hardAlpha" operator="arithmetic" k2="-1" k3="1"/>
<feColorMatrix type="matrix" values="0 0 0 0 1 0 0 0 0 1 0 0 0 0 1 0 0 0 0.3 0"/>
<feBlend mode="normal" in2="effect1_innerShadow_1_1186" result="effect2_innerShadow_1_1186"/>
</filter>
<linearGradient id="paint0_linear_1_1186" x1="173" y1="16.8" x2="173" y2="62.8" gradientUnits="userSpaceOnUse">
<stop stop-color="white"/>
<stop offset="0.438948" stop-color="#FFF0E4"/>
</linearGradient>
<linearGradient id="paint1_linear_1_1186" x1="257.943" y1="32.4579" x2="88.0566" y2="32.4579" gradientUnits="userSpaceOnUse">
<stop stop-color="#EE914F"/>
<stop offset="0.498469" stop-color="#F74D0B"/>
<stop offset="1" stop-color="#E9753B"/>
</linearGradient>
<linearGradient id="paint2_linear_1_1186" x1="173" y1="-0.199951" x2="173" y2="40.8" gradientUnits="userSpaceOnUse">
<stop stop-color="#FBC059"/>
<stop offset="1" stop-color="#F86A32"/>
</linearGradient>
<clipPath id="clip0_1_1186">
<rect width="345" height="70" rx="18" fill="white"/>
</clipPath>
</defs>
</svg>
