<svg width="362" height="53" viewBox="0 0 362 53" fill="none" xmlns="http://www.w3.org/2000/svg">
<g clip-path="url(#clip0_1_980)">
<g filter="url(#filter0_i_1_980)">
<path d="M10.0536 9.30905C11.3073 3.86074 16.1573 0 21.748 0H171.925C179.639 0 185.349 7.17349 183.62 14.691L176.946 43.6909C175.693 49.1393 170.843 53 165.252 53H15.0749C7.36097 53 1.65067 45.8265 3.38049 38.309L10.0536 9.30905Z" fill="url(#paint0_linear_1_980)"/>
<path d="M10.0536 9.30905C11.3073 3.86074 16.1573 0 21.748 0H171.925C179.639 0 185.349 7.17349 183.62 14.691L176.946 43.6909C175.693 49.1393 170.843 53 165.252 53H15.0749C7.36097 53 1.65067 45.8265 3.38049 38.309L10.0536 9.30905Z" fill="url(#paint1_radial_1_980)" fill-opacity="0.4"/>
</g>
<path d="M21.748 1.15039H171.925C178.899 1.15039 184.063 7.63575 182.499 14.4326L175.826 43.4326C174.693 48.3588 170.307 51.8496 165.252 51.8496H15.0752C8.10069 51.8496 2.93729 45.3642 4.50098 38.5674L11.1738 9.56738C12.3074 4.6412 16.6931 1.15039 21.748 1.15039Z" stroke="#F46D00" stroke-width="2.3"/>
<g filter="url(#filter1_i_1_980)">
<path d="M21.748 1H171.925C178.996 1 184.23 7.57579 182.645 14.4668L175.972 43.4668C174.822 48.461 170.377 52 165.252 52H15.0752C8.0041 52 2.7698 45.4242 4.35547 38.5332L11.0283 9.5332C12.1776 4.53899 16.6233 1 21.748 1Z" stroke="#FFF6D3" stroke-width="2"/>
</g>
<g filter="url(#filter2_f_1_980)">
<path d="M21 13C22.2257 10.5485 24.7313 9 27.4721 9H48.5" stroke="url(#paint2_linear_1_980)" stroke-width="3" stroke-linecap="round"/>
</g>
<g filter="url(#filter3_f_1_980)">
<path d="M84 9H167" stroke="url(#paint3_linear_1_980)" stroke-width="3" stroke-linecap="round"/>
</g>
<g filter="url(#filter4_f_1_980)">
<path d="M52 44L20 44" stroke="url(#paint4_linear_1_980)" stroke-width="3" stroke-linecap="round"/>
</g>
<path d="M28.5 20L30.7958 26.2042L37 28.5L30.7958 30.7958L28.5 37L26.2042 30.7958L20 28.5L26.2042 26.2042L28.5 20Z" fill="url(#paint5_linear_1_980)"/>
<path d="M158.5 21L159.445 23.5547L162 24.5L159.445 25.4453L158.5 28L157.555 25.4453L155 24.5L157.555 23.5547L158.5 21Z" fill="url(#paint6_linear_1_980)"/>
<g filter="url(#filter5_d_1_980)">
<path d="M58.06 21.12L57.68 20.54H64.6L62.8 33.36H56.34L58.06 21.12ZM65.62 20.28L65.2 19.78H68.44L67.88 21.56H74.06L73.8 23.46H70.54L70.24 25.46H73.34L73.08 27.34H69.94L69.66 29.2H73.1L72.84 31.1H69.36L68.88 34.18H65.44L67.38 23.46H67.26L66.76 25.08H64.1L65.62 20.28ZM60.54 31.56L61.08 27.74H59.76L59.22 31.56H60.54ZM60.02 25.86H61.34L61.84 22.34H60.52L60.02 25.86ZM90.7784 20.16L88.8584 33.84H74.4184L76.2384 20.92L75.5784 20.16H90.7784ZM85.3184 31.94L85.8984 27.76H79.0584L78.4784 31.94H85.3184ZM79.3384 25.86H86.1784L86.7184 22.06H79.8784L79.3384 25.86ZM103.997 32.6L105.457 22.26H97.1369L97.3969 20.36H108.817L107.057 32.82C107.004 33.2067 106.824 33.5267 106.517 33.78C106.224 34.02 105.89 34.14 105.517 34.14H102.277L103.997 32.6ZM95.8369 28.64L96.7769 25.28H99.0969L98.6369 26.9H100.177L101.017 24.68H96.5169L96.7369 23.04H103.997L103.777 24.68L103.037 26.9H104.217L103.497 32.08C103.444 32.4267 103.277 32.7267 102.997 32.98C102.717 33.2333 102.404 33.36 102.057 33.36H96.7569L98.3569 31.88H101.217L101.677 28.64H95.8369ZM95.7969 23L94.2369 34.18H91.1569L92.7169 23H95.7969ZM101.157 29.5L100.937 31.04H95.1969L95.4169 29.5H101.157ZM96.0169 20.16L96.0769 22.52H92.9969L92.9369 20.16H96.0169ZM116.195 27L116.575 24.16H111.275L111.535 22.26H114.235L113.335 20.42L112.615 19.78H116.435L117.655 22.26H119.815L121.695 19.78H125.175L123.215 22.26H125.975L125.715 24.16H120.375L119.995 27H126.075L125.815 28.9H120.155L125.435 34.18H120.875L117.615 30.94L113.655 34.18H108.715L115.515 28.9H109.855L110.115 27H116.195Z" fill="url(#paint7_linear_1_980)"/>
</g>
<path d="M355.929 36.8534C354.808 42.4625 349.883 46.5 344.162 46.5H193.405C189.591 46.5 186.745 42.9874 187.535 39.2559L192.63 15.2191C193.708 10.136 198.195 6.5 203.391 6.5H347.362C354.935 6.5 360.614 13.4279 359.129 20.8534L355.929 36.8534Z" fill="url(#paint8_linear_1_980)"/>
<path d="M254.84 19.28L258.56 25.18H254.76L252.24 21.18H249.28L245.64 25.18H241.84L246.74 19.82L246.3 19.28H254.84ZM257.12 26.12L256.82 28.22L251.28 33.68H246.92L252.44 28.22H243.32L243.62 26.12H257.12ZM252.64 25.56H249.22L248.44 22.9H251.86L252.64 25.56ZM275.778 19.66L273.858 33.34H259.418L261.238 20.42L260.578 19.66H275.778ZM270.318 31.44L270.898 27.26H264.058L263.478 31.44H270.318ZM264.338 25.36H271.178L271.718 21.56H264.878L264.338 25.36ZM288.997 32.1L290.457 21.76H282.137L282.397 19.86H293.817L292.057 32.32C292.004 32.7067 291.824 33.0267 291.517 33.28C291.224 33.52 290.89 33.64 290.517 33.64H287.277L288.997 32.1ZM280.837 28.14L281.777 24.78H284.097L283.637 26.4H285.177L286.017 24.18H281.517L281.737 22.54H288.997L288.777 24.18L288.037 26.4H289.217L288.497 31.58C288.444 31.9267 288.277 32.2267 287.997 32.48C287.717 32.7333 287.404 32.86 287.057 32.86H281.757L283.357 31.38H286.217L286.677 28.14H280.837ZM280.797 22.5L279.237 33.68H276.157L277.717 22.5H280.797ZM286.157 29L285.937 30.54H280.197L280.417 29H286.157ZM281.017 19.66L281.077 22.02H277.997L277.937 19.66H281.017ZM301.195 26.5L301.575 23.66H296.275L296.535 21.76H299.235L298.335 19.92L297.615 19.28H301.435L302.655 21.76H304.815L306.695 19.28H310.175L308.215 21.76H310.975L310.715 23.66H305.375L304.995 26.5H311.075L310.815 28.4H305.155L310.435 33.68H305.875L302.615 30.44L298.655 33.68H293.715L300.515 28.4H294.855L295.115 26.5H301.195Z" fill="url(#paint9_linear_1_980)"/>
</g>
<defs>
<filter id="filter0_i_1_980" x="3.0697" y="0" width="180.861" height="57" filterUnits="userSpaceOnUse" color-interpolation-filters="sRGB">
<feFlood flood-opacity="0" result="BackgroundImageFix"/>
<feBlend mode="normal" in="SourceGraphic" in2="BackgroundImageFix" result="shape"/>
<feColorMatrix in="SourceAlpha" type="matrix" values="0 0 0 0 0 0 0 0 0 0 0 0 0 0 0 0 0 0 127 0" result="hardAlpha"/>
<feOffset dy="4"/>
<feGaussianBlur stdDeviation="5.95"/>
<feComposite in2="hardAlpha" operator="arithmetic" k2="-1" k3="1"/>
<feColorMatrix type="matrix" values="0 0 0 0 1 0 0 0 0 0.891585 0 0 0 0 0.549335 0 0 0 1 0"/>
<feBlend mode="normal" in2="shape" result="effect1_innerShadow_1_980"/>
</filter>
<filter id="filter1_i_1_980" x="3.0697" y="0" width="180.861" height="57" filterUnits="userSpaceOnUse" color-interpolation-filters="sRGB">
<feFlood flood-opacity="0" result="BackgroundImageFix"/>
<feBlend mode="normal" in="SourceGraphic" in2="BackgroundImageFix" result="shape"/>
<feColorMatrix in="SourceAlpha" type="matrix" values="0 0 0 0 0 0 0 0 0 0 0 0 0 0 0 0 0 0 127 0" result="hardAlpha"/>
<feOffset dy="4"/>
<feGaussianBlur stdDeviation="5.95"/>
<feComposite in2="hardAlpha" operator="arithmetic" k2="-1" k3="1"/>
<feColorMatrix type="matrix" values="0 0 0 0 1 0 0 0 0 0.891585 0 0 0 0 0.549335 0 0 0 1 0"/>
<feBlend mode="normal" in2="shape" result="effect1_innerShadow_1_980"/>
</filter>
<filter id="filter2_f_1_980" x="12.4996" y="0.5" width="44.5004" height="21.0004" filterUnits="userSpaceOnUse" color-interpolation-filters="sRGB">
<feFlood flood-opacity="0" result="BackgroundImageFix"/>
<feBlend mode="normal" in="SourceGraphic" in2="BackgroundImageFix" result="shape"/>
<feGaussianBlur stdDeviation="3.5" result="effect1_foregroundBlur_1_980"/>
</filter>
<filter id="filter3_f_1_980" x="77.5" y="2.5" width="96" height="13" filterUnits="userSpaceOnUse" color-interpolation-filters="sRGB">
<feFlood flood-opacity="0" result="BackgroundImageFix"/>
<feBlend mode="normal" in="SourceGraphic" in2="BackgroundImageFix" result="shape"/>
<feGaussianBlur stdDeviation="2.5" result="effect1_foregroundBlur_1_980"/>
</filter>
<filter id="filter4_f_1_980" x="12.2" y="36.2" width="47.6" height="15.6" filterUnits="userSpaceOnUse" color-interpolation-filters="sRGB">
<feFlood flood-opacity="0" result="BackgroundImageFix"/>
<feBlend mode="normal" in="SourceGraphic" in2="BackgroundImageFix" result="shape"/>
<feGaussianBlur stdDeviation="3.15" result="effect1_foregroundBlur_1_980"/>
</filter>
<filter id="filter5_d_1_980" x="53.64" y="17.08" width="77.1354" height="21.8" filterUnits="userSpaceOnUse" color-interpolation-filters="sRGB">
<feFlood flood-opacity="0" result="BackgroundImageFix"/>
<feColorMatrix in="SourceAlpha" type="matrix" values="0 0 0 0 0 0 0 0 0 0 0 0 0 0 0 0 0 0 127 0" result="hardAlpha"/>
<feOffset dx="1" dy="1"/>
<feGaussianBlur stdDeviation="1.85"/>
<feComposite in2="hardAlpha" operator="out"/>
<feColorMatrix type="matrix" values="0 0 0 0 0.582613 0 0 0 0 0.144658 0 0 0 0 0.144658 0 0 0 0.62 0"/>
<feBlend mode="normal" in2="BackgroundImageFix" result="effect1_dropShadow_1_980"/>
<feBlend mode="normal" in="SourceGraphic" in2="effect1_dropShadow_1_980" result="shape"/>
</filter>
<linearGradient id="paint0_linear_1_980" x1="16.2609" y1="6" x2="170.084" y2="58.3855" gradientUnits="userSpaceOnUse">
<stop stop-color="#FFB200"/>
<stop offset="1" stop-color="#FF6100"/>
</linearGradient>
<radialGradient id="paint1_radial_1_980" cx="0" cy="0" r="1" gradientTransform="matrix(92.9564 0 -1.1878 24.267 31.5291 5.54651)" gradientUnits="userSpaceOnUse">
<stop stop-color="white"/>
<stop offset="1" stop-color="white" stop-opacity="0"/>
</radialGradient>
<linearGradient id="paint2_linear_1_980" x1="20" y1="17" x2="48.5" y2="11" gradientUnits="userSpaceOnUse">
<stop stop-color="white" stop-opacity="0"/>
<stop offset="0.190747" stop-color="white"/>
</linearGradient>
<linearGradient id="paint3_linear_1_980" x1="84" y1="9.5" x2="167" y2="9.5" gradientUnits="userSpaceOnUse">
<stop stop-color="white" stop-opacity="0"/>
<stop offset="1" stop-color="white"/>
</linearGradient>
<linearGradient id="paint4_linear_1_980" x1="52" y1="43.5" x2="20" y2="43.5" gradientUnits="userSpaceOnUse">
<stop stop-color="white" stop-opacity="0"/>
<stop offset="1" stop-color="white"/>
</linearGradient>
<linearGradient id="paint5_linear_1_980" x1="28.5" y1="20" x2="28.5" y2="37" gradientUnits="userSpaceOnUse">
<stop stop-color="white" stop-opacity="0.4"/>
<stop offset="1" stop-color="white" stop-opacity="0"/>
</linearGradient>
<linearGradient id="paint6_linear_1_980" x1="158.5" y1="21" x2="158.5" y2="28" gradientUnits="userSpaceOnUse">
<stop stop-color="white" stop-opacity="0.4"/>
<stop offset="1" stop-color="white" stop-opacity="0"/>
</linearGradient>
<linearGradient id="paint7_linear_1_980" x1="91.5" y1="17" x2="91.5" y2="36" gradientUnits="userSpaceOnUse">
<stop stop-color="#FFFDF3"/>
<stop offset="1" stop-color="#FFF4C5"/>
</linearGradient>
<linearGradient id="paint8_linear_1_980" x1="274" y1="6.5" x2="274" y2="46.5" gradientUnits="userSpaceOnUse">
<stop stop-color="#FDFBEE"/>
<stop offset="1" stop-color="#FFF6C5"/>
</linearGradient>
<linearGradient id="paint9_linear_1_980" x1="274.576" y1="20" x2="274.24" y2="33.4916" gradientUnits="userSpaceOnUse">
<stop stop-color="#FF8400"/>
<stop offset="1" stop-color="#FF3B00"/>
</linearGradient>
<clipPath id="clip0_1_980">
<rect width="362" height="53" fill="white"/>
</clipPath>
</defs>
</svg>
