<svg width="360" height="56" viewBox="0 0 360 56" fill="none" xmlns="http://www.w3.org/2000/svg">
<path d="M40 28C40 13.0883 52.0883 1 67 1H293C307.912 1 320 13.0883 320 28C320 42.9117 307.912 55 293 55H67C52.0883 55 40 42.9117 40 28Z" fill="#807AFF"/>
<g filter="url(#filter0_iii_2_50783)">
<path d="M49 28C49 13.6406 60.6406 2 75 2H285C299.359 2 311 13.6406 311 28C311 42.3594 299.359 54 285 54H75C60.6406 54 49 42.3594 49 28Z" fill="#807AFF"/>
<path d="M49 28C49 13.6406 60.6406 2 75 2H285C299.359 2 311 13.6406 311 28C311 42.3594 299.359 54 285 54H75C60.6406 54 49 42.3594 49 28Z" fill="black" fill-opacity="0.15" style="mix-blend-mode:plus-darker"/>
<path d="M49 28C49 13.6406 60.6406 2 75 2H285C299.359 2 311 13.6406 311 28C311 42.3594 299.359 54 285 54H75C60.6406 54 49 42.3594 49 28Z" fill="url(#paint0_linear_2_50783)" fill-opacity="0.2"/>
<path d="M49 28C49 13.6406 60.6406 2 75 2H285C299.359 2 311 13.6406 311 28C311 42.3594 299.359 54 285 54H75C60.6406 54 49 42.3594 49 28Z" fill="url(#paint1_radial_2_50783)" fill-opacity="0.6" style="mix-blend-mode:color-burn"/>
<path d="M49 28C49 13.6406 60.6406 2 75 2H285C299.359 2 311 13.6406 311 28C311 42.3594 299.359 54 285 54H75C60.6406 54 49 42.3594 49 28Z" fill="url(#paint2_radial_2_50783)" fill-opacity="0.8" style="mix-blend-mode:soft-light"/>
<path d="M49 28C49 13.6406 60.6406 2 75 2H285C299.359 2 311 13.6406 311 28C311 42.3594 299.359 54 285 54H75C60.6406 54 49 42.3594 49 28Z" fill="url(#paint3_radial_2_50783)" fill-opacity="0.6" style="mix-blend-mode:darken"/>
</g>
<path d="M120.343 21.16L120.083 23.1H116.843L116.503 23.96H119.623L118.603 31.18H116.703L116.363 30.7L117.063 25.74H113.543L112.843 30.7L112.383 31.18H110.463L111.483 23.96H113.963L114.303 23.1H111.383L111.643 21.16H120.343ZM105.363 30.7L105.783 31.44L106.963 29.26H102.563L102.823 27.4H110.363L110.063 29.52L107.363 33.68H107.323L108.223 35.14H105.103L102.443 30.7H105.363ZM108.323 26.8H105.903L105.643 25.32L105.123 26.58H102.743L104.783 21.72L104.303 21.18H110.263L110.983 26.56H108.803L108.223 22.94H106.643L105.903 24.68H107.963L108.323 26.8ZM116.363 26.44L115.783 30.62L118.443 35.14H115.303L114.363 32.64L112.583 35.14H109.623L113.463 30.54L114.043 26.44H116.363ZM130.002 32.7L129.062 32.82L128.742 35.18H125.742L126.022 33.16L120.802 33.76L121.082 31.7L121.702 31.64L122.882 23.06H122.282L122.542 21.16H131.282L131.022 23.06H130.442L129.362 30.74L130.302 30.62L130.002 32.7ZM133.842 24.2L133.662 25.5L134.402 27.62L135.622 25.22L135.842 23.56H131.342L131.642 21.56H138.802L138.182 25.88L135.402 30.4L137.102 35.16H134.522L133.762 33.06L132.482 35.14H129.462L132.762 30.24L131.102 25.54L131.282 24.2H133.842ZM125.602 24.52H127.242L127.442 23.06H125.802L125.602 24.52ZM125.142 27.88H126.762L126.982 26.42H125.342L125.142 27.88ZM124.662 31.28L126.322 31.1L126.502 29.78H124.882L124.662 31.28ZM142.26 35.16L143.12 29.08H140.16L140.42 27.26H143.36L143.5 26.36H146.92L146.78 27.26H149.74L149.48 29.08H146.54L145.68 35.16H142.26ZM150.32 22.7L141.12 22.98L141.38 21.22L150.58 20.94L150.32 22.7ZM149.56 35.18L152.7 30.66H156L152.86 35.18H149.56ZM151.08 25.14L154.1 20.78H157.4L154.38 25.14H151.08ZM150.42 30.08L153.44 25.72H156.7L153.68 30.08H150.42ZM146.56 35.14L146.82 29.78H149.2L148.92 35.14H146.56ZM139 35.14L140.4 29.78H142.7L141.3 35.14H139ZM150.4 23.36L149.5 25.9H147.16L148.06 23.36H150.4ZM146.42 23.36L146.6 25.9H144.26L144.08 23.36H146.42ZM143.42 23.36L143.6 25.9H141.26L141.08 23.36H143.42ZM173.238 26.48L173.138 27.24H168.958L168.778 28.56H174.858L174.598 30.46H168.518L168.158 32.94H169.098L170.458 31.04H173.878L172.518 32.94H174.618L174.358 34.84H157.638L157.898 32.94H160.238L159.438 31.04H162.858L163.578 32.94H164.358L164.718 30.46H158.638L158.898 28.56H164.978L165.158 27.24H160.978L161.078 26.48H158.818L162.618 21.62L162.218 21.16H172.858L175.558 26.48H173.238ZM164.078 25.34H170.598L169.458 23.06H165.878L164.078 25.34Z" fill="white"/>
<path d="M198.977 37V34.6914L205.645 26.3477C205.902 26.0117 206.078 25.6992 206.172 25.4102C206.234 25.1367 206.266 24.8789 206.266 24.6367C206.266 23.9961 206.066 23.4375 205.668 22.9609C205.254 22.4844 204.668 22.2383 203.91 22.2227C203.238 22.2227 202.68 22.4375 202.234 22.8672C201.773 23.2969 201.5 23.9023 201.414 24.6836H198.977C199.039 23.2617 199.516 22.0859 200.406 21.1562C201.305 20.25 202.41 19.7891 203.723 19.7734C205.191 19.7891 206.383 20.2578 207.297 21.1797C208.227 22.0938 208.699 23.2539 208.715 24.6602C208.715 25.7852 208.371 26.7852 207.684 27.6602L202.188 34.5508H208.715V37H198.977ZM210.93 29.1484V19.9141H220.035V22.3633H213.238V26.2305C214.035 25.6055 214.945 25.293 215.969 25.293C216.625 25.3086 217.227 25.4258 217.773 25.6445C218.289 25.8867 218.707 26.1836 219.027 26.5352C219.504 27.0039 219.848 27.5469 220.059 28.1641C220.168 28.5 220.246 28.9102 220.293 29.3945C220.34 29.8867 220.363 30.4922 220.363 31.2109C220.363 32.3203 220.285 33.1719 220.129 33.7656C219.965 34.3516 219.691 34.8711 219.309 35.3242C218.973 35.7695 218.484 36.1758 217.844 36.543C217.219 36.9258 216.477 37.125 215.617 37.1406C214.461 37.1406 213.402 36.7969 212.441 36.1094C211.465 35.4062 210.859 34.2695 210.625 32.6992H213.074C213.34 34.0117 214.156 34.6758 215.523 34.6914C216.109 34.6914 216.578 34.5742 216.93 34.3398C217.266 34.1133 217.5 33.8164 217.633 33.4492C217.773 33.082 217.859 32.6836 217.891 32.2539C217.906 31.832 217.914 31.4219 217.914 31.0234C217.93 30.0469 217.777 29.2539 217.457 28.6445C217.285 28.3555 217.031 28.125 216.695 27.9531C216.359 27.8125 215.941 27.7422 215.441 27.7422C214.996 27.7422 214.59 27.8438 214.223 28.0469C213.855 28.2578 213.527 28.625 213.238 29.1484H210.93ZM224.582 24.6602C224.598 25.4492 224.852 26.0508 225.344 26.4648C225.828 26.8945 226.387 27.1094 227.02 27.1094C227.676 27.1094 228.246 26.8945 228.73 26.4648C229.207 26.0508 229.453 25.4492 229.469 24.6602C229.453 23.8477 229.207 23.2344 228.73 22.8203C228.246 22.4219 227.676 22.2227 227.02 22.2227C226.387 22.2227 225.828 22.4219 225.344 22.8203C224.852 23.2344 224.598 23.8477 224.582 24.6602ZM221.816 32.0078C221.832 30.3594 222.504 29.0781 223.832 28.1641C223.324 27.7188 222.926 27.207 222.637 26.6289C222.301 26.0898 222.133 25.4492 222.133 24.707C222.148 23.2852 222.629 22.1094 223.574 21.1797C224.465 20.2578 225.613 19.7891 227.02 19.7734C228.449 19.7891 229.617 20.2578 230.523 21.1797C231.438 22.1094 231.902 23.2852 231.918 24.707C231.918 25.4492 231.766 26.0898 231.461 26.6289C231.141 27.207 230.727 27.7188 230.219 28.1641C231.547 29.0781 232.219 30.3594 232.234 32.0078C232.219 33.5469 231.715 34.7773 230.723 35.6992C229.715 36.6445 228.48 37.125 227.02 37.1406C225.566 37.125 224.352 36.6445 223.375 35.6992C222.352 34.7773 221.832 33.5469 221.816 32.0078ZM224.266 31.9844C224.281 32.7656 224.562 33.4062 225.109 33.9062C225.633 34.4297 226.27 34.6914 227.02 34.6914C227.793 34.6914 228.441 34.4297 228.965 33.9062C229.496 33.4062 229.77 32.7656 229.785 31.9844C229.77 31.1875 229.496 30.5391 228.965 30.0391C228.441 29.5469 227.793 29.293 227.02 29.2773C226.27 29.293 225.633 29.5469 225.109 30.0391C224.562 30.5391 224.281 31.1875 224.266 31.9844ZM241.773 30.104H243.757V35.656C243.757 35.9653 243.789 36.1627 243.853 36.248C243.928 36.3227 244.098 36.36 244.365 36.36C244.418 36.36 244.509 36.36 244.637 36.36C244.765 36.36 244.904 36.36 245.053 36.36C245.213 36.36 245.357 36.36 245.485 36.36C245.624 36.36 245.736 36.36 245.821 36.36C246.002 36.36 246.136 36.296 246.221 36.168C246.317 36.0293 246.386 35.768 246.429 35.384C246.472 34.9893 246.504 34.408 246.525 33.64C246.664 33.7467 246.84 33.8533 247.053 33.96C247.266 34.0667 247.485 34.1627 247.709 34.248C247.933 34.3333 248.13 34.3973 248.301 34.44C248.237 35.4 248.125 36.152 247.965 36.696C247.816 37.2293 247.586 37.6027 247.277 37.816C246.968 38.04 246.541 38.152 245.997 38.152C245.901 38.152 245.762 38.152 245.581 38.152C245.41 38.152 245.224 38.152 245.021 38.152C244.818 38.152 244.626 38.152 244.445 38.152C244.274 38.152 244.141 38.152 244.045 38.152C243.448 38.152 242.984 38.072 242.653 37.912C242.322 37.7627 242.093 37.5067 241.965 37.144C241.837 36.7813 241.773 36.2907 241.773 35.672V30.104ZM233.645 28.888H247.997V30.744H233.645V28.888ZM235.101 24.536H246.525V26.376H235.101V24.536ZM237.309 30.36H239.373C239.309 31.2347 239.202 32.0667 239.053 32.856C238.904 33.6453 238.664 34.3867 238.333 35.08C238.002 35.7627 237.528 36.3867 236.909 36.952C236.29 37.5067 235.48 37.9867 234.477 38.392C234.37 38.1467 234.2 37.8693 233.965 37.56C233.73 37.2613 233.506 37.016 233.293 36.824C234.168 36.504 234.861 36.12 235.373 35.672C235.885 35.2133 236.274 34.712 236.541 34.168C236.808 33.6133 236.989 33.016 237.085 32.376C237.181 31.7253 237.256 31.0533 237.309 30.36Z" fill="#FFD66E"/>
<g filter="url(#filter1_i_2_50783)">
<path d="M293 0C299.287 1.04773e-07 305.089 2.07211 309.763 5.57031C311.324 6.7084 312.747 8.02335 314.003 9.48633C318.357 14.4216 321 20.9015 321 28C321 43.464 308.464 56 293 56H67C60.704 56 54.8937 53.9216 50.2168 50.4141C48.6724 49.2854 47.2623 47.9843 46.0166 46.5371C41.6509 41.599 39 35.1095 39 28C39 12.536 51.536 2.57704e-07 67 0H293ZM70.3877 2C70.1276 6.67404 67.1333 12.8492 56.4072 20.2412C43.8206 28.9156 45.6223 45.1293 58.1348 52.4473C60.9016 53.4508 63.8866 54 67 54H289.613C289.873 49.326 292.868 43.1507 303.594 35.7588C316.18 27.0845 314.379 10.8709 301.867 3.55273C299.1 2.54878 296.114 2 293 2H70.3877Z" fill="url(#paint4_linear_2_50783)"/>
</g>
<g filter="url(#filter2_ddi_2_50783)">
<path d="M52.0215 36.4126C52.0878 36.094 52.4361 35.9227 52.729 36.0645L55.0742 37.2006C55.1587 37.2416 55.2531 37.2579 55.3465 37.2477L57.937 36.9645C58.2605 36.9291 58.5311 37.2073 58.4866 37.5298L58.1309 40.1113C58.1181 40.2043 58.1317 40.2991 58.1703 40.3848L59.2401 42.7609C59.3737 43.0577 59.1927 43.401 58.8723 43.4584L56.3072 43.9178C56.2148 43.9343 56.1288 43.9766 56.0593 44.0398L54.13 45.7915C53.8891 46.0103 53.5066 45.9442 53.3531 45.6573L52.1235 43.3597C52.0792 43.2769 52.0124 43.2082 51.9308 43.1616L49.6687 41.868C49.3861 41.7065 49.3308 41.3223 49.5563 41.0876L51.3614 39.2082C51.4265 39.1405 51.4712 39.0558 51.4903 38.9638L52.0215 36.4126Z" fill="#FFFEFA"/>
</g>
<g filter="url(#filter3_ddi_2_50783)">
<path d="M306.995 20.5718C306.929 20.8904 306.581 21.0617 306.288 20.9198L303.942 19.7838C303.858 19.7428 303.763 19.7265 303.67 19.7367L301.08 20.0199C300.756 20.0553 300.486 19.777 300.53 19.4546L300.886 16.8731C300.899 16.7801 300.885 16.6853 300.846 16.5996L299.777 14.2234C299.643 13.9267 299.824 13.5834 300.144 13.526L302.709 13.0666C302.802 13.05 302.888 13.0077 302.957 12.9446L304.887 11.1929C305.128 10.9741 305.51 11.0402 305.664 11.3271L306.893 13.6247C306.937 13.7075 307.004 13.7762 307.086 13.8228L309.348 15.1163C309.63 15.2779 309.686 15.662 309.46 15.8968L307.655 17.7761C307.59 17.8439 307.545 17.9286 307.526 18.0206L306.995 20.5718Z" fill="#FFFEFA"/>
</g>
<g filter="url(#filter4_ddi_2_50783)">
<path d="M59.338 46.6379C59.5763 46.4162 59.9595 46.4776 60.1166 46.7626L60.1552 46.8328C60.2006 46.915 60.2682 46.9829 60.3503 47.0285L60.4203 47.0674C60.7048 47.2255 60.7648 47.6089 60.5422 47.8464L60.4875 47.9048C60.4232 47.9734 60.3796 48.0586 60.3616 48.1508L60.3462 48.2294C60.2838 48.5488 59.9377 48.7244 59.643 48.5861L59.5705 48.5521C59.4855 48.5122 59.3909 48.497 59.2977 48.5084L59.2182 48.5181C58.8951 48.5574 58.6212 48.2825 58.6616 47.9595L58.6716 47.8801C58.6833 47.7868 58.6685 47.6922 58.6289 47.607L58.5951 47.5344C58.4579 47.2393 58.6347 46.8938 58.9543 46.8325L59.033 46.8175C59.1252 46.7998 59.2106 46.7564 59.2794 46.6924L59.338 46.6379Z" fill="#FFFEFA"/>
</g>
<g filter="url(#filter5_ddi_2_50783)">
<path d="M299.652 8.24534C299.444 8.43855 299.11 8.38504 298.973 8.13663C298.934 8.06493 298.875 8.00581 298.803 7.96604C298.555 7.82828 298.503 7.49414 298.697 7.2872C298.753 7.22747 298.791 7.15317 298.807 7.07282C298.861 6.79447 299.163 6.64147 299.419 6.76198C299.493 6.79677 299.576 6.80997 299.657 6.80008C299.939 6.76581 300.177 7.00539 300.142 7.28681C300.132 7.36804 300.145 7.4505 300.179 7.52474C300.299 7.78191 300.145 8.08298 299.866 8.13639C299.786 8.15181 299.711 8.18957 299.652 8.24534Z" fill="#FFFEFA"/>
</g>
<defs>
<filter id="filter0_iii_2_50783" x="47" y="-3" width="264" height="61" filterUnits="userSpaceOnUse" color-interpolation-filters="sRGB">
<feFlood flood-opacity="0" result="BackgroundImageFix"/>
<feBlend mode="normal" in="SourceGraphic" in2="BackgroundImageFix" result="shape"/>
<feColorMatrix in="SourceAlpha" type="matrix" values="0 0 0 0 0 0 0 0 0 0 0 0 0 0 0 0 0 0 127 0" result="hardAlpha"/>
<feOffset dx="-2" dy="1"/>
<feGaussianBlur stdDeviation="1.95"/>
<feComposite in2="hardAlpha" operator="arithmetic" k2="-1" k3="1"/>
<feColorMatrix type="matrix" values="0 0 0 0 0.749418 0 0 0 0 0.749418 0 0 0 0 0.749418 0 0 0 1 0"/>
<feBlend mode="color-burn" in2="shape" result="effect1_innerShadow_2_50783"/>
<feColorMatrix in="SourceAlpha" type="matrix" values="0 0 0 0 0 0 0 0 0 0 0 0 0 0 0 0 0 0 127 0" result="hardAlpha"/>
<feOffset dy="4"/>
<feGaussianBlur stdDeviation="2.85"/>
<feComposite in2="hardAlpha" operator="arithmetic" k2="-1" k3="1"/>
<feColorMatrix type="matrix" values="0 0 0 0 0.740103 0 0 0 0 0.740103 0 0 0 0 0.740103 0 0 0 0.6 0"/>
<feBlend mode="color-burn" in2="effect1_innerShadow_2_50783" result="effect2_innerShadow_2_50783"/>
<feColorMatrix in="SourceAlpha" type="matrix" values="0 0 0 0 0 0 0 0 0 0 0 0 0 0 0 0 0 0 127 0" result="hardAlpha"/>
<feOffset dy="-5"/>
<feGaussianBlur stdDeviation="3"/>
<feComposite in2="hardAlpha" operator="arithmetic" k2="-1" k3="1"/>
<feColorMatrix type="matrix" values="0 0 0 0 1 0 0 0 0 1 0 0 0 0 1 0 0 0 0.8 0"/>
<feBlend mode="soft-light" in2="effect2_innerShadow_2_50783" result="effect3_innerShadow_2_50783"/>
</filter>
<filter id="filter1_i_2_50783" x="39" y="0" width="282" height="60" filterUnits="userSpaceOnUse" color-interpolation-filters="sRGB">
<feFlood flood-opacity="0" result="BackgroundImageFix"/>
<feBlend mode="normal" in="SourceGraphic" in2="BackgroundImageFix" result="shape"/>
<feColorMatrix in="SourceAlpha" type="matrix" values="0 0 0 0 0 0 0 0 0 0 0 0 0 0 0 0 0 0 127 0" result="hardAlpha"/>
<feOffset dy="4"/>
<feGaussianBlur stdDeviation="2"/>
<feComposite in2="hardAlpha" operator="arithmetic" k2="-1" k3="1"/>
<feColorMatrix type="matrix" values="0 0 0 0 1 0 0 0 0 1 0 0 0 0 1 0 0 0 0.25 0"/>
<feBlend mode="normal" in2="shape" result="effect1_innerShadow_2_50783"/>
</filter>
<filter id="filter2_ddi_2_50783" x="45.4168" y="32.0146" width="17.8677" height="17.9072" filterUnits="userSpaceOnUse" color-interpolation-filters="sRGB">
<feFlood flood-opacity="0" result="BackgroundImageFix"/>
<feColorMatrix in="SourceAlpha" type="matrix" values="0 0 0 0 0 0 0 0 0 0 0 0 0 0 0 0 0 0 127 0" result="hardAlpha"/>
<feOffset/>
<feGaussianBlur stdDeviation="2"/>
<feComposite in2="hardAlpha" operator="out"/>
<feColorMatrix type="matrix" values="0 0 0 0 1 0 0 0 0 0.967593 0 0 0 0 0.611111 0 0 0 0.4 0"/>
<feBlend mode="normal" in2="BackgroundImageFix" result="effect1_dropShadow_2_50783"/>
<feColorMatrix in="SourceAlpha" type="matrix" values="0 0 0 0 0 0 0 0 0 0 0 0 0 0 0 0 0 0 127 0" result="hardAlpha"/>
<feOffset/>
<feGaussianBlur stdDeviation="2"/>
<feComposite in2="hardAlpha" operator="out"/>
<feColorMatrix type="matrix" values="0 0 0 0 1 0 0 0 0 0.967593 0 0 0 0 0.611111 0 0 0 0.4 0"/>
<feBlend mode="normal" in2="effect1_dropShadow_2_50783" result="effect2_dropShadow_2_50783"/>
<feBlend mode="normal" in="SourceGraphic" in2="effect2_dropShadow_2_50783" result="shape"/>
<feColorMatrix in="SourceAlpha" type="matrix" values="0 0 0 0 0 0 0 0 0 0 0 0 0 0 0 0 0 0 127 0" result="hardAlpha"/>
<feOffset dy="4"/>
<feGaussianBlur stdDeviation="2"/>
<feComposite in2="hardAlpha" operator="arithmetic" k2="-1" k3="1"/>
<feColorMatrix type="matrix" values="0 0 0 0 1 0 0 0 0 0.394445 0 0 0 0 0.848611 0 0 0 0.25 0"/>
<feBlend mode="normal" in2="shape" result="effect3_innerShadow_2_50783"/>
</filter>
<filter id="filter3_ddi_2_50783" x="295.732" y="7.0625" width="17.8677" height="17.9072" filterUnits="userSpaceOnUse" color-interpolation-filters="sRGB">
<feFlood flood-opacity="0" result="BackgroundImageFix"/>
<feColorMatrix in="SourceAlpha" type="matrix" values="0 0 0 0 0 0 0 0 0 0 0 0 0 0 0 0 0 0 127 0" result="hardAlpha"/>
<feOffset/>
<feGaussianBlur stdDeviation="2"/>
<feComposite in2="hardAlpha" operator="out"/>
<feColorMatrix type="matrix" values="0 0 0 0 1 0 0 0 0 0.967593 0 0 0 0 0.611111 0 0 0 0.4 0"/>
<feBlend mode="normal" in2="BackgroundImageFix" result="effect1_dropShadow_2_50783"/>
<feColorMatrix in="SourceAlpha" type="matrix" values="0 0 0 0 0 0 0 0 0 0 0 0 0 0 0 0 0 0 127 0" result="hardAlpha"/>
<feOffset/>
<feGaussianBlur stdDeviation="2"/>
<feComposite in2="hardAlpha" operator="out"/>
<feColorMatrix type="matrix" values="0 0 0 0 1 0 0 0 0 0.967593 0 0 0 0 0.611111 0 0 0 0.4 0"/>
<feBlend mode="normal" in2="effect1_dropShadow_2_50783" result="effect2_dropShadow_2_50783"/>
<feBlend mode="normal" in="SourceGraphic" in2="effect2_dropShadow_2_50783" result="shape"/>
<feColorMatrix in="SourceAlpha" type="matrix" values="0 0 0 0 0 0 0 0 0 0 0 0 0 0 0 0 0 0 127 0" result="hardAlpha"/>
<feOffset dy="4"/>
<feGaussianBlur stdDeviation="2"/>
<feComposite in2="hardAlpha" operator="arithmetic" k2="-1" k3="1"/>
<feColorMatrix type="matrix" values="0 0 0 0 1 0 0 0 0 0.394445 0 0 0 0 0.848611 0 0 0 0.25 0"/>
<feBlend mode="normal" in2="shape" result="effect3_innerShadow_2_50783"/>
</filter>
<filter id="filter4_ddi_2_50783" x="54.5482" y="42.5039" width="10.1293" height="10.1299" filterUnits="userSpaceOnUse" color-interpolation-filters="sRGB">
<feFlood flood-opacity="0" result="BackgroundImageFix"/>
<feColorMatrix in="SourceAlpha" type="matrix" values="0 0 0 0 0 0 0 0 0 0 0 0 0 0 0 0 0 0 127 0" result="hardAlpha"/>
<feOffset/>
<feGaussianBlur stdDeviation="2"/>
<feComposite in2="hardAlpha" operator="out"/>
<feColorMatrix type="matrix" values="0 0 0 0 1 0 0 0 0 0.967593 0 0 0 0 0.611111 0 0 0 0.4 0"/>
<feBlend mode="normal" in2="BackgroundImageFix" result="effect1_dropShadow_2_50783"/>
<feColorMatrix in="SourceAlpha" type="matrix" values="0 0 0 0 0 0 0 0 0 0 0 0 0 0 0 0 0 0 127 0" result="hardAlpha"/>
<feOffset/>
<feGaussianBlur stdDeviation="2"/>
<feComposite in2="hardAlpha" operator="out"/>
<feColorMatrix type="matrix" values="0 0 0 0 1 0 0 0 0 0.967593 0 0 0 0 0.611111 0 0 0 0.4 0"/>
<feBlend mode="normal" in2="effect1_dropShadow_2_50783" result="effect2_dropShadow_2_50783"/>
<feBlend mode="normal" in="SourceGraphic" in2="effect2_dropShadow_2_50783" result="shape"/>
<feColorMatrix in="SourceAlpha" type="matrix" values="0 0 0 0 0 0 0 0 0 0 0 0 0 0 0 0 0 0 127 0" result="hardAlpha"/>
<feOffset dy="4"/>
<feGaussianBlur stdDeviation="2"/>
<feComposite in2="hardAlpha" operator="arithmetic" k2="-1" k3="1"/>
<feColorMatrix type="matrix" values="0 0 0 0 1 0 0 0 0 0.394445 0 0 0 0 0.848611 0 0 0 0.25 0"/>
<feBlend mode="normal" in2="shape" result="effect3_innerShadow_2_50783"/>
</filter>
<filter id="filter5_ddi_2_50783" x="294.579" y="2.7207" width="9.6413" height="9.6416" filterUnits="userSpaceOnUse" color-interpolation-filters="sRGB">
<feFlood flood-opacity="0" result="BackgroundImageFix"/>
<feColorMatrix in="SourceAlpha" type="matrix" values="0 0 0 0 0 0 0 0 0 0 0 0 0 0 0 0 0 0 127 0" result="hardAlpha"/>
<feOffset/>
<feGaussianBlur stdDeviation="2"/>
<feComposite in2="hardAlpha" operator="out"/>
<feColorMatrix type="matrix" values="0 0 0 0 1 0 0 0 0 0.967593 0 0 0 0 0.611111 0 0 0 0.4 0"/>
<feBlend mode="normal" in2="BackgroundImageFix" result="effect1_dropShadow_2_50783"/>
<feColorMatrix in="SourceAlpha" type="matrix" values="0 0 0 0 0 0 0 0 0 0 0 0 0 0 0 0 0 0 127 0" result="hardAlpha"/>
<feOffset/>
<feGaussianBlur stdDeviation="2"/>
<feComposite in2="hardAlpha" operator="out"/>
<feColorMatrix type="matrix" values="0 0 0 0 1 0 0 0 0 0.967593 0 0 0 0 0.611111 0 0 0 0.4 0"/>
<feBlend mode="normal" in2="effect1_dropShadow_2_50783" result="effect2_dropShadow_2_50783"/>
<feBlend mode="normal" in="SourceGraphic" in2="effect2_dropShadow_2_50783" result="shape"/>
<feColorMatrix in="SourceAlpha" type="matrix" values="0 0 0 0 0 0 0 0 0 0 0 0 0 0 0 0 0 0 127 0" result="hardAlpha"/>
<feOffset dy="4"/>
<feGaussianBlur stdDeviation="2"/>
<feComposite in2="hardAlpha" operator="arithmetic" k2="-1" k3="1"/>
<feColorMatrix type="matrix" values="0 0 0 0 1 0 0 0 0 0.394445 0 0 0 0 0.848611 0 0 0 0.25 0"/>
<feBlend mode="normal" in2="shape" result="effect3_innerShadow_2_50783"/>
</filter>
<linearGradient id="paint0_linear_2_50783" x1="49" y1="50.5" x2="305.335" y2="14.6222" gradientUnits="userSpaceOnUse">
<stop stop-color="white" stop-opacity="0"/>
<stop offset="1" stop-color="white"/>
</linearGradient>
<radialGradient id="paint1_radial_2_50783" cx="0" cy="0" r="1" gradientTransform="matrix(-275.215 19.9949 -2.01404 -27.4226 296 39.5)" gradientUnits="userSpaceOnUse">
<stop stop-color="white" stop-opacity="0.8"/>
<stop offset="1" stop-color="#C2C2C2" stop-opacity="0.2"/>
</radialGradient>
<radialGradient id="paint2_radial_2_50783" cx="0" cy="0" r="1" gradientUnits="userSpaceOnUse" gradientTransform="translate(180 7) rotate(179.8) scale(287.002 31.1587)">
<stop offset="0.00442032" stop-color="white" stop-opacity="0.8"/>
<stop offset="0.425622" stop-color="white" stop-opacity="0.2"/>
</radialGradient>
<radialGradient id="paint3_radial_2_50783" cx="0" cy="0" r="1" gradientTransform="matrix(-221.179 -6.57549 3.61091 -128.637 295.764 54)" gradientUnits="userSpaceOnUse">
<stop offset="0.00442032" stop-color="white"/>
<stop offset="0.282598" stop-color="white" stop-opacity="0.2"/>
</radialGradient>
<linearGradient id="paint4_linear_2_50783" x1="50.2048" y1="0.805542" x2="50.2048" y2="55.1946" gradientUnits="userSpaceOnUse">
<stop stop-color="#FFDEBC"/>
<stop offset="1" stop-color="#FFBC58"/>
</linearGradient>
</defs>
</svg>
