<svg width="133" height="19" viewBox="0 0 133 19" fill="none" xmlns="http://www.w3.org/2000/svg">
<path d="M0.853022 8.00007C4.35283 8.00007 7.84197 13.4193 8.37604 15.0565C7.64404 9.51125 3.35283 6 1.85298 5.99988C1.96191 6.48786 1.6296 6.94835 0.853022 8.00007Z" fill="#FFC87B"/>
<path d="M1.60011 5.10156C1.41916 5.10156 1.26768 5.19208 1.20949 5.3623L1.1382 5.57031C1.06662 5.77969 0.888263 5.92398 0.665543 5.95996L0.437027 5.99609C0.243144 6.02732 0.131662 6.15951 0.106949 6.32031C0.0817689 6.48424 0.146578 6.68573 0.328629 6.83887L0.526871 7.00488C0.708876 7.15783 0.823064 7.37814 0.826675 7.60156L0.829605 7.83301C0.83288 8.03504 0.956519 8.21961 1.13039 8.33008C1.30452 8.44064 1.51042 8.46585 1.67238 8.37695L1.86574 8.27051C2.05767 8.16503 2.29908 8.16804 2.5132 8.2666L2.74367 8.37305C2.95483 8.47025 3.14617 8.43434 3.26515 8.33691C3.3825 8.24063 3.44459 8.07262 3.3755 7.86719L3.29738 7.63574C3.22373 7.41688 3.25566 7.18511 3.39601 7.01758L3.53468 6.85156C3.64746 6.71686 3.65222 6.5268 3.563 6.35059C3.47393 6.17487 3.29803 6.0303 3.08058 5.99707L2.83839 5.95996C2.61102 5.92519 2.39857 5.78921 2.26418 5.5957L2.11964 5.38672C1.98646 5.19508 1.78247 5.10156 1.60011 5.10156Z" fill="#FFE37B" stroke="white" stroke-width="0.204057"/>
<path d="M12.9734 2.86816C12.5188 2.86816 12.1334 3.10343 11.9822 3.57129L11.3973 5.38379C11.1937 6.01412 10.6808 6.45904 10.0281 6.57031L8.15312 6.88965C7.6702 6.97202 7.38186 7.31901 7.31621 7.77051C7.24932 8.23137 7.42196 8.79791 7.9041 9.22656L9.52422 10.666C10.0413 11.1257 10.3615 11.7839 10.3719 12.4502L10.4031 14.4609C10.4118 15.0303 10.7389 15.548 11.1961 15.8555C11.6551 16.1641 12.1794 16.2224 12.5838 15.9873L14.1707 15.0645C14.7315 14.7383 15.4309 14.7527 16.0447 15.0518L17.9393 15.9746C18.4872 16.2414 18.9691 16.1403 19.2664 15.8828C19.5639 15.625 19.7338 15.1607 19.5486 14.5781L18.909 12.5684C18.702 11.9173 18.7885 11.2216 19.1912 10.7129L20.3309 9.27344C20.6218 8.90595 20.6402 8.37671 20.4012 7.87695C20.1631 7.37924 19.6988 6.98013 19.1385 6.88965L17.157 6.57031C16.4995 6.46425 15.8952 6.05135 15.5154 5.47266L14.326 3.66016C13.9718 3.12048 13.4375 2.86822 12.9734 2.86816Z" fill="#FFE37B" stroke="white" stroke-width="0.736842"/>
<path d="M23.9206 8.74814C21.7486 8.74814 20.5615 13.3354 20.4579 14.4147C20.147 10.9068 22.0114 8.11852 22.6614 7.80371C22.6614 8.11852 23.2992 8.20839 23.9206 8.74814Z" fill="#FFC87B"/>
<path d="M23.4155 7.06445C23.5293 7.06445 23.6249 7.12057 23.6616 7.22754L23.7065 7.35938C23.7516 7.49125 23.8641 7.58188 24.0044 7.60449L24.1479 7.62793C24.2699 7.64758 24.3403 7.72991 24.356 7.83105C24.3718 7.93434 24.3311 8.06176 24.2163 8.1582L24.0913 8.2627C23.977 8.35894 23.9052 8.49723 23.9028 8.6377L23.9009 8.78418C23.8986 8.9112 23.8208 9.02721 23.7114 9.09668C23.6019 9.1662 23.4725 9.18185 23.3706 9.12598L23.2485 9.05859C23.1278 8.99231 22.976 8.99469 22.8413 9.05664L22.6958 9.12402C22.563 9.18511 22.4426 9.16276 22.3677 9.10156C22.2937 9.04101 22.255 8.93499 22.2983 8.80566L22.3472 8.65918C22.3934 8.52156 22.3738 8.37591 22.2856 8.27051L22.1978 8.16602C22.1267 8.0812 22.124 7.96156 22.1802 7.85059C22.2363 7.73987 22.3469 7.64881 22.4839 7.62793L22.6362 7.60449C22.7794 7.58259 22.9129 7.49683 22.9976 7.375L23.0884 7.24414C23.1722 7.12351 23.3008 7.06456 23.4155 7.06445Z" fill="#FFE37B" stroke="white" stroke-width="0.128478"/>
<path d="M38.2251 9.938L38.4891 8.09H34.1991L34.4851 6H38.7751L39.0391 4.042L35.1451 4.13L35.4531 2.04L47.5091 1.732L47.2231 3.822L43.0871 3.932L42.8011 6H47.3991L47.1131 8.09H42.5151L42.2511 9.938H46.4311L45.4631 16.78H33.2531L34.2211 9.938H38.2251ZM27.5551 17.198L29.6231 10.972H33.2531L31.1851 17.198H27.5551ZM29.7551 10.136L29.4691 6.374H33.0991L33.3851 10.136H29.7551ZM30.3931 5.538L30.1071 1.776H33.7371L34.0231 5.538H30.3931ZM42.0311 14.756L42.4271 12.028H37.7411L37.3451 14.756H42.0311ZM58.7054 5.956H57.5174L57.8254 3.866H59.2334L59.6734 2.106L59.0134 1.358H63.1934L62.5774 3.866H66.6034L64.9314 15.746C64.8581 16.1713 64.6601 16.5233 64.3374 16.802C64.0147 17.066 63.6407 17.198 63.2154 17.198H59.7174L61.6534 15.174L62.9514 5.956H62.0494L59.2774 17.198H55.9334L58.7054 5.956ZM55.4494 11.808L55.3174 17.198H51.9734V16.604L46.7374 17.198L47.0454 15.152L49.1574 8.464H47.9694L48.2774 6.374H56.6374L56.3294 8.464H52.5014L50.4994 14.734L52.0394 14.558L52.1054 11.808H55.4494ZM56.7914 2.194L56.5054 4.284H48.9814L49.2674 2.194H56.7914ZM83.7397 16.758H72.4097L74.4117 2.612L74.1257 1.754H85.8517L83.7397 16.758ZM67.2177 6.396L70.0777 1.93L69.5937 1.38H74.1917L70.9797 6.396H73.4877L70.2757 11.412H72.7837L72.4977 13.502H66.2277L66.5137 11.412L68.4057 8.486H66.9317L67.2177 6.396ZM72.0797 16.428L65.7657 16.846L66.0517 14.756L72.3877 14.338L72.0797 16.428ZM77.0957 14.712L77.7557 10.07H76.7217L76.0617 14.712H77.0957ZM81.0337 14.712L81.6937 10.07H80.6817L80.0217 14.712H81.0337ZM77.0077 7.98H78.0417L78.6357 3.866H77.6017L77.0077 7.98ZM81.5617 3.866L80.9677 7.98H81.9797L82.5737 3.866H81.5617ZM96.916 1.798L95.266 13.48H93.462L92.736 11.984L93.88 3.888H89.546L88.402 11.984L87.214 13.48H85.432L87.082 1.798H96.916ZM104.66 1.402L102.658 15.702C102.599 16.1127 102.401 16.4573 102.064 16.736C101.727 17.0147 101.353 17.154 100.942 17.154H97.62L99.556 14.976L101.36 2.062L100.832 1.402H104.66ZM92.934 4.68L91.9 11.962L94.958 17.176H91.724L90.448 14.58L88.314 17.176H85.234L89.238 11.984L90.272 4.68H92.934ZM100.458 2.81L98.962 13.458H96.08L97.576 2.81H100.458Z" fill="white"/>
<path d="M131.993 8.00007C128.493 8.00007 125.004 13.4193 124.47 15.0565C125.202 9.51125 129.493 6 130.993 5.99988C130.884 6.48786 131.217 6.94835 131.993 8.00007Z" fill="#FFC87B"/>
<path d="M131.246 5.10156C131.427 5.10156 131.579 5.19208 131.637 5.3623L131.708 5.57031C131.78 5.77969 131.958 5.92398 132.181 5.95996L132.409 5.99609C132.603 6.02732 132.715 6.15951 132.739 6.32031C132.764 6.48424 132.7 6.68573 132.518 6.83887L132.319 7.00488C132.137 7.15783 132.023 7.37814 132.02 7.60156L132.017 7.83301C132.013 8.03504 131.89 8.21961 131.716 8.33008C131.542 8.44064 131.336 8.46585 131.174 8.37695L130.98 8.27051C130.789 8.16503 130.547 8.16804 130.333 8.2666L130.103 8.37305C129.891 8.47025 129.7 8.43434 129.581 8.33691C129.464 8.24063 129.402 8.07262 129.471 7.86719L129.549 7.63574C129.622 7.41688 129.591 7.18511 129.45 7.01758L129.312 6.85156C129.199 6.71686 129.194 6.5268 129.283 6.35059C129.372 6.17487 129.548 6.0303 129.766 5.99707L130.008 5.95996C130.235 5.92519 130.448 5.78921 130.582 5.5957L130.727 5.38672C130.86 5.19508 131.064 5.10156 131.246 5.10156Z" fill="#FFE37B" stroke="white" stroke-width="0.204057"/>
<path d="M119.873 2.86816C120.327 2.86816 120.713 3.10343 120.864 3.57129L121.449 5.38379C121.653 6.01412 122.165 6.45904 122.818 6.57031L124.693 6.88965C125.176 6.97202 125.464 7.31901 125.53 7.77051C125.597 8.23137 125.424 8.79791 124.942 9.22656L123.322 10.666C122.805 11.1257 122.485 11.7839 122.474 12.4502L122.443 14.4609C122.434 15.0303 122.107 15.548 121.65 15.8555C121.191 16.1641 120.667 16.2224 120.262 15.9873L118.676 15.0645C118.115 14.7383 117.415 14.7527 116.801 15.0518L114.907 15.9746C114.359 16.2414 113.877 16.1403 113.58 15.8828C113.282 15.625 113.112 15.1607 113.298 14.5781L113.937 12.5684C114.144 11.9173 114.058 11.2216 113.655 10.7129L112.515 9.27344C112.224 8.90595 112.206 8.37671 112.445 7.87695C112.683 7.37924 113.147 6.98013 113.708 6.88965L115.689 6.57031C116.347 6.46425 116.951 6.05135 117.331 5.47266L118.52 3.66016C118.874 3.12048 119.409 2.86822 119.873 2.86816Z" fill="#FFE37B" stroke="white" stroke-width="0.736842"/>
<path d="M108.926 8.74814C111.098 8.74814 112.285 13.3354 112.388 14.4147C112.699 10.9068 110.835 8.11852 110.185 7.80371C110.185 8.11852 109.547 8.20839 108.926 8.74814Z" fill="#FFC87B"/>
<path d="M109.431 7.06445C109.317 7.06445 109.221 7.12057 109.185 7.22754L109.14 7.35938C109.095 7.49125 108.982 7.58188 108.842 7.60449L108.698 7.62793C108.576 7.64758 108.506 7.72991 108.49 7.83105C108.474 7.93434 108.515 8.06176 108.63 8.1582L108.755 8.2627C108.869 8.35894 108.941 8.49723 108.943 8.6377L108.945 8.78418C108.948 8.9112 109.025 9.02721 109.135 9.09668C109.244 9.1662 109.374 9.18185 109.476 9.12598L109.598 9.05859C109.718 8.99231 109.87 8.99469 110.005 9.05664L110.15 9.12402C110.283 9.18511 110.404 9.16276 110.479 9.10156C110.552 9.04101 110.591 8.93499 110.548 8.80566L110.499 8.65918C110.453 8.52156 110.472 8.37591 110.561 8.27051L110.648 8.16602C110.72 8.0812 110.722 7.96156 110.666 7.85059C110.61 7.73987 110.499 7.64881 110.362 7.62793L110.21 7.60449C110.067 7.58259 109.933 7.49683 109.849 7.375L109.758 7.24414C109.674 7.12351 109.545 7.06456 109.431 7.06445Z" fill="#FFE37B" stroke="white" stroke-width="0.128478"/>
</svg>
