<svg width="171" height="19" viewBox="0 0 171 19" fill="none" xmlns="http://www.w3.org/2000/svg">
<path d="M0.853007 8.00007C4.35281 8.00007 7.84196 13.4193 8.37602 15.0565C7.64402 9.51125 3.35281 6 1.85296 5.99988C1.9619 6.48786 1.62959 6.94835 0.853007 8.00007Z" fill="#FFC87B"/>
<path d="M1.6001 5.10156C1.41915 5.10156 1.26767 5.19208 1.20947 5.3623L1.13818 5.57031C1.0666 5.77969 0.888248 5.92398 0.665527 5.95996L0.437012 5.99609C0.243128 6.02732 0.131646 6.15951 0.106934 6.32031C0.0817537 6.48424 0.146563 6.68573 0.328613 6.83887L0.526855 7.00488C0.70886 7.15783 0.823048 7.37814 0.82666 7.60156L0.82959 7.83301C0.832865 8.03504 0.956504 8.21961 1.13037 8.33008C1.3045 8.44064 1.5104 8.46585 1.67236 8.37695L1.86572 8.27051C2.05766 8.16503 2.29907 8.16804 2.51318 8.2666L2.74365 8.37305C2.95481 8.47025 3.14616 8.43434 3.26514 8.33691C3.38248 8.24063 3.44458 8.07262 3.37549 7.86719L3.29736 7.63574C3.22372 7.41688 3.25564 7.18511 3.396 7.01758L3.53467 6.85156C3.64745 6.71686 3.6522 6.5268 3.56299 6.35059C3.47392 6.17487 3.29801 6.0303 3.08057 5.99707L2.83838 5.95996C2.611 5.92519 2.39856 5.78921 2.26416 5.5957L2.11963 5.38672C1.98644 5.19508 1.78246 5.10156 1.6001 5.10156Z" fill="#FFE37B" stroke="white" stroke-width="0.204057"/>
<path d="M12.9734 2.86816C12.5188 2.86816 12.1334 3.10343 11.9822 3.57129L11.3973 5.38379C11.1937 6.01412 10.6808 6.45904 10.0281 6.57031L8.15312 6.88965C7.6702 6.97202 7.38186 7.31901 7.31621 7.77051C7.24932 8.23137 7.42196 8.79791 7.9041 9.22656L9.52422 10.666C10.0413 11.1257 10.3615 11.7839 10.3719 12.4502L10.4031 14.4609C10.4118 15.0303 10.7389 15.548 11.1961 15.8555C11.6551 16.1641 12.1794 16.2224 12.5838 15.9873L14.1707 15.0645C14.7315 14.7383 15.4309 14.7527 16.0447 15.0518L17.9393 15.9746C18.4872 16.2414 18.9691 16.1403 19.2664 15.8828C19.5639 15.625 19.7338 15.1607 19.5486 14.5781L18.909 12.5684C18.702 11.9173 18.7885 11.2216 19.1912 10.7129L20.3309 9.27344C20.6218 8.90595 20.6402 8.37671 20.4012 7.87695C20.1631 7.37924 19.6988 6.98013 19.1385 6.88965L17.157 6.57031C16.4995 6.46425 15.8952 6.05135 15.5154 5.47266L14.326 3.66016C13.9718 3.12048 13.4375 2.86822 12.9734 2.86816Z" fill="#FFE37B" stroke="white" stroke-width="0.736842"/>
<path d="M23.9206 8.74814C21.7486 8.74814 20.5615 13.3354 20.4579 14.4147C20.147 10.9068 22.0114 8.11852 22.6614 7.80371C22.6614 8.11852 23.2992 8.20839 23.9206 8.74814Z" fill="#FFC87B"/>
<path d="M23.4155 7.06445C23.5293 7.06445 23.6249 7.12057 23.6616 7.22754L23.7065 7.35938C23.7516 7.49125 23.8641 7.58188 24.0044 7.60449L24.1479 7.62793C24.2699 7.64758 24.3403 7.72991 24.356 7.83105C24.3718 7.93434 24.3311 8.06176 24.2163 8.1582L24.0913 8.2627C23.977 8.35894 23.9052 8.49723 23.9028 8.6377L23.9009 8.78418C23.8986 8.9112 23.8208 9.02721 23.7114 9.09668C23.6019 9.1662 23.4725 9.18185 23.3706 9.12598L23.2485 9.05859C23.1278 8.99231 22.976 8.99469 22.8413 9.05664L22.6958 9.12402C22.563 9.18511 22.4426 9.16276 22.3677 9.10156C22.2937 9.04101 22.255 8.93499 22.2983 8.80566L22.3472 8.65918C22.3934 8.52156 22.3738 8.37591 22.2856 8.27051L22.1978 8.16602C22.1267 8.0812 22.124 7.96156 22.1802 7.85059C22.2363 7.73987 22.3469 7.64881 22.4839 7.62793L22.6362 7.60449C22.7794 7.58259 22.9129 7.49683 22.9976 7.375L23.0884 7.24414C23.1722 7.12351 23.3008 7.06456 23.4155 7.06445Z" fill="#FFE37B" stroke="white" stroke-width="0.128478"/>
<path d="M39.7871 8.42L39.6111 9.63H46.5191L46.2111 11.72H43.5711L45.9251 16.824H41.9651L39.6111 11.72H39.3031L38.5331 17.198H34.5731L35.3431 11.72H35.0351L31.4931 16.824H27.5331L31.0751 11.72H28.6551L28.9631 9.63H35.6511L35.8271 8.42H39.7871ZM44.5391 2.392H47.5311L47.2451 4.482H44.2531L44.1651 5.098H40.2051L40.2931 4.482H36.5311L36.4431 5.098H32.4831L32.5711 4.482H29.6891L29.9751 2.392H32.8571L32.8791 2.194L32.1751 1.358H36.9711L36.8171 2.392H40.5791L40.6011 2.194L39.8971 1.358H44.6931L44.5391 2.392ZM46.5851 9.102H42.4051L42.5811 7.848H33.3851L33.2091 9.102H29.0291L29.5131 5.758H47.0691L46.5851 9.102ZM50.5874 7.606L51.7094 4.196L48.9154 4.306L49.2234 2.15L58.7714 1.732L58.4634 3.888L55.8014 4.02L54.7674 7.606H59.3214L60.0914 2.238L59.3654 1.38H64.2494L63.3694 7.606H65.8554L65.5254 9.828H63.0614L62.0494 17.154H58.0014L59.0134 9.828H54.1294L52.0174 17.132H47.4854L49.8614 9.828H47.6614L47.9914 7.606H50.5874ZM69.3297 15.68L66.9977 3.844L66.5797 3.228H71.0237L72.6957 11.874L76.9197 3.228H81.1437L75.2477 15.68H69.3297ZM87.9458 3.228L86.0318 15.68H82.0278L83.5018 4.064L82.8638 3.228H87.9458ZM103.503 3.228L102.667 9.982C102.55 10.4073 102.315 10.7593 101.963 11.038C101.626 11.3167 101.296 11.456 100.973 11.456H93.5809L92.9429 15.68H88.9389L90.4129 3.844L89.7749 3.228H103.503ZM94.4389 5.34L93.9989 9.344H98.4429L99.0809 5.34H94.4389ZM116.946 8.882L114.152 7.87L111.094 8.882H105.242L105.528 6.792H109.84L110.544 6.572L108.894 5.956H105.638L108.036 1.93L107.552 1.358H112.568L112.062 2.194H122.886L122.49 5.12L118.112 6.572L118.772 6.792H123.084L122.798 8.882H116.946ZM109.07 17.198L111.028 15.174L111.512 11.808H104.824L105.11 9.718H111.798L111.93 8.882H116.11L115.978 9.718H122.666L122.38 11.808H115.692L115.142 15.746C115.069 16.1713 114.864 16.5233 114.526 16.802C114.204 17.066 113.837 17.198 113.426 17.198H109.07ZM118.332 16.824L116.462 12.226H120.224L122.094 16.824H118.332ZM103.702 16.824L106.848 12.226H110.61L107.464 16.824H103.702ZM111.754 4.284L114.504 5.274L117.54 4.284H111.754ZM130.607 3.162L130.145 2.612H134.127L133.577 4.482H134.677L135.007 2.194L134.303 1.358H139.319L138.879 4.482H141.805L141.497 6.572H138.571L138.153 9.498H141.519L141.211 11.588H137.867L137.075 17.198H132.895L133.687 11.588H128.671L128.979 9.498H133.973L134.391 6.572H132.983L132.455 8.464H129.111L130.607 3.162ZM129.155 3.866H129.133L127.263 17.198H123.281L125.041 4.68L123.765 4.922L124.117 2.414L129.507 1.358L129.155 3.866Z" fill="white"/>
<path d="M169.993 8.00007C166.493 8.00007 163.004 13.4193 162.47 15.0565C163.202 9.51125 167.493 6 168.993 5.99988C168.884 6.48786 169.217 6.94835 169.993 8.00007Z" fill="#FFC87B"/>
<path d="M169.246 5.10156C169.427 5.10156 169.579 5.19208 169.637 5.3623L169.708 5.57031C169.78 5.77969 169.958 5.92398 170.181 5.95996L170.409 5.99609C170.603 6.02732 170.715 6.15951 170.739 6.32031C170.764 6.48424 170.7 6.68573 170.518 6.83887L170.319 7.00488C170.137 7.15783 170.023 7.37814 170.02 7.60156L170.017 7.83301C170.013 8.03504 169.89 8.21961 169.716 8.33008C169.542 8.44064 169.336 8.46585 169.174 8.37695L168.98 8.27051C168.789 8.16503 168.547 8.16804 168.333 8.2666L168.103 8.37305C167.891 8.47025 167.7 8.43434 167.581 8.33691C167.464 8.24063 167.402 8.07262 167.471 7.86719L167.549 7.63574C167.623 7.41688 167.591 7.18511 167.45 7.01758L167.312 6.85156C167.199 6.71686 167.194 6.5268 167.283 6.35059C167.372 6.17487 167.548 6.0303 167.766 5.99707L168.008 5.95996C168.235 5.92519 168.448 5.78921 168.582 5.5957L168.727 5.38672C168.86 5.19508 169.064 5.10156 169.246 5.10156Z" fill="#FFE37B" stroke="white" stroke-width="0.204057"/>
<path d="M157.873 2.86816C158.327 2.86816 158.713 3.10343 158.864 3.57129L159.449 5.38379C159.653 6.01412 160.165 6.45904 160.818 6.57031L162.693 6.88965C163.176 6.97202 163.464 7.31901 163.53 7.77051C163.597 8.23137 163.424 8.79791 162.942 9.22656L161.322 10.666C160.805 11.1257 160.485 11.7839 160.474 12.4502L160.443 14.4609C160.434 15.0303 160.107 15.548 159.65 15.8555C159.191 16.1641 158.667 16.2224 158.262 15.9873L156.676 15.0645C156.115 14.7383 155.415 14.7527 154.802 15.0518L152.907 15.9746C152.359 16.2414 151.877 16.1403 151.58 15.8828C151.282 15.625 151.112 15.1607 151.298 14.5781L151.937 12.5684C152.144 11.9173 152.058 11.2216 151.655 10.7129L150.515 9.27344C150.224 8.90595 150.206 8.37671 150.445 7.87695C150.683 7.37924 151.147 6.98013 151.708 6.88965L153.689 6.57031C154.347 6.46425 154.951 6.05135 155.331 5.47266L156.52 3.66016C156.874 3.12048 157.409 2.86822 157.873 2.86816Z" fill="#FFE37B" stroke="white" stroke-width="0.736842"/>
<path d="M146.926 8.74814C149.098 8.74814 150.285 13.3354 150.388 14.4147C150.699 10.9068 148.835 8.11852 148.185 7.80371C148.185 8.11852 147.547 8.20839 146.926 8.74814Z" fill="#FFC87B"/>
<path d="M147.431 7.06445C147.317 7.06445 147.221 7.12057 147.185 7.22754L147.14 7.35938C147.095 7.49125 146.982 7.58188 146.842 7.60449L146.698 7.62793C146.576 7.64758 146.506 7.72991 146.49 7.83105C146.474 7.93434 146.515 8.06176 146.63 8.1582L146.755 8.2627C146.869 8.35894 146.941 8.49723 146.943 8.6377L146.945 8.78418C146.948 8.9112 147.025 9.02721 147.135 9.09668C147.244 9.1662 147.374 9.18185 147.476 9.12598L147.598 9.05859C147.718 8.99231 147.87 8.99469 148.005 9.05664L148.15 9.12402C148.283 9.18511 148.404 9.16276 148.479 9.10156C148.553 9.04101 148.591 8.93499 148.548 8.80566L148.499 8.65918C148.453 8.52156 148.472 8.37591 148.561 8.27051L148.648 8.16602C148.72 8.0812 148.722 7.96156 148.666 7.85059C148.61 7.73987 148.499 7.64881 148.362 7.62793L148.21 7.60449C148.067 7.58259 147.933 7.49683 147.849 7.375L147.758 7.24414C147.674 7.12351 147.545 7.06456 147.431 7.06445Z" fill="#FFE37B" stroke="white" stroke-width="0.128478"/>
</svg>
