<svg width="180" height="90" viewBox="0 0 180 90" fill="none" xmlns="http://www.w3.org/2000/svg">
<mask id="path-1-inside-1_2_47554" fill="white">
<path d="M0 0H180V30H0V0Z"/>
</mask>
<path d="M180 30V29.5H0V30V30.5H180V30Z" fill="#CACACA" mask="url(#path-1-inside-1_2_47554)"/>
<mask id="path-3-inside-2_2_47554" fill="white">
<path d="M0 0H90V30H0V0Z"/>
</mask>
<path d="M90 0H89.5V30H90H90.5V0H90Z" fill="#CACACA" mask="url(#path-3-inside-2_2_47554)"/>
<path d="M27.26 10.432H28.028V19H27.044V11.632C26.504 12.184 25.832 12.568 25.028 12.808V11.824C25.412 11.716 25.82 11.548 26.228 11.308C26.636 11.044 26.972 10.756 27.26 10.432ZM32.9164 10.264C33.9364 10.264 34.7044 10.708 35.2324 11.62C35.6884 12.388 35.9164 13.42 35.9164 14.716C35.9164 16.012 35.6884 17.044 35.2324 17.812C34.7044 18.712 33.9364 19.168 32.9164 19.168C31.8844 19.168 31.1164 18.712 30.6004 17.812C30.1444 17.044 29.9164 16.012 29.9164 14.716C29.9164 13.42 30.1444 12.388 30.6004 11.62C31.1164 10.708 31.8844 10.264 32.9164 10.264ZM32.9164 11.104C32.1484 11.104 31.5964 11.512 31.2604 12.34C31.0204 12.916 30.9004 13.708 30.9004 14.716C30.9004 15.712 31.0204 16.504 31.2604 17.092C31.5964 17.908 32.1484 18.328 32.9164 18.328C33.6844 18.328 34.2364 17.908 34.5724 17.092C34.8124 16.504 34.9444 15.712 34.9444 14.716C34.9444 13.708 34.8124 12.916 34.5724 12.34C34.2364 11.512 33.6844 11.104 32.9164 11.104ZM40.1117 10.264C41.1317 10.264 41.8997 10.708 42.4277 11.62C42.8837 12.388 43.1117 13.42 43.1117 14.716C43.1117 16.012 42.8837 17.044 42.4277 17.812C41.8997 18.712 41.1317 19.168 40.1117 19.168C39.0797 19.168 38.3117 18.712 37.7957 17.812C37.3397 17.044 37.1117 16.012 37.1117 14.716C37.1117 13.42 37.3397 12.388 37.7957 11.62C38.3117 10.708 39.0797 10.264 40.1117 10.264ZM40.1117 11.104C39.3437 11.104 38.7917 11.512 38.4557 12.34C38.2157 12.916 38.0957 13.708 38.0957 14.716C38.0957 15.712 38.2157 16.504 38.4557 17.092C38.7917 17.908 39.3437 18.328 40.1117 18.328C40.8797 18.328 41.4317 17.908 41.7677 17.092C42.0077 16.504 42.1397 15.712 42.1397 14.716C42.1397 13.708 42.0077 12.916 41.7677 12.34C41.4317 11.512 40.8797 11.104 40.1117 11.104ZM47.307 10.264C48.327 10.264 49.095 10.708 49.623 11.62C50.079 12.388 50.307 13.42 50.307 14.716C50.307 16.012 50.079 17.044 49.623 17.812C49.095 18.712 48.327 19.168 47.307 19.168C46.275 19.168 45.507 18.712 44.991 17.812C44.535 17.044 44.307 16.012 44.307 14.716C44.307 13.42 44.535 12.388 44.991 11.62C45.507 10.708 46.275 10.264 47.307 10.264ZM47.307 11.104C46.539 11.104 45.987 11.512 45.651 12.34C45.411 12.916 45.291 13.708 45.291 14.716C45.291 15.712 45.411 16.504 45.651 17.092C45.987 17.908 46.539 18.328 47.307 18.328C48.075 18.328 48.627 17.908 48.963 17.092C49.203 16.504 49.335 15.712 49.335 14.716C49.335 13.708 49.203 12.916 48.963 12.34C48.627 11.512 48.075 11.104 47.307 11.104ZM54.5023 10.264C55.5223 10.264 56.2903 10.708 56.8183 11.62C57.2743 12.388 57.5023 13.42 57.5023 14.716C57.5023 16.012 57.2743 17.044 56.8183 17.812C56.2903 18.712 55.5223 19.168 54.5023 19.168C53.4703 19.168 52.7023 18.712 52.1863 17.812C51.7303 17.044 51.5023 16.012 51.5023 14.716C51.5023 13.42 51.7303 12.388 52.1863 11.62C52.7023 10.708 53.4703 10.264 54.5023 10.264ZM54.5023 11.104C53.7343 11.104 53.1823 11.512 52.8463 12.34C52.6063 12.916 52.4863 13.708 52.4863 14.716C52.4863 15.712 52.6063 16.504 52.8463 17.092C53.1823 17.908 53.7343 18.328 54.5023 18.328C55.2703 18.328 55.8223 17.908 56.1583 17.092C56.3983 16.504 56.5303 15.712 56.5303 14.716C56.5303 13.708 56.3983 12.916 56.1583 12.34C55.8223 11.512 55.2703 11.104 54.5023 11.104ZM61.3257 12.868H62.1417V15.484H64.7577V16.3H62.1417V18.928H61.3257V16.3H58.6977V15.484H61.3257V12.868Z" fill="#222222"/>
<mask id="path-6-inside-3_2_47554" fill="white">
<path d="M90 0H180V30H90V0Z"/>
</mask>
<path d="M180 0H179.5V30H180H180.5V0H180Z" fill="#CACACA" mask="url(#path-6-inside-3_2_47554)"/>
<path d="M127.6 10.264C128.488 10.264 129.196 10.492 129.7 10.96C130.156 11.38 130.396 11.908 130.396 12.532C130.396 12.988 130.288 13.372 130.072 13.684C129.832 14.02 129.496 14.272 129.052 14.428V14.452C129.496 14.56 129.88 14.812 130.192 15.196C130.528 15.604 130.696 16.084 130.696 16.636C130.696 17.392 130.432 18.004 129.904 18.46C129.352 18.928 128.584 19.168 127.6 19.168C126.604 19.168 125.836 18.928 125.296 18.46C124.768 18.004 124.504 17.392 124.504 16.636C124.504 16.084 124.672 15.604 125.008 15.196C125.32 14.812 125.692 14.56 126.148 14.452V14.428C125.692 14.272 125.356 14.02 125.128 13.684C124.912 13.372 124.804 12.988 124.804 12.532C124.804 11.908 125.032 11.38 125.5 10.96C126.004 10.492 126.7 10.264 127.6 10.264ZM127.6 11.068C126.988 11.068 126.508 11.224 126.172 11.536C125.872 11.8 125.728 12.148 125.728 12.568C125.728 13 125.86 13.36 126.124 13.624C126.436 13.936 126.928 14.104 127.6 14.104C128.26 14.104 128.752 13.936 129.076 13.624C129.34 13.36 129.472 13 129.472 12.568C129.472 12.148 129.316 11.8 129.028 11.536C128.68 11.224 128.2 11.068 127.6 11.068ZM127.6 14.872C126.904 14.872 126.376 15.04 126.004 15.388C125.644 15.7 125.476 16.12 125.476 16.636C125.476 17.14 125.644 17.56 126.004 17.872C126.364 18.196 126.904 18.364 127.6 18.364C128.296 18.364 128.824 18.196 129.208 17.86C129.544 17.548 129.724 17.14 129.724 16.636C129.724 16.12 129.544 15.7 129.208 15.388C128.824 15.04 128.284 14.872 127.6 14.872ZM134.795 10.264C135.683 10.264 136.391 10.492 136.895 10.96C137.351 11.38 137.591 11.908 137.591 12.532C137.591 12.988 137.483 13.372 137.267 13.684C137.027 14.02 136.691 14.272 136.247 14.428V14.452C136.691 14.56 137.075 14.812 137.387 15.196C137.723 15.604 137.891 16.084 137.891 16.636C137.891 17.392 137.627 18.004 137.099 18.46C136.547 18.928 135.779 19.168 134.795 19.168C133.799 19.168 133.031 18.928 132.491 18.46C131.963 18.004 131.699 17.392 131.699 16.636C131.699 16.084 131.867 15.604 132.203 15.196C132.515 14.812 132.887 14.56 133.343 14.452V14.428C132.887 14.272 132.551 14.02 132.323 13.684C132.107 13.372 131.999 12.988 131.999 12.532C131.999 11.908 132.227 11.38 132.695 10.96C133.199 10.492 133.895 10.264 134.795 10.264ZM134.795 11.068C134.183 11.068 133.703 11.224 133.367 11.536C133.067 11.8 132.923 12.148 132.923 12.568C132.923 13 133.055 13.36 133.319 13.624C133.631 13.936 134.123 14.104 134.795 14.104C135.455 14.104 135.947 13.936 136.271 13.624C136.535 13.36 136.667 13 136.667 12.568C136.667 12.148 136.511 11.8 136.223 11.536C135.875 11.224 135.395 11.068 134.795 11.068ZM134.795 14.872C134.099 14.872 133.571 15.04 133.199 15.388C132.839 15.7 132.671 16.12 132.671 16.636C132.671 17.14 132.839 17.56 133.199 17.872C133.559 18.196 134.099 18.364 134.795 18.364C135.491 18.364 136.019 18.196 136.403 17.86C136.739 17.548 136.919 17.14 136.919 16.636C136.919 16.12 136.739 15.7 136.403 15.388C136.019 15.04 135.479 14.872 134.795 14.872ZM141.991 10.264C142.879 10.264 143.587 10.492 144.091 10.96C144.547 11.38 144.787 11.908 144.787 12.532C144.787 12.988 144.679 13.372 144.463 13.684C144.223 14.02 143.887 14.272 143.443 14.428V14.452C143.887 14.56 144.271 14.812 144.583 15.196C144.919 15.604 145.087 16.084 145.087 16.636C145.087 17.392 144.823 18.004 144.295 18.46C143.743 18.928 142.975 19.168 141.991 19.168C140.995 19.168 140.227 18.928 139.687 18.46C139.159 18.004 138.895 17.392 138.895 16.636C138.895 16.084 139.063 15.604 139.399 15.196C139.711 14.812 140.083 14.56 140.539 14.452V14.428C140.083 14.272 139.747 14.02 139.519 13.684C139.303 13.372 139.195 12.988 139.195 12.532C139.195 11.908 139.423 11.38 139.891 10.96C140.395 10.492 141.091 10.264 141.991 10.264ZM141.991 11.068C141.379 11.068 140.899 11.224 140.563 11.536C140.263 11.8 140.119 12.148 140.119 12.568C140.119 13 140.251 13.36 140.515 13.624C140.827 13.936 141.319 14.104 141.991 14.104C142.651 14.104 143.143 13.936 143.467 13.624C143.731 13.36 143.863 13 143.863 12.568C143.863 12.148 143.707 11.8 143.419 11.536C143.071 11.224 142.591 11.068 141.991 11.068ZM141.991 14.872C141.295 14.872 140.767 15.04 140.395 15.388C140.035 15.7 139.867 16.12 139.867 16.636C139.867 17.14 140.035 17.56 140.395 17.872C140.755 18.196 141.295 18.364 141.991 18.364C142.687 18.364 143.215 18.196 143.599 17.86C143.935 17.548 144.115 17.14 144.115 16.636C144.115 16.12 143.935 15.7 143.599 15.388C143.215 15.04 142.675 14.872 141.991 14.872Z" fill="#222222"/>
<mask id="path-9-inside-4_2_47554" fill="white">
<path d="M0 30H180V60H0V30Z"/>
</mask>
<path d="M180 60V59.5H0V60V60.5H180V60Z" fill="#CACACA" mask="url(#path-9-inside-4_2_47554)"/>
<mask id="path-11-inside-5_2_47554" fill="white">
<path d="M0 30H90V60H0V30Z"/>
</mask>
<path d="M90 30H89.5V60H90H90.5V30H90Z" fill="#CACACA" mask="url(#path-11-inside-5_2_47554)"/>
<path d="M26.684 40.264C27.5 40.264 28.172 40.468 28.676 40.888C29.168 41.308 29.42 41.872 29.42 42.592C29.42 43.552 28.952 44.2 28.016 44.512C28.52 44.668 28.904 44.908 29.168 45.244C29.456 45.58 29.6 46 29.6 46.504C29.6 47.284 29.324 47.92 28.784 48.412C28.232 48.916 27.512 49.168 26.624 49.168C25.808 49.168 25.148 48.952 24.632 48.544C24.02 48.04 23.684 47.308 23.612 46.348H24.608C24.632 47.02 24.86 47.536 25.28 47.884C25.64 48.172 26.084 48.328 26.624 48.328C27.236 48.328 27.728 48.148 28.1 47.8C28.436 47.464 28.616 47.044 28.616 46.54C28.616 46.024 28.448 45.628 28.112 45.34C27.776 45.052 27.32 44.92 26.72 44.92H26.024V44.152H26.684C27.26 44.152 27.692 44.02 27.992 43.768C28.292 43.504 28.448 43.132 28.448 42.652C28.448 42.172 28.292 41.8 28.004 41.536C27.692 41.248 27.248 41.116 26.696 41.116C26.12 41.116 25.676 41.26 25.352 41.572C25.016 41.884 24.824 42.328 24.764 42.904H23.792C23.864 42.076 24.176 41.428 24.704 40.96C25.208 40.492 25.868 40.264 26.684 40.264ZM33.7953 40.264C34.8153 40.264 35.5833 40.708 36.1113 41.62C36.5673 42.388 36.7953 43.42 36.7953 44.716C36.7953 46.012 36.5673 47.044 36.1113 47.812C35.5833 48.712 34.8153 49.168 33.7953 49.168C32.7633 49.168 31.9953 48.712 31.4793 47.812C31.0233 47.044 30.7953 46.012 30.7953 44.716C30.7953 43.42 31.0233 42.388 31.4793 41.62C31.9953 40.708 32.7633 40.264 33.7953 40.264ZM33.7953 41.104C33.0273 41.104 32.4753 41.512 32.1393 42.34C31.8993 42.916 31.7793 43.708 31.7793 44.716C31.7793 45.712 31.8993 46.504 32.1393 47.092C32.4753 47.908 33.0273 48.328 33.7953 48.328C34.5633 48.328 35.1153 47.908 35.4513 47.092C35.6913 46.504 35.8233 45.712 35.8233 44.716C35.8233 43.708 35.6913 42.916 35.4513 42.34C35.1153 41.512 34.5633 41.104 33.7953 41.104ZM40.9906 40.264C42.0106 40.264 42.7786 40.708 43.3066 41.62C43.7626 42.388 43.9906 43.42 43.9906 44.716C43.9906 46.012 43.7626 47.044 43.3066 47.812C42.7786 48.712 42.0106 49.168 40.9906 49.168C39.9586 49.168 39.1906 48.712 38.6746 47.812C38.2186 47.044 37.9906 46.012 37.9906 44.716C37.9906 43.42 38.2186 42.388 38.6746 41.62C39.1906 40.708 39.9586 40.264 40.9906 40.264ZM40.9906 41.104C40.2226 41.104 39.6706 41.512 39.3346 42.34C39.0946 42.916 38.9746 43.708 38.9746 44.716C38.9746 45.712 39.0946 46.504 39.3346 47.092C39.6706 47.908 40.2226 48.328 40.9906 48.328C41.7586 48.328 42.3106 47.908 42.6466 47.092C42.8866 46.504 43.0186 45.712 43.0186 44.716C43.0186 43.708 42.8866 42.916 42.6466 42.34C42.3106 41.512 41.7586 41.104 40.9906 41.104ZM48.1859 40.264C49.2059 40.264 49.9739 40.708 50.5019 41.62C50.9579 42.388 51.1859 43.42 51.1859 44.716C51.1859 46.012 50.9579 47.044 50.5019 47.812C49.9739 48.712 49.2059 49.168 48.1859 49.168C47.1539 49.168 46.3859 48.712 45.8699 47.812C45.4139 47.044 45.1859 46.012 45.1859 44.716C45.1859 43.42 45.4139 42.388 45.8699 41.62C46.3859 40.708 47.1539 40.264 48.1859 40.264ZM48.1859 41.104C47.4179 41.104 46.8659 41.512 46.5299 42.34C46.2899 42.916 46.1699 43.708 46.1699 44.716C46.1699 45.712 46.2899 46.504 46.5299 47.092C46.8659 47.908 47.4179 48.328 48.1859 48.328C48.9539 48.328 49.5059 47.908 49.8419 47.092C50.0819 46.504 50.2139 45.712 50.2139 44.716C50.2139 43.708 50.0819 42.916 49.8419 42.34C49.5059 41.512 48.9539 41.104 48.1859 41.104ZM55.3813 40.264C56.4013 40.264 57.1693 40.708 57.6973 41.62C58.1533 42.388 58.3813 43.42 58.3813 44.716C58.3813 46.012 58.1533 47.044 57.6973 47.812C57.1693 48.712 56.4013 49.168 55.3813 49.168C54.3493 49.168 53.5813 48.712 53.0653 47.812C52.6093 47.044 52.3813 46.012 52.3813 44.716C52.3813 43.42 52.6093 42.388 53.0653 41.62C53.5813 40.708 54.3493 40.264 55.3813 40.264ZM55.3813 41.104C54.6133 41.104 54.0613 41.512 53.7253 42.34C53.4853 42.916 53.3652 43.708 53.3652 44.716C53.3652 45.712 53.4853 46.504 53.7253 47.092C54.0613 47.908 54.6133 48.328 55.3813 48.328C56.1493 48.328 56.7013 47.908 57.0373 47.092C57.2773 46.504 57.4093 45.712 57.4093 44.716C57.4093 43.708 57.2773 42.916 57.0373 42.34C56.7013 41.512 56.1493 41.104 55.3813 41.104ZM62.2046 42.868H63.0206V45.484H65.6366V46.3H63.0206V48.928H62.2046V46.3H59.5766V45.484H62.2046V42.868Z" fill="#222222"/>
<mask id="path-14-inside-6_2_47554" fill="white">
<path d="M90 30H180V60H90V30Z"/>
</mask>
<path d="M180 30H179.5V60H180H180.5V30H180Z" fill="#CACACA" mask="url(#path-14-inside-6_2_47554)"/>
<path d="M124.26 40.432H125.028V49H124.044V41.632C123.504 42.184 122.832 42.568 122.028 42.808V41.824C122.412 41.716 122.82 41.548 123.228 41.308C123.636 41.044 123.972 40.756 124.26 40.432ZM129.916 40.264C130.804 40.264 131.512 40.492 132.016 40.96C132.472 41.38 132.712 41.908 132.712 42.532C132.712 42.988 132.604 43.372 132.388 43.684C132.148 44.02 131.812 44.272 131.368 44.428V44.452C131.812 44.56 132.196 44.812 132.508 45.196C132.844 45.604 133.012 46.084 133.012 46.636C133.012 47.392 132.748 48.004 132.22 48.46C131.668 48.928 130.9 49.168 129.916 49.168C128.92 49.168 128.152 48.928 127.612 48.46C127.084 48.004 126.82 47.392 126.82 46.636C126.82 46.084 126.988 45.604 127.324 45.196C127.636 44.812 128.008 44.56 128.464 44.452V44.428C128.008 44.272 127.672 44.02 127.444 43.684C127.228 43.372 127.12 42.988 127.12 42.532C127.12 41.908 127.348 41.38 127.816 40.96C128.32 40.492 129.016 40.264 129.916 40.264ZM129.916 41.068C129.304 41.068 128.824 41.224 128.488 41.536C128.188 41.8 128.044 42.148 128.044 42.568C128.044 43 128.176 43.36 128.44 43.624C128.752 43.936 129.244 44.104 129.916 44.104C130.576 44.104 131.068 43.936 131.392 43.624C131.656 43.36 131.788 43 131.788 42.568C131.788 42.148 131.632 41.8 131.344 41.536C130.996 41.224 130.516 41.068 129.916 41.068ZM129.916 44.872C129.22 44.872 128.692 45.04 128.32 45.388C127.96 45.7 127.792 46.12 127.792 46.636C127.792 47.14 127.96 47.56 128.32 47.872C128.68 48.196 129.22 48.364 129.916 48.364C130.612 48.364 131.14 48.196 131.524 47.86C131.86 47.548 132.04 47.14 132.04 46.636C132.04 46.12 131.86 45.7 131.524 45.388C131.14 45.04 130.6 44.872 129.916 44.872ZM137.112 40.264C138 40.264 138.708 40.492 139.212 40.96C139.668 41.38 139.908 41.908 139.908 42.532C139.908 42.988 139.8 43.372 139.584 43.684C139.344 44.02 139.008 44.272 138.564 44.428V44.452C139.008 44.56 139.392 44.812 139.704 45.196C140.04 45.604 140.208 46.084 140.208 46.636C140.208 47.392 139.944 48.004 139.416 48.46C138.864 48.928 138.096 49.168 137.112 49.168C136.116 49.168 135.348 48.928 134.808 48.46C134.28 48.004 134.016 47.392 134.016 46.636C134.016 46.084 134.184 45.604 134.52 45.196C134.832 44.812 135.204 44.56 135.66 44.452V44.428C135.204 44.272 134.868 44.02 134.64 43.684C134.424 43.372 134.316 42.988 134.316 42.532C134.316 41.908 134.544 41.38 135.012 40.96C135.516 40.492 136.212 40.264 137.112 40.264ZM137.112 41.068C136.5 41.068 136.02 41.224 135.684 41.536C135.384 41.8 135.24 42.148 135.24 42.568C135.24 43 135.372 43.36 135.636 43.624C135.948 43.936 136.44 44.104 137.112 44.104C137.772 44.104 138.264 43.936 138.588 43.624C138.852 43.36 138.984 43 138.984 42.568C138.984 42.148 138.828 41.8 138.54 41.536C138.192 41.224 137.712 41.068 137.112 41.068ZM137.112 44.872C136.416 44.872 135.888 45.04 135.516 45.388C135.156 45.7 134.988 46.12 134.988 46.636C134.988 47.14 135.156 47.56 135.516 47.872C135.876 48.196 136.416 48.364 137.112 48.364C137.808 48.364 138.336 48.196 138.72 47.86C139.056 47.548 139.236 47.14 139.236 46.636C139.236 46.12 139.056 45.7 138.72 45.388C138.336 45.04 137.796 44.872 137.112 44.872ZM144.307 40.264C145.195 40.264 145.903 40.492 146.407 40.96C146.863 41.38 147.103 41.908 147.103 42.532C147.103 42.988 146.995 43.372 146.779 43.684C146.539 44.02 146.203 44.272 145.759 44.428V44.452C146.203 44.56 146.587 44.812 146.899 45.196C147.235 45.604 147.403 46.084 147.403 46.636C147.403 47.392 147.139 48.004 146.611 48.46C146.059 48.928 145.291 49.168 144.307 49.168C143.311 49.168 142.543 48.928 142.003 48.46C141.475 48.004 141.211 47.392 141.211 46.636C141.211 46.084 141.379 45.604 141.715 45.196C142.027 44.812 142.399 44.56 142.855 44.452V44.428C142.399 44.272 142.063 44.02 141.835 43.684C141.619 43.372 141.511 42.988 141.511 42.532C141.511 41.908 141.739 41.38 142.207 40.96C142.711 40.492 143.407 40.264 144.307 40.264ZM144.307 41.068C143.695 41.068 143.215 41.224 142.879 41.536C142.579 41.8 142.435 42.148 142.435 42.568C142.435 43 142.567 43.36 142.831 43.624C143.143 43.936 143.635 44.104 144.307 44.104C144.967 44.104 145.459 43.936 145.783 43.624C146.047 43.36 146.179 43 146.179 42.568C146.179 42.148 146.023 41.8 145.735 41.536C145.387 41.224 144.907 41.068 144.307 41.068ZM144.307 44.872C143.611 44.872 143.083 45.04 142.711 45.388C142.351 45.7 142.183 46.12 142.183 46.636C142.183 47.14 142.351 47.56 142.711 47.872C143.071 48.196 143.611 48.364 144.307 48.364C145.003 48.364 145.531 48.196 145.915 47.86C146.251 47.548 146.431 47.14 146.431 46.636C146.431 46.12 146.251 45.7 145.915 45.388C145.531 45.04 144.991 44.872 144.307 44.872Z" fill="#222222"/>
<mask id="path-17-inside-7_2_47554" fill="white">
<path d="M0 60H180V90H0V60Z"/>
</mask>
<path d="M180 90V89.5H0V90V90.5H180V90Z" fill="#CACACA" mask="url(#path-17-inside-7_2_47554)"/>
<mask id="path-19-inside-8_2_47554" fill="white">
<path d="M0 60H90V90H0V60Z"/>
</mask>
<path d="M90 60H89.5V90H90H90.5V60H90Z" fill="#CACACA" mask="url(#path-19-inside-8_2_47554)"/>
<path d="M24.26 70.432H29.24V71.308H25.064L24.776 74.176H24.824C25.064 73.888 25.376 73.672 25.748 73.528C26.084 73.384 26.444 73.324 26.84 73.324C27.656 73.324 28.316 73.576 28.82 74.092C29.324 74.62 29.588 75.34 29.588 76.264C29.588 77.128 29.276 77.836 28.664 78.388C28.088 78.904 27.368 79.168 26.528 79.168C25.772 79.168 25.124 78.964 24.596 78.556C23.996 78.1 23.672 77.476 23.612 76.696H24.584C24.632 77.236 24.848 77.656 25.232 77.944C25.568 78.196 26.012 78.328 26.54 78.328C27.14 78.328 27.632 78.136 28.028 77.752C28.412 77.368 28.616 76.876 28.616 76.276C28.616 75.592 28.424 75.064 28.064 74.692C27.716 74.308 27.224 74.128 26.6 74.128C26.192 74.128 25.832 74.212 25.508 74.392C25.172 74.56 24.908 74.824 24.74 75.16H23.804L24.26 70.432ZM33.7953 70.264C34.8153 70.264 35.5833 70.708 36.1113 71.62C36.5673 72.388 36.7953 73.42 36.7953 74.716C36.7953 76.012 36.5673 77.044 36.1113 77.812C35.5833 78.712 34.8153 79.168 33.7953 79.168C32.7633 79.168 31.9953 78.712 31.4793 77.812C31.0233 77.044 30.7953 76.012 30.7953 74.716C30.7953 73.42 31.0233 72.388 31.4793 71.62C31.9953 70.708 32.7633 70.264 33.7953 70.264ZM33.7953 71.104C33.0273 71.104 32.4753 71.512 32.1393 72.34C31.8993 72.916 31.7793 73.708 31.7793 74.716C31.7793 75.712 31.8993 76.504 32.1393 77.092C32.4753 77.908 33.0273 78.328 33.7953 78.328C34.5633 78.328 35.1153 77.908 35.4513 77.092C35.6913 76.504 35.8233 75.712 35.8233 74.716C35.8233 73.708 35.6913 72.916 35.4513 72.34C35.1153 71.512 34.5633 71.104 33.7953 71.104ZM40.9906 70.264C42.0106 70.264 42.7786 70.708 43.3066 71.62C43.7626 72.388 43.9906 73.42 43.9906 74.716C43.9906 76.012 43.7626 77.044 43.3066 77.812C42.7786 78.712 42.0106 79.168 40.9906 79.168C39.9586 79.168 39.1906 78.712 38.6746 77.812C38.2186 77.044 37.9906 76.012 37.9906 74.716C37.9906 73.42 38.2186 72.388 38.6746 71.62C39.1906 70.708 39.9586 70.264 40.9906 70.264ZM40.9906 71.104C40.2226 71.104 39.6706 71.512 39.3346 72.34C39.0946 72.916 38.9746 73.708 38.9746 74.716C38.9746 75.712 39.0946 76.504 39.3346 77.092C39.6706 77.908 40.2226 78.328 40.9906 78.328C41.7586 78.328 42.3106 77.908 42.6466 77.092C42.8866 76.504 43.0186 75.712 43.0186 74.716C43.0186 73.708 42.8866 72.916 42.6466 72.34C42.3106 71.512 41.7586 71.104 40.9906 71.104ZM48.1859 70.264C49.2059 70.264 49.9739 70.708 50.5019 71.62C50.9579 72.388 51.1859 73.42 51.1859 74.716C51.1859 76.012 50.9579 77.044 50.5019 77.812C49.9739 78.712 49.2059 79.168 48.1859 79.168C47.1539 79.168 46.3859 78.712 45.8699 77.812C45.4139 77.044 45.1859 76.012 45.1859 74.716C45.1859 73.42 45.4139 72.388 45.8699 71.62C46.3859 70.708 47.1539 70.264 48.1859 70.264ZM48.1859 71.104C47.4179 71.104 46.8659 71.512 46.5299 72.34C46.2899 72.916 46.1699 73.708 46.1699 74.716C46.1699 75.712 46.2899 76.504 46.5299 77.092C46.8659 77.908 47.4179 78.328 48.1859 78.328C48.9539 78.328 49.5059 77.908 49.8419 77.092C50.0819 76.504 50.2139 75.712 50.2139 74.716C50.2139 73.708 50.0819 72.916 49.8419 72.34C49.5059 71.512 48.9539 71.104 48.1859 71.104ZM55.3813 70.264C56.4013 70.264 57.1693 70.708 57.6973 71.62C58.1533 72.388 58.3813 73.42 58.3813 74.716C58.3813 76.012 58.1533 77.044 57.6973 77.812C57.1693 78.712 56.4013 79.168 55.3813 79.168C54.3493 79.168 53.5813 78.712 53.0653 77.812C52.6093 77.044 52.3813 76.012 52.3813 74.716C52.3813 73.42 52.6093 72.388 53.0653 71.62C53.5813 70.708 54.3493 70.264 55.3813 70.264ZM55.3813 71.104C54.6133 71.104 54.0613 71.512 53.7253 72.34C53.4853 72.916 53.3652 73.708 53.3652 74.716C53.3652 75.712 53.4853 76.504 53.7253 77.092C54.0613 77.908 54.6133 78.328 55.3813 78.328C56.1493 78.328 56.7013 77.908 57.0373 77.092C57.2773 76.504 57.4093 75.712 57.4093 74.716C57.4093 73.708 57.2773 72.916 57.0373 72.34C56.7013 71.512 56.1493 71.104 55.3813 71.104ZM62.2046 72.868H63.0206V75.484H65.6366V76.3H63.0206V78.928H62.2046V76.3H59.5766V75.484H62.2046V72.868Z" fill="#222222"/>
<mask id="path-22-inside-9_2_47554" fill="white">
<path d="M90 60H180V90H90V60Z"/>
</mask>
<path d="M180 60H179.5V90H180H180.5V60H180Z" fill="#CACACA" mask="url(#path-22-inside-9_2_47554)"/>
<path d="M121.76 70.432H126.74V71.308H122.564L122.276 74.176H122.324C122.564 73.888 122.876 73.672 123.248 73.528C123.584 73.384 123.944 73.324 124.34 73.324C125.156 73.324 125.816 73.576 126.32 74.092C126.824 74.62 127.088 75.34 127.088 76.264C127.088 77.128 126.776 77.836 126.164 78.388C125.588 78.904 124.868 79.168 124.028 79.168C123.272 79.168 122.624 78.964 122.096 78.556C121.496 78.1 121.172 77.476 121.112 76.696H122.084C122.132 77.236 122.348 77.656 122.732 77.944C123.068 78.196 123.512 78.328 124.04 78.328C124.64 78.328 125.132 78.136 125.528 77.752C125.912 77.368 126.116 76.876 126.116 76.276C126.116 75.592 125.924 75.064 125.564 74.692C125.216 74.308 124.724 74.128 124.1 74.128C123.692 74.128 123.332 74.212 123.008 74.392C122.672 74.56 122.408 74.824 122.24 75.16H121.304L121.76 70.432ZM131.295 70.264C132.183 70.264 132.891 70.492 133.395 70.96C133.851 71.38 134.091 71.908 134.091 72.532C134.091 72.988 133.983 73.372 133.767 73.684C133.527 74.02 133.191 74.272 132.747 74.428V74.452C133.191 74.56 133.575 74.812 133.887 75.196C134.223 75.604 134.391 76.084 134.391 76.636C134.391 77.392 134.127 78.004 133.599 78.46C133.047 78.928 132.279 79.168 131.295 79.168C130.299 79.168 129.531 78.928 128.991 78.46C128.463 78.004 128.199 77.392 128.199 76.636C128.199 76.084 128.367 75.604 128.703 75.196C129.015 74.812 129.387 74.56 129.843 74.452V74.428C129.387 74.272 129.051 74.02 128.823 73.684C128.607 73.372 128.499 72.988 128.499 72.532C128.499 71.908 128.727 71.38 129.195 70.96C129.699 70.492 130.395 70.264 131.295 70.264ZM131.295 71.068C130.683 71.068 130.203 71.224 129.867 71.536C129.567 71.8 129.423 72.148 129.423 72.568C129.423 73 129.555 73.36 129.819 73.624C130.131 73.936 130.623 74.104 131.295 74.104C131.955 74.104 132.447 73.936 132.771 73.624C133.035 73.36 133.167 73 133.167 72.568C133.167 72.148 133.011 71.8 132.723 71.536C132.375 71.224 131.895 71.068 131.295 71.068ZM131.295 74.872C130.599 74.872 130.071 75.04 129.699 75.388C129.339 75.7 129.171 76.12 129.171 76.636C129.171 77.14 129.339 77.56 129.699 77.872C130.059 78.196 130.599 78.364 131.295 78.364C131.991 78.364 132.519 78.196 132.903 77.86C133.239 77.548 133.419 77.14 133.419 76.636C133.419 76.12 133.239 75.7 132.903 75.388C132.519 75.04 131.979 74.872 131.295 74.872ZM138.491 70.264C139.379 70.264 140.087 70.492 140.591 70.96C141.047 71.38 141.287 71.908 141.287 72.532C141.287 72.988 141.179 73.372 140.963 73.684C140.723 74.02 140.387 74.272 139.943 74.428V74.452C140.387 74.56 140.771 74.812 141.083 75.196C141.419 75.604 141.587 76.084 141.587 76.636C141.587 77.392 141.323 78.004 140.795 78.46C140.243 78.928 139.475 79.168 138.491 79.168C137.495 79.168 136.727 78.928 136.187 78.46C135.659 78.004 135.395 77.392 135.395 76.636C135.395 76.084 135.563 75.604 135.899 75.196C136.211 74.812 136.583 74.56 137.039 74.452V74.428C136.583 74.272 136.247 74.02 136.019 73.684C135.803 73.372 135.695 72.988 135.695 72.532C135.695 71.908 135.923 71.38 136.391 70.96C136.895 70.492 137.591 70.264 138.491 70.264ZM138.491 71.068C137.879 71.068 137.399 71.224 137.063 71.536C136.763 71.8 136.619 72.148 136.619 72.568C136.619 73 136.751 73.36 137.015 73.624C137.327 73.936 137.819 74.104 138.491 74.104C139.151 74.104 139.643 73.936 139.967 73.624C140.231 73.36 140.363 73 140.363 72.568C140.363 72.148 140.207 71.8 139.919 71.536C139.571 71.224 139.091 71.068 138.491 71.068ZM138.491 74.872C137.795 74.872 137.267 75.04 136.895 75.388C136.535 75.7 136.367 76.12 136.367 76.636C136.367 77.14 136.535 77.56 136.895 77.872C137.255 78.196 137.795 78.364 138.491 78.364C139.187 78.364 139.715 78.196 140.099 77.86C140.435 77.548 140.615 77.14 140.615 76.636C140.615 76.12 140.435 75.7 140.099 75.388C139.715 75.04 139.175 74.872 138.491 74.872ZM145.686 70.264C146.574 70.264 147.282 70.492 147.786 70.96C148.242 71.38 148.482 71.908 148.482 72.532C148.482 72.988 148.374 73.372 148.158 73.684C147.918 74.02 147.582 74.272 147.138 74.428V74.452C147.582 74.56 147.966 74.812 148.278 75.196C148.614 75.604 148.782 76.084 148.782 76.636C148.782 77.392 148.518 78.004 147.99 78.46C147.438 78.928 146.67 79.168 145.686 79.168C144.69 79.168 143.922 78.928 143.382 78.46C142.854 78.004 142.59 77.392 142.59 76.636C142.59 76.084 142.758 75.604 143.094 75.196C143.406 74.812 143.778 74.56 144.234 74.452V74.428C143.778 74.272 143.442 74.02 143.214 73.684C142.998 73.372 142.89 72.988 142.89 72.532C142.89 71.908 143.118 71.38 143.586 70.96C144.09 70.492 144.786 70.264 145.686 70.264ZM145.686 71.068C145.074 71.068 144.594 71.224 144.258 71.536C143.958 71.8 143.814 72.148 143.814 72.568C143.814 73 143.946 73.36 144.21 73.624C144.522 73.936 145.014 74.104 145.686 74.104C146.346 74.104 146.838 73.936 147.162 73.624C147.426 73.36 147.558 73 147.558 72.568C147.558 72.148 147.402 71.8 147.114 71.536C146.766 71.224 146.286 71.068 145.686 71.068ZM145.686 74.872C144.99 74.872 144.462 75.04 144.09 75.388C143.73 75.7 143.562 76.12 143.562 76.636C143.562 77.14 143.73 77.56 144.09 77.872C144.45 78.196 144.99 78.364 145.686 78.364C146.382 78.364 146.91 78.196 147.294 77.86C147.63 77.548 147.81 77.14 147.81 76.636C147.81 76.12 147.63 75.7 147.294 75.388C146.91 75.04 146.37 74.872 145.686 74.872Z" fill="#222222"/>
</svg>
