<svg width="180" height="90" viewBox="0 0 180 90" fill="none" xmlns="http://www.w3.org/2000/svg">
<mask id="path-1-inside-1_2_54394" fill="white">
<path d="M0 0H180V30H0V0Z"/>
</mask>
<path d="M180 30V29.5H0V30V30.5H180V30Z" fill="#CACACA" mask="url(#path-1-inside-1_2_54394)"/>
<mask id="path-3-inside-2_2_54394" fill="white">
<path d="M0 0H90V30H0V0Z"/>
</mask>
<path d="M90 0H89.5V30H90H90.5V0H90Z" fill="#CACACA" mask="url(#path-3-inside-2_2_54394)"/>
<path d="M27.26 10.432H28.028V19H27.044V11.632C26.504 12.184 25.832 12.568 25.028 12.808V11.824C25.412 11.716 25.82 11.548 26.228 11.308C26.636 11.044 26.972 10.756 27.26 10.432ZM32.9164 10.264C33.9364 10.264 34.7044 10.708 35.2324 11.62C35.6884 12.388 35.9164 13.42 35.9164 14.716C35.9164 16.012 35.6884 17.044 35.2324 17.812C34.7044 18.712 33.9364 19.168 32.9164 19.168C31.8844 19.168 31.1164 18.712 30.6004 17.812C30.1444 17.044 29.9164 16.012 29.9164 14.716C29.9164 13.42 30.1444 12.388 30.6004 11.62C31.1164 10.708 31.8844 10.264 32.9164 10.264ZM32.9164 11.104C32.1484 11.104 31.5964 11.512 31.2604 12.34C31.0204 12.916 30.9004 13.708 30.9004 14.716C30.9004 15.712 31.0204 16.504 31.2604 17.092C31.5964 17.908 32.1484 18.328 32.9164 18.328C33.6844 18.328 34.2364 17.908 34.5724 17.092C34.8124 16.504 34.9444 15.712 34.9444 14.716C34.9444 13.708 34.8124 12.916 34.5724 12.34C34.2364 11.512 33.6844 11.104 32.9164 11.104ZM40.1117 10.264C41.1317 10.264 41.8997 10.708 42.4277 11.62C42.8837 12.388 43.1117 13.42 43.1117 14.716C43.1117 16.012 42.8837 17.044 42.4277 17.812C41.8997 18.712 41.1317 19.168 40.1117 19.168C39.0797 19.168 38.3117 18.712 37.7957 17.812C37.3397 17.044 37.1117 16.012 37.1117 14.716C37.1117 13.42 37.3397 12.388 37.7957 11.62C38.3117 10.708 39.0797 10.264 40.1117 10.264ZM40.1117 11.104C39.3437 11.104 38.7917 11.512 38.4557 12.34C38.2157 12.916 38.0957 13.708 38.0957 14.716C38.0957 15.712 38.2157 16.504 38.4557 17.092C38.7917 17.908 39.3437 18.328 40.1117 18.328C40.8797 18.328 41.4317 17.908 41.7677 17.092C42.0077 16.504 42.1397 15.712 42.1397 14.716C42.1397 13.708 42.0077 12.916 41.7677 12.34C41.4317 11.512 40.8797 11.104 40.1117 11.104ZM47.307 10.264C48.327 10.264 49.095 10.708 49.623 11.62C50.079 12.388 50.307 13.42 50.307 14.716C50.307 16.012 50.079 17.044 49.623 17.812C49.095 18.712 48.327 19.168 47.307 19.168C46.275 19.168 45.507 18.712 44.991 17.812C44.535 17.044 44.307 16.012 44.307 14.716C44.307 13.42 44.535 12.388 44.991 11.62C45.507 10.708 46.275 10.264 47.307 10.264ZM47.307 11.104C46.539 11.104 45.987 11.512 45.651 12.34C45.411 12.916 45.291 13.708 45.291 14.716C45.291 15.712 45.411 16.504 45.651 17.092C45.987 17.908 46.539 18.328 47.307 18.328C48.075 18.328 48.627 17.908 48.963 17.092C49.203 16.504 49.335 15.712 49.335 14.716C49.335 13.708 49.203 12.916 48.963 12.34C48.627 11.512 48.075 11.104 47.307 11.104ZM54.5023 10.264C55.5223 10.264 56.2903 10.708 56.8183 11.62C57.2743 12.388 57.5023 13.42 57.5023 14.716C57.5023 16.012 57.2743 17.044 56.8183 17.812C56.2903 18.712 55.5223 19.168 54.5023 19.168C53.4703 19.168 52.7023 18.712 52.1863 17.812C51.7303 17.044 51.5023 16.012 51.5023 14.716C51.5023 13.42 51.7303 12.388 52.1863 11.62C52.7023 10.708 53.4703 10.264 54.5023 10.264ZM54.5023 11.104C53.7343 11.104 53.1823 11.512 52.8463 12.34C52.6063 12.916 52.4863 13.708 52.4863 14.716C52.4863 15.712 52.6063 16.504 52.8463 17.092C53.1823 17.908 53.7343 18.328 54.5023 18.328C55.2703 18.328 55.8223 17.908 56.1583 17.092C56.3983 16.504 56.5303 15.712 56.5303 14.716C56.5303 13.708 56.3983 12.916 56.1583 12.34C55.8223 11.512 55.2703 11.104 54.5023 11.104ZM61.3257 12.868H62.1417V15.484H64.7577V16.3H62.1417V18.928H61.3257V16.3H58.6977V15.484H61.3257V12.868Z" fill="#222222"/>
<mask id="path-6-inside-3_2_54394" fill="white">
<path d="M90 0H180V30H90V0Z"/>
</mask>
<path d="M180 0H179.5V30H180H180.5V0H180Z" fill="#CACACA" mask="url(#path-6-inside-3_2_54394)"/>
<path d="M131.1 10.264C131.988 10.264 132.696 10.492 133.2 10.96C133.656 11.38 133.896 11.908 133.896 12.532C133.896 12.988 133.788 13.372 133.572 13.684C133.332 14.02 132.996 14.272 132.552 14.428V14.452C132.996 14.56 133.38 14.812 133.692 15.196C134.028 15.604 134.196 16.084 134.196 16.636C134.196 17.392 133.932 18.004 133.404 18.46C132.852 18.928 132.084 19.168 131.1 19.168C130.104 19.168 129.336 18.928 128.796 18.46C128.268 18.004 128.004 17.392 128.004 16.636C128.004 16.084 128.172 15.604 128.508 15.196C128.82 14.812 129.192 14.56 129.648 14.452V14.428C129.192 14.272 128.856 14.02 128.628 13.684C128.412 13.372 128.304 12.988 128.304 12.532C128.304 11.908 128.532 11.38 129 10.96C129.504 10.492 130.2 10.264 131.1 10.264ZM131.1 11.068C130.488 11.068 130.008 11.224 129.672 11.536C129.372 11.8 129.228 12.148 129.228 12.568C129.228 13 129.36 13.36 129.624 13.624C129.936 13.936 130.428 14.104 131.1 14.104C131.76 14.104 132.252 13.936 132.576 13.624C132.84 13.36 132.972 13 132.972 12.568C132.972 12.148 132.816 11.8 132.528 11.536C132.18 11.224 131.7 11.068 131.1 11.068ZM131.1 14.872C130.404 14.872 129.876 15.04 129.504 15.388C129.144 15.7 128.976 16.12 128.976 16.636C128.976 17.14 129.144 17.56 129.504 17.872C129.864 18.196 130.404 18.364 131.1 18.364C131.796 18.364 132.324 18.196 132.708 17.86C133.044 17.548 133.224 17.14 133.224 16.636C133.224 16.12 133.044 15.7 132.708 15.388C132.324 15.04 131.784 14.872 131.1 14.872ZM138.295 10.264C139.183 10.264 139.891 10.492 140.395 10.96C140.851 11.38 141.091 11.908 141.091 12.532C141.091 12.988 140.983 13.372 140.767 13.684C140.527 14.02 140.191 14.272 139.747 14.428V14.452C140.191 14.56 140.575 14.812 140.887 15.196C141.223 15.604 141.391 16.084 141.391 16.636C141.391 17.392 141.127 18.004 140.599 18.46C140.047 18.928 139.279 19.168 138.295 19.168C137.299 19.168 136.531 18.928 135.991 18.46C135.463 18.004 135.199 17.392 135.199 16.636C135.199 16.084 135.367 15.604 135.703 15.196C136.015 14.812 136.387 14.56 136.843 14.452V14.428C136.387 14.272 136.051 14.02 135.823 13.684C135.607 13.372 135.499 12.988 135.499 12.532C135.499 11.908 135.727 11.38 136.195 10.96C136.699 10.492 137.395 10.264 138.295 10.264ZM138.295 11.068C137.683 11.068 137.203 11.224 136.867 11.536C136.567 11.8 136.423 12.148 136.423 12.568C136.423 13 136.555 13.36 136.819 13.624C137.131 13.936 137.623 14.104 138.295 14.104C138.955 14.104 139.447 13.936 139.771 13.624C140.035 13.36 140.167 13 140.167 12.568C140.167 12.148 140.011 11.8 139.723 11.536C139.375 11.224 138.895 11.068 138.295 11.068ZM138.295 14.872C137.599 14.872 137.071 15.04 136.699 15.388C136.339 15.7 136.171 16.12 136.171 16.636C136.171 17.14 136.339 17.56 136.699 17.872C137.059 18.196 137.599 18.364 138.295 18.364C138.991 18.364 139.519 18.196 139.903 17.86C140.239 17.548 140.419 17.14 140.419 16.636C140.419 16.12 140.239 15.7 139.903 15.388C139.519 15.04 138.979 14.872 138.295 14.872Z" fill="#222222"/>
<mask id="path-9-inside-4_2_54394" fill="white">
<path d="M0 30H180V60H0V30Z"/>
</mask>
<path d="M180 60V59.5H0V60V60.5H180V60Z" fill="#CACACA" mask="url(#path-9-inside-4_2_54394)"/>
<mask id="path-11-inside-5_2_54394" fill="white">
<path d="M0 30H90V60H0V30Z"/>
</mask>
<path d="M90 30H89.5V60H90H90.5V30H90Z" fill="#CACACA" mask="url(#path-11-inside-5_2_54394)"/>
<path d="M26.684 40.264C27.5 40.264 28.172 40.468 28.676 40.888C29.168 41.308 29.42 41.872 29.42 42.592C29.42 43.552 28.952 44.2 28.016 44.512C28.52 44.668 28.904 44.908 29.168 45.244C29.456 45.58 29.6 46 29.6 46.504C29.6 47.284 29.324 47.92 28.784 48.412C28.232 48.916 27.512 49.168 26.624 49.168C25.808 49.168 25.148 48.952 24.632 48.544C24.02 48.04 23.684 47.308 23.612 46.348H24.608C24.632 47.02 24.86 47.536 25.28 47.884C25.64 48.172 26.084 48.328 26.624 48.328C27.236 48.328 27.728 48.148 28.1 47.8C28.436 47.464 28.616 47.044 28.616 46.54C28.616 46.024 28.448 45.628 28.112 45.34C27.776 45.052 27.32 44.92 26.72 44.92H26.024V44.152H26.684C27.26 44.152 27.692 44.02 27.992 43.768C28.292 43.504 28.448 43.132 28.448 42.652C28.448 42.172 28.292 41.8 28.004 41.536C27.692 41.248 27.248 41.116 26.696 41.116C26.12 41.116 25.676 41.26 25.352 41.572C25.016 41.884 24.824 42.328 24.764 42.904H23.792C23.864 42.076 24.176 41.428 24.704 40.96C25.208 40.492 25.868 40.264 26.684 40.264ZM33.7953 40.264C34.8153 40.264 35.5833 40.708 36.1113 41.62C36.5673 42.388 36.7953 43.42 36.7953 44.716C36.7953 46.012 36.5673 47.044 36.1113 47.812C35.5833 48.712 34.8153 49.168 33.7953 49.168C32.7633 49.168 31.9953 48.712 31.4793 47.812C31.0233 47.044 30.7953 46.012 30.7953 44.716C30.7953 43.42 31.0233 42.388 31.4793 41.62C31.9953 40.708 32.7633 40.264 33.7953 40.264ZM33.7953 41.104C33.0273 41.104 32.4753 41.512 32.1393 42.34C31.8993 42.916 31.7793 43.708 31.7793 44.716C31.7793 45.712 31.8993 46.504 32.1393 47.092C32.4753 47.908 33.0273 48.328 33.7953 48.328C34.5633 48.328 35.1153 47.908 35.4513 47.092C35.6913 46.504 35.8233 45.712 35.8233 44.716C35.8233 43.708 35.6913 42.916 35.4513 42.34C35.1153 41.512 34.5633 41.104 33.7953 41.104ZM40.9906 40.264C42.0106 40.264 42.7786 40.708 43.3066 41.62C43.7626 42.388 43.9906 43.42 43.9906 44.716C43.9906 46.012 43.7626 47.044 43.3066 47.812C42.7786 48.712 42.0106 49.168 40.9906 49.168C39.9586 49.168 39.1906 48.712 38.6746 47.812C38.2186 47.044 37.9906 46.012 37.9906 44.716C37.9906 43.42 38.2186 42.388 38.6746 41.62C39.1906 40.708 39.9586 40.264 40.9906 40.264ZM40.9906 41.104C40.2226 41.104 39.6706 41.512 39.3346 42.34C39.0946 42.916 38.9746 43.708 38.9746 44.716C38.9746 45.712 39.0946 46.504 39.3346 47.092C39.6706 47.908 40.2226 48.328 40.9906 48.328C41.7586 48.328 42.3106 47.908 42.6466 47.092C42.8866 46.504 43.0186 45.712 43.0186 44.716C43.0186 43.708 42.8866 42.916 42.6466 42.34C42.3106 41.512 41.7586 41.104 40.9906 41.104ZM48.1859 40.264C49.2059 40.264 49.9739 40.708 50.5019 41.62C50.9579 42.388 51.1859 43.42 51.1859 44.716C51.1859 46.012 50.9579 47.044 50.5019 47.812C49.9739 48.712 49.2059 49.168 48.1859 49.168C47.1539 49.168 46.3859 48.712 45.8699 47.812C45.4139 47.044 45.1859 46.012 45.1859 44.716C45.1859 43.42 45.4139 42.388 45.8699 41.62C46.3859 40.708 47.1539 40.264 48.1859 40.264ZM48.1859 41.104C47.4179 41.104 46.8659 41.512 46.5299 42.34C46.2899 42.916 46.1699 43.708 46.1699 44.716C46.1699 45.712 46.2899 46.504 46.5299 47.092C46.8659 47.908 47.4179 48.328 48.1859 48.328C48.9539 48.328 49.5059 47.908 49.8419 47.092C50.0819 46.504 50.2139 45.712 50.2139 44.716C50.2139 43.708 50.0819 42.916 49.8419 42.34C49.5059 41.512 48.9539 41.104 48.1859 41.104ZM55.3813 40.264C56.4013 40.264 57.1693 40.708 57.6973 41.62C58.1533 42.388 58.3813 43.42 58.3813 44.716C58.3813 46.012 58.1533 47.044 57.6973 47.812C57.1693 48.712 56.4013 49.168 55.3813 49.168C54.3493 49.168 53.5813 48.712 53.0653 47.812C52.6093 47.044 52.3813 46.012 52.3813 44.716C52.3813 43.42 52.6093 42.388 53.0653 41.62C53.5813 40.708 54.3493 40.264 55.3813 40.264ZM55.3813 41.104C54.6133 41.104 54.0613 41.512 53.7253 42.34C53.4853 42.916 53.3652 43.708 53.3652 44.716C53.3652 45.712 53.4853 46.504 53.7253 47.092C54.0613 47.908 54.6133 48.328 55.3813 48.328C56.1493 48.328 56.7013 47.908 57.0373 47.092C57.2773 46.504 57.4093 45.712 57.4093 44.716C57.4093 43.708 57.2773 42.916 57.0373 42.34C56.7013 41.512 56.1493 41.104 55.3813 41.104ZM62.2046 42.868H63.0206V45.484H65.6366V46.3H63.0206V48.928H62.2046V46.3H59.5766V45.484H62.2046V42.868Z" fill="#222222"/>
<mask id="path-14-inside-6_2_54394" fill="white">
<path d="M90 30H180V60H90V30Z"/>
</mask>
<path d="M180 30H179.5V60H180H180.5V30H180Z" fill="#CACACA" mask="url(#path-14-inside-6_2_54394)"/>
<path d="M127.76 40.432H128.528V49H127.544V41.632C127.004 42.184 126.332 42.568 125.528 42.808V41.824C125.912 41.716 126.32 41.548 126.728 41.308C127.136 41.044 127.472 40.756 127.76 40.432ZM131.076 40.432H136.056V41.308H131.88L131.592 44.176H131.64C131.88 43.888 132.192 43.672 132.564 43.528C132.9 43.384 133.26 43.324 133.656 43.324C134.472 43.324 135.132 43.576 135.636 44.092C136.14 44.62 136.404 45.34 136.404 46.264C136.404 47.128 136.092 47.836 135.48 48.388C134.904 48.904 134.184 49.168 133.344 49.168C132.588 49.168 131.94 48.964 131.412 48.556C130.812 48.1 130.488 47.476 130.428 46.696H131.4C131.448 47.236 131.664 47.656 132.048 47.944C132.384 48.196 132.828 48.328 133.356 48.328C133.956 48.328 134.448 48.136 134.844 47.752C135.228 47.368 135.432 46.876 135.432 46.276C135.432 45.592 135.24 45.064 134.88 44.692C134.532 44.308 134.04 44.128 133.416 44.128C133.008 44.128 132.648 44.212 132.324 44.392C131.988 44.56 131.724 44.824 131.556 45.16H130.62L131.076 40.432ZM140.612 40.264C141.5 40.264 142.208 40.492 142.712 40.96C143.168 41.38 143.408 41.908 143.408 42.532C143.408 42.988 143.3 43.372 143.084 43.684C142.844 44.02 142.508 44.272 142.064 44.428V44.452C142.508 44.56 142.892 44.812 143.204 45.196C143.54 45.604 143.708 46.084 143.708 46.636C143.708 47.392 143.444 48.004 142.916 48.46C142.364 48.928 141.596 49.168 140.612 49.168C139.616 49.168 138.848 48.928 138.308 48.46C137.78 48.004 137.516 47.392 137.516 46.636C137.516 46.084 137.684 45.604 138.02 45.196C138.332 44.812 138.704 44.56 139.16 44.452V44.428C138.704 44.272 138.368 44.02 138.14 43.684C137.924 43.372 137.816 42.988 137.816 42.532C137.816 41.908 138.044 41.38 138.512 40.96C139.016 40.492 139.712 40.264 140.612 40.264ZM140.612 41.068C140 41.068 139.52 41.224 139.184 41.536C138.884 41.8 138.74 42.148 138.74 42.568C138.74 43 138.872 43.36 139.136 43.624C139.448 43.936 139.94 44.104 140.612 44.104C141.272 44.104 141.764 43.936 142.088 43.624C142.352 43.36 142.484 43 142.484 42.568C142.484 42.148 142.328 41.8 142.04 41.536C141.692 41.224 141.212 41.068 140.612 41.068ZM140.612 44.872C139.916 44.872 139.388 45.04 139.016 45.388C138.656 45.7 138.488 46.12 138.488 46.636C138.488 47.14 138.656 47.56 139.016 47.872C139.376 48.196 139.916 48.364 140.612 48.364C141.308 48.364 141.836 48.196 142.22 47.86C142.556 47.548 142.736 47.14 142.736 46.636C142.736 46.12 142.556 45.7 142.22 45.388C141.836 45.04 141.296 44.872 140.612 44.872Z" fill="#222222"/>
<mask id="path-17-inside-7_2_54394" fill="white">
<path d="M0 60H180V90H0V60Z"/>
</mask>
<path d="M180 90V89.5H0V90V90.5H180V90Z" fill="#CACACA" mask="url(#path-17-inside-7_2_54394)"/>
<mask id="path-19-inside-8_2_54394" fill="white">
<path d="M0 60H90V90H0V60Z"/>
</mask>
<path d="M90 60H89.5V90H90H90.5V60H90Z" fill="#CACACA" mask="url(#path-19-inside-8_2_54394)"/>
<path d="M24.26 70.432H29.24V71.308H25.064L24.776 74.176H24.824C25.064 73.888 25.376 73.672 25.748 73.528C26.084 73.384 26.444 73.324 26.84 73.324C27.656 73.324 28.316 73.576 28.82 74.092C29.324 74.62 29.588 75.34 29.588 76.264C29.588 77.128 29.276 77.836 28.664 78.388C28.088 78.904 27.368 79.168 26.528 79.168C25.772 79.168 25.124 78.964 24.596 78.556C23.996 78.1 23.672 77.476 23.612 76.696H24.584C24.632 77.236 24.848 77.656 25.232 77.944C25.568 78.196 26.012 78.328 26.54 78.328C27.14 78.328 27.632 78.136 28.028 77.752C28.412 77.368 28.616 76.876 28.616 76.276C28.616 75.592 28.424 75.064 28.064 74.692C27.716 74.308 27.224 74.128 26.6 74.128C26.192 74.128 25.832 74.212 25.508 74.392C25.172 74.56 24.908 74.824 24.74 75.16H23.804L24.26 70.432ZM33.7953 70.264C34.8153 70.264 35.5833 70.708 36.1113 71.62C36.5673 72.388 36.7953 73.42 36.7953 74.716C36.7953 76.012 36.5673 77.044 36.1113 77.812C35.5833 78.712 34.8153 79.168 33.7953 79.168C32.7633 79.168 31.9953 78.712 31.4793 77.812C31.0233 77.044 30.7953 76.012 30.7953 74.716C30.7953 73.42 31.0233 72.388 31.4793 71.62C31.9953 70.708 32.7633 70.264 33.7953 70.264ZM33.7953 71.104C33.0273 71.104 32.4753 71.512 32.1393 72.34C31.8993 72.916 31.7793 73.708 31.7793 74.716C31.7793 75.712 31.8993 76.504 32.1393 77.092C32.4753 77.908 33.0273 78.328 33.7953 78.328C34.5633 78.328 35.1153 77.908 35.4513 77.092C35.6913 76.504 35.8233 75.712 35.8233 74.716C35.8233 73.708 35.6913 72.916 35.4513 72.34C35.1153 71.512 34.5633 71.104 33.7953 71.104ZM40.9906 70.264C42.0106 70.264 42.7786 70.708 43.3066 71.62C43.7626 72.388 43.9906 73.42 43.9906 74.716C43.9906 76.012 43.7626 77.044 43.3066 77.812C42.7786 78.712 42.0106 79.168 40.9906 79.168C39.9586 79.168 39.1906 78.712 38.6746 77.812C38.2186 77.044 37.9906 76.012 37.9906 74.716C37.9906 73.42 38.2186 72.388 38.6746 71.62C39.1906 70.708 39.9586 70.264 40.9906 70.264ZM40.9906 71.104C40.2226 71.104 39.6706 71.512 39.3346 72.34C39.0946 72.916 38.9746 73.708 38.9746 74.716C38.9746 75.712 39.0946 76.504 39.3346 77.092C39.6706 77.908 40.2226 78.328 40.9906 78.328C41.7586 78.328 42.3106 77.908 42.6466 77.092C42.8866 76.504 43.0186 75.712 43.0186 74.716C43.0186 73.708 42.8866 72.916 42.6466 72.34C42.3106 71.512 41.7586 71.104 40.9906 71.104ZM48.1859 70.264C49.2059 70.264 49.9739 70.708 50.5019 71.62C50.9579 72.388 51.1859 73.42 51.1859 74.716C51.1859 76.012 50.9579 77.044 50.5019 77.812C49.9739 78.712 49.2059 79.168 48.1859 79.168C47.1539 79.168 46.3859 78.712 45.8699 77.812C45.4139 77.044 45.1859 76.012 45.1859 74.716C45.1859 73.42 45.4139 72.388 45.8699 71.62C46.3859 70.708 47.1539 70.264 48.1859 70.264ZM48.1859 71.104C47.4179 71.104 46.8659 71.512 46.5299 72.34C46.2899 72.916 46.1699 73.708 46.1699 74.716C46.1699 75.712 46.2899 76.504 46.5299 77.092C46.8659 77.908 47.4179 78.328 48.1859 78.328C48.9539 78.328 49.5059 77.908 49.8419 77.092C50.0819 76.504 50.2139 75.712 50.2139 74.716C50.2139 73.708 50.0819 72.916 49.8419 72.34C49.5059 71.512 48.9539 71.104 48.1859 71.104ZM55.3813 70.264C56.4013 70.264 57.1693 70.708 57.6973 71.62C58.1533 72.388 58.3813 73.42 58.3813 74.716C58.3813 76.012 58.1533 77.044 57.6973 77.812C57.1693 78.712 56.4013 79.168 55.3813 79.168C54.3493 79.168 53.5813 78.712 53.0653 77.812C52.6093 77.044 52.3813 76.012 52.3813 74.716C52.3813 73.42 52.6093 72.388 53.0653 71.62C53.5813 70.708 54.3493 70.264 55.3813 70.264ZM55.3813 71.104C54.6133 71.104 54.0613 71.512 53.7253 72.34C53.4853 72.916 53.3652 73.708 53.3652 74.716C53.3652 75.712 53.4853 76.504 53.7253 77.092C54.0613 77.908 54.6133 78.328 55.3813 78.328C56.1493 78.328 56.7013 77.908 57.0373 77.092C57.2773 76.504 57.4093 75.712 57.4093 74.716C57.4093 73.708 57.2773 72.916 57.0373 72.34C56.7013 71.512 56.1493 71.104 55.3813 71.104ZM62.2046 72.868H63.0206V75.484H65.6366V76.3H63.0206V78.928H62.2046V76.3H59.5766V75.484H62.2046V72.868Z" fill="#222222"/>
<mask id="path-22-inside-9_2_54394" fill="white">
<path d="M90 60H180V90H90V60Z"/>
</mask>
<path d="M180 60H179.5V90H180H180.5V60H180Z" fill="#CACACA" mask="url(#path-22-inside-9_2_54394)"/>
<path d="M127.684 70.264C128.5 70.264 129.172 70.468 129.676 70.888C130.168 71.308 130.42 71.872 130.42 72.592C130.42 73.552 129.952 74.2 129.016 74.512C129.52 74.668 129.904 74.908 130.168 75.244C130.456 75.58 130.6 76 130.6 76.504C130.6 77.284 130.324 77.92 129.784 78.412C129.232 78.916 128.512 79.168 127.624 79.168C126.808 79.168 126.148 78.952 125.632 78.544C125.02 78.04 124.684 77.308 124.612 76.348H125.608C125.632 77.02 125.86 77.536 126.28 77.884C126.64 78.172 127.084 78.328 127.624 78.328C128.236 78.328 128.728 78.148 129.1 77.8C129.436 77.464 129.616 77.044 129.616 76.54C129.616 76.024 129.448 75.628 129.112 75.34C128.776 75.052 128.32 74.92 127.72 74.92H127.024V74.152H127.684C128.26 74.152 128.692 74.02 128.992 73.768C129.292 73.504 129.448 73.132 129.448 72.652C129.448 72.172 129.292 71.8 129.004 71.536C128.692 71.248 128.248 71.116 127.696 71.116C127.12 71.116 126.676 71.26 126.352 71.572C126.016 71.884 125.824 72.328 125.764 72.904H124.792C124.864 72.076 125.176 71.428 125.704 70.96C126.208 70.492 126.868 70.264 127.684 70.264ZM134.795 70.264C135.683 70.264 136.391 70.492 136.895 70.96C137.351 71.38 137.591 71.908 137.591 72.532C137.591 72.988 137.483 73.372 137.267 73.684C137.027 74.02 136.691 74.272 136.247 74.428V74.452C136.691 74.56 137.075 74.812 137.387 75.196C137.723 75.604 137.891 76.084 137.891 76.636C137.891 77.392 137.627 78.004 137.099 78.46C136.547 78.928 135.779 79.168 134.795 79.168C133.799 79.168 133.031 78.928 132.491 78.46C131.963 78.004 131.699 77.392 131.699 76.636C131.699 76.084 131.867 75.604 132.203 75.196C132.515 74.812 132.887 74.56 133.343 74.452V74.428C132.887 74.272 132.551 74.02 132.323 73.684C132.107 73.372 131.999 72.988 131.999 72.532C131.999 71.908 132.227 71.38 132.695 70.96C133.199 70.492 133.895 70.264 134.795 70.264ZM134.795 71.068C134.183 71.068 133.703 71.224 133.367 71.536C133.067 71.8 132.923 72.148 132.923 72.568C132.923 73 133.055 73.36 133.319 73.624C133.631 73.936 134.123 74.104 134.795 74.104C135.455 74.104 135.947 73.936 136.271 73.624C136.535 73.36 136.667 73 136.667 72.568C136.667 72.148 136.511 71.8 136.223 71.536C135.875 71.224 135.395 71.068 134.795 71.068ZM134.795 74.872C134.099 74.872 133.571 75.04 133.199 75.388C132.839 75.7 132.671 76.12 132.671 76.636C132.671 77.14 132.839 77.56 133.199 77.872C133.559 78.196 134.099 78.364 134.795 78.364C135.491 78.364 136.019 78.196 136.403 77.86C136.739 77.548 136.919 77.14 136.919 76.636C136.919 76.12 136.739 75.7 136.403 75.388C136.019 75.04 135.479 74.872 134.795 74.872ZM141.991 70.264C142.879 70.264 143.587 70.492 144.091 70.96C144.547 71.38 144.787 71.908 144.787 72.532C144.787 72.988 144.679 73.372 144.463 73.684C144.223 74.02 143.887 74.272 143.443 74.428V74.452C143.887 74.56 144.271 74.812 144.583 75.196C144.919 75.604 145.087 76.084 145.087 76.636C145.087 77.392 144.823 78.004 144.295 78.46C143.743 78.928 142.975 79.168 141.991 79.168C140.995 79.168 140.227 78.928 139.687 78.46C139.159 78.004 138.895 77.392 138.895 76.636C138.895 76.084 139.063 75.604 139.399 75.196C139.711 74.812 140.083 74.56 140.539 74.452V74.428C140.083 74.272 139.747 74.02 139.519 73.684C139.303 73.372 139.195 72.988 139.195 72.532C139.195 71.908 139.423 71.38 139.891 70.96C140.395 70.492 141.091 70.264 141.991 70.264ZM141.991 71.068C141.379 71.068 140.899 71.224 140.563 71.536C140.263 71.8 140.119 72.148 140.119 72.568C140.119 73 140.251 73.36 140.515 73.624C140.827 73.936 141.319 74.104 141.991 74.104C142.651 74.104 143.143 73.936 143.467 73.624C143.731 73.36 143.863 73 143.863 72.568C143.863 72.148 143.707 71.8 143.419 71.536C143.071 71.224 142.591 71.068 141.991 71.068ZM141.991 74.872C141.295 74.872 140.767 75.04 140.395 75.388C140.035 75.7 139.867 76.12 139.867 76.636C139.867 77.14 140.035 77.56 140.395 77.872C140.755 78.196 141.295 78.364 141.991 78.364C142.687 78.364 143.215 78.196 143.599 77.86C143.935 77.548 144.115 77.14 144.115 76.636C144.115 76.12 143.935 75.7 143.599 75.388C143.215 75.04 142.675 74.872 141.991 74.872Z" fill="#222222"/>
</svg>
