<svg width="180" height="90" viewBox="0 0 180 90" fill="none" xmlns="http://www.w3.org/2000/svg">
<mask id="path-1-inside-1_2_40630" fill="white">
<path d="M0 0H180V30H0V0Z"/>
</mask>
<path d="M180 30V29.5H0V30V30.5H180V30Z" fill="#CACACA" mask="url(#path-1-inside-1_2_40630)"/>
<mask id="path-3-inside-2_2_40630" fill="white">
<path d="M0 0H90V30H0V0Z"/>
</mask>
<path d="M90 0H89.5V30H90H90.5V0H90Z" fill="#CACACA" mask="url(#path-3-inside-2_2_40630)"/>
<path d="M26.684 10.264C27.5 10.264 28.172 10.468 28.676 10.888C29.168 11.308 29.42 11.872 29.42 12.592C29.42 13.552 28.952 14.2 28.016 14.512C28.52 14.668 28.904 14.908 29.168 15.244C29.456 15.58 29.6 16 29.6 16.504C29.6 17.284 29.324 17.92 28.784 18.412C28.232 18.916 27.512 19.168 26.624 19.168C25.808 19.168 25.148 18.952 24.632 18.544C24.02 18.04 23.684 17.308 23.612 16.348H24.608C24.632 17.02 24.86 17.536 25.28 17.884C25.64 18.172 26.084 18.328 26.624 18.328C27.236 18.328 27.728 18.148 28.1 17.8C28.436 17.464 28.616 17.044 28.616 16.54C28.616 16.024 28.448 15.628 28.112 15.34C27.776 15.052 27.32 14.92 26.72 14.92H26.024V14.152H26.684C27.26 14.152 27.692 14.02 27.992 13.768C28.292 13.504 28.448 13.132 28.448 12.652C28.448 12.172 28.292 11.8 28.004 11.536C27.692 11.248 27.248 11.116 26.696 11.116C26.12 11.116 25.676 11.26 25.352 11.572C25.016 11.884 24.824 12.328 24.764 12.904H23.792C23.864 12.076 24.176 11.428 24.704 10.96C25.208 10.492 25.868 10.264 26.684 10.264ZM33.7953 10.264C34.8153 10.264 35.5833 10.708 36.1113 11.62C36.5673 12.388 36.7953 13.42 36.7953 14.716C36.7953 16.012 36.5673 17.044 36.1113 17.812C35.5833 18.712 34.8153 19.168 33.7953 19.168C32.7633 19.168 31.9953 18.712 31.4793 17.812C31.0233 17.044 30.7953 16.012 30.7953 14.716C30.7953 13.42 31.0233 12.388 31.4793 11.62C31.9953 10.708 32.7633 10.264 33.7953 10.264ZM33.7953 11.104C33.0273 11.104 32.4753 11.512 32.1393 12.34C31.8993 12.916 31.7793 13.708 31.7793 14.716C31.7793 15.712 31.8993 16.504 32.1393 17.092C32.4753 17.908 33.0273 18.328 33.7953 18.328C34.5633 18.328 35.1153 17.908 35.4513 17.092C35.6913 16.504 35.8233 15.712 35.8233 14.716C35.8233 13.708 35.6913 12.916 35.4513 12.34C35.1153 11.512 34.5633 11.104 33.7953 11.104ZM40.9906 10.264C42.0106 10.264 42.7786 10.708 43.3066 11.62C43.7626 12.388 43.9906 13.42 43.9906 14.716C43.9906 16.012 43.7626 17.044 43.3066 17.812C42.7786 18.712 42.0106 19.168 40.9906 19.168C39.9586 19.168 39.1906 18.712 38.6746 17.812C38.2186 17.044 37.9906 16.012 37.9906 14.716C37.9906 13.42 38.2186 12.388 38.6746 11.62C39.1906 10.708 39.9586 10.264 40.9906 10.264ZM40.9906 11.104C40.2226 11.104 39.6706 11.512 39.3346 12.34C39.0946 12.916 38.9746 13.708 38.9746 14.716C38.9746 15.712 39.0946 16.504 39.3346 17.092C39.6706 17.908 40.2226 18.328 40.9906 18.328C41.7586 18.328 42.3106 17.908 42.6466 17.092C42.8866 16.504 43.0186 15.712 43.0186 14.716C43.0186 13.708 42.8866 12.916 42.6466 12.34C42.3106 11.512 41.7586 11.104 40.9906 11.104ZM48.1859 10.264C49.2059 10.264 49.9739 10.708 50.5019 11.62C50.9579 12.388 51.1859 13.42 51.1859 14.716C51.1859 16.012 50.9579 17.044 50.5019 17.812C49.9739 18.712 49.2059 19.168 48.1859 19.168C47.1539 19.168 46.3859 18.712 45.8699 17.812C45.4139 17.044 45.1859 16.012 45.1859 14.716C45.1859 13.42 45.4139 12.388 45.8699 11.62C46.3859 10.708 47.1539 10.264 48.1859 10.264ZM48.1859 11.104C47.4179 11.104 46.8659 11.512 46.5299 12.34C46.2899 12.916 46.1699 13.708 46.1699 14.716C46.1699 15.712 46.2899 16.504 46.5299 17.092C46.8659 17.908 47.4179 18.328 48.1859 18.328C48.9539 18.328 49.5059 17.908 49.8419 17.092C50.0819 16.504 50.2139 15.712 50.2139 14.716C50.2139 13.708 50.0819 12.916 49.8419 12.34C49.5059 11.512 48.9539 11.104 48.1859 11.104ZM55.3813 10.264C56.4013 10.264 57.1693 10.708 57.6973 11.62C58.1533 12.388 58.3813 13.42 58.3813 14.716C58.3813 16.012 58.1533 17.044 57.6973 17.812C57.1693 18.712 56.4013 19.168 55.3813 19.168C54.3493 19.168 53.5813 18.712 53.0653 17.812C52.6093 17.044 52.3813 16.012 52.3813 14.716C52.3813 13.42 52.6093 12.388 53.0653 11.62C53.5813 10.708 54.3493 10.264 55.3813 10.264ZM55.3813 11.104C54.6133 11.104 54.0613 11.512 53.7253 12.34C53.4853 12.916 53.3652 13.708 53.3652 14.716C53.3652 15.712 53.4853 16.504 53.7253 17.092C54.0613 17.908 54.6133 18.328 55.3813 18.328C56.1493 18.328 56.7013 17.908 57.0373 17.092C57.2773 16.504 57.4093 15.712 57.4093 14.716C57.4093 13.708 57.2773 12.916 57.0373 12.34C56.7013 11.512 56.1493 11.104 55.3813 11.104ZM62.2046 12.868H63.0206V15.484H65.6366V16.3H63.0206V18.928H62.2046V16.3H59.5766V15.484H62.2046V12.868Z" fill="#222222"/>
<mask id="path-6-inside-3_2_40630" fill="white">
<path d="M90 0H180V30H90V0Z"/>
</mask>
<path d="M180 0H179.5V30H180H180.5V0H180Z" fill="#CACACA" mask="url(#path-6-inside-3_2_40630)"/>
<path d="M127.72 10.264C128.512 10.264 129.16 10.492 129.676 10.948C130.18 11.404 130.444 12.016 130.444 12.76C130.444 13.504 130.156 14.176 129.604 14.776C129.304 15.088 128.716 15.556 127.828 16.156C126.736 16.888 126.112 17.548 125.956 18.124H130.456V19H124.744C124.744 18.22 125.02 17.512 125.596 16.876C125.932 16.492 126.544 15.976 127.456 15.352C128.128 14.872 128.572 14.524 128.8 14.284C129.232 13.816 129.46 13.3 129.46 12.748C129.46 12.22 129.304 11.824 128.992 11.536C128.68 11.248 128.236 11.104 127.684 11.104C127.096 11.104 126.64 11.296 126.328 11.704C125.992 12.088 125.812 12.664 125.8 13.42H124.816C124.816 12.46 125.092 11.692 125.62 11.128C126.148 10.552 126.856 10.264 127.72 10.264ZM134.795 10.264C135.683 10.264 136.391 10.492 136.895 10.96C137.351 11.38 137.591 11.908 137.591 12.532C137.591 12.988 137.483 13.372 137.267 13.684C137.027 14.02 136.691 14.272 136.247 14.428V14.452C136.691 14.56 137.075 14.812 137.387 15.196C137.723 15.604 137.891 16.084 137.891 16.636C137.891 17.392 137.627 18.004 137.099 18.46C136.547 18.928 135.779 19.168 134.795 19.168C133.799 19.168 133.031 18.928 132.491 18.46C131.963 18.004 131.699 17.392 131.699 16.636C131.699 16.084 131.867 15.604 132.203 15.196C132.515 14.812 132.887 14.56 133.343 14.452V14.428C132.887 14.272 132.551 14.02 132.323 13.684C132.107 13.372 131.999 12.988 131.999 12.532C131.999 11.908 132.227 11.38 132.695 10.96C133.199 10.492 133.895 10.264 134.795 10.264ZM134.795 11.068C134.183 11.068 133.703 11.224 133.367 11.536C133.067 11.8 132.923 12.148 132.923 12.568C132.923 13 133.055 13.36 133.319 13.624C133.631 13.936 134.123 14.104 134.795 14.104C135.455 14.104 135.947 13.936 136.271 13.624C136.535 13.36 136.667 13 136.667 12.568C136.667 12.148 136.511 11.8 136.223 11.536C135.875 11.224 135.395 11.068 134.795 11.068ZM134.795 14.872C134.099 14.872 133.571 15.04 133.199 15.388C132.839 15.7 132.671 16.12 132.671 16.636C132.671 17.14 132.839 17.56 133.199 17.872C133.559 18.196 134.099 18.364 134.795 18.364C135.491 18.364 136.019 18.196 136.403 17.86C136.739 17.548 136.919 17.14 136.919 16.636C136.919 16.12 136.739 15.7 136.403 15.388C136.019 15.04 135.479 14.872 134.795 14.872ZM141.991 10.264C142.879 10.264 143.587 10.492 144.091 10.96C144.547 11.38 144.787 11.908 144.787 12.532C144.787 12.988 144.679 13.372 144.463 13.684C144.223 14.02 143.887 14.272 143.443 14.428V14.452C143.887 14.56 144.271 14.812 144.583 15.196C144.919 15.604 145.087 16.084 145.087 16.636C145.087 17.392 144.823 18.004 144.295 18.46C143.743 18.928 142.975 19.168 141.991 19.168C140.995 19.168 140.227 18.928 139.687 18.46C139.159 18.004 138.895 17.392 138.895 16.636C138.895 16.084 139.063 15.604 139.399 15.196C139.711 14.812 140.083 14.56 140.539 14.452V14.428C140.083 14.272 139.747 14.02 139.519 13.684C139.303 13.372 139.195 12.988 139.195 12.532C139.195 11.908 139.423 11.38 139.891 10.96C140.395 10.492 141.091 10.264 141.991 10.264ZM141.991 11.068C141.379 11.068 140.899 11.224 140.563 11.536C140.263 11.8 140.119 12.148 140.119 12.568C140.119 13 140.251 13.36 140.515 13.624C140.827 13.936 141.319 14.104 141.991 14.104C142.651 14.104 143.143 13.936 143.467 13.624C143.731 13.36 143.863 13 143.863 12.568C143.863 12.148 143.707 11.8 143.419 11.536C143.071 11.224 142.591 11.068 141.991 11.068ZM141.991 14.872C141.295 14.872 140.767 15.04 140.395 15.388C140.035 15.7 139.867 16.12 139.867 16.636C139.867 17.14 140.035 17.56 140.395 17.872C140.755 18.196 141.295 18.364 141.991 18.364C142.687 18.364 143.215 18.196 143.599 17.86C143.935 17.548 144.115 17.14 144.115 16.636C144.115 16.12 143.935 15.7 143.599 15.388C143.215 15.04 142.675 14.872 141.991 14.872Z" fill="#222222"/>
<mask id="path-9-inside-4_2_40630" fill="white">
<path d="M0 30H180V60H0V30Z"/>
</mask>
<path d="M180 60V59.5H0V60V60.5H180V60Z" fill="#CACACA" mask="url(#path-9-inside-4_2_40630)"/>
<mask id="path-11-inside-5_2_40630" fill="white">
<path d="M0 30H90V60H0V30Z"/>
</mask>
<path d="M90 30H89.5V60H90H90.5V30H90Z" fill="#CACACA" mask="url(#path-11-inside-5_2_40630)"/>
<path d="M24.26 40.432H29.24V41.308H25.064L24.776 44.176H24.824C25.064 43.888 25.376 43.672 25.748 43.528C26.084 43.384 26.444 43.324 26.84 43.324C27.656 43.324 28.316 43.576 28.82 44.092C29.324 44.62 29.588 45.34 29.588 46.264C29.588 47.128 29.276 47.836 28.664 48.388C28.088 48.904 27.368 49.168 26.528 49.168C25.772 49.168 25.124 48.964 24.596 48.556C23.996 48.1 23.672 47.476 23.612 46.696H24.584C24.632 47.236 24.848 47.656 25.232 47.944C25.568 48.196 26.012 48.328 26.54 48.328C27.14 48.328 27.632 48.136 28.028 47.752C28.412 47.368 28.616 46.876 28.616 46.276C28.616 45.592 28.424 45.064 28.064 44.692C27.716 44.308 27.224 44.128 26.6 44.128C26.192 44.128 25.832 44.212 25.508 44.392C25.172 44.56 24.908 44.824 24.74 45.16H23.804L24.26 40.432ZM33.7953 40.264C34.8153 40.264 35.5833 40.708 36.1113 41.62C36.5673 42.388 36.7953 43.42 36.7953 44.716C36.7953 46.012 36.5673 47.044 36.1113 47.812C35.5833 48.712 34.8153 49.168 33.7953 49.168C32.7633 49.168 31.9953 48.712 31.4793 47.812C31.0233 47.044 30.7953 46.012 30.7953 44.716C30.7953 43.42 31.0233 42.388 31.4793 41.62C31.9953 40.708 32.7633 40.264 33.7953 40.264ZM33.7953 41.104C33.0273 41.104 32.4753 41.512 32.1393 42.34C31.8993 42.916 31.7793 43.708 31.7793 44.716C31.7793 45.712 31.8993 46.504 32.1393 47.092C32.4753 47.908 33.0273 48.328 33.7953 48.328C34.5633 48.328 35.1153 47.908 35.4513 47.092C35.6913 46.504 35.8233 45.712 35.8233 44.716C35.8233 43.708 35.6913 42.916 35.4513 42.34C35.1153 41.512 34.5633 41.104 33.7953 41.104ZM40.9906 40.264C42.0106 40.264 42.7786 40.708 43.3066 41.62C43.7626 42.388 43.9906 43.42 43.9906 44.716C43.9906 46.012 43.7626 47.044 43.3066 47.812C42.7786 48.712 42.0106 49.168 40.9906 49.168C39.9586 49.168 39.1906 48.712 38.6746 47.812C38.2186 47.044 37.9906 46.012 37.9906 44.716C37.9906 43.42 38.2186 42.388 38.6746 41.62C39.1906 40.708 39.9586 40.264 40.9906 40.264ZM40.9906 41.104C40.2226 41.104 39.6706 41.512 39.3346 42.34C39.0946 42.916 38.9746 43.708 38.9746 44.716C38.9746 45.712 39.0946 46.504 39.3346 47.092C39.6706 47.908 40.2226 48.328 40.9906 48.328C41.7586 48.328 42.3106 47.908 42.6466 47.092C42.8866 46.504 43.0186 45.712 43.0186 44.716C43.0186 43.708 42.8866 42.916 42.6466 42.34C42.3106 41.512 41.7586 41.104 40.9906 41.104ZM48.1859 40.264C49.2059 40.264 49.9739 40.708 50.5019 41.62C50.9579 42.388 51.1859 43.42 51.1859 44.716C51.1859 46.012 50.9579 47.044 50.5019 47.812C49.9739 48.712 49.2059 49.168 48.1859 49.168C47.1539 49.168 46.3859 48.712 45.8699 47.812C45.4139 47.044 45.1859 46.012 45.1859 44.716C45.1859 43.42 45.4139 42.388 45.8699 41.62C46.3859 40.708 47.1539 40.264 48.1859 40.264ZM48.1859 41.104C47.4179 41.104 46.8659 41.512 46.5299 42.34C46.2899 42.916 46.1699 43.708 46.1699 44.716C46.1699 45.712 46.2899 46.504 46.5299 47.092C46.8659 47.908 47.4179 48.328 48.1859 48.328C48.9539 48.328 49.5059 47.908 49.8419 47.092C50.0819 46.504 50.2139 45.712 50.2139 44.716C50.2139 43.708 50.0819 42.916 49.8419 42.34C49.5059 41.512 48.9539 41.104 48.1859 41.104ZM55.3813 40.264C56.4013 40.264 57.1693 40.708 57.6973 41.62C58.1533 42.388 58.3813 43.42 58.3813 44.716C58.3813 46.012 58.1533 47.044 57.6973 47.812C57.1693 48.712 56.4013 49.168 55.3813 49.168C54.3493 49.168 53.5813 48.712 53.0653 47.812C52.6093 47.044 52.3813 46.012 52.3813 44.716C52.3813 43.42 52.6093 42.388 53.0653 41.62C53.5813 40.708 54.3493 40.264 55.3813 40.264ZM55.3813 41.104C54.6133 41.104 54.0613 41.512 53.7253 42.34C53.4853 42.916 53.3652 43.708 53.3652 44.716C53.3652 45.712 53.4853 46.504 53.7253 47.092C54.0613 47.908 54.6133 48.328 55.3813 48.328C56.1493 48.328 56.7013 47.908 57.0373 47.092C57.2773 46.504 57.4093 45.712 57.4093 44.716C57.4093 43.708 57.2773 42.916 57.0373 42.34C56.7013 41.512 56.1493 41.104 55.3813 41.104ZM62.2046 42.868H63.0206V45.484H65.6366V46.3H63.0206V48.928H62.2046V46.3H59.5766V45.484H62.2046V42.868Z" fill="#222222"/>
<mask id="path-14-inside-6_2_40630" fill="white">
<path d="M90 30H180V60H90V30Z"/>
</mask>
<path d="M180 30H179.5V60H180H180.5V30H180Z" fill="#CACACA" mask="url(#path-14-inside-6_2_40630)"/>
<path d="M125.26 40.432H130.24V41.308H126.064L125.776 44.176H125.824C126.064 43.888 126.376 43.672 126.748 43.528C127.084 43.384 127.444 43.324 127.84 43.324C128.656 43.324 129.316 43.576 129.82 44.092C130.324 44.62 130.588 45.34 130.588 46.264C130.588 47.128 130.276 47.836 129.664 48.388C129.088 48.904 128.368 49.168 127.528 49.168C126.772 49.168 126.124 48.964 125.596 48.556C124.996 48.1 124.672 47.476 124.612 46.696H125.584C125.632 47.236 125.848 47.656 126.232 47.944C126.568 48.196 127.012 48.328 127.54 48.328C128.14 48.328 128.632 48.136 129.028 47.752C129.412 47.368 129.616 46.876 129.616 46.276C129.616 45.592 129.424 45.064 129.064 44.692C128.716 44.308 128.224 44.128 127.6 44.128C127.192 44.128 126.832 44.212 126.508 44.392C126.172 44.56 125.908 44.824 125.74 45.16H124.804L125.26 40.432ZM134.795 40.264C135.683 40.264 136.391 40.492 136.895 40.96C137.351 41.38 137.591 41.908 137.591 42.532C137.591 42.988 137.483 43.372 137.267 43.684C137.027 44.02 136.691 44.272 136.247 44.428V44.452C136.691 44.56 137.075 44.812 137.387 45.196C137.723 45.604 137.891 46.084 137.891 46.636C137.891 47.392 137.627 48.004 137.099 48.46C136.547 48.928 135.779 49.168 134.795 49.168C133.799 49.168 133.031 48.928 132.491 48.46C131.963 48.004 131.699 47.392 131.699 46.636C131.699 46.084 131.867 45.604 132.203 45.196C132.515 44.812 132.887 44.56 133.343 44.452V44.428C132.887 44.272 132.551 44.02 132.323 43.684C132.107 43.372 131.999 42.988 131.999 42.532C131.999 41.908 132.227 41.38 132.695 40.96C133.199 40.492 133.895 40.264 134.795 40.264ZM134.795 41.068C134.183 41.068 133.703 41.224 133.367 41.536C133.067 41.8 132.923 42.148 132.923 42.568C132.923 43 133.055 43.36 133.319 43.624C133.631 43.936 134.123 44.104 134.795 44.104C135.455 44.104 135.947 43.936 136.271 43.624C136.535 43.36 136.667 43 136.667 42.568C136.667 42.148 136.511 41.8 136.223 41.536C135.875 41.224 135.395 41.068 134.795 41.068ZM134.795 44.872C134.099 44.872 133.571 45.04 133.199 45.388C132.839 45.7 132.671 46.12 132.671 46.636C132.671 47.14 132.839 47.56 133.199 47.872C133.559 48.196 134.099 48.364 134.795 48.364C135.491 48.364 136.019 48.196 136.403 47.86C136.739 47.548 136.919 47.14 136.919 46.636C136.919 46.12 136.739 45.7 136.403 45.388C136.019 45.04 135.479 44.872 134.795 44.872ZM141.991 40.264C142.879 40.264 143.587 40.492 144.091 40.96C144.547 41.38 144.787 41.908 144.787 42.532C144.787 42.988 144.679 43.372 144.463 43.684C144.223 44.02 143.887 44.272 143.443 44.428V44.452C143.887 44.56 144.271 44.812 144.583 45.196C144.919 45.604 145.087 46.084 145.087 46.636C145.087 47.392 144.823 48.004 144.295 48.46C143.743 48.928 142.975 49.168 141.991 49.168C140.995 49.168 140.227 48.928 139.687 48.46C139.159 48.004 138.895 47.392 138.895 46.636C138.895 46.084 139.063 45.604 139.399 45.196C139.711 44.812 140.083 44.56 140.539 44.452V44.428C140.083 44.272 139.747 44.02 139.519 43.684C139.303 43.372 139.195 42.988 139.195 42.532C139.195 41.908 139.423 41.38 139.891 40.96C140.395 40.492 141.091 40.264 141.991 40.264ZM141.991 41.068C141.379 41.068 140.899 41.224 140.563 41.536C140.263 41.8 140.119 42.148 140.119 42.568C140.119 43 140.251 43.36 140.515 43.624C140.827 43.936 141.319 44.104 141.991 44.104C142.651 44.104 143.143 43.936 143.467 43.624C143.731 43.36 143.863 43 143.863 42.568C143.863 42.148 143.707 41.8 143.419 41.536C143.071 41.224 142.591 41.068 141.991 41.068ZM141.991 44.872C141.295 44.872 140.767 45.04 140.395 45.388C140.035 45.7 139.867 46.12 139.867 46.636C139.867 47.14 140.035 47.56 140.395 47.872C140.755 48.196 141.295 48.364 141.991 48.364C142.687 48.364 143.215 48.196 143.599 47.86C143.935 47.548 144.115 47.14 144.115 46.636C144.115 46.12 143.935 45.7 143.599 45.388C143.215 45.04 142.675 44.872 141.991 44.872Z" fill="#222222"/>
<mask id="path-17-inside-7_2_40630" fill="white">
<path d="M0 60H180V90H0V60Z"/>
</mask>
<path d="M180 90V89.5H0V90V90.5H180V90Z" fill="#CACACA" mask="url(#path-17-inside-7_2_40630)"/>
<mask id="path-19-inside-8_2_40630" fill="white">
<path d="M0 60H90V90H0V60Z"/>
</mask>
<path d="M90 60H89.5V90H90H90.5V60H90Z" fill="#CACACA" mask="url(#path-19-inside-8_2_40630)"/>
<path d="M23.26 70.432H24.028V79H23.044V71.632C22.504 72.184 21.832 72.568 21.028 72.808V71.824C21.412 71.716 21.82 71.548 22.228 71.308C22.636 71.044 22.972 70.756 23.26 70.432ZM26.5764 70.432H31.5564V71.308H27.3804L27.0924 74.176H27.1404C27.3804 73.888 27.6924 73.672 28.0644 73.528C28.4004 73.384 28.7604 73.324 29.1564 73.324C29.9724 73.324 30.6324 73.576 31.1364 74.092C31.6404 74.62 31.9044 75.34 31.9044 76.264C31.9044 77.128 31.5924 77.836 30.9804 78.388C30.4044 78.904 29.6844 79.168 28.8444 79.168C28.0884 79.168 27.4404 78.964 26.9124 78.556C26.3124 78.1 25.9884 77.476 25.9284 76.696H26.9004C26.9484 77.236 27.1644 77.656 27.5484 77.944C27.8844 78.196 28.3284 78.328 28.8564 78.328C29.4564 78.328 29.9484 78.136 30.3444 77.752C30.7284 77.368 30.9324 76.876 30.9324 76.276C30.9324 75.592 30.7404 75.064 30.3804 74.692C30.0324 74.308 29.5404 74.128 28.9164 74.128C28.5084 74.128 28.1484 74.212 27.8244 74.392C27.4884 74.56 27.2244 74.824 27.0564 75.16H26.1204L26.5764 70.432ZM36.1117 70.264C37.1317 70.264 37.8997 70.708 38.4277 71.62C38.8837 72.388 39.1117 73.42 39.1117 74.716C39.1117 76.012 38.8837 77.044 38.4277 77.812C37.8997 78.712 37.1317 79.168 36.1117 79.168C35.0797 79.168 34.3117 78.712 33.7957 77.812C33.3397 77.044 33.1117 76.012 33.1117 74.716C33.1117 73.42 33.3397 72.388 33.7957 71.62C34.3117 70.708 35.0797 70.264 36.1117 70.264ZM36.1117 71.104C35.3437 71.104 34.7917 71.512 34.4557 72.34C34.2157 72.916 34.0957 73.708 34.0957 74.716C34.0957 75.712 34.2157 76.504 34.4557 77.092C34.7917 77.908 35.3437 78.328 36.1117 78.328C36.8797 78.328 37.4317 77.908 37.7677 77.092C38.0077 76.504 38.1397 75.712 38.1397 74.716C38.1397 73.708 38.0077 72.916 37.7677 72.34C37.4317 71.512 36.8797 71.104 36.1117 71.104ZM43.307 70.264C44.327 70.264 45.095 70.708 45.623 71.62C46.079 72.388 46.307 73.42 46.307 74.716C46.307 76.012 46.079 77.044 45.623 77.812C45.095 78.712 44.327 79.168 43.307 79.168C42.275 79.168 41.507 78.712 40.991 77.812C40.535 77.044 40.307 76.012 40.307 74.716C40.307 73.42 40.535 72.388 40.991 71.62C41.507 70.708 42.275 70.264 43.307 70.264ZM43.307 71.104C42.539 71.104 41.987 71.512 41.651 72.34C41.411 72.916 41.291 73.708 41.291 74.716C41.291 75.712 41.411 76.504 41.651 77.092C41.987 77.908 42.539 78.328 43.307 78.328C44.075 78.328 44.627 77.908 44.963 77.092C45.203 76.504 45.335 75.712 45.335 74.716C45.335 73.708 45.203 72.916 44.963 72.34C44.627 71.512 44.075 71.104 43.307 71.104ZM50.5023 70.264C51.5223 70.264 52.2903 70.708 52.8183 71.62C53.2743 72.388 53.5023 73.42 53.5023 74.716C53.5023 76.012 53.2743 77.044 52.8183 77.812C52.2903 78.712 51.5223 79.168 50.5023 79.168C49.4703 79.168 48.7023 78.712 48.1863 77.812C47.7303 77.044 47.5023 76.012 47.5023 74.716C47.5023 73.42 47.7303 72.388 48.1863 71.62C48.7023 70.708 49.4703 70.264 50.5023 70.264ZM50.5023 71.104C49.7343 71.104 49.1823 71.512 48.8463 72.34C48.6063 72.916 48.4863 73.708 48.4863 74.716C48.4863 75.712 48.6063 76.504 48.8463 77.092C49.1823 77.908 49.7343 78.328 50.5023 78.328C51.2703 78.328 51.8223 77.908 52.1583 77.092C52.3983 76.504 52.5303 75.712 52.5303 74.716C52.5303 73.708 52.3983 72.916 52.1583 72.34C51.8223 71.512 51.2703 71.104 50.5023 71.104ZM57.6977 70.264C58.7177 70.264 59.4857 70.708 60.0137 71.62C60.4697 72.388 60.6977 73.42 60.6977 74.716C60.6977 76.012 60.4697 77.044 60.0137 77.812C59.4857 78.712 58.7177 79.168 57.6977 79.168C56.6657 79.168 55.8977 78.712 55.3817 77.812C54.9257 77.044 54.6977 76.012 54.6977 74.716C54.6977 73.42 54.9257 72.388 55.3817 71.62C55.8977 70.708 56.6657 70.264 57.6977 70.264ZM57.6977 71.104C56.9297 71.104 56.3777 71.512 56.0417 72.34C55.8017 72.916 55.6817 73.708 55.6817 74.716C55.6817 75.712 55.8017 76.504 56.0417 77.092C56.3777 77.908 56.9297 78.328 57.6977 78.328C58.4657 78.328 59.0177 77.908 59.3537 77.092C59.5937 76.504 59.7257 75.712 59.7257 74.716C59.7257 73.708 59.5937 72.916 59.3537 72.34C59.0177 71.512 58.4657 71.104 57.6977 71.104ZM64.521 72.868H65.337V75.484H67.953V76.3H65.337V78.928H64.521V76.3H61.893V75.484H64.521V72.868Z" fill="#222222"/>
<mask id="path-22-inside-9_2_40630" fill="white">
<path d="M90 60H180V90H90V60Z"/>
</mask>
<path d="M180 60H179.5V90H180H180.5V60H180Z" fill="#CACACA" mask="url(#path-22-inside-9_2_40630)"/>
<path d="M124.26 70.432H125.028V79H124.044V71.632C123.504 72.184 122.832 72.568 122.028 72.808V71.824C122.412 71.716 122.82 71.548 123.228 71.308C123.636 71.044 123.972 70.756 124.26 70.432ZM130.036 70.264C130.828 70.264 131.476 70.492 131.992 70.948C132.496 71.404 132.76 72.016 132.76 72.76C132.76 73.504 132.472 74.176 131.92 74.776C131.62 75.088 131.032 75.556 130.144 76.156C129.052 76.888 128.428 77.548 128.272 78.124H132.772V79H127.06C127.06 78.22 127.336 77.512 127.912 76.876C128.248 76.492 128.86 75.976 129.772 75.352C130.444 74.872 130.888 74.524 131.116 74.284C131.548 73.816 131.776 73.3 131.776 72.748C131.776 72.22 131.62 71.824 131.308 71.536C130.996 71.248 130.552 71.104 130 71.104C129.412 71.104 128.956 71.296 128.644 71.704C128.308 72.088 128.128 72.664 128.116 73.42H127.132C127.132 72.46 127.408 71.692 127.936 71.128C128.464 70.552 129.172 70.264 130.036 70.264ZM137.112 70.264C138 70.264 138.708 70.492 139.212 70.96C139.668 71.38 139.908 71.908 139.908 72.532C139.908 72.988 139.8 73.372 139.584 73.684C139.344 74.02 139.008 74.272 138.564 74.428V74.452C139.008 74.56 139.392 74.812 139.704 75.196C140.04 75.604 140.208 76.084 140.208 76.636C140.208 77.392 139.944 78.004 139.416 78.46C138.864 78.928 138.096 79.168 137.112 79.168C136.116 79.168 135.348 78.928 134.808 78.46C134.28 78.004 134.016 77.392 134.016 76.636C134.016 76.084 134.184 75.604 134.52 75.196C134.832 74.812 135.204 74.56 135.66 74.452V74.428C135.204 74.272 134.868 74.02 134.64 73.684C134.424 73.372 134.316 72.988 134.316 72.532C134.316 71.908 134.544 71.38 135.012 70.96C135.516 70.492 136.212 70.264 137.112 70.264ZM137.112 71.068C136.5 71.068 136.02 71.224 135.684 71.536C135.384 71.8 135.24 72.148 135.24 72.568C135.24 73 135.372 73.36 135.636 73.624C135.948 73.936 136.44 74.104 137.112 74.104C137.772 74.104 138.264 73.936 138.588 73.624C138.852 73.36 138.984 73 138.984 72.568C138.984 72.148 138.828 71.8 138.54 71.536C138.192 71.224 137.712 71.068 137.112 71.068ZM137.112 74.872C136.416 74.872 135.888 75.04 135.516 75.388C135.156 75.7 134.988 76.12 134.988 76.636C134.988 77.14 135.156 77.56 135.516 77.872C135.876 78.196 136.416 78.364 137.112 78.364C137.808 78.364 138.336 78.196 138.72 77.86C139.056 77.548 139.236 77.14 139.236 76.636C139.236 76.12 139.056 75.7 138.72 75.388C138.336 75.04 137.796 74.872 137.112 74.872ZM144.307 70.264C145.195 70.264 145.903 70.492 146.407 70.96C146.863 71.38 147.103 71.908 147.103 72.532C147.103 72.988 146.995 73.372 146.779 73.684C146.539 74.02 146.203 74.272 145.759 74.428V74.452C146.203 74.56 146.587 74.812 146.899 75.196C147.235 75.604 147.403 76.084 147.403 76.636C147.403 77.392 147.139 78.004 146.611 78.46C146.059 78.928 145.291 79.168 144.307 79.168C143.311 79.168 142.543 78.928 142.003 78.46C141.475 78.004 141.211 77.392 141.211 76.636C141.211 76.084 141.379 75.604 141.715 75.196C142.027 74.812 142.399 74.56 142.855 74.452V74.428C142.399 74.272 142.063 74.02 141.835 73.684C141.619 73.372 141.511 72.988 141.511 72.532C141.511 71.908 141.739 71.38 142.207 70.96C142.711 70.492 143.407 70.264 144.307 70.264ZM144.307 71.068C143.695 71.068 143.215 71.224 142.879 71.536C142.579 71.8 142.435 72.148 142.435 72.568C142.435 73 142.567 73.36 142.831 73.624C143.143 73.936 143.635 74.104 144.307 74.104C144.967 74.104 145.459 73.936 145.783 73.624C146.047 73.36 146.179 73 146.179 72.568C146.179 72.148 146.023 71.8 145.735 71.536C145.387 71.224 144.907 71.068 144.307 71.068ZM144.307 74.872C143.611 74.872 143.083 75.04 142.711 75.388C142.351 75.7 142.183 76.12 142.183 76.636C142.183 77.14 142.351 77.56 142.711 77.872C143.071 78.196 143.611 78.364 144.307 78.364C145.003 78.364 145.531 78.196 145.915 77.86C146.251 77.548 146.431 77.14 146.431 76.636C146.431 76.12 146.251 75.7 145.915 75.388C145.531 75.04 144.991 74.872 144.307 74.872Z" fill="#222222"/>
</svg>
