<svg width="4" height="8" viewBox="0 0 4 8" fill="none" xmlns="http://www.w3.org/2000/svg">
<path d="M0.502633 1.74814C2.67467 1.74814 3.8618 6.33537 3.9654 7.41472C4.27624 3.90676 2.41191 1.11852 1.76187 0.803711C1.76187 1.11852 1.1241 1.20839 0.502633 1.74814Z" fill="#FFC87B"/>
<path d="M1.00776 0.0644531C0.893942 0.0644532 0.798388 0.12057 0.761665 0.227539L0.716743 0.359375C0.671658 0.491252 0.55919 0.58188 0.418892 0.604492L0.275337 0.62793C0.153359 0.647577 0.0829605 0.729914 0.0673294 0.831055C0.0514643 0.93434 0.0921678 1.06176 0.206978 1.1582L0.331978 1.2627C0.446321 1.35894 0.518119 1.49723 0.520454 1.6377L0.522408 1.78418C0.52465 1.9112 0.602523 2.02721 0.711861 2.09668C0.821432 2.1662 0.95076 2.18185 1.05268 2.12598L1.17475 2.05859C1.29552 1.99231 1.44727 1.99469 1.58198 2.05664L1.72749 2.12402C1.86028 2.18511 1.9807 2.16276 2.05561 2.10156C2.12956 2.04101 2.16833 1.93499 2.12495 1.80566L2.07612 1.65918C2.02988 1.52156 2.04951 1.37591 2.13764 1.27051L2.22553 1.16602C2.29659 1.0812 2.29929 0.961563 2.24311 0.850586C2.18702 0.739868 2.07642 0.648814 1.9394 0.62793L1.78706 0.604492C1.64391 0.582592 1.51034 0.496829 1.42573 0.375L1.33491 0.244141C1.25113 0.123512 1.12253 0.0645575 1.00776 0.0644531Z" fill="#FFE37B" stroke="white" stroke-width="0.128478"/>
</svg>
