<svg width="4" height="8" viewBox="0 0 4 8" fill="none" xmlns="http://www.w3.org/2000/svg">
<path d="M0.502649 1.74814C2.67469 1.74814 3.86182 6.33537 3.96541 7.41472C4.27626 3.90676 2.41193 1.11852 1.76189 0.803711C1.76189 1.11852 1.12412 1.20839 0.502649 1.74814Z" fill="#FFC87B"/>
<path d="M1.00775 0.0644531C0.893934 0.0644532 0.79838 0.12057 0.761658 0.227539L0.716736 0.359375C0.67165 0.491252 0.559182 0.58188 0.418884 0.604492L0.27533 0.62793C0.153351 0.647577 0.0829529 0.729914 0.0673218 0.831055C0.0514566 0.93434 0.0921601 1.06176 0.20697 1.1582L0.33197 1.2627C0.446314 1.35894 0.518112 1.49723 0.520447 1.6377L0.5224 1.78418C0.524642 1.9112 0.602516 2.02721 0.711853 2.09668C0.821425 2.1662 0.950752 2.18185 1.05267 2.12598L1.17474 2.05859C1.29551 1.99231 1.44727 1.99469 1.58197 2.05664L1.72748 2.12402C1.86027 2.18511 1.9807 2.16276 2.0556 2.10156C2.12956 2.04101 2.16832 1.93499 2.12494 1.80566L2.07611 1.65918C2.02987 1.52156 2.04951 1.37591 2.13763 1.27051L2.22552 1.16602C2.29658 1.0812 2.29929 0.961563 2.2431 0.850586C2.18702 0.739868 2.07641 0.648814 1.93939 0.62793L1.78705 0.604492C1.6439 0.582592 1.51033 0.496829 1.42572 0.375L1.3349 0.244141C1.25112 0.123512 1.12253 0.0645575 1.00775 0.0644531Z" fill="#FFE37B" stroke="white" stroke-width="0.128478"/>
</svg>
