<svg width="4" height="8" viewBox="0 0 4 8" fill="none" xmlns="http://www.w3.org/2000/svg">
<path d="M0.50274 1.74814C2.67478 1.74814 3.86191 6.33537 3.9655 7.41472C4.27635 3.90676 2.41202 1.11852 1.76198 0.803711C1.76198 1.11852 1.12421 1.20839 0.50274 1.74814Z" fill="#FFC87B"/>
<path d="M1.00781 0.0644531C0.893995 0.0644532 0.798442 0.12057 0.761719 0.227539L0.716797 0.359375C0.671711 0.491252 0.559244 0.58188 0.418945 0.604492L0.275391 0.62793C0.153412 0.647577 0.0830139 0.729914 0.0673828 0.831055C0.0515177 0.93434 0.0922212 1.06176 0.207031 1.1582L0.332031 1.2627C0.446375 1.35894 0.518173 1.49723 0.520508 1.6377L0.522461 1.78418C0.524703 1.9112 0.602577 2.02721 0.711914 2.09668C0.821486 2.1662 0.950813 2.18185 1.05273 2.12598L1.1748 2.05859C1.29557 1.99231 1.44733 1.99469 1.58203 2.05664L1.72754 2.12402C1.86033 2.18511 1.98076 2.16276 2.05566 2.10156C2.12962 2.04101 2.16839 1.93499 2.125 1.80566L2.07617 1.65918C2.02993 1.52156 2.04957 1.37591 2.1377 1.27051L2.22559 1.16602C2.29664 1.0812 2.29935 0.961563 2.24316 0.850586C2.18708 0.739868 2.07647 0.648814 1.93945 0.62793L1.78711 0.604492C1.64396 0.582592 1.5104 0.496829 1.42578 0.375L1.33496 0.244141C1.25118 0.123512 1.12259 0.0645575 1.00781 0.0644531Z" fill="#FFE37B" stroke="white" stroke-width="0.128478"/>
</svg>
