<svg width="192" height="20" viewBox="0 0 192 20" fill="none" xmlns="http://www.w3.org/2000/svg">
<path d="M3.63 15.9056L1.298 4.06958L0.88 3.45358H5.324L6.996 12.0996L11.22 3.45358H15.444L9.548 15.9056H3.63ZM22.2461 3.45358L20.3321 15.9056H16.3281L17.8021 4.28959L17.1641 3.45358H22.2461ZM37.8032 3.45358L36.9672 10.2076C36.8499 10.6329 36.6152 10.9849 36.2632 11.2636C35.9259 11.5423 35.5959 11.6816 35.2732 11.6816H27.8812L27.2432 15.9056H23.2392L24.7132 4.06958L24.0752 3.45358H37.8032ZM28.7392 5.56559L28.2992 9.56959H32.7432L33.3812 5.56559H28.7392ZM51.5988 9.76759L51.7748 8.57959H46.3408L46.6268 6.59959H50.0148L50.2348 5.05959H47.2648L47.5508 3.07959H50.4988L50.6308 2.24358L49.8388 1.58359H54.8548L54.6348 3.07959H57.3188L57.0328 5.05959H54.3488L54.1288 6.59959H57.3408L57.0548 8.57959H55.5148L55.3388 9.76759H56.5708L56.3068 11.6816H55.0748L54.4808 15.9056C54.4221 16.3309 54.2168 16.6829 53.8648 16.9616C53.5128 17.2256 53.1168 17.3576 52.6768 17.3576H48.7608L50.8288 15.3116L51.3348 11.6816H46.2748L46.5388 9.76759H51.5988ZM42.0288 4.92759H42.7108L43.1948 1.58359H45.9888L45.5048 4.92759H46.0328L45.7468 7.01759H45.2188L44.6688 10.8896L45.6148 10.7796L45.3288 12.8696L44.3608 12.9796L43.7448 17.4236H40.6428L41.2148 13.3536L38.0688 13.7056L38.3768 11.6156L41.5008 11.2636L42.1168 7.01759H41.5448L41.0608 9.10759H38.7288L40.0488 3.40959L39.6088 2.83758H42.5128L42.0288 4.92759ZM50.1248 15.3336H47.1768L46.2748 12.4736H49.2228L50.1248 15.3336ZM70.099 5.52159L71.067 7.78759L72.871 5.12559L72.981 4.35559H66.865L67.173 2.17759H76.633L76.127 5.71959L72.519 11.1096L75.225 17.3576H71.463L70.231 14.5196L68.317 17.3796H64.577L68.779 11.1756L66.645 6.20358L66.755 5.52159H70.099ZM60.727 6.29159H58.483L58.769 4.20159H61.013L61.299 2.24358L60.749 1.60559H64.929L64.555 4.20159H66.535L66.249 6.29159H64.269L62.685 17.4456H59.143L60.727 6.29159ZM57.031 16.6316L58.791 6.99559H60.353L58.593 16.6316H57.031ZM63.609 15.3776L64.357 6.99559H65.919L65.171 15.3776H63.609ZM86.4873 5.45559H82.2853L82.0873 7.12759H77.9073L78.4353 3.36558H90.9533L89.8973 10.8896H81.1193L80.7233 13.8156H88.6653L89.6113 12.9796L89.1933 15.9056H78.1713C77.746 15.9056 77.4087 15.7663 77.1593 15.4876C76.91 15.1943 76.8147 14.8349 76.8733 14.4096L77.6653 8.79959H86.0033L86.4873 5.45559ZM109.531 -0.000415206C108.754 1.37825 108.145 2.82292 107.705 4.33359C107.28 5.82959 107.067 7.50159 107.067 9.34959C107.067 11.2856 107.272 13.0676 107.683 14.6956C108.108 16.3236 108.732 17.7756 109.553 19.0516H105.021V-0.000415206H109.531ZM115.273 2.79359L114.591 2.00159H131.311L129.353 15.9716C129.294 16.3969 129.096 16.7489 128.759 17.0276C128.436 17.2916 128.07 17.4236 127.659 17.4236H123.303L125.261 15.3776L125.657 12.4516H117.583L116.615 17.4236H112.435L115.273 2.79359ZM117.979 10.3616H125.965L126.251 8.27159H118.397L117.979 10.3616ZM118.793 6.18159H126.537L126.845 4.09159H119.211L118.793 6.18159ZM140.813 17.0716L142.859 2.44158L142.067 1.60559H147.039L145.213 14.5636H149.019L150.031 13.7056L149.569 17.0716H140.813ZM139.625 14.9816L137.755 12.8696L137.117 17.4016H133.531L134.257 12.2536H131.969L136.589 6.29159H133.047L133.333 4.22359H140.527L140.153 6.92959L138.239 9.37159V9.48159L140.109 11.6156L139.625 14.9816ZM139.273 3.84959H135.731L135.247 2.15558L134.763 1.62758H138.701L139.273 3.84959ZM167.454 7.85359L167.344 8.68959H162.746L162.548 10.1416H169.236L168.95 12.2316H162.262L161.866 14.9596H162.9L164.396 12.8696H168.158L166.662 14.9596H168.972L168.686 17.0496H150.294L150.58 14.9596H153.154L152.274 12.8696H156.036L156.828 14.9596H157.686L158.082 12.2316H151.394L151.68 10.1416H158.368L158.566 8.68959H153.968L154.078 7.85359H151.592L155.772 2.50759L155.332 2.00159H167.036L170.006 7.85359H167.454ZM157.378 6.59959H164.55L163.296 4.09159H159.358L157.378 6.59959ZM172.468 19.0516C173.289 17.7756 173.905 16.3236 174.316 14.6956C174.741 13.0676 174.954 11.2856 174.954 9.34959C174.954 7.50159 174.734 5.82959 174.294 4.33359C173.869 2.82292 173.267 1.37825 172.49 -0.000415206H177V19.0516H172.468Z" fill="white"/>
</svg>
