<svg width="4" height="8" viewBox="0 0 4 8" fill="none" xmlns="http://www.w3.org/2000/svg">
<path d="M3.4975 1.74814C1.32547 1.74814 0.138334 6.33537 0.0347398 7.41472C-0.276107 3.90676 1.58823 1.11852 2.23826 0.803711C2.23826 1.11852 2.87603 1.20839 3.4975 1.74814Z" fill="#FFC87B"/>
<path d="M2.99243 0.0644531C3.10625 0.0644532 3.2018 0.12057 3.23853 0.227539L3.28345 0.359375C3.32853 0.491252 3.441 0.58188 3.5813 0.604492L3.72485 0.62793C3.84683 0.647577 3.91723 0.729914 3.93286 0.831055C3.94873 0.93434 3.90802 1.06176 3.79321 1.1582L3.66821 1.2627C3.55387 1.35894 3.48207 1.49723 3.47974 1.6377L3.47778 1.78418C3.47554 1.9112 3.39767 2.02721 3.28833 2.09668C3.17876 2.1662 3.04943 2.18185 2.94751 2.12598L2.82544 2.05859C2.70467 1.99231 2.55292 1.99469 2.41821 2.05664L2.27271 2.12402C2.13991 2.18511 2.01949 2.16276 1.94458 2.10156C1.87063 2.04101 1.83186 1.93499 1.87524 1.80566L1.92407 1.65918C1.97031 1.52156 1.95068 1.37591 1.86255 1.27051L1.77466 1.16602C1.7036 1.0812 1.7009 0.961563 1.75708 0.850586C1.81317 0.739868 1.92377 0.648814 2.06079 0.62793L2.21313 0.604492C2.35629 0.582592 2.48985 0.496829 2.57446 0.375L2.66528 0.244141C2.74906 0.123512 2.87766 0.0645575 2.99243 0.0644531Z" fill="#FFE37B" stroke="white" stroke-width="0.128478"/>
</svg>
