<svg width="9" height="12" viewBox="0 0 9 12" fill="none" xmlns="http://www.w3.org/2000/svg">
<path d="M0.853014 3.00007C4.35282 3.00007 7.84196 8.41926 8.37603 10.0565C7.64403 4.51125 3.35282 1 1.85297 0.999875C1.96191 1.48786 1.62959 1.94835 0.853014 3.00007Z" fill="#FFC87B"/>
<path d="M1.60014 0.101562C1.41918 0.101563 1.26771 0.192078 1.20951 0.362305L1.13822 0.570312C1.06664 0.779693 0.888286 0.923984 0.665565 0.959961L0.43705 0.996094C0.243166 1.02732 0.131684 1.15951 0.106972 1.32031C0.0817918 1.48424 0.146601 1.68573 0.328651 1.83887L0.526894 2.00488C0.708898 2.15783 0.823086 2.37814 0.826698 2.60156L0.829628 2.83301C0.832903 3.03504 0.956542 3.21961 1.13041 3.33008C1.30454 3.44064 1.51044 3.46585 1.6724 3.37695L1.86576 3.27051C2.05769 3.16503 2.29911 3.16804 2.51322 3.2666L2.74369 3.37305C2.95485 3.47025 3.1462 3.43434 3.26517 3.33691C3.38252 3.24063 3.44462 3.07262 3.37553 2.86719L3.2974 2.63574C3.22376 2.41688 3.25568 2.18511 3.39603 2.01758L3.53471 1.85156C3.64749 1.71686 3.65224 1.5268 3.56303 1.35059C3.47396 1.17487 3.29805 1.0303 3.0806 0.99707L2.83842 0.959961C2.61104 0.92519 2.3986 0.789213 2.2642 0.595703L2.11967 0.386719C1.98648 0.195076 1.7825 0.101564 1.60014 0.101562Z" fill="#FFE37B" stroke="white" stroke-width="0.204057"/>
</svg>
