<svg width="9" height="12" viewBox="0 0 9 12" fill="none" xmlns="http://www.w3.org/2000/svg">
<path d="M0.853014 3.00007C4.35282 3.00007 7.84196 8.41926 8.37603 10.0565C7.64403 4.51125 3.35282 1 1.85297 0.999875C1.96191 1.48786 1.62959 1.94835 0.853014 3.00007Z" fill="#FFC87B"/>
<path d="M1.60011 0.101562C1.41915 0.101563 1.26768 0.192078 1.20948 0.362305L1.13819 0.570312C1.06661 0.779693 0.888255 0.923984 0.665535 0.959961L0.437019 0.996094C0.243136 1.02732 0.131654 1.15951 0.106941 1.32031C0.0817613 1.48424 0.146571 1.68573 0.328621 1.83887L0.526863 2.00488C0.708868 2.15783 0.823056 2.37814 0.826668 2.60156L0.829597 2.83301C0.832872 3.03504 0.956512 3.21961 1.13038 3.33008C1.30451 3.44064 1.51041 3.46585 1.67237 3.37695L1.86573 3.27051C2.05766 3.16503 2.29908 3.16804 2.51319 3.2666L2.74366 3.37305C2.95482 3.47025 3.14617 3.43434 3.26514 3.33691C3.38249 3.24063 3.44459 3.07262 3.3755 2.86719L3.29737 2.63574C3.22373 2.41688 3.25565 2.18511 3.396 2.01758L3.53468 1.85156C3.64746 1.71686 3.65221 1.5268 3.563 1.35059C3.47393 1.17487 3.29802 1.0303 3.08057 0.99707L2.83839 0.959961C2.61101 0.92519 2.39857 0.789213 2.26417 0.595703L2.11964 0.386719C1.98645 0.195076 1.78247 0.101564 1.60011 0.101562Z" fill="#FFE37B" stroke="white" stroke-width="0.204057"/>
</svg>
