<svg width="9" height="12" viewBox="0 0 9 12" fill="none" xmlns="http://www.w3.org/2000/svg">
<path d="M7.57012 3.00007C4.07031 3.00007 0.58117 8.41926 0.0471038 10.0565C0.779104 4.51125 5.07031 1 6.57016 0.999875C6.46123 1.48786 6.79354 1.94835 7.57012 3.00007Z" fill="#FFC87B"/>
<path d="M6.82306 0.101562C7.00401 0.101563 7.15549 0.192078 7.21368 0.362305L7.28497 0.570312C7.35656 0.779693 7.53491 0.923984 7.75763 0.959961L7.98615 0.996094C8.18003 1.02732 8.29151 1.15951 8.31622 1.32031C8.3414 1.48424 8.27659 1.68573 8.09454 1.83887L7.8963 2.00488C7.7143 2.15783 7.60011 2.37814 7.5965 2.60156L7.59357 2.83301C7.59029 3.03504 7.46665 3.21961 7.29279 3.33008C7.11865 3.44064 6.91275 3.46585 6.75079 3.37695L6.55743 3.27051C6.3655 3.16503 6.12409 3.16804 5.90997 3.2666L5.6795 3.37305C5.46835 3.47025 5.277 3.43434 5.15802 3.33691C5.04067 3.24063 4.97858 3.07262 5.04767 2.86719L5.12579 2.63574C5.19944 2.41688 5.16752 2.18511 5.02716 2.01758L4.88849 1.85156C4.77571 1.71686 4.77096 1.5268 4.86017 1.35059C4.94924 1.17487 5.12514 1.0303 5.34259 0.99707L5.58478 0.959961C5.81216 0.92519 6.0246 0.789213 6.159 0.595703L6.30353 0.386719C6.43671 0.195076 6.6407 0.101564 6.82306 0.101562Z" fill="#FFE37B" stroke="white" stroke-width="0.204057"/>
</svg>
