<svg width="390" height="70" viewBox="0 0 390 70" fill="none" xmlns="http://www.w3.org/2000/svg">
<path d="M0 20C0 8.9543 8.95431 0 20 0H370C381.046 0 390 8.95431 390 20V70H0V20Z" fill="#81CCD1"/>
<path d="M0 20C0 8.9543 8.95431 0 20 0H370C381.046 0 390 8.95431 390 20V70H0V20Z" fill="url(#paint0_linear_2_37336)" fill-opacity="0.2"/>
<path d="M30.118 19.604H31.434V20.836H36.768V22.082H31.434V23.566H35.886V28.312H26.338V23.566H30.118V19.604ZM34.556 27.08V24.812H27.654V27.08H34.556ZM26.31 28.774L27.416 29.32C26.912 30.524 26.31 31.56 25.638 32.428L24.546 31.63C25.218 30.832 25.806 29.88 26.31 28.774ZM29.642 29.222C29.922 30.118 30.174 31.098 30.398 32.148L29.054 32.456C28.886 31.336 28.662 30.342 28.396 29.488L29.642 29.222ZM32.554 29.04C32.96 29.992 33.31 31.014 33.618 32.12L32.302 32.428C32.036 31.252 31.7 30.202 31.308 29.292L32.554 29.04ZM35.354 28.732C36.236 29.88 36.908 30.874 37.384 31.728L36.278 32.498C35.788 31.574 35.13 30.538 34.29 29.418L35.354 28.732ZM39.862 21.48H44.314V19.618H45.686V21.48H50.082V22.754H45.686V24.77H51.23V26.058H45.686V30.664H48.668V27.08H49.942V32.47H48.668V31.896H41.346V32.47H40.072V27.08H41.346V30.664H44.314V26.058H38.784V24.77H44.314V22.754H39.862V21.48ZM52.658 25.204H65.328V26.52H52.658V25.204ZM67.358 24.77L66.434 24.182C67.05 22.726 67.498 21.144 67.764 19.464L69.024 19.73C68.94 20.164 68.842 20.584 68.758 20.99H70.676V22.264H68.436C68.268 22.824 68.086 23.342 67.89 23.846H70.676V25.022H69.556V26.464H70.886V26.94L71.754 26.618C71.894 27.29 72.09 27.892 72.37 28.452C72.58 27.612 72.72 26.688 72.776 25.666H71.152V24.756C71.67 23.86 72.146 22.908 72.58 21.872H71.138V20.752H73.756V21.83C73.336 22.894 72.916 23.818 72.51 24.602H73.84V25.302C73.812 27.01 73.588 28.48 73.196 29.684C73.518 30.048 73.882 30.314 74.288 30.51C74.904 30.79 75.87 30.972 77.172 31.028C77.984 31.028 78.754 31 79.482 30.958L79.244 32.218H77.816C75.688 32.19 74.232 31.938 73.462 31.462C73.182 31.28 72.93 31.084 72.706 30.86C72.398 31.434 72.062 31.938 71.67 32.372L70.774 31.49C71.222 31.028 71.586 30.468 71.894 29.824C71.474 29.152 71.138 28.354 70.886 27.416V27.668H69.556V30.496C69.962 30.272 70.368 29.978 70.76 29.642L70.97 30.762C70.242 31.294 69.402 31.742 68.45 32.106L67.918 31C68.198 30.888 68.352 30.706 68.352 30.468V27.668H66.882V26.464H68.352V25.022H67.358V24.77ZM78.726 25.568H76.78V26.422H78.824V27.444H76.78V28.34H79.174V29.418H76.78V30.566H75.59V29.418H73.868V28.34H75.59V27.444H74.218V26.422H75.59V25.568H74.344V24.504H75.59V23.622H73.854V22.558H75.59V21.62H74.316V20.556H75.59V19.604H76.78V20.556H78.726V22.558H79.3V23.622H78.726V25.568ZM76.78 21.62V22.558H77.62V21.62H76.78ZM76.78 23.622V24.504H77.62V23.622H76.78ZM86.538 19.996H93.258V21.256H90.57C90.514 21.676 90.444 22.096 90.36 22.488H92.936V29.264H91.648V23.72H88.358V29.404H87.056V22.488H89.058C89.142 22.082 89.212 21.676 89.268 21.256H86.538V19.996ZM91.158 29.208C92.082 29.992 92.866 30.776 93.51 31.56L92.558 32.512C92.012 31.756 91.242 30.944 90.262 30.076L91.158 29.208ZM89.352 24.448H90.598V26.884C90.542 28.396 90.248 29.614 89.702 30.538C89.17 31.378 88.288 32.022 87.084 32.498L86.384 31.392C87.504 30.944 88.274 30.384 88.694 29.698C89.086 28.984 89.31 28.046 89.352 26.884V24.448ZM83.206 19.59H84.2C85.152 20.696 86.048 21.858 86.916 23.062L86.034 24C85.166 22.628 84.424 21.578 83.836 20.864C83.08 22.18 82.198 23.44 81.162 24.616L80.406 23.552C81.414 22.432 82.352 21.102 83.206 19.59ZM81.218 25.652H86.37V26.772C85.796 27.976 85.138 29.054 84.41 30.006C84.914 30.482 85.376 30.972 85.796 31.448L84.844 32.4C84.032 31.364 82.884 30.258 81.428 29.068L82.31 28.2C82.73 28.536 83.136 28.872 83.528 29.208C84.004 28.564 84.466 27.794 84.942 26.898H81.218V25.652ZM83.78 22.684C84.368 23.496 84.816 24.196 85.124 24.784L84.172 25.456C83.836 24.798 83.388 24.07 82.828 23.272L83.78 22.684ZM101.714 28.382V29.712L100.538 29.992V32.414H99.25V30.258C97.85 30.538 96.408 30.79 94.91 31.014L94.588 29.712L95.764 29.572V21.228H94.756V19.982H101.504V20.752H106.992V21.97C106.684 24.476 106.082 26.618 105.172 28.41C105.816 29.502 106.614 30.496 107.552 31.392L106.656 32.414C105.788 31.518 105.06 30.594 104.458 29.642C103.73 30.72 102.89 31.644 101.91 32.414L101 31.378C102.092 30.524 102.988 29.502 103.702 28.326C102.722 26.394 102.134 24.294 101.952 22.026H101.392V21.228H100.538V28.676C100.944 28.578 101.336 28.48 101.714 28.382ZM103.17 22.026C103.338 23.832 103.744 25.484 104.416 26.982C105.06 25.526 105.508 23.874 105.746 22.026H103.17ZM99.25 28.97V27.318H97.066V29.376C97.808 29.25 98.536 29.11 99.25 28.97ZM97.066 26.128H99.25V24.28H97.066V26.128ZM97.066 23.076H99.25V21.228H97.066V23.076ZM114.244 27.99H110.59C110.422 29.67 110.016 31.154 109.372 32.414L108.448 31.462C109.12 30.09 109.484 28.452 109.512 26.576V20.654C111.248 20.444 112.564 20.066 113.46 19.534L114.356 20.542C113.348 21.074 112.116 21.424 110.688 21.62V22.978H114.244V27.99ZM110.688 24.266V26.576C110.688 26.646 110.674 26.716 110.674 26.772H113.026V24.266H110.688ZM116.414 25.008V26.94C116.386 29.39 116.078 31.238 115.462 32.47L114.258 31.868C114.846 30.692 115.168 29.054 115.196 26.94V20.458C117.212 20.388 118.906 20.08 120.306 19.52L120.978 20.682C119.606 21.186 118.08 21.466 116.4 21.55L116.414 23.734H121.426V25.008H119.942V32.442H118.64V25.008H116.414ZM127.068 24.742V25.974H132.304V24.742H127.068ZM132.304 27.136H127.068V28.34H132.304V27.136ZM132.304 29.488H127.068V32.414H125.822V25.428C125.094 26.282 124.296 27.066 123.4 27.794L122.546 26.674C124.17 25.386 125.458 23.902 126.382 22.25H122.924V20.962H127.026C127.236 20.458 127.418 19.94 127.586 19.436L128.944 19.59C128.804 20.066 128.65 20.528 128.482 20.962H135.244V22.25H127.908C127.684 22.712 127.432 23.16 127.166 23.594H133.55V31.168C133.55 31.938 133.102 32.33 132.206 32.358H130.638L130.316 31.154C130.834 31.196 131.324 31.224 131.786 31.224C132.122 31.224 132.304 31.07 132.304 30.762V29.488ZM143.42 19.632L144.05 20.724C142.286 21.27 139.92 21.55 136.98 21.55L136.588 20.374C139.29 20.374 141.572 20.122 143.42 19.632ZM142.734 21.522L143.84 21.816C143.574 22.908 143.224 23.86 142.79 24.7L141.74 24.322C142.118 23.58 142.454 22.642 142.734 21.522ZM147.62 19.408L148.502 20.402C147.466 21.676 146.206 22.726 144.722 23.566L144.148 22.362C145.562 21.606 146.724 20.626 147.62 19.408ZM148.236 23.188L149.104 24.168C147.984 25.54 146.598 26.688 144.96 27.598L144.386 26.394C145.954 25.568 147.242 24.504 148.236 23.188ZM148.642 26.982L149.538 27.99C148.194 29.768 146.542 31.238 144.582 32.4L143.98 31.126C145.884 30.09 147.438 28.704 148.642 26.982ZM137.036 25.792H139.976V24.546H141.292V25.792H143.952V27.08H141.292V27.738C142.146 28.2 143 28.732 143.868 29.348L143.084 30.538C142.384 29.88 141.782 29.362 141.292 28.97V32.428H139.976V28.508C139.22 29.698 138.338 30.692 137.33 31.504L136.546 30.356C137.862 29.432 138.898 28.34 139.654 27.08H137.036V25.792ZM140.494 21.732C140.83 22.46 141.082 23.118 141.278 23.734L140.158 24.14C139.948 23.426 139.682 22.726 139.374 22.04L140.494 21.732ZM137.974 21.998C138.366 22.712 138.702 23.538 139.01 24.462L137.946 24.728C137.666 23.888 137.33 23.104 136.924 22.348L137.974 21.998ZM153.29 23.734C152.674 24.098 152.03 24.434 151.358 24.742L150.588 23.636C153.01 22.572 154.97 21.214 156.482 19.562H157.546C158.848 21.186 160.794 22.53 163.398 23.608L162.642 24.714C161.97 24.434 161.326 24.126 160.738 23.79V24.518H157.672V26.212H162.544V27.444H157.672V30.874H158.988C159.422 30.006 159.8 29.068 160.136 28.074L161.34 28.508C161.032 29.39 160.696 30.174 160.332 30.874H163.034V32.134H150.98V30.874H153.724C153.458 30.076 153.122 29.32 152.73 28.606L153.92 28.172C154.312 28.928 154.676 29.824 155.012 30.874H156.356V27.444H151.47V26.212H156.356V24.518H153.29V23.734ZM159.968 23.328C158.82 22.6 157.84 21.76 157.014 20.808C156.09 21.76 155.068 22.6 153.948 23.328H159.968Z" fill="white"/>
<g filter="url(#filter0_iii_2_37336)">
<rect x="289" y="10" width="77" height="32" rx="16" fill="#FFA959"/>
<rect x="289" y="10" width="77" height="32" rx="16" fill="url(#paint1_radial_2_37336)" fill-opacity="0.8"/>
<path d="M313.149 26.736H301.657V25.28H313.149V26.736ZM318.251 29.349L318.485 30.441C318.212 30.61 317.146 31.403 316.405 31.962L315.82 31.052C316.171 30.883 316.158 30.688 316.158 30.363V27.932H315.131V26.827H316.158V25.436H315.443V24.89L314.637 24.357C315.365 23.291 316.067 21.718 316.379 20.405L317.497 20.626C317.38 21.081 317.237 21.536 317.068 21.991H318.498V23.109H316.613C316.431 23.512 316.223 23.928 316.002 24.331H318.121V25.436H317.237V26.827H318.212V27.932H317.237V30.077L318.251 29.349ZM322.762 23.395V22.55H321.475V21.588H322.762V20.509L323.815 20.561V21.588H325.804V23.395H326.402V24.383H325.804V26.112H323.815V26.892H325.804V27.867H323.815V28.569H326.129V29.557H323.815V30.493H322.762V29.557H320.903V28.569H322.762V27.867H321.306V26.892H322.762V26.112H321.462V25.137H322.762V24.383H321.111V23.395H322.762ZM322.892 30.831C324.088 30.87 325.258 30.87 326.454 30.766L326.22 31.845C325.076 31.936 323.919 31.923 322.775 31.884C321.605 31.845 320.578 31.572 319.785 30.61C319.499 31.117 319.135 31.65 318.693 32.235L317.796 31.455C318.355 30.818 318.771 30.207 319.122 29.57C318.823 28.946 318.563 28.153 318.355 27.165L319.265 26.827C319.382 27.334 319.499 27.789 319.668 28.218C319.863 27.555 319.98 26.827 320.019 26.034H318.498V24.942L319.876 22.485H318.745V21.393H321.124V22.498L319.694 24.942H321.046V26.073C320.89 27.49 320.695 28.517 320.318 29.505C320.877 30.285 321.657 30.792 322.892 30.831ZM324.764 22.55H323.815V23.395H324.764V22.55ZM324.764 25.137V24.383H323.815V25.137H324.764ZM333.831 23.772L333.09 24.604C332.648 23.98 331.829 23.057 331.205 22.368C330.542 23.668 329.697 24.812 328.722 25.839L328.111 24.851C329.125 23.668 330.334 21.861 330.815 20.366L331.894 20.717C331.829 20.912 331.777 21.107 331.686 21.302C332.349 21.939 333.246 22.992 333.831 23.681V23.512H335.547L335.846 22.277H333.389V21.068H339.798V22.277H337.133C337.042 22.68 336.925 23.109 336.821 23.512H339.226V29.245H338.004V24.617H335.053V29.258H333.831V23.772ZM332.271 25.475L331.452 26.229C331.14 25.657 330.555 24.773 330.204 24.383L331.01 23.72C331.387 24.136 331.959 24.916 332.271 25.475ZM337.107 25.189V27.282C337.107 29.778 336.405 30.948 333.324 32.547L332.583 31.481C335.443 30.012 335.95 29.206 335.95 26.983V25.124L337.107 25.189ZM331.79 30.142C332.167 30.493 332.492 30.831 332.739 31.078L331.985 32.053C331.257 31.221 329.866 29.947 329.034 29.258L329.749 28.322C330.074 28.582 330.503 28.959 330.958 29.362C331.374 28.738 331.907 27.867 332.141 27.464H328.826V26.32H333.337V27.581C332.882 28.426 332.349 29.297 331.79 30.142ZM336.834 30.259L337.471 29.336C338.29 29.817 339.174 30.532 340.006 31.299L339.317 32.43C338.537 31.598 337.705 30.87 336.834 30.259ZM351.088 28.452C351.699 29.375 352.505 30.155 353.545 31.026L352.752 32.105C351.764 31.234 350.997 30.441 350.386 29.596C349.775 30.441 349.06 31.247 348.085 32.131L347.24 31.13C348.332 30.233 349.099 29.401 349.684 28.478C348.917 27.035 348.488 25.332 348.215 22.901H347.721V22.251H347.188V28.738L348.15 28.556L348.176 29.115L348.202 29.778C348.007 29.817 347.656 29.856 347.188 29.947V32.3H346.031V30.155L341.897 30.935L341.832 29.661C342.027 29.622 342.43 29.57 342.95 29.479V22.251H342.248V21.029H347.994V21.627H352.713V22.901C352.336 25.189 351.92 26.918 351.088 28.452ZM346.031 23.785V22.251H344.107V23.785H346.031ZM351.504 22.901H349.359C349.554 24.682 349.879 26.034 350.386 27.191C350.919 25.982 351.231 24.63 351.504 22.901ZM346.031 26.437V24.942H344.107V26.437H346.031ZM344.107 27.594V29.284C344.731 29.167 345.407 29.05 346.031 28.946V27.594H344.107Z" fill="white"/>
</g>
<rect width="139" height="5" rx="2.5" transform="matrix(-1 0 0 1 265 57)" fill="white"/>
<defs>
<filter id="filter0_iii_2_37336" x="286" y="6" width="83" height="39" filterUnits="userSpaceOnUse" color-interpolation-filters="sRGB">
<feFlood flood-opacity="0" result="BackgroundImageFix"/>
<feBlend mode="normal" in="SourceGraphic" in2="BackgroundImageFix" result="shape"/>
<feColorMatrix in="SourceAlpha" type="matrix" values="0 0 0 0 0 0 0 0 0 0 0 0 0 0 0 0 0 0 127 0" result="hardAlpha"/>
<feOffset dx="3" dy="3"/>
<feGaussianBlur stdDeviation="2.5"/>
<feComposite in2="hardAlpha" operator="arithmetic" k2="-1" k3="1"/>
<feColorMatrix type="matrix" values="0 0 0 0 1 0 0 0 0 0.507912 0 0 0 0 0.328971 0 0 0 1 0"/>
<feBlend mode="normal" in2="shape" result="effect1_innerShadow_2_37336"/>
<feColorMatrix in="SourceAlpha" type="matrix" values="0 0 0 0 0 0 0 0 0 0 0 0 0 0 0 0 0 0 127 0" result="hardAlpha"/>
<feOffset dx="-3" dy="3"/>
<feGaussianBlur stdDeviation="2.5"/>
<feComposite in2="hardAlpha" operator="arithmetic" k2="-1" k3="1"/>
<feColorMatrix type="matrix" values="0 0 0 0 1 0 0 0 0 0.681647 0 0 0 0 0.169515 0 0 0 1 0"/>
<feBlend mode="normal" in2="effect1_innerShadow_2_37336" result="effect2_innerShadow_2_37336"/>
<feColorMatrix in="SourceAlpha" type="matrix" values="0 0 0 0 0 0 0 0 0 0 0 0 0 0 0 0 0 0 127 0" result="hardAlpha"/>
<feOffset dx="-3" dy="-4"/>
<feGaussianBlur stdDeviation="2.5"/>
<feComposite in2="hardAlpha" operator="arithmetic" k2="-1" k3="1"/>
<feColorMatrix type="matrix" values="0 0 0 0 1 0 0 0 0 0.946217 0 0 0 0 0.751807 0 0 0 1 0"/>
<feBlend mode="normal" in2="effect2_innerShadow_2_37336" result="effect3_innerShadow_2_37336"/>
</filter>
<linearGradient id="paint0_linear_2_37336" x1="195" y1="0" x2="195" y2="70" gradientUnits="userSpaceOnUse">
<stop stop-opacity="0"/>
<stop offset="1"/>
</linearGradient>
<radialGradient id="paint1_radial_2_37336" cx="0" cy="0" r="1" gradientTransform="matrix(-47.4583 16 -5.58809 -19.4398 303 14.5)" gradientUnits="userSpaceOnUse">
<stop offset="0.00442032" stop-color="white"/>
<stop offset="1" stop-color="#F6C600" stop-opacity="0"/>
</radialGradient>
</defs>
</svg>
