<svg width="4" height="8" viewBox="0 0 4 8" fill="none" xmlns="http://www.w3.org/2000/svg">
<path d="M3.4975 1.74814C1.32547 1.74814 0.138334 6.33537 0.0347398 7.41472C-0.276107 3.90676 1.58823 1.11852 2.23826 0.803711C2.23826 1.11852 2.87603 1.20839 3.4975 1.74814Z" fill="#FFC87B"/>
<path d="M2.99239 0.0644531C3.1062 0.0644532 3.20176 0.12057 3.23848 0.227539L3.2834 0.359375C3.32849 0.491252 3.44095 0.58188 3.58125 0.604492L3.72481 0.62793C3.84679 0.647577 3.91718 0.729914 3.93282 0.831055C3.94868 0.93434 3.90798 1.06176 3.79317 1.1582L3.66817 1.2627C3.55382 1.35894 3.48203 1.49723 3.47969 1.6377L3.47774 1.78418C3.4755 1.9112 3.39762 2.02721 3.28828 2.09668C3.17871 2.1662 3.04938 2.18185 2.94746 2.12598L2.82539 2.05859C2.70463 1.99231 2.55287 1.99469 2.41817 2.05664L2.27266 2.12402C2.13987 2.18511 2.01944 2.16276 1.94453 2.10156C1.87058 2.04101 1.83181 1.93499 1.8752 1.80566L1.92403 1.65918C1.97027 1.52156 1.95063 1.37591 1.8625 1.27051L1.77461 1.16602C1.70355 1.0812 1.70085 0.961563 1.75703 0.850586C1.81312 0.739868 1.92373 0.648814 2.06075 0.62793L2.21309 0.604492C2.35624 0.582592 2.4898 0.496829 2.57442 0.375L2.66524 0.244141C2.74902 0.123512 2.87761 0.0645575 2.99239 0.0644531Z" fill="#FFE37B" stroke="white" stroke-width="0.128478"/>
</svg>
