<svg width="9" height="12" viewBox="0 0 9 12" fill="none" xmlns="http://www.w3.org/2000/svg">
<path d="M7.57012 3.00007C4.07031 3.00007 0.58117 8.41926 0.0471038 10.0565C0.779104 4.51125 5.07031 1 6.57016 0.999875C6.46123 1.48786 6.79354 1.94835 7.57012 3.00007Z" fill="#FFC87B"/>
<path d="M6.82303 0.101562C7.00398 0.101563 7.15546 0.192078 7.21365 0.362305L7.28494 0.570312C7.35653 0.779693 7.53488 0.923984 7.7576 0.959961L7.98611 0.996094C8.18 1.02732 8.29148 1.15951 8.31619 1.32031C8.34137 1.48424 8.27656 1.68573 8.09451 1.83887L7.89627 2.00488C7.71427 2.15783 7.60008 2.37814 7.59647 2.60156L7.59354 2.83301C7.59026 3.03504 7.46662 3.21961 7.29276 3.33008C7.11862 3.44064 6.91272 3.46585 6.75076 3.37695L6.5574 3.27051C6.36547 3.16503 6.12406 3.16804 5.90994 3.2666L5.67947 3.37305C5.46832 3.47025 5.27697 3.43434 5.15799 3.33691C5.04064 3.24063 4.97855 3.07262 5.04764 2.86719L5.12576 2.63574C5.19941 2.41688 5.16749 2.18511 5.02713 2.01758L4.88846 1.85156C4.77568 1.71686 4.77093 1.5268 4.86014 1.35059C4.94921 1.17487 5.12511 1.0303 5.34256 0.99707L5.58475 0.959961C5.81213 0.92519 6.02457 0.789213 6.15897 0.595703L6.3035 0.386719C6.43668 0.195076 6.64067 0.101564 6.82303 0.101562Z" fill="#FFE37B" stroke="white" stroke-width="0.204057"/>
</svg>
