<svg width="4" height="8" viewBox="0 0 4 8" fill="none" xmlns="http://www.w3.org/2000/svg">
<path d="M3.4975 1.74814C1.32547 1.74814 0.138334 6.33537 0.0347398 7.41472C-0.276107 3.90676 1.58823 1.11852 2.23826 0.803711C2.23826 1.11852 2.87603 1.20839 3.4975 1.74814Z" fill="#FFC87B"/>
<path d="M2.99237 0.0644531C3.10619 0.0644532 3.20174 0.12057 3.23846 0.227539L3.28339 0.359375C3.32847 0.491252 3.44094 0.58188 3.58124 0.604492L3.72479 0.62793C3.84677 0.647577 3.91717 0.729914 3.9328 0.831055C3.94867 0.93434 3.90796 1.06176 3.79315 1.1582L3.66815 1.2627C3.55381 1.35894 3.48201 1.49723 3.47968 1.6377L3.47772 1.78418C3.47548 1.9112 3.39761 2.02721 3.28827 2.09668C3.1787 2.1662 3.04937 2.18185 2.94745 2.12598L2.82538 2.05859C2.70461 1.99231 2.55286 1.99469 2.41815 2.05664L2.27264 2.12402C2.13985 2.18511 2.01943 2.16276 1.94452 2.10156C1.87057 2.04101 1.8318 1.93499 1.87518 1.80566L1.92401 1.65918C1.97025 1.52156 1.95061 1.37591 1.86249 1.27051L1.7746 1.16602C1.70354 1.0812 1.70084 0.961563 1.75702 0.850586C1.81311 0.739868 1.92371 0.648814 2.06073 0.62793L2.21307 0.604492C2.35622 0.582592 2.48979 0.496829 2.5744 0.375L2.66522 0.244141C2.749 0.123512 2.8776 0.0645575 2.99237 0.0644531Z" fill="#FFE37B" stroke="white" stroke-width="0.128478"/>
</svg>
