<svg width="9" height="12" viewBox="0 0 9 12" fill="none" xmlns="http://www.w3.org/2000/svg">
<path d="M7.57012 3.00007C4.07031 3.00007 0.58117 8.41926 0.0471038 10.0565C0.779104 4.51125 5.07031 1 6.57016 0.999875C6.46123 1.48786 6.79354 1.94835 7.57012 3.00007Z" fill="#FFC87B"/>
<path d="M6.823 0.101562C7.00395 0.101563 7.15543 0.192078 7.21362 0.362305L7.28491 0.570312C7.3565 0.779693 7.53485 0.923984 7.75757 0.959961L7.98608 0.996094C8.17997 1.02732 8.29145 1.15951 8.31616 1.32031C8.34134 1.48424 8.27653 1.68573 8.09448 1.83887L7.89624 2.00488C7.71424 2.15783 7.60005 2.37814 7.59644 2.60156L7.59351 2.83301C7.59023 3.03504 7.46659 3.21961 7.29272 3.33008C7.11859 3.44064 6.91269 3.46585 6.75073 3.37695L6.55737 3.27051C6.36544 3.16503 6.12403 3.16804 5.90991 3.2666L5.67944 3.37305C5.46828 3.47025 5.27694 3.43434 5.15796 3.33691C5.04061 3.24063 4.97852 3.07262 5.04761 2.86719L5.12573 2.63574C5.19938 2.41688 5.16745 2.18511 5.0271 2.01758L4.88843 1.85156C4.77565 1.71686 4.7709 1.5268 4.86011 1.35059C4.94918 1.17487 5.12508 1.0303 5.34253 0.99707L5.58472 0.959961C5.8121 0.92519 6.02454 0.789213 6.15894 0.595703L6.30347 0.386719C6.43665 0.195076 6.64064 0.101564 6.823 0.101562Z" fill="#FFE37B" stroke="white" stroke-width="0.204057"/>
</svg>
