<svg width="390" height="70" viewBox="0 0 390 70" fill="none" xmlns="http://www.w3.org/2000/svg">
<path d="M0 20C0 8.9543 8.95431 0 20 0H370C381.046 0 390 8.95431 390 20V70H0V20Z" fill="#FC8AA3"/>
<path d="M30.1179 19.604H31.4339V20.836H36.7679V22.082H31.4339V23.566H35.8859V28.312H26.3379V23.566H30.1179V19.604ZM34.5559 27.08V24.812H27.6539V27.08H34.5559ZM26.3099 28.774L27.4159 29.32C26.9119 30.524 26.3099 31.56 25.6379 32.428L24.5459 31.63C25.2179 30.832 25.8059 29.88 26.3099 28.774ZM29.6419 29.222C29.9219 30.118 30.1739 31.098 30.3979 32.148L29.0539 32.456C28.8859 31.336 28.6619 30.342 28.3959 29.488L29.6419 29.222ZM32.5539 29.04C32.9599 29.992 33.3099 31.014 33.6179 32.12L32.3019 32.428C32.0359 31.252 31.6999 30.202 31.3079 29.292L32.5539 29.04ZM35.3539 28.732C36.2359 29.88 36.9079 30.874 37.3839 31.728L36.2779 32.498C35.7879 31.574 35.1299 30.538 34.2899 29.418L35.3539 28.732ZM39.8619 21.48H44.3139V19.618H45.6859V21.48H50.0819V22.754H45.6859V24.77H51.2299V26.058H45.6859V30.664H48.6679V27.08H49.9419V32.47H48.6679V31.896H41.3459V32.47H40.0719V27.08H41.3459V30.664H44.3139V26.058H38.7839V24.77H44.3139V22.754H39.8619V21.48ZM52.6579 25.204H65.3279V26.52H52.6579V25.204ZM67.3579 24.77L66.4339 24.182C67.0499 22.726 67.4979 21.144 67.7639 19.464L69.0239 19.73C68.9399 20.164 68.8419 20.584 68.7579 20.99H70.6759V22.264H68.4359C68.2679 22.824 68.0859 23.342 67.8899 23.846H70.6759V25.022H69.5559V26.464H70.8859V26.94L71.7539 26.618C71.8939 27.29 72.0899 27.892 72.3699 28.452C72.5799 27.612 72.7199 26.688 72.7759 25.666H71.1519V24.756C71.6699 23.86 72.1459 22.908 72.5799 21.872H71.1379V20.752H73.7559V21.83C73.3359 22.894 72.9159 23.818 72.5099 24.602H73.8399V25.302C73.8119 27.01 73.5879 28.48 73.1959 29.684C73.5179 30.048 73.8819 30.314 74.2879 30.51C74.9039 30.79 75.8699 30.972 77.1719 31.028C77.9839 31.028 78.7539 31 79.4819 30.958L79.2439 32.218H77.8159C75.6879 32.19 74.2319 31.938 73.4619 31.462C73.1819 31.28 72.9299 31.084 72.7059 30.86C72.3979 31.434 72.0619 31.938 71.6699 32.372L70.7739 31.49C71.2219 31.028 71.5859 30.468 71.8939 29.824C71.4739 29.152 71.1379 28.354 70.8859 27.416V27.668H69.5559V30.496C69.9619 30.272 70.3679 29.978 70.7599 29.642L70.9699 30.762C70.2419 31.294 69.4019 31.742 68.4499 32.106L67.9179 31C68.1979 30.888 68.3519 30.706 68.3519 30.468V27.668H66.8819V26.464H68.3519V25.022H67.3579V24.77ZM78.7259 25.568H76.7799V26.422H78.8239V27.444H76.7799V28.34H79.1739V29.418H76.7799V30.566H75.5899V29.418H73.8679V28.34H75.5899V27.444H74.2179V26.422H75.5899V25.568H74.3439V24.504H75.5899V23.622H73.8539V22.558H75.5899V21.62H74.3159V20.556H75.5899V19.604H76.7799V20.556H78.7259V22.558H79.2999V23.622H78.7259V25.568ZM76.7799 21.62V22.558H77.6199V21.62H76.7799ZM76.7799 23.622V24.504H77.6199V23.622H76.7799ZM86.5379 19.996H93.2579V21.256H90.5699C90.5139 21.676 90.4439 22.096 90.3599 22.488H92.9359V29.264H91.6479V23.72H88.3579V29.404H87.0559V22.488H89.0579C89.1419 22.082 89.2119 21.676 89.2679 21.256H86.5379V19.996ZM91.1579 29.208C92.0819 29.992 92.8659 30.776 93.5099 31.56L92.5579 32.512C92.0119 31.756 91.2419 30.944 90.2619 30.076L91.1579 29.208ZM89.3519 24.448H90.5979V26.884C90.5419 28.396 90.2479 29.614 89.7019 30.538C89.1699 31.378 88.2879 32.022 87.0839 32.498L86.3839 31.392C87.5039 30.944 88.2739 30.384 88.6939 29.698C89.0859 28.984 89.3099 28.046 89.3519 26.884V24.448ZM83.2059 19.59H84.1999C85.1519 20.696 86.0479 21.858 86.9159 23.062L86.0339 24C85.1659 22.628 84.4239 21.578 83.8359 20.864C83.0799 22.18 82.1979 23.44 81.1619 24.616L80.4059 23.552C81.4139 22.432 82.3519 21.102 83.2059 19.59ZM81.2179 25.652H86.3699V26.772C85.7959 27.976 85.1379 29.054 84.4099 30.006C84.9139 30.482 85.3759 30.972 85.7959 31.448L84.8439 32.4C84.0319 31.364 82.8839 30.258 81.4279 29.068L82.3099 28.2C82.7299 28.536 83.1359 28.872 83.5279 29.208C84.0039 28.564 84.4659 27.794 84.9419 26.898H81.2179V25.652ZM83.7799 22.684C84.3679 23.496 84.8159 24.196 85.1239 24.784L84.1719 25.456C83.8359 24.798 83.3879 24.07 82.8279 23.272L83.7799 22.684ZM101.714 28.382V29.712L100.538 29.992V32.414H99.2499V30.258C97.8499 30.538 96.4079 30.79 94.9099 31.014L94.5879 29.712L95.7639 29.572V21.228H94.7559V19.982H101.504V20.752H106.992V21.97C106.684 24.476 106.082 26.618 105.172 28.41C105.816 29.502 106.614 30.496 107.552 31.392L106.656 32.414C105.788 31.518 105.06 30.594 104.458 29.642C103.73 30.72 102.89 31.644 101.91 32.414L101 31.378C102.092 30.524 102.988 29.502 103.702 28.326C102.722 26.394 102.134 24.294 101.952 22.026H101.392V21.228H100.538V28.676C100.944 28.578 101.336 28.48 101.714 28.382ZM103.17 22.026C103.338 23.832 103.744 25.484 104.416 26.982C105.06 25.526 105.508 23.874 105.746 22.026H103.17ZM99.2499 28.97V27.318H97.0659V29.376C97.8079 29.25 98.5359 29.11 99.2499 28.97ZM97.0659 26.128H99.2499V24.28H97.0659V26.128ZM97.0659 23.076H99.2499V21.228H97.0659V23.076ZM114.244 27.99H110.59C110.422 29.67 110.016 31.154 109.372 32.414L108.448 31.462C109.12 30.09 109.484 28.452 109.512 26.576V20.654C111.248 20.444 112.564 20.066 113.46 19.534L114.356 20.542C113.348 21.074 112.116 21.424 110.688 21.62V22.978H114.244V27.99ZM110.688 24.266V26.576C110.688 26.646 110.674 26.716 110.674 26.772H113.026V24.266H110.688ZM116.414 25.008V26.94C116.386 29.39 116.078 31.238 115.462 32.47L114.258 31.868C114.846 30.692 115.168 29.054 115.196 26.94V20.458C117.212 20.388 118.906 20.08 120.306 19.52L120.978 20.682C119.606 21.186 118.08 21.466 116.4 21.55L116.414 23.734H121.426V25.008H119.942V32.442H118.64V25.008H116.414ZM127.068 24.742V25.974H132.304V24.742H127.068ZM132.304 27.136H127.068V28.34H132.304V27.136ZM132.304 29.488H127.068V32.414H125.822V25.428C125.094 26.282 124.296 27.066 123.4 27.794L122.546 26.674C124.17 25.386 125.458 23.902 126.382 22.25H122.924V20.962H127.026C127.236 20.458 127.418 19.94 127.586 19.436L128.944 19.59C128.804 20.066 128.65 20.528 128.482 20.962H135.244V22.25H127.908C127.684 22.712 127.432 23.16 127.166 23.594H133.55V31.168C133.55 31.938 133.102 32.33 132.206 32.358H130.638L130.316 31.154C130.834 31.196 131.324 31.224 131.786 31.224C132.122 31.224 132.304 31.07 132.304 30.762V29.488ZM143.42 19.632L144.05 20.724C142.286 21.27 139.92 21.55 136.98 21.55L136.588 20.374C139.29 20.374 141.572 20.122 143.42 19.632ZM142.734 21.522L143.84 21.816C143.574 22.908 143.224 23.86 142.79 24.7L141.74 24.322C142.118 23.58 142.454 22.642 142.734 21.522ZM147.62 19.408L148.502 20.402C147.466 21.676 146.206 22.726 144.722 23.566L144.148 22.362C145.562 21.606 146.724 20.626 147.62 19.408ZM148.236 23.188L149.104 24.168C147.984 25.54 146.598 26.688 144.96 27.598L144.386 26.394C145.954 25.568 147.242 24.504 148.236 23.188ZM148.642 26.982L149.538 27.99C148.194 29.768 146.542 31.238 144.582 32.4L143.98 31.126C145.884 30.09 147.438 28.704 148.642 26.982ZM137.036 25.792H139.976V24.546H141.292V25.792H143.952V27.08H141.292V27.738C142.146 28.2 143 28.732 143.868 29.348L143.084 30.538C142.384 29.88 141.782 29.362 141.292 28.97V32.428H139.976V28.508C139.22 29.698 138.338 30.692 137.33 31.504L136.546 30.356C137.862 29.432 138.898 28.34 139.654 27.08H137.036V25.792ZM140.494 21.732C140.83 22.46 141.082 23.118 141.278 23.734L140.158 24.14C139.948 23.426 139.682 22.726 139.374 22.04L140.494 21.732ZM137.974 21.998C138.366 22.712 138.702 23.538 139.01 24.462L137.946 24.728C137.666 23.888 137.33 23.104 136.924 22.348L137.974 21.998ZM153.29 23.734C152.674 24.098 152.03 24.434 151.358 24.742L150.588 23.636C153.01 22.572 154.97 21.214 156.482 19.562H157.546C158.848 21.186 160.794 22.53 163.398 23.608L162.642 24.714C161.97 24.434 161.326 24.126 160.738 23.79V24.518H157.672V26.212H162.544V27.444H157.672V30.874H158.988C159.422 30.006 159.8 29.068 160.136 28.074L161.34 28.508C161.032 29.39 160.696 30.174 160.332 30.874H163.034V32.134H150.98V30.874H153.724C153.458 30.076 153.122 29.32 152.73 28.606L153.92 28.172C154.312 28.928 154.676 29.824 155.012 30.874H156.356V27.444H151.47V26.212H156.356V24.518H153.29V23.734ZM159.968 23.328C158.82 22.6 157.84 21.76 157.014 20.808C156.09 21.76 155.068 22.6 153.948 23.328H159.968Z" fill="white"/>
<g filter="url(#filter0_iii_2_47680)">
<rect x="289" y="10" width="77" height="32" rx="16" fill="#FFA959"/>
<rect x="289" y="10" width="77" height="32" rx="16" fill="url(#paint0_radial_2_47680)" fill-opacity="0.8"/>
<path d="M313.149 26.736H301.657V25.28H313.149V26.736ZM318.251 29.349L318.485 30.441C318.212 30.61 317.146 31.403 316.405 31.962L315.82 31.052C316.171 30.883 316.158 30.688 316.158 30.363V27.932H315.131V26.827H316.158V25.436H315.443V24.89L314.637 24.357C315.365 23.291 316.067 21.718 316.379 20.405L317.497 20.626C317.38 21.081 317.237 21.536 317.068 21.991H318.498V23.109H316.613C316.431 23.512 316.223 23.928 316.002 24.331H318.121V25.436H317.237V26.827H318.212V27.932H317.237V30.077L318.251 29.349ZM322.762 23.395V22.55H321.475V21.588H322.762V20.509L323.815 20.561V21.588H325.804V23.395H326.402V24.383H325.804V26.112H323.815V26.892H325.804V27.867H323.815V28.569H326.129V29.557H323.815V30.493H322.762V29.557H320.903V28.569H322.762V27.867H321.306V26.892H322.762V26.112H321.462V25.137H322.762V24.383H321.111V23.395H322.762ZM322.892 30.831C324.088 30.87 325.258 30.87 326.454 30.766L326.22 31.845C325.076 31.936 323.919 31.923 322.775 31.884C321.605 31.845 320.578 31.572 319.785 30.61C319.499 31.117 319.135 31.65 318.693 32.235L317.796 31.455C318.355 30.818 318.771 30.207 319.122 29.57C318.823 28.946 318.563 28.153 318.355 27.165L319.265 26.827C319.382 27.334 319.499 27.789 319.668 28.218C319.863 27.555 319.98 26.827 320.019 26.034H318.498V24.942L319.876 22.485H318.745V21.393H321.124V22.498L319.694 24.942H321.046V26.073C320.89 27.49 320.695 28.517 320.318 29.505C320.877 30.285 321.657 30.792 322.892 30.831ZM324.764 22.55H323.815V23.395H324.764V22.55ZM324.764 25.137V24.383H323.815V25.137H324.764ZM333.831 23.772L333.09 24.604C332.648 23.98 331.829 23.057 331.205 22.368C330.542 23.668 329.697 24.812 328.722 25.839L328.111 24.851C329.125 23.668 330.334 21.861 330.815 20.366L331.894 20.717C331.829 20.912 331.777 21.107 331.686 21.302C332.349 21.939 333.246 22.992 333.831 23.681V23.512H335.547L335.846 22.277H333.389V21.068H339.798V22.277H337.133C337.042 22.68 336.925 23.109 336.821 23.512H339.226V29.245H338.004V24.617H335.053V29.258H333.831V23.772ZM332.271 25.475L331.452 26.229C331.14 25.657 330.555 24.773 330.204 24.383L331.01 23.72C331.387 24.136 331.959 24.916 332.271 25.475ZM337.107 25.189V27.282C337.107 29.778 336.405 30.948 333.324 32.547L332.583 31.481C335.443 30.012 335.95 29.206 335.95 26.983V25.124L337.107 25.189ZM331.79 30.142C332.167 30.493 332.492 30.831 332.739 31.078L331.985 32.053C331.257 31.221 329.866 29.947 329.034 29.258L329.749 28.322C330.074 28.582 330.503 28.959 330.958 29.362C331.374 28.738 331.907 27.867 332.141 27.464H328.826V26.32H333.337V27.581C332.882 28.426 332.349 29.297 331.79 30.142ZM336.834 30.259L337.471 29.336C338.29 29.817 339.174 30.532 340.006 31.299L339.317 32.43C338.537 31.598 337.705 30.87 336.834 30.259ZM351.088 28.452C351.699 29.375 352.505 30.155 353.545 31.026L352.752 32.105C351.764 31.234 350.997 30.441 350.386 29.596C349.775 30.441 349.06 31.247 348.085 32.131L347.24 31.13C348.332 30.233 349.099 29.401 349.684 28.478C348.917 27.035 348.488 25.332 348.215 22.901H347.721V22.251H347.188V28.738L348.15 28.556L348.176 29.115L348.202 29.778C348.007 29.817 347.656 29.856 347.188 29.947V32.3H346.031V30.155L341.897 30.935L341.832 29.661C342.027 29.622 342.43 29.57 342.95 29.479V22.251H342.248V21.029H347.994V21.627H352.713V22.901C352.336 25.189 351.92 26.918 351.088 28.452ZM346.031 23.785V22.251H344.107V23.785H346.031ZM351.504 22.901H349.359C349.554 24.682 349.879 26.034 350.386 27.191C350.919 25.982 351.231 24.63 351.504 22.901ZM346.031 26.437V24.942H344.107V26.437H346.031ZM344.107 27.594V29.284C344.731 29.167 345.407 29.05 346.031 28.946V27.594H344.107Z" fill="white"/>
</g>
<rect width="389" height="21" transform="translate(1 49)" fill="#FC8AA3"/>
<rect width="139" height="5" rx="2.5" transform="matrix(-1 0 0 1 265 57)" fill="white"/>
<defs>
<filter id="filter0_iii_2_47680" x="286" y="6" width="83" height="39" filterUnits="userSpaceOnUse" color-interpolation-filters="sRGB">
<feFlood flood-opacity="0" result="BackgroundImageFix"/>
<feBlend mode="normal" in="SourceGraphic" in2="BackgroundImageFix" result="shape"/>
<feColorMatrix in="SourceAlpha" type="matrix" values="0 0 0 0 0 0 0 0 0 0 0 0 0 0 0 0 0 0 127 0" result="hardAlpha"/>
<feOffset dx="3" dy="3"/>
<feGaussianBlur stdDeviation="2.5"/>
<feComposite in2="hardAlpha" operator="arithmetic" k2="-1" k3="1"/>
<feColorMatrix type="matrix" values="0 0 0 0 1 0 0 0 0 0.507912 0 0 0 0 0.328971 0 0 0 1 0"/>
<feBlend mode="normal" in2="shape" result="effect1_innerShadow_2_47680"/>
<feColorMatrix in="SourceAlpha" type="matrix" values="0 0 0 0 0 0 0 0 0 0 0 0 0 0 0 0 0 0 127 0" result="hardAlpha"/>
<feOffset dx="-3" dy="3"/>
<feGaussianBlur stdDeviation="2.5"/>
<feComposite in2="hardAlpha" operator="arithmetic" k2="-1" k3="1"/>
<feColorMatrix type="matrix" values="0 0 0 0 1 0 0 0 0 0.681647 0 0 0 0 0.169515 0 0 0 1 0"/>
<feBlend mode="normal" in2="effect1_innerShadow_2_47680" result="effect2_innerShadow_2_47680"/>
<feColorMatrix in="SourceAlpha" type="matrix" values="0 0 0 0 0 0 0 0 0 0 0 0 0 0 0 0 0 0 127 0" result="hardAlpha"/>
<feOffset dx="-3" dy="-4"/>
<feGaussianBlur stdDeviation="2.5"/>
<feComposite in2="hardAlpha" operator="arithmetic" k2="-1" k3="1"/>
<feColorMatrix type="matrix" values="0 0 0 0 1 0 0 0 0 0.946217 0 0 0 0 0.751807 0 0 0 1 0"/>
<feBlend mode="normal" in2="effect2_innerShadow_2_47680" result="effect3_innerShadow_2_47680"/>
</filter>
<radialGradient id="paint0_radial_2_47680" cx="0" cy="0" r="1" gradientTransform="matrix(-47.4583 16 -5.58809 -19.4398 303 14.5)" gradientUnits="userSpaceOnUse">
<stop offset="0.00442032" stop-color="white"/>
<stop offset="1" stop-color="#F6C600" stop-opacity="0"/>
</radialGradient>
</defs>
</svg>
