<svg width="203" height="20" viewBox="0 0 203 20" fill="none" xmlns="http://www.w3.org/2000/svg">
<path d="M3.63 15.9056L1.298 4.06958L0.88 3.45358H5.324L6.996 12.0996L11.22 3.45358H15.444L9.548 15.9056H3.63ZM22.2461 3.45358L20.3321 15.9056H16.3281L17.8021 4.28959L17.1641 3.45358H22.2461ZM37.8032 3.45358L36.9672 10.2076C36.8499 10.6329 36.6152 10.9849 36.2632 11.2636C35.9259 11.5423 35.5959 11.6816 35.2732 11.6816H27.8812L27.2432 15.9056H23.2392L24.7132 4.06958L24.0752 3.45358H37.8032ZM28.7392 5.56559L28.2992 9.56959H32.7432L33.3812 5.56559H28.7392ZM51.5988 9.76759L51.7748 8.57959H46.3408L46.6268 6.59959H50.0148L50.2348 5.05959H47.2648L47.5508 3.07959H50.4988L50.6308 2.24358L49.8388 1.58359H54.8548L54.6348 3.07959H57.3188L57.0328 5.05959H54.3488L54.1288 6.59959H57.3408L57.0548 8.57959H55.5148L55.3388 9.76759H56.5708L56.3068 11.6816H55.0748L54.4808 15.9056C54.4221 16.3309 54.2168 16.6829 53.8648 16.9616C53.5128 17.2256 53.1168 17.3576 52.6768 17.3576H48.7608L50.8288 15.3116L51.3348 11.6816H46.2748L46.5388 9.76759H51.5988ZM42.0288 4.92759H42.7108L43.1948 1.58359H45.9888L45.5048 4.92759H46.0328L45.7468 7.01759H45.2188L44.6688 10.8896L45.6148 10.7796L45.3288 12.8696L44.3608 12.9796L43.7448 17.4236H40.6428L41.2148 13.3536L38.0688 13.7056L38.3768 11.6156L41.5008 11.2636L42.1168 7.01759H41.5448L41.0608 9.10759H38.7288L40.0488 3.40959L39.6088 2.83758H42.5128L42.0288 4.92759ZM50.1248 15.3336H47.1768L46.2748 12.4736H49.2228L50.1248 15.3336ZM70.099 5.52159L71.067 7.78759L72.871 5.12559L72.981 4.35559H66.865L67.173 2.17759H76.633L76.127 5.71959L72.519 11.1096L75.225 17.3576H71.463L70.231 14.5196L68.317 17.3796H64.577L68.779 11.1756L66.645 6.20358L66.755 5.52159H70.099ZM60.727 6.29159H58.483L58.769 4.20159H61.013L61.299 2.24358L60.749 1.60559H64.929L64.555 4.20159H66.535L66.249 6.29159H64.269L62.685 17.4456H59.143L60.727 6.29159ZM57.031 16.6316L58.791 6.99559H60.353L58.593 16.6316H57.031ZM63.609 15.3776L64.357 6.99559H65.919L65.171 15.3776H63.609ZM81.4713 15.9056H77.2913L78.6773 6.04959L76.9613 6.29159L77.2913 4.00359L83.2533 3.16758L81.4713 15.9056ZM101.926 -0.000415206C101.148 1.37825 100.54 2.82292 100.1 4.33359C99.6743 5.82959 99.4617 7.50159 99.4617 9.34959C99.4617 11.2856 99.667 13.0676 100.078 14.6956C100.503 16.3236 101.126 17.7756 101.948 19.0516H97.4157V-0.000415206H101.926ZM112.464 1.58359L111.98 2.41959H123.618L123.332 4.50959H110.792L110.44 5.12559H122.826L122.298 8.90959H123.552L123.288 10.7796H122.034L121.77 12.6496H122.584L122.276 14.7616H121.462L121.308 15.9716C121.234 16.3969 121.036 16.7489 120.714 17.0276C120.391 17.2916 120.017 17.4236 119.592 17.4236H111.056L113.036 15.3776H118.052L118.14 14.7616H106.788L107.338 10.7796H104.896L105.16 8.90959H107.602L107.822 7.43559H105.358L108.372 2.17759L107.866 1.58359H112.464ZM111.672 7.01759L111.408 8.90959H113.278L113.058 7.65559H116.82L117.04 8.90959H118.954L119.218 7.01759H111.672ZM116.732 11.3956L116.974 12.6496H118.426L118.69 10.7796H111.144L110.88 12.6496H113.212L112.97 11.3956H116.732ZM142.404 2.00159L140.292 17.0496H124.408L126.41 2.83758L125.684 2.00159H142.404ZM136.398 14.9596L137.036 10.3616H129.512L128.874 14.9596H136.398ZM129.82 8.27159H137.344L137.938 4.09159H130.414L129.82 8.27159ZM151.84 2.66158H155.36L155.932 2.11159L155.514 1.58359H160.464L159.518 2.66158H162.268L162.048 4.20159H156.592L156.504 4.81759H161.322L160.288 12.1656H158.198L158.11 12.7376H160.618L160.376 14.5196H157.868L157.67 15.9276C157.612 16.3529 157.414 16.7049 157.076 16.9836C156.754 17.2476 156.38 17.3796 155.954 17.3796H151.708L153.644 15.6416L153.798 14.5196H142.82L143.062 12.7376H154.04L154.128 12.1656H143.524L144.558 4.81759H149.376L149.464 4.20159H144.074L144.294 2.66158H147.264L146.56 1.58359H151.18L151.84 2.66158ZM151.378 17.0496H147.044L145.592 14.8716H149.926L151.378 17.0496ZM147.572 8.35959L147.506 8.86559H157.23L157.296 8.31559H152.852L153.116 6.29159H152.434L152.148 8.35959H147.572ZM156.988 10.6476L157.054 10.1636H147.33L147.264 10.6476H156.988ZM147.77 6.86359H149.112L149.178 6.29159H147.858L147.77 6.86359ZM156.306 6.29159L156.24 6.84159H157.494L157.582 6.29159H156.306ZM152.632 4.81759H153.314L153.402 4.20159H152.72L152.632 4.81759ZM168.647 15.8176L168.867 14.2336H162.135L162.399 12.3416H169.769L172.167 11.4176H164.247L164.511 9.45959H179.119L178.811 11.4396L175.907 12.3416H179.933L179.669 14.2336H173.355L173.069 16.2796C173.025 16.6023 172.841 16.8736 172.519 17.0936C172.211 17.2989 171.844 17.4016 171.419 17.4016H166.777L168.647 15.8176ZM179.735 4.94959L179.185 8.88759H164.093L164.643 4.94959H179.735ZM170.407 2.59559L170.429 2.44158L169.703 1.62758H175.049L174.917 2.59559H181.209L180.967 4.28959H163.851L164.093 2.59559H170.407ZM175.225 7.45759L175.379 6.40159H168.603L168.449 7.45759H175.225ZM184.001 19.0516C184.822 17.7756 185.438 16.3236 185.849 14.6956C186.274 13.0676 186.487 11.2856 186.487 9.34959C186.487 7.50159 186.267 5.82959 185.827 4.33359C185.401 2.82292 184.8 1.37825 184.023 -0.000415206H188.533V19.0516H184.001Z" fill="white"/>
</svg>
