<svg width="9" height="12" viewBox="0 0 9 12" fill="none" xmlns="http://www.w3.org/2000/svg">
<path d="M0.853037 3.00007C4.35284 3.00007 7.84199 8.41926 8.37605 10.0565C7.64405 4.51125 3.35284 1 1.85299 0.999875C1.96193 1.48786 1.62962 1.94835 0.853037 3.00007Z" fill="#FFC87B"/>
<path d="M1.6001 0.101562C1.41915 0.101563 1.26767 0.192078 1.20947 0.362305L1.13818 0.570312C1.0666 0.779693 0.888248 0.923984 0.665527 0.959961L0.437012 0.996094C0.243128 1.02732 0.131646 1.15951 0.106934 1.32031C0.0817537 1.48424 0.146563 1.68573 0.328613 1.83887L0.526855 2.00488C0.70886 2.15783 0.823048 2.37814 0.82666 2.60156L0.82959 2.83301C0.832865 3.03504 0.956504 3.21961 1.13037 3.33008C1.3045 3.44064 1.5104 3.46585 1.67236 3.37695L1.86572 3.27051C2.05766 3.16503 2.29907 3.16804 2.51318 3.2666L2.74365 3.37305C2.95481 3.47025 3.14616 3.43434 3.26514 3.33691C3.38248 3.24063 3.44458 3.07262 3.37549 2.86719L3.29736 2.63574C3.22372 2.41688 3.25564 2.18511 3.396 2.01758L3.53467 1.85156C3.64745 1.71686 3.6522 1.5268 3.56299 1.35059C3.47392 1.17487 3.29801 1.0303 3.08057 0.99707L2.83838 0.959961C2.611 0.92519 2.39856 0.789213 2.26416 0.595703L2.11963 0.386719C1.98644 0.195076 1.78246 0.101564 1.6001 0.101562Z" fill="#FFE37B" stroke="white" stroke-width="0.204057"/>
</svg>
