<svg width="367" height="34" viewBox="0 0 367 34" fill="none" xmlns="http://www.w3.org/2000/svg">
<path d="M1.572 3.376C2.4 3.976 3.096 4.564 3.66 5.152L3.048 5.764C2.544 5.2 1.836 4.6 0.948 3.976L1.572 3.376ZM1.272 6.208C2.064 6.796 2.724 7.384 3.252 7.984L2.64 8.596C2.16 8.044 1.5 7.444 0.66 6.796L1.272 6.208ZM2.784 9.52L3.552 9.832C3.012 11.344 2.412 12.772 1.752 14.104L0.888 13.732C1.608 12.364 2.244 10.96 2.784 9.52ZM4.128 5.224H7.356C7.116 4.576 6.852 3.964 6.54 3.364L7.356 3.136C7.692 3.832 7.956 4.456 8.136 5.032L7.644 5.224H11.22V6.076H8.124V8.956H10.896V9.784H8.124V12.94H11.448V13.792H3.828V12.94H7.248V9.784H4.464V8.956H7.248V6.076H4.128V5.224ZM13.584 7.156C13.776 7.156 13.956 7.228 14.1 7.372C14.244 7.516 14.316 7.684 14.316 7.888C14.316 8.092 14.244 8.272 14.1 8.416C13.956 8.548 13.776 8.62 13.584 8.62C13.368 8.62 13.2 8.548 13.068 8.416C12.924 8.272 12.852 8.092 12.852 7.888C12.852 7.684 12.924 7.516 13.068 7.372C13.2 7.228 13.368 7.156 13.584 7.156ZM13.584 11.548C13.776 11.548 13.956 11.62 14.1 11.764C14.244 11.908 14.316 12.076 14.316 12.28C14.316 12.484 14.244 12.664 14.1 12.808C13.956 12.94 13.776 13.012 13.584 13.012C13.368 13.012 13.2 12.94 13.068 12.808C12.924 12.664 12.852 12.484 12.852 12.28C12.852 12.076 12.924 11.908 13.068 11.764C13.2 11.62 13.368 11.548 13.584 11.548ZM19.8442 8.896H30.4762V9.64H25.4122L25.0042 10.504H29.6722V13.132C29.6722 13.828 29.3122 14.188 28.6042 14.188H27.7522L27.5602 13.444L28.3642 13.48C28.6762 13.48 28.8322 13.3 28.8322 12.952V11.248H26.9002V14.092H26.0722V11.248H24.2962V14.092H23.4682V11.248H21.6682V14.236H20.8522V10.504H24.1282L24.5362 9.64H19.8442V8.896ZM20.5762 3.604H29.7562V4.312H25.5802V5.068H30.1882V7.54H29.3602V5.752H25.5802V8.404H24.7402V5.752H20.9602V7.54H20.1322V5.068H24.7402V4.312H20.5762V3.604ZM21.6082 6.424H24.1042V7H21.6082V6.424ZM21.6082 7.624H24.1042V8.2H21.6082V7.624ZM26.2042 6.424H28.6882V7H26.2042V6.424ZM26.2162 7.624H28.7242V8.2H26.2162V7.624ZM31.8562 3.676H42.4642V4.456H38.9242V5.524H41.7202V8.548H36.7282C36.5122 8.932 36.3082 9.28 36.1162 9.616H42.6082V10.408H40.0282C39.7882 11.128 39.3442 11.74 38.7082 12.256C39.9322 12.628 41.1802 13.06 42.4522 13.564L41.9122 14.272C40.5922 13.708 39.2602 13.216 37.9282 12.784C36.7882 13.396 34.9162 13.876 32.3242 14.224L32.0002 13.456C34.1362 13.204 35.7562 12.868 36.8362 12.448C35.8402 12.148 34.8442 11.884 33.8482 11.656C34.1362 11.236 34.4002 10.816 34.6642 10.408H31.7002V9.616H35.1442C35.3602 9.244 35.5642 8.884 35.7562 8.548H32.6002V5.524H35.3962V4.456H31.8562V3.676ZM37.7842 11.98C38.4562 11.56 38.9122 11.032 39.1522 10.408H35.6482C35.4442 10.732 35.2522 11.032 35.0722 11.296C35.9602 11.488 36.8602 11.716 37.7842 11.98ZM38.0962 5.524V4.456H36.2242V5.524H38.0962ZM40.8922 7.804V6.28H38.9242V7.804H40.8922ZM38.0962 7.804V6.28H36.2242V7.804H38.0962ZM35.3962 7.804V6.28H33.4282V7.804H35.3962ZM53.0002 9.112V14.26H52.1482V13.732H46.1722V14.26H45.3202V9.112H53.0002ZM46.1722 12.988H52.1482V11.752H46.1722V12.988ZM46.1722 11.032H52.1482V9.832H46.1722V11.032ZM44.4082 3.7H53.9122V4.516H50.8282V7.324H54.3682V8.164H43.9522V7.324H47.5042V4.516H44.4082V3.7ZM49.9882 7.324V4.516H48.3442V7.324H49.9882ZM52.4962 4.864L53.2762 5.068C53.0242 5.812 52.7002 6.46 52.3162 7.012L51.5722 6.748C51.9322 6.244 52.2322 5.62 52.4962 4.864ZM45.7162 4.912C46.1002 5.476 46.4362 6.076 46.7242 6.7L46.0042 7.024C45.6922 6.328 45.3322 5.704 44.9482 5.164L45.7162 4.912ZM59.3362 11.668V12.484C58.2802 12.916 57.0922 13.264 55.7482 13.516L55.6402 12.676C57.0442 12.424 58.2802 12.088 59.3362 11.668ZM57.8722 3.184L58.6882 3.508C58.0642 5.02 57.4282 6.22 56.7802 7.108C57.3562 7.048 57.9322 6.976 58.5082 6.88C58.7362 6.472 58.9762 6.052 59.2282 5.608L59.9842 5.884C58.8562 7.828 57.9322 9.22 57.1882 10.048C58.0522 9.892 58.9282 9.676 59.7922 9.412V10.192C58.5202 10.576 57.2962 10.828 56.1322 10.972L55.9042 10.192C56.0602 10.132 56.1922 10.048 56.3002 9.952C56.7802 9.496 57.3562 8.74 58.0282 7.66C57.3322 7.768 56.6362 7.864 55.9402 7.948L55.7242 7.156C55.8562 7.108 55.9762 7 56.0842 6.844C56.7682 5.776 57.3682 4.552 57.8722 3.184ZM61.1482 4.504H59.9602V3.688H65.2282V4.228C65.0362 5.308 64.8442 6.232 64.6522 7H66.1762V7.48C65.9242 9.136 65.3722 10.54 64.5082 11.68C65.1322 12.352 65.8642 12.94 66.7042 13.468L66.1642 14.188C65.3242 13.636 64.5922 13.012 63.9922 12.316C63.2722 13.084 62.3842 13.708 61.3522 14.212L60.8722 13.42C61.8802 12.928 62.7322 12.316 63.4162 11.596C62.6962 10.624 62.1442 9.52 61.7722 8.296C61.4122 10.828 60.6202 12.784 59.4082 14.152L58.7722 13.588C60.3322 11.836 61.1242 9.028 61.1482 5.152V4.504ZM63.9202 10.996C64.6162 10.072 65.0722 8.992 65.3122 7.756H63.6442C63.8602 7.012 64.0882 5.932 64.3402 4.504H61.9882V5.152C61.9882 5.596 61.9762 6.028 61.9522 6.436C62.2522 8.188 62.9122 9.712 63.9202 10.996ZM67.2202 4.432H68.3002L70.9762 11.932H71.0122L73.6882 4.432H74.7682L71.6002 13H70.3882L67.2202 4.432ZM75.7602 4.432H76.7322V13H75.7602V4.432ZM78.5359 4.432H82.0399C84.0079 4.432 84.9919 5.272 84.9919 6.952C84.9919 8.644 83.9959 9.496 82.0279 9.496H79.5199V13H78.5359V4.432ZM79.5199 5.284V8.644H81.9799C82.6759 8.644 83.1799 8.5 83.5159 8.224C83.8399 7.948 84.0079 7.528 84.0079 6.952C84.0079 6.376 83.8399 5.956 83.5039 5.704C83.1679 5.416 82.6639 5.284 81.9799 5.284H79.5199ZM90.2191 5.272V13.456H89.3791V12.772H87.1951V13.804H86.3551V5.272H87.4711C87.7111 4.6 87.8791 3.904 87.9871 3.184L88.8511 3.304C88.7071 4.012 88.5271 4.672 88.2871 5.272H90.2191ZM87.1951 11.968H89.3791V9.34H87.1951V11.968ZM87.1951 8.56H89.3791V6.088H87.1951V8.56ZM92.3071 8.056C93.1711 9.052 93.8191 9.928 94.2751 10.672L93.5911 11.152C93.0991 10.36 92.4391 9.472 91.6111 8.488L92.3071 8.056ZM96.4231 5.284C96.4231 9.268 96.3631 11.74 96.2431 12.676C96.1231 13.588 95.5711 14.056 94.5631 14.056C94.3231 14.056 93.9151 14.032 93.3391 14.008L93.1351 13.216C93.6391 13.24 94.0711 13.252 94.4431 13.252C95.0071 13.252 95.3311 12.94 95.4271 12.328C95.4991 11.656 95.5471 9.58 95.5711 6.124H92.2711C91.9351 6.88 91.5391 7.564 91.0711 8.176L90.5551 7.492C91.3951 6.316 91.9591 4.876 92.2711 3.172L93.1231 3.28C92.9791 3.988 92.8111 4.66 92.5951 5.284H96.4231ZM99.5191 4.9H98.0071V4.096H101.907V4.9H100.395V7.6H101.655V8.38H100.395V11.104C100.935 10.9 101.451 10.684 101.931 10.468V11.344C100.851 11.848 99.6031 12.328 98.1631 12.76L97.9231 11.884C98.4751 11.728 99.0031 11.572 99.5191 11.404V8.38H98.1751V7.6H99.5191V4.9ZM103.647 8.128H102.075V7.276H108.495V8.128H106.779V12.712C106.779 13.048 106.911 13.228 107.199 13.228H107.535C107.679 13.228 107.787 13.18 107.859 13.084C107.979 12.964 108.063 12.388 108.099 11.356L108.903 11.632C108.819 12.796 108.699 13.492 108.543 13.708C108.375 13.912 108.099 14.02 107.715 14.02H106.923C106.587 14.02 106.335 13.912 106.167 13.708C105.987 13.492 105.903 13.216 105.903 12.904V8.128H104.475V8.968C104.439 11.32 103.395 13.048 101.355 14.14L100.707 13.576C102.627 12.616 103.611 11.08 103.647 8.968V8.128ZM102.495 3.904H108.111V4.732H102.495V3.904ZM117.255 9.52C117.015 9.592 116.763 9.664 116.523 9.724C116.715 10.312 116.823 10.936 116.835 11.596C116.835 12.544 116.703 13.204 116.451 13.564C116.163 13.972 115.491 14.188 114.459 14.188H114.051L113.763 13.432H114.339C115.047 13.42 115.491 13.312 115.671 13.108C115.887 12.844 115.995 12.34 115.995 11.596C115.983 11.38 115.971 11.188 115.947 10.996C114.603 12.052 112.851 12.904 110.679 13.564L110.247 12.82C112.623 12.124 114.471 11.248 115.779 10.168C115.683 9.856 115.575 9.556 115.431 9.268C114.303 10.156 112.767 10.876 110.823 11.428L110.391 10.684C112.407 10.156 113.967 9.484 115.059 8.644C114.915 8.416 114.747 8.212 114.579 8.02C114.483 8.068 114.399 8.104 114.315 8.152C113.487 8.536 112.395 8.92 111.051 9.304L110.607 8.596C111.759 8.344 112.803 8.02 113.727 7.624C114.159 7.432 114.579 7.24 114.963 7.024H111.783V6.22H118.971V7.024H116.223C115.887 7.252 115.563 7.468 115.239 7.66C115.659 8.092 115.995 8.56 116.247 9.064C117.363 8.752 118.419 8.272 119.427 7.612L120.015 8.2C119.379 8.62 118.695 8.98 117.951 9.268C118.515 10.78 119.439 11.98 120.711 12.88L120.099 13.588C118.779 12.52 117.831 11.164 117.255 9.52ZM115.515 3.112C115.659 3.448 115.791 3.832 115.923 4.252H120.435V6.34H119.583V5.056H111.159V6.34H110.307V4.252H115.059C114.927 3.892 114.783 3.556 114.639 3.268L115.515 3.112ZM125.991 3.244C126.939 3.988 127.731 4.744 128.379 5.488L127.779 6.088C127.203 5.38 126.411 4.612 125.403 3.796L125.991 3.244ZM129.867 3.592L130.659 3.94C129.579 7.6 127.995 10.36 125.907 12.232V12.388C125.907 12.748 126.111 12.928 126.519 12.928H128.595C128.943 12.928 129.183 12.808 129.327 12.58C129.519 12.304 129.639 11.476 129.711 10.108L130.527 10.384C130.431 11.98 130.239 12.952 129.951 13.312C129.699 13.6 129.303 13.756 128.751 13.756H126.243C125.571 13.756 125.175 13.468 125.079 12.916C124.407 13.408 123.711 13.816 122.979 14.152L122.475 13.432C123.411 13 124.275 12.46 125.043 11.812V5.704H125.907V11.02C127.683 9.208 129.003 6.736 129.867 3.592ZM123.291 6.82L124.119 6.988C123.759 8.896 123.255 10.54 122.607 11.92L121.863 11.464C122.511 10.06 122.991 8.512 123.291 6.82ZM130.983 6.988C131.727 8.404 132.387 9.928 132.939 11.548L132.159 11.896C131.559 10.144 130.887 8.596 130.167 7.252L130.983 6.988ZM138.483 3.712H144.711V4.552H142.059C142.011 5.008 141.963 5.428 141.891 5.836H144.303V11.5H143.463V6.628H139.743V11.5H138.903V5.836H141.003C141.087 5.428 141.147 4.996 141.183 4.552H138.483V3.712ZM141.171 7.336H142.023V9.436C141.987 10.708 141.651 11.728 141.015 12.496C140.403 13.204 139.395 13.756 137.991 14.152L137.511 13.384C138.879 13.024 139.827 12.532 140.367 11.92C140.871 11.284 141.135 10.456 141.171 9.436V7.336ZM137.427 3.268L137.967 3.868C137.055 4.828 135.927 5.644 134.583 6.292L134.211 5.5C135.519 4.924 136.587 4.18 137.427 3.268ZM137.583 6.496L138.111 7.096C137.175 8.152 136.011 9.028 134.619 9.724L134.247 8.932C135.591 8.308 136.707 7.504 137.583 6.496ZM137.799 10.108L138.339 10.72C137.319 12.028 136.035 13.12 134.499 13.984L134.103 13.144C135.591 12.376 136.827 11.368 137.799 10.108ZM142.611 11.56C143.499 12.232 144.255 12.892 144.855 13.552L144.219 14.188C143.679 13.54 142.947 12.856 142.011 12.124L142.611 11.56ZM147.183 5.068H152.355C152.739 4.468 153.087 3.808 153.387 3.112L154.227 3.412C153.939 4.024 153.615 4.576 153.255 5.068H155.559V10H151.803V11.14H156.699V11.956H151.803V14.236H150.939V11.956H146.043V11.14H150.939V10H147.183V5.068ZM154.719 9.232V7.888H151.803V9.232H154.719ZM150.939 9.232V7.888H148.023V9.232H150.939ZM148.023 7.144H150.939V5.824H148.023V7.144ZM151.803 5.824V7.144H154.719V5.824H151.803ZM149.307 3.172C149.703 3.628 150.075 4.144 150.435 4.696L149.715 5.056C149.355 4.48 148.983 3.976 148.575 3.52L149.307 3.172ZM167.199 3.676V14.14H166.323V13.228H160.647V14.152H159.783V3.676H167.199ZM160.647 12.388H166.323V8.776H160.647V12.388ZM160.647 7.936H166.323V4.516H160.647V7.936ZM175.359 3.148C175.563 3.58 175.755 4.072 175.947 4.624H180.315V5.428H174.771C173.967 6.712 173.259 7.624 172.659 8.164C174.423 8.068 176.175 7.912 177.927 7.72C177.615 7.3 177.291 6.88 176.943 6.448L177.615 6.028C178.647 7.252 179.439 8.308 179.991 9.22L179.271 9.724C179.019 9.292 178.743 8.86 178.431 8.416C176.307 8.644 174.003 8.824 171.519 8.956L171.315 8.176C171.399 8.152 171.459 8.128 171.507 8.104C172.107 7.768 172.899 6.88 173.871 5.428H170.427V4.624H175.083C174.891 4.144 174.675 3.7 174.435 3.292L175.359 3.148ZM173.295 9.4H174.135C174.051 10.792 173.775 11.8 173.295 12.436C172.767 13.108 171.903 13.696 170.691 14.188L170.151 13.504C171.255 13.096 172.035 12.616 172.503 12.064C172.959 11.512 173.223 10.624 173.295 9.4ZM179.151 14.008H177.279C176.451 14.008 176.043 13.6 176.043 12.784V9.244H176.895V12.64C176.895 13 177.099 13.192 177.519 13.192H178.923C179.151 13.192 179.343 13.132 179.499 13.012C179.691 12.844 179.823 12.256 179.883 11.248L180.675 11.488C180.567 12.7 180.387 13.432 180.147 13.684C179.907 13.888 179.583 13.996 179.151 14.008ZM188.763 3.148L189.615 3.268C189.591 3.628 189.555 3.988 189.531 4.324H192.507V5.116H189.435C189.387 5.476 189.327 5.824 189.279 6.16H191.715V13.048H192.855V13.84H184.995V13.048H186.231V6.16H188.427C188.475 5.812 188.535 5.464 188.583 5.116H185.511V4.324H188.667C188.703 3.928 188.739 3.532 188.763 3.148ZM187.059 13.048H190.887V11.992H187.059V13.048ZM187.059 11.296H190.887V10.288H187.059V11.296ZM187.059 9.592H190.887V8.608H187.059V9.592ZM187.059 7.912H190.887V6.94H187.059V7.912ZM183.519 7.228C183.111 7.852 182.667 8.44 182.175 8.992L181.887 8.08C183.075 6.652 183.939 5.008 184.467 3.16L185.247 3.52C185.007 4.3 184.707 5.044 184.359 5.752V14.2H183.519V7.228ZM204.315 3.904V14.2H203.475V13.456H199.539V14.212H198.711V3.904H204.315ZM199.539 12.64H203.475V10.516H199.539V12.64ZM199.539 9.712H203.475V7.588H199.539V9.712ZM199.539 6.784H203.475V4.72H199.539V6.784ZM196.599 7.924V14.188H195.747V8.104C195.339 9.256 194.823 10.288 194.175 11.224L193.839 10.372C194.715 9.208 195.339 7.876 195.723 6.376H194.055V5.548H195.747V3.208H196.599V5.548H198.147V6.376H196.599V7.012C197.151 7.588 197.703 8.236 198.255 8.944L197.787 9.64C197.331 8.944 196.935 8.368 196.599 7.924ZM211.095 5.524H214.575V3.172H215.439V5.524H216.771V6.352H215.439V12.952C215.439 13.756 215.019 14.164 214.203 14.164H212.319L212.139 13.312C212.763 13.348 213.351 13.372 213.903 13.372C214.347 13.372 214.575 13.156 214.575 12.736V6.352H211.095V5.524ZM206.799 6.304C207.555 7.12 208.251 7.948 208.899 8.764C209.343 7.684 209.607 6.508 209.691 5.236H206.403V4.396H210.471V5.032C210.411 6.664 210.075 8.152 209.451 9.484C209.955 10.156 210.423 10.84 210.843 11.512L210.219 12.136C209.859 11.536 209.463 10.936 209.031 10.324C208.371 11.476 207.483 12.508 206.379 13.42L205.875 12.664C207.003 11.8 207.879 10.78 208.503 9.604C207.831 8.704 207.063 7.78 206.223 6.844L206.799 6.304ZM211.743 7.768C212.547 8.752 213.171 9.628 213.603 10.396L212.919 10.876C212.439 10.048 211.827 9.172 211.083 8.248L211.743 7.768ZM220.047 12.844H225.051C225.795 11.14 226.443 9.04 226.995 6.52L227.847 6.748C227.343 9.028 226.731 11.068 225.987 12.844H228.519V13.684H220.047V12.844ZM221.355 7.108C221.835 8.38 222.267 9.856 222.651 11.512L221.835 11.716C221.511 10.204 221.103 8.74 220.599 7.348L221.355 7.108ZM223.671 6.256C224.079 7.576 224.451 9.1 224.787 10.804L223.959 10.996C223.695 9.436 223.347 7.936 222.915 6.496L223.671 6.256ZM223.683 3.1C223.911 3.472 224.127 3.892 224.319 4.348H228.711V5.188H219.819V7.864C219.771 10.504 219.363 12.616 218.583 14.2L217.875 13.564C218.547 12.196 218.907 10.3 218.931 7.864V4.348H223.383C223.191 3.964 222.975 3.604 222.735 3.268L223.683 3.1ZM234.219 5.272V13.456H233.379V12.772H231.195V13.804H230.355V5.272H231.471C231.711 4.6 231.879 3.904 231.987 3.184L232.851 3.304C232.707 4.012 232.527 4.672 232.287 5.272H234.219ZM231.195 11.968H233.379V9.34H231.195V11.968ZM231.195 8.56H233.379V6.088H231.195V8.56ZM236.307 8.056C237.171 9.052 237.819 9.928 238.275 10.672L237.591 11.152C237.099 10.36 236.439 9.472 235.611 8.488L236.307 8.056ZM240.423 5.284C240.423 9.268 240.363 11.74 240.243 12.676C240.123 13.588 239.571 14.056 238.563 14.056C238.323 14.056 237.915 14.032 237.339 14.008L237.135 13.216C237.639 13.24 238.071 13.252 238.443 13.252C239.007 13.252 239.331 12.94 239.427 12.328C239.499 11.656 239.547 9.58 239.571 6.124H236.271C235.935 6.88 235.539 7.564 235.071 8.176L234.555 7.492C235.395 6.316 235.959 4.876 236.271 3.172L237.123 3.28C236.979 3.988 236.811 4.66 236.595 5.284H240.423ZM241.431 4.432H242.511L245.187 11.932H245.223L247.899 4.432H248.979L245.811 13H244.599L241.431 4.432ZM249.971 4.432H250.943V13H249.971V4.432ZM252.747 4.432H256.251C258.219 4.432 259.203 5.272 259.203 6.952C259.203 8.644 258.207 9.496 256.239 9.496H253.731V13H252.747V4.432ZM253.731 5.284V8.644H256.191C256.887 8.644 257.391 8.5 257.727 8.224C258.051 7.948 258.219 7.528 258.219 6.952C258.219 6.376 258.051 5.956 257.715 5.704C257.379 5.416 256.875 5.284 256.191 5.284H253.731ZM261.574 6.736H265.15V5.98H266.014V6.736H269.542V7.492H266.014V8.656H270.91V9.412H268.594V10.564H270.394V11.32H268.594V13.204C268.594 13.864 268.234 14.2 267.526 14.2H265.786L265.606 13.384C266.182 13.42 266.722 13.444 267.226 13.444C267.562 13.444 267.73 13.288 267.73 13V11.32H260.95V10.564H267.73V9.412H260.242V8.656H265.15V7.492H261.574V6.736ZM262.978 11.656C263.626 12.28 264.118 12.844 264.454 13.324L263.782 13.792C263.41 13.276 262.906 12.712 262.282 12.088L262.978 11.656ZM262.006 4.804C261.718 5.356 261.382 5.872 261.01 6.328L260.266 5.86C260.962 5.032 261.478 4.12 261.802 3.136L262.618 3.316C262.522 3.58 262.438 3.832 262.342 4.072H265.414V4.804H263.386C263.698 5.224 263.95 5.608 264.142 5.968L263.362 6.256C263.122 5.752 262.822 5.272 262.486 4.804H262.006ZM266.878 4.768C266.674 5.176 266.446 5.536 266.206 5.872L265.486 5.416C266.014 4.72 266.386 3.964 266.626 3.124L267.442 3.292C267.37 3.544 267.286 3.796 267.202 4.036H270.658V4.768H268.486C268.81 5.188 269.062 5.584 269.242 5.944L268.498 6.22C268.246 5.716 267.946 5.236 267.586 4.768H266.878ZM275.758 11.668V12.484C274.702 12.916 273.514 13.264 272.17 13.516L272.062 12.676C273.466 12.424 274.702 12.088 275.758 11.668ZM274.294 3.184L275.11 3.508C274.486 5.02 273.85 6.22 273.202 7.108C273.778 7.048 274.354 6.976 274.93 6.88C275.158 6.472 275.398 6.052 275.65 5.608L276.406 5.884C275.278 7.828 274.354 9.22 273.61 10.048C274.474 9.892 275.35 9.676 276.214 9.412V10.192C274.942 10.576 273.718 10.828 272.554 10.972L272.326 10.192C272.482 10.132 272.614 10.048 272.722 9.952C273.202 9.496 273.778 8.74 274.45 7.66C273.754 7.768 273.058 7.864 272.362 7.948L272.146 7.156C272.278 7.108 272.398 7 272.506 6.844C273.19 5.776 273.79 4.552 274.294 3.184ZM277.57 4.504H276.382V3.688H281.65V4.228C281.458 5.308 281.266 6.232 281.074 7H282.598V7.48C282.346 9.136 281.794 10.54 280.93 11.68C281.554 12.352 282.286 12.94 283.126 13.468L282.586 14.188C281.746 13.636 281.014 13.012 280.414 12.316C279.694 13.084 278.806 13.708 277.774 14.212L277.294 13.42C278.302 12.928 279.154 12.316 279.838 11.596C279.118 10.624 278.566 9.52 278.194 8.296C277.834 10.828 277.042 12.784 275.83 14.152L275.194 13.588C276.754 11.836 277.546 9.028 277.57 5.152V4.504ZM280.342 10.996C281.038 10.072 281.494 8.992 281.734 7.756H280.066C280.282 7.012 280.51 5.932 280.762 4.504H278.41V5.152C278.41 5.596 278.398 6.028 278.374 6.436C278.674 8.188 279.334 9.712 280.342 10.996ZM286.438 6.628C285.862 6.976 285.262 7.3 284.638 7.588L284.134 6.868C286.222 5.932 287.926 4.744 289.246 3.292H289.942C291.094 4.72 292.786 5.896 295.018 6.832L294.526 7.552C293.89 7.288 293.302 6.988 292.75 6.664V7.324H290.026V9.052H294.298V9.856H290.026V13.06H291.358C291.766 12.28 292.126 11.44 292.438 10.54L293.23 10.816C292.93 11.656 292.594 12.412 292.234 13.06H294.718V13.888H284.458V13.06H286.942C286.69 12.292 286.366 11.584 285.982 10.912L286.762 10.624C287.134 11.296 287.47 12.112 287.782 13.06H289.162V9.856H284.878V9.052H289.162V7.324H286.438V6.628ZM292.546 6.544C291.37 5.848 290.386 5.032 289.594 4.108C288.694 5.044 287.686 5.86 286.57 6.544H292.546ZM1.872 25.02C1.596 25.296 1.308 25.56 0.996 25.8L0.54 25.188C1.524 24.444 2.196 23.544 2.544 22.476L3.324 22.584C3.228 22.86 3.132 23.124 3.024 23.364H5.268V23.952C4.956 24.576 4.596 25.116 4.2 25.572C4.956 26.028 5.628 26.472 6.228 26.916L5.688 27.456C5.136 27 4.476 26.544 3.708 26.076C2.892 26.82 1.908 27.336 0.78 27.636L0.456 26.988C1.476 26.748 2.34 26.316 3.06 25.692C2.676 25.464 2.28 25.236 1.872 25.02ZM3.564 25.2C3.888 24.84 4.176 24.456 4.416 24.036H2.652C2.544 24.204 2.436 24.36 2.316 24.516C2.76 24.744 3.18 24.972 3.564 25.2ZM5.844 21.348V23.328H5.088V22.092H1.56V23.34H0.804V21.348H3C2.832 20.964 2.652 20.604 2.46 20.28L3.324 20.136C3.492 20.496 3.66 20.892 3.828 21.348H5.844ZM5.256 27.48V31.128H4.488V30.504H2.328V31.128H1.548V27.48H5.256ZM2.328 29.772H4.488V28.2H2.328V29.772ZM6.252 20.7H11.52V21.492H9.312C9.252 21.972 9.168 22.416 9.072 22.848H11.088V28.476H10.32V23.568H7.32V28.488H6.552V22.848H8.268C8.364 22.416 8.436 21.96 8.484 21.492H6.252V20.7ZM9.552 28.668C10.368 29.328 11.04 29.988 11.592 30.648L11.028 31.2C10.548 30.564 9.876 29.892 9.036 29.172L9.552 28.668ZM8.412 24.276H9.168V26.46C9.144 27.744 8.904 28.776 8.46 29.544C8.016 30.264 7.296 30.816 6.3 31.212L5.856 30.528C6.804 30.144 7.464 29.64 7.848 29.016C8.196 28.356 8.388 27.504 8.412 26.46V24.276ZM13.584 28.572C13.848 28.572 14.076 28.68 14.244 28.908C14.4 29.124 14.484 29.4 14.484 29.748C14.484 30.276 14.328 30.744 14.016 31.152C13.704 31.536 13.284 31.8 12.768 31.932V31.344C13.08 31.236 13.344 31.056 13.536 30.816C13.704 30.564 13.8 30.3 13.8 30.012C13.74 30.036 13.656 30.06 13.536 30.06C13.332 30.06 13.164 29.988 13.02 29.844C12.876 29.7 12.804 29.52 12.804 29.316C12.804 29.088 12.876 28.908 13.032 28.776C13.164 28.632 13.344 28.572 13.584 28.572ZM25.0041 26.112V31.26H24.1521V30.732H18.1761V31.26H17.3241V26.112H25.0041ZM18.1761 29.988H24.1521V28.752H18.1761V29.988ZM18.1761 28.032H24.1521V26.832H18.1761V28.032ZM16.4121 20.7H25.9161V21.516H22.8321V24.324H26.3721V25.164H15.9561V24.324H19.5081V21.516H16.4121V20.7ZM21.9921 24.324V21.516H20.3481V24.324H21.9921ZM24.5001 21.864L25.2801 22.068C25.0281 22.812 24.7041 23.46 24.3201 24.012L23.5761 23.748C23.9361 23.244 24.2361 22.62 24.5001 21.864ZM17.7201 21.912C18.1041 22.476 18.4401 23.076 18.7281 23.7L18.0081 24.024C17.6961 23.328 17.3361 22.704 16.9521 22.164L17.7201 21.912ZM31.3401 28.668V29.484C30.2841 29.916 29.0961 30.264 27.7521 30.516L27.6441 29.676C29.0481 29.424 30.2841 29.088 31.3401 28.668ZM29.8761 20.184L30.6921 20.508C30.0681 22.02 29.4321 23.22 28.7841 24.108C29.3601 24.048 29.9361 23.976 30.5121 23.88C30.7401 23.472 30.9801 23.052 31.2321 22.608L31.9881 22.884C30.8601 24.828 29.9361 26.22 29.1921 27.048C30.0561 26.892 30.9321 26.676 31.7961 26.412V27.192C30.5241 27.576 29.3001 27.828 28.1361 27.972L27.9081 27.192C28.0641 27.132 28.1961 27.048 28.3041 26.952C28.7841 26.496 29.3601 25.74 30.0321 24.66C29.3361 24.768 28.6401 24.864 27.9441 24.948L27.7281 24.156C27.8601 24.108 27.9801 24 28.0881 23.844C28.7721 22.776 29.3721 21.552 29.8761 20.184ZM33.1521 21.504H31.9641V20.688H37.2321V21.228C37.0401 22.308 36.8481 23.232 36.6561 24H38.1801V24.48C37.9281 26.136 37.3761 27.54 36.5121 28.68C37.1361 29.352 37.8681 29.94 38.7081 30.468L38.1681 31.188C37.3281 30.636 36.5961 30.012 35.9961 29.316C35.2761 30.084 34.3881 30.708 33.3561 31.212L32.8761 30.42C33.8841 29.928 34.7361 29.316 35.4201 28.596C34.7001 27.624 34.1481 26.52 33.7761 25.296C33.4161 27.828 32.6241 29.784 31.4121 31.152L30.7761 30.588C32.3361 28.836 33.1281 26.028 33.1521 22.152V21.504ZM35.9241 27.996C36.6201 27.072 37.0761 25.992 37.3161 24.756H35.6481C35.8641 24.012 36.0921 22.932 36.3441 21.504H33.9921V22.152C33.9921 22.596 33.9801 23.028 33.9561 23.436C34.2561 25.188 34.9161 26.712 35.9241 27.996ZM48.0921 20.16C48.6681 20.592 49.1601 21.036 49.5681 21.48L49.0161 22.032H50.4801V22.86H46.7841C46.8681 24.348 47.0241 25.524 47.2401 26.388C47.3121 26.688 47.3961 26.964 47.4801 27.228C48.0801 26.268 48.5601 25.14 48.9321 23.856L49.7121 24.192C49.2321 25.776 48.6081 27.12 47.8401 28.2C48.0081 28.584 48.1881 28.92 48.3801 29.196C48.7761 29.772 49.1001 30.06 49.3401 30.06C49.5561 30.048 49.7601 29.424 49.9401 28.188L50.7201 28.62C50.4321 30.216 50.0241 31.02 49.4841 31.02C48.9801 31.02 48.4401 30.66 47.8641 29.94C47.6481 29.652 47.4441 29.316 47.2641 28.944C46.4241 29.928 45.4401 30.66 44.3121 31.164L43.8321 30.444C45.0321 29.904 46.0521 29.112 46.8801 28.068C46.7121 27.624 46.5561 27.144 46.4241 26.628C46.1601 25.62 45.9921 24.36 45.8961 22.86H41.7801V24.852H44.7201C44.6961 26.88 44.6001 28.188 44.4441 28.776C44.2881 29.292 43.9161 29.556 43.3161 29.58C43.0281 29.58 42.6801 29.556 42.2961 29.532L42.0321 28.752C42.5001 28.776 42.8961 28.788 43.2201 28.788C43.4841 28.776 43.6521 28.596 43.7241 28.26C43.7961 27.852 43.8321 26.988 43.8561 25.668H41.7801V26.028C41.7321 28.176 41.2521 29.904 40.3641 31.2L39.7041 30.612C40.4721 29.508 40.8681 27.984 40.9041 26.028V22.032H45.8601C45.8361 21.432 45.8241 20.82 45.8241 20.172H46.7121C46.7121 20.844 46.7241 21.456 46.7481 22.032H48.9921C48.6321 21.6 48.1521 21.156 47.5401 20.688L48.0921 20.16ZM53.5161 22.368H51.7881V21.54H56.1201V22.368H54.3921V27.876C55.0281 27.696 55.6521 27.492 56.2641 27.252V28.116C54.8961 28.62 53.4321 29.028 51.8721 29.364L51.6561 28.5C52.2801 28.392 52.9041 28.26 53.5161 28.116V22.368ZM58.3281 20.232H59.2161V22.656H62.2641C62.2641 26.4 62.2041 28.716 62.0841 29.604C61.9401 30.588 61.2561 31.092 60.0441 31.092C59.8281 31.092 59.4681 31.068 58.9521 31.044L58.7481 30.24C59.1921 30.264 59.5761 30.276 59.9121 30.276C60.6921 30.276 61.1481 29.928 61.2681 29.244C61.3401 28.62 61.3881 26.7 61.4121 23.496H59.2161C59.1561 27.024 58.1961 29.604 56.3481 31.248L55.6401 30.636C57.3921 29.148 58.2801 26.76 58.3281 23.496H56.4201V22.656H58.3281V20.232ZM68.6601 20.148C69.0321 20.772 69.3921 21.492 69.7401 22.296H73.4841V22.944C72.0921 25.596 70.0401 27.624 67.3401 29.016L67.4241 29.1C67.9401 29.676 68.6121 30 69.4401 30.072C69.9921 30.096 70.7961 30.108 71.8281 30.108C72.4641 30.108 73.3401 30.084 74.4681 30.048L74.2641 30.912H71.9601C70.9041 30.912 70.1481 30.9 69.6921 30.876C68.4201 30.852 67.4361 30.42 66.7521 29.556C66.5241 29.292 66.3201 29.16 66.1521 29.16C65.8281 29.16 65.3241 29.82 64.6521 31.164L63.9561 30.684C64.7481 29.064 65.4801 28.26 66.1761 28.26C66.3441 28.26 66.4761 28.296 66.5841 28.368L66.7041 28.44C69.2001 27.132 71.1081 25.368 72.4281 23.136H64.6761V22.296H68.8041C68.4801 21.576 68.1081 20.916 67.6761 20.316L68.6601 20.148ZM77.9001 24.432V24.744C77.8281 27.432 77.2761 29.568 76.2681 31.164L75.6321 30.504C76.5081 29.112 76.9761 27.192 77.0481 24.744V21.144C80.1441 21.108 82.9161 20.832 85.3881 20.316L85.8201 21.096C83.4681 21.576 80.8281 21.84 77.9001 21.912V23.592H86.5401V24.432H77.9001ZM85.5921 26.112V31.2H84.7281V30.636H79.8681V31.2H79.0041V26.112H85.5921ZM79.8681 29.796H84.7281V26.94H79.8681V29.796ZM91.4721 25.788H94.2201V23.556H95.0961V25.788H97.9641V26.628H95.0961V29.94H98.5041V30.792H90.9801V29.94H94.2201V26.628H91.4721V25.788ZM89.5401 26.316C89.0961 26.772 88.6281 27.216 88.1241 27.636L87.5841 26.928C89.0841 25.692 90.2481 24.276 91.0881 22.68H88.0041V21.828H91.4961C91.7361 21.276 91.9521 20.7 92.1201 20.112L93.0201 20.22C92.8521 20.772 92.6721 21.312 92.4561 21.828H98.4921V22.68H92.0721C91.6041 23.628 91.0401 24.516 90.3921 25.332V31.236H89.5401V26.316ZM104.96 22.848C104.588 23.964 104.096 24.876 103.484 25.572L102.764 25.068C103.748 23.892 104.384 22.248 104.672 20.16L105.536 20.292C105.44 20.916 105.332 21.492 105.2 22.02H110.24V22.584C109.988 23.604 109.664 24.612 109.256 25.608L108.404 25.368C108.776 24.624 109.076 23.784 109.316 22.848H104.96ZM106.196 23.664H107.036C107.036 24.312 107 24.912 106.94 25.464C107.66 27.6 108.92 29.292 110.732 30.54L110.168 31.2C108.608 30.024 107.456 28.584 106.688 26.856C106.616 27.156 106.532 27.432 106.436 27.696C105.92 29.136 104.744 30.312 102.896 31.224L102.332 30.54C103.964 29.748 105.044 28.74 105.584 27.54C105.968 26.52 106.172 25.224 106.196 23.664ZM100.46 20.712C101.396 21.648 102.116 22.464 102.62 23.16L101.948 23.64C101.408 22.896 100.676 22.056 99.7641 21.144L100.46 20.712ZM101.924 25.86L102.68 26.148C102.008 27.804 101.264 29.364 100.436 30.816L99.6321 30.456C100.52 28.956 101.276 27.42 101.924 25.86ZM120.992 20.676V31.14H120.116V30.228H114.44V31.152H113.576V20.676H120.992ZM114.44 29.388H120.116V25.776H114.44V29.388ZM114.44 24.936H120.116V21.516H114.44V24.936ZM124.484 20.484C125.228 21.54 125.804 22.464 126.212 23.256L125.504 23.748C125.084 22.908 124.508 21.96 123.776 20.916L124.484 20.484ZM125.504 25.5L126.284 25.8C125.768 27.6 125.204 29.28 124.58 30.864L123.752 30.504C124.424 28.872 125.012 27.204 125.504 25.5ZM127.364 21.192H130.064V20.22H130.928V21.192H133.652V21.96H130.928V23.16H134.168V23.928H126.812V23.16H130.064V21.96H127.364V21.192ZM129.716 25.212L130.496 25.512C130.304 25.884 130.1 26.22 129.884 26.532H133.112V27.216C132.8 28.032 132.224 28.74 131.384 29.34C132.32 29.82 133.424 30.204 134.72 30.468L134.228 31.2C132.812 30.864 131.624 30.408 130.652 29.808C129.596 30.396 128.276 30.864 126.68 31.224L126.26 30.468C127.736 30.18 128.948 29.796 129.908 29.316C129.404 28.932 128.96 28.512 128.6 28.056C128.192 28.44 127.76 28.764 127.304 29.052L126.656 28.488C128.012 27.672 129.032 26.58 129.716 25.212ZM130.64 28.896C131.372 28.416 131.9 27.864 132.224 27.252H129.344C129.272 27.348 129.2 27.432 129.128 27.516C129.524 28.032 130.028 28.488 130.64 28.896ZM128.66 24.06L129.38 24.408C128.816 25.224 128.156 25.92 127.388 26.508L126.692 26.016C127.46 25.464 128.108 24.816 128.66 24.06ZM132.248 24.048C133.256 24.792 134.036 25.44 134.576 26.004L133.856 26.508C133.304 25.884 132.536 25.212 131.576 24.468L132.248 24.048ZM137.444 20.628H144.968V23.796H137.444V20.628ZM144.152 23.16V22.512H138.248V23.16H144.152ZM138.248 21.936H144.152V21.264H138.248V21.936ZM137.492 27.828C137.312 29.16 136.94 30.276 136.376 31.176L135.752 30.624C136.4 29.568 136.748 28.116 136.772 26.244V24.444H146.012V25.116H137.612V26.244C137.6 26.556 137.588 26.856 137.564 27.144H146.204V27.828H142.028C142.448 28.368 142.976 28.824 143.6 29.208C143.984 28.824 144.332 28.428 144.644 27.996L145.34 28.344C144.992 28.788 144.62 29.184 144.212 29.544C144.884 29.88 145.652 30.132 146.504 30.324L146.06 31.044C143.864 30.48 142.244 29.412 141.2 27.828H139.592V30.108C140.48 29.916 141.26 29.712 141.908 29.484L142.052 30.216C141.104 30.504 139.964 30.768 138.644 30.996L138.452 30.372C138.668 30.276 138.776 30.096 138.776 29.832V27.828H137.492ZM138.44 25.776H145.388V26.424H138.44V25.776ZM149.9 24.432V24.744C149.828 27.432 149.276 29.568 148.268 31.164L147.632 30.504C148.508 29.112 148.976 27.192 149.048 24.744V21.144C152.144 21.108 154.916 20.832 157.388 20.316L157.82 21.096C155.468 21.576 152.828 21.84 149.9 21.912V23.592H158.54V24.432H149.9ZM157.592 26.112V31.2H156.728V30.636H151.868V31.2H151.004V26.112H157.592ZM151.868 29.796H156.728V26.94H151.868V29.796ZM161.192 23.808V25.464H164.036V23.808H161.192ZM164.036 23.028V21.456H161.192V23.028H164.036ZM160.244 30.84L159.944 30.012C160.208 29.928 160.34 29.772 160.34 29.556V20.676H164.852V26.268H161.192V29.724C162.248 29.412 163.184 29.1 164.012 28.776C163.772 28.356 163.52 27.936 163.256 27.528L163.916 27.108C164.672 28.272 165.248 29.292 165.644 30.156L164.984 30.636C164.816 30.264 164.624 29.88 164.408 29.496C163.208 30 161.816 30.456 160.244 30.84ZM169.1 29.544H168.02L167.792 28.704L168.812 28.728C169.148 28.728 169.316 28.56 169.316 28.236V21.492H167.132V31.164H166.268V20.676H170.18V28.428C170.18 29.172 169.82 29.544 169.1 29.544ZM171.824 20.916H182.528V21.756H180.944V29.916C180.944 30.708 180.56 31.116 179.792 31.116H177.788L177.596 30.276C178.256 30.3 178.892 30.324 179.492 30.324C179.876 30.324 180.08 30.108 180.08 29.7V21.756H171.824V20.916ZM177.884 23.592V27.996H174.056V29.052H173.216V23.592H177.884ZM174.056 27.204H177.056V24.372H174.056V27.204ZM188.804 20.7H194.492V21.516H192.104C192.044 21.972 191.972 22.404 191.876 22.836H194.12V28.5H193.28V23.628H190.172V28.596H189.32V22.836H191.036C191.132 22.404 191.204 21.972 191.252 21.516H188.804V20.7ZM192.62 28.536C193.436 29.232 194.12 29.94 194.684 30.636L194.072 31.248C193.58 30.576 192.896 29.856 192.032 29.1L192.62 28.536ZM191.3 24.42H192.116V26.484C192.092 27.768 191.84 28.8 191.372 29.568C190.916 30.276 190.172 30.84 189.14 31.248L188.684 30.516C189.656 30.144 190.34 29.64 190.724 29.016C191.084 28.368 191.276 27.528 191.3 26.484V24.42ZM186.02 20.304H186.668C187.484 21.252 188.276 22.26 189.044 23.328L188.468 23.94C187.688 22.764 187.004 21.828 186.428 21.132C185.744 22.356 184.952 23.472 184.052 24.48L183.56 23.784C184.46 22.8 185.276 21.636 186.02 20.304ZM184.244 25.548H188.54V26.268C188.024 27.36 187.436 28.332 186.764 29.196C187.232 29.64 187.664 30.084 188.048 30.528L187.424 31.14C186.704 30.24 185.72 29.28 184.46 28.26L185.036 27.708C185.444 28.032 185.828 28.356 186.2 28.68C186.692 28.02 187.16 27.24 187.616 26.352H184.244V25.548ZM186.272 22.908C186.8 23.616 187.196 24.228 187.484 24.756L186.86 25.2C186.56 24.624 186.152 23.988 185.648 23.292L186.272 22.908ZM201.728 27.912V28.764C201.356 28.86 200.996 28.944 200.636 29.028V31.2H199.796V29.22C198.548 29.484 197.264 29.712 195.92 29.904L195.716 29.064C196.076 29.016 196.436 28.956 196.796 28.908V21.48H195.848V20.664H201.56V21.312H206.204V22.104C205.94 24.324 205.388 26.22 204.56 27.792C205.136 28.776 205.856 29.688 206.708 30.516L206.132 31.176C205.328 30.348 204.656 29.484 204.104 28.584C203.456 29.592 202.688 30.456 201.788 31.164L201.2 30.492C202.172 29.724 202.976 28.812 203.624 27.732C202.736 26.028 202.208 24.168 202.04 22.152H201.56V21.48H200.636V28.176C201.008 28.092 201.368 28.008 201.728 27.912ZM202.832 22.152C202.976 23.88 203.396 25.452 204.08 26.88C204.728 25.512 205.172 23.94 205.388 22.152H202.832ZM199.796 28.368V26.736H197.636V28.776C198.368 28.656 199.088 28.512 199.796 28.368ZM197.636 25.956H199.796V24.132H197.636V25.956ZM197.636 23.34H199.796V21.48H197.636V23.34ZM218.108 20.904V31.2H217.268V30.456H213.332V31.212H212.504V20.904H218.108ZM213.332 29.64H217.268V27.516H213.332V29.64ZM213.332 26.712H217.268V24.588H213.332V26.712ZM213.332 23.784H217.268V21.72H213.332V23.784ZM210.392 24.924V31.188H209.54V25.104C209.132 26.256 208.616 27.288 207.968 28.224L207.632 27.372C208.508 26.208 209.132 24.876 209.516 23.376H207.848V22.548H209.54V20.208H210.392V22.548H211.94V23.376H210.392V24.012C210.944 24.588 211.496 25.236 212.048 25.944L211.58 26.64C211.124 25.944 210.728 25.368 210.392 24.924ZM221.84 29.844H226.844C227.588 28.14 228.236 26.04 228.788 23.52L229.64 23.748C229.136 26.028 228.524 28.068 227.78 29.844H230.312V30.684H221.84V29.844ZM223.148 24.108C223.628 25.38 224.06 26.856 224.444 28.512L223.628 28.716C223.304 27.204 222.896 25.74 222.392 24.348L223.148 24.108ZM225.464 23.256C225.872 24.576 226.244 26.1 226.58 27.804L225.752 27.996C225.488 26.436 225.14 24.936 224.708 23.496L225.464 23.256ZM225.476 20.1C225.704 20.472 225.92 20.892 226.112 21.348H230.504V22.188H221.612V24.864C221.564 27.504 221.156 29.616 220.376 31.2L219.668 30.564C220.34 29.196 220.7 27.3 220.724 24.864V21.348H225.176C224.984 20.964 224.768 20.604 224.528 20.268L225.476 20.1ZM236.012 22.272V30.456H235.172V29.772H232.988V30.804H232.148V22.272H233.264C233.504 21.6 233.672 20.904 233.78 20.184L234.644 20.304C234.5 21.012 234.32 21.672 234.08 22.272H236.012ZM232.988 28.968H235.172V26.34H232.988V28.968ZM232.988 25.56H235.172V23.088H232.988V25.56ZM238.1 25.056C238.964 26.052 239.612 26.928 240.068 27.672L239.384 28.152C238.892 27.36 238.232 26.472 237.404 25.488L238.1 25.056ZM242.216 22.284C242.216 26.268 242.156 28.74 242.036 29.676C241.916 30.588 241.364 31.056 240.356 31.056C240.116 31.056 239.708 31.032 239.132 31.008L238.928 30.216C239.432 30.24 239.864 30.252 240.236 30.252C240.8 30.252 241.124 29.94 241.22 29.328C241.292 28.656 241.34 26.58 241.364 23.124H238.064C237.728 23.88 237.332 24.564 236.864 25.176L236.348 24.492C237.188 23.316 237.752 21.876 238.064 20.172L238.916 20.28C238.772 20.988 238.604 21.66 238.388 22.284H242.216ZM253.004 26.112V31.26H252.152V30.732H246.176V31.26H245.324V26.112H253.004ZM246.176 29.988H252.152V28.752H246.176V29.988ZM246.176 28.032H252.152V26.832H246.176V28.032ZM244.412 20.7H253.916V21.516H250.832V24.324H254.372V25.164H243.956V24.324H247.508V21.516H244.412V20.7ZM249.992 24.324V21.516H248.348V24.324H249.992ZM252.5 21.864L253.28 22.068C253.028 22.812 252.704 23.46 252.32 24.012L251.576 23.748C251.936 23.244 252.236 22.62 252.5 21.864ZM245.72 21.912C246.104 22.476 246.44 23.076 246.728 23.7L246.008 24.024C245.696 23.328 245.336 22.704 244.952 22.164L245.72 21.912ZM259.34 28.668V29.484C258.284 29.916 257.096 30.264 255.752 30.516L255.644 29.676C257.048 29.424 258.284 29.088 259.34 28.668ZM257.876 20.184L258.692 20.508C258.068 22.02 257.432 23.22 256.784 24.108C257.36 24.048 257.936 23.976 258.512 23.88C258.74 23.472 258.98 23.052 259.232 22.608L259.988 22.884C258.86 24.828 257.936 26.22 257.192 27.048C258.056 26.892 258.932 26.676 259.796 26.412V27.192C258.524 27.576 257.3 27.828 256.136 27.972L255.908 27.192C256.064 27.132 256.196 27.048 256.304 26.952C256.784 26.496 257.36 25.74 258.032 24.66C257.336 24.768 256.64 24.864 255.944 24.948L255.728 24.156C255.86 24.108 255.98 24 256.088 23.844C256.772 22.776 257.372 21.552 257.876 20.184ZM261.152 21.504H259.964V20.688H265.232V21.228C265.04 22.308 264.848 23.232 264.656 24H266.18V24.48C265.928 26.136 265.376 27.54 264.512 28.68C265.136 29.352 265.868 29.94 266.708 30.468L266.168 31.188C265.328 30.636 264.596 30.012 263.996 29.316C263.276 30.084 262.388 30.708 261.356 31.212L260.876 30.42C261.884 29.928 262.736 29.316 263.42 28.596C262.7 27.624 262.148 26.52 261.776 25.296C261.416 27.828 260.624 29.784 259.412 31.152L258.776 30.588C260.336 28.836 261.128 26.028 261.152 22.152V21.504ZM263.924 27.996C264.62 27.072 265.076 25.992 265.316 24.756H263.648C263.864 24.012 264.092 22.932 264.344 21.504H261.992V22.152C261.992 22.596 261.98 23.028 261.956 23.436C262.256 25.188 262.916 26.712 263.924 27.996ZM270.08 26.004C269.444 26.532 268.724 27.06 267.92 27.588L267.668 26.712C269.78 25.344 271.196 24.024 271.892 22.728H268.076V21.888H270.14C269.972 21.36 269.768 20.844 269.528 20.352L270.38 20.112C270.62 20.7 270.812 21.24 270.944 21.744L270.572 21.888H272.816V22.632C272.444 23.448 271.868 24.264 271.076 25.08C271.868 25.524 272.6 26.028 273.272 26.604L272.792 27.348C272.18 26.784 271.568 26.304 270.956 25.92V31.224H270.08V26.004ZM277.1 31.02H275.108C274.34 31.02 273.956 30.612 273.956 29.796V20.256H274.832V29.676C274.832 30.012 274.988 30.18 275.312 30.18H276.956C277.232 30.18 277.436 30.084 277.556 29.892C277.664 29.688 277.736 28.992 277.784 27.804L278.6 28.068C278.54 29.448 278.408 30.288 278.204 30.588C278 30.876 277.628 31.02 277.1 31.02ZM282.02 23.628C281.444 23.976 280.844 24.3 280.22 24.588L279.716 23.868C281.804 22.932 283.508 21.744 284.828 20.292H285.524C286.676 21.72 288.368 22.896 290.6 23.832L290.108 24.552C289.472 24.288 288.884 23.988 288.332 23.664V24.324H285.608V26.052H289.88V26.856H285.608V30.06H286.94C287.348 29.28 287.708 28.44 288.02 27.54L288.812 27.816C288.512 28.656 288.176 29.412 287.816 30.06H290.3V30.888H280.04V30.06H282.524C282.272 29.292 281.948 28.584 281.564 27.912L282.344 27.624C282.716 28.296 283.052 29.112 283.364 30.06H284.744V26.856H280.46V26.052H284.744V24.324H282.02V23.628ZM288.128 23.544C286.952 22.848 285.968 22.032 285.176 21.108C284.276 22.044 283.268 22.86 282.152 23.544H288.128ZM293.876 20.148L294.728 20.22L294.56 21.828H301.832V22.656H294.476L294.272 24.612H301.016C301.016 27.876 300.788 29.76 300.332 30.276C299.888 30.768 298.928 31.02 297.464 31.02C297.08 31.02 296.684 30.996 296.276 30.972L296.048 30.18C296.636 30.228 297.044 30.264 297.284 30.264C298.64 30.264 299.456 30.036 299.72 29.58C299.996 29.088 300.14 27.696 300.14 25.416H293.312L293.876 20.148ZM291.764 27.348H298.544V28.176H291.764V27.348ZM313.004 26.112V31.26H312.152V30.732H306.176V31.26H305.324V26.112H313.004ZM306.176 29.988H312.152V28.752H306.176V29.988ZM306.176 28.032H312.152V26.832H306.176V28.032ZM304.412 20.7H313.916V21.516H310.832V24.324H314.372V25.164H303.956V24.324H307.508V21.516H304.412V20.7ZM309.992 24.324V21.516H308.348V24.324H309.992ZM312.5 21.864L313.28 22.068C313.028 22.812 312.704 23.46 312.32 24.012L311.576 23.748C311.936 23.244 312.236 22.62 312.5 21.864ZM305.72 21.912C306.104 22.476 306.44 23.076 306.728 23.7L306.008 24.024C305.696 23.328 305.336 22.704 304.952 22.164L305.72 21.912ZM319.34 28.668V29.484C318.284 29.916 317.096 30.264 315.752 30.516L315.644 29.676C317.048 29.424 318.284 29.088 319.34 28.668ZM317.876 20.184L318.692 20.508C318.068 22.02 317.432 23.22 316.784 24.108C317.36 24.048 317.936 23.976 318.512 23.88C318.74 23.472 318.98 23.052 319.232 22.608L319.988 22.884C318.86 24.828 317.936 26.22 317.192 27.048C318.056 26.892 318.932 26.676 319.796 26.412V27.192C318.524 27.576 317.3 27.828 316.136 27.972L315.908 27.192C316.064 27.132 316.196 27.048 316.304 26.952C316.784 26.496 317.36 25.74 318.032 24.66C317.336 24.768 316.64 24.864 315.944 24.948L315.728 24.156C315.86 24.108 315.98 24 316.088 23.844C316.772 22.776 317.372 21.552 317.876 20.184ZM321.152 21.504H319.964V20.688H325.232V21.228C325.04 22.308 324.848 23.232 324.656 24H326.18V24.48C325.928 26.136 325.376 27.54 324.512 28.68C325.136 29.352 325.868 29.94 326.708 30.468L326.168 31.188C325.328 30.636 324.596 30.012 323.996 29.316C323.276 30.084 322.388 30.708 321.356 31.212L320.876 30.42C321.884 29.928 322.736 29.316 323.42 28.596C322.7 27.624 322.148 26.52 321.776 25.296C321.416 27.828 320.624 29.784 319.412 31.152L318.776 30.588C320.336 28.836 321.128 26.028 321.152 22.152V21.504ZM323.924 27.996C324.62 27.072 325.076 25.992 325.316 24.756H323.648C323.864 24.012 324.092 22.932 324.344 21.504H321.992V22.152C321.992 22.596 321.98 23.028 321.956 23.436C322.256 25.188 322.916 26.712 323.924 27.996ZM334.736 20.184H335.624V22.356H338.744V23.196H335.624V25.404H338.156V31.212H337.28V30.66H333.704V31.212H332.84V25.404H334.736V20.184ZM333.704 29.82H337.28V26.232H333.704V29.82ZM329.264 20.22L330.104 20.388C329.996 20.796 329.888 21.18 329.768 21.552H332.036V22.38H329.468C329.144 23.208 328.772 23.964 328.34 24.636L327.632 24.192C328.376 22.992 328.928 21.672 329.264 20.22ZM328.892 23.976H331.82V24.756H330.56V26.232H332.252V27.024H330.56V29.856C331.136 29.652 331.712 29.376 332.288 29.04L332.432 29.808C331.64 30.24 330.728 30.6 329.684 30.876L329.324 30.132C329.576 30.048 329.708 29.928 329.708 29.76V27.024H328.028V26.232H329.708V24.756H328.892V23.976ZM339.908 20.892H350.444V21.732H344.792C344.396 22.908 343.88 23.976 343.232 24.96H349.508V31.068H348.62V30.42H343.604V31.068H342.716V25.68C341.984 26.64 341.132 27.492 340.172 28.248L339.644 27.396C341.612 25.932 343.016 24.048 343.88 21.732H339.908V20.892ZM343.604 29.58H348.62V25.788H343.604V29.58ZM354.164 28.296C354.596 28.296 354.956 28.44 355.268 28.728C355.568 29.016 355.724 29.376 355.724 29.808C355.724 30.228 355.568 30.588 355.268 30.876C354.956 31.164 354.596 31.308 354.164 31.308C353.732 31.308 353.36 31.164 353.06 30.888C352.748 30.6 352.604 30.24 352.604 29.808C352.604 29.376 352.748 29.016 353.06 28.728C353.36 28.44 353.732 28.296 354.164 28.296ZM354.164 28.92C353.912 28.92 353.696 29.004 353.528 29.184C353.336 29.352 353.252 29.556 353.252 29.808C353.252 30.048 353.336 30.252 353.528 30.42C353.696 30.588 353.912 30.684 354.164 30.684C354.404 30.684 354.62 30.588 354.8 30.42C354.98 30.252 355.076 30.048 355.076 29.808C355.076 29.556 354.98 29.352 354.8 29.184C354.62 29.004 354.404 28.92 354.164 28.92Z" fill="white"/>
</svg>
