<svg width="390" height="532" viewBox="0 0 390 532" fill="none" xmlns="http://www.w3.org/2000/svg">
<g filter="url(#filter0_i_2_44258)">
<path d="M0 20C0 8.95429 8.95431 0 20 0H370C381.046 0 390 8.9543 390 20V512C390 523.046 381.046 532 370 532H20C8.9543 532 0 523.046 0 512V20Z" fill="#FC8AA3"/>
<path d="M0 20C0 8.95429 8.95431 0 20 0H370C381.046 0 390 8.9543 390 20V512C390 523.046 381.046 532 370 532H20C8.9543 532 0 523.046 0 512V20Z" fill="url(#paint0_linear_2_44258)" fill-opacity="0.8"/>
</g>
<path d="M20 0.5H370C380.77 0.5 389.5 9.23045 389.5 20V512C389.5 522.77 380.77 531.5 370 531.5H20C9.23045 531.5 0.5 522.77 0.5 512V20C0.5 9.23045 9.23045 0.5 20 0.5Z" stroke="url(#paint1_linear_2_44258)"/>
<defs>
<filter id="filter0_i_2_44258" x="0" y="0" width="390" height="533" filterUnits="userSpaceOnUse" color-interpolation-filters="sRGB">
<feFlood flood-opacity="0" result="BackgroundImageFix"/>
<feBlend mode="normal" in="SourceGraphic" in2="BackgroundImageFix" result="shape"/>
<feColorMatrix in="SourceAlpha" type="matrix" values="0 0 0 0 0 0 0 0 0 0 0 0 0 0 0 0 0 0 127 0" result="hardAlpha"/>
<feOffset dy="1"/>
<feGaussianBlur stdDeviation="0.5"/>
<feComposite in2="hardAlpha" operator="arithmetic" k2="-1" k3="1"/>
<feColorMatrix type="matrix" values="0 0 0 0 1 0 0 0 0 1 0 0 0 0 1 0 0 0 0.65 0"/>
<feBlend mode="normal" in2="shape" result="effect1_innerShadow_2_44258"/>
</filter>
<linearGradient id="paint0_linear_2_44258" x1="195" y1="525.5" x2="195" y2="0" gradientUnits="userSpaceOnUse">
<stop stop-color="white"/>
<stop offset="1" stop-color="white" stop-opacity="0"/>
</linearGradient>
<linearGradient id="paint1_linear_2_44258" x1="390" y1="6.50001" x2="19" y2="532" gradientUnits="userSpaceOnUse">
<stop stop-color="white" stop-opacity="0"/>
<stop offset="1" stop-color="white"/>
</linearGradient>
</defs>
</svg>
