<svg width="360" height="160" viewBox="0 0 360 160" fill="none" xmlns="http://www.w3.org/2000/svg">
<path d="M20 0.5H340C350.77 0.500016 359.5 9.23046 359.5 20V140C359.5 150.77 350.77 159.5 340 159.5H20C9.23045 159.5 0.5 150.77 0.5 140V20C0.5 9.23045 9.23045 0.5 20 0.5Z" fill="#81CCD1"/>
<path d="M20 0.5H340C350.77 0.500016 359.5 9.23046 359.5 20V140C359.5 150.77 350.77 159.5 340 159.5H20C9.23045 159.5 0.5 150.77 0.5 140V20C0.5 9.23045 9.23045 0.5 20 0.5Z" fill="black" fill-opacity="0.15"/>
<path d="M20 0.5H340C350.77 0.500016 359.5 9.23046 359.5 20V140C359.5 150.77 350.77 159.5 340 159.5H20C9.23045 159.5 0.5 150.77 0.5 140V20C0.5 9.23045 9.23045 0.5 20 0.5Z" fill="url(#paint0_linear_2_35730)" style="mix-blend-mode:lighten"/>
<path d="M20 0.5H340C350.77 0.500016 359.5 9.23046 359.5 20V140C359.5 150.77 350.77 159.5 340 159.5H20C9.23045 159.5 0.5 150.77 0.5 140V20C0.5 9.23045 9.23045 0.5 20 0.5Z" stroke="#81CCD1"/>
<path d="M20 0.5H340C350.77 0.500016 359.5 9.23046 359.5 20V140C359.5 150.77 350.77 159.5 340 159.5H20C9.23045 159.5 0.5 150.77 0.5 140V20C0.5 9.23045 9.23045 0.5 20 0.5Z" stroke="url(#paint1_linear_2_35730)" stroke-opacity="0.7"/>
<defs>
<linearGradient id="paint0_linear_2_35730" x1="189" y1="-92" x2="360" y2="172" gradientUnits="userSpaceOnUse">
<stop offset="0.0109273" stop-color="white" stop-opacity="0.9"/>
<stop offset="0.388802" stop-color="white" stop-opacity="0.8"/>
<stop offset="0.683962" stop-color="white" stop-opacity="0.4"/>
<stop offset="0.908234" stop-color="white" stop-opacity="0.7"/>
</linearGradient>
<linearGradient id="paint1_linear_2_35730" x1="20" y1="-7.50001" x2="347.5" y2="175.5" gradientUnits="userSpaceOnUse">
<stop stop-color="white"/>
<stop offset="0.499171" stop-color="white" stop-opacity="0.5"/>
<stop offset="1" stop-color="white"/>
</linearGradient>
</defs>
</svg>
