<svg width="360" height="160" viewBox="0 0 360 160" fill="none" xmlns="http://www.w3.org/2000/svg">
<path d="M20 0.5H340C350.77 0.500016 359.5 9.23046 359.5 20V140C359.5 150.77 350.77 159.5 340 159.5H20C9.23045 159.5 0.5 150.77 0.5 140V20C0.5 9.23045 9.23045 0.5 20 0.5Z" fill="#9A41FE"/>
<path d="M20 0.5H340C350.77 0.500016 359.5 9.23046 359.5 20V140C359.5 150.77 350.77 159.5 340 159.5H20C9.23045 159.5 0.5 150.77 0.5 140V20C0.5 9.23045 9.23045 0.5 20 0.5Z" fill="url(#paint0_linear_2_52970)" style="mix-blend-mode:lighten"/>
<path d="M20 0.5H340C350.77 0.500016 359.5 9.23046 359.5 20V140C359.5 150.77 350.77 159.5 340 159.5H20C9.23045 159.5 0.5 150.77 0.5 140V20C0.5 9.23045 9.23045 0.5 20 0.5Z" stroke="url(#paint1_linear_2_52970)"/>
<defs>
<linearGradient id="paint0_linear_2_52970" x1="270.75" y1="-114.286" x2="360" y2="185.714" gradientUnits="userSpaceOnUse">
<stop offset="0.0109273" stop-color="white" stop-opacity="0.6"/>
<stop offset="0.0907671" stop-color="white" stop-opacity="0.5"/>
<stop offset="0.421184" stop-color="white" stop-opacity="0.7"/>
<stop offset="0.649064" stop-color="white" stop-opacity="0.2"/>
<stop offset="1" stop-color="white" stop-opacity="0.7"/>
</linearGradient>
<linearGradient id="paint1_linear_2_52970" x1="225" y1="-54.2857" x2="-52.9926" y2="104.805" gradientUnits="userSpaceOnUse">
<stop stop-color="#C4D3E6"/>
<stop offset="0.33159" stop-color="white"/>
<stop offset="0.429278" stop-color="#C4D3E6"/>
<stop offset="0.980441" stop-color="white"/>
</linearGradient>
</defs>
</svg>
