<svg width="49" height="25" viewBox="0 0 49 25" fill="none" xmlns="http://www.w3.org/2000/svg">
<rect y="0.25" width="48" height="24" rx="12" fill="url(#paint0_linear_2_52963)"/>
<path d="M16.284 15.262V16.282C15.252 16.678 14.16 17.002 12.984 17.266L12.732 16.258C13.956 16.066 15.132 15.73 16.284 15.262ZM13.584 14.086C14.304 14.218 15.012 14.422 15.684 14.686L15.348 15.478C14.652 15.226 13.932 15.034 13.176 14.89L13.584 14.086ZM16.392 6.922H17.472V12.418H16.392V11.602H12.912V10.726H16.392V10.054H13.572V9.19H16.392V8.542H13.224V7.678H16.392V6.922ZM18.504 6.922H19.584V7.678H23.016V8.542H19.584V9.19H22.536V10.054H19.584V10.726H23.088V11.602H19.584V12.418H18.504V6.922ZM15.432 17.926L15.18 16.954L16.296 17.002C16.536 17.002 16.668 16.846 16.668 16.558V13.846H13.26V12.838H17.7V16.882C17.7 17.578 17.304 17.926 16.536 17.926H15.432ZM20.484 17.926L20.232 16.954L21.432 17.002C21.648 17.002 21.768 16.858 21.768 16.57V13.846H18.384V12.838H22.8V16.894C22.8 17.578 22.416 17.926 21.672 17.926H20.484ZM21.384 15.226V16.234C20.448 16.642 19.428 16.978 18.348 17.242L18.108 16.246C19.236 16.03 20.328 15.694 21.384 15.226ZM18.708 14.062C19.44 14.194 20.148 14.386 20.832 14.65L20.508 15.442C19.8 15.202 19.056 15.01 18.288 14.866L18.708 14.062ZM26.22 8.254C26.82 8.482 27.36 8.758 27.852 9.082L27.384 9.79C27.828 9.694 28.248 9.598 28.644 9.502V8.23H25.212V7.282H29.7V10.618L30.204 10.534C30.312 10.798 30.42 11.074 30.528 11.386H34.968V12.382H32.28L32.772 12.586C32.664 12.814 32.556 13.03 32.436 13.234C33.24 13.534 33.984 13.882 34.668 14.278L34.092 15.166C33.372 14.686 32.652 14.29 31.92 13.99C31.608 14.386 31.248 14.722 30.852 14.998L30.084 14.314C30.804 13.822 31.356 13.174 31.74 12.382H28.056L28.56 12.586C28.428 12.814 28.296 13.03 28.152 13.234C28.716 13.498 29.244 13.786 29.736 14.122L29.16 15.022C28.644 14.59 28.128 14.23 27.6 13.942C27.156 14.422 26.664 14.818 26.124 15.142L25.296 14.434C26.268 13.906 27 13.222 27.492 12.382H24.996V11.386H29.352C29.28 11.218 29.208 11.074 29.136 10.942H28.644V10.414C27.72 10.69 26.688 10.942 25.56 11.17L25.26 10.21C25.98 10.09 26.652 9.958 27.3 9.814C26.796 9.466 26.268 9.19 25.728 8.998L26.22 8.254ZM31.164 8.242C31.752 8.47 32.292 8.746 32.772 9.058L32.364 9.682C32.772 9.586 33.168 9.49 33.528 9.394V8.23H30.288V7.282H34.608V10.966H33.528V10.306C32.724 10.558 31.824 10.798 30.84 11.014L30.552 10.042C31.104 9.946 31.632 9.838 32.136 9.73C31.656 9.394 31.176 9.142 30.684 8.95L31.164 8.242ZM24.78 15.322H29.448V14.83H30.576V15.322H35.232V16.33H30.576V18.094H29.448V16.33H24.78V15.322Z" fill="#C25B00"/>
<rect x="40" y="0.25" width="8" height="8" rx="4" fill="#1EBB34" stroke="white" stroke-opacity="0.5" stroke-width="0.5"/>
<path d="M42.3334 4.46212L43.4875 5.65251C43.6247 5.79399 43.854 5.78623 43.9813 5.63579L46 3.25" stroke="white" stroke-linecap="round"/>
<defs>
<linearGradient id="paint0_linear_2_52963" x1="24" y1="0.25" x2="24" y2="24.25" gradientUnits="userSpaceOnUse">
<stop stop-color="#FFFBDE"/>
<stop offset="1" stop-color="#FEF094"/>
</linearGradient>
</defs>
</svg>
