<svg width="48" height="24" viewBox="0 0 48 24" fill="none" xmlns="http://www.w3.org/2000/svg">
<rect width="48" height="24" rx="12" fill="#FF9430"/>
<rect width="48" height="24" rx="12" fill="url(#paint0_radial_2_35723)" fill-opacity="0.8"/>
<path d="M16.284 15.012V16.032C15.252 16.428 14.16 16.752 12.984 17.016L12.732 16.008C13.956 15.816 15.132 15.48 16.284 15.012ZM13.584 13.836C14.304 13.968 15.012 14.172 15.684 14.436L15.348 15.228C14.652 14.976 13.932 14.784 13.176 14.64L13.584 13.836ZM16.392 6.672H17.472V12.168H16.392V11.352H12.912V10.476H16.392V9.804H13.572V8.94H16.392V8.292H13.224V7.428H16.392V6.672ZM18.504 6.672H19.584V7.428H23.016V8.292H19.584V8.94H22.536V9.804H19.584V10.476H23.088V11.352H19.584V12.168H18.504V6.672ZM15.432 17.676L15.18 16.704L16.296 16.752C16.536 16.752 16.668 16.596 16.668 16.308V13.596H13.26V12.588H17.7V16.632C17.7 17.328 17.304 17.676 16.536 17.676H15.432ZM20.484 17.676L20.232 16.704L21.432 16.752C21.648 16.752 21.768 16.608 21.768 16.32V13.596H18.384V12.588H22.8V16.644C22.8 17.328 22.416 17.676 21.672 17.676H20.484ZM21.384 14.976V15.984C20.448 16.392 19.428 16.728 18.348 16.992L18.108 15.996C19.236 15.78 20.328 15.444 21.384 14.976ZM18.708 13.812C19.44 13.944 20.148 14.136 20.832 14.4L20.508 15.192C19.8 14.952 19.056 14.76 18.288 14.616L18.708 13.812ZM26.22 8.004C26.82 8.232 27.36 8.508 27.852 8.832L27.384 9.54C27.828 9.444 28.248 9.348 28.644 9.252V7.98H25.212V7.032H29.7V10.368L30.204 10.284C30.312 10.548 30.42 10.824 30.528 11.136H34.968V12.132H32.28L32.772 12.336C32.664 12.564 32.556 12.78 32.436 12.984C33.24 13.284 33.984 13.632 34.668 14.028L34.092 14.916C33.372 14.436 32.652 14.04 31.92 13.74C31.608 14.136 31.248 14.472 30.852 14.748L30.084 14.064C30.804 13.572 31.356 12.924 31.74 12.132H28.056L28.56 12.336C28.428 12.564 28.296 12.78 28.152 12.984C28.716 13.248 29.244 13.536 29.736 13.872L29.16 14.772C28.644 14.34 28.128 13.98 27.6 13.692C27.156 14.172 26.664 14.568 26.124 14.892L25.296 14.184C26.268 13.656 27 12.972 27.492 12.132H24.996V11.136H29.352C29.28 10.968 29.208 10.824 29.136 10.692H28.644V10.164C27.72 10.44 26.688 10.692 25.56 10.92L25.26 9.96C25.98 9.84 26.652 9.708 27.3 9.564C26.796 9.216 26.268 8.94 25.728 8.748L26.22 8.004ZM31.164 7.992C31.752 8.22 32.292 8.496 32.772 8.808L32.364 9.432C32.772 9.336 33.168 9.24 33.528 9.144V7.98H30.288V7.032H34.608V10.716H33.528V10.056C32.724 10.308 31.824 10.548 30.84 10.764L30.552 9.792C31.104 9.696 31.632 9.588 32.136 9.48C31.656 9.144 31.176 8.892 30.684 8.7L31.164 7.992ZM24.78 15.072H29.448V14.58H30.576V15.072H35.232V16.08H30.576V17.844H29.448V16.08H24.78V15.072Z" fill="white"/>
<rect x="41" y="1" width="6" height="6" rx="3" fill="#FF0004"/>
<defs>
<radialGradient id="paint0_radial_2_35723" cx="0" cy="0" r="1" gradientTransform="matrix(-30.5714 11.25 -3.21394 -15.0453 9.71428 4.125)" gradientUnits="userSpaceOnUse">
<stop offset="0.00442032" stop-color="white"/>
<stop offset="1" stop-color="#F6C600" stop-opacity="0"/>
</radialGradient>
</defs>
</svg>
