<svg width="14" height="14" viewBox="0 0 14 14" fill="none" xmlns="http://www.w3.org/2000/svg">
<path d="M6.03906 0.368164C5.58439 0.368164 5.19898 0.603425 5.04785 1.07129L4.46289 2.88379C4.25928 3.51412 3.74647 3.95904 3.09375 4.07031L1.21875 4.38965C0.735832 4.47202 0.447491 4.81901 0.381836 5.27051C0.314951 5.73137 0.487584 6.29791 0.969727 6.72656L2.58984 8.16602C3.10691 8.62572 3.42717 9.28392 3.4375 9.9502L3.46875 11.9609C3.47745 12.5303 3.80451 13.048 4.26172 13.3555C4.72073 13.6641 5.24507 13.7224 5.64941 13.4873L7.23633 12.5645C7.79717 12.2383 8.49655 12.2527 9.11035 12.5518L11.0049 13.4746C11.5528 13.7414 12.0347 13.6403 12.332 13.3828C12.6296 13.125 12.7995 12.6607 12.6143 12.0781L11.9746 10.0684C11.7676 9.41729 11.8541 8.7216 12.2568 8.21289L13.3965 6.77344C13.6874 6.40595 13.7058 5.87671 13.4668 5.37695C13.2287 4.87924 12.7644 4.48013 12.2041 4.38965L10.2227 4.07031C9.56515 3.96425 8.96083 3.55135 8.58105 2.97266L7.3916 1.16016C7.03745 0.62048 6.50315 0.36822 6.03906 0.368164Z" fill="#FFE37B" stroke="white" stroke-width="0.736842"/>
</svg>
