<svg width="14" height="14" viewBox="0 0 14 14" fill="none" xmlns="http://www.w3.org/2000/svg">
<path d="M7.96094 0.368164C8.41561 0.368164 8.80102 0.603425 8.95215 1.07129L9.53711 2.88379C9.74072 3.51412 10.2535 3.95904 10.9062 4.07031L12.7812 4.38965C13.2642 4.47202 13.5525 4.81901 13.6182 5.27051C13.685 5.73137 13.5124 6.29791 13.0303 6.72656L11.4102 8.16602C10.8931 8.62572 10.5728 9.28392 10.5625 9.9502L10.5312 11.9609C10.5226 12.5303 10.1955 13.048 9.73828 13.3555C9.27927 13.6641 8.75493 13.7224 8.35059 13.4873L6.76367 12.5645C6.20283 12.2383 5.50345 12.2527 4.88965 12.5518L2.99512 13.4746C2.44717 13.7414 1.96528 13.6403 1.66797 13.3828C1.37044 13.125 1.20053 12.6607 1.38574 12.0781L2.02539 10.0684C2.23238 9.41729 2.14585 8.7216 1.74316 8.21289L0.603516 6.77344C0.312621 6.40595 0.294187 5.87671 0.533203 5.37695C0.771275 4.87924 1.23556 4.48013 1.7959 4.38965L3.77734 4.07031C4.43485 3.96425 5.03917 3.55135 5.41895 2.97266L6.6084 1.16016C6.96255 0.62048 7.49685 0.36822 7.96094 0.368164Z" fill="#FFE37B" stroke="white" stroke-width="0.736842"/>
</svg>
