<svg width="167" height="56" viewBox="0 0 167 56" fill="none" xmlns="http://www.w3.org/2000/svg">
<path d="M11.8953 0.581932C6.48537 1.16654 3.88861 2.57326 9.83952 3.74248C8.86574 3.6694 7.89197 3.57806 6.91818 3.50498C-1.3049 2.88383 -10.8264 3.87037 -10.7182 5.3867C-10.7182 5.84342 -9.528 6.30015 -8.987 6.66553C-11.0428 6.61072 -13.4231 6.48284 -15.8035 6.50111C-18.2921 6.51938 -20.6724 6.70206 -22.9446 6.81168C-20.7806 5.45977 -22.1872 4.58286 -27.5972 4.01652C-32.1415 3.52325 -37.876 3.59632 -42.0957 4.16267C-46.8565 4.82035 -47.7221 5.73381 -44.6925 7.04918C-50.968 6.59245 -56.7025 6.70207 -61.0305 7.59725C-65.0338 8.41936 -64.601 9.33281 -61.1387 10.2828C-67.1978 9.84434 -72.7159 9.86261 -77.1521 10.6482C-81.6964 11.452 -81.6964 12.3837 -78.6668 13.4251C-83.7522 12.9866 -88.4047 13.0597 -93.2736 13.5164C-92.8409 13.2972 -92.4081 13.1876 -92.2999 13.0597C-91.0015 12.2376 -91.9753 11.5068 -95.654 10.9405C-99.3328 10.3559 -103.769 10.228 -108.421 10.5203C-113.074 10.8126 -116.212 11.4338 -116.104 12.2741C-116.104 12.8222 -114.372 13.3703 -113.29 13.9001C-110.044 14.2837 -106.69 14.6308 -102.362 14.4847C-100.523 14.4299 -98.7918 14.302 -96.736 14.2106C-98.7918 15.0145 -98.7917 15.8001 -95.9786 16.6222C-101.497 16.1472 -106.366 16.4395 -111.235 16.8597C-107.123 15.8001 -107.772 14.9414 -113.29 13.9183C-113.29 13.9183 -113.29 13.9183 -113.399 13.9183L-113.29 13.9366C-118.051 13.4616 -122.812 13.352 -127.681 13.8818C-131.901 14.3568 -133.632 15.051 -132.982 15.8914C-132.333 16.7135 -129.52 17.2981 -124.868 17.5539C-119.782 17.8462 -115.238 17.627 -111.559 16.951C-115.13 17.8279 -116.753 18.7596 -112.858 19.8192C-119.674 19.3625 -125.3 19.5087 -129.52 20.4587C-132.658 21.1529 -132.766 22.1029 -129.845 22.8154C-125.517 23.8567 -119.566 24.0211 -112.425 23.5096C-114.589 24.35 -114.048 25.099 -111.235 25.8663C-118.051 25.373 -123.569 25.6288 -128.114 26.4875C-128.114 26.4875 -128.114 26.4875 -128.114 26.5057L-128.005 26.4875C-130.819 27.3461 -131.035 28.1865 -127.681 29.0817C-135.255 28.6249 -140.556 28.8259 -144.235 29.6297C-147.481 30.3605 -147.589 31.3288 -144.452 32.0778C-142.396 32.5711 -139.583 32.9182 -136.012 32.9182C-132.874 32.9182 -129.628 32.7537 -126.599 32.6624C-129.304 33.521 -129.412 34.4162 -125.192 35.2383C-126.166 35.1653 -127.248 35.0922 -128.222 35.0374C-135.904 34.5258 -144.343 35.421 -144.776 36.8095C-145.101 37.6864 -142.937 38.3623 -138.284 38.746C-133.091 39.2027 -128.33 39.0383 -124.002 38.3989C-124.327 38.5268 -124.759 38.6729 -125.084 38.8008C-127.356 39.5864 -127.14 40.3537 -124.002 41.0296C-120.864 41.7238 -116.645 41.9979 -111.559 41.8152C-106.582 41.6325 -103.012 41.1027 -102.254 40.2441C-101.821 39.696 -102.687 39.1296 -102.903 38.5633C-99.3327 38.9287 -95.0048 38.8921 -90.8933 38.6181C-91.0015 39.0018 -91.326 39.3854 -91.1096 39.7325C-90.7851 40.0979 -89.8113 40.445 -89.1621 40.8287C-89.9195 40.7921 -90.6769 40.7556 -91.4343 40.7008C-98.9 40.3171 -106.582 41.1392 -107.556 42.4363C-108.097 43.1488 -106.366 43.7517 -103.769 44.2815C-104.526 44.2084 -105.284 44.1354 -106.149 44.0623C-111.451 43.569 -118.051 43.8065 -121.622 44.6286C-125.192 45.4507 -124.651 46.6017 -120.323 47.2959C-115.887 48.0084 -108.962 48.0449 -104.31 47.3873C-99.6573 46.7296 -98.6836 45.6152 -101.93 44.7382C-102.362 44.6104 -102.903 44.4825 -103.336 44.3546C-98.359 44.8661 -93.2737 45.0123 -87.1063 44.3546C-90.3523 45.469 -89.1621 46.3276 -85.267 47.1132C-86.1325 47.0401 -86.9981 46.9488 -87.8637 46.8757C-94.031 46.3459 -101.389 46.7661 -104.31 47.8074C-107.231 48.867 -104.31 50.1276 -97.7098 50.5661C-91.326 50.9863 -84.2932 50.4382 -82.021 49.3238C-80.398 48.5199 -81.9128 47.844 -84.726 47.2046C-78.8832 47.8074 -73.1487 47.844 -67.1978 47.0036C-70.7683 48.1911 -70.6601 49.068 -66.765 49.7805C-61.6797 50.694 -55.8369 50.7122 -49.4532 50.0728C-52.2664 51.443 -51.0762 52.3564 -45.8827 52.9593C-41.2302 53.5074 -34.8465 53.4343 -30.6267 52.7949C-25.9742 52.0824 -25.4332 51.1324 -29.2201 49.8536C-24.1348 50.3834 -19.1577 50.4016 -14.0724 49.9266C-16.2363 51.2603 -14.9379 52.1007 -10.069 52.6853C-5.74106 53.2151 -0.114716 53.2516 4.21323 52.7218C10.2723 51.9728 11.0297 50.968 7.78377 49.7805C12.9773 50.1641 17.5216 50.0911 22.2823 49.5795C21.8496 49.7988 21.6332 49.9267 21.4168 50.0363C19.0364 51.2968 23.4725 52.5391 31.0464 52.7949C35.158 52.9228 38.6203 52.667 41.9745 52.2834C41.5417 52.4295 41.1089 52.5939 40.7843 52.7401C38.0793 53.7814 40.8925 55.0054 47.0598 55.4439C53.3353 55.9006 60.5846 55.3708 63.0732 54.293C65.4536 53.2333 62.3158 52.0641 55.9321 51.6622C51.1714 51.3699 46.9516 51.6074 43.1647 52.1007C46.0861 51.2786 47.0598 50.4382 43.3811 49.4517C49.332 49.9084 54.4173 49.7805 59.0699 49.1959C58.6371 49.3603 58.2043 49.543 57.8797 49.7074C55.3911 50.8218 58.9617 52.0824 65.67 52.4295C72.3783 52.7766 79.5194 52.1189 81.2505 51.0045C83.0899 49.817 78.762 48.6478 71.7291 48.4103C67.6175 48.2642 64.1552 48.5565 60.801 48.8853C63.7224 48.0084 63.9388 47.1498 60.6928 46.3094C63.1814 46.4007 65.5618 46.5469 67.9421 46.5469C70.3225 46.5469 72.5947 46.3825 74.975 46.2911C73.0275 47.4421 74.3259 48.3007 78.8702 48.8853C83.0899 49.4151 88.4999 49.4882 92.8278 49.0132C99.6443 48.2459 100.294 47.1863 96.7229 45.9257C103.215 46.4007 108.625 46.2728 112.953 45.4325C116.307 44.7748 116.956 43.8248 114.251 43.0758C110.031 41.9065 103.864 41.7421 96.3983 42.2719C98.7787 41.5046 98.1295 40.8287 96.0738 40.0431C101.051 40.3537 105.379 40.2441 109.599 39.8056C107.326 41.121 108.733 42.0344 113.71 42.6008C118.363 43.1306 124.638 43.1488 128.641 42.4729C130.805 42.1258 132.537 41.596 133.078 41.1027C133.51 40.6094 132.212 40.0614 131.671 39.5681C132.104 39.6046 132.969 39.6594 133.943 39.7142C139.245 40.0248 143.465 39.6412 147.468 39.1114C147.793 39.0018 148.009 38.9104 148.334 38.8008C152.662 37.4854 148.55 35.896 139.678 35.6951C136.54 35.622 133.078 35.8412 129.94 35.9143C132.32 35.1287 131.887 34.2883 128.1 33.3749C134.268 33.9412 139.461 33.923 144.438 33.2287C144.006 33.3932 143.573 33.5576 143.14 33.7403C140.652 34.7999 143.681 35.9691 149.848 36.4075C155.908 36.8277 162.94 36.3527 165.537 35.3297C167.701 34.4893 166.295 33.5028 162.075 32.9182C157.639 32.297 151.904 32.297 146.386 32.9364C148.766 32.0778 149.524 31.2191 145.737 30.3422C154.393 30.799 159.803 30.5615 163.157 29.6115C166.186 28.7711 165.321 27.6932 161.209 27.0173C157.098 26.3596 150.822 26.25 146.061 26.7615C143.032 27.0903 140.868 27.5471 140.76 28.1499C140.652 28.698 141.409 29.2278 141.842 29.7576C137.838 29.374 133.294 29.4288 128.858 29.849C129.182 29.447 129.94 29.0451 129.832 28.6615C129.723 28.2778 128.75 27.8942 128.209 27.6019C130.805 27.6201 133.727 27.7115 136.432 27.6384C141.193 27.4923 144.438 26.9624 145.737 26.1769C147.252 25.2817 145.629 24.5327 141.842 23.9115L141.95 23.9298C137.406 23.3817 132.537 23.2904 126.91 23.7654C128.75 22.9798 128.75 22.2856 126.586 21.6644C129.074 21.6827 131.779 21.8106 134.051 21.6827C137.081 21.5183 139.786 21.1712 142.599 20.8971C142.816 20.8058 142.924 20.7144 143.248 20.6231C145.845 19.7096 144.979 18.7414 140.868 18.0837C136.865 17.426 131.238 17.3164 125.937 17.7731C125.504 17.8097 125.071 17.8462 124.205 17.901C127.343 16.9875 127.019 16.1654 123.989 15.3251C131.887 15.7818 137.514 15.5443 140.976 14.6308C144.006 13.827 143.356 12.7674 139.353 12.0732C135.458 11.3972 129.291 11.2511 124.53 11.7261C121.392 12.0366 118.904 12.4934 118.795 13.1145C118.687 13.6626 119.445 14.2289 119.877 14.7404C115.549 14.3385 110.789 14.4116 105.595 14.9414C108.625 13.9366 107.435 13.1145 104.513 12.3107C105.271 12.3655 105.92 12.4203 106.677 12.4751C111.438 12.7857 115.874 12.6943 119.769 12.1097C123.556 11.5251 124.746 10.7943 123.232 9.95396C121.717 9.09531 118.038 8.63859 112.845 8.49244C109.058 8.40109 106.028 8.71166 102.89 8.98569C100.51 9.5703 98.3459 10.1915 99.4279 10.9222C99.9689 11.3059 101.267 11.653 102.133 12.0184C96.8311 11.5434 94.8836 11.5251 87.5261 11.8905C89.9064 10.9953 88.3917 10.1915 85.9031 9.42416C92.7196 10.0088 97.3721 9.88088 102.782 8.98569L102.674 9.00397C103.107 8.85781 103.648 8.71166 104.08 8.56551C107.218 7.35975 102.89 5.95303 95.4246 5.71554C90.0146 5.53284 84.8211 5.93476 82.2243 6.72033C79.4112 7.56071 80.2768 8.47417 84.7129 9.29627C79.0866 8.71166 73.3521 8.58378 66.9684 9.36935C70.3225 8.30974 70.4307 7.41456 66.211 6.57418C65.5618 6.4463 65.0208 6.33669 64.3716 6.20881C59.3944 5.78862 54.3091 5.679 49.0074 6.30015C51.8206 5.09439 51.2796 4.60113 46.8434 3.57806C47.6008 3.65114 48.4664 3.70594 49.2238 3.77901C54.6337 4.29055 61.1256 4.05305 64.6962 3.23095C68.3749 2.40884 67.8339 1.25789 63.3978 0.563667C58.9617 -0.148827 52.2533 -0.185364 47.6008 0.454052C42.9483 1.09347 41.8663 2.20788 45.004 3.10307C45.545 3.24922 45.9778 3.39537 46.5188 3.52325C45.8696 3.46844 45.3287 3.41364 44.6795 3.35883C36.781 2.59153 26.9349 3.35883 26.0693 4.89343C25.7447 5.4415 27.2595 6.02611 27.9087 6.53764C23.7971 6.08092 18.7118 6.06265 12.8691 6.59245C15.8987 5.56939 15.0331 4.74728 11.5707 3.97998C12.5445 4.05305 13.5183 4.12613 14.4921 4.19921C19.902 4.56459 25.9611 4.25401 29.2071 3.4319C32.3448 2.62807 31.6956 1.56846 27.8005 0.874237C23.2561 0.161743 16.7642 0.0521278 11.8953 0.581932ZM8.86575 7.2136C7.02637 7.92609 6.70178 8.62032 8.43295 9.278C4.75421 9.29627 1.18364 9.31454 -2.17052 9.33281C-2.7115 8.71167 -3.25247 8.01744 -3.90166 7.34148C-0.0065155 7.63379 4.42961 7.63379 8.86575 7.2136ZM-8.66243 24.0394C-10.2854 24.0394 -11.8002 24.0577 -13.5314 24.0577C-13.7478 23.7836 -13.856 23.5279 -14.0724 23.2356C-12.233 23.2356 -10.5018 23.2356 -8.7706 23.2356C-8.7706 23.5279 -8.77063 23.7654 -8.66243 24.0394ZM-9.31158 17.0241C-9.41978 17.4077 -9.528 17.7731 -9.528 18.1568C-11.5838 18.175 -13.7477 18.1933 -16.0199 18.2116C-16.2363 17.8462 -16.5609 17.4625 -16.7773 17.0606C-14.5051 17.0424 -12.0166 17.0424 -9.31158 17.0241ZM-9.74442 10.7578C-9.74442 11.2328 -9.6362 11.8357 -9.6362 12.3837C-12.9904 12.4203 -16.5609 12.4751 -19.6987 12.5116C-19.9151 11.9636 -20.1315 11.3059 -20.3479 10.6665C-17.1019 10.703 -13.315 10.7213 -9.74442 10.7578ZM-23.4856 33.5028C-25.6496 33.521 -27.5972 33.5393 -29.6529 33.5576C-29.5447 33.247 -29.5447 32.973 -29.4365 32.6624C-27.7053 32.6441 -25.866 32.6259 -23.8102 32.5893C-23.8102 32.8816 -23.5938 33.1739 -23.4856 33.5028ZM-26.6234 26.5057C-26.5152 26.7798 -26.407 27.0538 -26.407 27.3461C-27.9218 27.3826 -29.2201 27.4009 -30.7349 27.4374C-30.8431 27.1269 -30.9513 26.8346 -31.1677 26.4692C-29.5447 26.4875 -28.1381 26.5057 -26.6234 26.5057ZM-26.8398 21.3538C-29.0037 21.3904 -31.2759 21.4087 -33.4399 21.4452C-33.7645 21.0433 -33.9809 20.6231 -34.3055 20.2029C-31.9251 20.2212 -29.4365 20.2394 -26.948 20.2577C-26.948 20.5865 -26.948 20.9702 -26.8398 21.3538ZM-26.948 13.9001C-27.0562 14.3568 -27.1644 14.9049 -27.2726 15.4347C-30.1939 15.4712 -33.2235 15.526 -36.0366 15.5626C-36.3612 15.0328 -36.6858 14.4664 -37.0104 13.9549C-34.0891 13.9549 -30.5185 13.9366 -26.948 13.9001ZM-25.9742 7.37802C-28.571 8.23667 -28.7873 8.96743 -26.6234 9.69819C-28.8955 9.64339 -31.0595 9.55204 -33.1153 9.55204C-35.171 9.55204 -37.2268 9.67992 -38.6334 9.73473C-38.958 9.07704 -39.3908 8.38282 -39.8236 7.70686C-35.712 8.01744 -31.0595 7.9809 -25.9742 7.37802ZM-42.5285 30.6528C-44.8007 30.6893 -46.7483 30.7259 -48.9122 30.7624C-49.1286 30.3605 -49.2368 29.9586 -49.4532 29.5201C-47.3975 29.5384 -45.1253 29.5567 -42.8531 29.5567C-42.7449 29.9038 -42.6367 30.2691 -42.5285 30.6528ZM-43.9351 24.5144C-46.4237 24.5692 -48.5877 24.624 -50.8598 24.6605C-50.968 24.2769 -51.0762 23.875 -51.1844 23.4913C-48.9122 23.4731 -46.6401 23.4548 -44.0433 23.4548C-43.9351 23.7836 -43.9351 24.1307 -43.9351 24.5144ZM-44.5843 17.1885C-44.4761 17.6818 -44.3679 18.1933 -44.2597 18.6683C-47.0729 18.6866 -50.1024 18.7231 -53.0238 18.7414C-53.132 18.2664 -53.3484 17.7366 -53.4566 17.2433C-50.7516 17.225 -47.6139 17.2068 -44.5843 17.1885ZM-45.6663 10.8491C-45.5581 11.5068 -45.3417 12.1645 -45.2335 12.7674C-48.2631 12.7857 -52.05 12.8222 -55.9451 12.8587C-54.8632 12.2193 -55.1878 11.5068 -58.1091 10.7578C-53.3484 11.1232 -49.2368 11.1597 -45.6663 10.8491ZM-60.0567 27.8759C-62.6535 27.8942 -65.3584 27.9307 -67.9552 27.9672C-68.1716 27.5288 -68.388 27.0538 -68.6044 26.5605C-66.0076 26.5605 -63.3027 26.5423 -60.5977 26.5423C-60.4895 26.999 -60.2731 27.4374 -60.0567 27.8759ZM-61.7879 20.3491C-61.8961 20.7875 -62.0043 21.299 -62.1125 21.8288C-64.601 21.8654 -67.4142 21.9019 -70.011 21.9202C-70.3356 21.4087 -70.552 20.8789 -70.8766 20.3491C-68.0634 20.3491 -65.0338 20.3491 -61.7879 20.3491ZM-62.6535 14.2289C-62.6535 14.7039 -62.6535 15.2885 -62.5453 15.8366C-65.8994 15.8914 -69.6864 15.9645 -72.7159 16.0193C-73.0405 15.4164 -73.3651 14.7405 -73.6897 14.1558C-70.5519 14.1741 -66.5486 14.2106 -62.6535 14.2289ZM-79.6406 17.1885C-79.5324 17.8279 -79.4242 18.5039 -79.4242 19.1068C-82.7784 19.1616 -86.6735 19.2346 -90.6769 19.2894C-89.3785 18.65 -89.4867 17.9193 -92.6244 17.152C-87.6473 17.4808 -83.4276 17.5356 -79.6406 17.1885ZM-94.3556 26.3961C-94.6802 26.7798 -95.3294 27.1086 -95.3294 27.4557C-95.3294 27.7846 -94.6802 28.1134 -94.4638 28.3509C-98.1426 28.3874 -101.93 28.4422 -105.825 28.4788C-104.634 27.8394 -104.743 27.1451 -107.664 26.3961C-102.795 26.7432 -98.5753 26.7798 -94.3556 26.3961ZM-95.8704 20.3491C-96.195 20.7327 -96.6278 21.0615 -96.5196 21.4087C-96.4114 21.7558 -95.8704 22.0846 -95.654 22.3221C-99.4409 22.3586 -103.552 22.3952 -107.556 22.4317C-107.448 22.2125 -106.798 21.8654 -106.907 21.5183C-107.015 21.1529 -107.88 20.8058 -108.53 20.4404C-104.418 20.7144 -100.198 20.7327 -95.8704 20.3491ZM-124.868 32.1874C-121.622 31.3288 -121.297 30.4884 -124.868 29.5201C-120.107 29.9038 -115.779 29.9403 -111.018 29.5384C-113.182 30.3788 -112.533 31.1095 -109.828 31.8951C-115.563 31.4932 -120.431 31.6028 -124.868 32.1874ZM-123.245 38.1979C-120.107 37.3027 -119.89 36.4258 -123.677 35.5854C-118.7 35.9874 -113.723 36.1335 -108.205 35.4576C-110.585 36.3893 -110.585 37.1749 -107.556 37.9787C-113.182 37.4489 -118.267 37.6498 -123.245 38.1979ZM-105.284 34.946C-102.903 34.0508 -103.012 33.3018 -105.5 32.5893C-101.389 32.6076 -97.3852 32.6441 -93.5982 32.6624C-93.3818 33.2105 -93.0572 33.8682 -92.7326 34.5441C-96.5196 34.3797 -100.739 34.398 -105.284 34.946ZM-88.1883 25.3182C-88.2965 24.7702 -88.2965 24.1307 -88.4047 23.5096C-85.5915 23.5279 -82.2374 23.5461 -78.9915 23.5644C-78.7751 24.0577 -78.5587 24.624 -78.4505 25.099C-81.6964 25.1721 -85.1588 25.2452 -88.1883 25.3182ZM-86.3489 31.2922C-86.4571 30.7807 -86.4572 30.2143 -86.5653 29.648C-83.7522 29.6663 -80.6144 29.6845 -77.3685 29.7028C-77.2603 30.1413 -77.1521 30.6711 -77.0439 31.0913C-80.2898 31.1643 -83.5358 31.2374 -86.3489 31.2922ZM-75.2045 35.6403C-75.0963 36.1518 -74.8799 36.7364 -74.7717 37.2662C-77.8012 37.321 -81.2636 37.3575 -84.185 37.4123C-84.4014 36.846 -84.6178 36.2066 -84.8342 35.5854C-81.8046 35.6037 -78.4505 35.622 -75.2045 35.6403ZM-84.726 43.8796C-82.021 42.9844 -82.3456 42.2354 -85.3752 41.4133C-80.5062 41.7786 -76.2865 41.7969 -71.4176 41.3585C-73.1487 42.2719 -72.7159 43.0392 -69.7946 43.77C-74.6635 43.3133 -79.316 43.3498 -84.726 43.8796ZM-66.8732 32.6624C-64.3846 32.6441 -61.5715 32.6441 -58.7583 32.6259C-58.5419 33.0643 -58.3255 33.5576 -58.1091 34.0326C-60.8141 34.0691 -63.8436 34.0874 -66.8732 34.1239C-66.8732 33.6489 -66.8732 33.1557 -66.8732 32.6624ZM-65.7912 38.6546C-62.8699 38.6364 -59.5157 38.6181 -56.2698 38.5998C-56.0534 39.0748 -55.837 39.6229 -55.6206 40.0979C-58.8665 40.1527 -62.3289 40.2258 -65.5748 40.2806C-65.683 39.7508 -65.7912 39.1844 -65.7912 38.6546ZM-66.765 46.894C-63.6272 45.9988 -63.4109 45.1402 -66.8732 44.2267C-62.3289 44.6286 -57.6763 44.6834 -52.4828 44.2267C-54.5386 45.0671 -54.3222 45.7796 -51.7254 46.5469C-57.3517 46.145 -62.2207 46.2728 -66.765 46.894ZM-47.9385 36.9922C-48.0467 36.5172 -48.1548 36.0239 -48.263 35.5124C-45.7745 35.5306 -43.0695 35.5489 -40.3646 35.5672C-40.1482 35.9874 -39.9318 36.4075 -39.7154 36.846C-42.4203 36.9008 -45.2335 36.9556 -47.9385 36.9922ZM-46.9647 43.2402C-46.8565 42.7104 -46.7483 42.0892 -46.5319 41.5229C-43.7187 41.5046 -40.4728 41.4863 -37.335 41.4863C-37.4432 41.7421 -37.6596 42.0527 -37.4432 42.345C-37.335 42.619 -36.6858 42.8931 -36.3612 43.1123C-39.9318 43.1488 -43.6105 43.1854 -46.9647 43.2402ZM-47.1811 49.6343C-44.6925 48.8488 -44.4761 48.0815 -47.3975 47.2228C-42.3121 47.5882 -37.9842 47.5699 -33.3317 47.0767C-35.0629 47.9901 -35.1711 48.7757 -31.8169 49.5247C-37.1186 49.068 -42.2039 49.0315 -47.1811 49.6343ZM-28.7873 39.8239C-28.8955 39.3854 -29.0037 38.9104 -29.1119 38.4354C-26.407 38.4171 -23.702 38.3989 -21.1053 38.3806C-20.8889 38.8191 -20.6725 39.2941 -20.5643 39.7508C-23.0528 39.7873 -25.866 39.8056 -28.7873 39.8239ZM-28.7873 46.3459C-28.6791 45.6517 -28.4627 44.9757 -28.3545 44.3363C-25.325 44.318 -21.538 44.2815 -18.1839 44.245C-17.8593 44.8113 -17.4265 45.469 -16.9937 46.1084C-20.6724 45.9257 -24.784 45.9075 -28.7873 46.3459ZM-11.5838 30.2691C-11.692 30.0134 -11.692 29.7942 -11.8002 29.5201C-10.5018 29.5201 -9.41982 29.5384 -8.01323 29.5384C-7.90503 29.7393 -7.68863 29.9403 -7.47223 30.1778C-8.98701 30.2143 -10.1772 30.2326 -11.5838 30.2691ZM-10.9346 35.4941C-8.987 35.5124 -7.03944 35.5124 -4.87547 35.5306C-4.65907 35.8595 -4.44267 36.17 -4.22627 36.4806C-6.49844 36.5172 -8.77061 36.5354 -11.151 36.572C-11.151 36.2249 -11.0428 35.8777 -10.9346 35.4941ZM-10.8264 42.8017C-10.7182 42.345 -10.61 41.8517 -10.5018 41.3402C-7.90501 41.3402 -4.87546 41.3219 -1.9541 41.3219C-1.7377 41.7604 -1.4131 42.2354 -1.1967 42.6556C-4.33446 42.7104 -7.58044 42.7469 -10.8264 42.8017ZM-10.61 49.269C-8.77061 48.4834 -8.44601 47.7709 -10.5018 47.1132C-6.49843 47.0949 -2.49512 47.0767 1.61644 47.0401C0.318054 47.6613 0.318085 48.3555 3.13124 49.1593C-1.84589 48.7574 -6.06564 48.8122 -10.61 49.269ZM7.56735 33.1739C7.67555 32.9364 7.67555 32.7172 7.67555 32.4614C8.75754 32.4432 9.94772 32.4249 11.4625 32.4066C11.4625 32.6624 11.5707 32.8634 11.5707 33.1374C10.3805 33.1374 9.08212 33.1557 7.56735 33.1739ZM7.67555 38.271C10.0559 38.2527 12.5445 38.2162 14.9249 38.1979C15.2495 38.6364 15.4659 39.0383 15.7904 39.4585C13.3019 39.4585 10.7051 39.4768 7.89197 39.4768C7.78377 39.1114 7.78375 38.7095 7.67555 38.271ZM7.89197 45.7796C8.00017 45.3046 8.10835 44.72 8.21655 44.1354C11.2461 44.0988 14.4921 44.0623 17.5216 44.0257C18.0626 44.6286 18.6036 45.2498 19.0364 45.8527C15.7904 45.8161 11.7871 45.7978 7.89197 45.7796ZM22.7151 22.9798C24.3381 22.9798 25.7447 22.9615 27.3677 22.9615C27.3677 23.2538 27.4759 23.4913 27.4759 23.7654C25.9611 23.7654 24.7709 23.7654 23.2561 23.7654C23.0397 23.5096 22.9315 23.2721 22.7151 22.9798ZM25.5283 29.922C25.4201 29.7211 25.4201 29.5201 25.3119 29.2826C26.6103 29.2643 27.8005 29.2278 28.9907 29.2095C29.2071 29.447 29.3153 29.6845 29.5317 29.9586C28.1251 29.9403 26.9349 29.9403 25.5283 29.922ZM25.6365 35.2566C27.4759 35.2201 29.4235 35.2018 31.5874 35.1653C31.8038 35.4758 31.912 35.7864 32.1284 36.1152C29.9645 36.1335 27.8005 36.1518 25.4201 36.1883C25.5283 35.8777 25.5283 35.5854 25.6365 35.2566ZM34.4006 40.92C34.5088 41.3767 34.7252 41.8883 34.9416 42.3815C32.0202 42.4181 28.7743 42.4546 25.7447 42.4911C25.7447 41.9796 25.6365 41.4681 25.6365 40.9565C28.3415 40.9565 31.371 40.9383 34.4006 40.92ZM24.4463 49.1411C27.0431 48.2459 27.1513 47.4603 24.3381 46.6017C29.0988 46.9671 33.4268 46.9853 38.0793 46.5834C36.5646 47.3873 36.4564 48.0997 39.3777 48.8853C33.9678 48.5017 29.4234 48.5199 24.4463 49.1411ZM42.7319 32.0047C44.6794 31.9864 46.5188 31.9499 48.5746 31.9316C48.791 32.2787 49.0074 32.6259 49.2238 32.973C46.9516 32.973 45.1123 32.973 43.0565 32.973C42.8401 32.6624 42.8401 32.3335 42.7319 32.0047ZM43.4893 39.2575C43.5975 38.8373 43.7057 38.3806 43.8139 37.9056C46.086 37.8873 48.4664 37.8508 50.955 37.8325C51.2796 38.2893 51.6041 38.7643 51.9287 39.221C49.1156 39.2393 46.4106 39.2575 43.4893 39.2575ZM43.5975 45.67C43.7057 44.994 43.9221 44.3911 44.0303 43.8065C47.168 43.77 50.8468 43.7152 53.8763 43.6604C54.4173 44.2998 55.0665 44.994 55.6075 45.6517C52.1452 45.3959 47.9254 45.3228 43.5975 45.67ZM61.0174 35.9691C60.9092 35.5672 60.801 35.1287 60.801 34.672C63.506 34.6355 66.1027 34.5989 68.6995 34.5441C68.8077 35.0008 69.0241 35.4941 69.1323 36.0056C66.6438 36.0056 63.8306 35.9874 61.0174 35.9691ZM61.4502 42.2719C61.342 41.7787 61.342 41.1758 61.2338 40.6277C64.588 40.5729 68.0503 40.5181 71.0799 40.4633C71.2963 41.0114 71.5127 41.6325 71.6209 42.1988C68.4831 42.2354 64.9126 42.2536 61.4502 42.2719ZM78.0046 39.1479C78.1128 38.6181 78.221 38.0152 78.4374 37.4672C81.4669 37.4489 84.8211 37.4123 87.7425 37.3758C88.067 37.9239 88.4998 38.5268 88.7162 39.0383C85.3621 39.0931 81.6833 39.1114 78.0046 39.1479ZM79.1948 45.4142C79.303 44.72 79.5194 44.0623 79.6276 43.3681C80.8177 43.3863 82.7653 43.4594 84.6047 43.4411C86.5523 43.4229 88.4998 43.295 90.9884 43.2036C89.149 43.9527 89.7982 44.6469 92.395 45.4142C87.5261 45.0305 83.3063 45.0123 79.1948 45.4142ZM96.0738 35.8595C95.8574 35.3297 95.7492 34.7633 95.5328 34.2153C98.5623 34.1787 102.025 34.1239 105.162 34.0874C105.271 34.6355 105.379 35.2566 105.487 35.9143C102.674 35.896 99.3197 35.8777 96.0738 35.8595ZM126.153 36.5902C123.773 37.3941 123.881 38.1614 126.369 38.9835C121.609 38.6181 117.172 38.6729 112.195 39.1844C114.359 38.3806 114.576 37.6864 112.195 36.9191C117.389 37.1383 121.933 37.12 126.153 36.5902ZM123.556 30.799C121.933 31.5114 122.15 32.3153 125.396 33.0643C120.959 32.6441 116.523 32.5893 112.304 32.8816C112.304 32.2422 112.195 31.5845 112.195 31.0364C115.766 30.9634 119.661 30.8903 123.556 30.799ZM121.176 24.7702C119.877 25.4096 119.986 26.1221 122.258 26.7249C118.146 26.7067 114.359 26.6701 110.897 26.6519C110.789 26.1221 110.789 25.5009 110.681 24.9346C113.818 24.8798 117.497 24.825 121.176 24.7702ZM120.635 18.376C118.363 19.5087 118.363 19.5087 120.31 20.751C116.09 20.4404 112.087 20.4587 107.759 20.8606C109.166 20.0385 109.166 19.3077 106.136 18.5404C111.438 18.8875 116.09 18.8875 120.635 18.376ZM103.215 28.0403C103.215 28.5336 103.323 29.1182 103.431 29.6845C100.51 29.7028 97.2639 29.7211 94.3426 29.7393C94.1262 29.2095 93.9098 28.6615 93.6934 28.1682C96.7229 28.1134 100.185 28.0769 103.215 28.0403ZM102.133 21.9385C102.025 22.45 101.916 23.0163 101.808 23.6009C99.1033 23.6192 95.8573 23.6192 92.5032 23.6375C92.395 23.1808 92.2868 22.651 92.0704 22.1577C95.3163 22.0846 98.7787 22.0115 102.133 21.9385ZM101.375 15.727C99.7525 16.3664 99.7525 17.1154 102.025 17.7731C98.0213 17.7548 93.9098 17.7183 90.1228 17.7C90.0146 17.152 89.7982 16.5126 89.69 15.9827C93.2606 15.9097 97.3721 15.8183 101.375 15.727ZM86.4441 32.8816C83.8473 32.8816 80.7095 32.8999 77.3554 32.8999C77.4636 32.4614 77.5718 31.9682 77.68 31.5297C80.4932 31.4749 83.1981 31.4018 85.7949 31.347C86.0113 31.8403 86.2277 32.3701 86.4441 32.8816ZM84.0637 25.2452C84.1719 25.7201 84.3883 26.2317 84.6047 26.7432C82.1161 26.725 79.4112 26.7067 76.598 26.6884C76.3816 26.2682 76.1652 25.8115 75.9488 25.3913C78.6538 25.3548 81.4669 25.3 84.0637 25.2452ZM82.6571 19.0702C82.5489 19.5452 82.4407 20.075 82.3325 20.6596C79.9522 20.6596 77.2472 20.6779 74.5423 20.6779C74.2177 20.1846 73.893 19.6914 73.6767 19.2164C76.4898 19.1616 79.6276 19.125 82.6571 19.0702ZM81.3587 12.9866C81.3587 13.5164 81.467 14.1376 81.467 14.7039C78.3292 14.7222 74.6505 14.7587 71.1881 14.777C70.9717 14.2472 70.6471 13.6078 70.4307 13.078C73.7848 13.0414 77.7882 13.0049 81.3587 12.9866ZM66.3192 29.7759C64.2634 29.7576 62.424 29.7576 60.3682 29.7393C60.26 29.4288 60.1518 29.1182 60.0436 28.7711C61.883 28.7345 63.7224 28.698 65.7782 28.6615C65.9946 29.0451 66.1028 29.374 66.3192 29.7759ZM64.4798 22.4865C64.588 22.9067 64.6962 23.3086 64.8044 23.7288C62.5322 23.7471 60.1518 23.7471 57.6633 23.7654C57.5551 23.3817 57.4469 22.9981 57.4469 22.5961C59.9354 22.5596 62.2076 22.5231 64.4798 22.4865ZM63.6142 16.202C63.7224 16.7135 63.8306 17.2433 63.8306 17.7548C61.1256 17.7731 57.9879 17.7914 55.1747 17.8097C54.8501 17.3347 54.6337 16.8231 54.3091 16.3481C57.3387 16.2933 60.5846 16.2568 63.6142 16.202ZM64.8044 9.57031C64.047 9.97223 62.965 10.3376 62.7486 10.7213C62.5322 11.1232 63.0732 11.5434 63.3978 11.9453C59.8272 11.927 56.0403 11.8905 52.6861 11.8722C52.2533 11.2693 51.7124 10.6116 51.1714 9.97223C55.6075 10.2645 60.4764 10.1915 64.8044 9.57031ZM46.9516 26.7249C45.3287 26.7432 43.7057 26.7432 41.9745 26.7615C41.8663 26.4692 41.7581 26.1952 41.5417 25.8663C43.3811 25.8298 44.8959 25.8115 46.627 25.7932C46.8434 26.0855 46.8434 26.3778 46.9516 26.7249ZM45.7615 19.6C45.7615 20.0019 45.8697 20.3673 45.8697 20.751C43.7057 20.7327 41.5417 20.7144 39.1613 20.7144C38.9449 20.4039 38.8367 20.075 38.6203 19.7462C41.1089 19.6914 43.3811 19.6548 45.7615 19.6ZM36.3482 14.9597C36.1318 14.4847 35.9154 13.9549 35.699 13.4616C38.6203 13.4251 41.6499 13.3885 44.5713 13.352C44.6795 13.8635 44.7877 14.3933 44.7877 14.9231C42.1909 14.9414 39.2695 14.9414 36.3482 14.9597ZM45.3287 6.82995C43.0565 7.68859 42.9483 8.45589 45.8697 9.25973C41.0007 8.93089 36.5646 8.91262 31.912 9.36935C33.9678 8.41936 33.3186 7.59725 29.748 6.84822C34.7252 7.34148 39.7023 7.41456 45.3287 6.82995ZM27.0431 16.6404C26.9349 17.0424 26.8267 17.4443 26.7185 17.8827C24.4463 17.901 22.0659 17.9193 19.4692 17.9558C19.2528 17.5173 18.9282 17.0972 18.7118 16.6952C21.4168 16.6587 24.1217 16.6587 27.0431 16.6404ZM26.7185 10.3741C26.6103 10.8674 26.5021 11.452 26.3939 12.0184C23.2562 12.0549 19.902 12.0732 16.6561 12.1097C16.4397 11.5982 16.1151 11.0501 15.8987 10.5568C19.361 10.502 23.1479 10.4472 26.7185 10.3741ZM9.19032 26.323C9.29852 26.4692 9.40674 26.6153 9.51494 26.7798C8.32475 26.8163 7.35095 26.8346 5.94437 26.8711C5.94437 26.6701 6.05258 26.524 6.05258 26.3596C7.02637 26.3596 8.00014 26.3413 9.19032 26.323ZM8.86575 20.9519C7.02637 20.9702 5.18698 21.0067 3.23941 21.025C3.13121 20.6779 2.91483 20.3673 2.80663 20.0385C4.8624 20.0202 6.91818 20.0019 9.08215 19.9837C8.97395 20.2942 8.97394 20.6048 8.86575 20.9519ZM9.08215 13.6443C8.97395 14.1193 8.86574 14.6308 8.75754 15.1424C6.16078 15.1606 3.23944 15.1606 0.42627 15.1789C0.101685 14.7039 -0.222946 14.2106 -0.547531 13.7539C2.59023 13.7174 5.728 13.6808 9.08215 13.6443Z" fill="white"/>
</svg>
