<svg width="191" height="69" viewBox="0 0 191 69" fill="none" xmlns="http://www.w3.org/2000/svg">
<g filter="url(#filter0_dii_1_1188)">
<path d="M7.18042 29.6055C8.69885 22.1535 15.2531 16.8 22.8583 16.8H167.975C175.58 16.8 182.135 22.1535 183.653 29.6055L186.506 43.6055C188.526 53.5221 180.948 62.8 170.828 62.8H20.0057C9.88533 62.8 2.30721 53.5221 4.3278 43.6055L7.18042 29.6055Z" fill="url(#paint0_linear_1_1188)"/>
</g>
<g filter="url(#filter1_di_1_1188)">
<path d="M14.1124 16.8H176.721L178.128 29.7469C179.35 40.9868 170.546 50.8 159.24 50.8H31.5939C20.2878 50.8 11.4834 40.9868 12.7051 29.7469L14.1124 16.8Z" fill="url(#paint1_linear_1_1188)"/>
</g>
<g filter="url(#filter2_ii_1_1188)">
<rect x="13.4167" y="-0.199951" width="164" height="41" rx="16" fill="url(#paint2_linear_1_1188)"/>
</g>
<path d="M53.7426 15.3567L53.5346 16.8767H52.9266L51.7426 25.2127C51.7 25.5114 51.5613 25.7674 51.3266 25.9807C51.092 26.194 50.82 26.3007 50.5106 26.3007H47.3426L48.7666 24.7807L49.8866 16.8767H40.7666L40.9746 15.3567H53.7426ZM48.8466 17.7887L47.9506 24.1727H40.6546L41.4546 18.3967L40.9426 17.7887H48.8466ZM45.8866 19.3087H44.0626L43.5986 22.6527H45.4226L45.8866 19.3087ZM69.0694 15.3567L68.8614 16.9087H66.2694L65.9974 17.5967H68.4934L67.6774 23.3727H66.1574L65.8854 22.9887L66.4454 19.0207H63.6294L63.0694 22.9887L62.7014 23.3727H61.1654L61.9814 17.5967H63.9654L64.2374 16.9087H61.9014L62.1094 15.3567H69.0694ZM57.0854 22.9887L57.4214 23.5807L58.3654 21.8367H54.8454L55.0534 20.3487H61.0854L60.8454 22.0447L58.6854 25.3727H58.6534L59.3734 26.5407H56.8774L54.7494 22.9887H57.0854ZM59.4534 19.8687H57.5174L57.3094 18.6847L56.8934 19.6927H54.9894L56.6214 15.8047L56.2374 15.3727H61.0054L61.5814 19.6767H59.8374L59.3734 16.7807H58.1094L57.5174 18.1727H59.1654L59.4534 19.8687ZM65.8854 19.5807L65.4214 22.9247L67.5494 26.5407H65.0374L64.2854 24.5407L62.8614 26.5407H60.4934L63.5654 22.8607L64.0294 19.5807H65.8854ZM76.7961 24.5887L76.0441 24.6847L75.7881 26.5727H73.3881L73.6121 24.9567L69.4361 25.4367L69.6601 23.7887L70.1561 23.7407L71.1001 16.8767H70.6201L70.8281 15.3567H77.8201L77.6121 16.8767H77.1481L76.2841 23.0207L77.0361 22.9247L76.7961 24.5887ZM79.8681 17.7887L79.7241 18.8287L80.3161 20.5247L81.2921 18.6047L81.4681 17.2767H77.8681L78.1081 15.6767H83.8361L83.3401 19.1327L81.1161 22.7487L82.4761 26.5567H80.4121L79.8041 24.8767L78.7801 26.5407H76.3641L79.0041 22.6207L77.6761 18.8607L77.8201 17.7887H79.8681ZM73.2761 18.0447H74.5881L74.7481 16.8767H73.4361L73.2761 18.0447ZM72.9081 20.7327H74.2041L74.3801 19.5647H73.0681L72.9081 20.7327ZM72.5241 23.4527L73.8521 23.3087L73.9961 22.2527H72.7001L72.5241 23.4527Z" fill="white"/>
<path d="M96.073 18.7061V16.5381H96.9167C97.7527 16.5381 98.4011 16.3076 98.8621 15.8467C99.323 15.4014 99.5535 14.8232 99.5535 14.1123C99.5378 13.3936 99.2996 12.8037 98.8386 12.3428C98.3777 11.8975 97.7839 11.667 97.0574 11.6514C96.5339 11.6514 96.0574 11.8193 95.6277 12.1553C95.1746 12.4912 94.8699 13.0107 94.7136 13.7139H92.2644C92.3894 12.4482 92.9011 11.3818 93.7996 10.5146C94.6824 9.65527 95.7371 9.21777 96.9636 9.20215C98.5183 9.21777 99.7527 9.71387 100.667 10.6904C101.542 11.6436 101.987 12.7686 102.003 14.0654C102.003 14.7217 101.885 15.3545 101.651 15.9639C101.378 16.5732 100.889 17.1162 100.186 17.5928C100.905 18.0615 101.425 18.624 101.745 19.2803C102.05 19.9365 102.202 20.624 102.202 21.3428C102.186 22.9443 101.69 24.2061 100.714 25.1279C99.7527 26.0732 98.5183 26.5537 97.0105 26.5693C95.8464 26.5693 94.8152 26.1943 93.9167 25.4443C93.0183 24.6943 92.4363 23.6084 92.1707 22.1865H94.6199C94.8386 22.7568 95.1472 23.2178 95.5457 23.5693C95.9519 23.9365 96.491 24.1201 97.1628 24.1201C97.8816 24.1201 98.4871 23.874 98.9792 23.3818C99.4792 22.9209 99.7371 22.2646 99.7527 21.4131C99.7371 20.5459 99.4792 19.874 98.9792 19.3975C98.4871 18.9365 97.8621 18.7061 97.1042 18.7061H96.073ZM106.702 14.0889C106.718 14.8779 106.971 15.4795 107.464 15.8936C107.948 16.3232 108.507 16.5381 109.139 16.5381C109.796 16.5381 110.366 16.3232 110.85 15.8936C111.327 15.4795 111.573 14.8779 111.589 14.0889C111.573 13.2764 111.327 12.6631 110.85 12.249C110.366 11.8506 109.796 11.6514 109.139 11.6514C108.507 11.6514 107.948 11.8506 107.464 12.249C106.971 12.6631 106.718 13.2764 106.702 14.0889ZM103.936 21.4365C103.952 19.7881 104.624 18.5068 105.952 17.5928C105.444 17.1475 105.046 16.6357 104.757 16.0576C104.421 15.5186 104.253 14.8779 104.253 14.1357C104.268 12.7139 104.749 11.5381 105.694 10.6084C106.585 9.68652 107.733 9.21777 109.139 9.20215C110.569 9.21777 111.737 9.68652 112.643 10.6084C113.557 11.5381 114.022 12.7139 114.038 14.1357C114.038 14.8779 113.885 15.5186 113.581 16.0576C113.26 16.6357 112.846 17.1475 112.339 17.5928C113.667 18.5068 114.339 19.7881 114.354 21.4365C114.339 22.9756 113.835 24.2061 112.843 25.1279C111.835 26.0732 110.6 26.5537 109.139 26.5693C107.686 26.5537 106.471 26.0732 105.495 25.1279C104.471 24.2061 103.952 22.9756 103.936 21.4365ZM106.385 21.4131C106.401 22.1943 106.682 22.835 107.229 23.335C107.753 23.8584 108.389 24.1201 109.139 24.1201C109.913 24.1201 110.561 23.8584 111.085 23.335C111.616 22.835 111.889 22.1943 111.905 21.4131C111.889 20.6162 111.616 19.9678 111.085 19.4678C110.561 18.9756 109.913 18.7217 109.139 18.7061C108.389 18.7217 107.753 18.9756 107.229 19.4678C106.682 19.9678 106.401 20.6162 106.385 21.4131ZM118.233 14.0889C118.249 14.8779 118.503 15.4795 118.995 15.8936C119.479 16.3232 120.038 16.5381 120.671 16.5381C121.327 16.5381 121.897 16.3232 122.382 15.8936C122.858 15.4795 123.104 14.8779 123.12 14.0889C123.104 13.2764 122.858 12.6631 122.382 12.249C121.897 11.8506 121.327 11.6514 120.671 11.6514C120.038 11.6514 119.479 11.8506 118.995 12.249C118.503 12.6631 118.249 13.2764 118.233 14.0889ZM115.468 21.4365C115.483 19.7881 116.155 18.5068 117.483 17.5928C116.975 17.1475 116.577 16.6357 116.288 16.0576C115.952 15.5186 115.784 14.8779 115.784 14.1357C115.8 12.7139 116.28 11.5381 117.225 10.6084C118.116 9.68652 119.264 9.21777 120.671 9.20215C122.1 9.21777 123.268 9.68652 124.175 10.6084C125.089 11.5381 125.553 12.7139 125.569 14.1357C125.569 14.8779 125.417 15.5186 125.112 16.0576C124.792 16.6357 124.378 17.1475 123.87 17.5928C125.198 18.5068 125.87 19.7881 125.885 21.4365C125.87 22.9756 125.366 24.2061 124.374 25.1279C123.366 26.0732 122.132 26.5537 120.671 26.5693C119.218 26.5537 118.003 26.0732 117.026 25.1279C116.003 24.2061 115.483 22.9756 115.468 21.4365ZM117.917 21.4131C117.932 22.1943 118.214 22.835 118.76 23.335C119.284 23.8584 119.921 24.1201 120.671 24.1201C121.444 24.1201 122.093 23.8584 122.616 23.335C123.147 22.835 123.421 22.1943 123.436 21.4131C123.421 20.6162 123.147 19.9678 122.616 19.4678C122.093 18.9756 121.444 18.7217 120.671 18.7061C119.921 18.7217 119.284 18.9756 118.76 19.4678C118.214 19.9678 117.932 20.6162 117.917 21.4131ZM129.764 14.0889C129.78 14.8779 130.034 15.4795 130.526 15.8936C131.01 16.3232 131.569 16.5381 132.202 16.5381C132.858 16.5381 133.428 16.3232 133.913 15.8936C134.389 15.4795 134.635 14.8779 134.651 14.0889C134.635 13.2764 134.389 12.6631 133.913 12.249C133.428 11.8506 132.858 11.6514 132.202 11.6514C131.569 11.6514 131.01 11.8506 130.526 12.249C130.034 12.6631 129.78 13.2764 129.764 14.0889ZM126.999 21.4365C127.014 19.7881 127.686 18.5068 129.014 17.5928C128.507 17.1475 128.108 16.6357 127.819 16.0576C127.483 15.5186 127.315 14.8779 127.315 14.1357C127.331 12.7139 127.811 11.5381 128.757 10.6084C129.647 9.68652 130.796 9.21777 132.202 9.20215C133.632 9.21777 134.8 9.68652 135.706 10.6084C136.62 11.5381 137.085 12.7139 137.1 14.1357C137.1 14.8779 136.948 15.5186 136.643 16.0576C136.323 16.6357 135.909 17.1475 135.401 17.5928C136.729 18.5068 137.401 19.7881 137.417 21.4365C137.401 22.9756 136.897 24.2061 135.905 25.1279C134.897 26.0732 133.663 26.5537 132.202 26.5693C130.749 26.5537 129.534 26.0732 128.557 25.1279C127.534 24.2061 127.014 22.9756 126.999 21.4365ZM129.448 21.4131C129.464 22.1943 129.745 22.835 130.292 23.335C130.815 23.8584 131.452 24.1201 132.202 24.1201C132.975 24.1201 133.624 23.8584 134.147 23.335C134.678 22.835 134.952 22.1943 134.968 21.4131C134.952 20.6162 134.678 19.9678 134.147 19.4678C133.624 18.9756 132.975 18.7217 132.202 18.7061C131.452 18.7217 130.815 18.9756 130.292 19.4678C129.745 19.9678 129.464 20.6162 129.448 21.4131Z" fill="white"/>
<path d="M146.149 21.2567H147.637V25.4207C147.637 25.6527 147.661 25.8007 147.709 25.8647C147.765 25.9207 147.893 25.9487 148.093 25.9487C148.133 25.9487 148.201 25.9487 148.297 25.9487C148.393 25.9487 148.497 25.9487 148.609 25.9487C148.729 25.9487 148.837 25.9487 148.933 25.9487C149.037 25.9487 149.121 25.9487 149.185 25.9487C149.321 25.9487 149.421 25.9007 149.485 25.8047C149.557 25.7007 149.609 25.5047 149.641 25.2167C149.673 24.9207 149.697 24.4847 149.713 23.9087C149.817 23.9887 149.949 24.0687 150.109 24.1487C150.269 24.2287 150.433 24.3007 150.601 24.3647C150.769 24.4287 150.917 24.4767 151.045 24.5087C150.997 25.2287 150.913 25.7927 150.793 26.2007C150.681 26.6007 150.509 26.8807 150.277 27.0407C150.045 27.2087 149.725 27.2927 149.317 27.2927C149.245 27.2927 149.141 27.2927 149.005 27.2927C148.877 27.2927 148.737 27.2927 148.585 27.2927C148.433 27.2927 148.289 27.2927 148.153 27.2927C148.025 27.2927 147.925 27.2927 147.853 27.2927C147.405 27.2927 147.057 27.2327 146.809 27.1127C146.561 27.0007 146.389 26.8087 146.293 26.5367C146.197 26.2647 146.149 25.8967 146.149 25.4327V21.2567ZM140.053 20.3447H150.817V21.7367H140.053V20.3447ZM141.145 17.0807H149.713V18.4607H141.145V17.0807ZM142.801 21.4487H144.349C144.301 22.1047 144.221 22.7287 144.109 23.3207C143.997 23.9127 143.817 24.4687 143.569 24.9887C143.321 25.5007 142.965 25.9687 142.501 26.3927C142.037 26.8087 141.429 27.1687 140.677 27.4727C140.597 27.2887 140.469 27.0807 140.293 26.8487C140.117 26.6247 139.949 26.4407 139.789 26.2967C140.445 26.0567 140.965 25.7687 141.349 25.4327C141.733 25.0887 142.025 24.7127 142.225 24.3047C142.425 23.8887 142.561 23.4407 142.633 22.9607C142.705 22.4727 142.761 21.9687 142.801 21.4487Z" fill="white"/>
<defs>
<filter id="filter0_dii_1_1188" x="0" y="14.7" width="190.833" height="54.1" filterUnits="userSpaceOnUse" color-interpolation-filters="sRGB">
<feFlood flood-opacity="0" result="BackgroundImageFix"/>
<feColorMatrix in="SourceAlpha" type="matrix" values="0 0 0 0 0 0 0 0 0 0 0 0 0 0 0 0 0 0 127 0" result="hardAlpha"/>
<feOffset dy="2"/>
<feGaussianBlur stdDeviation="2"/>
<feComposite in2="hardAlpha" operator="out"/>
<feColorMatrix type="matrix" values="0 0 0 0 0.905882 0 0 0 0 0.276471 0 0 0 0 0.0666667 0 0 0 0.5 0"/>
<feBlend mode="normal" in2="BackgroundImageFix" result="effect1_dropShadow_1_1188"/>
<feBlend mode="normal" in="SourceGraphic" in2="effect1_dropShadow_1_1188" result="shape"/>
<feColorMatrix in="SourceAlpha" type="matrix" values="0 0 0 0 0 0 0 0 0 0 0 0 0 0 0 0 0 0 127 0" result="hardAlpha"/>
<feOffset dy="4"/>
<feGaussianBlur stdDeviation="2"/>
<feComposite in2="hardAlpha" operator="arithmetic" k2="-1" k3="1"/>
<feColorMatrix type="matrix" values="0 0 0 0 0.99258 0 0 0 0 0.919445 0 0 0 0 1 0 0 0 0.75 0"/>
<feBlend mode="normal" in2="shape" result="effect2_innerShadow_1_1188"/>
<feColorMatrix in="SourceAlpha" type="matrix" values="0 0 0 0 0 0 0 0 0 0 0 0 0 0 0 0 0 0 127 0" result="hardAlpha"/>
<feOffset dy="-3"/>
<feGaussianBlur stdDeviation="1.05"/>
<feComposite in2="hardAlpha" operator="arithmetic" k2="-1" k3="1"/>
<feColorMatrix type="matrix" values="0 0 0 0 0.881944 0 0 0 0 0.584901 0 0 0 0 0.169039 0 0 0 0.8 0"/>
<feBlend mode="normal" in2="effect2_innerShadow_1_1188" result="effect3_innerShadow_1_1188"/>
</filter>
<filter id="filter1_di_1_1188" x="10.2917" y="14.5" width="170.25" height="38.6" filterUnits="userSpaceOnUse" color-interpolation-filters="sRGB">
<feFlood flood-opacity="0" result="BackgroundImageFix"/>
<feColorMatrix in="SourceAlpha" type="matrix" values="0 0 0 0 0 0 0 0 0 0 0 0 0 0 0 0 0 0 127 0" result="hardAlpha"/>
<feOffset/>
<feGaussianBlur stdDeviation="1.15"/>
<feComposite in2="hardAlpha" operator="out"/>
<feColorMatrix type="matrix" values="0 0 0 0 0 0 0 0 0 0 0 0 0 0 0 0 0 0 0.25 0"/>
<feBlend mode="normal" in2="BackgroundImageFix" result="effect1_dropShadow_1_1188"/>
<feBlend mode="normal" in="SourceGraphic" in2="effect1_dropShadow_1_1188" result="shape"/>
<feColorMatrix in="SourceAlpha" type="matrix" values="0 0 0 0 0 0 0 0 0 0 0 0 0 0 0 0 0 0 127 0" result="hardAlpha"/>
<feOffset dy="-3"/>
<feGaussianBlur stdDeviation="0.8"/>
<feComposite in2="hardAlpha" operator="arithmetic" k2="-1" k3="1"/>
<feColorMatrix type="matrix" values="0 0 0 0 0.51232 0 0 0 0 0.143186 0 0 0 0 0.143186 0 0 0 0.16 0"/>
<feBlend mode="normal" in2="shape" result="effect2_innerShadow_1_1188"/>
</filter>
<filter id="filter2_ii_1_1188" x="13.4167" y="-1.19995" width="164" height="42" filterUnits="userSpaceOnUse" color-interpolation-filters="sRGB">
<feFlood flood-opacity="0" result="BackgroundImageFix"/>
<feBlend mode="normal" in="SourceGraphic" in2="BackgroundImageFix" result="shape"/>
<feColorMatrix in="SourceAlpha" type="matrix" values="0 0 0 0 0 0 0 0 0 0 0 0 0 0 0 0 0 0 127 0" result="hardAlpha"/>
<feOffset dy="-6"/>
<feGaussianBlur stdDeviation="0.5"/>
<feComposite in2="hardAlpha" operator="arithmetic" k2="-1" k3="1"/>
<feColorMatrix type="matrix" values="0 0 0 0 1 0 0 0 0 0.699444 0 0 0 0 0.24861 0 0 0 0.49 0"/>
<feBlend mode="normal" in2="shape" result="effect1_innerShadow_1_1188"/>
<feColorMatrix in="SourceAlpha" type="matrix" values="0 0 0 0 0 0 0 0 0 0 0 0 0 0 0 0 0 0 127 0" result="hardAlpha"/>
<feOffset dy="-2"/>
<feComposite in2="hardAlpha" operator="arithmetic" k2="-1" k3="1"/>
<feColorMatrix type="matrix" values="0 0 0 0 1 0 0 0 0 1 0 0 0 0 1 0 0 0 0.3 0"/>
<feBlend mode="normal" in2="effect1_innerShadow_1_1188" result="effect2_innerShadow_1_1188"/>
</filter>
<linearGradient id="paint0_linear_1_1188" x1="95.4167" y1="16.8" x2="95.4167" y2="62.8" gradientUnits="userSpaceOnUse">
<stop stop-color="white"/>
<stop offset="0.438948" stop-color="#FFF0E4"/>
</linearGradient>
<linearGradient id="paint1_linear_1_1188" x1="180.36" y1="32.4579" x2="10.4734" y2="32.4579" gradientUnits="userSpaceOnUse">
<stop stop-color="#EE914F"/>
<stop offset="0.498469" stop-color="#F74D0B"/>
<stop offset="1" stop-color="#E9753B"/>
</linearGradient>
<linearGradient id="paint2_linear_1_1188" x1="95.4167" y1="-0.199951" x2="95.4167" y2="40.8" gradientUnits="userSpaceOnUse">
<stop stop-color="#FBC059"/>
<stop offset="1" stop-color="#F86A32"/>
</linearGradient>
</defs>
</svg>
