<svg width="211" height="98" viewBox="0 0 211 98" fill="none" xmlns="http://www.w3.org/2000/svg">
<path d="M266.063 31.2301L257.352 30.5053L256.563 39.9895L265.274 40.7142L266.063 31.2301Z" fill="white" fill-opacity="0.3" style="mix-blend-mode:luminosity"/>
<path d="M262.906 69.1663L254.196 68.4416L253.406 77.9257L262.117 78.6505L262.906 69.1663Z" fill="white" fill-opacity="0.3" style="mix-blend-mode:luminosity"/>
<path d="M264.485 50.1982L255.774 49.4735L254.985 58.9576L263.695 59.6824L264.485 50.1982Z" fill="white" fill-opacity="0.3" style="mix-blend-mode:luminosity"/>
<path d="M261.328 88.1345L252.617 87.4097L251.828 96.8938L260.539 97.6186L261.328 88.1345Z" fill="white" fill-opacity="0.3" style="mix-blend-mode:luminosity"/>
<path d="M196.378 25.4321L187.667 24.7074L186.878 34.1915L195.589 34.9163L196.378 25.4321Z" fill="white" fill-opacity="0.3" style="mix-blend-mode:luminosity"/>
<path d="M193.221 63.3684L184.511 62.6436L183.722 72.1277L192.432 72.8525L193.221 63.3684Z" fill="white" fill-opacity="0.3" style="mix-blend-mode:luminosity"/>
<path d="M194.8 44.4003L186.089 43.6755L185.3 53.1596L194.01 53.8844L194.8 44.4003Z" fill="white" fill-opacity="0.3" style="mix-blend-mode:luminosity"/>
<path d="M191.643 82.3365L182.932 81.6118L182.143 91.0959L190.854 91.8206L191.643 82.3365Z" fill="white" fill-opacity="0.3" style="mix-blend-mode:luminosity"/>
<path d="M231.22 28.3311L222.509 27.6063L221.72 37.0904L230.431 37.8152L231.22 28.3311Z" fill="white" fill-opacity="0.3" style="mix-blend-mode:luminosity"/>
<path d="M228.063 66.2673L219.353 65.5426L218.563 75.0267L227.274 75.7514L228.063 66.2673Z" fill="white" fill-opacity="0.3" style="mix-blend-mode:luminosity"/>
<path d="M229.642 47.2992L220.931 46.5744L220.142 56.0586L228.852 56.7833L229.642 47.2992Z" fill="white" fill-opacity="0.3" style="mix-blend-mode:luminosity"/>
<path d="M226.485 85.2355L217.774 84.5107L216.985 93.9948L225.696 94.7196L226.485 85.2355Z" fill="white" fill-opacity="0.3" style="mix-blend-mode:luminosity"/>
<path d="M161.534 22.533L152.823 21.8082L152.034 31.2924L160.745 32.0171L161.534 22.533Z" fill="white" fill-opacity="0.3" style="mix-blend-mode:luminosity"/>
<path d="M158.377 60.4693L149.667 59.7445L148.877 69.2286L157.588 69.9534L158.377 60.4693Z" fill="white" fill-opacity="0.3" style="mix-blend-mode:luminosity"/>
<path d="M74.424 15.2852L65.7132 14.5605L64.9241 24.0446L73.6349 24.7694L74.424 15.2852Z" fill="white" fill-opacity="0.3" style="mix-blend-mode:luminosity"/>
<path d="M71.2676 53.2215L62.5568 52.4967L61.7677 61.9809L70.4785 62.7056L71.2676 53.2215Z" fill="white" fill-opacity="0.3" style="mix-blend-mode:luminosity"/>
<path d="M126.687 19.6337L117.977 18.9089L117.187 28.3931L125.898 29.1178L126.687 19.6337Z" fill="white" fill-opacity="0.3" style="mix-blend-mode:luminosity"/>
<path d="M123.531 57.57L114.82 56.8452L114.031 66.3293L122.742 67.0541L123.531 57.57Z" fill="white" fill-opacity="0.3" style="mix-blend-mode:luminosity"/>
<path d="M39.5787 12.386L30.868 11.6613L30.0789 21.1454L38.7896 21.8702L39.5787 12.386Z" fill="white" fill-opacity="0.3" style="mix-blend-mode:luminosity"/>
<path d="M36.4223 50.3223L27.7116 49.5975L26.9225 59.0817L35.6332 59.8064L36.4223 50.3223Z" fill="white" fill-opacity="0.3" style="mix-blend-mode:luminosity"/>
<path d="M159.955 41.5011L151.245 40.7764L150.456 50.2605L159.166 50.9853L159.955 41.5011Z" fill="white" fill-opacity="0.3" style="mix-blend-mode:luminosity"/>
<path d="M156.799 79.4374L148.088 78.7126L147.299 88.1968L156.01 88.9215L156.799 79.4374Z" fill="white" fill-opacity="0.3" style="mix-blend-mode:luminosity"/>
<path d="M72.8458 34.2534L64.135 33.5286L63.3459 43.0128L72.0567 43.7375L72.8458 34.2534Z" fill="white" fill-opacity="0.3" style="mix-blend-mode:luminosity"/>
<path d="M69.6894 72.1896L60.9786 71.4649L60.1895 80.949L68.9003 81.6738L69.6894 72.1896Z" fill="white" fill-opacity="0.3" style="mix-blend-mode:luminosity"/>
<path d="M125.109 38.6018L116.398 37.8771L115.609 47.3612L124.32 48.086L125.109 38.6018Z" fill="white" fill-opacity="0.3" style="mix-blend-mode:luminosity"/>
<path d="M121.953 76.5381L113.242 75.8133L112.453 85.2975L121.164 86.0222L121.953 76.5381Z" fill="white" fill-opacity="0.3" style="mix-blend-mode:luminosity"/>
<path d="M38.0005 31.3542L29.2898 30.6294L28.5007 40.1135L37.2114 40.8383L38.0005 31.3542Z" fill="white" fill-opacity="0.3" style="mix-blend-mode:luminosity"/>
<path d="M34.8441 69.2904L26.1334 68.5657L25.3443 78.0498L34.055 78.7746L34.8441 69.2904Z" fill="white" fill-opacity="0.3" style="mix-blend-mode:luminosity"/>
<path d="M248.641 29.7806L239.93 29.0558L239.141 38.5399L247.852 39.2647L248.641 29.7806Z" fill="white" fill-opacity="0.3" style="mix-blend-mode:luminosity"/>
<path d="M245.485 67.7168L236.774 66.9921L235.985 76.4762L244.696 77.201L245.485 67.7168Z" fill="white" fill-opacity="0.3" style="mix-blend-mode:luminosity"/>
<path d="M247.063 48.7487L238.352 48.0239L237.563 57.5081L246.274 58.2328L247.063 48.7487Z" fill="white" fill-opacity="0.3" style="mix-blend-mode:luminosity"/>
<path d="M243.907 86.685L235.196 85.9602L234.407 95.4443L243.118 96.1691L243.907 86.685Z" fill="white" fill-opacity="0.3" style="mix-blend-mode:luminosity"/>
<path d="M178.954 23.9824L170.243 23.2577L169.454 32.7418L178.165 33.4666L178.954 23.9824Z" fill="white" fill-opacity="0.3" style="mix-blend-mode:luminosity"/>
<path d="M175.798 61.9187L167.087 61.1939L166.298 70.6781L175.009 71.4028L175.798 61.9187Z" fill="white" fill-opacity="0.3" style="mix-blend-mode:luminosity"/>
<path d="M91.8444 16.7347L83.1336 16.0099L82.3445 25.494L91.0552 26.2188L91.8444 16.7347Z" fill="white" fill-opacity="0.3" style="mix-blend-mode:luminosity"/>
<path d="M88.688 54.6709L79.9772 53.9462L79.1881 63.4303L87.8989 64.1551L88.688 54.6709Z" fill="white" fill-opacity="0.3" style="mix-blend-mode:luminosity"/>
<path d="M177.376 42.9506L168.665 42.2258L167.876 51.7099L176.587 52.4347L177.376 42.9506Z" fill="white" fill-opacity="0.3" style="mix-blend-mode:luminosity"/>
<path d="M174.219 80.8868L165.509 80.1621L164.72 89.6462L173.43 90.3709L174.219 80.8868Z" fill="white" fill-opacity="0.3" style="mix-blend-mode:luminosity"/>
<path d="M90.2662 35.7028L81.5554 34.978L80.7663 44.4622L89.4771 45.1869L90.2662 35.7028Z" fill="white" fill-opacity="0.3" style="mix-blend-mode:luminosity"/>
<path d="M87.1098 73.6391L78.399 72.9143L77.6099 82.3984L86.3207 83.1232L87.1098 73.6391Z" fill="white" fill-opacity="0.3" style="mix-blend-mode:luminosity"/>
<path d="M213.799 26.8816L205.089 26.1569L204.299 35.641L213.01 36.3658L213.799 26.8816Z" fill="white" fill-opacity="0.3" style="mix-blend-mode:luminosity"/>
<path d="M210.643 64.8179L201.932 64.0931L201.143 73.5773L209.854 74.302L210.643 64.8179Z" fill="white" fill-opacity="0.3" style="mix-blend-mode:luminosity"/>
<path d="M212.221 45.8498L203.51 45.125L202.721 54.6091L211.432 55.3339L212.221 45.8498Z" fill="white" fill-opacity="0.3" style="mix-blend-mode:luminosity"/>
<path d="M209.065 83.786L200.354 83.0613L199.565 92.5454L208.276 93.2702L209.065 83.786Z" fill="white" fill-opacity="0.3" style="mix-blend-mode:luminosity"/>
<path d="M144.112 21.0835L135.401 20.3587L134.612 29.8429L143.323 30.5676L144.112 21.0835Z" fill="white" fill-opacity="0.3" style="mix-blend-mode:luminosity"/>
<path d="M140.956 59.0197L132.245 58.295L131.456 67.7791L140.167 68.5039L140.956 59.0197Z" fill="white" fill-opacity="0.3" style="mix-blend-mode:luminosity"/>
<path d="M57.0025 13.8357L48.2917 13.111L47.5026 22.5951L56.2134 23.3199L57.0025 13.8357Z" fill="white" fill-opacity="0.3" style="mix-blend-mode:luminosity"/>
<path d="M53.8461 51.772L45.1353 51.0472L44.3462 60.5314L53.057 61.2561L53.8461 51.772Z" fill="white" fill-opacity="0.3" style="mix-blend-mode:luminosity"/>
<path d="M109.266 18.1842L100.555 17.4594L99.766 26.9436L108.477 27.6683L109.266 18.1842Z" fill="white" fill-opacity="0.3" style="mix-blend-mode:luminosity"/>
<path d="M106.109 56.1204L97.3987 55.3957L96.6096 64.8798L105.32 65.6046L106.109 56.1204Z" fill="white" fill-opacity="0.3" style="mix-blend-mode:luminosity"/>
<path d="M22.1595 10.9367L13.4487 10.2119L12.6596 19.6961L21.3703 20.4208L22.1595 10.9367Z" fill="white" fill-opacity="0.3" style="mix-blend-mode:luminosity"/>
<path d="M19.0031 48.873L10.2923 48.1482L9.50319 57.6323L18.214 58.3571L19.0031 48.873Z" fill="white" fill-opacity="0.3" style="mix-blend-mode:luminosity"/>
<path d="M142.534 40.0516L133.823 39.3269L133.034 48.811L141.745 49.5358L142.534 40.0516Z" fill="white" fill-opacity="0.3" style="mix-blend-mode:luminosity"/>
<path d="M139.378 77.9879L130.667 77.2631L129.878 86.7472L138.588 87.472L139.378 77.9879Z" fill="white" fill-opacity="0.3" style="mix-blend-mode:luminosity"/>
<path d="M55.4243 32.8039L46.7135 32.0791L45.9244 41.5632L54.6352 42.288L55.4243 32.8039Z" fill="white" fill-opacity="0.3" style="mix-blend-mode:luminosity"/>
<path d="M52.2679 70.7401L43.5571 70.0154L42.768 79.4995L51.4788 80.2242L52.2679 70.7401Z" fill="white" fill-opacity="0.3" style="mix-blend-mode:luminosity"/>
<path d="M107.688 37.1523L98.9769 36.4276L98.1878 45.9117L106.899 46.6364L107.688 37.1523Z" fill="white" fill-opacity="0.3" style="mix-blend-mode:luminosity"/>
<path d="M104.531 75.0886L95.8205 74.3638L95.0314 83.8479L103.742 84.5727L104.531 75.0886Z" fill="white" fill-opacity="0.3" style="mix-blend-mode:luminosity"/>
<path d="M20.5813 29.9048L11.8705 29.1801L11.0814 38.6642L19.7922 39.389L20.5813 29.9048Z" fill="white" fill-opacity="0.3" style="mix-blend-mode:luminosity"/>
<path d="M17.4249 67.8411L8.7141 67.1163L7.92499 76.6005L16.6358 77.3252L17.4249 67.8411Z" fill="white" fill-opacity="0.3" style="mix-blend-mode:luminosity"/>
<path d="M258.142 21.0214L249.431 20.2966L248.641 29.7806L257.352 30.5053L258.142 21.0214Z" fill="white" fill-opacity="0.3" style="mix-blend-mode:luminosity"/>
<path d="M254.985 58.9576L246.274 58.2328L245.485 67.7168L254.197 68.4419L254.985 58.9576Z" fill="white" fill-opacity="0.3" style="mix-blend-mode:luminosity"/>
<path d="M256.563 39.9895L247.852 39.2647L247.063 48.7487L255.774 49.4735L256.563 39.9895Z" fill="white" fill-opacity="0.3" style="mix-blend-mode:luminosity"/>
<path d="M253.406 77.9257L244.696 77.201L243.907 86.685L252.617 87.4097L253.406 77.9257Z" fill="white" fill-opacity="0.3" style="mix-blend-mode:luminosity"/>
<path d="M188.453 15.223L179.742 14.4983L178.954 23.9824L187.664 24.7071L188.453 15.223Z" fill="white" fill-opacity="0.3" style="mix-blend-mode:luminosity"/>
<path d="M185.296 53.1591L176.587 52.4347L175.798 61.9187L184.507 62.6433L185.296 53.1591Z" fill="white" fill-opacity="0.3" style="mix-blend-mode:luminosity"/>
<path d="M186.875 34.1912L178.165 33.4666L177.376 42.9506L186.086 43.6753L186.875 34.1912Z" fill="white" fill-opacity="0.3" style="mix-blend-mode:luminosity"/>
<path d="M183.718 72.1274L175.009 71.4028L174.219 80.8868L182.929 81.6115L183.718 72.1274Z" fill="white" fill-opacity="0.3" style="mix-blend-mode:luminosity"/>
<path d="M259.72 2.0535L251.01 1.32874L250.22 10.8129L258.931 11.5376L259.72 2.0535Z" fill="white" fill-opacity="0.3" style="mix-blend-mode:luminosity"/>
<path d="M190.031 -3.74484L181.32 -4.46959L180.531 5.01454L189.242 5.7393L190.031 -3.74484Z" fill="white" fill-opacity="0.3" style="mix-blend-mode:luminosity"/>
<path d="M223.298 18.1222L214.587 17.3975L213.799 26.8816L222.509 27.6063L223.298 18.1222Z" fill="white" fill-opacity="0.3" style="mix-blend-mode:luminosity"/>
<path d="M220.142 56.0586L211.431 55.3336L210.643 64.8179L219.353 65.5426L220.142 56.0586Z" fill="white" fill-opacity="0.3" style="mix-blend-mode:luminosity"/>
<path d="M221.72 37.0904L213.01 36.3658L212.221 45.8498L220.931 46.5744L221.72 37.0904Z" fill="white" fill-opacity="0.3" style="mix-blend-mode:luminosity"/>
<path d="M218.563 75.0267L209.854 74.302L209.065 83.786L217.774 84.5107L218.563 75.0267Z" fill="white" fill-opacity="0.3" style="mix-blend-mode:luminosity"/>
<path d="M153.613 12.3243L144.902 11.5995L144.112 21.0835L152.823 21.8082L153.613 12.3243Z" fill="white" fill-opacity="0.3" style="mix-blend-mode:luminosity"/>
<path d="M150.456 50.2605L141.745 49.5358L140.956 59.0197L149.667 59.7445L150.456 50.2605Z" fill="white" fill-opacity="0.3" style="mix-blend-mode:luminosity"/>
<path d="M66.5034 5.07651L57.7927 4.35175L57.0025 13.8357L65.7132 14.5605L66.5034 5.07651Z" fill="white" fill-opacity="0.3" style="mix-blend-mode:luminosity"/>
<path d="M63.3459 43.0128L54.6352 42.288L53.8461 51.772L62.5579 52.497L63.3459 43.0128Z" fill="white" fill-opacity="0.3" style="mix-blend-mode:luminosity"/>
<path d="M118.767 9.42496L110.056 8.70021L109.266 18.1842L117.977 18.9089L118.767 9.42496Z" fill="white" fill-opacity="0.3" style="mix-blend-mode:luminosity"/>
<path d="M115.61 47.3611L106.899 46.6364L106.109 56.1204L114.82 56.8452L115.61 47.3611Z" fill="white" fill-opacity="0.3" style="mix-blend-mode:luminosity"/>
<path d="M31.6582 2.1773L22.9474 1.45254L22.1595 10.9367L30.868 11.6613L31.6582 2.1773Z" fill="white" fill-opacity="0.3" style="mix-blend-mode:luminosity"/>
<path d="M28.5007 40.1135L19.7922 39.389L19.0019 48.8731L27.7127 49.5978L28.5007 40.1135Z" fill="white" fill-opacity="0.3" style="mix-blend-mode:luminosity"/>
<path d="M152.034 31.2924L143.323 30.5676L142.534 40.0516L151.245 40.7764L152.034 31.2924Z" fill="white" fill-opacity="0.3" style="mix-blend-mode:luminosity"/>
<path d="M148.877 69.2286L140.167 68.5039L139.378 77.9879L148.088 78.7126L148.877 69.2286Z" fill="white" fill-opacity="0.3" style="mix-blend-mode:luminosity"/>
<path d="M64.9241 24.0446L56.2134 23.3199L55.4243 32.8039L64.135 33.5286L64.9241 24.0446Z" fill="white" fill-opacity="0.3" style="mix-blend-mode:luminosity"/>
<path d="M61.7677 61.9809L53.057 61.2561L52.2679 70.7401L60.9786 71.4649L61.7677 61.9809Z" fill="white" fill-opacity="0.3" style="mix-blend-mode:luminosity"/>
<path d="M117.187 28.3931L108.477 27.6683L107.688 37.1523L116.398 37.8771L117.187 28.3931Z" fill="white" fill-opacity="0.3" style="mix-blend-mode:luminosity"/>
<path d="M114.031 66.3293L105.32 65.6046L104.531 75.0886L113.242 75.8133L114.031 66.3293Z" fill="white" fill-opacity="0.3" style="mix-blend-mode:luminosity"/>
<path d="M30.0789 21.1454L21.3703 20.4208L20.5813 29.9048L29.2898 30.6294L30.0789 21.1454Z" fill="white" fill-opacity="0.3" style="mix-blend-mode:luminosity"/>
<path d="M26.9225 59.0817L18.214 58.3571L17.4249 67.8411L26.1334 68.5657L26.9225 59.0817Z" fill="white" fill-opacity="0.3" style="mix-blend-mode:luminosity"/>
<path d="M224.876 -0.845621L216.165 -1.57038L215.376 7.91375L224.087 8.63851L224.876 -0.845621Z" fill="white" fill-opacity="0.3" style="mix-blend-mode:luminosity"/>
<path d="M155.191 -6.64359L146.481 -7.36834L145.691 2.11579L154.402 2.84055L155.191 -6.64359Z" fill="white" fill-opacity="0.3" style="mix-blend-mode:luminosity"/>
<path d="M68.0816 -13.8913L59.3708 -14.6161L58.5817 -5.13197L67.2925 -4.40721L68.0816 -13.8913Z" fill="white" fill-opacity="0.3" style="mix-blend-mode:luminosity"/>
<path d="M120.345 -9.54289L111.634 -10.2677L110.845 -0.783517L119.556 -0.0587591L120.345 -9.54289Z" fill="white" fill-opacity="0.3" style="mix-blend-mode:luminosity"/>
<path d="M33.2364 -16.7906L24.5256 -17.5153L23.7365 -8.03118L32.4473 -7.30642L33.2364 -16.7906Z" fill="white" fill-opacity="0.3" style="mix-blend-mode:luminosity"/>
<path d="M240.718 19.5717L232.008 18.8469L231.22 28.3311L239.93 29.0558L240.718 19.5717Z" fill="white" fill-opacity="0.3" style="mix-blend-mode:luminosity"/>
<path d="M237.563 57.5081L228.852 56.7833L228.062 66.2674L236.774 66.9921L237.563 57.5081Z" fill="white" fill-opacity="0.3" style="mix-blend-mode:luminosity"/>
<path d="M239.141 38.5399L230.431 37.8152L229.642 47.2992L238.352 48.0239L239.141 38.5399Z" fill="white" fill-opacity="0.3" style="mix-blend-mode:luminosity"/>
<path d="M235.985 76.4762L227.274 75.7514L226.485 85.2355L235.196 85.9602L235.985 76.4762Z" fill="white" fill-opacity="0.3" style="mix-blend-mode:luminosity"/>
<path d="M171.031 13.7735L162.321 13.0487L161.531 22.5329L170.243 23.2577L171.031 13.7735Z" fill="white" fill-opacity="0.3" style="mix-blend-mode:luminosity"/>
<path d="M167.876 51.7099L159.164 50.9852L158.375 60.4693L167.087 61.1939L167.876 51.7099Z" fill="white" fill-opacity="0.3" style="mix-blend-mode:luminosity"/>
<path d="M83.926 6.52612L75.2153 5.80136L74.4262 15.2855L83.1369 16.0102L83.926 6.52612Z" fill="white" fill-opacity="0.3" style="mix-blend-mode:luminosity"/>
<path d="M80.7696 44.4625L72.0589 43.7378L71.2698 53.2219L79.9805 53.9467L80.7696 44.4625Z" fill="white" fill-opacity="0.3" style="mix-blend-mode:luminosity"/>
<path d="M169.454 32.7418L160.742 32.0169L159.953 41.501L168.665 42.2258L169.454 32.7418Z" fill="white" fill-opacity="0.3" style="mix-blend-mode:luminosity"/>
<path d="M166.298 70.6781L157.586 69.9531L156.797 79.4373L165.509 80.1621L166.298 70.6781Z" fill="white" fill-opacity="0.3" style="mix-blend-mode:luminosity"/>
<path d="M82.3478 25.4942L73.6371 24.7695L72.848 34.2536L81.5587 34.9784L82.3478 25.4942Z" fill="white" fill-opacity="0.3" style="mix-blend-mode:luminosity"/>
<path d="M79.1914 63.4305L70.4807 62.7058L69.6916 72.1899L78.4023 72.9146L79.1914 63.4305Z" fill="white" fill-opacity="0.3" style="mix-blend-mode:luminosity"/>
<path d="M242.297 0.6038L233.586 -0.120958L232.797 9.36318L241.508 10.0879L242.297 0.6038Z" fill="white" fill-opacity="0.3" style="mix-blend-mode:luminosity"/>
<path d="M172.609 -5.19435L163.899 -5.91911L163.11 3.56503L171.82 4.28978L172.609 -5.19435Z" fill="white" fill-opacity="0.3" style="mix-blend-mode:luminosity"/>
<path d="M85.5042 -12.4417L76.7934 -13.1665L76.0043 -3.68236L84.7151 -2.9576L85.5042 -12.4417Z" fill="white" fill-opacity="0.3" style="mix-blend-mode:luminosity"/>
<path d="M205.877 16.6727L197.166 15.948L196.378 25.4321L205.089 26.1569L205.877 16.6727Z" fill="white" fill-opacity="0.3" style="mix-blend-mode:luminosity"/>
<path d="M202.721 54.6091L194.01 53.8844L193.22 63.3685L201.932 64.0931L202.721 54.6091Z" fill="white" fill-opacity="0.3" style="mix-blend-mode:luminosity"/>
<path d="M204.299 35.641L195.589 34.9163L194.8 44.4003L203.51 45.125L204.299 35.641Z" fill="white" fill-opacity="0.3" style="mix-blend-mode:luminosity"/>
<path d="M201.143 73.5773L192.432 72.8525L191.643 82.3365L200.354 83.0613L201.143 73.5773Z" fill="white" fill-opacity="0.3" style="mix-blend-mode:luminosity"/>
<path d="M136.189 10.8746L127.479 10.1498L126.69 19.6339L135.401 20.3587L136.189 10.8746Z" fill="white" fill-opacity="0.3" style="mix-blend-mode:luminosity"/>
<path d="M133.034 48.811L124.322 48.0859L123.533 57.5701L132.245 58.295L133.034 48.811Z" fill="white" fill-opacity="0.3" style="mix-blend-mode:luminosity"/>
<path d="M49.0819 3.627L40.3712 2.90224L39.582 12.3864L48.2917 13.111L49.0819 3.627Z" fill="white" fill-opacity="0.3" style="mix-blend-mode:luminosity"/>
<path d="M45.9244 41.5632L37.2147 40.8386L36.4256 50.3228L45.1364 51.0475L45.9244 41.5632Z" fill="white" fill-opacity="0.3" style="mix-blend-mode:luminosity"/>
<path d="M101.346 7.97554L92.6357 7.25078L91.8466 16.7349L100.557 17.4597L101.346 7.97554Z" fill="white" fill-opacity="0.3" style="mix-blend-mode:luminosity"/>
<path d="M98.19 45.9117L89.4793 45.1869L88.6902 54.671L97.4009 55.3958L98.19 45.9117Z" fill="white" fill-opacity="0.3" style="mix-blend-mode:luminosity"/>
<path d="M14.2345 0.7276L5.52371 0.0028417L4.7346 9.48697L13.4454 10.2117L14.2345 0.7276Z" fill="white" fill-opacity="0.3" style="mix-blend-mode:luminosity"/>
<path d="M11.0781 38.664L2.3673 37.9392L1.57819 47.4234L10.289 48.1481L11.0781 38.664Z" fill="white" fill-opacity="0.3" style="mix-blend-mode:luminosity"/>
<path d="M134.612 29.8429L125.9 29.1179L125.111 38.6021L133.823 39.3269L134.612 29.8429Z" fill="white" fill-opacity="0.3" style="mix-blend-mode:luminosity"/>
<path d="M131.456 67.7791L122.744 67.0542L121.955 76.5383L130.667 77.2631L131.456 67.7791Z" fill="white" fill-opacity="0.3" style="mix-blend-mode:luminosity"/>
<path d="M47.5026 22.5951L38.793 21.8704L38.0038 31.3545L46.7135 32.0791L47.5026 22.5951Z" fill="white" fill-opacity="0.3" style="mix-blend-mode:luminosity"/>
<path d="M44.3462 60.5314L35.6366 59.8066L34.8475 69.2908L43.5571 70.0154L44.3462 60.5314Z" fill="white" fill-opacity="0.3" style="mix-blend-mode:luminosity"/>
<path d="M99.7682 26.9437L91.0575 26.2189L90.2684 35.703L98.9791 36.4278L99.7682 26.9437Z" fill="white" fill-opacity="0.3" style="mix-blend-mode:luminosity"/>
<path d="M96.6118 64.8799L87.9011 64.1552L87.112 73.6393L95.8227 74.3641L96.6118 64.8799Z" fill="white" fill-opacity="0.3" style="mix-blend-mode:luminosity"/>
<path d="M12.6563 19.6957L3.94551 18.971L3.1564 28.4551L11.8672 29.1799L12.6563 19.6957Z" fill="white" fill-opacity="0.3" style="mix-blend-mode:luminosity"/>
<path d="M9.49988 57.632L0.789112 56.9072L7.5137e-06 66.3914L8.71077 67.1161L9.49988 57.632Z" fill="white" fill-opacity="0.3" style="mix-blend-mode:luminosity"/>
<path d="M207.455 -2.29514L198.744 -3.01989L197.955 6.46424L206.666 7.189L207.455 -2.29514Z" fill="white" fill-opacity="0.3" style="mix-blend-mode:luminosity"/>
<path d="M137.768 -8.09329L129.057 -8.81804L128.268 0.666089L136.978 1.39085L137.768 -8.09329Z" fill="white" fill-opacity="0.3" style="mix-blend-mode:luminosity"/>
<path d="M50.6601 -15.3409L41.9493 -16.0656L41.1602 -6.58148L49.871 -5.85672L50.6601 -15.3409Z" fill="white" fill-opacity="0.3" style="mix-blend-mode:luminosity"/>
<path d="M102.925 -10.9923L94.2138 -11.7171L93.4247 -2.23294L102.135 -1.50818L102.925 -10.9923Z" fill="white" fill-opacity="0.3" style="mix-blend-mode:luminosity"/>
<path d="M15.8126 -18.2403L7.10188 -18.965L6.31278 -9.48088L15.0235 -8.75612L15.8126 -18.2403Z" fill="white" fill-opacity="0.3" style="mix-blend-mode:luminosity"/>
<path d="M267.641 12.2621L258.93 11.5373L258.141 21.0215L266.852 21.7462L267.641 12.2621Z" fill="white" fill-opacity="0.3" style="mix-blend-mode:luminosity"/>
<path d="M197.956 6.46413L189.245 5.73937L188.456 15.2235L197.167 15.9483L197.956 6.46413Z" fill="white" fill-opacity="0.3" style="mix-blend-mode:luminosity"/>
<path d="M269.219 -6.70604L260.508 -7.4308L259.72 2.0535L268.43 2.77809L269.219 -6.70604Z" fill="white" fill-opacity="0.3" style="mix-blend-mode:luminosity"/>
<path d="M199.534 -12.504L190.823 -13.2288L190.034 -3.74463L198.744 -3.01989L199.534 -12.504Z" fill="white" fill-opacity="0.3" style="mix-blend-mode:luminosity"/>
<path d="M232.798 9.36306L224.087 8.63851L223.298 18.1222L232.009 18.8472L232.798 9.36306Z" fill="white" fill-opacity="0.3" style="mix-blend-mode:luminosity"/>
<path d="M163.112 3.56501L154.402 2.84055L153.613 12.3243L162.323 13.0491L163.112 3.56501Z" fill="white" fill-opacity="0.3" style="mix-blend-mode:luminosity"/>
<path d="M76.0022 -3.68275L67.2914 -4.40751L66.5023 5.07662L75.213 5.80138L76.0022 -3.68275Z" fill="white" fill-opacity="0.3" style="mix-blend-mode:luminosity"/>
<path d="M128.266 0.6657L119.555 -0.059058L118.766 9.42507L127.476 10.1498L128.266 0.6657Z" fill="white" fill-opacity="0.3" style="mix-blend-mode:luminosity"/>
<path d="M41.1569 -6.58196L32.4462 -7.30672L31.6571 2.17741L40.3678 2.90217L41.1569 -6.58196Z" fill="white" fill-opacity="0.3" style="mix-blend-mode:luminosity"/>
<path d="M234.376 -9.60507L225.665 -10.3298L224.876 -0.845621L233.586 -0.120958L234.376 -9.60507Z" fill="white" fill-opacity="0.3" style="mix-blend-mode:luminosity"/>
<path d="M164.69 -15.4031L155.979 -16.1279L155.191 -6.64359L163.901 -5.91899L164.69 -15.4031Z" fill="white" fill-opacity="0.3" style="mix-blend-mode:luminosity"/>
<path d="M77.5803 -22.6509L68.8696 -23.3756L68.0816 -13.8913L76.7912 -13.1668L77.5803 -22.6509Z" fill="white" fill-opacity="0.3" style="mix-blend-mode:luminosity"/>
<path d="M129.844 -18.3024L121.133 -19.0272L120.345 -9.54289L129.055 -8.8183L129.844 -18.3024Z" fill="white" fill-opacity="0.3" style="mix-blend-mode:luminosity"/>
<path d="M42.7351 -25.5501L34.0244 -26.2749L33.2364 -16.7906L41.946 -16.066L42.7351 -25.5501Z" fill="white" fill-opacity="0.3" style="mix-blend-mode:luminosity"/>
<path d="M250.22 10.8129L241.508 10.0879L240.718 19.5717L249.431 20.2966L250.22 10.8129Z" fill="white" fill-opacity="0.3" style="mix-blend-mode:luminosity"/>
<path d="M180.531 5.01454L171.82 4.28978L171.031 13.7735L179.742 14.4983L180.531 5.01454Z" fill="white" fill-opacity="0.3" style="mix-blend-mode:luminosity"/>
<path d="M93.4225 -2.23333L84.7118 -2.95809L83.9227 6.52605L92.6334 7.2508L93.4225 -2.23333Z" fill="white" fill-opacity="0.3" style="mix-blend-mode:luminosity"/>
<path d="M251.798 -8.15555L243.087 -8.88031L242.297 0.6038L251.01 1.32874L251.798 -8.15555Z" fill="white" fill-opacity="0.3" style="mix-blend-mode:luminosity"/>
<path d="M182.11 -13.9537L173.4 -14.6785L172.609 -5.19435L181.32 -4.46959L182.11 -13.9537Z" fill="white" fill-opacity="0.3" style="mix-blend-mode:luminosity"/>
<path d="M95.0007 -21.2015L86.29 -21.9262L85.5009 -12.4421L94.2116 -11.7173L95.0007 -21.2015Z" fill="white" fill-opacity="0.3" style="mix-blend-mode:luminosity"/>
<path d="M215.377 7.91364L206.666 7.189L205.877 16.6727L214.588 17.3978L215.377 7.91364Z" fill="white" fill-opacity="0.3" style="mix-blend-mode:luminosity"/>
<path d="M145.691 2.11579L136.978 1.39085L136.189 10.8746L144.902 11.5995L145.691 2.11579Z" fill="white" fill-opacity="0.3" style="mix-blend-mode:luminosity"/>
<path d="M58.5817 -5.13197L49.8699 -5.85702L49.0808 3.62711L57.7927 4.35175L58.5817 -5.13197Z" fill="white" fill-opacity="0.3" style="mix-blend-mode:luminosity"/>
<path d="M110.845 -0.783517L102.133 -1.50857L101.344 7.97556L110.056 8.70021L110.845 -0.783517Z" fill="white" fill-opacity="0.3" style="mix-blend-mode:luminosity"/>
<path d="M23.7376 -8.03129L15.0269 -8.75605L14.2378 0.72808L22.9485 1.45284L23.7376 -8.03129Z" fill="white" fill-opacity="0.3" style="mix-blend-mode:luminosity"/>
<path d="M216.956 -11.0545L208.245 -11.7792L207.455 -2.29514L216.165 -1.57038L216.956 -11.0545Z" fill="white" fill-opacity="0.3" style="mix-blend-mode:luminosity"/>
<path d="M147.269 -16.8526L138.558 -17.5774L137.768 -8.09329L146.481 -7.36834L147.269 -16.8526Z" fill="white" fill-opacity="0.3" style="mix-blend-mode:luminosity"/>
<path d="M60.1588 -24.1004L51.4481 -24.8252L50.6601 -15.3409L59.3708 -14.6161L60.1588 -24.1004Z" fill="white" fill-opacity="0.3" style="mix-blend-mode:luminosity"/>
<path d="M112.422 -19.7519L103.711 -20.4767L102.922 -10.9926L111.634 -10.2677L112.422 -19.7519Z" fill="white" fill-opacity="0.3" style="mix-blend-mode:luminosity"/>
<path d="M25.3158 -26.9994L16.6051 -27.7242L15.816 -18.2401L24.5256 -17.5153L25.3158 -26.9994Z" fill="white" fill-opacity="0.3" style="mix-blend-mode:luminosity"/>
</svg>
