<svg width="31" height="31" viewBox="0 0 31 31" fill="none" xmlns="http://www.w3.org/2000/svg">
<g filter="url(#filter0_i_1_987)">
<path d="M9.17025 2.47288C10.3619 0.0453432 13.4348 -0.752139 15.6565 0.789585L19.7306 3.61673C20.2952 4.00857 20.9435 4.26329 21.6239 4.36067L26.5327 5.06326C29.2097 5.44641 30.9177 8.12253 30.138 10.7119L28.7082 15.4602C28.51 16.1183 28.4681 16.8136 28.5857 17.4907L29.4344 22.3764C29.8973 25.0408 27.8799 27.4922 25.1763 27.5508L20.2186 27.6583C19.5315 27.6732 18.8573 27.8481 18.2496 28.1692L13.8653 30.4862C11.4744 31.7497 8.51957 30.5886 7.62838 28.0355L5.99415 23.3536C5.76765 22.7047 5.39292 22.1176 4.89974 21.6389L1.34135 18.1851C-0.599146 16.3017 -0.408001 13.1327 1.74481 11.4961L5.69254 8.49511C6.23968 8.07917 6.68227 7.54135 6.98512 6.92439L9.17025 2.47288Z" fill="url(#paint0_linear_1_987)"/>
<path d="M9.17025 2.47288C10.3619 0.0453432 13.4348 -0.752139 15.6565 0.789585L19.7306 3.61673C20.2952 4.00857 20.9435 4.26329 21.6239 4.36067L26.5327 5.06326C29.2097 5.44641 30.9177 8.12253 30.138 10.7119L28.7082 15.4602C28.51 16.1183 28.4681 16.8136 28.5857 17.4907L29.4344 22.3764C29.8973 25.0408 27.8799 27.4922 25.1763 27.5508L20.2186 27.6583C19.5315 27.6732 18.8573 27.8481 18.2496 28.1692L13.8653 30.4862C11.4744 31.7497 8.51957 30.5886 7.62838 28.0355L5.99415 23.3536C5.76765 22.7047 5.39292 22.1176 4.89974 21.6389L1.34135 18.1851C-0.599146 16.3017 -0.408001 13.1327 1.74481 11.4961L5.69254 8.49511C6.23968 8.07917 6.68227 7.54135 6.98512 6.92439L9.17025 2.47288Z" fill="url(#paint1_radial_1_987)" fill-opacity="0.4"/>
</g>
<path d="M9.62396 2.69546C10.6795 0.545404 13.4012 -0.161299 15.369 1.20423L19.4422 4.03185C20.0713 4.46836 20.7939 4.75175 21.5518 4.86031L26.4615 5.56351C28.8321 5.90301 30.3452 8.27263 29.655 10.5658L28.2249 15.3147C28.0041 16.048 27.9567 16.8227 28.0878 17.5772L28.937 22.4631C29.3467 24.8229 27.56 26.9944 25.1655 27.0463L20.2076 27.1538C19.4421 27.1704 18.6911 27.3652 18.0141 27.7229L13.6292 30.0396C11.5115 31.1587 8.89446 30.1302 8.10512 27.8689L6.47088 23.1871C6.21854 22.4642 5.80123 21.81 5.25186 21.2767L1.69342 17.8228C-0.0253221 16.1546 0.143683 13.3478 2.05044 11.8983L5.99846 8.89709C6.60802 8.43365 7.10098 7.83385 7.4384 7.14647L9.62396 2.69546Z" stroke="white"/>
<defs>
<filter id="filter0_i_1_987" x="0" y="0" width="30.3276" height="35.0397" filterUnits="userSpaceOnUse" color-interpolation-filters="sRGB">
<feFlood flood-opacity="0" result="BackgroundImageFix"/>
<feBlend mode="normal" in="SourceGraphic" in2="BackgroundImageFix" result="shape"/>
<feColorMatrix in="SourceAlpha" type="matrix" values="0 0 0 0 0 0 0 0 0 0 0 0 0 0 0 0 0 0 127 0" result="hardAlpha"/>
<feOffset dy="4"/>
<feGaussianBlur stdDeviation="5.95"/>
<feComposite in2="hardAlpha" operator="arithmetic" k2="-1" k3="1"/>
<feColorMatrix type="matrix" values="0 0 0 0 1 0 0 0 0 0.891585 0 0 0 0 0.549335 0 0 0 1 0"/>
<feBlend mode="normal" in2="shape" result="effect1_innerShadow_1_987"/>
</filter>
<linearGradient id="paint0_linear_1_987" x1="2.63718" y1="3.50943" x2="30.2314" y2="6.1151" gradientUnits="userSpaceOnUse">
<stop stop-color="#FFB200"/>
<stop offset="1" stop-color="#FF6100"/>
</linearGradient>
<radialGradient id="paint1_radial_1_987" cx="0" cy="0" r="1" gradientTransform="matrix(15.0756 0 -0.192637 14.1939 5.11338 3.24419)" gradientUnits="userSpaceOnUse">
<stop stop-color="white"/>
<stop offset="1" stop-color="white" stop-opacity="0"/>
</radialGradient>
</defs>
</svg>
