<svg width="69" height="13" viewBox="0 0 69 13" fill="none" xmlns="http://www.w3.org/2000/svg">
<path d="M50.8191 0.0129891C52.0778 0.131569 52.9151 1.09565 53.0166 2.18397C53.1233 3.32859 52.4081 4.49845 51.067 4.8045C47.2343 5.67885 42.8566 6.72685 38.8556 7.79587C41.9661 7.50467 45.2457 7.28537 48.4514 7.17124C52.5192 7.02641 56.505 7.04716 59.9063 7.30305C63.2483 7.55447 66.2215 8.04481 68.1319 8.94383C68.8868 9.29917 69.2112 10.1995 68.8559 10.9545C68.5004 11.7093 67.6002 12.0327 66.8452 11.6775C65.4778 11.034 62.9931 10.5663 59.6801 10.317C56.4261 10.0722 52.5584 10.0487 48.5586 10.1911C40.5438 10.4765 32.1448 11.4191 27.2678 12.4939C26.9373 12.5668 26.5715 12.5862 26.2064 12.5067C25.8614 12.4315 25.3871 12.2341 25.0545 11.767C24.6735 11.2316 24.6513 10.5797 24.8873 10.0475C25.0932 9.58341 25.4506 9.28947 25.7352 9.11302L26.1228 8.88776C27.0812 8.36103 28.4171 7.82724 29.9306 7.30207C31.6933 6.69045 33.8096 6.05202 36.0865 5.41832C38.8826 4.64014 41.9447 3.86099 44.9308 3.13913C25.2589 3.98602 8.7536 9.21899 2.12982 12.1929C1.36875 12.5345 0.474845 12.1944 0.132948 11.4335C-0.208841 10.6723 0.131092 9.77746 0.89235 9.43567C8.48983 6.0246 27.9843 -0.0402441 50.5614 0.000201272L50.8191 0.0129891Z" fill="url(#paint0_linear_1_986)"/>
<defs>
<linearGradient id="paint0_linear_1_986" x1="0" y1="6.27905" x2="69" y2="6.27905" gradientUnits="userSpaceOnUse">
<stop stop-color="#5FFB0F"/>
<stop offset="1" stop-color="#F5F607"/>
</linearGradient>
</defs>
</svg>
