<svg width="339" height="78" viewBox="0 0 339 78" fill="none" xmlns="http://www.w3.org/2000/svg">
<path d="M206.717 28.4784L200.039 22.063C199.063 21.1253 199.574 19.483 200.907 19.2708L208.114 18.1237C208.622 18.0427 209.141 18.2056 209.513 18.5633L217.615 26.3469C218.301 27.0057 218.596 27.9709 218.396 28.8962L216.143 39.3059C216.001 39.962 215.471 40.4628 214.807 40.5685L205.725 42.014C204.509 42.2077 203.515 41.0401 203.904 39.874L207.139 30.1788C207.339 29.5799 207.175 28.9179 206.717 28.4784Z" fill="white" fill-opacity="0.15"/>
<path d="M188.791 29.766L182.113 23.3506C181.137 22.4129 181.647 20.7706 182.98 20.5584L190.187 19.4113C190.695 19.3303 191.214 19.4932 191.586 19.8509L199.688 27.6345C200.374 28.2933 200.67 29.2585 200.469 30.1838L198.216 40.5935C198.074 41.2496 197.544 41.7504 196.88 41.8561L187.798 43.3016C186.582 43.4953 185.588 42.3277 185.977 41.1616L189.212 31.4664C189.412 30.8675 189.248 30.2055 188.791 29.766Z" fill="white" fill-opacity="0.15"/>
<path d="M242.975 11.7299C242.989 10.4055 243.956 9.26677 245.283 9.28408C254.933 9.41004 268.414 18.5256 269.576 25.5847C270.459 30.9553 258.158 38.8284 249.631 43.3102C248.018 44.158 246.073 43.143 245.776 41.3419L245.365 38.8424L223.782 40.842C222.829 40.9303 222.078 40.0364 222.332 39.1158L225.421 27.9111L217.399 19.6842C216.614 18.8789 217.078 17.529 218.191 17.3837L242.95 14.1496L242.975 11.7299ZM235.388 21.6987C235.079 21.7283 234.812 21.7973 234.586 21.9055C234.277 22.061 234.101 22.3733 234.059 22.8417L233.078 33.815C233.074 33.8546 233.075 33.9054 233.081 33.9677C233.138 34.0961 233.246 34.1527 233.406 34.1375L233.441 34.1348C233.647 34.115 233.776 33.9999 233.829 33.7903L233.853 33.5284L252.577 31.7366L252.55 32.0465C252.58 32.2165 252.692 32.2922 252.887 32.2736L252.938 32.2684C253.121 32.2507 253.239 32.1451 253.29 31.9514L254.292 20.7524C254.344 20.1726 253.958 19.9225 253.133 20.0014L235.388 21.6987ZM247.239 23.8489L248.351 23.743C249.102 23.6712 249.657 24.2201 249.59 24.9698L249.37 27.4135C249.303 28.1632 248.641 28.8291 247.89 28.901L246.777 29.0079C246.027 29.0797 245.472 28.5298 245.539 27.7801L245.758 25.3364C245.826 24.5867 246.488 23.9208 247.239 23.8489ZM239.577 24.5819L240.708 24.4741C241.458 24.4025 242.012 24.9516 241.945 25.7011L241.726 28.1449C241.658 28.8946 240.996 29.5605 240.245 29.6324L239.115 29.741C238.365 29.8128 237.811 29.2627 237.878 28.5131L238.097 26.0694C238.164 25.3197 238.827 24.6537 239.577 24.5819Z" fill="white" fill-opacity="0.15"/>
<path d="M116.467 37.5073L109.789 31.0918C108.813 30.1541 109.324 28.5118 110.657 28.2996L117.864 27.1525C118.372 27.0715 118.891 27.2344 119.263 27.5921L127.365 35.3757C128.051 36.0345 128.346 36.9997 128.146 37.925L125.893 48.3347C125.751 48.9908 125.221 49.4916 124.557 49.5973L115.475 51.0428C114.259 51.2365 113.265 50.0689 113.654 48.9028L116.889 39.2077C117.089 38.6087 116.925 37.9467 116.467 37.5073Z" fill="white" fill-opacity="0.15"/>
<path d="M98.5395 38.7953L91.8617 32.3799C90.8857 31.4422 91.3959 29.7999 92.7291 29.5877L99.9359 28.4406C100.444 28.3596 100.963 28.5225 101.335 28.8802L109.437 36.6638C110.123 37.3226 110.419 38.2878 110.218 39.2131L107.965 49.6228C107.823 50.2789 107.293 50.7796 106.629 50.8854L97.5475 52.3309C96.3308 52.5245 95.3372 51.357 95.7263 50.1909L98.9614 40.4957C99.1612 39.8968 98.997 39.2348 98.5395 38.7953Z" fill="white" fill-opacity="0.15"/>
<path d="M152.727 20.7587C152.741 19.4344 153.708 18.2956 155.035 18.313C164.685 18.4389 178.166 27.5545 179.328 34.6136C180.211 39.9841 167.91 47.8572 159.383 52.339C157.77 53.1869 155.825 52.1719 155.528 50.3708L155.117 47.8712L133.534 49.8708C132.581 49.9591 131.83 49.0653 132.084 48.1447L135.172 36.94L127.151 28.7131C126.366 27.9078 126.83 26.5579 127.943 26.4125L152.702 23.1785L152.727 20.7587ZM145.138 30.7269C144.829 30.7565 144.562 30.8255 144.336 30.9337C144.027 31.0893 143.851 31.4015 143.809 31.8699L142.827 42.8432C142.824 42.8828 142.825 42.9337 142.831 42.9959C142.887 43.1242 142.996 43.1809 143.156 43.1657L143.191 43.1621C143.397 43.1423 143.526 43.0279 143.579 42.8185L143.603 42.5556L162.327 40.7639L162.299 41.0737C162.33 41.2441 162.442 41.3205 162.637 41.3018L162.688 41.2966C162.871 41.279 162.989 41.1733 163.04 40.9796L164.043 29.7805C164.095 29.2008 163.708 28.9497 162.884 29.0285L145.138 30.7269ZM156.988 32.8771L158.102 32.7701C158.852 32.6985 159.407 33.2484 159.339 33.998L159.12 36.4418C159.053 37.1914 158.39 37.8574 157.64 37.9292L156.527 38.0352C155.777 38.107 155.223 37.5579 155.29 36.8082L155.508 34.3646C155.575 33.615 156.238 32.9491 156.988 32.8771ZM149.327 33.6101L150.457 33.5014C151.208 33.4296 151.762 33.9797 151.695 34.7294L151.476 37.1729C151.409 37.9227 150.746 38.5888 149.995 38.6606L148.865 38.7683C148.115 38.8399 147.561 38.2908 147.628 37.5413L147.847 35.0976C147.914 34.3478 148.577 33.6819 149.327 33.6101Z" fill="white" fill-opacity="0.15"/>
<path d="M27.6675 46.4775L20.9896 40.062C20.0136 39.1243 20.5238 37.4821 21.857 37.2698L29.0638 36.1227C29.5724 36.0417 30.0908 36.2046 30.4631 36.5623L38.5651 44.3459C39.2508 45.0047 39.5466 45.9699 39.3463 46.8952L37.0929 57.3049C36.9508 57.9611 36.4209 58.4618 35.7568 58.5675L26.6755 60.013C25.4588 60.2067 24.4651 59.0391 24.8543 57.873L28.0893 48.1779C28.2892 47.5789 28.1249 46.9169 27.6675 46.4775Z" fill="white" fill-opacity="0.15"/>
<path d="M9.74267 47.7651L3.06479 41.3496C2.08879 40.4119 2.59899 38.7697 3.93221 38.5574L11.139 37.4103C11.6476 37.3293 12.166 37.4922 12.5383 37.8499L20.6403 45.6335C21.326 46.2923 21.6218 47.2575 21.4215 48.1828L19.1681 58.5925C19.026 59.2487 18.4961 59.7494 17.8319 59.8551L8.75065 61.3006C7.53395 61.4943 6.54034 60.3267 6.92945 59.1606L10.1645 49.4655C10.3644 48.8665 10.2001 48.2045 9.74267 47.7651Z" fill="white" fill-opacity="0.15"/>
<path d="M63.9257 29.729C63.9396 28.4046 64.9062 27.2659 66.2329 27.2832C75.8831 27.4091 89.3639 36.5247 90.5258 43.5838C91.4095 48.9543 79.1087 56.8275 70.5815 61.3092C68.9684 62.1571 67.0229 61.1421 66.7264 59.341L66.3149 56.8414L44.7323 58.841C43.7793 58.9293 43.0286 58.0355 43.2824 57.1149L46.3707 45.9102L38.3491 37.6833C37.5638 36.878 38.0285 35.5281 39.1412 35.3827L63.9004 32.1487L63.9257 29.729ZM56.3366 39.6971C56.0274 39.7267 55.7598 39.7957 55.5343 39.9039C55.2253 40.0595 55.0495 40.3717 55.0075 40.8402L54.0257 51.8134C54.0222 51.853 54.0234 51.9039 54.0291 51.9661C54.0857 52.0944 54.1939 52.1511 54.354 52.1359L54.389 52.1323C54.5948 52.1125 54.7239 51.9981 54.7768 51.7888L54.8008 51.5259L73.5248 49.7341L73.4976 50.0439C73.5278 50.2143 73.6403 50.2907 73.835 50.2721L73.8866 50.2668C74.0696 50.2492 74.1868 50.1435 74.2382 49.9498L75.2412 38.7507C75.2931 38.171 74.9065 37.92 74.0822 37.9987L56.3366 39.6971ZM68.1867 41.8473L69.3003 41.7403C70.0506 41.6687 70.6048 42.2186 70.5377 42.9682L70.3184 45.412C70.2511 46.1616 69.5886 46.8276 68.8382 46.8995L67.7254 47.0054C66.9749 47.0772 66.4211 46.5281 66.4882 45.7784L66.7065 43.3348C66.7736 42.5852 67.4363 41.9193 68.1867 41.8473ZM60.5254 42.5803L61.6556 42.4716C62.4061 42.3998 62.96 42.9499 62.8929 43.6996L62.6746 46.1431C62.6075 46.8929 61.944 47.559 61.1934 47.6308L60.0631 47.7385C59.3129 47.8101 58.7589 47.261 58.826 46.5115L59.0453 44.0678C59.1124 43.318 59.7749 42.6521 60.5254 42.5803Z" fill="white" fill-opacity="0.15"/>
<path d="M300.355 19.5956L293.677 13.1801C292.701 12.2424 293.211 10.6002 294.545 10.388L301.751 9.24082C302.26 9.15985 302.778 9.32269 303.151 9.68042L311.253 17.464C311.938 18.1228 312.234 19.088 312.034 20.0133L309.78 30.423C309.638 31.0792 309.109 31.5799 308.444 31.6856L299.363 33.1311C298.146 33.3248 297.153 32.1572 297.542 30.9911L300.777 21.296C300.977 20.6971 300.813 20.0351 300.355 19.5956Z" fill="white" fill-opacity="0.15"/>
<path d="M282.427 20.8851L275.749 14.4696C274.773 13.532 275.284 11.8897 276.617 11.6775L283.824 10.5304C284.332 10.4494 284.851 10.6122 285.223 10.97L293.325 18.7536C294.011 19.4124 294.306 20.3775 294.106 21.3029L291.853 31.7126C291.711 32.3687 291.181 32.8694 290.517 32.9752L281.435 34.4207C280.219 34.6143 279.225 33.4468 279.614 32.2807L282.849 22.5855C283.049 21.9866 282.885 21.3246 282.427 20.8851Z" fill="white" fill-opacity="0.15"/>
<path d="M336.623 2.84959C336.637 1.52525 337.604 0.385524 338.93 0.402834C348.581 0.528854 362.062 9.64538 363.223 16.7044C364.107 22.0749 351.806 29.9481 343.279 34.4299C341.666 35.2777 339.721 34.2626 339.424 32.4616L339.013 29.9621L317.43 31.9617C316.477 32.05 315.725 31.1563 315.979 30.2357L319.068 19.0308L311.046 10.8041C310.261 9.9988 310.726 8.64872 311.839 8.50337L336.598 5.26936L336.623 2.84959ZM329.034 12.8198C328.725 12.8494 328.457 12.9175 328.232 13.0255C327.923 13.1811 327.747 13.4941 327.705 13.9627L326.723 24.9351C326.719 24.9747 326.72 25.0257 326.726 25.0879C326.783 25.2163 326.891 25.2728 327.052 25.2575L327.086 25.255C327.292 25.2353 327.422 25.1201 327.475 24.9103L327.498 24.6486L346.223 22.8566L346.195 23.1667C346.225 23.3367 346.337 23.4123 346.532 23.3938L346.583 23.3886C346.767 23.371 346.885 23.2653 346.936 23.0714L347.938 11.8724C347.99 11.2928 347.604 11.0426 346.779 11.1215L329.034 12.8198ZM340.885 14.9689L341.997 14.863C342.748 14.7912 343.302 15.3403 343.234 16.09L343.016 18.5336C342.949 19.2831 342.286 19.949 341.536 20.021L340.422 20.1281C339.672 20.1998 339.118 19.6498 339.185 18.9001L339.404 16.4564C339.472 15.7068 340.134 15.0407 340.885 14.9689ZM333.223 15.7019L334.353 15.5943C335.103 15.5225 335.658 16.0716 335.591 16.8212L335.371 19.2649C335.304 20.0146 334.642 20.6805 333.891 20.7524L332.761 20.8611C332.011 20.9329 331.457 20.3828 331.524 19.6331L331.742 17.1895C331.809 16.4399 332.473 15.7737 333.223 15.7019Z" fill="white" fill-opacity="0.15"/>
</svg>
